<?xml version="1.0" encoding="utf-8"?>
<!-- Generator: Adobe Illustrator 21.0.2, SVG Export Plug-In . SVG Version: 6.00 Build 0)  -->
<!DOCTYPE svg PUBLIC "-//W3C//DTD SVG 1.1//EN" "http://www.w3.org/Graphics/SVG/1.1/DTD/svg11.dtd">
<svg version="1.1" id="Layer_1" xmlns="http://www.w3.org/2000/svg" xmlns:xlink="http://www.w3.org/1999/xlink" x="0px" y="0px"
	 viewBox="0 0 478.9 134.6" style="enable-background:new 0 0 478.9 134.6;" xml:space="preserve">
<style type="text/css">
	.st0{fill:#0c9be5;}
</style>
<title>logo no subtitle</title>
<g>
	<path class="st0" d="M386.9,19.6L435,60c0.7,0.9,1.9,1,2.8,0.4c0.1,0,0.1-0.1,0.2-0.1l40.3-33.4l0,0c0.9-0.6,1-1.9,0.4-2.7l0,0
		C467.5,8.8,449.7-0.2,430.8,0c-16.2-0.1-31.9,5.8-44,16.7c0,0,0,0-0.1,0.1C386,17.6,386.1,18.8,386.9,19.6
		C386.9,19.5,386.9,19.5,386.9,19.6L386.9,19.6z"/>
	<path class="st0" d="M478.2,107.9L478.2,107.9l-97.3-81.6c-0.8-0.8-2-0.7-2.8,0.1c-0.1,0.1-0.1,0.1-0.2,0.2
		c-8.1,11-12.6,24.6-12.6,40.5c0,39.7,27.7,67.5,65.5,67.5c19.4,0,35.9-8.9,47.6-24c0,0,0,0,0-0.1l0,0l0,0
		C479.1,109.7,479,108.6,478.2,107.9z"/>
	<path class="st0" d="M288.1,1h-39.2c-1.2,0-2.2,1-2.2,2.2v127.2c0,1.2,1,2.2,2.2,2.2h39.2c36.4,0,65.8-29.5,65.8-65.8v0v0
		C353.9,30.5,324.4,1,288.1,1C288.1,1,288.1,1,288.1,1z"/>
	<path class="st0" d="M1.9,132.7h42.9c1,0,1.9-0.8,1.9-1.9l0,0V87.5c0-1,0.8-1.9,1.9-1.9l0,0h15.3c1,0,1.9-0.8,1.9-1.9l0,0V40.4
		c0-1,0.8-1.9,1.9-1.9l0,0h38.9c1,0,1.9-0.8,1.9-1.9l0,0V3.1c0-1-0.8-1.9-1.9-1.9c0,0,0,0,0,0H1.9C0.8,1.3,0,2.1,0,3.1c0,0,0,0,0,0
		v127.7C0,131.9,0.8,132.7,1.9,132.7z"/>
	<path class="st0" d="M122.6,1.3v129.6c0,1,0.8,1.9,1.9,1.9l0,0H229c1,0,1.9-0.8,1.9-1.9l0,0V97.3c0-1-0.8-1.9-1.9-1.9l0,0h-38.9
		c-1,0-1.9-0.8-1.9-1.9l0,0V50.2c0-1-0.8-1.9-1.9-1.9l0,0h-15.3c-1,0-1.9-0.8-1.9-1.9l0,0v-6.2c0-1,0.8-1.9,1.9-1.9l0,0H229
		c1,0,1.9-0.8,1.9-1.9l0,0V3.1c0-1-0.8-1.9-1.9-1.9L122.6,1C122.6,1,122.6,1.3,122.6,1.3z"/>
</g>
</svg>
