<svg width="200" height="200" viewBox="0 0 200 200" fill="none" xmlns="http://www.w3.org/2000/svg" style="opacity: 0.75;">
<path d="M134.836 139.608H63.8337C58.9389 139.608 54.9584 135.628 54.9584 130.733V74.5227C54.9584 69.628 58.9389 65.6475 63.8337 65.6475H108.21C109.028 65.6475 109.689 66.3087 109.689 67.1267C109.689 67.9447 109.028 68.6059 108.21 68.6059H63.8337C60.5705 68.6059 57.9168 71.2596 57.9168 74.5227V130.733C57.9168 133.996 60.5705 136.65 63.8337 136.65H134.836C138.099 136.65 140.753 133.996 140.753 130.733V84.8773C140.753 84.0592 141.414 83.398 142.232 83.398C143.05 83.398 143.711 84.0592 143.711 84.8773V130.733C143.711 135.628 139.731 139.608 134.836 139.608Z" fill="#F4E9DD"/>
<path d="M81.5842 93.7521C77.506 93.7521 74.1881 90.4342 74.1881 86.356C74.1881 82.2778 77.506 78.96 81.5842 78.96C85.6624 78.96 88.9803 82.2778 88.9803 86.356C88.9803 90.4342 85.6624 93.7521 81.5842 93.7521Z" fill="#F4E9DD"/>
<path d="M128.919 126.294H69.7506C69.2092 126.294 68.7122 125.999 68.4519 125.524C68.193 125.049 68.2137 124.469 68.5066 124.014L81.8195 103.305C82.0606 102.929 82.4615 102.682 82.9053 102.634C83.3461 102.581 83.7928 102.742 84.1079 103.059L93.2435 112.195L108.496 91.3954C108.79 90.9945 109.269 90.7652 109.762 90.7933C110.257 90.8185 110.71 91.0907 110.963 91.5181L130.193 124.061C130.464 124.519 130.468 125.084 130.203 125.547C129.94 126.009 129.45 126.294 128.919 126.294Z" fill="#F4E9DD"/>
<path d="M128.48 79.6009C129.81 79.6009 130.889 78.5222 130.889 77.1915C130.889 75.8609 129.81 74.7822 128.48 74.7822C127.149 74.7822 126.07 75.8609 126.07 77.1915C126.07 78.5222 127.149 79.6009 128.48 79.6009Z" fill="#F4E9DD"/>
<path d="M129.118 50.0007C126.605 50.0007 124.134 50.6416 121.938 51.8621L120.398 52.7184C120.065 52.9029 119.946 53.3221 120.131 53.6546L121.469 56.0612C121.653 56.3937 122.073 56.5127 122.405 56.3283L123.608 55.6592C125.32 54.7071 127.26 54.1785 129.167 54.1296C130.847 54.1296 133.664 54.6362 133.664 58.0306C133.664 59.945 132.626 60.8922 130.792 62.4018C128.841 64.0064 126.414 66.0041 126.414 69.9623V71.339C126.414 71.719 126.722 72.0274 127.102 72.0274H129.855C130.235 72.0274 130.544 71.719 130.544 71.339V69.9623C130.544 68.0479 131.582 67.1007 133.416 65.5904C135.367 63.9858 137.795 61.9881 137.795 58.0306C137.795 53.2271 134.329 50 129.117 50L129.118 50.0007Z" fill="#F4E9DD"/>
</svg>
