<?xml version="1.0" encoding="utf-8"?>
<!-- Generator: Adobe Illustrator 16.0.0, SVG Export Plug-In . SVG Version: 6.00 Build 0)  -->
<!DOCTYPE svg PUBLIC "-//W3C//DTD SVG 1.1//EN" "http://www.w3.org/Graphics/SVG/1.1/DTD/svg11.dtd">
<svg version="1.1" id="Layer_1" xmlns="http://www.w3.org/2000/svg" xmlns:xlink="http://www.w3.org/1999/xlink" x="0px" y="0px"
	 width="190.124px" height="224.691px" viewBox="0 0 190.124 224.691" enable-background="new 0 0 190.124 224.691"
	 xml:space="preserve">
<path d="M29.965,197.068l-1.771-10.486c-0.505-3.016-1.152-7.726-1.65-10.998h-0.185c-0.526,3.287-1.245,8.146-1.778,11.02
	l-1.899,10.465H29.965z M21.72,203.884l-2.305,11.617h-8.515l10.621-48.347H31.95l9.646,48.347h-8.558l-2.255-11.617H21.72z"/>
<path d="M60.967,193.903c0-0.641,0-1.395-0.121-2.085c-0.341-2.391-1.614-4.531-3.663-4.531c-3.515,0-4.802,5.051-4.802,10.948
	c0,6.779,1.842,10.649,4.674,10.649c1.302,0,2.796-0.669,3.613-3.515c0.199-0.562,0.299-1.322,0.299-2.219V193.903z M69.71,165.867
	v39.61c0,3.145,0.164,7.007,0.285,10.023h-7.541l-0.498-4.026h-0.185c-1.26,2.482-4.02,4.603-7.32,4.603
	c-7.229,0-10.807-7.961-10.807-18.006c0-12.235,5.343-18.183,11.169-18.183c3.045,0,5.016,1.486,6.012,3.635h0.142v-17.656H69.71z"
	/>
<path d="M87.894,209.397c3.337,0,4.162-6.275,4.162-11.468c0-4.938-0.825-11.361-4.297-11.361c-3.699,0-4.468,6.424-4.468,11.361
	c0,5.954,0.981,11.468,4.539,11.468H87.894z M87.731,216.077c-8.047,0-13.098-6.467-13.098-17.991
	c0-12.6,6.481-18.197,13.304-18.197c7.939,0,12.926,6.766,12.926,17.991c0,14.42-7.812,18.197-13.054,18.197H87.731z"/>
<path d="M114.485,202.994c0,0.868,0.149,1.687,0.341,2.228c0.868,2.944,2.362,3.663,3.55,3.663c3.372,0,4.745-4.275,4.745-11.112
	c0-6.203-1.451-10.485-4.787-10.485c-1.658,0-3.045,1.792-3.529,3.713c-0.17,0.612-0.319,1.551-0.319,2.206V202.994z
	 M105.734,165.867h8.751v18.261h0.142c1.715-2.696,4.013-4.239,7.328-4.239c6.587,0,9.896,7.469,9.896,17.237
	c0,12.335-4.938,18.951-11.326,18.951c-3.052,0-5.079-1.358-6.9-4.773h-0.185l-0.498,4.197h-7.491
	c0.121-2.917,0.284-6.879,0.284-10.023V165.867z"/>
<path d="M152.787,194.636c0.035-4.916-1.401-8.366-4.177-8.366c-3.158,0-4.503,4.617-4.609,8.366H152.787z M143.979,200.796
	c0.106,6.332,3.45,8.402,7.584,8.402c2.639,0,4.895-0.569,6.552-1.21l1.181,6.268c-2.312,1.003-5.904,1.629-9.326,1.629
	c-9.376,0-14.491-6.396-14.491-17.301c0-11.717,5.933-18.746,13.688-18.746c7.498,0,11.659,6.211,11.659,16.362
	c0,2.327-0.106,3.629-0.256,4.653L143.979,200.796z"/>
<polygon fill="#ED1C24" points="160.406,140.939 160.541,140.939 160.541,7.58 104.653,7.58 "/>
<polygon fill="#ED1C24" points="65.264,7.58 9.327,7.58 9.327,140.406 "/>
<polygon fill="#ED1C24" points="84.963,56.738 60.519,114.148 86.585,114.148 97.021,140.939 120.361,140.939 "/>
<path fill="#ED1C24" d="M168.003,15.946c0-4.802,3.898-8.345,8.501-8.345c4.574,0,8.466,3.542,8.466,8.345
	c0,4.859-3.892,8.401-8.466,8.401C171.902,24.348,168.003,20.805,168.003,15.946 M176.504,22.954c3.799,0,6.787-2.967,6.787-7.007
	c0-3.963-2.988-6.958-6.787-6.958c-3.827,0-6.815,2.995-6.815,6.958C169.689,19.987,172.677,22.954,176.504,22.954 M174.74,20.805
	h-1.458v-9.661h3.678c2.276,0,3.4,0.839,3.4,2.739c0,1.736-1.088,2.49-2.497,2.661l2.746,4.261h-1.636l-2.562-4.19h-1.672V20.805z
	 M176.483,15.377c1.252,0,2.354-0.092,2.354-1.572c0-1.209-1.081-1.423-2.105-1.423h-1.992v2.995H176.483z"/>
</svg>
