<?xml version="1.0" encoding="utf-8"?>
<!-- Generator: Adobe Illustrator 16.0.0, SVG Export Plug-In . SVG Version: 6.00 Build 0)  -->
<!DOCTYPE svg PUBLIC "-//W3C//DTD SVG 1.1//EN" "http://www.w3.org/Graphics/SVG/1.1/DTD/svg11.dtd">
<svg version="1.1" id="Layer_1" xmlns="http://www.w3.org/2000/svg" xmlns:xlink="http://www.w3.org/1999/xlink" x="0px" y="0px"
	 width="248.591px" height="150.704px" viewBox="0 0 248.591 150.704" enable-background="new 0 0 248.591 150.704"
	 xml:space="preserve">
<g>
	<g>
		<path fill="#FFFFFF" d="M170.672,51.232c14.123-5.14,26.021-11.181,32.509-16.145c0.003,0.007,0.005,0.013,0.007,0.019
			c-2.042-6.915-3.891-13.944-5.583-21.068l-71.473,26.013c3.304,6.587,6.368,13.17,9.186,19.747
			c-0.005-0.011-0.009-0.021-0.015-0.034C143.458,59.415,156.498,56.393,170.672,51.232z"/>
		<path opacity="0.5" fill="#F2F2F2" d="M170.672,51.232c14.123-5.14,26.021-11.181,32.509-16.145
			c0.003,0.007,0.005,0.013,0.007,0.019c-2.042-6.915-3.891-13.944-5.583-21.068l-71.473,26.013
			c3.304,6.587,6.368,13.17,9.186,19.747c-0.005-0.011-0.009-0.021-0.015-0.034C143.458,59.415,156.498,56.393,170.672,51.232z"/>
		<path opacity="0.4" fill="#FFFFFF" d="M197.605,14.039c0.188,0.443,0.198,0.951,0.104,1.408c-0.092,0.46-0.268,0.886-0.474,1.285
			c-0.423,0.795-0.963,1.49-1.533,2.142c-1.152,1.298-2.455,2.408-3.785,3.463c-2.687,2.073-5.544,3.866-8.475,5.503
			c-2.922,1.654-5.94,3.107-8.987,4.493c-3.053,1.363-6.159,2.6-9.295,3.763c-3.145,1.126-6.321,2.173-9.537,3.095
			c-1.611,0.451-3.229,0.877-4.857,1.271c-1.626,0.399-3.265,0.753-4.915,1.062c-3.295,0.63-6.638,1.094-10.03,1.232
			c-1.695,0.047-3.406,0.034-5.124-0.221c-0.856-0.135-1.718-0.318-2.55-0.655c-0.415-0.174-0.824-0.389-1.19-0.682
			c-0.365-0.29-0.685-0.686-0.824-1.146c0.188,0.443,0.526,0.78,0.893,1.021c0.37,0.241,0.773,0.405,1.183,0.525
			c0.817,0.246,1.657,0.348,2.494,0.396c1.672,0.09,3.339-0.012,4.989-0.197c1.651-0.176,3.294-0.434,4.924-0.741
			c1.629-0.311,3.253-0.645,4.866-1.031c3.221-0.782,6.423-1.638,9.584-2.63c3.17-0.966,6.31-2.016,9.419-3.164
			c3.118-1.115,6.201-2.336,9.25-3.626c3.059-1.274,6.063-2.677,9.031-4.148c1.484-0.739,2.943-1.528,4.391-2.337
			c1.447-0.811,2.871-1.671,4.248-2.597c1.385-0.919,2.727-1.915,3.95-3.058c0.608-0.575,1.187-1.193,1.654-1.909
			c0.235-0.354,0.44-0.739,0.568-1.163C197.704,14.974,197.746,14.499,197.605,14.039z"/>
		<path opacity="0.4" fill="#FFFFFF" d="M126.193,40.227c-0.189-0.443-0.199-0.952-0.106-1.409c0.094-0.46,0.268-0.887,0.474-1.286
			c0.422-0.794,0.964-1.488,1.534-2.141c1.151-1.298,2.453-2.408,3.784-3.462c2.687-2.074,5.545-3.867,8.476-5.502
			c2.921-1.655,5.94-3.107,8.985-4.493c3.056-1.364,6.16-2.602,9.296-3.764c3.144-1.126,6.322-2.171,9.538-3.094
			c1.609-0.452,3.229-0.878,4.855-1.273c1.627-0.399,3.266-0.754,4.916-1.063c3.296-0.63,6.638-1.094,10.03-1.231
			c1.695-0.048,3.407-0.034,5.124,0.22c0.855,0.133,1.718,0.318,2.552,0.655c0.414,0.173,0.822,0.389,1.189,0.681
			c0.365,0.29,0.684,0.687,0.822,1.148c-0.186-0.444-0.523-0.78-0.892-1.021c-0.369-0.243-0.773-0.404-1.182-0.527
			c-0.818-0.247-1.658-0.346-2.494-0.397c-1.673-0.088-3.34,0.013-4.99,0.199c-1.653,0.176-3.293,0.432-4.925,0.742
			c-1.628,0.31-3.253,0.644-4.865,1.03c-3.221,0.783-6.423,1.638-9.584,2.629c-3.169,0.967-6.31,2.017-9.42,3.165
			c-3.116,1.114-6.199,2.334-9.249,3.627c-3.059,1.273-6.063,2.676-9.032,4.147c-1.483,0.739-2.942,1.527-4.39,2.337
			c-1.447,0.811-2.869,1.67-4.248,2.597c-1.384,0.919-2.726,1.913-3.95,3.058c-0.608,0.575-1.187,1.192-1.655,1.908
			c-0.233,0.354-0.438,0.737-0.568,1.161C126.094,39.29,126.049,39.767,126.193,40.227z"/>
		<path fill="#E7E7E7" d="M237.463,108.629c-2.338-3.271-4.568-6.606-6.692-10.004c-0.229,2.426-4.278,5.979-10.815,9.833
			c-6.247,3.683-14.768,7.64-24.398,11.145c-9.633,3.507-18.703,5.952-25.855,7.146c-7.941,1.326-13.521,1.11-14.881-0.915
			c0.639,4.133,1.161,8.261,1.565,12.389c0.033,0.335,0.07,0.671,0.102,1.006c1.729,4.75,21.398,1.949,43.937-6.254
			c22.536-8.202,39.406-18.701,37.677-23.45C237.886,109.229,237.676,108.928,237.463,108.629z"/>
		<path fill="#D2D3D4" d="M231.602,107.592c1.93,2.336-10.867,17.294-32.373,25.032c-21.448,7.896-40.867,4.663-40.891,1.634
			c-0.195-3.211,17.375-5.139,36.965-12.42C214.988,114.824,229.689,105.006,231.602,107.592z"/>
		<path fill="#BDBEC0" d="M235.352,106.227c1.929,2.336-10.868,17.295-32.374,25.033c-21.449,7.896-40.867,4.662-40.89,1.633
			c-0.196-3.211,17.375-5.139,36.964-12.419C218.739,113.459,233.437,103.642,235.352,106.227z"/>
		<path opacity="0.8" fill="#F2F2F2" d="M232.925,105.39c1.929,2.333-10.869,17.293-32.374,25.032
			c-21.448,7.895-40.867,4.66-40.89,1.633c-0.196-3.212,17.375-5.138,36.964-12.419C216.311,112.622,231.01,102.803,232.925,105.39z
			"/>
		<path fill="#FFFFFF" d="M232.68,104.65c0.918-0.735-12.021,12.529-34.036,20.531c-22.008,8.021-40.446,6.178-39.27,6.15
			c0.846-0.294,19.028,0.431,38.972-6.967C218.379,117.213,231.843,104.97,232.68,104.65z"/>
		<path opacity="0.3" fill="#F5B11A" d="M227.159,107.296c0.775-0.622-10.144,10.571-28.72,17.324
			c-18.569,6.767-34.13,5.212-33.136,5.189c0.715-0.247,16.057,0.363,32.885-5.879C215.092,117.896,226.454,107.565,227.159,107.296
			z"/>
		<path opacity="0.5" fill="#5A4B43" d="M230.254,97.899c0.201,0.465,0.182,1.002,0.059,1.47c-0.121,0.476-0.328,0.907-0.562,1.312
			c-0.478,0.806-1.069,1.506-1.685,2.168c-1.243,1.317-2.631,2.445-4.04,3.522c-2.85,2.116-5.858,3.958-8.941,5.642
			c-6.168,3.365-12.6,6.169-19.175,8.566c-1.643,0.594-3.297,1.167-4.958,1.715c-1.666,0.539-3.337,1.062-5.018,1.545
			c-3.368,0.966-6.766,1.832-10.216,2.505c-3.443,0.69-6.932,1.215-10.476,1.425c-1.773,0.08-3.561,0.109-5.36-0.103
			c-0.897-0.11-1.8-0.269-2.684-0.578c-0.439-0.161-0.877-0.358-1.274-0.646c-0.395-0.279-0.755-0.678-0.899-1.163
			c0.2,0.465,0.577,0.793,0.97,1.016c0.399,0.225,0.829,0.364,1.261,0.468c0.862,0.205,1.741,0.27,2.614,0.286
			c1.748,0.023,3.483-0.135,5.205-0.373c1.723-0.229,3.434-0.532,5.132-0.887s3.393-0.73,5.073-1.156
			c6.727-1.705,13.338-3.817,19.857-6.183c6.511-2.381,12.944-4.994,19.186-8.023c1.563-0.755,3.101-1.559,4.63-2.376
			c1.529-0.819,3.034-1.688,4.501-2.62c1.474-0.925,2.903-1.92,4.227-3.061c0.66-0.575,1.29-1.19,1.819-1.902
			c0.264-0.355,0.502-0.739,0.665-1.167C230.324,98.877,230.4,98.384,230.254,97.899z"/>
		<path opacity="0.4" fill="#010101" d="M154.821,125.834c0.214,1.109,0.418,2.223,0.614,3.335c0.203,1.113,0.376,2.229,0.552,3.345
			c0.171,1.116,0.342,2.232,0.491,3.352l0.43,3.357l-0.03-0.136c0.146,0.362,0.451,0.661,0.83,0.886
			c0.38,0.227,0.816,0.383,1.26,0.502c0.895,0.241,1.834,0.338,2.771,0.381c1.875,0.078,3.758-0.072,5.625-0.287
			c3.742-0.424,7.433-1.198,11.095-2.057c3.663-0.861,7.282-1.9,10.882-2.996c3.6-1.099,7.166-2.305,10.697-3.605
			c3.541-1.274,7.048-2.642,10.512-4.114c3.463-1.472,6.901-3.004,10.261-4.699c3.359-1.694,6.686-3.472,9.823-5.554
			c1.568-1.034,3.107-2.131,4.495-3.396c0.69-0.633,1.348-1.312,1.879-2.068c0.266-0.378,0.5-0.779,0.643-1.195
			c0.148-0.418,0.189-0.847,0.068-1.219l0.069,0.131l-1.836-2.737c-0.604-0.917-1.194-1.844-1.781-2.775
			c-0.584-0.93-1.167-1.861-1.73-2.811c-0.564-0.943-1.121-1.893-1.668-2.847c0.613,0.906,1.235,1.808,1.865,2.701
			c0.632,0.891,1.256,1.788,1.896,2.673c0.636,0.887,1.284,1.765,1.931,2.642l1.955,2.615c0.026,0.035,0.047,0.074,0.061,0.113
			l0.006,0.016c0.126,0.322,0.181,0.669,0.174,0.992c-0.004,0.322-0.06,0.629-0.141,0.908c-0.16,0.562-0.41,1.044-0.685,1.493
			c-0.561,0.89-1.229,1.64-1.923,2.345c-1.395,1.403-2.914,2.609-4.471,3.747c-1.566,1.123-3.177,2.163-4.811,3.157
			c-1.634,0.99-3.29,1.941-4.974,2.831c-3.368,1.78-6.791,3.439-10.272,4.955c-3.483,1.511-7.01,2.917-10.569,4.228
			c-3.573,1.283-7.177,2.475-10.816,3.557c-3.642,1.076-7.329,2.006-11.054,2.807c-1.862,0.401-3.74,0.739-5.629,1.031
			c-1.891,0.288-3.794,0.525-5.715,0.671c-1.921,0.135-3.863,0.187-5.834,0.009c-0.984-0.094-1.979-0.241-2.981-0.561
			c-0.499-0.166-1.001-0.376-1.487-0.703c-0.241-0.164-0.479-0.361-0.692-0.606c-0.212-0.244-0.394-0.546-0.507-0.874l-0.005-0.016
			c-0.014-0.037-0.021-0.08-0.024-0.117l-0.258-3.348c-0.095-1.115-0.184-2.233-0.29-3.351l-0.333-3.352
			C155.073,128.071,154.951,126.952,154.821,125.834z"/>
		<path fill="#F5B11A" d="M169.702,126.749c7.152-1.194,16.223-3.64,25.855-7.146c9.631-3.505,18.151-7.462,24.398-11.145
			c6.537-3.854,10.587-7.407,10.815-9.833c0.001,0.002,0.001,0.004,0.002,0.006c-12.137-19.42-20.899-40.859-27.592-63.543
			c-6.488,4.964-18.386,11.005-32.509,16.145c-14.175,5.16-27.214,8.183-35.369,8.532c9.462,22.078,16.124,44.105,19.518,66.077
			c0.001-0.002,0-0.005,0-0.008C156.18,127.859,161.76,128.075,169.702,126.749z"/>
		<g>
			<g>
				<path opacity="0.05" fill="#231F20" d="M185.753,109.118c0.321,0.622,0.076,1.388-0.546,1.707l0,0
					c-0.622,0.321-1.387,0.077-1.708-0.545l0,0c-0.322-0.622-0.077-1.387,0.546-1.708l0,0
					C184.668,108.251,185.432,108.494,185.753,109.118L185.753,109.118z"/>
				<path opacity="0.2" fill="#231F20" d="M184.644,108.432c0.167,0.113,0.309,0.269,0.407,0.461
					c0.321,0.623,0.077,1.388-0.545,1.709c-0.193,0.099-0.398,0.145-0.599,0.141c0.372,0.258,0.87,0.306,1.3,0.083
					c0.622-0.319,0.867-1.085,0.546-1.707C185.532,108.687,185.096,108.438,184.644,108.432z"/>
				<path opacity="0.5" fill="#FFFFFF" d="M184.888,108.916c0.101,0.195,0.025,0.438-0.174,0.539
					c-0.195,0.102-0.44,0.025-0.541-0.172c-0.102-0.199-0.024-0.44,0.174-0.541C184.543,108.641,184.786,108.718,184.888,108.916z"
					/>
			</g>
			<g>
				<path opacity="0.05" fill="#231F20" d="M190.586,112.829c0.363,0.704,0.085,1.571-0.618,1.936l0,0
					c-0.705,0.363-1.571,0.087-1.935-0.618l0,0c-0.364-0.705-0.089-1.572,0.617-1.936l0,0
					C189.356,111.849,190.223,112.124,190.586,112.829L190.586,112.829z"/>
				<path opacity="0.2" fill="#231F20" d="M189.33,112.052c0.188,0.129,0.349,0.306,0.461,0.523
					c0.364,0.704,0.088,1.571-0.618,1.937c-0.217,0.112-0.45,0.162-0.679,0.158c0.421,0.29,0.988,0.346,1.475,0.095
					c0.703-0.364,0.981-1.231,0.618-1.936C190.333,112.342,189.842,112.059,189.33,112.052z"/>
				<circle opacity="0.5" fill="#FFFFFF" cx="189.201" cy="112.808" r="0.455"/>
			</g>
			<g>
				<path opacity="0.05" fill="#231F20" d="M186.655,105.11c0.321,0.622,0.077,1.387-0.545,1.709l0,0
					c-0.623,0.32-1.388,0.076-1.707-0.546l0,0c-0.323-0.621-0.078-1.387,0.544-1.708l0,0
					C185.568,104.244,186.334,104.488,186.655,105.11L186.655,105.11z"/>
				<path opacity="0.2" fill="#231F20" d="M185.545,104.424c0.167,0.114,0.309,0.271,0.406,0.463
					c0.323,0.623,0.079,1.387-0.545,1.71c-0.191,0.097-0.397,0.144-0.598,0.141c0.37,0.256,0.871,0.304,1.301,0.082
					c0.622-0.322,0.866-1.087,0.545-1.709C186.433,104.681,185.998,104.43,185.545,104.424z"/>
				<circle opacity="0.5" fill="#FFFFFF" cx="185.432" cy="105.092" r="0.402"/>
			</g>
			<g>
				<path opacity="0.05" fill="#231F20" d="M182.58,103.566c0.321,0.622,0.076,1.387-0.546,1.71l0,0
					c-0.622,0.32-1.387,0.076-1.709-0.547l0,0c-0.32-0.621-0.076-1.387,0.546-1.707l0,0
					C181.492,102.7,182.257,102.944,182.58,103.566L182.58,103.566z"/>
				<path opacity="0.2" fill="#231F20" d="M181.469,102.88c0.165,0.115,0.308,0.271,0.407,0.462
					c0.321,0.623,0.078,1.388-0.546,1.708c-0.191,0.101-0.396,0.145-0.599,0.142c0.372,0.258,0.872,0.307,1.302,0.085
					c0.622-0.323,0.867-1.088,0.546-1.71C182.356,103.137,181.921,102.887,181.469,102.88z"/>
				<circle opacity="0.5" fill="#FFFFFF" cx="181.356" cy="103.547" r="0.402"/>
			</g>
			<g>
				<path opacity="0.05" fill="#231F20" d="M183.952,97.108c0.322,0.623,0.079,1.389-0.544,1.71l0,0
					c-0.623,0.321-1.387,0.077-1.709-0.546l0,0c-0.32-0.622-0.076-1.387,0.546-1.708l0,0
					C182.866,96.244,183.631,96.487,183.952,97.108L183.952,97.108z"/>
				<path opacity="0.2" fill="#231F20" d="M182.844,96.424c0.166,0.113,0.307,0.271,0.405,0.462
					c0.323,0.623,0.078,1.387-0.545,1.708c-0.192,0.1-0.397,0.145-0.599,0.143c0.372,0.256,0.871,0.305,1.302,0.082
					c0.623-0.321,0.866-1.087,0.544-1.71C183.73,96.679,183.296,96.43,182.844,96.424z"/>
				<circle opacity="0.5" fill="#FFFFFF" cx="182.73" cy="97.091" r="0.402"/>
			</g>
			<g>
				<path opacity="0.05" fill="#231F20" d="M174.939,95.487c0.321,0.622,0.078,1.388-0.545,1.709l0,0
					c-0.622,0.321-1.388,0.077-1.709-0.546l0,0c-0.321-0.621-0.077-1.389,0.545-1.709l0,0
					C173.851,94.621,174.617,94.864,174.939,95.487L174.939,95.487z"/>
				<path opacity="0.2" fill="#231F20" d="M173.829,94.802c0.167,0.113,0.309,0.27,0.407,0.461c0.321,0.624,0.078,1.388-0.545,1.71
					c-0.191,0.098-0.396,0.144-0.599,0.141c0.373,0.257,0.871,0.306,1.302,0.083c0.623-0.321,0.866-1.087,0.545-1.709
					C174.717,95.057,174.282,94.808,173.829,94.802z"/>
				<circle opacity="0.5" fill="#FFFFFF" cx="173.716" cy="95.469" r="0.401"/>
			</g>
			<g>
				<path opacity="0.05" fill="#231F20" d="M179.771,99.2c0.363,0.705,0.088,1.57-0.616,1.936l0,0
					c-0.707,0.362-1.572,0.086-1.936-0.618l0,0c-0.364-0.705-0.089-1.571,0.616-1.934l0,0
					C178.542,98.218,179.407,98.494,179.771,99.2L179.771,99.2z"/>
				<path opacity="0.2" fill="#231F20" d="M178.515,98.424c0.188,0.128,0.348,0.305,0.461,0.521
					c0.363,0.706,0.087,1.572-0.617,1.936c-0.218,0.112-0.45,0.164-0.68,0.16c0.423,0.291,0.986,0.345,1.476,0.095
					c0.704-0.365,0.979-1.23,0.616-1.936C179.52,98.712,179.028,98.429,178.515,98.424z"/>
				<circle opacity="0.5" fill="#FFFFFF" cx="178.386" cy="99.179" r="0.456"/>
			</g>
			<g>
				<path opacity="0.05" fill="#231F20" d="M175.84,91.48c0.321,0.623,0.077,1.389-0.546,1.71l0,0
					c-0.621,0.321-1.386,0.075-1.707-0.546l0,0c-0.321-0.623-0.078-1.39,0.544-1.708l0,0
					C174.754,90.614,175.519,90.859,175.84,91.48L175.84,91.48z"/>
				<path opacity="0.2" fill="#231F20" d="M174.731,90.794c0.167,0.114,0.309,0.271,0.406,0.462c0.322,0.623,0.079,1.388-0.546,1.71
					c-0.191,0.099-0.395,0.145-0.598,0.14c0.373,0.258,0.871,0.306,1.301,0.085c0.623-0.321,0.867-1.087,0.546-1.71
					C175.617,91.051,175.183,90.802,174.731,90.794z"/>
				<circle opacity="0.5" fill="#FFFFFF" cx="174.618" cy="91.462" r="0.401"/>
			</g>
			<g>
				<path opacity="0.05" fill="#231F20" d="M171.763,89.938c0.322,0.621,0.077,1.387-0.545,1.707l0,0
					c-0.623,0.322-1.388,0.077-1.708-0.545l0,0c-0.321-0.622-0.076-1.387,0.545-1.708l0,0
					C170.678,89.07,171.443,89.314,171.763,89.938L171.763,89.938z"/>
				<path opacity="0.2" fill="#231F20" d="M170.655,89.251c0.166,0.113,0.308,0.27,0.406,0.461c0.322,0.623,0.077,1.388-0.544,1.709
					c-0.192,0.1-0.397,0.144-0.601,0.141c0.373,0.258,0.873,0.307,1.302,0.083c0.622-0.32,0.867-1.086,0.545-1.707
					C171.542,89.508,171.108,89.256,170.655,89.251z"/>
				<circle opacity="0.5" fill="#FFFFFF" cx="170.542" cy="89.918" r="0.401"/>
			</g>
			<g>
				<path opacity="0.05" fill="#231F20" d="M173.137,83.479c0.321,0.621,0.077,1.388-0.545,1.71l0,0
					c-0.621,0.32-1.387,0.076-1.707-0.546l0,0c-0.323-0.624-0.078-1.388,0.543-1.71l0,0
					C172.051,82.613,172.817,82.858,173.137,83.479L173.137,83.479z"/>
				<path opacity="0.2" fill="#231F20" d="M172.029,82.793c0.166,0.115,0.309,0.271,0.405,0.462c0.323,0.623,0.078,1.39-0.544,1.709
					c-0.192,0.1-0.397,0.145-0.6,0.142c0.374,0.257,0.872,0.306,1.302,0.084c0.622-0.322,0.866-1.089,0.545-1.71
					C172.916,83.049,172.481,82.801,172.029,82.793z"/>
				<circle opacity="0.5" fill="#FFFFFF" cx="171.915" cy="83.461" r="0.401"/>
			</g>
			<g>
				<path opacity="0.05" fill="#231F20" d="M184.469,92.145c0.32,0.624,0.077,1.389-0.545,1.71l0,0
					c-0.623,0.321-1.387,0.075-1.709-0.545l0,0c-0.32-0.623-0.077-1.387,0.545-1.709l0,0
					C183.383,91.278,184.149,91.523,184.469,92.145L184.469,92.145z"/>
				<path opacity="0.2" fill="#231F20" d="M183.36,91.459c0.166,0.115,0.308,0.271,0.406,0.463c0.322,0.623,0.077,1.387-0.545,1.708
					c-0.192,0.1-0.397,0.145-0.599,0.142c0.372,0.256,0.87,0.305,1.302,0.083c0.622-0.321,0.865-1.086,0.545-1.71
					C184.247,91.716,183.813,91.466,183.36,91.459z"/>
				<circle opacity="0.5" fill="#FFFFFF" cx="183.246" cy="92.126" r="0.402"/>
			</g>
			<g>
				<path opacity="0.05" fill="#231F20" d="M189.302,95.858c0.363,0.703,0.086,1.57-0.618,1.935l0,0
					c-0.706,0.363-1.57,0.087-1.936-0.617l0,0c-0.364-0.706-0.088-1.572,0.618-1.938l0,0
					C188.071,94.876,188.938,95.152,189.302,95.858L189.302,95.858z"/>
				<path opacity="0.2" fill="#231F20" d="M188.043,95.079c0.189,0.13,0.351,0.307,0.462,0.523c0.363,0.706,0.088,1.572-0.617,1.936
					c-0.217,0.113-0.449,0.163-0.679,0.161c0.423,0.29,0.988,0.344,1.475,0.094c0.704-0.364,0.981-1.231,0.618-1.935
					C189.049,95.37,188.559,95.087,188.043,95.079z"/>
				<path opacity="0.5" fill="#FFFFFF" d="M188.321,95.628c0.115,0.222,0.028,0.498-0.195,0.613
					c-0.224,0.113-0.497,0.026-0.611-0.196c-0.117-0.224-0.029-0.499,0.192-0.613C187.932,95.315,188.206,95.405,188.321,95.628z"/>
			</g>
			<g>
				<path opacity="0.05" fill="#231F20" d="M185.37,88.138c0.321,0.623,0.078,1.388-0.545,1.708l0,0
					c-0.622,0.323-1.387,0.08-1.708-0.544l0,0c-0.32-0.622-0.078-1.388,0.545-1.709l0,0C184.285,87.271,185.05,87.517,185.37,88.138
					L185.37,88.138z"/>
				<path opacity="0.2" fill="#231F20" d="M184.26,87.452c0.168,0.114,0.309,0.271,0.407,0.463c0.321,0.623,0.078,1.388-0.544,1.708
					c-0.192,0.099-0.397,0.145-0.6,0.141c0.372,0.256,0.871,0.307,1.301,0.082c0.623-0.32,0.866-1.085,0.545-1.708
					C185.147,87.708,184.713,87.46,184.26,87.452z"/>
				<circle opacity="0.5" fill="#FFFFFF" cx="184.149" cy="88.12" r="0.401"/>
			</g>
			<g>
				<path opacity="0.05" fill="#231F20" d="M181.294,86.595c0.32,0.622,0.077,1.386-0.545,1.708l0,0
					c-0.623,0.321-1.387,0.077-1.709-0.544l0,0c-0.321-0.623-0.076-1.388,0.545-1.711l0,0
					C180.208,85.728,180.973,85.972,181.294,86.595L181.294,86.595z"/>
				<path opacity="0.2" fill="#231F20" d="M180.184,85.908c0.167,0.114,0.308,0.27,0.407,0.46c0.322,0.624,0.078,1.389-0.545,1.71
					c-0.193,0.1-0.397,0.144-0.6,0.142c0.372,0.257,0.871,0.305,1.303,0.083c0.622-0.322,0.865-1.086,0.545-1.708
					C181.072,86.163,180.638,85.913,180.184,85.908z"/>
				<circle opacity="0.5" fill="#FFFFFF" cx="180.071" cy="86.575" r="0.401"/>
			</g>
			<g>
				<path opacity="0.05" fill="#231F20" d="M182.668,80.137c0.321,0.622,0.076,1.388-0.545,1.709l0,0
					c-0.623,0.321-1.389,0.077-1.708-0.545l0,0c-0.322-0.622-0.077-1.387,0.544-1.708l0,0
					C181.583,79.271,182.347,79.516,182.668,80.137L182.668,80.137z"/>
				<path opacity="0.2" fill="#231F20" d="M181.558,79.451c0.168,0.114,0.309,0.271,0.408,0.462c0.32,0.622,0.076,1.387-0.545,1.708
					c-0.193,0.099-0.398,0.146-0.601,0.142c0.373,0.258,0.871,0.306,1.303,0.083c0.621-0.321,0.866-1.087,0.545-1.709
					C182.446,79.706,182.011,79.459,181.558,79.451z"/>
				<circle opacity="0.5" fill="#FFFFFF" cx="181.445" cy="80.118" r="0.402"/>
			</g>
			<g>
				<path opacity="0.05" fill="#231F20" d="M174.327,77.515c0.321,0.623,0.077,1.386-0.545,1.708l0,0
					c-0.623,0.323-1.387,0.078-1.709-0.545l0,0c-0.319-0.621-0.077-1.388,0.544-1.708l0,0
					C173.241,76.648,174.005,76.892,174.327,77.515L174.327,77.515z"/>
				<path opacity="0.2" fill="#231F20" d="M173.217,76.828c0.166,0.115,0.308,0.271,0.406,0.462
					c0.321,0.623,0.078,1.388-0.546,1.708c-0.191,0.1-0.396,0.145-0.598,0.142c0.372,0.257,0.871,0.307,1.302,0.083
					c0.622-0.322,0.866-1.085,0.545-1.708C174.103,77.084,173.671,76.835,173.217,76.828z"/>
				<circle opacity="0.5" fill="#FFFFFF" cx="173.104" cy="77.496" r="0.402"/>
			</g>
			<g>
				<path opacity="0.05" fill="#231F20" d="M179.159,81.226c0.364,0.707,0.088,1.572-0.618,1.937l0,0
					c-0.705,0.361-1.57,0.087-1.934-0.618l0,0c-0.364-0.706-0.089-1.571,0.616-1.936l0,0
					C177.928,80.244,178.794,80.521,179.159,81.226L179.159,81.226z"/>
				<path opacity="0.2" fill="#231F20" d="M177.902,80.449c0.189,0.129,0.35,0.305,0.461,0.523c0.365,0.706,0.088,1.571-0.617,1.935
					c-0.218,0.112-0.45,0.164-0.679,0.161c0.424,0.29,0.986,0.345,1.474,0.094c0.706-0.364,0.982-1.229,0.618-1.937
					C178.907,80.739,178.416,80.457,177.902,80.449z"/>
				<circle opacity="0.5" fill="#FFFFFF" cx="177.774" cy="81.206" r="0.455"/>
			</g>
			<g>
				<path opacity="0.05" fill="#231F20" d="M175.228,73.508c0.321,0.621,0.077,1.387-0.546,1.709l0,0
					c-0.622,0.321-1.387,0.077-1.708-0.547l0,0c-0.321-0.621-0.078-1.386,0.544-1.707l0,0
					C174.142,72.641,174.907,72.886,175.228,73.508L175.228,73.508z"/>
				<path opacity="0.2" fill="#231F20" d="M174.119,72.821c0.167,0.114,0.309,0.271,0.407,0.462
					c0.321,0.622,0.076,1.388-0.547,1.708c-0.19,0.1-0.396,0.145-0.598,0.142c0.373,0.258,0.872,0.306,1.301,0.084
					c0.623-0.322,0.867-1.088,0.546-1.709C175.005,73.077,174.572,72.828,174.119,72.821z"/>
				<circle opacity="0.5" fill="#FFFFFF" cx="174.005" cy="73.489" r="0.401"/>
			</g>
			<g>
				<path opacity="0.05" fill="#231F20" d="M171.151,71.964c0.321,0.623,0.077,1.387-0.543,1.708l0,0
					c-0.623,0.321-1.39,0.077-1.709-0.545l0,0c-0.322-0.621-0.078-1.389,0.544-1.71l0,0
					C170.065,71.097,170.831,71.342,171.151,71.964L171.151,71.964z"/>
				<path opacity="0.2" fill="#231F20" d="M170.042,71.277c0.168,0.115,0.31,0.271,0.407,0.462c0.321,0.622,0.076,1.387-0.545,1.708
					c-0.191,0.099-0.398,0.145-0.599,0.143c0.372,0.256,0.871,0.304,1.303,0.082c0.62-0.321,0.864-1.085,0.543-1.708
					C170.93,71.532,170.495,71.284,170.042,71.277z"/>
				<circle opacity="0.5" fill="#FFFFFF" cx="169.928" cy="71.944" r="0.402"/>
			</g>
			<g>
				<path opacity="0.05" fill="#231F20" d="M172.526,65.508c0.321,0.621,0.076,1.387-0.545,1.706l0,0
					c-0.623,0.322-1.388,0.078-1.709-0.544l0,0c-0.321-0.622-0.077-1.388,0.546-1.708l0,0
					C171.44,64.64,172.204,64.884,172.526,65.508L172.526,65.508z"/>
				<path opacity="0.2" fill="#231F20" d="M171.417,64.82c0.167,0.114,0.308,0.27,0.406,0.462c0.322,0.623,0.077,1.388-0.544,1.708
					c-0.193,0.099-0.399,0.146-0.601,0.142c0.373,0.257,0.873,0.306,1.303,0.082c0.621-0.319,0.866-1.085,0.545-1.706
					C172.304,65.076,171.869,64.827,171.417,64.82z"/>
				<circle opacity="0.5" fill="#FFFFFF" cx="171.303" cy="65.488" r="0.402"/>
			</g>
			<circle fill="#FFFFFF" cx="168.139" cy="76.83" r="0.733"/>
			<circle fill="#FFFFFF" cx="179.823" cy="91.81" r="1.35"/>
			<circle fill="#FFFFFF" cx="187.021" cy="101.764" r="0.934"/>
			<circle fill="#FFFFFF" cx="170.123" cy="61.606" r="0.487"/>
			<circle fill="#FFFFFF" cx="179.357" cy="109.334" r="0.959"/>
			<circle fill="#FFFFFF" cx="182.206" cy="75.211" r="0.966"/>
			<circle fill="#FFFFFF" cx="163.401" cy="60.357" r="0.501"/>
			<circle fill="#FFFFFF" cx="177.172" cy="68.399" r="0.854"/>
			<circle fill="#FFFFFF" cx="195.849" cy="114.207" r="1.474"/>
		</g>
		<path opacity="0.15" fill="#FFFFFF" d="M185.936,21.512c-6.112,3.601-13.783,7.198-22.329,10.309
			c-9.354,3.405-18.283,5.689-25.687,6.763c11.641,29.952,21.353,59.27,28.852,87.854c0.876-0.062,1.784-0.146,2.724-0.255
			c7.28-0.842,16.429-3.072,26.062-6.579c9.631-3.505,18.073-7.677,24.192-11.712c0.191-0.127,0.38-0.254,0.566-0.381
			C207.237,80.287,195.998,51.425,185.936,21.512z"/>
		<path opacity="0.15" fill="#FCEE23" d="M177.889,24.44c-5.071,3.222-11.482,6.361-18.671,8.978
			c-7.868,2.864-15.426,4.648-21.735,5.324c11.536,29.99,21.383,59.259,29.289,87.694c0.749-0.017,1.525-0.053,2.328-0.11
			c6.218-0.456,13.968-2.178,22.068-5.126c8.103-2.949,15.146-6.612,20.199-10.259c0.16-0.115,0.314-0.23,0.469-0.345
			C199.203,83.212,188.065,54.312,177.889,24.44z"/>
		
			<ellipse transform="matrix(0.9397 -0.3421 0.3421 0.9397 -19.728 59.3224)" opacity="0.9" fill="#FFFFFF" cx="158.335" cy="85.597" rx="3.021" ry="40.943"/>
		<path opacity="0.05" fill="#231F20" d="M195.793,14.791c-1.998,1.793-4.562,3.675-7.584,5.573
			c8.817,27.999,19.578,54.691,33.453,79.29c-0.001-0.003-0.002-0.005-0.004-0.009c-0.015,3.008-3.877,7.079-10.279,11.299
			c-5.222,3.44-12.134,6.977-20.032,10.118c1.391-0.46,2.795-0.943,4.21-1.459c9.631-3.505,18.074-7.674,24.194-11.706
			c6.403-4.221,10.265-8.291,10.281-11.3c0.001,0.004,0.002,0.006,0.003,0.009C215.746,71.267,204.755,43.709,195.793,14.791z"/>
		<path opacity="0.15" fill="#231F20" d="M238.417,109.256l-1.955-2.615c-1.945-2.637-3.852-5.302-5.69-8.014
			c-16.162-25.857-26.156-55.062-33.167-84.588l-71.473,26.013c3.255,6.49,6.325,13.074,9.186,19.747
			c9.404,20.732,16.04,43.622,19.503,66.038c0.131,1.116,0.253,2.235,0.366,3.352l0.333,3.352c0.106,1.117,0.195,2.235,0.29,3.351
			l0.258,3.348c0.003,0.037,0.011,0.08,0.024,0.117l0.005,0.016c2.506,7.256,24.468,3.344,45.118-4.174
			c20.664-7.521,40.016-18.647,37.269-25.812l-0.006-0.016C238.464,109.33,238.444,109.291,238.417,109.256z M235.951,112.045
			c-2.535,5.561-17.167,14.126-35.581,20.828c-18.397,6.696-35.101,9.537-40.617,6.911c-0.817-0.391-1.119-0.794-1.24-1.036
			l-0.234-3.048v-0.009l-0.001-0.01l-0.058-0.684c-0.074-0.88-0.15-1.789-0.237-2.701l-0.332-3.357
			c-0.114-1.118-0.239-2.261-0.371-3.389l-0.006-0.047l-0.006-0.044c-3.567-23.076-10.372-46.125-19.686-66.659
			c-2.462-5.747-5.148-11.579-8.001-17.37l66.266-24.118c8.116,33.238,18.864,60.289,32.826,82.625l0.023,0.039l0.027,0.038
			c1.727,2.545,3.605,5.193,5.748,8.096l0.004,0.005l0.005,0.007l1.757,2.352C236.297,110.746,236.318,111.242,235.951,112.045z"/>
		<path fill="#FFFFFF" d="M195.604,10.774c-0.06,0.022-0.117,0.05-0.177,0.076c-0.023-0.073-0.04-0.146-0.066-0.218
			c-0.724-1.988-2.923-3.014-4.911-2.29c-0.799,0.291-1.438,0.822-1.876,1.48c-0.89-2.094-3.271-3.15-5.435-2.362
			c-1.228,0.447-2.125,1.395-2.555,2.53c-1.902-1.744-4.685-2.397-7.278-1.454c-1.05,0.382-1.953,0.985-2.682,1.734
			c-0.552-0.266-1.205-0.319-1.826-0.093c-0.965,0.352-1.557,1.27-1.545,2.24c-0.114,0.178-0.21,0.367-0.286,0.562
			c-0.924-0.924-2.332-1.287-3.641-0.81c-0.044,0.016-0.084,0.038-0.128,0.054c-0.83-1.111-2.32-1.599-3.691-1.1
			c-1.464,0.533-2.309,2.016-2.092,3.499c-0.518-0.003-1.044,0.078-1.56,0.266c-1.034,0.376-1.842,1.094-2.35,1.979
			c-2.676-2.455-6.59-3.373-10.237-2.045c-3.678,1.338-6.097,4.602-6.539,8.236c-0.952-0.401-2.051-0.463-3.098-0.082
			c-2.202,0.802-3.338,3.238-2.537,5.439c0.17,0.467,0.417,0.883,0.716,1.244c-1.005-0.045-2.037,0.103-3.042,0.468
			c-4.084,1.486-6.191,6.004-4.704,10.089c1.487,4.086,6.004,6.19,10.088,4.704c1.483-0.54,2.703-1.479,3.588-2.65
			c0.757,0.814,1.814,1.3,2.929,1.345c1.502,1.132,3.528,1.504,5.426,0.813c2.101-0.765,3.484-2.628,3.739-4.704
			c1.104,1.469,3.08,2.113,4.898,1.451c1.867-0.68,2.971-2.519,2.805-4.407c2.283-0.718,4.625-1.512,7.005-2.378
			c16.052-5.842,28.701-13.138,31.569-17.843c0.501,0.089,1.033,0.054,1.545-0.132c1.559-0.567,2.36-2.29,1.794-3.846
			C198.884,11.012,197.162,10.208,195.604,10.774z"/>
		<path fill="#FCE09E" d="M195.604,10.774c-0.059,0.024-0.117,0.05-0.177,0.076l0,0l0,0c-0.198-0.695-0.612-1.326-1.158-1.797
			c-0.546-0.474-1.228-0.786-1.941-0.891c-0.714-0.108-1.456-0.005-2.114,0.29c-0.66,0.292-1.229,0.779-1.625,1.379l-0.017,0.025
			l-0.014-0.029c-0.331-0.783-0.904-1.461-1.619-1.919c-0.715-0.459-1.566-0.704-2.417-0.683c-0.848,0.02-1.686,0.304-2.374,0.797
			c-0.688,0.491-1.22,1.194-1.514,1.984l-0.026,0.076l-0.06-0.054c-1.35-1.229-3.184-1.905-4.999-1.837
			c-0.907,0.032-1.809,0.239-2.634,0.611c-0.828,0.371-1.577,0.902-2.201,1.556l-0.062,0.064l-0.083-0.039
			c-0.342-0.16-0.723-0.234-1.098-0.207c-0.373,0.024-0.74,0.148-1.053,0.351c-0.313,0.203-0.57,0.488-0.743,0.817
			c-0.175,0.329-0.261,0.702-0.253,1.07v0.05l-0.027,0.044c-0.106,0.169-0.196,0.347-0.265,0.533l-0.095,0.251l-0.193-0.19
			c-0.461-0.451-1.055-0.762-1.686-0.884c-0.314-0.062-0.637-0.076-0.954-0.042c-0.318,0.035-0.632,0.111-0.923,0.242l-0.148,0.066
			l-0.103-0.135c-0.403-0.529-0.986-0.915-1.624-1.083c-0.643-0.172-1.324-0.123-1.938,0.142c-0.597,0.252-1.113,0.715-1.425,1.287
			c-0.319,0.569-0.441,1.243-0.338,1.884l0.049,0.33l-0.34,0.001c-0.371,0.003-0.737,0.05-1.093,0.146
			c-0.087,0.026-0.176,0.05-0.261,0.083c-0.041,0.015-0.091,0.029-0.126,0.044l-0.136,0.055c-0.165,0.072-0.328,0.15-0.486,0.245
			c-0.633,0.37-1.16,0.911-1.517,1.547l-0.202,0.364l-0.312-0.283c-1.319-1.19-2.968-2.004-4.704-2.331
			c-1.736-0.332-3.558-0.165-5.198,0.464c-1.65,0.621-3.105,1.702-4.174,3.087c-1.073,1.384-1.747,3.062-1.947,4.789l-0.082,0.696
			l-0.65-0.271c-0.764-0.318-1.625-0.373-2.413-0.15c-0.791,0.22-1.499,0.707-1.98,1.368c-0.483,0.656-0.74,1.478-0.715,2.289
			c0.013,0.4,0.098,0.814,0.235,1.18c0.149,0.394,0.354,0.732,0.616,1.05l0.851,1.026l-1.335-0.06
			c-1.244-0.053-2.501,0.223-3.611,0.788c-1.11,0.562-2.067,1.418-2.755,2.457c-0.689,1.037-1.103,2.253-1.194,3.492
			c-0.089,1.238,0.147,2.497,0.672,3.626c0.524,1.127,1.344,2.112,2.361,2.833c1.012,0.725,2.215,1.18,3.452,1.311
			c2.479,0.281,5.071-0.824,6.578-2.831l0.412-0.55l0.459,0.504c0.642,0.706,1.575,1.143,2.534,1.186l0.174,0.006L141,43.176
			c0.724,0.551,1.593,0.91,2.495,1.027c0.904,0.118,1.829-0.008,2.685-0.361c0.838-0.342,1.595-0.922,2.15-1.649
			c0.561-0.729,0.926-1.607,1.047-2.524l0.151-1.139l0.672,0.919c0.487,0.664,1.202,1.165,1.998,1.402
			c0.797,0.24,1.672,0.211,2.453-0.081c0.791-0.289,1.475-0.841,1.925-1.553c0.454-0.711,0.673-1.572,0.605-2.417l-0.023-0.289
			l0.271-0.081c3.504-1.068,6.973-2.255,10.402-3.549c3.428-1.295,6.817-2.7,10.145-4.238c3.327-1.541,6.599-3.212,9.729-5.123
			c1.562-0.956,3.094-1.97,4.545-3.091c0.724-0.562,1.429-1.15,2.086-1.789c0.654-0.64,1.275-1.324,1.758-2.104l0.006-0.011
			l0.015,0.001c0.896,0.169,1.861-0.111,2.533-0.731c0.676-0.615,1.046-1.55,0.962-2.461c-0.075-0.912-0.593-1.777-1.37-2.265
			C197.469,10.568,196.467,10.457,195.604,10.774z M195.604,10.774c0.863-0.32,1.867-0.214,2.642,0.286
			c0.78,0.486,1.306,1.354,1.386,2.271c0.087,0.918-0.278,1.864-0.961,2.486c-0.676,0.629-1.651,0.916-2.563,0.75l0.022-0.01
			c-0.481,0.786-1.104,1.475-1.755,2.119c-0.656,0.645-1.354,1.245-2.074,1.814c-1.442,1.14-2.964,2.172-4.521,3.147
			c-1.557,0.977-3.153,1.887-4.768,2.764c-1.612,0.879-3.25,1.715-4.903,2.518c-3.306,1.604-6.677,3.074-10.091,4.438
			c-3.415,1.36-6.873,2.613-10.373,3.751l0.249-0.373c0.098,0.998-0.141,2.026-0.667,2.884c-0.521,0.86-1.34,1.546-2.279,1.91
			c-0.941,0.376-2.009,0.431-2.988,0.153c-0.981-0.271-1.871-0.868-2.493-1.682l0.824-0.222c-0.123,1.077-0.533,2.12-1.18,2.997
			c-0.647,0.878-1.525,1.58-2.538,2.018c-0.991,0.434-2.121,0.6-3.21,0.469c-1.089-0.129-2.143-0.552-3.024-1.208l0.309,0.11
			c-1.246-0.04-2.469-0.592-3.322-1.509l0.871-0.045c-0.863,1.16-2.034,2.094-3.362,2.675c-1.325,0.579-2.806,0.816-4.25,0.664
			c-1.444-0.148-2.846-0.673-4.029-1.515c-1.189-0.834-2.155-1.985-2.771-3.301c-0.622-1.312-0.9-2.789-0.786-4.24
			c0.112-1.449,0.6-2.866,1.41-4.072c0.803-1.208,1.926-2.204,3.225-2.854c1.292-0.652,2.757-0.969,4.207-0.9l-0.484,0.968
			c-0.335-0.407-0.612-0.89-0.791-1.378c-0.192-0.518-0.289-1.038-0.3-1.576c-0.021-1.07,0.325-2.138,0.967-2.987
			c0.636-0.854,1.571-1.479,2.594-1.751c1.026-0.278,2.143-0.192,3.113,0.227l-0.732,0.426c0.238-1.922,1.03-3.762,2.235-5.264
			c1.202-1.504,2.832-2.661,4.635-3.303c1.804-0.652,3.782-0.794,5.651-0.402c1.869,0.387,3.621,1.296,5.007,2.594l-0.517,0.079
			c0.427-0.73,1.048-1.344,1.784-1.758c0.182-0.104,0.375-0.193,0.574-0.274l0.139-0.052c0.057-0.023,0.102-0.035,0.153-0.053
			c0.1-0.035,0.202-0.06,0.303-0.089c0.408-0.102,0.83-0.148,1.247-0.143l-0.29,0.332c-0.105-0.769,0.054-1.568,0.442-2.234
			c0.386-0.67,0.992-1.2,1.714-1.489c0.7-0.286,1.513-0.333,2.245-0.12c0.734,0.208,1.394,0.663,1.842,1.276l-0.25-0.07
			c0.329-0.141,0.686-0.22,1.046-0.253c0.357-0.031,0.721-0.009,1.07,0.067c0.702,0.147,1.355,0.506,1.855,1.015l-0.287,0.061
			c0.081-0.207,0.186-0.403,0.306-0.589l-0.024,0.093c-0.002-0.427,0.105-0.854,0.312-1.226c0.203-0.371,0.504-0.691,0.864-0.916
			c0.359-0.224,0.773-0.354,1.195-0.375c0.422-0.02,0.847,0.069,1.222,0.254l-0.144,0.025c0.656-0.666,1.442-1.2,2.3-1.565
			c0.856-0.367,1.781-0.573,2.712-0.595c1.86-0.048,3.718,0.665,5.075,1.926l-0.087,0.021c0.309-0.806,0.859-1.52,1.568-2.011
			c0.705-0.496,1.56-0.771,2.419-0.786c0.859-0.018,1.719,0.231,2.439,0.699c0.721,0.466,1.296,1.152,1.629,1.942l-0.03-0.001
			c0.404-0.604,0.978-1.094,1.643-1.384c0.663-0.294,1.411-0.395,2.127-0.285c0.717,0.11,1.4,0.426,1.946,0.902
			c0.545,0.475,0.956,1.107,1.151,1.804V10.85C195.487,10.824,195.544,10.798,195.604,10.774z"/>
		<path opacity="0.25" fill="#302F2F" d="M219.956,108.458c1.052-0.669,2.085-1.368,3.104-2.079
			c1.018-0.717,2.008-1.465,2.969-2.248c0.954-0.785,1.873-1.618,2.684-2.53c0.406-0.455,0.782-0.933,1.091-1.439
			c0.302-0.502,0.544-1.048,0.583-1.573l0.084-1.131l0.627,0.958l0.005,0.008l-0.655,0.414c-1.589-2.431-3.095-4.911-4.564-7.413
			c-1.459-2.511-2.857-5.056-4.211-7.624c-1.341-2.575-2.626-5.18-3.864-7.803c-1.239-2.628-2.405-5.284-3.539-7.958
			c-2.257-5.346-4.297-10.783-6.149-16.279c-1.84-5.501-3.504-11.057-4.937-16.672c1.845,5.493,3.727,10.967,5.75,16.384
			c2.011,5.424,4.151,10.793,6.436,16.101c1.137,2.653,2.332,5.284,3.554,7.902c1.218,2.617,2.484,5.213,3.799,7.784
			c1.3,2.579,2.657,5.129,4.059,7.655c1.386,2.534,2.844,5.028,4.323,7.512l-0.653,0.413l-0.004-0.005l0.711-0.173
			c-0.085,0.722-0.406,1.33-0.761,1.876c-0.36,0.547-0.778,1.035-1.217,1.494c-0.888,0.913-1.866,1.707-2.871,2.459
			c-1.005,0.751-2.047,1.438-3.109,2.098C222.138,107.249,221.05,107.861,219.956,108.458z"/>
		<path opacity="0.25" fill="#302F2F" d="M135.303,59.765c2.463,5.208,4.704,10.521,6.782,15.899
			c2.063,5.383,3.949,10.839,5.629,16.357c0.835,2.762,1.633,5.534,2.371,8.323c0.732,2.792,1.419,5.594,2.055,8.408
			c0.624,2.816,1.195,5.645,1.717,8.481c0.503,2.842,0.969,5.688,1.356,8.547l-0.785,0.111l0.002,0.016l0.72-0.296
			c0.277,0.437,0.792,0.759,1.344,0.983c0.558,0.228,1.165,0.371,1.78,0.478c1.236,0.205,2.51,0.269,3.781,0.264
			c1.273-0.008,2.551-0.074,3.825-0.179c1.275-0.109,2.55-0.243,3.821-0.409c-1.257,0.254-2.52,0.488-3.793,0.667
			c-1.271,0.18-2.55,0.323-3.84,0.388c-1.289,0.065-2.588,0.077-3.891-0.09c-0.65-0.087-1.304-0.214-1.943-0.446
			c-0.632-0.234-1.291-0.575-1.743-1.211l0.719-0.295l0.006,0.028l-0.786,0.112c-0.493-2.831-1.015-5.656-1.599-8.471
			c-0.565-2.813-1.185-5.621-1.848-8.415c-0.648-2.796-1.346-5.582-2.09-8.355c-0.736-2.776-1.506-5.544-2.323-8.295
			c-1.625-5.51-3.396-10.979-5.29-16.408C139.4,70.525,137.375,65.14,135.303,59.765z"/>
		<path opacity="0.2" fill="#231F20" d="M203.181,35.088c-2.336,1.949-4.891,3.632-7.494,5.213c-2.614,1.567-5.3,3.02-8.031,4.371
			c-2.724,1.365-5.506,2.612-8.308,3.813c-2.807,1.187-5.646,2.291-8.508,3.346c-2.863,1.029-5.753,2.008-8.665,2.901
			c-2.917,0.878-5.851,1.713-8.816,2.416c-2.962,0.718-5.951,1.329-8.962,1.808c-3.011,0.457-6.05,0.808-9.094,0.809
			c3.028-0.275,6.02-0.786,8.984-1.408c2.968-0.614,5.907-1.351,8.83-2.145c2.918-0.809,5.827-1.658,8.707-2.597
			c2.885-0.924,5.752-1.903,8.597-2.948c2.85-1.023,5.676-2.118,8.479-3.262c2.812-1.133,5.585-2.348,8.342-3.602
			c2.75-1.271,5.476-2.595,8.146-4.027C198.062,38.349,200.682,36.818,203.181,35.088z"/>
		<path opacity="0.8" fill="#F2F2F2" d="M198.912,34.113c-0.274-0.754-0.139-1.629,0.429-2.273c0.563-0.644,1.416-0.89,2.198-0.717
			l2.491,0.557l4.641-1.689c1.215-0.442,2.589-0.483,3.904-0.014c1.314,0.468,2.355,1.363,3.02,2.477l26.175,43.797
			c1.009,1.687,1.459,3.723,1.135,5.816c-0.323,2.097-1.369,3.9-2.842,5.205l-13.526,11.981l0.511,1.402l-3.679-5.873
			c-0.483-0.773-0.743-1.697-0.691-2.674c0.052-0.98,0.408-1.871,0.972-2.587l5.507-7.01c1.295-1.652,2.145-3.684,2.337-5.931
			c0.192-2.245-0.302-4.392-1.299-6.238l-15.835-29.298c-0.641-1.183-1.646-2.181-2.955-2.799c-1.31-0.619-2.72-0.763-4.038-0.505
			l-5.629,1.097l-0.625,1.316L198.912,34.113z"/>
		<path opacity="0.05" fill="#231F20" d="M241.769,76.25l-26.175-43.797c-0.664-1.113-1.705-2.009-3.02-2.477
			c-1.315-0.47-2.689-0.429-3.904,0.014l-4.641,1.689l-2.491-0.557c-0.422-0.094-0.866-0.064-1.271,0.083
			c-0.347,0.126-0.667,0.339-0.927,0.634c-0.567,0.645-0.703,1.52-0.429,2.273l2.199,6.041l0.625-1.316l5.629-1.097
			c1.318-0.258,2.729-0.114,4.038,0.505c1.309,0.618,2.314,1.616,2.955,2.799l15.835,29.298c0.997,1.847,1.491,3.993,1.299,6.238
			c-0.192,2.247-1.042,4.278-2.337,5.931l-5.507,7.01c-0.563,0.716-0.92,1.606-0.972,2.587c-0.052,0.977,0.208,1.9,0.691,2.674
			l3.679,5.873l-0.511-1.402l13.526-11.981c1.473-1.305,2.519-3.108,2.842-5.205C243.228,79.973,242.778,77.937,241.769,76.25z
			 M241.435,81.841c-0.257,1.666-1.095,3.2-2.356,4.318l-12.45,11.027l-2.002-3.193c-0.341-0.543-0.502-1.168-0.468-1.807
			c0.034-0.64,0.262-1.244,0.656-1.747l5.507-7.011c1.523-1.94,2.44-4.265,2.65-6.721c0.209-2.455-0.3-4.901-1.474-7.072
			l-15.835-29.298c-0.816-1.513-2.07-2.7-3.626-3.436c-1.557-0.733-3.27-0.949-4.957-0.619l-5.414,1.055l-1.359-3.732
			c-0.098-0.269-0.04-0.57,0.149-0.785c0.088-0.101,0.195-0.175,0.318-0.22c0.141-0.052,0.293-0.062,0.438-0.027l2.492,0.556
			l0.422,0.095l0.41-0.149l4.641-1.688c0.946-0.345,1.948-0.349,2.898-0.011c0.952,0.338,1.726,0.974,2.243,1.839l26.173,43.797
			C241.359,78.458,241.694,80.174,241.435,81.841z"/>
		<path opacity="0.2" fill="#231F20" d="M223.368,94.782c-0.46-0.632-0.753-1.398-0.837-2.198c-0.083-0.799,0.043-1.634,0.375-2.39
			c0.084-0.188,0.178-0.373,0.286-0.552c0.104-0.178,0.23-0.35,0.341-0.504l0.682-0.948l1.366-1.898l2.76-3.776
			c0.233-0.318,0.457-0.617,0.65-0.921c0.202-0.308,0.387-0.624,0.555-0.947c0.334-0.649,0.599-1.329,0.789-2.03
			c0.189-0.698,0.307-1.425,0.345-2.135c0.039-0.731,0.014-1.449-0.089-2.162c-0.103-0.71-0.28-1.408-0.53-2.081
			c-0.125-0.336-0.268-0.665-0.425-0.986c-0.079-0.16-0.163-0.318-0.25-0.474l-0.286-0.51c-1.521-2.721-3.012-5.455-4.497-8.193
			c-2.967-5.479-5.886-10.983-8.725-16.534l-2.119-4.165c-0.317-0.624-0.731-1.201-1.249-1.684c-0.514-0.484-1.12-0.877-1.78-1.156
			c-0.661-0.275-1.372-0.44-2.098-0.477c-0.363-0.019-0.729-0.001-1.095,0.045l-1.149,0.172c-1.543,0.225-3.087,0.447-4.635,0.651
			l0.068-0.052l-0.71,1.277l0.54-1.356l0.016-0.039l0.051-0.014c1.511-0.392,3.025-0.765,4.539-1.136l1.144-0.271
			c0.405-0.089,0.817-0.142,1.233-0.16c0.831-0.031,1.675,0.089,2.473,0.365c1.593,0.541,3.006,1.684,3.857,3.182l2.321,4.058
			c3.093,5.412,6.097,10.871,9.055,16.354c1.477,2.743,2.949,5.49,4.391,8.252l0.271,0.519c0.097,0.186,0.189,0.374,0.276,0.565
			c0.176,0.383,0.332,0.774,0.467,1.174c0.268,0.798,0.453,1.622,0.55,2.456c0.093,0.831,0.104,1.682,0.017,2.502
			c-0.089,0.841-0.262,1.655-0.519,2.449c-0.257,0.793-0.597,1.557-1.014,2.271c-0.207,0.359-0.433,0.707-0.676,1.039
			c-0.248,0.338-0.517,0.646-0.763,0.938l-3.012,3.576l-1.523,1.776l-0.759,0.888c-0.131,0.151-0.249,0.286-0.359,0.432
			c-0.109,0.146-0.208,0.299-0.3,0.459C222.654,91.708,222.619,93.404,223.368,94.782z"/>
		<path opacity="0.05" fill="#F5B11A" d="M228.156,94.933c-0.512-0.675-0.863-1.5-1.005-2.361c-0.139-0.858-0.069-1.762,0.212-2.578
			c0.072-0.205,0.153-0.404,0.248-0.597c0.095-0.195,0.209-0.379,0.31-0.546l0.623-1.032l1.244-2.061l2.522-4.096
			c0.212-0.349,0.419-0.671,0.593-1.003c0.181-0.332,0.346-0.673,0.492-1.025c0.292-0.701,0.512-1.438,0.654-2.196
			c0.142-0.754,0.208-1.536,0.196-2.306c-0.013-0.788-0.09-1.56-0.243-2.327c-0.155-0.766-0.385-1.517-0.685-2.237
			c-0.148-0.361-0.316-0.715-0.5-1.059c-0.091-0.173-0.188-0.343-0.286-0.51l-0.325-0.546c-1.729-2.916-3.431-5.85-5.129-8.785
			c-3.389-5.875-6.73-11.777-9.992-17.73l-2.443-4.468c-0.363-0.667-0.823-1.286-1.38-1.801c-0.554-0.517-1.194-0.933-1.883-1.228
			c-0.687-0.29-1.418-0.459-2.154-0.494c-0.368-0.014-0.737,0.008-1.103,0.063l-1.15,0.196c-1.545,0.259-3.088,0.514-4.638,0.749
			l0.063-0.056l-0.625,1.384l0.447-1.469l0.014-0.041l0.051-0.016c1.499-0.438,3.004-0.855,4.51-1.271l1.135-0.304
			c0.403-0.1,0.815-0.163,1.235-0.185c0.838-0.044,1.7,0.077,2.526,0.367c1.648,0.565,3.157,1.785,4.126,3.389l2.636,4.349
			c3.507,5.803,6.935,11.654,10.315,17.534c1.688,2.942,3.371,5.886,5.023,8.848l0.312,0.555c0.111,0.2,0.219,0.404,0.321,0.608
			c0.204,0.412,0.39,0.834,0.554,1.261c0.329,0.857,0.573,1.743,0.73,2.642c0.153,0.896,0.228,1.812,0.193,2.698
			c-0.028,0.906-0.145,1.785-0.349,2.644c-0.203,0.858-0.495,1.683-0.864,2.46c-0.183,0.388-0.388,0.765-0.608,1.126
			c-0.227,0.366-0.476,0.7-0.702,1.02l-2.792,3.887l-1.411,1.929l-0.708,0.964c-0.119,0.166-0.231,0.312-0.331,0.47
			c-0.099,0.157-0.191,0.325-0.271,0.499C227.213,91.628,227.3,93.456,228.156,94.933z"/>
		<path fill="#FFFFFF" d="M204.432,34.082c0.674-0.472,1.386-0.862,2.144-1.188c0.758-0.322,1.573-0.571,2.455-0.66
			c0.876-0.091,1.837,0.017,2.708,0.376c0.437,0.176,0.845,0.414,1.218,0.679c0.372,0.27,0.709,0.573,1.015,0.891
			c0.306,0.321,0.578,0.66,0.832,1.006c0.126,0.174,0.242,0.351,0.356,0.529l0.171,0.271c0.051,0.083,0.101,0.168,0.154,0.266
			c0.419,0.738,0.758,1.496,1.032,2.273c0.539,1.554,0.856,3.126,1.009,4.754c-0.934-1.349-1.646-2.779-2.426-4.106
			c-0.387-0.663-0.782-1.314-1.204-1.919l-0.322-0.457c-0.11-0.149-0.22-0.297-0.335-0.438c-0.223-0.287-0.454-0.562-0.698-0.812
			c-0.479-0.512-1.002-0.932-1.574-1.228c-0.571-0.298-1.21-0.47-1.914-0.533c-0.704-0.066-1.461-0.026-2.235,0.046
			C206.042,33.899,205.252,34.014,204.432,34.082z"/>
		<path fill="#FFFFFF" d="M234.328,87.995c1.381-1.267,2.614-2.579,3.429-4.063c0.824-1.473,1.167-3.079,1.004-4.695l-0.03-0.295
			l-0.023-0.163l-0.024-0.144c-0.031-0.2-0.073-0.404-0.124-0.608c-0.087-0.411-0.207-0.824-0.335-1.236
			c-0.256-0.827-0.572-1.648-0.92-2.46c-0.35-0.811-0.739-1.608-1.183-2.382c-0.446-0.774-0.937-1.521-1.585-2.201
			c0.445,0.156,0.863,0.399,1.255,0.676c0.395,0.274,0.756,0.592,1.099,0.929c0.681,0.676,1.269,1.439,1.787,2.244
			c0.517,0.806,0.954,1.662,1.314,2.562c0.181,0.453,0.333,0.915,0.466,1.395c0.064,0.241,0.117,0.486,0.165,0.737l0.035,0.194
			l0.027,0.177c0.019,0.144,0.034,0.258,0.047,0.388c0.044,0.512,0.05,1.027,0.005,1.541c-0.054,0.514-0.144,1.025-0.294,1.519
			c-0.291,0.989-0.78,1.906-1.396,2.689C237.801,86.367,236.117,87.437,234.328,87.995z"/>
		<path opacity="0.22" fill="#231F20" d="M201.736,38.838c-0.049,0.245-0.106,0.486-0.17,0.726
			c-0.058,0.242-0.134,0.474-0.201,0.712l-0.171,0.607l-0.346-0.633c-0.456-0.834-0.858-1.688-1.23-2.553
			c-0.368-0.866-0.705-1.745-1.01-2.634l-0.225-0.669l-0.028-0.094l-0.029-0.091c-0.021-0.083-0.038-0.15-0.052-0.224
			c-0.029-0.145-0.047-0.291-0.051-0.438c-0.018-0.586,0.16-1.169,0.497-1.628c0.332-0.456,0.813-0.787,1.328-0.924
			c0.514-0.14,1.057-0.092,1.49,0.127c-0.975,0.018-1.738,0.575-2.046,1.271c-0.154,0.346-0.205,0.719-0.149,1.072
			c0.012,0.086,0.03,0.173,0.056,0.257c0.012,0.042,0.028,0.087,0.039,0.118l0.061,0.147l0.26,0.656
			c0.336,0.878,0.644,1.768,0.917,2.667c0.272,0.902,0.515,1.814,0.699,2.747l-0.517-0.023c0.14-0.201,0.273-0.408,0.423-0.606
			C201.426,39.228,201.576,39.03,201.736,38.838z"/>
		<path opacity="0.22" fill="#231F20" d="M226.536,99.253c0.14,0.215,0.27,0.433,0.395,0.651c0.128,0.217,0.244,0.438,0.364,0.66
			l-0.473,0.23c-0.684-0.803-1.31-1.646-1.913-2.5c-0.601-0.857-1.17-1.737-1.711-2.629c-0.138-0.229-0.264-0.44-0.404-0.686
			c-0.146-0.265-0.261-0.534-0.355-0.812c-0.182-0.559-0.262-1.147-0.223-1.724c0.067-1.149,0.601-2.246,1.433-2.923
			c-0.227,0.484-0.395,0.97-0.479,1.46c-0.082,0.486-0.097,0.982-0.044,1.448c0.056,0.468,0.181,0.92,0.368,1.339
			c0.09,0.212,0.2,0.413,0.318,0.6l0.426,0.647c0.568,0.877,1.109,1.771,1.617,2.685c0.506,0.917,0.991,1.849,1.417,2.815
			l-0.474,0.23c-0.051-0.248-0.104-0.492-0.145-0.741C226.607,99.757,226.569,99.507,226.536,99.253z"/>
	</g>
	<g>
		<path fill="#FFFFFF" d="M78.088,51.232c-14.123-5.14-26.02-11.181-32.508-16.145c-0.002,0.007-0.005,0.014-0.007,0.019
			c2.042-6.915,3.891-13.944,5.583-21.068l71.472,26.013c-3.304,6.587-6.368,13.17-9.185,19.747
			c0.005-0.011,0.009-0.021,0.015-0.034C105.302,59.415,92.264,56.393,78.088,51.232z"/>
		<path opacity="0.5" fill="#F2F2F2" d="M78.088,51.232c-14.123-5.14-26.02-11.181-32.508-16.145
			c-0.002,0.007-0.005,0.014-0.007,0.019c2.042-6.915,3.891-13.944,5.583-21.068l71.472,26.013
			c-3.304,6.587-6.368,13.17-9.185,19.747c0.005-0.011,0.009-0.021,0.015-0.034C105.302,59.415,92.264,56.393,78.088,51.232z"/>
		<path opacity="0.4" fill="#FFFFFF" d="M51.156,14.039c-0.188,0.443-0.198,0.951-0.105,1.408c0.092,0.46,0.268,0.886,0.474,1.285
			c0.423,0.796,0.963,1.49,1.533,2.142c1.152,1.298,2.455,2.408,3.785,3.463c2.687,2.073,5.544,3.867,8.475,5.503
			c2.922,1.654,5.94,3.107,8.987,4.493c3.053,1.363,6.159,2.601,9.295,3.763c3.145,1.126,6.321,2.173,9.537,3.095
			c1.611,0.451,3.229,0.877,4.857,1.271c1.625,0.399,3.264,0.753,4.916,1.062c3.295,0.63,6.637,1.094,10.03,1.232
			c1.696,0.048,3.406,0.034,5.125-0.221c0.856-0.135,1.718-0.318,2.549-0.655c0.416-0.174,0.824-0.389,1.19-0.682
			c0.365-0.29,0.685-0.686,0.824-1.146c-0.188,0.443-0.526,0.78-0.893,1.021c-0.371,0.241-0.773,0.405-1.183,0.525
			c-0.817,0.246-1.658,0.348-2.494,0.397c-1.672,0.089-3.339-0.013-4.989-0.198c-1.652-0.176-3.294-0.434-4.924-0.741
			c-1.629-0.311-3.253-0.645-4.866-1.031c-3.22-0.782-6.423-1.638-9.583-2.63c-3.17-0.966-6.31-2.016-9.42-3.164
			c-3.117-1.115-6.201-2.336-9.249-3.626c-3.059-1.274-6.064-2.677-9.032-4.148c-1.484-0.739-2.943-1.528-4.391-2.337
			c-1.447-0.811-2.871-1.671-4.248-2.597c-1.384-0.919-2.726-1.915-3.95-3.058c-0.608-0.575-1.186-1.193-1.655-1.909
			c-0.234-0.354-0.44-0.739-0.568-1.163C51.058,14.974,51.015,14.499,51.156,14.039z"/>
		<path opacity="0.4" fill="#FFFFFF" d="M122.567,40.227c0.19-0.443,0.2-0.952,0.107-1.409c-0.094-0.46-0.267-0.887-0.474-1.286
			c-0.421-0.794-0.963-1.488-1.533-2.141c-1.152-1.298-2.454-2.408-3.785-3.462c-2.687-2.074-5.544-3.867-8.475-5.502
			c-2.921-1.655-5.941-3.107-8.986-4.493c-3.056-1.364-6.16-2.602-9.296-3.764c-3.143-1.126-6.322-2.171-9.538-3.094
			c-1.609-0.452-3.23-0.878-4.856-1.273c-1.626-0.399-3.265-0.754-4.915-1.063c-3.296-0.63-6.638-1.094-10.03-1.231
			c-1.696-0.048-3.407-0.034-5.125,0.22c-0.855,0.133-1.718,0.318-2.551,0.655c-0.415,0.173-0.822,0.389-1.189,0.681
			c-0.365,0.29-0.684,0.687-0.823,1.148c0.186-0.444,0.523-0.78,0.892-1.021c0.369-0.243,0.773-0.404,1.182-0.527
			c0.818-0.246,1.658-0.346,2.494-0.397c1.673-0.088,3.339,0.013,4.99,0.199c1.653,0.176,3.293,0.432,4.924,0.742
			c1.628,0.31,3.253,0.644,4.865,1.031c3.221,0.782,6.423,1.637,9.585,2.629c3.168,0.968,6.31,2.017,9.42,3.165
			c3.116,1.114,6.199,2.334,9.249,3.627c3.059,1.273,6.063,2.676,9.032,4.147c1.483,0.739,2.942,1.527,4.39,2.337
			c1.447,0.811,2.869,1.67,4.248,2.597c1.384,0.92,2.726,1.913,3.95,3.057c0.608,0.576,1.186,1.193,1.656,1.909
			c0.233,0.354,0.437,0.737,0.568,1.162C122.667,39.291,122.711,39.766,122.567,40.227z"/>
		<path fill="#E7E7E7" d="M11.298,108.629c2.338-3.271,4.568-6.606,6.692-10.004c0.228,2.426,4.278,5.979,10.815,9.833
			c6.247,3.683,14.767,7.64,24.397,11.145c9.633,3.507,18.703,5.952,25.855,7.146c7.942,1.326,13.522,1.11,14.881-0.915
			c-0.638,4.133-1.161,8.261-1.565,12.389c-0.033,0.335-0.07,0.671-0.101,1.007c-1.729,4.749-21.399,1.948-43.937-6.255
			c-22.536-8.202-39.406-18.701-37.677-23.45C10.875,109.229,11.085,108.928,11.298,108.629z"/>
		<path fill="#D2D3D4" d="M17.159,107.592c-1.93,2.336,10.867,17.294,32.374,25.032c21.448,7.896,40.867,4.663,40.89,1.634
			c0.196-3.211-17.375-5.139-36.964-12.42C33.772,114.824,19.072,105.006,17.159,107.592z"/>
		<path fill="#BDBEC0" d="M13.409,106.227c-1.929,2.336,10.868,17.295,32.375,25.033c21.449,7.896,40.867,4.662,40.889,1.633
			c0.196-3.211-17.375-5.139-36.964-12.419C30.022,113.459,15.324,103.642,13.409,106.227z"/>
		<path opacity="0.8" fill="#F2F2F2" d="M15.835,105.39c-1.928,2.333,10.87,17.293,32.375,25.032
			c21.448,7.895,40.867,4.66,40.889,1.633c0.196-3.212-17.375-5.138-36.963-12.418C32.45,112.622,17.751,102.804,15.835,105.39z"/>
		<path fill="#FFFFFF" d="M16.081,104.65c-0.918-0.735,12.021,12.529,34.037,20.531c22.007,8.021,40.446,6.178,39.269,6.15
			c-0.845-0.294-19.028,0.431-38.972-6.967C30.381,117.213,16.918,104.97,16.081,104.65z"/>
		<path opacity="0.3" fill="#F5B11A" d="M21.603,107.296c-0.776-0.622,10.143,10.571,28.719,17.324
			c18.57,6.767,34.13,5.212,33.136,5.189c-0.716-0.247-16.057,0.363-32.885-5.879C33.668,117.896,22.308,107.565,21.603,107.296z"/>
		<path opacity="0.5" fill="#5A4B43" d="M18.507,97.899c-0.201,0.465-0.182,1.002-0.059,1.47c0.122,0.476,0.329,0.907,0.562,1.312
			c0.479,0.806,1.07,1.507,1.685,2.168c1.243,1.317,2.63,2.445,4.04,3.522c2.85,2.116,5.859,3.958,8.941,5.642
			c6.168,3.365,12.6,6.169,19.174,8.566c1.643,0.594,3.297,1.167,4.958,1.715c1.666,0.539,3.337,1.062,5.018,1.545
			c3.368,0.966,6.766,1.832,10.215,2.505c3.443,0.69,6.932,1.215,10.476,1.425c1.772,0.081,3.56,0.109,5.36-0.103
			c0.897-0.11,1.8-0.269,2.683-0.578c0.44-0.161,0.877-0.358,1.275-0.646c0.394-0.279,0.755-0.678,0.9-1.163
			c-0.201,0.465-0.577,0.793-0.971,1.016c-0.399,0.225-0.829,0.364-1.26,0.468c-0.862,0.205-1.742,0.27-2.614,0.286
			c-1.748,0.023-3.484-0.135-5.206-0.373c-1.723-0.229-3.433-0.532-5.132-0.887c-1.698-0.354-3.392-0.73-5.073-1.156
			c-6.727-1.705-13.338-3.817-19.858-6.183c-6.51-2.381-12.944-4.994-19.186-8.023c-1.563-0.755-3.101-1.558-4.63-2.376
			c-1.529-0.819-3.034-1.688-4.5-2.62c-1.474-0.925-2.903-1.92-4.227-3.061c-0.66-0.575-1.291-1.19-1.819-1.902
			c-0.264-0.355-0.502-0.739-0.665-1.167C18.437,98.877,18.361,98.384,18.507,97.899z"/>
		<path opacity="0.4" fill="#010101" d="M93.94,125.834c-0.214,1.109-0.417,2.223-0.614,3.335c-0.203,1.114-0.376,2.229-0.552,3.345
			c-0.17,1.116-0.341,2.232-0.491,3.352l-0.43,3.357l0.03-0.136c-0.145,0.362-0.45,0.661-0.83,0.886
			c-0.38,0.227-0.816,0.383-1.259,0.503c-0.895,0.24-1.834,0.337-2.771,0.38c-1.875,0.078-3.758-0.073-5.625-0.287
			c-3.742-0.424-7.433-1.198-11.095-2.057c-3.663-0.861-7.282-1.9-10.882-2.996c-3.599-1.098-7.166-2.306-10.698-3.605
			c-3.54-1.274-7.048-2.642-10.511-4.113c-3.462-1.473-6.901-3.005-10.261-4.7c-3.359-1.693-6.685-3.472-9.823-5.553
			c-1.568-1.035-3.108-2.132-4.495-3.397c-0.691-0.633-1.348-1.312-1.879-2.068c-0.266-0.378-0.499-0.779-0.643-1.195
			c-0.148-0.418-0.189-0.847-0.068-1.219l-0.069,0.131l1.836-2.736c0.603-0.918,1.194-1.845,1.781-2.776
			c0.583-0.93,1.167-1.861,1.73-2.811c0.564-0.943,1.121-1.893,1.668-2.847c-0.613,0.906-1.236,1.808-1.866,2.701
			c-0.632,0.891-1.256,1.788-1.895,2.673c-0.636,0.887-1.284,1.765-1.931,2.642l-1.955,2.616c-0.026,0.034-0.047,0.073-0.061,0.112
			l-0.006,0.016c-0.125,0.322-0.181,0.669-0.174,0.992c0.004,0.322,0.06,0.629,0.141,0.908c0.161,0.562,0.411,1.044,0.685,1.493
			c0.561,0.89,1.229,1.64,1.923,2.346c1.395,1.403,2.915,2.608,4.471,3.746c1.566,1.123,3.176,2.163,4.811,3.157
			c1.634,0.99,3.29,1.941,4.974,2.831c3.368,1.78,6.791,3.439,10.272,4.955c3.483,1.511,7.009,2.917,10.57,4.228
			c3.572,1.283,7.177,2.475,10.816,3.557c3.641,1.076,7.33,2.006,11.053,2.807c1.863,0.401,3.741,0.739,5.629,1.031
			c1.891,0.288,3.794,0.525,5.715,0.672c1.922,0.134,3.864,0.186,5.835,0.008c0.984-0.094,1.979-0.24,2.98-0.561
			c0.5-0.166,1.001-0.376,1.488-0.703c0.241-0.164,0.479-0.361,0.692-0.606c0.212-0.244,0.394-0.546,0.507-0.874l0.006-0.016
			c0.014-0.037,0.021-0.08,0.023-0.117l0.258-3.348c0.095-1.115,0.184-2.233,0.291-3.351l0.333-3.351
			C93.688,128.07,93.81,126.952,93.94,125.834z"/>
		<path fill="#F5B11A" d="M79.059,126.749c-7.152-1.194-16.222-3.64-25.855-7.146c-9.631-3.505-18.15-7.462-24.397-11.145
			c-6.538-3.854-10.587-7.407-10.815-9.833c-0.001,0.002-0.001,0.004-0.002,0.006c12.137-19.42,20.899-40.859,27.592-63.543
			c6.489,4.964,18.385,11.005,32.508,16.145c14.176,5.16,27.214,8.183,35.37,8.532c-9.462,22.078-16.124,44.105-19.518,66.077
			c-0.001-0.002-0.001-0.005,0-0.008C92.581,127.859,87,128.075,79.059,126.749z"/>
		<g>
			<g>
				<path opacity="0.05" fill="#231F20" d="M63.007,109.119c-0.321,0.621-0.076,1.387,0.546,1.706l0,0
					c0.622,0.322,1.387,0.077,1.708-0.545l0,0c0.322-0.622,0.078-1.387-0.545-1.708l0,0
					C64.092,108.251,63.328,108.494,63.007,109.119L63.007,109.119z"/>
				<path opacity="0.2" fill="#231F20" d="M64.117,108.432c-0.167,0.113-0.308,0.269-0.408,0.461
					c-0.32,0.623-0.077,1.388,0.545,1.709c0.193,0.099,0.398,0.145,0.599,0.141c-0.373,0.258-0.871,0.307-1.3,0.083
					c-0.623-0.319-0.868-1.085-0.546-1.706C63.229,108.687,63.664,108.438,64.117,108.432z"/>
				<path opacity="0.5" fill="#FFFFFF" d="M63.873,108.916c-0.101,0.195-0.026,0.438,0.173,0.539
					c0.196,0.103,0.44,0.025,0.541-0.172c0.102-0.199,0.025-0.44-0.173-0.541C64.217,108.641,63.975,108.718,63.873,108.916z"/>
			</g>
			<g>
				<path opacity="0.05" fill="#231F20" d="M58.174,112.829c-0.364,0.704-0.085,1.571,0.618,1.936l0,0
					c0.705,0.363,1.571,0.087,1.935-0.618l0,0c0.365-0.705,0.088-1.572-0.617-1.936l0,0
					C59.404,111.849,58.538,112.124,58.174,112.829L58.174,112.829z"/>
				<path opacity="0.2" fill="#231F20" d="M59.431,112.052c-0.188,0.129-0.349,0.306-0.46,0.523
					c-0.364,0.704-0.088,1.571,0.618,1.937c0.216,0.112,0.45,0.162,0.678,0.158c-0.42,0.29-0.987,0.346-1.474,0.095
					c-0.704-0.364-0.982-1.231-0.618-1.936C58.427,112.342,58.918,112.059,59.431,112.052z"/>
				<circle opacity="0.5" fill="#FFFFFF" cx="59.56" cy="112.808" r="0.455"/>
			</g>
			<g>
				<path opacity="0.05" fill="#231F20" d="M62.106,105.111c-0.321,0.621-0.077,1.386,0.544,1.708l0,0
					c0.623,0.32,1.388,0.076,1.708-0.546l0,0c0.323-0.621,0.078-1.387-0.544-1.708l0,0
					C63.192,104.244,62.426,104.488,62.106,105.111L62.106,105.111z"/>
				<path opacity="0.2" fill="#231F20" d="M63.215,104.424c-0.167,0.114-0.308,0.271-0.406,0.463
					c-0.322,0.624-0.078,1.387,0.545,1.71c0.192,0.097,0.398,0.144,0.598,0.141c-0.37,0.256-0.87,0.304-1.3,0.082
					c-0.622-0.322-0.866-1.087-0.544-1.708C62.328,104.681,62.763,104.43,63.215,104.424z"/>
				<circle opacity="0.5" fill="#FFFFFF" cx="63.329" cy="105.092" r="0.402"/>
			</g>
			<g>
				<path opacity="0.05" fill="#231F20" d="M66.182,103.566c-0.321,0.622-0.076,1.387,0.545,1.71l0,0
					c0.623,0.32,1.388,0.076,1.709-0.547l0,0c0.32-0.621,0.076-1.387-0.546-1.708l0,0C67.269,102.7,66.503,102.945,66.182,103.566
					L66.182,103.566z"/>
				<path opacity="0.2" fill="#231F20" d="M67.292,102.88c-0.166,0.115-0.308,0.271-0.407,0.462
					c-0.321,0.623-0.078,1.388,0.546,1.708c0.192,0.101,0.396,0.145,0.598,0.142c-0.372,0.258-0.872,0.307-1.302,0.085
					c-0.621-0.323-0.866-1.088-0.545-1.71C66.404,103.137,66.839,102.887,67.292,102.88z"/>
				<circle opacity="0.5" fill="#FFFFFF" cx="67.404" cy="103.547" r="0.402"/>
			</g>
			<g>
				<path opacity="0.05" fill="#231F20" d="M64.809,97.108c-0.322,0.623-0.078,1.389,0.544,1.71l0,0
					c0.623,0.321,1.387,0.077,1.709-0.546l0,0c0.319-0.622,0.076-1.387-0.546-1.708l0,0C65.895,96.244,65.129,96.487,64.809,97.108
					L64.809,97.108z"/>
				<path opacity="0.2" fill="#231F20" d="M65.917,96.424c-0.167,0.113-0.306,0.271-0.405,0.462
					c-0.323,0.623-0.078,1.387,0.544,1.708c0.192,0.1,0.397,0.145,0.6,0.143c-0.373,0.256-0.871,0.305-1.302,0.082
					c-0.623-0.321-0.866-1.087-0.544-1.71C65.03,96.679,65.464,96.43,65.917,96.424z"/>
				<circle opacity="0.5" fill="#FFFFFF" cx="66.031" cy="97.091" r="0.402"/>
			</g>
			<g>
				<path opacity="0.05" fill="#231F20" d="M73.822,95.487c-0.321,0.622-0.078,1.388,0.545,1.71l0,0
					c0.622,0.32,1.388,0.076,1.708-0.547l0,0c0.322-0.621,0.078-1.389-0.545-1.709l0,0C74.909,94.621,74.144,94.864,73.822,95.487
					L73.822,95.487z"/>
				<path opacity="0.2" fill="#231F20" d="M74.933,94.802c-0.167,0.113-0.309,0.27-0.408,0.461c-0.322,0.624-0.078,1.388,0.545,1.71
					c0.191,0.098,0.396,0.144,0.598,0.141c-0.373,0.257-0.871,0.306-1.301,0.084c-0.623-0.322-0.866-1.088-0.545-1.71
					C74.043,95.057,74.479,94.808,74.933,94.802z"/>
				<circle opacity="0.5" fill="#FFFFFF" cx="75.045" cy="95.469" r="0.401"/>
			</g>
			<g>
				<path opacity="0.05" fill="#231F20" d="M68.99,99.2c-0.364,0.705-0.088,1.57,0.617,1.936l0,0
					c0.706,0.362,1.572,0.086,1.935-0.618l0,0c0.364-0.705,0.088-1.571-0.617-1.934l0,0C70.219,98.218,69.354,98.494,68.99,99.2
					L68.99,99.2z"/>
				<path opacity="0.2" fill="#231F20" d="M70.246,98.424c-0.188,0.129-0.348,0.305-0.46,0.521
					c-0.364,0.706-0.087,1.572,0.617,1.936c0.218,0.112,0.45,0.164,0.679,0.16c-0.422,0.291-0.986,0.346-1.475,0.095
					c-0.705-0.365-0.98-1.23-0.617-1.936C69.241,98.712,69.733,98.429,70.246,98.424z"/>
				<circle opacity="0.5" fill="#FFFFFF" cx="70.374" cy="99.179" r="0.455"/>
			</g>
			<g>
				<path opacity="0.05" fill="#231F20" d="M72.92,91.48c-0.321,0.623-0.076,1.389,0.546,1.71l0,0
					c0.621,0.321,1.386,0.075,1.707-0.546l0,0c0.322-0.623,0.078-1.39-0.544-1.708l0,0C74.006,90.614,73.241,90.859,72.92,91.48
					L72.92,91.48z"/>
				<path opacity="0.2" fill="#231F20" d="M74.03,90.794c-0.167,0.114-0.309,0.271-0.407,0.462c-0.322,0.623-0.079,1.388,0.546,1.71
					c0.192,0.099,0.396,0.145,0.598,0.14c-0.374,0.259-0.871,0.306-1.301,0.085c-0.623-0.321-0.868-1.087-0.546-1.71
					C73.144,91.051,73.577,90.802,74.03,90.794z"/>
				<circle opacity="0.5" fill="#FFFFFF" cx="74.143" cy="91.462" r="0.402"/>
			</g>
			<g>
				<path opacity="0.05" fill="#231F20" d="M76.997,89.938c-0.321,0.621-0.077,1.387,0.545,1.707l0,0
					c0.623,0.322,1.388,0.077,1.708-0.545l0,0c0.322-0.622,0.076-1.387-0.544-1.708l0,0C78.083,89.07,77.318,89.314,76.997,89.938
					L76.997,89.938z"/>
				<path opacity="0.2" fill="#231F20" d="M78.105,89.251c-0.166,0.113-0.308,0.27-0.405,0.461
					c-0.323,0.623-0.078,1.389,0.543,1.709c0.192,0.1,0.397,0.144,0.6,0.141c-0.372,0.258-0.872,0.307-1.301,0.083
					c-0.622-0.32-0.867-1.086-0.545-1.707C77.22,89.508,77.653,89.256,78.105,89.251z"/>
				<circle opacity="0.5" fill="#FFFFFF" cx="78.219" cy="89.918" r="0.401"/>
			</g>
			<g>
				<path opacity="0.05" fill="#231F20" d="M75.624,83.479c-0.321,0.621-0.077,1.388,0.544,1.71l0,0
					c0.622,0.32,1.387,0.076,1.708-0.546l0,0c0.323-0.624,0.078-1.388-0.543-1.71l0,0C76.709,82.613,75.944,82.858,75.624,83.479
					L75.624,83.479z"/>
				<path opacity="0.2" fill="#231F20" d="M76.732,82.793c-0.166,0.115-0.309,0.271-0.405,0.462
					c-0.323,0.623-0.078,1.39,0.544,1.709c0.192,0.1,0.397,0.145,0.6,0.142c-0.374,0.257-0.872,0.306-1.302,0.084
					c-0.622-0.322-0.866-1.089-0.544-1.71C75.846,83.049,76.279,82.801,76.732,82.793z"/>
				<circle opacity="0.5" fill="#FFFFFF" cx="76.845" cy="83.461" r="0.401"/>
			</g>
			<g>
				<path opacity="0.05" fill="#231F20" d="M64.292,92.145c-0.321,0.624-0.077,1.389,0.544,1.71l0,0
					c0.623,0.321,1.387,0.075,1.708-0.545l0,0c0.321-0.623,0.078-1.387-0.544-1.709l0,0C65.378,91.278,64.612,91.523,64.292,92.145
					L64.292,92.145z"/>
				<path opacity="0.2" fill="#231F20" d="M65.4,91.459c-0.166,0.115-0.307,0.271-0.406,0.463c-0.321,0.623-0.076,1.387,0.545,1.708
					c0.192,0.1,0.397,0.145,0.599,0.142c-0.373,0.256-0.871,0.304-1.302,0.083c-0.622-0.321-0.865-1.086-0.544-1.71
					C64.514,91.716,64.948,91.466,65.4,91.459z"/>
				<circle opacity="0.5" fill="#FFFFFF" cx="65.515" cy="92.126" r="0.402"/>
			</g>
			<g>
				<path opacity="0.05" fill="#231F20" d="M59.458,95.858c-0.362,0.703-0.086,1.57,0.619,1.935l0,0
					c0.707,0.363,1.57,0.087,1.936-0.617l0,0c0.364-0.706,0.088-1.572-0.619-1.937l0,0C60.69,94.876,59.823,95.152,59.458,95.858
					L59.458,95.858z"/>
				<path opacity="0.2" fill="#231F20" d="M60.717,95.08c-0.189,0.129-0.351,0.306-0.462,0.522
					c-0.363,0.706-0.087,1.572,0.618,1.936c0.217,0.113,0.449,0.164,0.679,0.161c-0.423,0.29-0.988,0.344-1.475,0.094
					c-0.705-0.364-0.981-1.231-0.619-1.935C59.711,95.37,60.202,95.087,60.717,95.08z"/>
				<path opacity="0.5" fill="#FFFFFF" d="M60.44,95.628c-0.116,0.222-0.028,0.498,0.195,0.613c0.224,0.113,0.498,0.026,0.612-0.196
					c0.117-0.224,0.029-0.499-0.192-0.613C60.829,95.315,60.556,95.405,60.44,95.628z"/>
			</g>
			<g>
				<path opacity="0.05" fill="#231F20" d="M63.391,88.138c-0.321,0.623-0.078,1.388,0.545,1.708l0,0
					c0.622,0.323,1.387,0.08,1.708-0.544l0,0c0.32-0.622,0.078-1.388-0.545-1.709l0,0C64.476,87.271,63.71,87.517,63.391,88.138
					L63.391,88.138z"/>
				<path opacity="0.2" fill="#231F20" d="M64.5,87.452c-0.167,0.114-0.308,0.271-0.406,0.463c-0.322,0.623-0.079,1.388,0.543,1.708
					c0.192,0.099,0.397,0.145,0.599,0.141c-0.372,0.256-0.87,0.307-1.3,0.082c-0.623-0.32-0.866-1.085-0.545-1.708
					C63.614,87.708,64.047,87.46,64.5,87.452z"/>
				<circle opacity="0.5" fill="#FFFFFF" cx="64.612" cy="88.12" r="0.402"/>
			</g>
			<g>
				<path opacity="0.05" fill="#231F20" d="M67.466,86.595c-0.319,0.622-0.077,1.386,0.546,1.708l0,0
					c0.623,0.322,1.387,0.077,1.708-0.544l0,0c0.321-0.623,0.077-1.388-0.545-1.71l0,0C68.553,85.728,67.788,85.973,67.466,86.595
					L67.466,86.595z"/>
				<path opacity="0.2" fill="#231F20" d="M68.576,85.908c-0.167,0.114-0.307,0.27-0.407,0.46c-0.322,0.624-0.078,1.389,0.545,1.71
					c0.193,0.1,0.397,0.145,0.6,0.142c-0.373,0.257-0.871,0.306-1.302,0.083c-0.623-0.322-0.865-1.086-0.546-1.708
					C67.689,86.163,68.123,85.914,68.576,85.908z"/>
				<circle opacity="0.5" fill="#FFFFFF" cx="68.689" cy="86.575" r="0.401"/>
			</g>
			<g>
				<path opacity="0.05" fill="#231F20" d="M66.092,80.137c-0.321,0.623-0.076,1.388,0.545,1.709l0,0
					c0.623,0.321,1.389,0.077,1.708-0.545l0,0c0.321-0.622,0.077-1.387-0.544-1.708l0,0C67.178,79.271,66.414,79.516,66.092,80.137
					L66.092,80.137z"/>
				<path opacity="0.2" fill="#231F20" d="M67.203,79.451c-0.167,0.115-0.309,0.271-0.408,0.462
					c-0.321,0.622-0.077,1.387,0.544,1.708c0.193,0.1,0.399,0.146,0.6,0.142c-0.373,0.258-0.87,0.306-1.302,0.083
					c-0.621-0.321-0.866-1.086-0.545-1.709C66.315,79.706,66.75,79.459,67.203,79.451z"/>
				<circle opacity="0.5" fill="#FFFFFF" cx="67.316" cy="80.118" r="0.402"/>
			</g>
			<g>
				<path opacity="0.05" fill="#231F20" d="M74.434,77.515c-0.321,0.623-0.077,1.386,0.545,1.709l0,0
					c0.623,0.322,1.387,0.077,1.709-0.546l0,0c0.32-0.621,0.077-1.388-0.544-1.708l0,0C75.52,76.648,74.756,76.892,74.434,77.515
					L74.434,77.515z"/>
				<path opacity="0.2" fill="#231F20" d="M75.543,76.828c-0.166,0.115-0.308,0.271-0.406,0.462
					c-0.322,0.623-0.079,1.388,0.545,1.708c0.192,0.1,0.396,0.145,0.598,0.142c-0.372,0.257-0.871,0.306-1.302,0.084
					c-0.622-0.323-0.866-1.086-0.545-1.709C74.657,77.084,75.09,76.835,75.543,76.828z"/>
				<circle opacity="0.5" fill="#FFFFFF" cx="75.656" cy="77.496" r="0.402"/>
			</g>
			<g>
				<path opacity="0.05" fill="#231F20" d="M69.602,81.226c-0.364,0.707-0.088,1.572,0.618,1.937l0,0
					c0.705,0.361,1.571,0.087,1.934-0.617l0,0c0.365-0.707,0.089-1.572-0.616-1.937l0,0C70.832,80.244,69.966,80.521,69.602,81.226
					L69.602,81.226z"/>
				<path opacity="0.2" fill="#231F20" d="M70.859,80.449c-0.189,0.129-0.349,0.305-0.461,0.523
					c-0.365,0.706-0.088,1.571,0.617,1.935c0.218,0.112,0.451,0.164,0.679,0.161c-0.423,0.29-0.986,0.345-1.473,0.094
					c-0.706-0.364-0.982-1.229-0.618-1.937C69.854,80.739,70.345,80.457,70.859,80.449z"/>
				<circle opacity="0.5" fill="#FFFFFF" cx="70.987" cy="81.206" r="0.454"/>
			</g>
			<g>
				<path opacity="0.05" fill="#231F20" d="M73.533,73.508c-0.321,0.621-0.077,1.387,0.546,1.71l0,0
					c0.623,0.32,1.387,0.076,1.708-0.548l0,0c0.322-0.621,0.078-1.387-0.543-1.707l0,0C74.618,72.641,73.854,72.885,73.533,73.508
					L73.533,73.508z"/>
				<path opacity="0.2" fill="#231F20" d="M74.642,72.821c-0.167,0.114-0.309,0.271-0.407,0.462
					c-0.321,0.622-0.076,1.388,0.547,1.709c0.19,0.099,0.396,0.144,0.598,0.141c-0.373,0.258-0.872,0.306-1.301,0.085
					c-0.623-0.323-0.867-1.089-0.546-1.71C73.755,73.077,74.188,72.828,74.642,72.821z"/>
				<circle opacity="0.5" fill="#FFFFFF" cx="74.756" cy="73.489" r="0.401"/>
			</g>
			<g>
				<path opacity="0.05" fill="#231F20" d="M77.61,71.964c-0.321,0.623-0.077,1.387,0.543,1.708l0,0
					c0.623,0.321,1.389,0.077,1.709-0.544l0,0c0.322-0.622,0.077-1.39-0.545-1.711l0,0C78.695,71.097,77.93,71.342,77.61,71.964
					L77.61,71.964z"/>
				<path opacity="0.2" fill="#231F20" d="M78.719,71.277c-0.168,0.114-0.309,0.271-0.408,0.462
					c-0.321,0.622-0.076,1.387,0.545,1.708c0.192,0.099,0.399,0.145,0.6,0.143c-0.372,0.256-0.872,0.304-1.303,0.082
					c-0.621-0.321-0.865-1.085-0.543-1.708C77.831,71.532,78.266,71.284,78.719,71.277z"/>
				<circle opacity="0.5" fill="#FFFFFF" cx="78.833" cy="71.944" r="0.402"/>
			</g>
			<g>
				<path opacity="0.05" fill="#231F20" d="M76.235,65.508c-0.321,0.621-0.077,1.387,0.545,1.707l0,0
					c0.623,0.321,1.387,0.077,1.709-0.545l0,0c0.321-0.622,0.077-1.388-0.546-1.708l0,0C77.321,64.64,76.557,64.884,76.235,65.508
					L76.235,65.508z"/>
				<path opacity="0.2" fill="#231F20" d="M77.344,64.82c-0.167,0.114-0.308,0.27-0.406,0.463c-0.322,0.622-0.077,1.387,0.544,1.707
					c0.192,0.1,0.399,0.146,0.6,0.142c-0.373,0.258-0.873,0.306-1.302,0.083c-0.622-0.32-0.866-1.086-0.545-1.707
					C76.457,65.076,76.892,64.827,77.344,64.82z"/>
				<circle opacity="0.5" fill="#FFFFFF" cx="77.458" cy="65.488" r="0.402"/>
			</g>
			<circle fill="#FFFFFF" cx="80.622" cy="76.831" r="0.733"/>
			<circle fill="#FFFFFF" cx="68.938" cy="91.81" r="1.35"/>
			<circle fill="#FFFFFF" cx="61.739" cy="101.764" r="0.934"/>
			<circle fill="#FFFFFF" cx="78.638" cy="61.606" r="0.487"/>
			<circle fill="#FFFFFF" cx="69.404" cy="109.334" r="0.959"/>
			<circle fill="#FFFFFF" cx="66.555" cy="75.211" r="0.966"/>
			<circle fill="#FFFFFF" cx="85.36" cy="60.357" r="0.501"/>
			<circle fill="#FFFFFF" cx="71.589" cy="68.399" r="0.854"/>
			<circle fill="#FFFFFF" cx="52.912" cy="114.207" r="1.474"/>
		</g>
		<path opacity="0.15" fill="#FFFFFF" d="M62.825,21.512c6.113,3.601,13.783,7.198,22.329,10.309
			c9.355,3.405,18.284,5.689,25.687,6.763C99.2,68.535,89.488,97.854,81.988,126.436c-0.876-0.062-1.784-0.146-2.723-0.254
			c-7.281-0.842-16.429-3.072-26.062-6.579c-9.631-3.505-18.072-7.677-24.191-11.712c-0.192-0.127-0.38-0.254-0.567-0.381
			C41.524,80.287,52.763,51.425,62.825,21.512z"/>
		<path opacity="0.15" fill="#FCEE23" d="M70.871,24.44c5.072,3.222,11.483,6.361,18.671,8.978
			c7.868,2.864,15.426,4.648,21.735,5.324c-11.536,29.99-21.383,59.259-29.29,87.693c-0.748-0.016-1.525-0.052-2.328-0.11
			c-6.217-0.455-13.967-2.177-22.068-5.125c-8.102-2.949-15.146-6.612-20.199-10.259c-0.161-0.115-0.315-0.23-0.469-0.345
			C49.559,83.212,60.696,54.312,70.871,24.44z"/>
		
			<ellipse transform="matrix(-0.9397 -0.342 0.342 -0.9397 146.1219 196.9593)" opacity="0.9" fill="#FFFFFF" cx="90.426" cy="85.597" rx="3.021" ry="40.943"/>
		<path opacity="0.05" fill="#231F20" d="M52.967,14.791c1.999,1.793,4.562,3.675,7.583,5.573
			c-8.817,27.999-19.578,54.691-33.453,79.29c0.001-0.003,0.002-0.005,0.004-0.008c0.015,3.007,3.877,7.078,10.279,11.298
			c5.222,3.44,12.134,6.977,20.032,10.118c-1.391-0.46-2.794-0.943-4.21-1.459c-9.631-3.505-18.074-7.674-24.193-11.706
			c-6.404-4.221-10.266-8.291-10.282-11.3c-0.001,0.004-0.002,0.006-0.003,0.009C33.016,71.268,44.005,43.71,52.967,14.791z"/>
		<path opacity="0.15" fill="#231F20" d="M10.283,109.369l-0.006,0.016c-2.747,7.165,16.605,18.292,37.268,25.813
			c20.651,7.517,42.613,11.429,45.118,4.173l0.006-0.016c0.014-0.037,0.021-0.08,0.023-0.117l0.258-3.348
			c0.095-1.115,0.184-2.233,0.291-3.351l0.333-3.351c0.113-1.117,0.236-2.236,0.366-3.353c3.464-22.416,10.1-45.306,19.504-66.038
			c2.86-6.673,5.93-13.257,9.185-19.747L51.156,14.039C44.145,43.565,34.15,72.77,17.989,98.627
			c-1.839,2.712-3.745,5.378-5.69,8.014l-1.955,2.616C10.317,109.291,10.297,109.33,10.283,109.369z M12.524,110.474l1.757-2.352
			l0.005-0.007l0.004-0.005c2.142-2.902,4.021-5.55,5.748-8.096l0.028-0.038l0.023-0.039c13.961-22.336,24.71-49.387,32.826-82.625
			l66.265,24.118c-2.852,5.791-5.538,11.623-8,17.37c-9.313,20.534-16.119,43.583-19.686,66.659l-0.006,0.044l-0.005,0.047
			c-0.132,1.129-0.257,2.271-0.372,3.388l-0.332,3.358c-0.086,0.912-0.163,1.821-0.236,2.701l-0.058,0.684l0,0.01l0,0.009
			l-0.234,3.048c-0.122,0.242-0.422,0.646-1.24,1.036c-5.517,2.626-22.219-0.215-40.617-6.911
			c-18.414-6.702-33.046-15.268-35.581-20.828C12.443,111.242,12.463,110.746,12.524,110.474z"/>
		<path fill="#FFFFFF" d="M53.157,10.774c0.06,0.022,0.117,0.05,0.177,0.076c0.023-0.073,0.04-0.146,0.066-0.218
			c0.724-1.988,2.923-3.013,4.911-2.29c0.799,0.291,1.438,0.822,1.876,1.48c0.89-2.094,3.27-3.15,5.435-2.362
			c1.228,0.447,2.125,1.395,2.555,2.53c1.902-1.744,4.685-2.397,7.278-1.454c1.05,0.382,1.953,0.985,2.682,1.734
			c0.552-0.266,1.205-0.319,1.827-0.093c0.964,0.352,1.556,1.27,1.545,2.24c0.114,0.178,0.209,0.367,0.286,0.562
			c0.924-0.923,2.332-1.287,3.641-0.81c0.044,0.016,0.084,0.038,0.128,0.055c0.831-1.111,2.32-1.6,3.692-1.1
			c1.463,0.533,2.308,2.016,2.092,3.499c0.518-0.003,1.043,0.078,1.56,0.266c1.034,0.376,1.841,1.094,2.349,1.979
			c2.676-2.455,6.59-3.373,10.238-2.045c3.677,1.338,6.096,4.602,6.539,8.236c0.952-0.401,2.051-0.463,3.098-0.082
			c2.202,0.802,3.338,3.237,2.537,5.439c-0.17,0.467-0.417,0.883-0.715,1.244c1.005-0.045,2.037,0.103,3.042,0.469
			c4.083,1.486,6.191,6.003,4.704,10.088c-1.487,4.086-6.004,6.19-10.088,4.704c-1.483-0.54-2.703-1.479-3.587-2.65
			c-0.757,0.814-1.815,1.3-2.929,1.345c-1.502,1.132-3.529,1.504-5.426,0.813c-2.102-0.765-3.485-2.628-3.739-4.704
			c-1.105,1.469-3.081,2.112-4.898,1.451c-1.868-0.68-2.972-2.519-2.805-4.407c-2.283-0.718-4.625-1.512-7.005-2.378
			c-16.051-5.842-28.702-13.138-31.569-17.843c-0.501,0.089-1.033,0.054-1.545-0.132c-1.558-0.567-2.36-2.29-1.794-3.846
			C49.877,11.012,51.599,10.208,53.157,10.774z"/>
		<path fill="#FCE09E" d="M50.521,11.069c-0.777,0.488-1.295,1.354-1.371,2.265c-0.084,0.912,0.286,1.847,0.962,2.461
			c0.672,0.62,1.637,0.9,2.533,0.731l0.014-0.001l0.006,0.011c0.482,0.78,1.104,1.464,1.758,2.105
			c0.657,0.638,1.362,1.226,2.085,1.788c1.451,1.121,2.982,2.135,4.545,3.091c3.131,1.911,6.403,3.582,9.73,5.123
			c3.326,1.538,6.716,2.943,10.144,4.238c3.43,1.294,6.898,2.48,10.402,3.549l0.271,0.081L91.579,36.8
			c-0.067,0.845,0.151,1.706,0.605,2.417c0.45,0.712,1.133,1.264,1.925,1.553c0.781,0.292,1.656,0.321,2.453,0.081
			c0.796-0.238,1.511-0.737,1.998-1.402l0.672-0.918l0.151,1.138c0.122,0.917,0.487,1.795,1.047,2.524
			c0.556,0.728,1.312,1.308,2.15,1.649c0.856,0.354,1.78,0.479,2.686,0.361c0.902-0.117,1.771-0.477,2.494-1.027l0.135-0.104
			l0.174-0.006c0.959-0.043,1.893-0.479,2.535-1.186l0.458-0.504l0.413,0.55c1.506,2.007,4.098,3.112,6.578,2.831
			c1.238-0.131,2.441-0.586,3.453-1.311c1.017-0.721,1.837-1.706,2.36-2.833c0.525-1.129,0.761-2.388,0.672-3.626
			c-0.091-1.239-0.505-2.455-1.194-3.492c-0.687-1.039-1.644-1.895-2.755-2.457c-1.111-0.565-2.367-0.841-3.612-0.788l-1.334,0.06
			l0.85-1.026c0.263-0.317,0.468-0.656,0.616-1.05c0.139-0.365,0.223-0.779,0.235-1.18c0.026-0.812-0.231-1.633-0.714-2.289
			c-0.482-0.661-1.189-1.148-1.981-1.368c-0.788-0.223-1.65-0.168-2.413,0.15l-0.651,0.271l-0.082-0.696
			c-0.201-1.728-0.875-3.405-1.947-4.789c-1.069-1.386-2.524-2.467-4.175-3.087c-1.64-0.628-3.461-0.796-5.198-0.464
			c-1.737,0.326-3.384,1.141-4.704,2.331l-0.312,0.283l-0.203-0.364c-0.356-0.636-0.883-1.177-1.516-1.547
			c-0.158-0.096-0.321-0.173-0.486-0.245l-0.136-0.055c-0.035-0.015-0.084-0.028-0.125-0.043c-0.084-0.033-0.174-0.056-0.26-0.083
			c-0.355-0.096-0.723-0.144-1.094-0.146l-0.34-0.002l0.05-0.33c0.103-0.641-0.019-1.314-0.338-1.884
			c-0.312-0.572-0.829-1.035-1.425-1.287c-0.614-0.264-1.296-0.314-1.938-0.142c-0.638,0.167-1.222,0.553-1.624,1.083l-0.103,0.135
			L85.48,12.42c-0.292-0.131-0.604-0.207-0.922-0.242c-0.318-0.034-0.64-0.021-0.955,0.042c-0.631,0.122-1.225,0.433-1.686,0.884
			l-0.193,0.19l-0.095-0.251c-0.068-0.187-0.158-0.364-0.264-0.533l-0.027-0.044l0-0.05c0.008-0.369-0.078-0.742-0.253-1.07
			c-0.173-0.33-0.43-0.614-0.743-0.817c-0.313-0.203-0.68-0.327-1.053-0.351c-0.375-0.027-0.756,0.047-1.098,0.207l-0.083,0.04
			l-0.062-0.065c-0.624-0.654-1.373-1.186-2.201-1.556c-0.825-0.372-1.727-0.579-2.633-0.61c-1.816-0.068-3.649,0.608-5,1.837
			l-0.06,0.054l-0.027-0.075c-0.293-0.791-0.824-1.494-1.513-1.984c-0.688-0.493-1.527-0.777-2.375-0.797
			c-0.85-0.021-1.702,0.223-2.416,0.683c-0.715,0.458-1.289,1.137-1.619,1.919l-0.014,0.029l-0.017-0.025
			c-0.397-0.601-0.964-1.088-1.625-1.379c-0.658-0.295-1.401-0.398-2.115-0.29c-0.713,0.106-1.395,0.417-1.941,0.891
			c-0.546,0.471-0.959,1.102-1.158,1.797l0,0l0,0c-0.059-0.026-0.118-0.051-0.177-0.076C52.293,10.457,51.292,10.569,50.521,11.069z
			 M53.334,10.85L53.334,10.85c0.195-0.696,0.606-1.328,1.151-1.803c0.546-0.476,1.229-0.792,1.946-0.902
			c0.716-0.109,1.464-0.009,2.126,0.285c0.666,0.29,1.239,0.78,1.643,1.384l-0.03,0.001c0.333-0.79,0.908-1.475,1.628-1.942
			c0.721-0.468,1.58-0.717,2.44-0.699c0.859,0.015,1.713,0.29,2.418,0.786c0.709,0.491,1.26,1.205,1.569,2.011L68.14,9.95
			c1.357-1.262,3.215-1.974,5.075-1.927c0.931,0.023,1.855,0.228,2.711,0.595c0.857,0.365,1.644,0.899,2.3,1.565l-0.144-0.025
			c0.375-0.185,0.799-0.274,1.221-0.254c0.423,0.021,0.836,0.151,1.196,0.375c0.361,0.224,0.662,0.544,0.864,0.916
			c0.206,0.372,0.314,0.799,0.312,1.226l-0.025-0.093c0.12,0.186,0.225,0.382,0.306,0.589l-0.288-0.061
			c0.5-0.509,1.153-0.868,1.855-1.015c0.35-0.076,0.713-0.099,1.071-0.067c0.36,0.033,0.716,0.112,1.046,0.253l-0.25,0.07
			c0.448-0.613,1.107-1.068,1.842-1.276c0.732-0.212,1.545-0.166,2.246,0.12c0.721,0.29,1.328,0.819,1.714,1.489
			c0.388,0.666,0.547,1.466,0.442,2.234l-0.29-0.332c0.417-0.005,0.839,0.041,1.247,0.143c0.101,0.029,0.204,0.054,0.303,0.089
			c0.051,0.017,0.096,0.029,0.153,0.052l0.139,0.052c0.199,0.081,0.393,0.17,0.575,0.274c0.736,0.414,1.357,1.027,1.784,1.758
			l-0.516-0.079c1.386-1.298,3.137-2.207,5.007-2.594c1.869-0.392,3.847-0.25,5.651,0.402c1.803,0.642,3.433,1.798,4.634,3.303
			c1.206,1.502,1.998,3.342,2.236,5.264l-0.733-0.426c0.97-0.419,2.087-0.505,3.113-0.227c1.022,0.271,1.958,0.897,2.594,1.751
			c0.642,0.85,0.989,1.917,0.967,2.987c-0.012,0.538-0.108,1.059-0.301,1.576c-0.178,0.488-0.455,0.971-0.79,1.378l-0.484-0.968
			c1.449-0.068,2.914,0.248,4.207,0.9c1.299,0.65,2.421,1.646,3.225,2.854c0.809,1.206,1.297,2.623,1.41,4.072
			c0.114,1.451-0.165,2.929-0.786,4.24c-0.617,1.315-1.582,2.467-2.771,3.301c-1.184,0.841-2.586,1.366-4.03,1.515
			c-1.443,0.152-2.924-0.085-4.25-0.664c-1.328-0.581-2.498-1.515-3.361-2.675l0.871,0.045c-0.854,0.917-2.076,1.469-3.323,1.509
			l0.309-0.109c-0.882,0.655-1.935,1.078-3.024,1.207c-1.089,0.131-2.219-0.035-3.21-0.469c-1.012-0.438-1.891-1.14-2.538-2.018
			c-0.646-0.877-1.057-1.92-1.18-2.998l0.825,0.223c-0.622,0.813-1.511,1.41-2.493,1.682c-0.979,0.277-2.046,0.223-2.988-0.152
			c-0.94-0.365-1.758-1.051-2.28-1.911c-0.526-0.857-0.764-1.886-0.667-2.884l0.25,0.374c-3.5-1.139-6.958-2.392-10.374-3.752
			c-3.414-1.364-6.785-2.834-10.09-4.438c-1.654-0.803-3.291-1.639-4.904-2.518c-1.614-0.877-3.21-1.787-4.768-2.764
			c-1.557-0.976-3.078-2.008-4.521-3.147c-0.719-0.569-1.417-1.17-2.074-1.814c-0.651-0.644-1.273-1.333-1.755-2.119l0.022,0.01
			c-0.911,0.166-1.887-0.121-2.563-0.75c-0.683-0.623-1.048-1.569-0.96-2.487c0.08-0.918,0.604-1.785,1.386-2.271
			c0.774-0.5,1.778-0.605,2.641-0.286C53.216,10.798,53.274,10.824,53.334,10.85z"/>
		<path opacity="0.25" fill="#302F2F" d="M28.806,108.458c-1.052-0.669-2.085-1.368-3.104-2.079
			c-1.018-0.717-2.008-1.465-2.969-2.248c-0.955-0.785-1.873-1.618-2.684-2.53c-0.406-0.454-0.782-0.933-1.09-1.439
			c-0.302-0.502-0.544-1.048-0.583-1.572l-0.084-1.132l-0.626,0.958l-0.005,0.008l0.655,0.414c1.588-2.431,3.095-4.911,4.564-7.413
			c1.459-2.511,2.857-5.056,4.21-7.624c1.341-2.575,2.626-5.18,3.865-7.803c1.239-2.628,2.405-5.284,3.538-7.958
			c2.257-5.346,4.298-10.783,6.15-16.279c1.839-5.501,3.504-11.057,4.936-16.672c-1.845,5.493-3.727,10.967-5.75,16.384
			c-2.01,5.424-4.151,10.793-6.436,16.101c-1.137,2.653-2.332,5.284-3.553,7.902c-1.218,2.617-2.485,5.213-3.799,7.784
			c-1.3,2.579-2.657,5.129-4.058,7.655c-1.386,2.534-2.845,5.028-4.324,7.512l0.653,0.413l0.004-0.005l-0.711-0.173
			c0.084,0.722,0.406,1.33,0.761,1.876c0.36,0.547,0.778,1.035,1.217,1.494c0.887,0.913,1.866,1.707,2.87,2.459
			c1.005,0.751,2.048,1.438,3.109,2.098C26.623,107.249,27.711,107.861,28.806,108.458z"/>
		<path opacity="0.25" fill="#302F2F" d="M113.458,59.765c-2.463,5.208-4.705,10.521-6.783,15.899
			c-2.064,5.383-3.949,10.839-5.629,16.357c-0.834,2.762-1.632,5.534-2.37,8.323c-0.733,2.792-1.419,5.594-2.055,8.408
			c-0.624,2.816-1.195,5.645-1.716,8.481c-0.504,2.842-0.969,5.688-1.357,8.547l0.785,0.111l-0.002,0.016l-0.72-0.296
			c-0.278,0.438-0.792,0.759-1.343,0.983c-0.558,0.228-1.166,0.372-1.781,0.478c-1.236,0.205-2.509,0.269-3.781,0.264
			c-1.274-0.008-2.55-0.074-3.826-0.179c-1.275-0.109-2.55-0.243-3.821-0.409c1.257,0.254,2.521,0.489,3.793,0.667
			c1.271,0.18,2.55,0.323,3.841,0.388c1.289,0.065,2.588,0.077,3.891-0.09c0.65-0.087,1.303-0.214,1.943-0.446
			c0.631-0.234,1.291-0.575,1.743-1.211l-0.719-0.295l-0.005,0.028l0.786,0.113c0.493-2.832,1.014-5.657,1.598-8.472
			c0.565-2.813,1.185-5.621,1.848-8.415c0.648-2.796,1.346-5.582,2.089-8.355c0.737-2.776,1.506-5.544,2.323-8.295
			c1.626-5.51,3.396-10.979,5.291-16.408C109.361,70.526,111.386,65.14,113.458,59.765z"/>
		<path opacity="0.2" fill="#231F20" d="M45.58,35.088c2.336,1.949,4.89,3.632,7.495,5.213c2.614,1.567,5.3,3.02,8.03,4.371
			c2.724,1.365,5.507,2.612,8.308,3.813c2.807,1.187,5.646,2.291,8.507,3.346c2.864,1.029,5.753,2.008,8.666,2.901
			c2.917,0.879,5.851,1.713,8.816,2.416c2.961,0.718,5.952,1.329,8.962,1.808c3.01,0.457,6.05,0.808,9.094,0.809
			c-3.029-0.275-6.02-0.786-8.984-1.407c-2.968-0.615-5.908-1.352-8.831-2.146c-2.918-0.809-5.827-1.658-8.708-2.597
			c-2.884-0.924-5.751-1.903-8.596-2.948c-2.849-1.023-5.675-2.118-8.479-3.262c-2.812-1.133-5.584-2.347-8.342-3.602
			c-2.75-1.271-5.475-2.595-8.145-4.027C50.699,38.349,48.079,36.819,45.58,35.088z"/>
		<path opacity="0.8" fill="#F2F2F2" d="M49.849,34.113c0.274-0.754,0.139-1.629-0.429-2.273c-0.563-0.644-1.416-0.89-2.198-0.717
			l-2.491,0.557l-4.641-1.689c-1.215-0.442-2.589-0.483-3.905-0.014c-1.314,0.468-2.355,1.364-3.019,2.477L6.992,76.25
			c-1.008,1.687-1.459,3.723-1.134,5.816c0.323,2.097,1.369,3.9,2.842,5.205l13.526,11.981l-0.511,1.402l3.679-5.873
			c0.483-0.773,0.743-1.697,0.691-2.674c-0.052-0.98-0.408-1.871-0.971-2.587l-5.507-7.01c-1.295-1.652-2.145-3.684-2.336-5.931
			c-0.192-2.245,0.301-4.392,1.299-6.237l15.835-29.299c0.64-1.182,1.646-2.181,2.955-2.799c1.31-0.619,2.72-0.763,4.039-0.505
			l5.629,1.097l0.625,1.316L49.849,34.113z"/>
		<path opacity="0.05" fill="#231F20" d="M5.857,82.066c0.323,2.097,1.369,3.9,2.842,5.205l13.526,11.981l-0.511,1.402l3.679-5.873
			c0.483-0.773,0.743-1.697,0.691-2.674c-0.052-0.98-0.408-1.871-0.971-2.587l-5.507-7.01c-1.295-1.652-2.145-3.684-2.336-5.931
			c-0.192-2.245,0.301-4.392,1.299-6.237l15.835-29.299c0.64-1.182,1.646-2.181,2.955-2.799c1.31-0.619,2.72-0.763,4.039-0.505
			l5.629,1.097l0.625,1.316l2.199-6.041c0.274-0.754,0.139-1.629-0.429-2.273c-0.26-0.295-0.58-0.508-0.927-0.634
			c-0.405-0.147-0.849-0.177-1.271-0.083l-2.491,0.557l-4.641-1.689c-1.215-0.442-2.589-0.483-3.905-0.014
			c-1.314,0.468-2.355,1.364-3.019,2.477L6.992,76.25C5.983,77.937,5.533,79.973,5.857,82.066z M8.269,77.011L34.44,33.214
			c0.518-0.865,1.292-1.501,2.244-1.839c0.951-0.338,1.952-0.334,2.899,0.011l4.641,1.688l0.41,0.149l0.422-0.095l2.492-0.556
			c0.146-0.034,0.298-0.023,0.439,0.027c0.123,0.045,0.23,0.119,0.318,0.22c0.19,0.215,0.247,0.517,0.149,0.785l-1.358,3.732
			l-5.415-1.055c-1.688-0.33-3.401-0.114-4.958,0.619c-1.555,0.735-2.809,1.923-3.625,3.437L17.263,69.637
			c-1.174,2.17-1.683,4.616-1.474,7.071c0.209,2.456,1.127,4.78,2.65,6.721l5.507,7.011c0.395,0.503,0.622,1.107,0.656,1.747
			c0.035,0.639-0.127,1.264-0.467,1.807l-2.002,3.193L9.683,86.159c-1.262-1.118-2.1-2.652-2.356-4.318
			C7.067,80.174,7.402,78.458,8.269,77.011z"/>
		<path opacity="0.2" fill="#231F20" d="M25.394,94.782c0.459-0.632,0.752-1.398,0.837-2.197c0.083-0.8-0.043-1.635-0.375-2.391
			c-0.084-0.188-0.178-0.373-0.286-0.552c-0.105-0.178-0.23-0.35-0.341-0.504l-0.682-0.948l-1.366-1.898l-2.76-3.775
			c-0.233-0.319-0.457-0.618-0.65-0.922c-0.202-0.308-0.387-0.624-0.555-0.947c-0.334-0.649-0.599-1.329-0.79-2.03
			c-0.189-0.698-0.307-1.425-0.344-2.135c-0.04-0.731-0.014-1.448,0.089-2.162c0.102-0.71,0.28-1.408,0.53-2.081
			c0.125-0.336,0.268-0.665,0.425-0.986c0.079-0.16,0.163-0.318,0.25-0.474l0.286-0.509c1.521-2.722,3.012-5.456,4.498-8.193
			c2.967-5.479,5.886-10.984,8.724-16.535l2.12-4.165c0.317-0.624,0.732-1.201,1.249-1.684c0.513-0.484,1.121-0.877,1.781-1.156
			c0.66-0.275,1.372-0.439,2.097-0.477c0.363-0.019,0.73-0.001,1.095,0.045l1.149,0.172c1.543,0.225,3.087,0.447,4.635,0.651
			l-0.068-0.052l0.71,1.277l-0.54-1.356l-0.016-0.039l-0.051-0.014c-1.51-0.392-3.025-0.765-4.539-1.136l-1.144-0.271
			c-0.405-0.089-0.817-0.142-1.233-0.159c-0.831-0.032-1.675,0.088-2.473,0.364c-1.593,0.541-3.006,1.684-3.857,3.182l-2.321,4.058
			c-3.092,5.412-6.096,10.871-9.054,16.354c-1.477,2.743-2.95,5.49-4.391,8.252l-0.271,0.519c-0.097,0.186-0.19,0.374-0.277,0.565
			c-0.175,0.383-0.332,0.774-0.466,1.174c-0.268,0.798-0.453,1.622-0.55,2.456c-0.093,0.831-0.105,1.682-0.017,2.502
			c0.089,0.841,0.261,1.655,0.519,2.449c0.257,0.793,0.597,1.557,1.014,2.271c0.207,0.359,0.432,0.707,0.676,1.039
			c0.248,0.338,0.517,0.646,0.763,0.938l3.011,3.576l1.523,1.776l0.759,0.888c0.131,0.151,0.249,0.286,0.359,0.432
			c0.109,0.146,0.208,0.299,0.3,0.459C26.107,91.708,26.142,93.404,25.394,94.782z"/>
		<path opacity="0.05" fill="#F5B11A" d="M20.605,94.933c0.512-0.675,0.863-1.5,1.004-2.36c0.139-0.859,0.07-1.763-0.211-2.579
			c-0.072-0.205-0.154-0.404-0.249-0.597c-0.094-0.194-0.208-0.379-0.309-0.546l-0.623-1.032l-1.244-2.061l-2.522-4.096
			c-0.212-0.349-0.419-0.67-0.593-1.003c-0.181-0.332-0.346-0.673-0.492-1.025c-0.292-0.701-0.512-1.438-0.654-2.196
			c-0.142-0.754-0.208-1.536-0.196-2.306c0.013-0.788,0.089-1.56,0.243-2.327c0.155-0.766,0.385-1.517,0.684-2.237
			c0.149-0.361,0.317-0.715,0.5-1.059c0.09-0.173,0.187-0.343,0.286-0.51l0.325-0.546c1.73-2.916,3.431-5.85,5.129-8.785
			c3.389-5.875,6.73-11.777,9.991-17.729l2.444-4.468c0.363-0.668,0.823-1.287,1.379-1.802c0.554-0.517,1.195-0.933,1.883-1.228
			c0.686-0.29,1.418-0.459,2.154-0.494c0.368-0.014,0.737,0.008,1.102,0.063l1.151,0.196c1.544,0.259,3.088,0.514,4.637,0.75
			L46.363,34.9l0.625,1.384l-0.448-1.469l-0.014-0.041l-0.051-0.016c-1.499-0.438-3.003-0.855-4.509-1.271l-1.135-0.304
			c-0.403-0.1-0.815-0.163-1.235-0.185c-0.837-0.044-1.7,0.077-2.526,0.367c-1.648,0.565-3.157,1.785-4.126,3.389l-2.635,4.349
			c-3.507,5.803-6.935,11.654-10.315,17.534c-1.688,2.942-3.372,5.886-5.023,8.848l-0.312,0.555
			c-0.112,0.201-0.219,0.404-0.322,0.608c-0.204,0.412-0.389,0.834-0.554,1.261c-0.329,0.857-0.573,1.743-0.73,2.642
			c-0.153,0.896-0.228,1.812-0.194,2.698c0.028,0.906,0.145,1.785,0.349,2.644c0.203,0.858,0.495,1.684,0.864,2.46
			c0.183,0.388,0.388,0.765,0.608,1.126c0.227,0.366,0.476,0.7,0.702,1.02l2.792,3.887l1.411,1.929l0.708,0.964
			c0.119,0.166,0.231,0.312,0.331,0.47c0.099,0.157,0.191,0.325,0.271,0.499C21.548,91.628,21.461,93.456,20.605,94.933z"/>
		<path fill="#FFFFFF" d="M44.329,34.082c-0.673-0.472-1.386-0.862-2.143-1.188c-0.758-0.323-1.573-0.572-2.456-0.661
			c-0.875-0.091-1.836,0.017-2.708,0.376c-0.437,0.176-0.844,0.414-1.218,0.68c-0.372,0.269-0.708,0.572-1.014,0.89
			c-0.305,0.321-0.578,0.66-0.832,1.006c-0.125,0.174-0.242,0.351-0.356,0.529l-0.171,0.271c-0.052,0.083-0.101,0.168-0.155,0.266
			c-0.419,0.738-0.758,1.496-1.032,2.273c-0.539,1.554-0.856,3.126-1.008,4.754c0.934-1.349,1.646-2.779,2.425-4.106
			c0.387-0.663,0.782-1.313,1.204-1.919l0.322-0.457c0.111-0.149,0.22-0.297,0.335-0.438c0.223-0.287,0.454-0.562,0.699-0.812
			c0.479-0.512,1.001-0.932,1.573-1.228c0.572-0.298,1.21-0.47,1.915-0.533c0.705-0.066,1.46-0.026,2.235,0.046
			C42.719,33.899,43.508,34.014,44.329,34.082z"/>
		<path fill="#FFFFFF" d="M14.433,87.995c-1.38-1.267-2.614-2.579-3.429-4.063c-0.824-1.473-1.167-3.079-1.004-4.695l0.031-0.294
			l0.023-0.164l0.024-0.144c0.032-0.2,0.074-0.404,0.125-0.608c0.087-0.411,0.207-0.824,0.335-1.236
			c0.256-0.827,0.572-1.648,0.92-2.46c0.35-0.811,0.739-1.608,1.182-2.382c0.447-0.774,0.938-1.521,1.585-2.2
			c-0.445,0.155-0.863,0.398-1.254,0.675c-0.395,0.274-0.756,0.592-1.099,0.929c-0.681,0.676-1.269,1.439-1.788,2.244
			c-0.516,0.806-0.954,1.662-1.314,2.562c-0.181,0.453-0.333,0.916-0.466,1.395c-0.064,0.241-0.117,0.486-0.165,0.738l-0.035,0.193
			l-0.028,0.177c-0.018,0.144-0.034,0.258-0.046,0.388c-0.044,0.512-0.05,1.028-0.005,1.541c0.054,0.514,0.144,1.026,0.294,1.519
			c0.291,0.989,0.78,1.906,1.396,2.689C10.96,86.367,12.645,87.437,14.433,87.995z"/>
		<path opacity="0.22" fill="#231F20" d="M47.025,38.838c0.048,0.245,0.106,0.487,0.17,0.726c0.057,0.242,0.133,0.474,0.201,0.712
			l0.17,0.607l0.346-0.633c0.456-0.834,0.858-1.688,1.23-2.553c0.368-0.866,0.705-1.745,1.01-2.634l0.225-0.669l0.029-0.094
			l0.028-0.091c0.022-0.083,0.038-0.149,0.053-0.224c0.029-0.144,0.047-0.291,0.05-0.438c0.018-0.586-0.16-1.169-0.498-1.628
			c-0.331-0.456-0.812-0.787-1.327-0.924c-0.515-0.14-1.057-0.092-1.49,0.127c0.975,0.018,1.738,0.575,2.045,1.271
			c0.154,0.346,0.206,0.719,0.15,1.072c-0.013,0.086-0.031,0.173-0.056,0.257c-0.012,0.042-0.028,0.087-0.04,0.118l-0.061,0.147
			l-0.26,0.656c-0.336,0.878-0.643,1.768-0.917,2.668c-0.273,0.901-0.515,1.813-0.7,2.746l0.517-0.023
			c-0.14-0.201-0.273-0.408-0.423-0.606C47.334,39.228,47.186,39.03,47.025,38.838z"/>
		<path opacity="0.22" fill="#231F20" d="M22.226,99.253c-0.14,0.215-0.27,0.433-0.395,0.651c-0.128,0.217-0.244,0.438-0.364,0.66
			l0.472,0.23c0.685-0.803,1.31-1.646,1.914-2.5c0.6-0.857,1.169-1.737,1.711-2.629c0.138-0.229,0.263-0.439,0.404-0.686
			c0.146-0.265,0.261-0.534,0.355-0.812c0.182-0.559,0.262-1.147,0.223-1.724c-0.067-1.149-0.6-2.246-1.432-2.923
			c0.226,0.484,0.394,0.97,0.479,1.46c0.082,0.486,0.097,0.982,0.043,1.448c-0.055,0.468-0.18,0.92-0.368,1.339
			c-0.089,0.212-0.2,0.413-0.318,0.6l-0.425,0.647c-0.568,0.877-1.109,1.771-1.618,2.685c-0.506,0.918-0.991,1.849-1.417,2.815
			l0.474,0.23c0.051-0.248,0.104-0.492,0.145-0.741C22.154,99.757,22.192,99.507,22.226,99.253z"/>
	</g>
</g>
</svg>
