<svg xmlns="http://www.w3.org/2000/svg" width="500" height="500" viewBox="0 0 500 500"><path d="M249.549 15c-129.54 0-234.549 105.009-234.549 234.549s105.009 234.545 234.549 234.545c129.537 0 234.545-105.005 234.545-234.545s-105.008-234.549-234.545-234.549zm0 430.576c-108.091 0-196.027-87.939-196.027-196.027s87.936-196.027 196.027-196.027c108.087 0 196.023 87.939 196.023 196.027s-87.935 196.027-196.023 196.027zM394.462 203.737l-.103-.542c-.062-.351-.126-.702-.218-1.045l-.194-.603c-.1-.305-.198-.61-.32-.908-.085-.206-.184-.412-.278-.61-.131-.282-.268-.557-.424-.824l-.354-.58c-.168-.26-.34-.512-.527-.756-.137-.183-.281-.366-.427-.542-.198-.229-.404-.458-.622-.671-.163-.167-.324-.335-.496-.488-.229-.206-.465-.404-.705-.595l-.564-.427-.206-.153-132.563-88.373c-4.188-2.792-9.639-2.792-13.827 0l-132.562 88.374-.206.153c-.195.137-.378.282-.561.427-.244.19-.481.389-.706.595-.175.153-.335.321-.5.488-.217.214-.423.443-.618.671-.148.176-.293.359-.431.542-.183.244-.359.496-.522.756-.126.19-.244.381-.358.58-.153.267-.29.542-.424.824-.095.198-.194.404-.278.61-.122.297-.221.603-.32.908l-.195.603c-.091.343-.152.694-.217 1.045l-.099.542c-.073.534-.114 1.076-.114 1.625v88.374c0 .549.042 1.091.114 1.633l.099.533c.065.352.126.702.217 1.046l.195.603c.099.305.198.61.32.915.084.207.183.405.278.604.134.281.271.556.424.831l.358.572c.164.26.339.512.522.756.138.19.283.366.431.541.195.229.401.458.618.672.165.167.325.335.5.487.225.207.461.405.706.596.183.146.366.29.561.427l.206.152 132.562 88.375c2.094 1.396 4.505 2.098 6.916 2.098 2.407 0 4.817-.702 6.912-2.098l132.562-88.375.206-.152c.194-.137.378-.281.564-.427.24-.19.477-.389.705-.596.172-.152.333-.32.496-.487.218-.214.424-.443.622-.672.146-.175.29-.351.427-.541.188-.244.359-.496.527-.756l.354-.572c.156-.275.293-.55.424-.831.095-.198.193-.396.278-.604.122-.305.221-.61.32-.915.064-.198.141-.396.194-.603.092-.344.156-.694.218-1.046l.103-.533c.068-.542.111-1.084.111-1.633v-88.374c0-.55-.043-1.092-.111-1.626zm-132.45-63.458l97.654 65.098-43.619 29.181-54.035-36.146v-58.133zm-24.929 0v58.133l-54.032 36.146-43.623-29.181 97.655-65.098zm-107.633 88.413l31.184 20.857-31.184 20.858v-41.715zm107.633 130.127l-97.655-65.099 43.623-29.173 54.032 36.139v58.133zm12.466-79.784l-44.084-29.486 44.084-29.486 44.081 29.486-44.081 29.486zm12.463 79.784v-58.133l54.035-36.139 43.619 29.173-97.654 65.099zm107.633-88.412l-31.18-20.858 31.18-20.857v41.715z"/></svg>