<svg xmlns="http://www.w3.org/2000/svg" xmlns:xlink="http://www.w3.org/1999/xlink" width="720" height="720" viewBox="0 0 720 720"><path fill="#B52126" d="M423.417 379.595s33.511 49.135 31.276 48.393c-2.235-.743-29.036 21.595-29.036 21.595l-14.159-25.316 11.919-44.672z"/><path fill="#231F20" d="M318.819 561.699l91.843-4.309-3.264 130.076-7.883-.72 1.965-81.934-70.849-5.746-1.972 87.68h-9.832z"/><path opacity=".17" fill="#9B9A91" d="M534.741 702.703c0 7.466-76.513 13.504-170.908 13.504-94.383 0-170.892-6.038-170.892-13.504 0-7.443 76.509-13.485 170.892-13.485 94.396 0 170.908 6.042 170.908 13.485z"/><path fill="#231F20" d="M405.833 688.284s6.781 10.777 23.18 10.777l.44 3.359s-20.992 1.672-27.329-8.399l.422 7.677-6.981-.725 2.183-13.888 8.085 1.199zm-87.414-.185s-6.786 10.778-23.185 10.778l-.44 3.362s20.993 1.676 27.332-8.394l-.43 7.675 6.993-.736-2.184-13.87-8.086 1.185z"/><path fill="#B52126" d="M424.166 371.41l-126.022 18.142 11.301 179.909 48.859-2.817 6.612-23.561 6.625 29.001 34.716-5.44zm-126.022 18.142l-51.839 59.855 29.679 9.112 42.959-20.392z"/><image overflow="visible" opacity=".3" enable-background="new" width="2704" height="1154" xlink:href="C915DC7D1ABF1F1.png" transform="matrix(.24 0 0 .24 55.73 369.254)"/><path fill="#fff" d="M701.688 551.975l-613.64 86.76-25.518-180.486 613.64-86.76zm-17.105-13.319l-581.961 83.805-21.589-149.927 581.964-83.799z"/><path d="M171.822 473.009l3.125 23.922-19.159 2.503-1.259-9.634-16.344 2.136 2.461 18.834 20.566-2.688 1.881 14.396-20.566 2.688 1.796 13.746 11.041-1.442 1.881 14.396-40.266 5.261-1.881-14.396 6.711-.877-6.138-46.977-6.711.877-1.867-14.288 64.729-8.457zm14.215 75.095l-1.853-14.18 4.763-.622-3.38-25.871-4.654.608-1.838-14.071 20.349-2.658 4.152 6.503c2.136-5.562 4.37-10.369 15.519-11.825l2.545 19.483c-9.741 1.272-14.937 4.483-13.692 14.009l1.457 11.149 5.412-.708 1.853 14.18-30.633 4.003zm39.732-32.934c-2.253-18.089 11.044-30.065 25.981-32.018 17.13-2.018 31.139 6.611 33.825 24.645 2.564 17.94-9.406 29.962-25.858 32.111-15.48 2.023-31.662-5.552-33.948-24.738zm37.615-4.475c-1.061-8.117-4.695-14.027-9.796-13.471-4.222.552-6.648 7.254-5.616 15.155 1.16 8.876 5.387 14.268 9.934 13.674 4.654-.608 6.539-7.239 5.478-15.358zm29.594 23.437l-1.853-14.18 4.546-.594-3.38-25.87-4.546.594-1.838-14.071 23.056-3.012 3.366 6.386c3.015-5.568 7.528-9.791 14.347-10.682 16.777-2.192 21.218 9.888 22.703 21.254l2.362 18.076 5.087-.665 1.853 14.18-27.277 3.563-3.861-29.55c-.48-3.681-.99-10.108-7.376-9.274-5.52.722-6.112 6.304-5.504 10.958l2.008 15.37 7.793-1.019 1.853 14.18-33.339 4.356zm67.724-63.893l-1.301-9.958 19.082-8.989 2.136 16.345 10.283-1.344 1.839 14.071-10.283 1.344 2.517 19.268c.481 3.681.374 8.759 4.596 8.207 1.407-.185 4.635-1.597 6.578-2.732l1.811 13.855c-3.077 1.724-10.339 3.443-12.828 3.769-16.236 2.121-17.938-6.685-20.072-20.496l-2.517-19.268-5.846.764-1.838-14.071 5.843-.765zm71.058 12.184l1.881 14.396-31.391 4.102-1.881-14.396 31.391-4.102zm67.706-52.222l3.126 23.922-18.727 2.447-1.258-9.634-17.319 2.263 1.952 14.938 20.565-2.688 1.881 14.396-20.565 2.688 2.305 17.643 17.318-2.263-1.314-10.066 18.726-2.447 3.196 24.463-65.27 8.528-1.881-14.396 6.818-.892-6.137-46.977-6.819.892-1.867-14.288 65.27-8.529zm15.299 74.954l-1.853-14.18 4.546-.594-3.38-25.87-4.546.594-1.839-14.071 23.056-3.012 3.366 6.386c3.016-5.568 7.528-9.791 14.347-10.682 16.777-2.192 21.218 9.888 22.703 21.254l2.362 18.076 5.088-.665 1.852 14.18-27.276 3.563-3.86-29.55c-.481-3.681-.991-10.108-7.378-9.274-5.52.722-6.111 6.304-5.503 10.958l2.008 15.37 7.793-1.019 1.853 14.18-33.339 4.356zm93.412-80.459l-1.839-14.072 26.952-3.521 8.768 67.109 5.195-.679 1.839 14.072-25.328 3.309-2.363-3.764c-1.238 1.481-5.52 5.784-12.988 6.76-15.262 1.994-26.879-10.249-28.845-25.294-2.206-16.886 8.191-29.143 21.505-30.883 7.686-1.004 11.95 1.302 14.176 2.332l-2.093-16.02-4.979.651zm4.194 53.175c4.222-.552 7.426-6.364 5.875-14.858-.961-7.36-5.377-12.509-9.489-11.972-4.547.595-6.993 6.309-5.918 14.535.849 6.494 4.77 12.917 9.532 12.295z" fill="#B52126"/><path d="M132.156 568.502c.602.275 1.312.803 2.133 1.582l-1.236-9.43 3.015-.396 3.368 25.691-2.823.369-.341-2.596c-.578 1.246-1.332 2.189-2.26 2.831-.929.642-2.035 1.048-3.32 1.216-2.071.271-3.98-.368-5.726-1.918-1.746-1.55-2.809-3.777-3.189-6.682-.356-2.719.025-5.166 1.147-7.34s2.968-3.43 5.537-3.766c1.425-.186 2.656-.04 3.695.439zm-5.169 14.912c1.021 1.238 2.463 1.734 4.324 1.491 1.445-.189 2.551-.97 3.318-2.341.767-1.371.997-3.225.69-5.561-.31-2.358-1.018-4.041-2.126-5.049-1.108-1.007-2.367-1.418-3.778-1.232-1.572.205-2.767.977-3.586 2.313-.818 1.336-1.073 3.179-.766 5.524.264 2.002.905 3.619 1.924 4.855zm41.422-19.728c1.316.461 2.363 1.142 3.14 2.045.747.859 1.307 1.902 1.679 3.13.298.836.57 2.195.817 4.077l-13.577 1.779c.306 1.893.95 3.357 1.931 4.396.98 1.038 2.341 1.444 4.082 1.216 1.625-.213 2.851-.926 3.677-2.138.46-.701.748-1.48.865-2.34l3.085-.404c.009.696-.161 1.495-.51 2.398-.349.901-.771 1.657-1.265 2.267-.824 1.053-1.913 1.834-3.265 2.342-.726.285-1.561.489-2.507.612-2.309.303-4.377-.285-6.204-1.766s-2.939-3.743-3.339-6.787c-.393-2.998.097-5.537 1.469-7.621 1.37-2.082 3.361-3.294 5.972-3.637 1.316-.171 2.632-.028 3.95.431zm2.084 7.181c-.305-1.342-.741-2.39-1.309-3.143-1.051-1.398-2.572-1.967-4.565-1.706-1.429.188-2.56.864-3.391 2.03-.831 1.168-1.171 2.557-1.019 4.167l10.284-1.348zm24.849 1.796c.232 1.034.604 1.801 1.116 2.301.938.905 2.404 1.226 4.397.965 1.186-.155 2.195-.544 3.03-1.168.836-.623 1.184-1.464 1.045-2.521-.104-.803-.545-1.365-1.32-1.689-.494-.195-1.442-.373-2.844-.531l-2.615-.295c-1.67-.184-2.921-.469-3.752-.855-1.48-.669-2.319-1.753-2.516-3.252-.232-1.766.225-3.28 1.371-4.541 1.146-1.262 2.809-2.035 4.987-2.32 2.85-.374 5.013.182 6.488 1.667.927.942 1.457 2.02 1.593 3.23l-2.963.389c-.152-.697-.492-1.305-1.021-1.823-.845-.724-2.177-.967-3.997-.728-1.213.159-2.103.505-2.668 1.038-.564.533-.799 1.17-.701 1.912.105.811.602 1.404 1.485 1.783.512.228 1.243.391 2.196.49l2.179.229c2.368.245 3.978.572 4.825.98 1.325.643 2.101 1.823 2.326 3.543.218 1.661-.232 3.18-1.351 4.556-1.117 1.376-2.982 2.234-5.595 2.577-2.811.368-4.885 0-6.221-1.107-1.335-1.107-2.166-2.585-2.492-4.434l3.018-.396zm28.528-23.826l3.189-.419.467 3.557-3.189.418-.467-3.556zm.921 7.023l3.189-.419 2.436 18.58-3.189.418-2.436-18.579zm33.529-3.722c.644.33 1.323.844 2.039 1.542l-.309-2.354 2.893-.379 2.226 16.977c.312 2.369.209 4.286-.307 5.748-.965 2.703-3.248 4.29-6.85 4.763-2.003.263-3.747.033-5.231-.688s-2.434-2.029-2.848-3.926l3.189-.418c.26.817.645 1.422 1.155 1.816.796.605 1.951.809 3.465.609 2.393-.313 3.847-1.366 4.364-3.16.308-1.057.276-2.867-.095-5.431-.5 1.035-1.16 1.843-1.979 2.423s-1.951.965-3.397 1.154c-2.015.265-3.87-.223-5.569-1.459-1.698-1.237-2.765-3.512-3.199-6.822-.409-3.127.032-5.667 1.323-7.62 1.292-1.954 3.015-3.072 5.167-3.354 1.46-.192 2.781.002 3.963.579zm.826 3.314c-1.095-.991-2.376-1.391-3.844-1.198-2.197.288-3.564 1.52-4.102 3.693-.283 1.16-.308 2.635-.073 4.424.276 2.104.911 3.648 1.904 4.635.994.986 2.207 1.386 3.641 1.198 2.242-.294 3.687-1.518 4.334-3.671.358-1.217.437-2.593.235-4.126-.303-2.312-1.002-3.964-2.095-4.955zm23.685-7.29l2.98-.391.347 2.65c.74-1.209 1.572-2.116 2.498-2.722.925-.605 1.991-.987 3.2-1.146 2.649-.348 4.56.342 5.731 2.066.644.944 1.089 2.357 1.336 4.239l1.569 11.974-3.189.418-1.542-11.764c-.149-1.139-.438-2.035-.866-2.688-.711-1.089-1.798-1.537-3.262-1.346-.743.098-1.344.253-1.8.467-.826.368-1.515.979-2.065 1.83-.441.685-.698 1.366-.77 2.043-.07.677-.025 1.625.134 2.846l1.282 9.777-3.138.41-2.445-18.663zm72.499-8.494c1.453.85 2.477 2.506 3.071 4.97l-3.05.399c-.337-1.126-.886-2.026-1.648-2.7-.762-.674-1.875-.915-3.339-.724-1.998.262-3.3 1.426-3.904 3.487-.392 1.337-.466 2.936-.223 4.792.245 1.868.847 3.389 1.804 4.562.958 1.173 2.284 1.647 3.98 1.425 1.302-.171 2.281-.701 2.938-1.594s1.041-2.047 1.15-3.463l3.05-.399c-.024 2.521-.658 4.445-1.902 5.771-1.244 1.328-2.952 2.134-5.126 2.419-2.439.319-4.503-.316-6.189-1.91-1.687-1.593-2.704-3.726-3.055-6.397-.43-3.277.032-5.932 1.385-7.965s3.261-3.211 5.725-3.534c2.103-.275 3.881.011 5.333.861zm34.29-3.61c1.859 1.386 2.994 3.634 3.401 6.745.395 3.007-.007 5.588-1.203 7.738-1.196 2.153-3.324 3.43-6.382 3.831-2.55.335-4.688-.269-6.416-1.808-1.728-1.538-2.783-3.771-3.166-6.695-.411-3.135.052-5.734 1.389-7.801 1.338-2.063 3.339-3.271 6.004-3.62 2.389-.312 4.513.224 6.373 1.61zm-.322 12.661c.559-1.673.711-3.473.459-5.398-.229-1.741-.69-3.12-1.385-4.14-1.098-1.604-2.716-2.265-4.853-1.984-1.896.249-3.18 1.159-3.849 2.735-.67 1.576-.87 3.396-.599 5.462.26 1.984.907 3.581 1.942 4.792 1.035 1.209 2.489 1.691 4.362 1.445 2.058-.27 3.365-1.24 3.923-2.912zm21.539-17.338l2.98-.391.348 2.649c.74-1.209 1.572-2.115 2.497-2.722.926-.605 1.992-.987 3.2-1.146 2.649-.348 4.56.342 5.731 2.066.644.944 1.09 2.357 1.337 4.239l1.569 11.974-3.189.419-1.542-11.764c-.149-1.139-.438-2.035-.867-2.688-.71-1.089-1.797-1.537-3.261-1.345-.744.097-1.345.252-1.801.466-.826.368-1.515.979-2.064 1.83-.442.685-.699 1.366-.77 2.043-.071.677-.026 1.626.134 2.846l1.281 9.777-3.137.411-2.446-18.664zm35.703-10.479c.592-1.165 1.934-1.884 4.025-2.158l.612-.062.722-.042.374 2.858-.719.051-.416.045c-.963.127-1.507.449-1.63.967-.123.52-.053 1.789.213 3.811l3.137-.411.324 2.476-3.137.411 2.111 16.104-3.103.407-2.111-16.104-2.597.34-.324-2.475 2.597-.341-.384-2.928c-.123-1.308-.021-2.29.306-2.949zm35.934 1.61c1.316.46 2.363 1.142 3.14 2.044.746.859 1.306 1.903 1.679 3.13.297.837.569 2.195.816 4.078l-13.578 1.779c.308 1.892.951 3.357 1.932 4.396.981 1.039 2.341 1.444 4.082 1.216 1.626-.213 2.851-.926 3.677-2.138.46-.7.749-1.48.865-2.339l3.085-.404c.009.695-.161 1.494-.51 2.397-.349.902-.771 1.657-1.265 2.267-.824 1.053-1.913 1.834-3.266 2.343-.725.284-1.56.488-2.506.612-2.31.303-4.377-.286-6.204-1.766-1.826-1.48-2.939-3.744-3.339-6.787-.393-2.998.097-5.538 1.469-7.621 1.371-2.083 3.361-3.295 5.972-3.637 1.316-.173 2.632-.029 3.951.43zm2.083 7.181c-.305-1.343-.741-2.39-1.309-3.143-1.051-1.399-2.573-1.968-4.565-1.707-1.429.188-2.559.864-3.391 2.031-.831 1.167-1.171 2.556-1.019 4.166l10.284-1.347zm21.391-10.781l2.98-.392.423 3.225c.162-.659.659-1.502 1.495-2.527.834-1.024 1.873-1.619 3.116-1.782l.299-.022.724-.022.435 3.311c-.19-.011-.365-.012-.523-.002l-.517.051c-1.58.207-2.728.873-3.442 2.002-.715 1.127-.986 2.354-.812 3.679l1.407 10.735-3.137.412-2.448-18.668zm38.531-4.529c1.318.46 2.363 1.141 3.141 2.043.746.86 1.306 1.903 1.679 3.131.297.836.569 2.195.815 4.077l-13.576 1.78c.307 1.892.95 3.357 1.93 4.396.981 1.038 2.342 1.444 4.083 1.216 1.625-.213 2.851-.926 3.677-2.138.46-.701.749-1.481.866-2.34l3.085-.404c.008.696-.162 1.495-.511 2.398-.349.901-.771 1.657-1.265 2.267-.824 1.053-1.912 1.834-3.266 2.342-.726.285-1.56.489-2.506.613-2.31.303-4.378-.287-6.204-1.767s-2.938-3.743-3.338-6.786c-.394-2.998.097-5.538 1.468-7.621 1.37-2.083 3.362-3.295 5.972-3.637 1.317-.173 2.632-.029 3.95.43zm2.084 7.181c-.305-1.343-.742-2.391-1.309-3.144-1.051-1.398-2.573-1.967-4.565-1.706-1.429.188-2.559.864-3.391 2.031-.831 1.167-1.171 2.556-1.018 4.166l10.283-1.347zm21.306-10.771l2.98-.391.348 2.65c.739-1.209 1.572-2.115 2.497-2.722.926-.605 1.992-.987 3.2-1.146 2.649-.348 4.561.342 5.731 2.066.645.945 1.09 2.357 1.336 4.239l1.57 11.974-3.189.418-1.543-11.764c-.148-1.139-.438-2.034-.866-2.688-.71-1.089-1.797-1.537-3.261-1.346-.744.098-1.345.253-1.801.467-.826.368-1.515.979-2.065 1.83-.441.685-.698 1.366-.77 2.043-.069.677-.026 1.625.134 2.846l1.282 9.777-3.137.41-2.446-18.663zm47.447-5.209c1.453.85 2.477 2.506 3.071 4.969l-3.051.4c-.336-1.127-.885-2.027-1.647-2.701s-1.875-.915-3.34-.723c-1.998.262-3.3 1.424-3.903 3.486-.392 1.338-.467 2.936-.224 4.793.245 1.867.847 3.389 1.805 4.562.957 1.172 2.284 1.646 3.98 1.424 1.302-.17 2.281-.701 2.938-1.594.658-.893 1.041-2.047 1.15-3.463l3.051-.399c-.024 2.521-.659 4.445-1.902 5.772-1.244 1.327-2.954 2.133-5.126 2.418-2.439.32-4.503-.316-6.189-1.91-1.687-1.593-2.704-3.727-3.055-6.398-.43-3.277.032-5.931 1.385-7.964 1.353-2.032 3.26-3.211 5.723-3.534 2.103-.275 3.881.012 5.334.862zm32.119-4.699c1.316.461 2.363 1.142 3.14 2.044.746.86 1.307 1.903 1.679 3.131.297.836.57 2.194.816 4.077l-13.576 1.779c.306 1.893.949 3.357 1.93 4.396.981 1.038 2.341 1.443 4.082 1.216 1.626-.214 2.851-.927 3.678-2.138.459-.701.748-1.481.865-2.34l3.085-.404c.009.695-.162 1.495-.511 2.398-.348.901-.771 1.657-1.265 2.266-.823 1.053-1.912 1.835-3.266 2.343-.725.285-1.56.489-2.506.612-2.309.303-4.377-.286-6.204-1.766-1.826-1.48-2.938-3.743-3.338-6.787-.393-2.998.097-5.537 1.469-7.621 1.37-2.083 3.361-3.295 5.971-3.637 1.317-.171 2.632-.028 3.951.431zm2.084 7.181c-.306-1.342-.742-2.39-1.309-3.143-1.051-1.399-2.574-1.967-4.566-1.706-1.429.187-2.559.864-3.391 2.03-.831 1.168-1.171 2.556-1.018 4.167l10.284-1.348z" fill="#B5B5B6"/><path stroke="#BCBCBC" stroke-width=".379" d="M689.244 541.465l-587.15 82.995-21.53-152.353 587.153-82.985z" fill="none"/><path fill="#E9C09B" d="M460.82 602.364c-.7.582-1.787.521-2.417-.137l-7.496-7.834c-.63-.657-1.882-1.09-2.783-.961l-16.742 2.396c-.901.129-1.781-.497-1.956-1.39l-1.822-9.333c-.175-.894.428-1.633 1.338-1.644l18.185-.216c.91-.011 1.164-.579.563-1.263l-17.827-20.294c-.601-.684-.554-1.759.103-2.389l7.31-7.007c.657-.63 1.663-.567 2.237.14l17.033 21c.574.707.893.556.708-.336l-4.355-21.06c-.185-.892.37-1.861 1.231-2.154l7.001-2.383c.861-.293 1.738.191 1.949 1.077l7.015 29.515c.211.886.881 1.057 1.489.38l7.603-8.457c.608-.677 1.667-.739 2.352-.14l7.676 6.726c.685.6.673 1.567-.027 2.149l-28.368 23.615zm-192.336 27.66c.875.25 1.845-.246 2.155-1.102l3.694-10.202c.31-.855 1.28-1.757 2.157-2.004l16.28-4.578c.876-.247 1.428-1.175 1.227-2.062l-2.106-9.272c-.202-.888-1.051-1.321-1.888-.963l-16.718 7.158c-.837.358-1.298-.06-1.025-.928l8.095-25.775c.273-.868-.204-1.833-1.06-2.143l-9.514-3.447c-.856-.31-1.751.155-1.99 1.033l-7.096 26.096c-.239.878-.591.868-.783-.021l-4.531-21.032c-.192-.891-1.09-1.552-1.997-1.471l-7.363.659c-.907.081-1.513.88-1.348 1.774l5.516 29.83c.166.895-.378 1.321-1.208.948l-10.37-4.664c-.83-.373-1.823-.003-2.207.822l-4.3 9.257c-.383.825.019 1.705.894 1.955l35.486 10.132z"/><path fill="#E8BF9B" d="M448.077 186.662s11.01-26.823 34.09-10.94c28.781 19.822-15.88 40.863-15.88 40.863s-14.117 6.86-6.821 22.129c7.312 15.265 8.024 21.089 2.749 23.72-5.271 2.622-17.213-1.231-18.808-10.694-6.899-40.886 4.67-65.078 4.67-65.078z"/><path d="M449.355 215.102s16.82-53.981 21.172-13.217c0 0-6.729-22.259-21.172 13.217zm-.137.163s12.972-27.281 10.353 6.469c-.001-.001-.419-21.469-10.353-6.469z" fill="#D09D78"/><path fill="#E8BF9B" d="M449.737 226.123c-.697 8.174-.297 21.503.891 29.621l16.448 112.509c1.188 8.117-4.24 16.785-12.062 19.263l-99.364 31.469c-7.82 2.478-20.478 2.077-28.126-.888l-52.648-20.414c-7.648-2.965-15.49-11.914-17.426-19.886l-32.963-135.763c-1.936-7.972-2.814-21.169-1.953-29.328l11.93-112.981c.861-8.158 7.153-18.553 13.981-23.1l42.244-28.131c6.828-4.547 18.854-6.37 26.723-4.051l108.271 31.904c7.869 2.319 19.237 4.864 25.263 5.657 6.026.792 10.386 8.129 9.688 16.303l-10.897 127.816z"/><path fill="#D09F78" d="M341.431 272.532s25.792 20.43 67.426 0c0 0-33.715 53.097-67.426 0z"/><path fill="#CA8C84" d="M339.317 315.256s-11.829 45.242 8.384 59.809c0 0-35.807 8.738-39.933 6.075 0 0-5.673-2.6-6.334-18.17 0 0 1.096-50.557 6.344-65.567 0 0 23.83 18.404 31.539 17.853z"/><path fill="#6C302A" d="M329.028 378.562s-13.183-43.368-27.022-32.787c0 0-2.853 38.142 9.577 36.083l17.445-3.296z"/><path fill="#fff" d="M373.39 369.963l-4.851-17.155-64.715 23.364s1.65 7.251 9.693 6.298l59.873-12.507z"/><path fill="#A47F5F" d="M322.34 286.771s-24.096-6.727-27.594 22.156c0 0 5.387-20.128 27.594-22.156z"/><path fill="#fff" d="M409.807 315.686l4.284 16.785s-62.879 34.257-109.498-18.431l3.186-16.637c-.001 0 55.944 47.804 102.028 18.283z"/><path stroke="#A47F5F" stroke-width=".515" d="M372.1 382.157c15.49 1.582 5.501-13.229 5.501-13.229s-45.352 10.448-66.018 12.93c-20.695 2.472-3.804-84.456-3.804-84.456 61.461 43.201 96.445 28.121 115.442 5.97" fill="none"/><path fill="#CA8C84" d="M304.42 342.786l1.393 11.626-2.498.712.437 2.715 8.799-1.69-.956-3.901-3.173.188-.654-7.986z"/><path fill="#D09F78" d="M233.775 280.138s10.385-12.712 11.235-20.965c0 0 1.058 20.519-9.325 28.991l-1.91-8.026zm123.397-49.226s-44.539-62.49-80.254 7.159c-.001 0 49.587 59.378 80.254-7.159z"/><path fill="#fff" d="M357.172 230.912s-39.67-43.842-77.66 6.083c0 0 33.103 30.343 77.66-6.083z"/><defs><path id="a" d="M356.591 231.141s-48.282-53.367-94.525 7.405c0 0 40.299 36.936 94.525-7.405z"/></defs><clipPath id="b"><use xlink:href="#a" overflow="visible"/></clipPath><path clip-path="url(#b)" fill="#008BC1" d="M335.508 234.673c-2.019-7.489 2.12-15.268 9.248-17.392 7.112-2.116 14.507 2.242 16.518 9.729 2.013 7.493-2.126 15.275-9.245 17.394-7.118 2.117-14.516-2.243-16.521-9.731z"/><defs><path id="c" d="M356.591 231.141s-48.282-53.367-94.525 7.405c0 0 40.299 36.936 94.525-7.405z"/></defs><clipPath id="d"><use xlink:href="#c" overflow="visible"/></clipPath><path clip-path="url(#d)" fill="#231F20" d="M342.93 232.467c-.858-3.175.895-6.473 3.916-7.372 3.02-.898 6.154.952 7.007 4.125.849 3.177-.901 6.473-3.921 7.374-3.015.896-6.152-.95-7.002-4.127z"/><defs><path id="e" d="M356.591 231.141s-48.282-53.367-94.525 7.405c0 0 40.299 36.936 94.525-7.405z"/></defs><clipPath id="f"><use xlink:href="#e" overflow="visible"/></clipPath><path clip-path="url(#f)" fill="#fff" d="M339.665 228.521c-.47-1.741.493-3.551 2.153-4.047 1.651-.489 3.375.521 3.841 2.264.471 1.747-.495 3.555-2.15 4.05-1.655.492-3.376-.52-3.844-2.267z"/><path fill="#D09F78" d="M446.945 224.598s-37.645-52.824-67.837 6.054c0 0 41.919 50.189 67.837-6.054z"/><path fill="#fff" d="M446.945 224.598s-33.53-37.059-65.642 5.137c.001 0 27.986 25.65 65.642-5.137z"/><path fill="#3B2518" d="M264.392 210.276l-4.938-12.625s44.338-44.769 89.87-3.152l-1.76 1.891c-.001 0-52.618-23.318-83.172 13.886zm187-7.246l4.822-13.119s-42.423-35.006-78.716 5.52l.471 1.563c0 .001 43.65-23.631 73.423 6.036z"/><defs><path id="g" d="M448.408 225.232s-39.722-43.905-77.768 6.094c.001.001 33.153 30.384 77.768-6.094z"/></defs><clipPath id="h"><use xlink:href="#g" overflow="visible"/></clipPath><path clip-path="url(#h)" fill="#008BC0" d="M428.053 227.804c-1.665-6.159 1.736-12.559 7.603-14.309 5.851-1.741 11.934 1.849 13.593 8.007 1.654 6.166-1.749 12.566-7.608 14.307-5.856 1.743-11.941-1.841-13.588-8.005z"/><defs><path id="i" d="M448.408 225.232s-39.722-43.905-77.768 6.094c.001.001 33.153 30.384 77.768-6.094z"/></defs><clipPath id="j"><use xlink:href="#i" overflow="visible"/></clipPath><path clip-path="url(#j)" fill="#231F20" d="M440.194 225.99c-.702-2.611.74-5.325 3.23-6.062 2.48-.74 5.053.779 5.759 3.388.701 2.616-.74 5.33-3.226 6.07-2.479.737-5.059-.785-5.763-3.396z"/><defs><path id="k" d="M448.408 225.232s-39.722-43.905-77.768 6.094c.001.001 33.153 30.384 77.768-6.094z"/></defs><clipPath id="l"><use xlink:href="#k" overflow="visible"/></clipPath><path clip-path="url(#l)" fill="#fff" d="M437.508 222.744c-.387-1.431.411-2.922 1.773-3.327 1.359-.406 2.773.43 3.164 1.86.383 1.436-.408 2.927-1.771 3.332-1.364.407-2.778-.429-3.166-1.865z"/><path fill="#3B2518" d="M233.775 280.138l8.262-1.354 3.683-148.956 202.272-28.971 5.124 85.898s3.356-111.163 38.861-177.994c0 0-41.69 30.95-73.38 47.12l-25.017-55.073-15.361 28.297-21.567-17.707-16.839 18.719s-24.208-16.658-68.183-5.347c0 0 8.655 7.367 13.454 10.401 0 0-66.25 6.061-83.534 41.434 0 0 9.604-9.096 19.203-9.096 0 0-25.92 61.646-6.72 91.959 0 0 10.559 12.128 10.559 23.245l9.183 97.425z"/><path opacity=".55" fill="#D09F78" enable-background="new" d="M246.716 152.17l201.276-51.313-202.272 28.971.996 24.047"/><path fill="#E8BF9B" d="M227.229 183.083s-15.955-38.854-49.389-15.844c-41.692 28.714 23.006 59.195 23.006 59.195s20.453 9.934 9.883 32.055c-10.598 22.113-11.625 30.545-3.985 34.361 7.639 3.793 24.935-1.784 27.251-15.491 9.985-59.224-6.766-94.276-6.766-94.276z"/><path d="M225.368 224.281s-24.363-78.193-30.667-19.14c.001 0 9.749-32.25 30.667 19.14zm.205.236s-18.788-39.516-14.996 9.377c0 .001.599-31.1 14.996-9.377z" fill="#D09D78"/></svg>