<?xml version="1.0" encoding="utf-8"?>
<!-- Generator: Adobe Illustrator 16.0.0, SVG Export Plug-In . SVG Version: 6.00 Build 0)  -->
<!DOCTYPE svg PUBLIC "-//W3C//DTD SVG 1.1//EN" "http://www.w3.org/Graphics/SVG/1.1/DTD/svg11.dtd">
<svg version="1.1" id="Layer_1" xmlns="http://www.w3.org/2000/svg" xmlns:xlink="http://www.w3.org/1999/xlink" x="0px" y="0px"
	 width="294.063px" height="231.17px" viewBox="-26.581 -13.726 294.063 231.17"
	 enable-background="new -26.581 -13.726 294.063 231.17" xml:space="preserve">
<path fill="#231F20" d="M23.486,110.228c-5.676,0.567-12.35,0.311-13.883-0.072c-0.409-2.461,0.61-15.359,0.381-23.421
	c-0.117-4.125,0.373-7.916,0.293-9.493c-0.267-5.238,0.573-19.548,0.582-19.692c0.031-0.535-0.377-0.996-0.913-1.027
	c-0.531-0.026-0.997,0.377-1.028,0.914c-0.036,0.592-0.855,14.561-0.583,19.903c0.08,1.558-1.162,34.301-0.497,34.762
	c0.815,0.564,5.479,0.172,10.211,0.252c1.949,0.035,3.915-0.018,5.631-0.188c0.534-0.056,0.924-0.529,0.87-1.063
	C24.496,110.562,24.019,110.172,23.486,110.228"/>
<path fill="#231F20" d="M46.947,57.572c-4.659-0.698-12.959-0.758-14.371,0.012l-0.465,0.255l-0.039,0.526
	c-0.008,0.115,0.116,11.513-0.244,18.491c-0.119,2.289,0.207,4.695-0.026,7.34c-0.009,0.053-0.033,0.104-0.033,0.158
	c0,0.023,0.012,0.043,0.013,0.066c-0.065,0.75-0.003,1.819-0.008,2.543c-0.039,5.979-0.113,21.479-0.008,23.156
	c0.041,0.664,0.196,1.348,0.872,1.618c2.506,1.044,6.125,0.609,10.459,0.609c1.568,0,3.229-0.068,4.966-0.213
	c0.535-0.043,0.933-0.514,0.889-1.049c-0.045-0.535-0.511-0.936-1.048-0.889c-6.03,0.5-11.056,1.078-14.213-0.131
	c-0.13-2.213,0.231-19.312,0.019-22.93c-0.031-0.526-0.093-1.394-0.045-1.937c1.632-0.051,5.94,0.069,9.846,0.245
	c0.015,0.001,0.03,0.001,0.044,0.001c0.517,0,0.948-0.407,0.971-0.929c0.024-0.535-0.391-0.989-0.928-1.014
	c-5.509-0.248-8.301-0.296-9.763-0.24c0.198-2.311-0.169-4.308-0.066-6.308c0.307-5.933-0.005-15.082,0.188-17.716
	c1.854-0.107,7.823-0.479,12.701,0.253c0.528,0.081,1.026-0.285,1.105-0.817C47.843,58.147,47.479,57.652,46.947,57.572
	C42.288,56.874,47.479,57.652,46.947,57.572"/>
<path fill="#231F20" d="M68.428,56.877c-3.849-0.123-7.176,2.188-8.866,6.175c-2.057,4.854-1.877,12.677,3.871,17.858
	c9.172,8.267,8.727,18.274,8.207,19.892c-0.91,2.834-3.918,9.555-9.758,9.777c-5.461,0.229-6.492-6.875-6.533-7.178
	c-0.072-0.529-0.562-0.912-1.093-0.834c-0.531,0.072-0.905,0.559-0.834,1.092c0.41,3.104,2.656,8.867,8.223,8.867
	c0.102,0,0.205-0.002,0.31-0.006c6.924-0.263,11.112-9.119,11.626-11.599c0.94-4.538-0.953-13.914-8.804-21.418
	c-4.708-4.501-5.287-11.302-3.425-15.694c1.395-3.291,3.971-5.109,7.09-4.988l0.099,0.005l0.098-0.017
	c0.029-0.006,2.987-0.469,4.339,1.945c0.262,0.469,0.855,0.637,1.323,0.373c0.468-0.262,0.635-0.854,0.373-1.322
	C72.816,56.49,69.124,56.792,68.428,56.877"/>
<path fill="#231F20" d="M95.247,92.283c-3.919-5.533-14.331-20.229-10.961-27.841c1.601-3.617,3.438-5.168,5.154-5.702
	c1.326-0.411,2.906-0.013,4.971,1.257c0.455,0.281,1.055,0.139,1.336-0.318c0.281-0.457,0.139-1.056-0.319-1.336
	c-2.577-1.586-4.662-2.049-6.563-1.459c-2.317,0.72-4.49,2.554-6.356,6.771c-3.382,7.641,4.184,19.913,11.152,29.752
	c2.552,3.602,3.529,6.941,2.907,9.925c-0.602,2.885-2.177,4.207-5.672,6.317c-5.705,3.443-11.237-1.467-11.445-1.664
	c-0.389-0.37-1.003-0.354-1.373,0.031c-0.371,0.39-0.357,1.004,0.03,1.375c0.045,0.043,3.349,3.137,7.86,3.137
	c1.653,0,4.059-0.084,5.934-1.217c3.968-2.396,5.853-4.155,6.57-7.584C99.207,100.194,98.123,96.344,95.247,92.283"/>
<path fill="#231F20" d="M20.908,175.547c-0.028-0.263-0.065-3.78-0.588-9.963c-1.462-17.328-2.092-28.582-3.501-31.8
	c-0.529-1.208-2.108-1.602-2.617-0.014c-0.509,1.588-2.421,8.455-5.247,22.613c-0.843,4.223-3.259,16.186-5.747,31.397
	c-0.08,0.489,0.252,0.95,0.74,1.03c0.496,0.082,0.951-0.252,1.032-0.742c1.179-7.209,3.138-18.662,3.778-21.182l9.818-0.328
	c0.148,2.627,0.503,8.849,0.546,9.198c0.016,0.119,0.026,0.322,0.042,0.632c0.079,1.479,0.268,4.94,1.343,12.394
	c0.063,0.45,0.455,0.774,0.9,0.769c0.038,0,0.077-0.004,0.117-0.01c0.49-0.07,0.831-0.525,0.759-1.018
	c-1.064-7.371-1.248-10.777-1.325-12.23C20.938,175.922,20.925,175.681,20.908,175.547 M15.662,134.877
	c0.64,0.619,2.318,21.136,2.813,29.892l-9.188,0.306c0.308-1.415,0.715-3.927,1.44-8.401
	C11.66,150.916,15.662,134.877,15.662,134.877"/>
<path fill="#231F20" d="M40.271,132.576l-0.188-0.069l-0.201,0.016c-9.089,0.703-10.289,8.021-11.192,27.211
	c-0.923,19.604-0.464,24.932,5.896,28.154c1.055,0.533,2.116,0.782,3.172,0.742c0.571-0.021,1.144-0.13,1.709-0.32
	c3.618-1.223,5.731-5.527,5.819-5.711c0.224-0.463,0.029-1.021-0.434-1.242c-0.464-0.224-1.02-0.029-1.243,0.434
	c-0.019,0.037-1.854,3.781-4.737,4.757c-1.138,0.386-2.266,0.278-3.445-0.319c-5.141-2.604-5.823-6.307-4.879-26.406
	c0.963-20.405,2.532-24.812,9.257-25.422c0.729,0.328,3.554,1.834,3.809,5.466c0.036,0.514,0.513,0.889,0.995,0.862
	c0.513-0.037,0.899-0.481,0.862-0.994C45.095,134.392,40.469,132.647,40.271,132.576"/>
<path fill="#231F20" d="M56.953,134.303c-3.274,2.863-6.468,18.298-5.991,33.49c0.452,4.94,1.18,16.494,3.511,18.89
	c1.376,1.412,2.71,1.887,4.005,1.854c1.289-0.03,2.536-0.56,3.74-1.157c2.696-1.334,4.58-5.71,4.787-6.205
	c0.209-0.504-0.029-1.082-0.532-1.292c-0.505-0.21-1.081,0.027-1.293,0.533c-0.479,1.153-2.107,4.337-3.84,5.194
	c-2.403,1.189-3.763,1.429-5.453-0.307c-1.332-1.371-2.295-6.793-2.945-17.521c-0.434-16.992,2.679-29.691,5.313-31.994
	c2.488-2.174,6.387-0.812,7.015-0.115c0.472,0.525,0.81,2.631,0.851,4.277c0.013,0.545,0.465,0.977,1.009,0.963
	c0.546-0.012,0.978-0.465,0.965-1.01c-0.016-0.693-0.156-4.221-1.356-5.553C65.416,132.881,60.349,131.336,56.953,134.303"/>
<path fill="#231F20" d="M83.597,132.522c-0.055-0.002-0.143-0.006-0.258-0.002c-2.384,0.082-6.825,2.067-9.602,27.511
	c-0.44,4.739-2.395,20.12,3.227,26.421c1.348,1.509,3.048,2.238,5.057,2.171v-0.001c0.479-0.018,0.979-0.079,1.507-0.189
	c0.348-0.08,1.917-0.334,3.386-1.488c0.895-0.704,2.871-2.875,3.522-7.969c0.38-2.959,4.5-33.562-2.356-44.193
	C87.028,133.151,85.363,132.505,83.597,132.522 M89.874,163.662c-0.452,4.465-1.016,17.249-2.582,19.432
	c-0.926,1.287-2.458,3.041-4.186,3.439c-0.4,0.085-0.787,0.134-1.152,0.146h-0.001c-1.422,0.049-2.58-0.449-3.537-1.521
	c-5.156-5.775-2.407-24.777-2.379-24.97c0,0,2.604-25.612,7.431-25.727h0.001l0.116,0.006c1.145-0.021,2.17,0.407,2.928,1.467
	C89.913,140.694,90.646,156.037,89.874,163.662"/>
<path fill="#231F20" d="M116.932,133.719c-0.629-0.175-1.335,0.104-1.567,0.622c-0.543,1.21-0.466,2.453-0.296,5.174
	c0.227,3.635,0.604,9.719,0.108,21.94c-0.604,14.826-1.426,22.262-4.465,24.41c-0.914,0.647-2.118,0.866-3.907,0.709
	c-5.036-0.443-5.08-9.562-4.938-14.084c0.043-1.296-0.304-19.33-0.307-19.396c0,0,0.001-18.745,0.01-18.829
	c0.057-0.547-0.443-1.016-1.116-1.047s-1.262,0.389-1.318,0.934c-0.037,0.351-0.016,18.957-0.016,18.957
	c0.012,0.574,0.341,18.263,0.304,19.386c-0.173,5.489-0.154,15.416,7.054,16.053c0.733,0.063,1.408,0.076,2.038,0.035
	c1.511-0.097,2.738-0.502,3.774-1.235c3.792-2.683,4.676-9.826,5.328-25.88c0.5-12.307,0.103-18.68-0.109-22.104
	c-0.152-2.444-0.224-3.562,0.147-4.387C117.889,134.455,117.565,133.894,116.932,133.719"/>
<path fill="#231F20" d="M145.812,133.157c-0.231,0.281-0.938,1.133-0.94,14.259l-0.692,16.508
	c-0.644,10.539-0.511,18.685-1.078,20.504c-3.285-8.036-9.912-47.452-13.922-49.454c-0.427-0.214-1.242-0.233-1.591,0.071
	c-0.452,0.399-0.591,1.095-0.381,1.908c0.306,1.178-0.05,5.812-0.285,8.879c-0.147,1.94-1.483,35.515-2.217,41.524
	c-0.067,0.562,0.351,1.07,0.93,1.138c0.044,0.005,0.084,0.008,0.126,0.008c0.53,0,0.989-0.385,1.055-0.905
	c0.086-0.716,2.086-39.791,2.226-41.613c0.188-2.474,0.343-4.599,0.392-6.258c1.006,2.922,8.693,38.312,12.496,47.246l0.112,0.227
	l0.207,0.15c0.288,0.209,0.803,0.383,1.317,0.104c1.893-1.021,1.605-4.912,2.726-23.354l0.696-16.51l0.008-0.115
	c0-5.713,0.207-12.137,0.555-13.144c0.273-0.435,0.178-1.008-0.242-1.334C146.847,132.644,146.177,132.717,145.812,133.157"/>
<path fill="#231F20" d="M172.429,132.937c-0.609,0.234-4.141,0.477-8.576,0.664c-0.166-0.142-0.369-0.237-0.6-0.237
	c-0.264,0-0.499,0.112-0.674,0.288c-2.385,0.093-4.957,0.168-7.446,0.222c-0.536,0.011-0.963,0.478-0.952,1.039
	c0.01,0.556,0.443,0.998,0.973,0.998h0.019c1.461-0.031,4.197-0.097,7.108-0.203c-0.441,9.742-0.916,50.735-0.805,51.91
	c0.051,0.526,0.474,0.918,0.967,0.918c0.031,0,0.064-0.002,0.098-0.007c0.534-0.055,0.924-0.555,0.871-1.114
	c-0.26-2.716,0.158-37.246,0.812-51.674v-0.111c4.146-0.179,8.168-0.446,8.981-0.825c0.479-0.224,0.68-0.796,0.481-1.305
	C173.491,132.989,172.921,132.747,172.429,132.937"/>
<path fill="#231F20" d="M182.45,132.629c-0.521,0.142-0.848,0.666-0.719,1.229c0.156,1.691-0.691,27.933-1.033,33.705
	c-0.146,2.479-0.391,8.486,0.191,20.34c0.027,0.562,0.457,0.998,0.971,0.998c0.017,0,0.035,0,0.052-0.002
	c0.536-0.028,0.948-0.526,0.92-1.106c-0.286-5.808-0.427-14.631-0.2-20.006c0.127-3.021,1.23-33.353,1.006-34.343
	C183.506,132.881,182.968,132.488,182.45,132.629"/>
<path fill="#231F20" d="M209.42,170.131c-0.214,4.132,0.123,12.388-1.287,16.127c-0.565-1.137-1.325-4.063-2.012-6.696
	c-0.84-3.236-6.333-24.187-7.563-31.106c-2.17-12.218-2.896-15.341-4.512-15.55c-0.314-0.041-0.913-0.006-1.438,0.688
	c-2.172,2.883-1.211,30.521-1.176,31.655c0.103,3.478-0.145,21.985-0.148,22.174c-0.021,0.562,0.369,1.034,0.872,1.062
	c0.495,0.016,0.926-0.408,0.944-0.969c0.027-0.771,0.256-18.771,0.149-22.32c-0.032-1.1-0.31-28.184,0.577-30.021
	c0.824,1.738,1.99,8.301,2.943,13.663c1.244,6.999,6.77,28.076,7.603,31.276c1.54,5.921,2.243,8.619,3.938,8.57
	c3.139-0.089,2.635-7.471,3.065-17.345c0.284-6.499,1.474-33.19,1.356-37.235c-0.025-0.912-0.869-0.979-0.869-0.979
	s-0.904-0.096-0.948,0.845C210.731,137.979,209.592,166.798,209.42,170.131"/>
<path fill="#231F20" d="M240.431,168.981c0.018-0.293-0.062-10.766-0.092-11.311c-0.027-0.547-0.339-0.678-0.339-0.678l-0.254-0.111
	c-0.187-0.08-4.579-1.928-7.474-1.014c-0.513,0.162-0.799,0.713-0.638,1.229c0.16,0.518,0.706,0.805,1.218,0.645
	c1.461-0.461,3.756,0.174,5.215,0.602c0.299,0.088,0.328,0.604,0.328,0.604s0.101,9.858,0.115,10.354
	c0.096,3.011-0.225,10.882-1.57,13.584c-1.013,2.031-3.342,2.964-5.977,3.349c-3.111,0.455-5.531-0.107-7.201-1.676
	c-2.22-2.084-2.85-12.354-2.857-13.494c-0.151-19.664,2.097-31.168,6.681-34.191c7.454-4.914,10.413-0.143,10.565,0.084
	c0.3,0.447,0.898,0.568,1.348,0.27c0.447-0.301,0.566-0.91,0.27-1.359c-0.045-0.067-4.119-6.655-13.246-0.635
	c-7.797,5.142-7.547,28.254-7.562,35.849c-0.013,6.854,1.597,13.149,3.479,14.916c1.668,1.565,3.858,2.354,6.529,2.354
	c0.723,0,1.482-0.058,2.274-0.175c3.169-0.463,5.6-1.86,7.266-4.129C240.978,180.685,240.249,172.017,240.431,168.981"/>
<path fill="#6485C3" d="M134.812,42.548c-1.547,0-2.965-0.528-4.16-1.564c-6.123-5.309-5.152-22.769-5.021-24.742
	c0.05-0.755,0.708-1.331,1.459-1.277c0.755,0.049,1.326,0.704,1.276,1.459c-0.328,4.985-0.238,18.745,4.08,22.488
	c0.945,0.82,2.003,1.069,3.33,0.788c7.941-1.681,8.502-17.362,8.05-23.262c-0.06-0.754,0.507-1.414,1.261-1.473
	c0.771-0.063,1.415,0.508,1.475,1.262c0.073,0.965,1.68,23.638-10.215,26.157C135.823,42.495,135.312,42.548,134.812,42.548"/>
<path fill="#6485C3" d="M188.217,37.386c-2.366,0-4.321-0.876-5.812-2.613c-5.156-6-2.615-20.648-2.504-21.269
	c0.131-0.744,0.845-1.247,1.59-1.109c0.746,0.132,1.242,0.847,1.111,1.592c-0.688,3.873-1.693,14.84,1.883,19.001
	c0.994,1.152,2.254,1.691,3.912,1.654c8.125-0.209,10.321-16.011,10.482-22.081c0.021-0.746,0.633-1.337,1.369-1.337
	c0.016,0,0.025,0,0.038,0.002c0.757,0.02,1.354,0.65,1.335,1.406c-0.027,0.998-0.79,24.433-13.155,24.75
	C188.384,37.386,188.301,37.386,188.217,37.386"/>
<path fill="#6485C3" d="M145.293,80.77c-0.56,0-1.084-0.344-1.287-0.899c-0.262-0.709,0.101-1.499,0.812-1.759
	c1.521-0.562,6.578-1.212,14.726-2.217c4.465-0.548,9.828-1.209,12.104-1.65c-0.445-1.681-1.199-5.073-2.722-12.189
	c-0.768-3.579-1.559-7.279-1.771-7.97c-0.59-1.912-3.738-39.227-4.364-46.687c-0.063-0.755,0.496-1.418,1.25-1.482
	c0.771-0.056,1.42,0.497,1.481,1.252c1.477,17.595,3.826,44.404,4.263,46.135c0.228,0.742,0.84,3.593,1.821,8.178
	c1.021,4.771,2.556,11.952,2.945,12.946c0.221,0.396,0.238,0.866,0.049,1.282c-0.459,1.005-0.531,1.16-14.723,2.908
	c-5.693,0.702-12.779,1.575-14.113,2.067C145.608,80.742,145.45,80.77,145.293,80.77"/>
<path fill="#6485C3" d="M152.676,119.853c-25.717,0-36.975-35.36-37.092-35.742c-0.225-0.724,0.181-1.492,0.904-1.715
	c0.726-0.221,1.492,0.181,1.715,0.902c0.118,0.383,12.138,38.145,39.164,33.389c27.969-4.93,41.028-22.687,41.516-28.921
	c0.062-0.757,0.688-1.321,1.476-1.259c0.756,0.058,1.32,0.717,1.26,1.473c-0.549,7.07-13.928,26.151-43.773,31.413
	C156.062,119.704,154.336,119.853,152.676,119.853"/>
</svg>
