<?xml version="1.0" encoding="UTF-8" standalone="no"?>
<!-- Created with Inkscape (http://www.inkscape.org/) -->
<svg
   xmlns:svg="http://www.w3.org/2000/svg"
   xmlns="http://www.w3.org/2000/svg"
   version="1.0"
   width="11.6929in"
   height="8.2677202in"
   viewBox="0 0 11.6929 8.26772"
   id="svg2438"
   xml:space="preserve"
   style="fill-rule:evenodd">
 <defs
   id="defs2440">
  <style
   type="text/css"
   id="style2442" />
 </defs>
 <g
   id="Layer_x0020_1">
  
  <path
   d="M 5.84646,1.91309 C 6.425775,1.91309 6.95326,2.135094 7.34869,2.498562 C 7.154934,2.4934281 6.961544,2.60859 6.953509,2.872393 C 6.9372492,3.405739 7.591245,3.519259 7.238796,4.592003 L 6.947288,5.479306 L 6.153367,3.140656 C 6.1410757,3.1044552 6.1554064,3.0838883 6.1998946,3.0838883 L 6.4243436,3.0838883 C 6.436009,3.0838883 6.4455444,3.0739277 6.4455444,3.0617308 L 6.4455444,2.9287938 C 6.4455444,2.9166009 6.4359893,2.9061363 6.4243436,2.9066403 C 5.9992926,2.9252269 5.5767416,2.9253529 5.1567836,2.9066403 C 5.1451458,2.9061285 5.1355828,2.9166088 5.1355828,2.9287938 L 5.1355828,3.0617308 C 5.1355828,3.0739158 5.1451182,3.0838883 5.1567836,3.0838883 L 5.3824606,3.0838883 C 5.4326614,3.0838883 5.4467165,3.1006166 5.4585512,3.1329749 L 5.7848192,4.0251359 L 5.2940712,5.5067859 L 4.4875472,3.1309659 C 4.4774606,3.1012494 4.4895669,3.0838911 4.5183189,3.0838911 L 4.7754689,3.0838911 C 4.7871303,3.0838911 4.7966658,3.0739305 4.7966658,3.0617336 L 4.7966658,2.9287966 C 4.7966658,2.9166037 4.7870949,2.9060328 4.7754689,2.9066431 C 4.5056699,2.9209738 4.2348389,2.9238557 3.9825629,2.9264462 C 4.3784489,2.3166032 5.0653829,1.9130962 5.8464629,1.9130962 L 5.84646,1.91309 z M 7.79968,3.07642 C 7.97033,3.390833 8.067231,3.751062 8.067231,4.13386 C 8.067231,4.973911 7.600479,5.7051 6.912291,6.08241 L 7.605027,4.12073 C 7.712259,3.817092 7.811858,3.406809 7.799684,3.07642 L 7.79968,3.07642 z M 6.59001,6.22685 C 6.357522,6.3095035 6.10727,6.354637 5.846455,6.354637 C 5.621809,6.354637 5.405018,6.3211291 5.200624,6.2590701 L 5.88477,4.2984601 L 6.59001,6.2268501 L 6.59001,6.22685 z M 4.89622,6.1414051 C 4.145208,5.7852361 3.62568,5.0201451 3.62568,4.1338651 C 3.62568,3.8053451 3.6971446,3.4934871 3.825227,3.2129081 L 4.896217,6.1414081 L 4.89622,6.1414051 z M 5.846452,1.7047251 C 7.187792,1.7047251 8.275592,2.7925251 8.275592,4.1338651 C 8.275592,5.4752051 7.187792,6.5630051 5.846452,6.5630051 C 4.505112,6.5630051 3.417312,5.4752051 3.417312,4.1338651 C 3.417312,2.7925251 4.505112,1.7047251 5.846452,1.7047251 L 5.846452,1.7047251 z M 5.846452,1.5511901 C 7.272582,1.5511901 8.429132,2.7077401 8.429132,4.1338701 C 8.429132,5.5600001 7.272582,6.7165501 5.846452,6.7165501 C 4.420322,6.7165501 3.263772,5.5600001 3.263772,4.1338701 C 3.263772,2.7077401 4.420322,1.5511901 5.846452,1.5511901 L 5.846452,1.5511901 z"
   id="path2446"
   style="fill:#1f1a17" />
 </g>
</svg>