<?xml version="1.0" encoding="utf-8"?>
<!-- Generator: Adobe Illustrator 17.0.0, SVG Export Plug-In . SVG Version: 6.00 Build 0)  -->
<!DOCTYPE svg PUBLIC "-//W3C//DTD SVG 1.1//EN" "http://www.w3.org/Graphics/SVG/1.1/DTD/svg11.dtd">
<svg version="1.1" id="Layer_1" xmlns="http://www.w3.org/2000/svg" xmlns:xlink="http://www.w3.org/1999/xlink" x="0px" y="0px"
	 width="971.795px" height="228.338px" viewBox="0 0 971.795 228.338" enable-background="new 0 0 971.795 228.338"
	 xml:space="preserve">
<g>
	<g>
		<polygon fill="#FFFFFF" points="280.755,110.833 280.755,110.828 280.755,110.833 		"/>
		<path fill="#FFFFFF" d="M907.387,167.645l0.314,0.005c18.867,0,32.146-13.072,32.289-31.78c0.071-9.263-2.604-17.741-7.535-23.869
			c-5.213-6.485-12.512-9.944-21.108-10.011h-0.172c-11.602,0-22.375,8.802-32.935,26.913l-0.841,1.445l-0.542-1.579
			c-2.667-7.764-5.042-14.231-6.462-18.097c-0.992-2.698-1.434-3.911-1.536-4.304c-0.506-1.959-2.183-3.176-4.377-3.176
			c-1.349,0-2.783,0.459-4.141,1.322c-1.345,0.855-2.096,1.903-2.366,3.299l-0.069,0.21c-10.57,32.962-19.286,48.973-26.667,48.973
			c-1.073-0.009-1.913-0.361-2.54-1.057c-1.933-2.136-1.458-7.22-0.801-14.258c0.482-5.169,1.032-11.024,0.803-17.232
			c-0.437-11.939-6.968-19.11-17.473-19.19c-13.346-0.005-21.998,14.209-25.982,22.682l-1.189,2.529l-0.263-2.783
			c-0.995-10.485-4.513-23.009-15.625-23.094c-12.96,0-22.834,15.209-28.857,27.972l-1.614,3.421l0.161-3.777
			c0.718-17.023,1.305-27.075,1.746-29.861c0.439-2.796,0.207-4.674-0.707-5.749c-0.865-1.008-2.5-1.38-4.897-1.229
			c-4.15,0.263-6.27,2.787-9.466,11.253c-5.245,13.901-18.59,46.243-29.247,46.243c-2.114-0.013-3.789-0.736-5.015-2.141
			c-4.469-5.124-2.68-18.972-0.207-38.14l0.187-1.449c1.169-9.074-0.827-11.01-5.753-11.918c-0.531-0.096-1.035-0.147-1.498-0.147
			c-3.936,0-5.778,3.771-9.453,14.246c-6.542,18.642-14.953,38.247-24.794,38.247c-0.361,0-0.718-0.027-1.077-0.085
			c-5.213-0.887-5.1-8.62-4.955-18.419c0.076-5.298,0.165-11.305-0.653-16.728c-1.467-9.731-7.203-15.809-14.965-15.869
			c-15.493,0-25.94,19.838-30.799,31.665l-1.102,2.676l-0.366-2.872c-0.651-5.129-1.51-13.254-1.882-22.865l-0.011-0.285
			l0.176-0.223c28.993-36.495,42-62.832,42.174-85.397c0.111-14.416-6.54-23.075-17.79-23.162c-8.224,0-27.787,6.851-34.581,70.321
			c-1.262,11.769-1.956,23.837-2.058,35.869l-0.002,0.236l-0.134,0.192c-13.263,19.199-41.574,52.224-69.289,52.224
			c-25.043,0-45.022-20.261-45.022-56.022c0-47.941,33.935-77.377,59.472-77.377l0.212,0.001c5.548,0.042,10.306,1.592,13.76,4.483
			c3.588,3,5.463,7.207,5.425,12.162c-0.051,6.62-2.205,10.021-4.29,13.308c-0.535,0.846-1.068,1.687-1.556,2.578
			c-0.493,0.898-0.943,2.204-0.288,3.32c0.671,1.144,2.386,1.864,4.475,1.88c6.079,0,15.272-8.799,15.373-22.058
			c0.105-13.876-11.584-28.174-32.438-28.174c-31.559,0-74.061,34.67-74.061,90.861c0,39.747,24.92,67.218,58.679,67.218
			c23.956,0,47.652-17.152,68.638-45.802l1.286-1.735l0.092,2.158c0.446,10.485,1.206,18.749,1.764,24.783
			c0.359,3.88,0.62,6.681,0.607,8.228c-0.027,3.389,0.526,5.74,1.695,7.185c1.166,1.445,3.024,2.127,5.833,2.15
			c4.714,0,5.657-3.215,7.524-11.14l0.537-2.266c2.319-9.606,10.886-40.958,23.773-40.958c2.105,0.018,3.728,0.642,4.881,1.864
			c2.845,3.019,2.536,9.214,2.174,16.39c-0.225,4.478-0.457,9.102-0.009,13.607c1.215,12.162,6.464,18.107,16.055,18.178
			c9.847,0.004,20.12-10.601,25.541-20.457l1.023-1.86l0.399,2.087c1.001,5.271,5.477,22.584,19.489,22.584
			c12.703,0,23.597-13.375,35.542-40.9l1.561-3.595l-0.096,3.92c-0.254,10.431-0.818,23.168-0.823,33.016
			c-0.005,7.617,0.765,10.525,4.286,10.525c0.25,0,0.519,0.036,0.798,0.036c3.378,0,5.671-2.016,6.815-6.003
			c8.984-31.321,16.753-45.909,24.448-45.909c7.535,0.058,8.242,13.834,8.846,38.18l0.04,1.708
			c0.183,8.514,0.488,12.282,5.78,12.322c4.014,0,5.013-3.153,7.086-10.917c0.397-1.481,0.83-3.104,1.336-4.857
			c7.256-25.175,13.272-35.446,20.76-35.446c6.411,0.049,6.768,6.658,6.886,8.83c0.247,4.652-0.232,9.522-0.693,14.222
			c-0.43,4.371-0.874,8.888-0.707,13.094c0.393,9.847,5.784,15.31,15.183,15.382c12.197,0,23.209-14.267,32.85-42.394l0.669-1.962
			l0.765,1.927c1.748,4.42,4.027,10.405,6.139,17.545l0.08,0.272l-0.116,0.259c-9.337,20.733-15.923,43.83-16.017,56.166
			c-0.125,16.251,7.227,26.812,18.733,26.901h0.198c6.259,0,20.847-2.511,21.13-25.769c0.114-9.53-2.136-23.008-6.687-40.062
			l-0.522-1.953l1.681,1.119C894.246,165.527,900.798,167.592,907.387,167.645z M592.995,88.78
			c0.261-5.828,0.751-11.503,1.447-16.867c4.513-34.574,13.937-58.72,22.923-58.72h0.038c4.284,0.031,6.429,3.271,6.382,9.624
			c-0.121,15.611-10.012,37.96-29.397,66.429l-1.516,2.228L592.995,88.78z M879.498,213.081c-1.429,1.904-3.421,2.867-5.914,2.867
			c-2.863-0.022-5.015-1.021-6.478-2.975c-4.101-5.481-2.946-18.356,3.744-41.734c0.798-2.792,1.668-5.601,2.582-8.349l0.776-2.332
			l0.682,2.359C882.689,189.904,884.236,206.78,879.498,213.081z M881.922,143.951l-0.141-0.259l-0.283-0.896l0.129-0.268
			c8.888-18.312,19.07-28.81,27.934-28.81h0.091c10.005,0.076,16.925,9.08,16.829,21.889c-0.067,8.549-3.835,13.473-6.982,16.095
			c-3.592,2.997-8.375,4.709-13.125,4.709C894.663,156.322,886.627,149.588,881.922,143.951z"/>
		<path fill="#FFFFFF" d="M909.561,114.489v-0.009V114.489z"/>
		<path fill="#FFFFFF" d="M315.104,164.622c13.718-1.102,24.602-19.757,28.644-27.726l1.041-2.056l0.395,2.27
			c1.938,11.212,8.038,30.05,27.116,30.197h0.16c8.251,0,17.615-5.049,27.076-14.592l0.695-0.7l0.504,0.843
			c6.37,10.654,14.916,16.314,24.009,15.85c13.395-0.696,21.522-10.186,22.239-16.778c0.182-1.681-0.263-3.26-1.222-4.33
			c-1.205-1.342-2.952-1.498-4.239-0.268l-0.611,0.58c-3.118,2.993-8.928,8.572-15.256,8.902
			c-7.75,0.379-13.482-4.255-17.185-13.816l-0.155-0.401l0.261-0.339c21.31-27.873,36.266-70.405,34.789-98.93
			c-0.68-13.203-4.521-28.942-18.938-28.942c-0.352,0-0.712,0.009-1.075,0.028c-5.524,0.285-10.546,2.918-14.93,7.821
			c-13.378,14.967-20.38,51.808-17.838,93.857c0.527,8.737,2.042,16.902,4.508,24.261l0.138,0.41l-0.281,0.33
			c-7.907,9.241-15.711,14.334-21.97,14.334c-15.064,0-14.557-25.256-13.366-46.203c0.259-4.517,0.64-7.393-0.697-9.028
			c-0.955-1.171-2.553-1.748-4.879-1.768l-0.273-0.002c-5.358,0-6.48,1.104-9.224,9.059c-5.706,16.528-16.968,44.263-28.298,44.263
			c-3.141-0.027-5.538-1.102-7.178-3.193c-5.497-7.015-1.322-24.511,2.03-38.572c0.602-2.529,1.18-4.956,1.676-7.201
			c0.735-3.334,0.51-5.766-0.67-7.238c-1.18-1.467-3.54-2.063-6.654-1.815c-4.853,0.388-7.955,2.419-9.453,11.648l-0.301,1.918
			l-1.127-1.365c-2.118-3.127-6.253-6.856-13.92-6.856c-0.672,0-1.367,0.027-2.087,0.085c-8.183,0.671-17.503,6.374-24.323,14.883
			c-7.965,9.936-11.768,22.513-10.71,35.41c0.057,0.682,0.156,1.338,0.254,1.989l0.055,0.361l-0.248,0.272
			c-4.764,5.191-9.619,7.822-14.428,7.822c-7.422-0.058-11.681-5.575-11.681-14.762c0-15.471,10.483-62.101,10.483-78.982
			c0-17.965-8.005-27.746-21.908-27.852l-0.21-0.001c-20.296,0-36.118,23.033-51.257,70.422c-1.387,4.339-2.894,9.352-4.188,13.687
			l-2.125,7.127l0.631-7.408c1.406-16.51,2.372-32.568,2.871-47.74c0.753-22.902-2.343-37.641-9.466-45.059
			c-3.842-4.001-8.926-5.971-15.547-6.022h-0.176c-24.839,0-36.738,41.892-45.401,71.45c-2.614,8.924-7.771,29.052-11.211,42.81
			l2.038-3.314c1.529-17.326,5.955-60.726,5.665-84.27C77.363,24.723,68.952,13.397,50.4,13.256h-0.229
			c-9.908,0-16.783,4.925-20.807,9.057c-6.457,6.631-10.481,16.323-10.257,24.691c0.136,5.088,3.259,9.617,5.625,9.617
			c1.542,0,2.396-2.058,2.766-3.284c5.739-18.973,13.165-28.197,22.7-28.197c3.955,0.03,6.895,1.195,9.1,3.561
			c7.447,7.99,6.093,29.564,3.635,68.729c-0.792,12.622-1.689,26.925-2.446,43.194c-0.13,2.792-0.304,5.486-0.469,8.05
			c-0.725,11.297-1.299,20.225,2.986,20.89c5.575,0.87,9.205-1.396,11.06-6.913c2.754-8.188,8.931-30.567,20.88-71.462
			c11.467-39.242,20.13-53.521,31.215-53.521c12.805,0,13.76,21.988,11.413,68.385c-0.5,9.834-1.17,20.974-1.682,33.1
			c-0.073,1.704-0.153,3.354-0.232,4.946c-0.493,10.039-0.882,17.96,1.986,20.996c0.894,0.946,2.111,1.414,3.721,1.423
			c5.551,0,7.219-4.866,9.986-12.933c0.488-1.423,1.007-2.943,1.585-4.535c19.021-52.47,33.086-97.994,51.962-97.994
			c5.664,0,10.067,4.598,10.067,13.569c0,20.703-10.122,60.708-10.122,80.991c0,7.265,2.091,13.789,6.042,18.374
			c4.057,4.705,9.73,7.216,16.409,7.269h0.147c6.315,0,12.898-3.068,19.564-9.12l0.625-0.566l0.502,0.678
			c4.391,5.9,11.474,9.071,19.122,8.483c11.731-0.914,21.575-11.359,25.238-21.211l0.716-1.926l0.716,1.926
			C296.639,156.83,302.525,165.638,315.104,164.622z M423.211,27.519l0.202-0.004c1.339,0,2.515,0.672,3.495,2
			c4.659,6.298,4.728,29.284-3.284,55.439c-4.579,14.947-10.736,29.067-17.802,40.832l-1.127,1.873l-0.287-2.167
			c-0.832-6.324-1.241-12.911-1.531-18.517C400.832,67.442,412.79,28.06,423.211,27.519z M293.037,119.913
			c-4.106,16.524-11.98,36.463-26.175,37.605c-0.397,0.027-0.783,0.049-1.156,0.049c-5.888,0-9.19-3.858-9.814-11.462
			c-0.782-9.517,3.323-20.662,10.451-28.4c4.539-4.928,9.658-7.64,14.412-7.64h0.097c6.004,0.045,10.212,4.866,12.145,9.361
			l0.104,0.232L293.037,119.913z"/>
		<path fill="#FFFFFF" d="M617.365,13.959v-0.002V13.959z"/>
		<path fill="#FFFFFF" d="M358.88,59.346c-5.24,0-9.474,4.129-9.511,9.204c-0.041,5.112,4.164,9.304,9.369,9.344l0.076,0.76l0,0
			v-0.76c5.164,0,9.397-4.127,9.435-9.2C368.29,63.579,364.087,59.387,358.88,59.346z"/>
		<path fill="#FFFFFF" d="M688.357,59.346c-5.24,0-9.473,4.129-9.513,9.204c-0.04,5.112,4.163,9.304,9.37,9.344l0.074,0.76l0,0
			v-0.76c5.169,0,9.401-4.127,9.439-9.2C697.765,63.579,693.564,59.387,688.357,59.346z"/>
	</g>
	<g>
		<path fill="#FFFFFF" d="M944.936,157.178c-3.545,0-6.435,2.89-6.435,6.44c0,3.545,2.89,6.431,6.435,6.431
			c3.548,0,6.438-2.886,6.438-6.431C951.373,160.068,948.484,157.178,944.936,157.178z M944.936,169.117
			c-3.046,0-5.501-2.453-5.501-5.499c0-3.046,2.455-5.503,5.501-5.503c3.044,0,5.503,2.457,5.503,5.503
			C950.439,166.664,947.98,169.117,944.936,169.117z"/>
		<path fill="#FFFFFF" d="M947.788,161.937c0-1.329-0.654-2.056-2.335-2.056h-2.854v7.417h0.937v-3.247h1.331l2.214,3.247h1.055
			l-2.214-3.247C946.927,163.877,947.788,163.306,947.788,161.937z M944.731,163.217h-1.195v-2.506h1.659
			c0.796,0,1.661,0.277,1.661,1.226C946.856,163.168,945.75,163.217,944.731,163.217z"/>
	</g>
</g>
</svg>
