<?xml version="1.0" encoding="utf-8"?>
<!-- Generator: Adobe Illustrator 17.0.0, SVG Export Plug-In . SVG Version: 6.00 Build 0)  -->
<!DOCTYPE svg PUBLIC "-//W3C//DTD SVG 1.1//EN" "http://www.w3.org/Graphics/SVG/1.1/DTD/svg11.dtd">
<svg version="1.1" id="Layer_1" xmlns="http://www.w3.org/2000/svg" xmlns:xlink="http://www.w3.org/1999/xlink" x="0px" y="0px"
	 width="918px" height="579px" viewBox="17 0 918 579" enable-background="new 17 0 918 579" xml:space="preserve">
<path id="FL" fill="#B51F24" stroke="#FFFFFF" stroke-width="0.75" d="M759.817,439.143l2.266,7.319l3.73,9.742l5.335,9.376
	l3.718,6.305l4.85,5.496l4.042,3.718l1.617,2.91l-1.132,1.293l-0.808,1.293l2.91,7.436l2.91,2.91l2.587,5.335l3.557,5.82
	l4.526,8.245l1.293,7.598l0.485,11.963l0.647,1.778l-0.323,3.395l-2.425,1.293l0.323,1.94l-0.647,1.94l0.323,2.425l0.485,1.94
	l-2.748,3.233l-3.072,1.455l-3.88,0.162l-1.455,1.617l-2.425,0.97l-1.293-0.485l-1.132-0.97l-0.323-2.91l-0.808-3.395l-3.395-5.173
	l-3.557-2.263l-3.88-0.323l-0.808,1.293l-3.072-4.365l-0.647-3.557l-2.587-4.042l-1.778-1.132l-1.617,2.102l-1.778-0.323
	l-2.102-5.011l-2.91-3.88l-2.91-5.335l-2.587-3.072l-3.557-3.718l2.102-2.425l3.233-5.496l-0.162-1.617l-4.526-0.97l-1.617,0.647
	l0.323,0.647l2.587,0.97l-1.455,4.526l-0.808,0.485l-1.778-4.042l-1.293-4.85l-0.323-2.748l1.455-4.688v-9.538l-3.072-3.718
	l-1.293-3.072l-5.173-1.293l-1.94-0.647l-1.617-2.587l-3.395-1.617l-1.132-3.395l-2.748-0.97l-2.425-3.718l-4.203-1.455l-2.91-1.455
	h-2.587l-4.042,0.808l-0.162,1.94l0.808,0.97l-0.485,1.132l-3.072-0.162l-3.718,3.557l-3.557,1.94h-3.88l-3.233,1.293l-0.323-2.748
	l-1.617-1.94l-2.91-1.132l-1.617-1.455l-8.083-3.88l-7.598-1.778l-4.365,0.647l-5.981,0.485l-5.981,2.102l-3.479,0.613l-0.238-8.05
	l-2.587-1.94l-1.778-1.778l0.323-3.072l10.185-1.293l25.542-2.91l6.79-0.647l5.436,0.28l2.587,3.88l1.455,1.455l8.098,0.515
	l10.82-0.647l21.512-1.293l5.446-0.674l5.108,0.204l0.427,2.91l2.233,0.808l0.235-4.63l-1.528-4.173l1.308-1.44l5.555,0.455
	L759.817,439.143L759.817,439.143z M772.362,571.548l2.425-0.647l1.293-0.242l1.455-2.344l2.344-1.617l1.293,0.485l1.697,0.323
	l0.404,1.051l-3.476,1.212l-4.203,1.455l-2.344,1.212L772.362,571.548L772.362,571.548z M785.861,566.536l1.212,1.051l2.748-2.102
	l5.335-4.203l3.718-3.88l2.506-6.628l0.97-1.697l0.162-3.395l-0.727,0.485l-0.97,2.829l-1.455,4.607l-3.233,5.254l-4.365,4.203
	l-3.395,1.94L785.861,566.536L785.861,566.536z"/>
<path id="NH" fill="#F1F1F1" stroke="#FFFFFF" stroke-width="0.75" d="M880.799,142.425l0.869-1.077l1.09-3.291l-2.543-0.913
	l-0.485-3.072l-3.88-1.132l-0.323-2.748l-7.275-23.441l-4.601-14.543l-0.897-0.005l-0.647,1.617l-0.647-0.485l-0.97-0.97
	l-1.455,1.94l-0.049,5.032l0.312,5.667l1.94,2.748v4.042l-3.718,5.063l-2.587,1.132v1.132l1.132,1.778v8.568l-0.808,9.215
	l-0.162,4.85l0.97,1.293l-0.162,4.526l-0.485,1.778l0.969,0.709l16.788-4.425l2.175-0.602l1.844-2.773L880.799,142.425
	L880.799,142.425z"/>
<g id="MI">
	<path id="MI-" fill="#F1F1F1" stroke="#FFFFFF" stroke-width="0.75" d="M697.86,177.237l-3.233-8.245l-2.263-9.053l-2.425-3.233
		l-2.587-1.778l-1.617,1.132l-3.88,1.778l-1.94,5.011l-2.748,3.718l-1.132,0.647l-1.455-0.647c0,0-2.587-1.455-2.425-2.102
		c0.162-0.647,0.485-5.011,0.485-5.011l3.395-1.293l0.808-3.395l0.647-2.587l2.425-1.617l-0.323-10.023l-1.617-2.263l-1.293-0.808
		l-0.808-2.102l0.808-0.808l1.617,0.323l0.162-1.617l-2.425-2.263l-1.293-2.587h-2.587l-4.526-1.455l-5.496-3.395h-2.748
		l-0.647,0.647l-0.97-0.485l-3.072-2.263l-2.91,1.778l-2.91,2.263l0.323,3.557l0.97,0.323l2.102,0.485l0.485,0.808l-2.587,0.808
		l-2.587,0.323l-1.455,1.778l-0.323,2.102l0.323,1.617l0.323,5.496l-3.557,2.102l-0.647-0.162v-4.203l1.293-2.425l0.647-2.425
		l-0.808-0.808l-1.94,0.808l-0.97,4.203l-2.748,1.132l-1.778,1.94l-0.162,0.97l0.647,0.808l-0.647,2.587l-2.263,0.485v1.132
		l0.808,2.425l-1.132,6.143l-1.617,4.042l0.647,4.688l0.485,1.132l-0.808,2.425l-0.323,0.808l-0.323,2.748l3.557,5.981l2.91,6.466
		l1.455,4.85l-0.808,4.688l-0.97,5.981l-2.425,5.173l-0.323,2.748l-3.259,3.085l4.409-0.162l21.419-2.263l7.278-0.987l0.096,1.666
		l6.852-1.212l10.298-1.503l3.854-0.461l0.138-0.588l0.162-1.455l2.102-3.718l2.001-1.738l-0.222-5.052l1.597-1.597l1.091-0.343
		l0.222-3.557l1.536-3.031l1.051,0.606l0.162,0.647l0.808,0.162l1.94-0.97L697.86,177.237L697.86,177.237z"/>
	<path id="SP-" fill="#F1F1F1" stroke="#FFFFFF" stroke-width="0.75" d="M581.619,82.059l1.829-2.058l2.172-0.8l5.373-3.887
		l2.286-0.572l0.457,0.457l-5.144,5.144l-3.315,1.943l-2.058,0.914L581.619,82.059L581.619,82.059z M667.794,114.187l0.647,2.506
		l3.233,0.162l1.293-1.212c0,0-0.081-1.455-0.404-1.617c-0.323-0.162-1.617-1.859-1.617-1.859l-2.182,0.242l-1.617,0.162
		l-0.323,1.132L667.794,114.187L667.794,114.187z M567.492,111.213l0.716-0.58l2.748-0.808l3.557-2.263v-0.97l0.647-0.647
		l5.981-0.97l2.425-1.94l4.365-2.102l0.162-1.293l1.94-2.91l1.778-0.808l1.293-1.778l2.263-2.263l4.365-2.425l4.688-0.485
		l1.132,1.132l-0.323,0.97l-3.718,0.97l-1.455,3.072l-2.263,0.808l-0.485,2.425l-2.425,3.233l-0.323,2.587l0.808,0.485l0.97-1.132
		l3.557-2.91l1.293,1.293h2.263l3.233,0.97l1.455,1.132l1.455,3.072l2.748,2.748l3.88-0.162l1.455-0.97l1.617,1.293l1.617,0.485
		l1.293-0.808h1.132l1.617-0.97l4.042-3.557l3.395-1.132l6.628-0.323l4.526-1.94l2.587-1.293l1.455,0.162v5.658l0.485,0.323
		l2.91,0.808l1.94-0.485l6.143-1.617l1.132-1.132l1.455,0.485v6.951l3.233,3.072l1.293,0.647l1.293,0.97l-1.293,0.323l-0.808-0.323
		l-3.718-0.485l-2.102,0.647l-2.263-0.162l-3.233,1.455h-1.778l-5.82-1.293l-5.173,0.162l-1.94,2.587l-6.951,0.647l-2.425,0.808
		l-1.132,3.072l-1.293,1.132l-0.485-0.162l-1.455-1.617l-4.526,2.425h-0.647l-1.132-1.617l-0.808,0.162l-1.94,4.365l-0.97,4.042
		l-3.181,7.001l-1.177-1.034l-1.372-1.031l-1.941-10.288l-3.544-1.37l-2.053-2.286l-12.12-2.743l-2.855-1.03l-8.23-2.173
		l-7.89-1.143L567.492,111.213L567.492,111.213z"/>
</g>
<path id="VT" fill="#F1F1F1" stroke="#FFFFFF" stroke-width="0.75" d="M844.484,154.058l0.317-5.346l-2.891-10.784l-0.647-0.323
	l-2.91-1.293l0.808-2.91l-0.808-2.102l-2.7-4.64l0.97-3.88l-0.808-5.173l-2.425-6.466l-0.806-4.923l26.419-6.732l0.309,5.522
	l1.916,2.742v4.042l-3.707,5.058l-2.587,1.143l-0.011,1.121l1.31,1.519l-0.311,8.098l-0.609,9.259l-0.228,5.557l0.97,1.293
	l-0.162,4.571l-0.485,1.69l1.014,0.727l-7.438,1.507L844.484,154.058L844.484,154.058z"/>
<path id="ME" fill="#F1F1F1" stroke="#FFFFFF" stroke-width="0.75" d="M922.84,78.831l1.94,2.102l2.263,3.718v1.94l-2.102,4.688
	l-1.94,0.647l-3.395,3.072l-4.85,5.496c0,0-0.647,0-1.293,0c-0.647,0-0.97-2.102-0.97-2.102l-1.778,0.162l-0.97,1.455l-2.425,1.455
	l-0.97,1.455l1.617,1.455l-0.485,0.647l-0.485,2.748l-1.94-0.162v-1.617l-0.323-1.293l-1.455,0.323l-1.778-3.233l-2.102,1.293
	l1.293,1.455l0.323,1.132l-0.808,1.293l0.323,3.072l0.162,1.617l-1.617,2.587l-2.91,0.485l-0.323,2.91l-5.335,3.072l-1.293,0.485
	l-1.617-1.455l-3.072,3.557l0.97,3.233l-1.455,1.293l-0.162,4.365l-1.123,6.259l-2.462-1.156l-0.485-3.072l-3.88-1.132l-0.323-2.748
	l-7.275-23.441l-4.699-14.64l1.421-0.118l1.514,0.41v-2.587l1.308-4.496l2.587-4.688l1.455-4.042l-1.94-2.425v-5.981l0.808-0.97
	l0.808-2.748l-0.162-1.455l-0.162-4.85l1.778-4.85l2.91-8.891l2.102-4.203h1.293l1.293,0.162v1.132l1.293,2.263l2.748,0.647
	l0.808-0.808v-0.97l4.042-2.91l1.778-1.778l1.455,0.162l5.981,2.425l1.94,0.97l9.053,29.907h5.981l0.808,1.94l0.162,4.85l2.91,2.263
	h0.808l0.162-0.485l-0.485-1.132L922.84,78.831L922.84,78.831z M901.908,108.978l1.536-1.536l1.374,1.051l0.566,2.425l-1.697,0.889
	L901.908,108.978z M908.617,103.078l1.778,1.859c0,0,1.293,0.081,1.293-0.243c0-0.323,0.242-2.021,0.242-2.021l0.889-0.808
	l-0.808-1.778l-2.021,0.727L908.617,103.078z"/>
<path id="RI" fill="#F1F1F1" stroke="#FFFFFF" stroke-width="0.75" d="M874.07,178.895l-3.696-14.956l6.269-1.845l2.191,1.927
	l3.307,4.321l2.688,4.402l-2.999,1.625l-1.293-0.162l-1.132,1.778l-2.425,1.94L874.07,178.895L874.07,178.895z"/>
<path id="NY" fill="#F1F1F1" stroke="#FFFFFF" stroke-width="0.75" d="M830.379,188.746l-1.132-0.97l-2.587-0.162l-2.263-1.94
	l-1.631-6.129l-3.458,0.09l-2.444-2.708l-19.385,4.382l-43.002,8.73l-7.53,1.228l-0.738-6.468l1.428-1.125l1.293-1.132l0.97-1.617
	l1.778-1.132l1.94-1.778l0.485-1.617l2.102-2.748l1.132-0.97l-0.162-0.97l-1.293-3.072l-1.778-0.162l-1.94-6.143l2.91-1.778
	l4.365-1.455l4.042-1.293l3.233-0.485l6.305-0.162l1.94,1.293l1.617,0.162l2.102-1.293l2.587-1.132l5.173-0.485l2.102-1.778
	l1.778-3.233l1.617-1.94h2.102l1.94-1.132l0.162-2.263l-1.455-2.102l-0.323-1.455l1.132-2.102v-1.455h-1.778l-1.778-0.808
	l-0.808-1.132l-0.162-2.587l5.82-5.496l0.647-0.808l1.455-2.91l2.91-4.526l2.748-3.718l2.102-2.425l2.415-1.826l3.081-1.246
	l5.496-1.293l3.233,0.162l4.526-1.455l7.565-2.071l0.52,4.98l2.425,6.466l0.808,5.173l-0.97,3.88l2.587,4.526l0.808,2.102
	l-0.808,2.91l2.91,1.293l0.647,0.323l3.072,10.993l-0.536,5.06l-0.485,10.831l0.808,5.496l0.808,3.557l1.455,7.275v8.083
	l-1.132,2.263l1.839,1.993l0.797,1.678l-1.94,1.778l0.323,1.293l1.293-0.323l1.455-1.293l2.263-2.587l1.132-0.647l1.617,0.647
	l2.263,0.162l7.921-3.88l2.91-2.748l1.293-1.455l4.203,1.617l-3.395,3.557l-3.88,2.91l-7.113,5.335l-2.587,0.97l-5.82,1.94
	l-4.042,1.132l-1.175-0.533l-0.244-3.689l0.485-2.748l-0.162-2.102l-2.814-1.699l-4.526-0.97l-3.88-1.132L830.379,188.746
	L830.379,188.746z"/>
<path id="PA" fill="#F1F1F1" stroke="#FFFFFF" stroke-width="0.75" d="M825.124,224.692l1.308-0.271l2.33-1.253l1.212-2.483
	l1.617-2.263l3.233-3.072v-0.808l-2.425-1.617l-3.557-2.425l-0.97-2.587l-2.748-0.323l-0.162-1.132l-0.808-2.748l2.263-1.132
	l0.162-2.425l-1.293-1.293l0.162-1.617l1.94-3.072v-3.072l2.698-2.646l-0.92-0.675l-2.524-0.193l-2.294-1.94l-1.55-6.116
	l-3.505,0.101l-2.455-2.703l-18.091,4.198l-43.002,8.73l-8.891,1.455l-0.621-6.521l-5.363,5.068l-1.293,0.485l-4.202,3.009
	l2.911,19.137l2.482,9.729l3.572,19.261l3.269-0.638l11.944-1.502l37.927-7.665l14.876-2.823l8.3-1.622l0.267-0.239l2.102-1.617
	L825.124,224.692L825.124,224.692z"/>
<path id="NJ" fill="#F1F1F1" stroke="#FFFFFF" stroke-width="0.75" d="M829.679,188.46l-2.323,2.734v3.072l-1.94,3.072l-0.162,1.617
	l1.293,1.293l-0.162,2.425l-2.263,1.132l0.808,2.748l0.162,1.132l2.748,0.323l0.97,2.587l3.557,2.425l2.425,1.617v0.808
	l-2.983,2.697l-1.617,2.263l-1.455,2.748l-2.263,1.293l-0.462,1.602l-0.242,1.212l-0.609,2.607l1.092,2.244l3.233,2.91l4.85,2.263
	l4.042,0.647l0.162,1.455l-0.808,0.97l0.323,2.748h0.808l2.102-2.425l0.808-4.85l2.748-4.042l3.072-6.466l1.132-5.496l-0.647-1.132
	l-0.162-9.376l-1.617-3.395l-1.132,0.808l-2.748,0.323l-0.485-0.485l1.132-0.97l2.102-1.94l0.063-1.094l-0.384-3.434l0.573-2.748
	l-0.117-1.969l-2.808-1.75l-5.092-1.176l-4.137-1.382L829.679,188.46L829.679,188.46z"/>
<path id="DE" fill="#F1F1F1" stroke="#FFFFFF" stroke-width="0.75" d="M825.626,228.279l0.368-2.147l0.375-1.691l-1.623,0.398
	l-1.615,0.468l-2.206,1.764l1.72,5.043l2.263,5.658l2.102,9.7l1.617,6.305l5.011-0.162l6.142-1.181l-2.264-7.386l-0.97,0.485
	l-3.557-2.425l-1.778-4.688l-1.94-3.557l-3.147-2.87l-0.864-2.098L825.626,228.279L825.626,228.279z"/>
<path id="MD" fill="#F1F1F1" stroke="#FFFFFF" stroke-width="0.75" d="M839.792,252.415l-6.009,1.204l-5.143,0.117l-1.844-6.922
	l-1.925-9.169l-2.573-6.188l-1.288-4.398l-7.506,1.622l-14.876,2.823l-37.451,7.551l1.131,5.012l0.97,5.658l0.323-0.323l2.102-2.425
	l2.263-2.618l2.425-0.616l1.455-1.455l1.778-2.587l1.293,0.647l2.91-0.323l2.587-2.102l2.007-1.453l1.845-0.485l1.644,1.13
	l2.91,1.455l1.94,1.778l1.212,1.536l4.122,1.697v2.91l5.496,1.293l1.144,0.542l1.412-2.028l2.882,1.97l-1.278,2.482l-0.765,3.986
	l-1.778,2.587v2.102l0.647,1.778l5.064,1.356l4.311-0.062l3.072,0.97l2.102,0.323l0.97-2.102l-1.455-2.102v-1.778l-2.425-2.102
	l-2.102-5.496l1.293-5.335l-0.162-2.102l-1.293-1.293c0,0,1.455-1.617,1.455-2.263c0-0.647,0.485-2.102,0.485-2.102l1.94-1.293
	l1.94-1.617l0.485,0.97l-1.455,1.617l-1.293,3.718l0.323,1.132l1.778,0.323l0.485,5.496l-2.102,0.97l0.323,3.557l0.485-0.162
	l1.132-1.94l1.617,1.778l-1.617,1.293l-0.323,3.395l2.587,3.395l3.88,0.485l1.617-0.808l3.237,4.183l1.358,0.536l6.654-2.797
	l2.008-4.024L839.792,252.415L839.792,252.415z M823.822,261.443l1.132,2.506l0.162,1.778l1.132,1.859c0,0,0.889-0.889,0.889-1.212
	s-0.727-3.072-0.727-3.072l-0.727-2.344L823.822,261.443L823.822,261.443z"/>
<path id="VA" fill="#F1F1F1" stroke="#FFFFFF" stroke-width="0.75" d="M831.639,266.069l-0.144-1.947l6.453-2.55l-0.77,3.218
	l-2.92,3.779l-0.418,4.586l0.462,3.39l-1.828,4.978l-2.164,1.916l-1.47-4.641l0.446-5.449l1.587-4.183L831.639,266.069
	L831.639,266.069z M834.979,294.37l-58.174,12.575l-37.427,5.279l-6.678-0.375l-2.585,1.926l-7.339,0.221l-8.382,0.978
	l-10.915,1.615l10.469-5.611l-0.013-2.075l1.52-2.146l10.554-11.501l3.947,4.477l3.783,0.964l2.543-1.14l2.237-1.311l2.537,1.344
	l3.914-1.428l1.877-4.556l2.601,0.54l2.855-2.131l1.799,0.494l2.827-3.677l0.348-2.083l-0.964-1.276l1.003-1.867l5.274-12.277
	l0.617-5.735l1.229-0.524l2.179,2.443l3.936-0.301l1.929-7.574l2.794-0.561l1.05-2.741l2.58-2.347l2.772-5.695l0.085-5.068
	l9.822,3.823c0.681,0.34,0.833-5.049,0.833-5.049l3.653,1.598l0.068,2.938l5.784,1.299l2.133,1.176l1.66,2.056l-0.655,3.649
	l-1.947,2.591l0.11,2.059l0.589,1.853l4.979,1.268l4.451,0.04l3.069,0.959l1.943,0.309l0.715,3.088l3.19,0.403l0.868,1.2l-0.44,4.69
	l1.375,1.103l-0.479,1.93l1.229,0.79l-0.222,1.385l-2.694-0.095l0.089,1.616l2.281,1.543l0.122,1.412l1.773,1.785l0.492,2.524
	l-2.553,1.381l1.572,1.494l5.801-1.686L834.979,294.37L834.979,294.37z"/>
<path id="WV" fill="#F1F1F1" stroke="#FFFFFF" stroke-width="0.75" d="M761.185,238.967l1.112,4.945l1.083,6.031l2.13-2.58
	l2.263-3.072l2.538-0.616l1.455-1.455l1.778-2.587l1.445,0.647l2.91-0.323l2.587-2.102l2.007-1.453l1.845-0.485l1.304,1.016
	l3.643,1.822l1.94,1.778l1.374,1.293l-0.762,5.555l-5.835-2.541l-4.245-1.622l-0.101,5.178l-2.748,5.537l-2.53,2.427l-1.192,2.749
	l-2.644,0.5l-0.898,3.602l-1.043,3.95l-3.968,0.341l-2.324-2.439l-1.071,0.559l-0.633,5.47l-1.35,3.534l-4.958,10.955l0.897,1.161
	l-0.206,1.909l-2.809,3.884l-1.808-0.544l-2.968,2.16l-2.542-0.572l-1.999,4.556c0,0-3.259,1.43-3.923,1.368
	c-0.161-0.015-2.469-1.249-2.469-1.249l-2.337,1.379l-2.41,1.044l-3.745-0.889l-1.121-1.168l-2.192-3.023l-3.143-1.988l-1.712-3.623
	l-4.285-3.468l-0.647-2.263l-2.587-1.455l-0.808-1.617l-0.242-5.254l2.182-0.081l1.94-0.808l0.162-2.748l1.617-1.455l0.162-5.011
	l0.97-3.88l1.293-0.647l1.293,1.132l0.485,1.778l1.778-0.97l0.485-1.617l-1.132-1.778v-2.425l0.97-1.293l2.263-3.395l1.293-1.455
	l2.102,0.485l2.263-1.617l3.072-3.395l2.263-3.88l0.323-5.658l0.485-5.011v-4.688l-1.132-3.072l0.97-1.455l1.284-1.293l3.491,19.827
	l4.631-0.751L761.185,238.967L761.185,238.967z"/>
<path id="OH" fill="#F1F1F1" stroke="#FFFFFF" stroke-width="0.75" d="M735.325,193.328l-6.094,4.053l-3.88,2.263l-3.395,3.718
	l-4.042,3.88l-3.233,0.808l-2.91,0.485l-5.496,2.587l-2.102,0.162l-3.395-3.072l-5.173,0.647l-2.587-1.455l-2.381-1.351
	l-4.893,0.703l-10.185,1.617l-11.207,2.185l1.293,14.63l1.778,13.741l2.587,23.441l0.566,4.831l4.122-0.129l2.425-0.808l3.364,1.503
	l2.07,4.365l5.139-0.017l1.892,2.119l1.761-0.065l2.538-1.341l2.504,0.371l5.421,0.483l1.727-2.133l2.346-1.293l2.07-0.681
	l0.647,2.748l1.778,0.97l3.476,2.344l2.182-0.081l1.333-0.492l0.185-2.762l1.585-1.455l0.099-4.793l1.024-4.109l1.299-0.601
	l1.321,1.148l0.538,1.697l1.719-1.037l0.439-1.461l-1.117-1.903l0.066-2.314l0.749-1.072l2.153-3.306l1.05-1.543l2.102,0.485
	l2.263-1.617l3.072-3.395l2.771-4.079l0.32-5.056l0.485-5.011l-0.177-5.307l-0.955-2.895l0.351-1.19l1.804-1.75l-2.289-9.047
	L735.325,193.328L735.325,193.328z"/>
<path id="IN" fill="#F1F1F1" stroke="#FFFFFF" stroke-width="0.75" d="M619.57,299.971l0.065-2.859l0.485-4.527l2.263-2.91
	l1.778-3.88l2.587-4.203l-0.485-5.82l-1.778-2.748l-0.323-3.233l0.808-5.496l-0.485-6.951l-1.293-16.004l-1.293-15.358l-0.97-11.72
	l3.071,0.89l1.455,0.97l1.132-0.323l2.102-1.94l2.83-1.617l5.093-0.162l21.986-2.263l5.576-0.533l1.503,15.956l4.251,36.842
	l0.598,5.772l-0.372,2.263l1.228,1.795l0.096,1.373l-2.521,1.6l-3.539,1.551l-3.202,0.55l-0.598,4.867l-4.575,3.312l-2.796,4.01
	l0.323,2.377l-0.581,1.534h-3.326l-1.586-1.617l-2.493,1.262l-2.683,1.503l0.162,3.054l-1.194,0.258l-0.468-1.018l-2.167-1.503
	l-3.25,1.341l-1.551,3.006l-1.438-0.808l-1.455-1.6l-4.464,0.485l-5.593,0.97L619.57,299.971L619.57,299.971z"/>
<path id="IL" fill="#F1F1F1" stroke="#FFFFFF" stroke-width="0.75" d="M619.541,300.342l0.031-3.23l0.567-4.646l2.333-2.916
	l1.867-4.076l2.233-3.995l-0.372-5.252l-2.005-3.543l-0.096-3.347l0.695-5.27l-0.825-7.178l-1.066-15.777l-1.293-15.017
	l-0.922-11.639l-0.273-0.921l-0.808-2.587l-1.293-3.718l-1.617-1.778l-1.455-2.587l-0.234-5.489l-45.796,2.598l0.229,2.372
	l2.286,0.686l0.914,1.143l0.457,1.829l3.887,3.429l0.686,2.286l-0.686,3.429l-1.829,3.658l-0.686,2.515l-2.286,1.829l-1.829,0.686
	l-5.258,1.372l-0.686,1.829l-0.686,2.058l0.686,1.372l1.829,1.6l-0.229,4.115l-1.829,1.6l-0.686,1.6v2.743l-1.829,0.457l-1.6,1.143
	l-0.229,1.372l0.229,2.058l-1.715,1.315l-1.029,2.801l0.457,3.658l2.286,7.316l7.316,7.545l5.487,3.658l-0.229,4.344l0.914,1.372
	l6.401,0.457l2.743,1.372l-0.686,3.658l-2.286,5.944l-0.686,3.201l2.286,3.887l6.401,5.258l4.572,0.686l2.058,5.03l2.058,3.201
	l-0.914,2.972l1.6,4.115l1.829,2.058l1.414-0.881l0.908-2.075l2.213-1.747l2.131-0.614l2.603,1.18l3.627,1.376l1.189-0.298
	l0.2-2.258l-1.287-2.412l0.304-2.377l1.838-1.347l3.023-0.81l1.261-0.459l-0.613-1.387l-0.791-2.354l1.433-0.981L619.541,300.342
	L619.541,300.342z"/>
<path id="CT" fill="#F1F1F1" stroke="#FFFFFF" stroke-width="0.75" d="M874.068,178.863l-3.677-14.879l-4.719,0.92l-21.229,4.743
	l1,3.226l1.455,7.275l0.177,8.967l-1.22,2.175l1.921,1.932l4.272-3.906l3.557-3.233l1.94-2.102l0.808,0.647l2.748-1.455l5.173-1.132
	L874.068,178.863L874.068,178.863z"/>
<path id="WI" fill="#F1F1F1" stroke="#FFFFFF" stroke-width="0.75" d="M615.066,197.369l-0.067-3.157l-1.179-4.527l-0.647-6.143
	l-1.132-2.425l0.97-3.072l0.808-2.91l1.455-2.587l-0.647-3.395l-0.647-3.557l0.485-1.778l1.94-2.425l0.162-2.748l-0.808-1.293
	l0.647-2.587l-0.453-4.171l2.748-5.658l2.91-6.79l0.162-2.263l-0.323-0.97l-0.808,0.485l-4.203,6.305l-2.748,4.042l-1.94,1.778
	l-0.808,2.263l-1.955,0.808l-1.132,1.94l-1.455-0.323l-0.162-1.778l1.293-2.425l2.102-4.688l1.778-1.617l0.991-2.358l-2.56-1.901
	l-1.975-10.367l-3.547-1.342l-1.946-2.308l-12.13-2.722l-2.876-1.012l-8.213-2.167l-7.918-1.159l-3.765-5.131l-0.75,0.554
	l-1.198-0.162l-0.647-1.132l-1.334,0.297l-1.132,0.162l-1.778,0.97l-0.97-0.647l0.647-1.94l1.94-3.072l1.132-1.132l-1.94-1.455
	l-2.102,0.808l-2.91,1.94l-7.436,3.233l-2.91,0.647l-2.91-0.485l-0.982-0.878l-2.117,2.835l-0.229,2.743v8.459l-1.143,1.6
	l-5.258,3.887l-2.286,5.944l0.457,0.229l2.515,2.058l0.686,3.201l-1.829,3.201v3.887l0.457,6.63l2.972,2.972h3.429l1.829,3.201
	l3.429,0.457l3.887,5.716l7.087,4.115l2.058,2.743l0.914,7.43l0.686,3.315l2.286,1.6l0.229,1.372l-2.058,3.429l0.229,3.201
	l2.515,3.887l2.515,1.143l2.972,0.457l1.342,1.38L615.066,197.369L615.066,197.369z"/>
<path id="NC" fill="#F1F1F1" stroke="#FFFFFF" stroke-width="0.75" d="M834.982,294.316l2.085,4.917l3.557,6.466l2.425,2.425
	l0.647,2.263l-2.425,0.162l0.808,0.647l-0.323,4.203l-2.587,1.293l-0.647,2.102l-1.293,2.91l-3.718,1.617l-2.425-0.323l-1.455-0.162
	l-1.617-1.293l0.323,1.293v0.97h1.94l0.808,1.293l-1.94,6.305h4.203l0.647,1.617l2.263-2.263l1.293-0.485l-1.94,3.557l-3.072,4.85
	h-1.293l-1.132-0.485l-2.748,0.647l-5.173,2.425l-6.466,5.335l-3.395,4.688l-1.94,6.466l-0.485,2.425l-4.688,0.485L799.766,362
	l-9.946-8.203l-12.61-7.598l-2.91-0.808l-12.61,1.455l-4.276,0.75l-1.617-3.233l-2.97-2.117l-16.489,0.485l-7.275,0.808
	l-9.053,4.527l-6.143,2.587l-21.178,2.587l0.5-4.054l1.778-1.455l2.748-0.647l0.647-3.718l4.203-2.748l3.88-1.455l4.203-3.557
	l4.365-2.102l0.647-3.072l3.88-3.88l0.647-0.162c0,0,0,1.132,0.808,1.132s1.94,0.323,1.94,0.323l2.263-3.557l2.102-0.647
	l2.263,0.323l1.617-3.557l2.91-2.587l0.485-2.102l0.188-3.648l4.276-0.022l7.199-0.856l15.757-2.252l15.136-2.087l21.641-4.719
	l19.983-4.259l11.177-2.406L834.982,294.316L834.982,294.316z M839.252,327.522l2.587-2.506l3.152-2.587l1.536-0.647l0.162-2.021
	l-0.647-6.143l-1.455-2.344l-0.647-1.859l0.727-0.242l2.748,5.496l0.404,4.446l-0.162,3.395l-3.395,1.536l-2.829,2.425l-1.132,1.212
	L839.252,327.522L839.252,327.522z"/>
<path id="DC" fill="#F1F1F1" stroke="#FFFFFF" stroke-width="0.75" d="M805.819,250.844l-1.858-1.824l-1.233-0.686l1.443-2.022
	l2.889,1.949L805.819,250.844L805.819,250.844z"/>
<path id="MA" fill="#F1F1F1" stroke="#FFFFFF" stroke-width="0.75" d="M899.623,173.254l2.172-0.686l0.457-1.715l1.029,0.114
	l1.029,2.286l-1.257,0.457l-3.887,0.114L899.623,173.254L899.623,173.254z M890.25,174.054l2.286-2.629h1.6l1.829,1.486
	l-2.401,1.029l-2.172,1.029L890.25,174.054L890.25,174.054z M855.451,152.066l17.647-4.641l2.263-0.647l1.914-2.796l3.737-1.663
	l2.889,4.413l-2.425,5.173l-0.323,1.455l1.94,2.587l1.132-0.808h1.778l2.263,2.587l3.88,5.981l3.557,0.485l2.263-0.97l1.778-1.778
	l-0.808-2.748l-2.102-1.617l-1.455,0.808l-0.97-1.293l0.485-0.485l2.102-0.162l1.778,0.808l1.94,2.425l0.97,2.91l0.323,2.425
	l-4.203,1.455l-3.88,1.94l-3.88,4.527l-1.94,1.455v-0.97l2.425-1.455l0.485-1.778l-0.808-3.072l-2.91,1.455l-0.808,1.455
	l0.485,2.263l-2.066,1l-2.747-4.527l-3.395-4.365l-2.07-1.812l-6.533,1.876l-5.092,1.051l-20.675,4.592l-0.668-4.768l0.647-10.589
	l4.289-0.889L855.451,152.066L855.451,152.066z"/>
<path id="TN" fill="#F1F1F1" stroke="#FFFFFF" stroke-width="0.75" d="M696.678,318.254l-51.893,5.012l-15.76,1.778l-4.621,0.513
	l-3.868-0.028l-0.221,4.101l-8.185,0.264l-6.951,0.647l-8.091-0.124l-1.414,7.073l-1.696,5.48l-3.293,2.751l-1.349,4.381
	l-0.323,2.587l-4.042,2.263l1.455,3.557l-0.97,4.365l-0.968,0.79l108.159-10.408l0.403-3.955l1.811-1.49l2.834-0.749l0.672-3.717
	l4.099-2.705l4.047-1.494l4.084-3.57l4.436-2.025l0.521-3.067l4.065-3.985l0.551-0.114c0,0,0.031,1.132,0.84,1.132
	c0.808,0,1.94,0.355,1.94,0.355l2.263-3.588l2.07-0.647l2.275,0.295l1.598-3.533l2.955-2.644l0.422-1.939l0.309-3.711l-2.147-0.2
	l-2.602,2.028l-6.993,0.029l-18.359,2.387L696.678,318.254L696.678,318.254z"/>
<path id="AR" fill="#F1F1F1" stroke="#FFFFFF" stroke-width="0.75" d="M593.825,343.053l-3.98,0.717l-5.112-0.634l0.421-1.602
	l2.98-2.567l0.943-3.656l-1.829-2.972l-78.418,2.515l1.6,6.859v8.23l1.372,10.974l0.229,37.837l2.286,1.943l2.972-1.372l2.743,1.143
	l0.68,6.573l55.621-1.141l1.146-2.09l-0.287-3.549l-1.826-2.972l1.599-1.485l-1.599-2.512l0.684-2.51l1.368-5.605l2.518-2.063
	l-0.686-2.285l3.658-5.372l2.743-1.368l-0.113-1.494l-0.345-1.826l2.857-5.599l2.403-1.257l0.384-3.428l1.771-1.242l-3.143-0.484
	l-1.341-4.01l2.804-2.377l0.55-2.019l1.279-4.047L593.825,343.053L593.825,343.053z"/>
<path id="MO" fill="#F1F1F1" stroke="#FFFFFF" stroke-width="0.75" d="M558.44,248.113l-2.52-3.087l-1.143-2.286l-64.357,2.401
	l-2.286,0.114l1.257,2.515l-0.229,2.286l2.515,3.887l3.086,4.115l3.086,2.743l2.161,0.229l1.497,0.914v2.972l-1.829,1.6
	l-0.457,2.286l2.058,3.429l2.515,2.972l2.515,1.829l1.372,11.66l0.314,36.072l0.229,4.687l0.457,5.384l22.433-0.867l23.206-0.686
	l20.805-0.801l11.655-0.23l2.169,3.426l-0.684,3.307l-3.087,2.403l-0.572,1.837l5.378,0.457l3.895-0.686l1.717-5.494l0.651-5.857
	l2.098-2.555l2.596-1.487l0.051-3.05l1.016-1.936l-1.694-2.544l-1.331,0.984l-1.993-2.227l-1.285-4.759l0.801-2.518l-1.944-3.428
	l-1.831-4.576l-4.799-0.799l-6.969-5.599l-1.719-4.114l0.799-3.201l2.059-6.058l0.459-2.864l-1.949-1.031l-6.855-0.798l-1.028-1.712
	l-0.112-4.23l-5.487-3.431l-6.976-7.772l-2.286-7.316l-0.23-4.225L558.44,248.113L558.44,248.113z"/>
<path id="GA" fill="#F1F1F1" stroke="#FFFFFF" stroke-width="0.75" d="M672.292,355.552v2.182l0.162,2.102l0.647,3.395l3.395,7.921
	l2.425,9.861l1.455,6.143l1.617,4.85l1.455,6.951l2.102,6.305l2.587,3.395l0.485,3.395l1.94,0.808l0.162,2.102l-1.778,4.85
	l-0.485,3.233l-0.162,1.94l1.617,4.365l0.323,5.335l-0.808,2.425l0.647,0.808l1.455,0.808l0.205,3.218l2.233,3.35l2.25,2.162
	l7.921,0.162l10.82-0.647l21.512-1.293l5.446-0.674l4.577,0.028l0.162,2.91l2.587,0.808l0.323-4.365l-1.617-4.526l1.132-1.617
	l5.82,0.808l4.977,0.318l-0.775-6.299l2.263-10.023l1.455-4.203l-0.485-2.587l3.334-6.244l-0.51-1.352l-1.913,0.705l-2.587-1.293
	l-0.647-2.102l-1.293-3.557l-2.263-2.102l-2.587-0.647l-1.617-4.85l-2.925-6.335l-4.203-1.94l-2.102-1.94l-1.293-2.587l-2.102-1.94
	l-2.263-1.293l-2.263-2.91l-3.072-2.263l-4.526-1.778l-0.485-1.455l-2.425-2.91l-0.485-1.455l-3.395-4.97l-3.52,0.099l-3.755-2.356
	l-1.418-1.293l-0.323-1.778l0.871-1.94l2.227-1.11l-0.634-2.097L672.292,355.552L672.292,355.552z"/>
<path id="SC" fill="#F1F1F1" stroke="#FFFFFF" stroke-width="0.75" d="M764.943,408.165l-1.777,0.97l-2.587-1.293l-0.647-2.102
	l-1.293-3.557l-2.263-2.102l-2.587-0.647l-1.617-4.85l-2.748-5.981l-4.203-1.94l-2.102-1.94l-1.293-2.587l-2.102-1.94l-2.263-1.293
	l-2.263-2.91l-3.072-2.263l-4.526-1.778l-0.485-1.455l-2.425-2.91l-0.485-1.455l-3.395-5.173l-3.395,0.162l-4.042-2.425
	l-1.293-1.293l-0.323-1.778l0.808-1.94l2.263-0.97l-0.511-2.289l5.768-2.337l9.115-4.589l7.775-0.808l16.114-0.422l2.638,1.877
	l1.679,3.358l4.302-0.61l12.61-1.455l2.91,0.808l12.61,7.598l10.108,8.122l-5.421,5.458l-2.587,6.143l-0.485,6.305l-1.617,0.808
	l-1.132,2.748l-2.425,0.647l-2.102,3.557l-2.748,2.748l-2.263,3.395l-1.617,0.808l-3.557,3.395l-2.91,0.162l0.97,3.233l-5.011,5.496
	L764.943,408.165L764.943,408.165z"/>
<path id="KY" fill="#F1F1F1" stroke="#FFFFFF" stroke-width="0.75" d="M725.994,295.271l-2.293,2.402l-3.578,3.994l-4.925,5.465
	l-1.216,1.716l-0.062,2.102l-4.38,2.164l-5.658,3.395l-7.232,1.799l-51.868,4.899l-15.76,1.778l-4.621,0.513l-3.868-0.028
	l-0.227,4.22l-8.179,0.145l-6.951,0.647l-7.987-0.06l1.208-1.32l2.5-1.541l0.229-3.201l0.914-1.829l-1.607-2.539l0.802-1.907
	l2.263-1.778l2.102-0.647l2.748,1.293l3.557,1.293l1.132-0.323l0.162-2.263l-1.293-2.425l0.323-2.263l1.94-1.455l2.587-0.647
	l1.617-0.647l-0.808-1.778l-0.647-1.94l1.507-0.996c0.003-0.037,1.254-3.522,1.238-3.658l3.053-1.479l5.32-0.97l4.494-0.485
	l1.392,1.627l1.528,0.871l1.591-3.108l3.187-1.283l2.205,1.484l0.411,0.999l1.174-0.264l-0.162-2.953l3.131-1.749l2.148-1.073
	l1.529,1.661l3.318-0.044l0.587-1.571l-0.367-2.263l2.601-3.999l4.777-3.438l0.706-4.836l2.925-0.456l3.791-1.646l2.443-1.708
	l-0.198-1.565l-1.142-1.455l0.566-2.995l4.185-0.117l2.3-0.746l3.347,1.429l2.054,4.365l5.132,0.011l2.051,2.208l1.615-0.148
	l2.602-1.278l5.237,0.573l2.575,0.217l1.688-2.056l2.618-1.426l1.882-0.707l0.647,2.837l2.043,1.058l2.643,2.082l0.117,5.673
	l0.808,1.572l2.59,1.556l0.772,2.294l4.16,3.437l1.805,3.623L725.994,295.271L725.994,295.271z"/>
<path id="AL" fill="#F1F1F1" stroke="#FFFFFF" stroke-width="0.75" d="M631.306,460.416l-1.491-14.322l-2.748-18.753l0.162-14.064
	l0.808-31.039l-0.162-16.651l0.165-6.419l44.484-3.619l-0.148,2.182l0.162,2.102l0.647,3.395l3.395,7.921l2.425,9.861l1.455,6.143
	l1.617,4.85l1.455,6.951l2.102,6.305l2.587,3.395l0.485,3.395l1.94,0.808l0.162,2.102l-1.778,4.85l-0.485,3.233l-0.162,1.94
	l1.617,4.365l0.323,5.335l-0.808,2.425l0.647,0.808l1.455,0.808l0.328,2.889l-5.598-0.354l-6.79,0.647l-25.542,2.91l-10.412,1.407
	l-0.221,2.877l1.778,1.778l2.587,1.94l0.581,7.935l-5.542,2.573l-2.748-0.323l2.748-1.94v-0.97l-3.072-5.981l-2.263-0.647
	l-1.455,4.365l-1.293,2.748l-0.647-0.162L631.306,460.416L631.306,460.416z"/>
<path id="LA" fill="#F1F1F1" stroke="#FFFFFF" stroke-width="0.75" d="M607.967,459.161l-3.285-3.166l1.01-5.5l-0.661-0.893
	l-9.262,1.007l-25.028,0.459l-0.684-2.395l0.913-8.456l3.316-5.946l5.031-8.691l-0.574-2.398l1.257-0.681l0.459-1.952l-2.286-2.056
	l-0.112-1.942l-1.831-4.346l-0.147-6.339l-55.474,0.924l0.029,9.574l0.686,9.374l0.686,3.887l2.515,4.115l0.914,5.03l4.344,5.487
	l0.229,3.201l0.686,0.686l-0.686,8.459l-2.972,5.03l1.6,2.058l-0.686,2.515l-0.686,7.316l-1.372,3.201l0.122,3.616l4.686-1.52
	l12.113,0.207l10.346,3.557l6.466,1.132l3.718-1.455l3.233,1.132l3.233,0.97l0.808-2.102l-3.233-1.132l-2.587,0.485l-2.748-1.617
	c0,0,0.162-1.293,0.808-1.455c0.647-0.162,3.072-0.97,3.072-0.97l1.778,1.455l1.778-0.97l3.233,0.647l1.455,2.425l0.323,2.263
	l4.526,0.323l1.778,1.778L580,487.106l-1.293,0.808l1.617,1.617l8.406,3.557l3.557-1.293l0.97-2.425l2.587-0.647l1.778-1.455
	l1.293,0.97l0.808,2.91l-2.263,0.808l0.647,0.647l3.395-1.293l2.263-3.395l0.808-0.485l-2.102-0.323l0.808-1.617l-0.162-1.455
	l2.102-0.485l1.132-1.293l0.647,0.808c0,0-0.162,3.072,0.647,3.072c0.808,0,4.203,0.647,4.203,0.647l4.042,1.94l0.97,1.455h2.91
	l1.132,0.97l2.263-3.072v-1.455h-1.293l-3.395-2.748l-5.82-0.808l-3.233-2.263l1.132-2.748l2.263,0.323l0.162-0.647l-1.778-0.97
	v-0.485h3.233l1.778-3.072l-1.293-1.94l-0.323-2.748l-1.455,0.162l-1.94,2.102l-0.647,2.587l-3.072-0.647l-0.97-1.778l1.778-1.94
	l1.903-3.446l-1.061-2.412L607.967,459.161L607.967,459.161z"/>
<path id="MS" fill="#F1F1F1" stroke="#FFFFFF" stroke-width="0.75" d="M631.559,459.345l-0.254,1.256h-5.173l-1.455-0.808
	l-2.102-0.323l-6.79,1.94l-1.778-0.808l-2.587,4.203l-1.103,0.778l-1.124-2.488l-1.143-3.887l-3.429-3.201l1.143-5.545l-0.686-0.914
	l-1.829,0.229l-7.918,0.873l-24.547,0.373l-0.77-2.225l0.873-8.377l3.117-5.673l5.227-9.145l-0.446-2.433l1.237-0.656l0.436-1.919
	l-2.318-2.079l-0.115-2.141l-1.836-4.121l-0.109-5.963l1.328-2.481l-0.223-3.416l-1.769-3.083l1.526-1.482l-1.571-2.5l0.457-1.652
	l1.577-6.526l2.486-2.036l-0.642-2.367l3.658-5.303l2.832-1.356l-0.221-1.675l-0.288-1.681l2.876-5.568l2.346-1.232l0.152-0.893
	l37.344-3.881l0.185,6.283l0.162,16.651l-0.808,31.039l-0.162,14.064l2.748,18.753L631.559,459.345L631.559,459.345z"/>
<path id="IA" fill="#F1F1F1" stroke="#FFFFFF" stroke-width="0.75" d="M569.192,199.584l0.264,2.786l2.224,0.577l0.954,1.225
	l0.5,1.855l3.793,3.359l0.686,2.391l-0.674,3.424l-1.582,3.232l-0.799,2.742l-2.173,1.602l-1.716,0.572l-5.579,1.86l-1.391,3.849
	l0.729,1.372l1.841,1.683l-0.283,4.036l-1.763,1.538l-0.771,1.643l0.127,2.776l-1.886,0.457l-1.625,1.105l-0.279,1.353l0.279,2.115
	l-1.551,1.116l-2.471-3.133l-1.263-2.45l-65.736,2.515l-0.918,0.165l-2.052-4.516l-0.229-6.63l-1.6-4.115l-0.686-5.258l-2.286-3.658
	l-0.914-4.801l-2.743-7.545l-1.143-5.373l-1.372-2.172l-1.6-2.743l1.954-4.844l1.372-5.716l-2.743-2.058l-0.457-2.743l0.914-2.515
	h1.715l82.654-1.269l0.834,4.183l2.252,1.561l0.257,1.423l-2.03,3.389l0.19,3.206l2.515,3.798l2.527,1.294l3.079,0.503
	L569.192,199.584L569.192,199.584z"/>
<path id="MN" fill="#F1F1F1" stroke="#FFFFFF" stroke-width="0.75" d="M475.238,128.824l-0.457-8.459l-1.829-7.316l-1.829-13.489
	l-0.457-9.831l-1.829-3.429l-1.6-5.03V70.983l0.686-3.887l-1.821-5.452l30.132,0.035l0.323-8.245l0.647-0.162l2.263,0.485
	l1.94,0.808l0.808,5.496l1.455,6.143l1.617,1.617h4.85l0.323,1.455l6.305,0.323v2.102h4.85l0.323-1.293l1.132-1.132l2.263-0.647
	l1.293,0.97h2.91l3.88,2.587l5.335,2.425l2.425,0.485l0.485-0.97l1.455-0.485l0.485,2.91l2.587,1.293l0.485-0.485l1.293,0.162v2.102
	l2.587,0.97h3.072l1.617-0.808l3.233-3.233l2.587-0.485l0.808,1.778l0.485,1.293h0.97l0.97-0.808l8.891-0.323l1.778,3.072h0.647
	l0.714-1.084l4.44-0.371l-0.612,2.279l-3.939,1.837l-9.246,4.061l-4.775,2.007l-3.072,2.587l-2.425,3.557l-2.263,3.88l-1.778,0.808
	l-4.526,5.011l-1.293,0.162l-4.328,2.757l-2.463,3.205l-0.229,3.191l0.094,8.043l-1.376,1.689l-5.082,3.76l-2.23,5.982l2.872,2.234
	l0.68,3.227l-1.855,3.239l0.171,3.748l0.369,6.73l3.028,3.002h3.329l1.891,3.133l3.379,0.503l3.859,5.671l7.087,4.117l2.143,2.875
	l0.671,6.44l-81.211,1.145l-0.338-35.677l-0.457-2.972l-4.115-3.429l-1.143-1.829v-1.6l2.058-1.6l1.372-1.372L475.238,128.824
	L475.238,128.824z"/>
<path id="OK" fill="#F1F1F1" stroke="#FFFFFF" stroke-width="0.75" d="M380.343,320.821l-16.684-1.273l-0.88,10.952l20.465,1.157
	l32.056,1.304l-2.335,24.419l-0.457,17.833l0.229,1.6l4.344,3.658l2.058,1.143l0.686-0.229l0.686-2.058l1.372,1.829h2.058v-1.372
	l2.743,1.372l-0.457,3.887l4.115,0.229l2.515,1.143l4.115,0.686l2.515,1.829l2.286-2.058l3.429,0.686l2.515,3.429h0.914v2.286
	l2.286,0.686l2.286-2.286l1.829,0.686h2.515l0.914,2.515l6.301,2.079l1.372-0.686l1.829-4.115h1.143l1.143,2.058l4.115,0.686
	l3.658,1.372l2.972,0.914l1.829-0.914l0.686-2.515h4.344l2.058,0.914l2.743-2.058h1.143l0.686,1.6h4.115l1.6-2.058l1.829,0.457
	l2.058,2.515l3.201,1.829l3.201,0.914l1.941,1.119l-0.389-37.217l-1.372-10.974l-0.16-8.872l-1.44-6.538l-0.778-7.18l-0.068-3.816
	l-12.137,0.319l-46.41-0.457l-45.039-2.058L380.343,320.821L380.343,320.821z"/>
<path id="TX" fill="#F1F1F1" stroke="#FFFFFF" stroke-width="0.75" d="M361.464,330.574l22.691,1.086l31.093,1.143l-2.335,23.456
	l-0.297,18.154l0.068,2.082l4.344,3.818l1.987,1.447l1.184-0.56l0.373-1.818l1.14,1.804l2.112,0.044l-0.003-1.447l1.67,0.967
	l1.139,0.409l-0.359,3.968l4.088,0.094l2.925,1.197l3.955,0.525l2.381,2.079l2.124-2.076l3.725,0.615l2.221,3.225l1.075,0.321
	l-0.16,1.965l2.214,0.792l2.33-2.055l2.133,0.615l2.229,0.035l0.933,2.435l6.328,2.114l1.593-0.767l1.489-4.178h0.341l0.906,0.082
	l1.229,2.069l3.93,0.665l3.337,1.123l3.426,1.196l1.841-0.975l0.714-2.515l4.453,0.044l1.809,0.931l2.799-2.107l1.104,0.044
	l0.851,1.605h4.055l1.519-2.029l1.867,0.407l1.946,2.403l3.521,2.044l2.859,0.81l1.514,0.8l2.447,1.997l3.043-1.328l2.691,1.139
	l0.564,6.106l-0.04,9.702l0.686,9.534l0.702,3.605l2.675,4.42l0.898,4.951l4.216,5.538l0.196,3.145l0.746,0.786l-0.73,8.38
	l-2.872,5.007l1.533,2.153l-0.63,2.338l-0.67,7.404l-1.504,3.338l0.295,3.502l-5.665,1.585l-9.861,4.526l-0.97,1.94l-2.587,1.94
	l-2.102,1.455l-1.293,0.808l-5.658,5.335l-2.748,2.102l-5.335,3.233l-5.658,2.425l-6.305,3.395l-1.778,1.455l-5.82,3.557
	l-3.395,0.647l-3.88,5.496l-4.042,0.323l-0.97,1.94l2.263,1.94l-1.455,5.496l-1.293,4.526l-1.132,3.88l-0.808,4.526l0.808,2.425
	l1.778,6.951l0.97,6.143l1.778,2.748l-0.97,1.455l-3.072,1.94l-5.658-3.88l-5.496-1.132l-1.293,0.485l-3.233-0.647l-4.203-3.072
	l-5.173-1.132l-7.598-3.395l-2.102-3.88l-1.293-6.466l-3.233-1.94l-0.647-2.263l0.647-0.647l0.323-3.395l-1.293-0.647l-0.647-0.97
	l1.293-4.365l-1.617-2.263l-3.233-1.293l-3.395-4.365l-3.557-6.628l-4.203-2.587l0.162-1.94l-5.335-12.286l-0.808-4.203l-1.778-1.94
	l-0.162-1.455l-5.981-5.335l-2.587-3.072v-1.132l-2.587-2.102l-6.79-1.132l-7.436-0.647l-3.072-2.263l-4.526,1.778l-3.557,1.455
	l-2.263,3.233l-0.97,3.718l-4.365,6.143l-2.425,2.425l-2.587-0.97l-1.778-1.132l-1.94-0.647l-3.88-2.263v-0.647l-1.778-1.94
	l-5.173-2.102l-7.436-7.76l-2.263-4.688v-8.083l-3.233-6.466l-0.485-2.748l-1.617-0.97l-1.132-2.102l-5.011-2.102l-1.293-1.617
	l-7.113-7.921l-1.293-3.233l-4.688-2.263l-1.455-4.365l-2.587-2.91l-1.94-0.485l-0.649-4.678l8.002,0.686l29.035,2.743l29.035,1.6
	l2.234-19.462l3.887-55.555l1.6-18.747l1.372,0.029 M461.694,560.208l-0.566-7.113l-2.748-7.194l-0.566-7.032l1.536-8.245
	l3.314-6.871l3.476-5.416l3.152-3.557l0.647,0.242l-4.769,6.628l-4.365,6.547l-2.021,6.628L458.46,540l0.889,6.143l2.587,7.194
	l0.485,5.173l0.162,1.455L461.694,560.208L461.694,560.208z"/>
<path id="NM" fill="#F1F1F1" stroke="#FFFFFF" stroke-width="0.75" d="M288.153,424.013l-0.775-4.748l8.644,0.525l30.172,2.946
	l27.268,1.69l2.215-18.707l3.857-55.876l1.738-19.389l1.572,0.129l0.825-11.163l-104.004-10.636l-17.497,120.435l15.461,1.989
	l1.293-10.023L288.153,424.013L288.153,424.013z"/>
<path id="KS" fill="#F1F1F1" stroke="#FFFFFF" stroke-width="0.75" d="M507.881,324.38l-12.618,0.204l-46.089-0.457l-44.557-2.058
	l-24.63-1.257l3.894-64.595l22.083,0.675l40.289,0.841l44.301,0.988h5.096l2.184,2.162l2.018-0.021l1.64,1.012l-0.062,3.009
	l-1.829,1.725l-0.332,2.232l1.843,3.402l2.952,3.195l2.327,1.614l1.301,11.241L507.881,324.38L507.881,324.38z"/>
<path id="NE" fill="#F1F1F1" stroke="#FFFFFF" stroke-width="0.75" d="M486.098,240.701l3.231,7.02l-0.129,2.303l3.459,5.494
	l2.719,3.152h-5.049l-43.483-0.939l-40.787-0.89l-22.252-0.784l1.073-21.328l-32.318-2.92l4.344-44.01l15.546,1.029l20.119,1.143
	l17.833,1.143l23.777,1.143l10.745-0.457l2.058,2.286l4.801,2.972l1.143,0.914l4.344-1.372l3.887-0.457l2.743-0.229l1.829,1.372
	l4.057,1.6l2.972,1.6l0.457,1.6l0.914,2.058h1.829l0.798,0.046l0.894,4.682l2.92,8.468l0.573,3.757l2.523,3.774l0.57,5.114
	l1.607,4.24L486.098,240.701L486.098,240.701z"/>
<path id="SD" fill="#F1F1F1" stroke="#FFFFFF" stroke-width="0.75" d="M476.447,204.025l-0.047-0.581l-2.896-4.845l1.86-4.712
	l1.493-5.887l-2.782-2.08l-0.385-2.743l0.792-2.554l3.189,0.015l-0.123-5.006l-0.333-30.174l-0.618-3.768l-4.072-3.331l-0.983-1.677
	l-0.062-1.609l2.022-1.529l1.532-1.666l0.245-2.657l-58.257-1.6l-54.799-3.449l-5.325,63.691l14.59,0.904l19.95,1.206l17.743,0.929
	l23.777,1.304l11.983-0.425l1.966,2.245l5.195,3.253l0.764,0.723l4.541-1.453l6.541-0.615l1.675,1.336l4.204,1.596l2.945,1.636
	l0.399,1.484l1.039,2.241L476.447,204.025L476.447,204.025z"/>
<path id="ND" fill="#F1F1F1" stroke="#FFFFFF" stroke-width="0.75" d="M475.305,128.918l-0.615-8.434l-1.677-6.816l-1.891-13.024
	l-0.457-10.987l-1.739-3.077l-1.757-5.194l0.031-10.444l0.623-3.824l-1.834-5.468l-28.642-0.564l-18.591-0.647l-26.512-1.293
	l-22.946-2.134l-6.993,67.177l54.932,3.344L475.305,128.918L475.305,128.918z"/>
<path id="WY" fill="#F1F1F1" stroke="#FFFFFF" stroke-width="0.75" d="M360.377,143.276l-106.743-13.457l-14.083,88.458
	l113.265,13.585L360.377,143.276z"/>
<path id="MT" fill="#F1F1F1" stroke="#FFFFFF" stroke-width="0.75" d="M369.21,56.969l-30.674-2.808l-29.261-3.557l-29.261-4.042
	l-32.332-5.335l-18.429-3.395l-32.724-6.933l-4.479,21.348l3.429,7.545l-1.372,4.572l1.829,4.572l3.201,1.372l4.621,10.769
	l2.695,3.177l0.457,1.143l3.429,1.143l0.457,2.058l-7.087,17.604v2.515l2.515,3.201h0.914l4.801-2.972l0.686-1.143l1.6,0.686
	l-0.229,5.258l2.743,12.574l2.972,2.515l0.914,0.686l1.829,2.286L222,135.238l0.686,3.429l1.143,0.915l2.286-2.286h2.743l3.201,1.6
	l2.515-0.914h4.115l3.658,1.6l2.743-0.457l0.457-2.972l2.972-0.686l1.372,1.372l0.457,3.201l1.426,0.835l1.887-11.035
	l106.746,13.429L369.21,56.969L369.21,56.969z"/>
<path id="CO" fill="#F1F1F1" stroke="#FFFFFF" stroke-width="0.75" d="M380.032,320.965l4.903-86.325l-113.389-12.644
	l-12.214,87.939L380.032,320.965z"/>
<path id="ID" fill="#F1F1F1" stroke="#FFFFFF" stroke-width="0.75" d="M148.479,176.484l8.771-35.221l1.372-4.23l2.515-5.944
	l-1.257-2.286l-2.515,0.114l-0.8-1.029l0.457-1.143l0.343-3.086l4.458-5.487l1.829-0.457l1.143-1.143l0.572-3.201l0.914-0.686
	l3.887-5.83l3.887-4.344l0.229-3.772l-3.429-2.629l-1.536-4.401l13.625-63.342l13.518,2.528l-4.408,21.383l3.56,7.485l-1.581,4.661
	l1.97,4.641l3.138,1.255l3.835,9.557l3.513,4.437l0.507,1.143l3.341,1.143l0.369,2.097l-6.971,17.376l-0.165,2.566l2.631,3.322
	l0.905-0.049l4.911-3.026l0.677-1.095l1.562,0.659l-0.278,5.354l2.739,12.583l3.918,3.178l1.681,2.165l-0.717,4.084l1.066,2.807
	l1.062,1.091l2.479-2.351l2.848,0.049l2.919,1.335l2.78-0.682l3.794-0.16l3.979,1.6l2.743-0.297l0.497-3.037l2.933-0.765l1.26,1.516
	l0.441,2.945l1.424,1.213l-8.386,53.609C243.438,194.688,155.472,177.988,148.479,176.484L148.479,176.484z"/>
<path id="UT" fill="#F1F1F1" stroke="#FFFFFF" stroke-width="0.75" d="M259.498,310.105l-83.749-11.872l20.588-112.541l46.78,8.745
	l-1.485,10.63l-2.312,13.173l7.808,0.928l16.407,1.805l8.211,0.856L259.498,310.105z"/>
<path id="AZ" fill="#F1F1F1" stroke="#FFFFFF" stroke-width="0.75" d="M144.911,382.629l-2.627,2.158l-0.323,1.455l0.485,0.97
	l18.914,10.67l12.125,7.598l14.711,8.568l16.813,10.023l12.286,2.425l24.951,2.705l17.256-119.127l-83.736-11.917l-3.092,16.412
	l-1.606,0.015l-1.715,2.629l-2.515-0.114l-1.257-2.743l-2.743-0.343l-0.915-1.143h-0.914l-0.915,0.572l-1.943,1.029l-0.114,6.973
	l-0.229,1.715l-0.572,12.574l-1.486,2.172l-0.572,3.315l2.743,4.915l1.257,5.83l0.8,1.029l1.029,0.572l-0.114,2.286l-1.6,1.372
	l-3.429,1.715l-1.943,1.943l-1.486,3.658l-0.572,4.915l-2.858,2.743l-2.058,0.686l0.136,0.83l-0.457,1.715l0.457,0.8l3.658,0.572
	l-0.572,2.743l-1.486,2.172L144.911,382.629L144.911,382.629z"/>
<path id="NV" fill="#F1F1F1" stroke="#FFFFFF" stroke-width="0.75" d="M196.393,185.576l-23.639,128.823l-1.832,0.349l-1.573,2.406
	l-2.373,0.011l-1.472-2.743l-2.618-0.378l-0.771-1.108l-1.038-0.054l-2.778,1.644l-0.31,6.785l-0.362,5.777l-0.349,8.593
	l-1.447,2.089l-2.439-1.074l-69.08-104.201l18.989-67.585L196.393,185.576L196.393,185.576z"/>
<path id="OR" fill="#B51F24" stroke="#FFFFFF" stroke-width="0.75" d="M148.722,175.532l8.85-34.802l1.051-4.23l2.354-5.623
	l-0.616-1.163l-2.515-0.046l-1.282-1.671l0.457-1.464l0.503-3.247l4.458-5.487l1.829-1.099l1.143-1.143l1.486-3.566l4.047-5.669
	l3.566-3.862l0.229-3.451l-3.269-2.469l-1.783-4.643l-12.664-3.612l-15.089-3.544l-15.432,0.114l-0.457-1.372l-5.487,2.058
	l-4.458-0.572l-2.401-1.6l-1.257,0.686l-4.687-0.229l-1.715-1.372l-5.258-2.058l-0.8,0.114l-4.344-1.486l-1.943,1.829l-6.173-0.343
	l-5.944-4.115l0.686-0.8l0.229-7.773l-2.286-3.887l-4.115-0.572l-0.686-2.515l-2.354-0.467l-5.799,2.059l-2.263,6.466L61.3,78.932
	l-3.233,6.466l-5.011,14.064l-6.466,13.579l-8.083,12.61l-1.94,2.91l-0.808,8.568l0.386,12.08L148.722,175.532L148.722,175.532z"/>
<path id="WA" fill="#F1F1F1" stroke="#FFFFFF" stroke-width="0.75" d="M102.073,7.612l4.365,1.455l9.7,2.748l8.568,1.94
	l20.046,5.658l22.956,5.658l15.223,3.207l-13.632,63.586l-12.445-3.525l-15.508-3.571l-15.229,0.033l-0.456-1.345l-5.599,2.179
	l-4.595-0.737l-2.147-1.584l-1.313,0.658l-4.736-0.14l-1.698-1.35l-5.263-2.112l-0.735,0.147l-4.389-1.524l-1.893,1.817
	l-6.266-0.299l-5.926-4.126l0.779-0.933L82,67.776l-2.282-3.84l-4.115-0.607l-0.677-2.511l-2.276-0.457l-3.555,1.231l-2.263-3.219
	l0.323-2.91l2.748-0.323l1.617-4.042l-2.587-1.132l0.162-3.718l4.365-0.647l-2.748-2.748l-1.455-7.113l0.647-2.91v-7.921
	l-1.778-3.233l2.263-9.376l2.102,0.485l2.425,2.91l2.748,2.587l3.233,1.94l4.526,2.102l3.072,0.647l2.91,1.455l3.395,0.97
	l2.263-0.162v-2.425l1.293-1.132l2.102-1.293l0.323,1.132l0.323,1.778l-2.263,0.485l-0.323,2.102l1.778,1.455l1.132,2.425
	l0.647,1.94l1.455-0.162l0.162-1.293l-0.97-1.293l-0.485-3.233l0.808-1.778l-0.647-1.455v-2.263l1.778-3.557l-1.132-2.587
	l-2.425-4.85l0.323-0.808L102.073,7.612L102.073,7.612z M92.617,13.591l2.021-0.162l0.485,1.374l1.536-1.617h2.344l0.808,1.536
	l-1.536,1.697l0.647,0.808l-0.727,2.021l-1.374,0.404c0,0-0.889,0.081-0.889-0.242c0-0.323,1.455-2.587,1.455-2.587l-1.697-0.566
	l-0.323,1.455l-0.727,0.647l-1.536-2.263L92.617,13.591z"/>
<path id="CA" fill="#F1F1F1" stroke="#FFFFFF" stroke-width="0.75" d="M144.694,382.198l3.94-0.489l1.486-2.011l0.545-2.941
	l-3.552-0.59l-0.514-0.668l0.477-2.032l-0.159-0.59l1.923-0.62l3.043-2.833l0.582-4.995l1.38-3.402l1.943-2.166l3.519-1.59
	l1.654-1.605l0.069-2.109l-0.993-0.58l-1.023-1.073l-1.155-5.848l-2.685-4.83l0.566-3.505l-2.42-1.029L84.258,232.514l18.902-67.601
	l-67.08-15.698l-1.507,4.733l-0.162,7.436l-5.173,11.801l-3.072,2.587l-0.323,1.132l-1.778,0.808l-1.455,4.203l-0.808,3.233
	l2.748,4.203l1.617,4.203l1.132,3.557l-0.323,6.466l-1.778,3.072l-0.647,5.82l-0.97,3.718l1.778,3.88l2.748,4.526l2.263,4.85
	l1.293,4.042l-0.323,3.233l-0.323,0.485v2.102l5.658,6.305l-0.485,2.425l-0.647,2.263l-0.647,1.94l0.162,8.245l2.102,3.718
	l1.94,2.587l2.748,0.485l0.97,2.748l-1.132,3.557l-2.102,1.617h-1.132l-0.808,3.88l0.485,2.91l3.233,4.365l1.617,5.335l1.455,4.688
	l1.293,3.072l3.395,5.82l1.455,2.587l0.485,2.91l1.617,0.97v2.425l-0.808,1.94l-1.778,7.113l-0.485,1.94l2.425,2.748l4.203,0.485
	l4.526,1.778l3.88,2.102h2.91l2.91,3.072l2.587,4.85l1.132,2.263l3.88,2.102l4.85,0.808l1.455,2.102l0.647,3.233l-1.455,0.647
	l0.323,0.97l3.233,0.808l2.748,0.162l3.16-1.687l3.88,4.203l0.808,2.263l2.587,4.203l0.323,3.233v9.376l0.485,1.778l10.023,1.455
	l19.723,2.748L144.694,382.198L144.694,382.198z M56.559,338.481l1.293,1.536l-0.162,1.293l-3.233-0.081l-0.566-1.212l-0.647-1.455
	L56.559,338.481L56.559,338.481z M58.499,338.481l1.212-0.647l3.557,2.102l3.072,1.212l-0.889,0.647l-4.527-0.242l-1.617-1.617
	L58.499,338.481L58.499,338.481z M79.192,358.285l1.778,2.344l0.808,0.97l1.536,0.566l0.566-1.455l-0.97-1.778l-2.667-2.021
	l-1.051,0.162V358.285z M77.737,366.934l1.778,3.152l1.212,1.94l-1.455,0.242l-1.293-1.212c0,0-0.727-1.455-0.727-1.859
	s0-2.182,0-2.182L77.737,366.934L77.737,366.934z"/>
<g>
	<path fill="#222222" stroke="#FFFFFF" stroke-width="0.75" d="M313.348,261.896v-16.796c3.074-5.228,5.707-9.129,7.9-11.705
		c2.192-2.575,5.164-5.412,8.913-8.51c1.762-1.665,4.583-3.824,8.463-6.477c3.88-2.652,6.841-4.986,8.885-7
		c2.042-2.014,3.065-4.114,3.065-6.3c0-5.178-3.299-7.767-9.896-7.767c-1.956,0-3.941,0.566-5.955,1.697
		c-2.014,1.132-3.491,2.148-4.43,3.049c-0.94,0.902-2.312,2.292-4.114,4.171l-12.715-13.406c8.4-9.742,18.603-14.614,30.608-14.614
		c8.164,0,15.019,2.359,20.564,7.077c5.545,4.718,8.318,10.952,8.318,18.699c0,6.291-1.407,11.104-4.219,14.441
		c-2.813,3.337-7.929,7.327-15.35,11.967c-3.299,2.11-6.76,4.761-10.385,7.952c-3.625,3.191-6.051,5.93-7.278,8.215h20.835v-9.781
		h19.792v25.085H313.348z"/>
	<path fill="#222222" stroke="#FFFFFF" stroke-width="0.75" d="M380.837,220.298c0-12.504,3.102-22.678,9.306-30.522
		c6.204-7.844,14.254-11.766,24.15-11.766c11.191,0,19.603,3.826,25.237,11.479c5.633,7.652,8.45,18.191,8.45,31.616
		c0,13.195-2.874,23.532-8.622,31.011c-5.748,7.48-13.911,11.22-24.49,11.22c-10.281,0-18.524-3.654-24.727-10.96
		C383.939,245.067,380.837,234.375,380.837,220.298z M404.427,220.298c0,7.134,1.1,13.042,3.298,17.721
		c2.199,4.68,4.581,7.019,7.144,7.019c2.752,0,5.028-2.215,6.826-6.646c1.798-4.43,2.697-10.192,2.697-17.289
		c0-6.981-0.976-12.744-2.926-17.29s-4.379-6.818-7.285-6.818c-2.334-0.076-4.543,2.1-6.626,6.53
		C405.469,207.957,404.427,213.548,404.427,220.298z"/>
	<path fill="#222222" stroke="#FFFFFF" stroke-width="0.75" d="M452.526,195.063c0.307-0.154,1.112-0.548,2.417-1.185
		c1.304-0.636,2.148-1.051,2.532-1.244c0.383-0.192,1.131-0.588,2.244-1.186c1.112-0.597,1.936-1.118,2.474-1.561
		c0.537-0.443,1.323-1.041,2.359-1.792s1.937-1.514,2.705-2.285l2.762-2.776c1.073-1.079,2.128-2.255,3.164-3.528h20.943v67.086
		h10.988v15.304h-47.178v-15.304h11.794v-43.954l-11.794,5.552L452.526,195.063z"/>
	<path fill="#222222" stroke="#FFFFFF" stroke-width="0.75" d="M509.142,238.71v-16.858l33.946-42.346h24.395v46.431h6.271v12.773
		h-6.271v7.882h6.387v15.304h-38.204v-15.304h7.423v-7.882H509.142z M525.654,225.937h17.434v-21.806L525.654,225.937z"/>
	<path fill="#222222" stroke="#FFFFFF" stroke-width="0.75" d="M311.113,320.072v-6.91c1.265-2.151,2.348-3.756,3.25-4.815
		c0.902-1.06,2.125-2.227,3.667-3.502c0.725-0.685,1.886-1.573,3.482-2.665c1.597-1.091,2.815-2.051,3.656-2.879
		c0.84-0.829,1.261-1.693,1.261-2.592c0-2.131-1.357-3.196-4.072-3.196c-0.805,0-1.621,0.233-2.45,0.698
		c-0.829,0.466-1.437,0.884-1.823,1.254c-0.387,0.371-0.951,0.943-1.692,1.716l-5.231-5.516c3.456-4.008,7.653-6.012,12.593-6.012
		c3.359,0,6.179,0.97,8.46,2.912c2.282,1.941,3.423,4.505,3.423,7.693c0,2.588-0.579,4.569-1.736,5.942
		c-1.158,1.373-3.262,3.015-6.315,4.924c-1.357,0.868-2.781,1.959-4.272,3.271c-1.492,1.313-2.49,2.439-2.995,3.38h8.572v-4.024
		h8.143v10.321H311.113z"/>
	<path fill="#222222" stroke="#FFFFFF" stroke-width="0.75" d="M351.426,320.072v-6.297h2.722v-21.304h-2.722v-6.297h15.363v6.297
		h-2.604v21.304h6.273v-6.297h8.143v12.594H351.426z"/>
	<path fill="#222222" stroke="#FFFFFF" stroke-width="0.75" d="M384.381,298.673c2.654-2.272,5.777-3.417,9.369-3.432
		c3.973,0.063,7.211,1.222,9.714,3.479c2.503,2.256,3.787,5.35,3.851,9.279c0,0.048,0,0.095,0,0.142c0,3.85-1.256,6.899-3.767,9.149
		c-2.543,2.266-5.729,3.405-9.56,3.421c-3.783,0-7.009-1.128-9.679-3.385c-2.638-2.225-3.95-5.334-3.934-9.326
		C380.36,304.086,381.695,300.978,384.381,298.673z M390.413,307.858c0,1.965,0.338,3.549,1.014,4.752
		c0.676,1.203,1.534,1.805,2.572,1.805c0.991,0,1.785-0.602,2.382-1.805s0.896-2.739,0.896-4.61s-0.314-3.408-0.943-4.611
		c-0.629-1.202-1.486-1.819-2.571-1.852c-0.928,0-1.718,0.609-2.371,1.828C390.74,304.584,390.413,306.082,390.413,307.858z"/>
	<path fill="#222222" stroke="#FFFFFF" stroke-width="0.75" d="M407.694,307.811c0-4.04,1.144-7.117,3.432-9.232
		c2.288-2.114,5.107-3.172,8.457-3.172c2.5,0,4.526,0.916,6.078,2.746l0.829-2.32h5.705v10.959h-7.125
		c-0.063-1.388-0.336-2.583-0.819-3.586c-0.483-1.002-1.231-1.503-2.244-1.503c-1.362,0-2.415,0.604-3.159,1.811
		s-1.116,2.672-1.116,4.392c0,1.609,0.455,2.959,1.366,4.048c0.91,1.089,2.125,1.649,3.646,1.681c0.031,0,0.071,0,0.119,0
		c2.149,0,4.068-0.924,5.759-2.77l4.261,4.947c-1.263,1.389-2.944,2.561-5.045,3.515c-2.102,0.955-4.385,1.433-6.851,1.433
		c-3.777,0-6.936-1.132-9.478-3.396C408.964,315.098,407.694,311.914,407.694,307.811z"/>
	<path fill="#222222" stroke="#FFFFFF" stroke-width="0.75" d="M434.111,312.828c0-2.789,0.978-5.033,2.935-6.731
		c1.957-1.698,4.34-2.547,7.149-2.547c0.868,0,1.681,0.14,2.438,0.419c0.757,0.279,1.306,0.541,1.645,0.787
		c0.339,0.245,0.572,0.452,0.698,0.621v-1.788c0-1.904-1.531-2.856-4.592-2.856c-2.13,0-4.537,0.775-7.22,2.327l-2.036-5.453
		c3.819-2.114,7.338-3.17,10.558-3.17c1.561,0,3.056,0.161,4.484,0.483c1.428,0.322,2.806,0.836,4.133,1.542
		c1.327,0.707,2.389,1.744,3.185,3.11s1.194,2.96,1.194,4.782v9.422h2.912v6.297h-10.261l-1.143-2.178
		c-0.803,1.104-1.818,1.897-3.046,2.379c-1.228,0.481-2.392,0.722-3.494,0.722c-2.557,0-4.786-0.7-6.687-2.102
		C435.062,317.493,434.111,315.471,434.111,312.828z M443.319,312.343c0,0.696,0.241,1.263,0.722,1.7s1.093,0.656,1.834,0.656
		c0.678,0,1.302-0.17,1.87-0.509c0.568-0.339,0.979-0.731,1.231-1.178v-1.803c-0.553-0.909-1.5-1.364-2.84-1.364
		C444.258,309.83,443.319,310.662,443.319,312.343z"/>
	<path fill="#222222" stroke="#FFFFFF" stroke-width="0.75" d="M463.464,302.129v-6.296h2.32v-4.45l9.208-2.864v7.314h4.332v6.296
		h-4.332v8.641c0,0.126-0.008,0.359-0.023,0.698c-0.016,0.34-0.016,0.607,0,0.805c0.016,0.197,0.031,0.43,0.046,0.698
		c0.015,0.269,0.052,0.485,0.111,0.651c0.059,0.165,0.145,0.335,0.255,0.509c0.111,0.174,0.256,0.304,0.433,0.391
		c0.178,0.087,0.393,0.13,0.645,0.13c0.696,0,1.651-0.275,2.866-0.828v6.296c-0.62,0.227-1.543,0.422-2.768,0.585
		c-1.225,0.162-2.178,0.244-2.858,0.244c-1.465,0-2.691-0.17-3.676-0.509c-0.985-0.34-1.754-0.754-2.308-1.243
		c-0.553-0.489-0.969-1.234-1.246-2.237c-0.277-1.002-0.452-1.905-0.525-2.71s-0.126-1.965-0.159-3.479v-8.641H463.464z"/>
	<path fill="#222222" stroke="#FFFFFF" stroke-width="0.75" d="M481.241,320.072v-6.297h2.036v-11.63h-2.036v-6.313h11.244v17.943
		h2.344v6.297H481.241z M484.141,292.128c-1.018-1.018-1.526-2.143-1.526-3.374c0-1.23,0.474-2.363,1.421-3.396
		c0.946-1.034,2.213-1.551,3.799-1.551s2.785,0.517,3.598,1.551s1.22,2.166,1.22,3.396c0,1.389-0.431,2.553-1.292,3.492
		c-0.861,0.939-2.033,1.409-3.514,1.409C486.394,293.655,485.159,293.146,484.141,292.128z"/>
	<path fill="#222222" stroke="#FFFFFF" stroke-width="0.75" d="M500.562,298.673c2.654-2.272,5.776-3.417,9.369-3.432
		c3.973,0.063,7.211,1.222,9.713,3.479c2.504,2.256,3.787,5.35,3.852,9.279c0,0.048,0,0.095,0,0.142c0,3.85-1.256,6.899-3.768,9.149
		c-2.543,2.266-5.729,3.405-9.559,3.421c-3.783,0-7.01-1.128-9.68-3.385c-2.638-2.225-3.949-5.334-3.934-9.326
		C496.541,304.086,497.876,300.978,500.562,298.673z M506.594,307.858c0,1.965,0.338,3.549,1.014,4.752
		c0.677,1.203,1.534,1.805,2.572,1.805c0.99,0,1.785-0.602,2.383-1.805s0.896-2.739,0.896-4.61s-0.314-3.408-0.943-4.611
		c-0.629-1.202-1.486-1.819-2.572-1.852c-0.928,0-1.718,0.609-2.371,1.828C506.92,304.584,506.594,306.082,506.594,307.858z"/>
	<path fill="#222222" stroke="#FFFFFF" stroke-width="0.75" d="M524.821,320.072v-6.297h2.249v-11.646h-2.249v-6.296h10.347
		l1.11,3.006c1.888-2.588,4.203-3.882,6.947-3.882c1.466,0,2.748,0.21,3.847,0.629c1.1,0.419,1.96,0.961,2.582,1.625
		c0.621,0.665,1.119,1.491,1.493,2.48c0.374,0.988,0.625,1.945,0.753,2.871c0.127,0.926,0.19,1.958,0.19,3.097v8.116h2.178v6.297
		h-12.214V306.84v-1.137c0-0.173-0.04-0.544-0.119-1.112c-0.08-0.568-0.211-0.967-0.393-1.195s-0.459-0.465-0.832-0.71
		c-0.372-0.244-0.828-0.367-1.366-0.367c-2.044,0-3.066,1.514-3.066,4.54v6.917h3.692v6.297H524.821z"/>
	<path fill="#222222" stroke="#FFFFFF" stroke-width="0.75" d="M555.926,320.072v-8.734h6.486c0,0.717,0.347,1.324,1.042,1.822
		c0.694,0.497,1.396,0.823,2.106,0.977c0.71,0.154,1.373,0.23,1.988,0.23c1.421,0,2.131-0.512,2.131-1.536
		c0-0.271-0.127-0.51-0.379-0.713c-0.253-0.203-0.632-0.385-1.137-0.543s-1.021-0.306-1.55-0.441
		c-0.529-0.136-1.192-0.306-1.988-0.509c-0.798-0.203-1.488-0.4-2.071-0.59c-4.293-1.515-6.439-4.103-6.439-7.764
		c0-2.257,0.912-3.993,2.734-5.208c1.823-1.215,3.752-1.823,5.788-1.823c1.609,0,3.089,0.367,4.438,1.101
		c1.349,0.734,2.284,1.629,2.805,2.687l0.379-3.196h5.965v8.735h-6.296c0-0.994-0.51-1.858-1.527-2.592
		c-1.018-0.734-2.158-1.101-3.421-1.101s-1.894,0.584-1.894,1.751c0,0.253,0.095,0.485,0.284,0.698s0.513,0.423,0.971,0.628
		c0.457,0.205,0.864,0.375,1.219,0.509c0.355,0.134,0.927,0.331,1.717,0.592c0.789,0.26,1.381,0.454,1.775,0.58
		c1.262,0.426,2.213,0.778,2.853,1.056c0.639,0.278,1.412,0.711,2.319,1.299c0.907,0.587,1.57,1.317,1.988,2.19
		s0.628,1.889,0.628,3.048c0,2.238-0.888,4.037-2.663,5.397s-3.895,2.041-6.356,2.041c-1.642,0-3.133-0.352-4.474-1.055
		c-1.342-0.702-2.32-1.577-2.936-2.624l-0.426,3.087H555.926z"/>
	<path fill="#222222" stroke="#FFFFFF" stroke-width="0.75" d="M311.113,378.248v-6.91c1.265-2.151,2.348-3.756,3.25-4.815
		c0.902-1.06,2.125-2.227,3.667-3.502c0.725-0.685,1.886-1.573,3.482-2.665c1.597-1.091,2.815-2.051,3.656-2.879
		c0.84-0.829,1.261-1.693,1.261-2.593c0-2.13-1.357-3.195-4.072-3.195c-0.805,0-1.621,0.233-2.45,0.698
		c-0.829,0.466-1.437,0.884-1.823,1.255c-0.387,0.371-0.951,0.943-1.692,1.716l-5.231-5.516c3.456-4.008,7.653-6.013,12.593-6.013
		c3.359,0,6.179,0.971,8.46,2.912c2.282,1.94,3.423,4.506,3.423,7.693c0,2.588-0.579,4.568-1.736,5.941
		c-1.158,1.373-3.262,3.015-6.315,4.924c-1.357,0.868-2.781,1.959-4.272,3.271c-1.492,1.313-2.49,2.439-2.995,3.38h8.572v-4.024
		h8.143v10.321H311.113z"/>
	<path fill="#222222" stroke="#FFFFFF" stroke-width="0.75" d="M351.426,378.248v-6.297h3.053v-21.305h-3.053v-6.296h28.998v10.723
		h-8.593v-4.427h-7.314v8.546h9.255v6.297h-9.255v6.462h4.995v6.297H351.426z"/>
	<path fill="#222222" stroke="#FFFFFF" stroke-width="0.75" d="M382.819,356.849c2.654-2.272,5.777-3.416,9.369-3.433
		c3.973,0.063,7.211,1.223,9.714,3.479c2.503,2.256,3.787,5.35,3.851,9.279c0,0.048,0,0.095,0,0.142c0,3.85-1.256,6.899-3.767,9.149
		c-2.543,2.266-5.729,3.405-9.56,3.421c-3.783,0-7.009-1.128-9.679-3.385c-2.638-2.225-3.95-5.334-3.934-9.326
		C378.798,362.262,380.133,359.153,382.819,356.849z M388.851,366.034c0,1.965,0.338,3.549,1.014,4.752
		c0.676,1.203,1.534,1.805,2.572,1.805c0.991,0,1.785-0.602,2.382-1.805s0.896-2.739,0.896-4.61s-0.314-3.408-0.943-4.611
		c-0.629-1.202-1.486-1.819-2.571-1.852c-0.928,0-1.718,0.609-2.371,1.828C389.177,362.76,388.851,364.258,388.851,366.034z"/>
	<path fill="#222222" stroke="#FFFFFF" stroke-width="0.75" d="M407.338,378.248v-6.297h2.083v-11.646h-2.083v-6.297h9.15
		l1.476,3.102c0.392-0.71,0.737-1.267,1.035-1.669c0.298-0.402,0.722-0.841,1.271-1.313c0.549-0.474,1.247-0.812,2.095-1.019
		c0.847-0.205,1.867-0.308,3.059-0.308v8.711c-2.304,0-4.012,0.393-5.125,1.178s-1.669,2.199-1.669,4.244v5.018h2.391v6.297H407.338
		z"/>
	<path fill="#222222" stroke="#FFFFFF" stroke-width="0.75" d="M427.578,378.248v-6.297h1.799v-12.19h-1.799v-5.705h9.103
		l1.092,2.515c1.977-2.134,4-3.201,6.072-3.201c1.145,0,2.166,0.104,3.064,0.31s1.63,0.505,2.194,0.896s0.97,0.719,1.216,0.982
		c0.247,0.263,0.513,0.587,0.799,0.971c2.078-2.092,4.474-3.145,7.187-3.159c1.888,0,3.462,0.316,4.723,0.949
		s2.193,1.543,2.796,2.729s1.02,2.393,1.25,3.619s0.345,2.686,0.345,4.379v6.716h2.273v6.486h-12.31v-12.247
		c0-0.195,0.008-0.553,0.024-1.073c0.015-0.521,0.023-0.932,0.023-1.233s-0.016-0.688-0.047-1.158s-0.09-0.852-0.176-1.146
		c-0.086-0.294-0.192-0.583-0.318-0.869c-0.125-0.285-0.302-0.499-0.529-0.642c-0.228-0.143-0.499-0.214-0.812-0.214
		c-0.958,0-1.625,0.319-2.001,0.957c-0.377,0.639-0.565,1.579-0.565,2.821v8.365h2.84v6.438h-12.546v-12.831
		c0-2.244-0.114-3.765-0.341-4.56c-0.228-0.794-0.789-1.191-1.683-1.191c-1.444,0-2.166,1.032-2.166,3.097v9.188h2.651v6.297
		H427.578z"/>
	<path fill="#222222" stroke="#FFFFFF" stroke-width="0.75" d="M470.874,371.004c0-2.789,0.978-5.033,2.935-6.731
		c1.957-1.698,4.34-2.547,7.148-2.547c0.868,0,1.682,0.14,2.439,0.419c0.757,0.279,1.305,0.541,1.645,0.787
		c0.34,0.245,0.572,0.452,0.698,0.621v-1.788c0-1.904-1.53-2.856-4.593-2.856c-2.13,0-4.537,0.775-7.219,2.327l-2.036-5.453
		c3.819-2.114,7.338-3.171,10.558-3.171c1.561,0,3.055,0.161,4.484,0.483c1.428,0.321,2.805,0.836,4.133,1.543
		c1.326,0.706,2.389,1.743,3.184,3.109c0.797,1.366,1.195,2.96,1.195,4.782v9.422h2.911v6.297h-10.261l-1.143-2.178
		c-0.803,1.104-1.818,1.897-3.047,2.379c-1.227,0.481-2.392,0.722-3.493,0.722c-2.557,0-4.786-0.7-6.687-2.102
		C471.824,375.669,470.874,373.646,470.874,371.004z M480.082,370.519c0,0.696,0.24,1.263,0.722,1.7s1.093,0.656,1.835,0.656
		c0.678,0,1.302-0.17,1.869-0.509c0.568-0.339,0.979-0.731,1.231-1.178v-1.803c-0.553-0.909-1.499-1.364-2.841-1.364
		C481.021,368.006,480.082,368.838,480.082,370.519z"/>
	<path fill="#222222" stroke="#FFFFFF" stroke-width="0.75" d="M500.227,360.305v-6.297h2.32v-4.45l9.207-2.864v7.314h4.332v6.297
		h-4.332v8.641c0,0.126-0.008,0.359-0.023,0.698c-0.016,0.34-0.016,0.607,0,0.805s0.031,0.43,0.047,0.698
		c0.014,0.269,0.051,0.485,0.11,0.651c0.06,0.165,0.145,0.335,0.255,0.509c0.111,0.174,0.256,0.304,0.434,0.391
		s0.393,0.13,0.645,0.13c0.696,0,1.65-0.275,2.865-0.828v6.296c-0.619,0.227-1.543,0.422-2.768,0.585
		c-1.225,0.162-2.178,0.244-2.858,0.244c-1.466,0-2.69-0.17-3.677-0.509c-0.984-0.34-1.754-0.754-2.308-1.243
		s-0.969-1.234-1.245-2.237c-0.277-1.002-0.452-1.905-0.525-2.71s-0.127-1.965-0.158-3.479v-8.641H500.227z"/>
	<path fill="#222222" stroke="#FFFFFF" stroke-width="0.75" d="M517.53,378.248v-8.734h6.485c0,0.717,0.348,1.324,1.042,1.822
		c0.694,0.497,1.397,0.823,2.106,0.977c0.711,0.154,1.373,0.23,1.988,0.23c1.421,0,2.131-0.512,2.131-1.536
		c0-0.271-0.127-0.51-0.379-0.713s-0.631-0.385-1.136-0.543s-1.022-0.306-1.551-0.441s-1.191-0.306-1.988-0.509
		s-1.487-0.4-2.071-0.59c-4.293-1.515-6.438-4.103-6.438-7.764c0-2.257,0.911-3.993,2.733-5.208
		c1.823-1.215,3.752-1.823,5.788-1.823c1.61,0,3.089,0.367,4.438,1.102c1.35,0.733,2.285,1.629,2.805,2.687l0.379-3.196h5.966v8.735
		h-6.297c0-0.994-0.509-1.858-1.526-2.592c-1.018-0.734-2.158-1.101-3.421-1.101s-1.894,0.584-1.894,1.751
		c0,0.253,0.094,0.485,0.283,0.698s0.514,0.423,0.971,0.628c0.458,0.205,0.864,0.375,1.22,0.509
		c0.354,0.134,0.927,0.331,1.716,0.592c0.789,0.26,1.381,0.454,1.775,0.58c1.263,0.426,2.213,0.778,2.853,1.056
		c0.64,0.278,1.412,0.711,2.319,1.299c0.908,0.587,1.57,1.317,1.988,2.19s0.628,1.889,0.628,3.048c0,2.238-0.888,4.037-2.663,5.397
		s-3.895,2.041-6.355,2.041c-1.642,0-3.133-0.352-4.475-1.055c-1.342-0.702-2.319-1.577-2.936-2.624l-0.426,3.087H517.53z"/>
</g>
</svg>
