<svg xmlns="http://www.w3.org/2000/svg" width="918" height="579" viewBox="17 0 918 579" enable-background="new 17 0 918 579"><path fill="#D5D5D5" stroke="#fff" stroke-width=".75" d="M759.817 439.143l2.266 7.319 3.73 9.742 5.335 9.376 3.718 6.305 4.85 5.496 4.042 3.718 1.617 2.91-1.132 1.293-.808 1.293 2.91 7.436 2.91 2.91 2.587 5.335 3.557 5.82 4.526 8.245 1.293 7.598.485 11.963.647 1.778-.323 3.395-2.425 1.293.323 1.94-.647 1.94.323 2.425.485 1.94-2.748 3.233-3.072 1.455-3.88.162-1.455 1.617-2.425.97-1.293-.485-1.132-.97-.323-2.91-.808-3.395-3.395-5.173-3.557-2.263-3.88-.323-.808 1.293-3.072-4.365-.647-3.557-2.587-4.042-1.778-1.132-1.617 2.102-1.778-.323-2.102-5.011-2.91-3.88-2.91-5.335-2.587-3.072-3.557-3.718 2.102-2.425 3.233-5.496-.162-1.617-4.526-.97-1.617.647.323.647 2.587.97-1.455 4.526-.808.485-1.778-4.042-1.293-4.85-.323-2.748 1.455-4.688v-9.538l-3.072-3.718-1.293-3.072-5.173-1.293-1.94-.647-1.617-2.587-3.395-1.617-1.132-3.395-2.748-.97-2.425-3.718-4.203-1.455-2.91-1.455h-2.587l-4.042.808-.162 1.94.808.97-.485 1.132-3.072-.162-3.718 3.557-3.557 1.94h-3.88l-3.233 1.293-.323-2.748-1.617-1.94-2.91-1.132-1.617-1.455-8.083-3.88-7.598-1.778-4.365.647-5.981.485-5.981 2.102-3.479.613-.238-8.05-2.587-1.94-1.778-1.778.323-3.072 10.185-1.293 25.542-2.91 6.79-.647 5.436.28 2.587 3.88 1.455 1.455 8.098.515 10.82-.647 21.512-1.293 5.446-.674 5.108.204.427 2.91 2.233.808.235-4.63-1.528-4.173 1.308-1.44 5.555.455 5.175.326zm12.545 132.405l2.425-.647 1.293-.242 1.455-2.344 2.344-1.617 1.293.485 1.697.323.404 1.051-3.476 1.212-4.203 1.455-2.344 1.212-.888-.888zm13.499-5.012l1.212 1.051 2.748-2.102 5.335-4.203 3.718-3.88 2.506-6.628.97-1.697.162-3.395-.727.485-.97 2.829-1.455 4.607-3.233 5.254-4.365 4.203-3.395 1.94-2.506 1.536z"/><path fill="#F1F1F1" stroke="#fff" stroke-width=".75" d="M880.799 142.425l.869-1.077 1.09-3.291-2.543-.913-.485-3.072-3.88-1.132-.323-2.748-7.275-23.441-4.601-14.543-.897-.005-.647 1.617-.647-.485-.97-.97-1.455 1.94-.049 5.032.312 5.667 1.94 2.748v4.042l-3.718 5.063-2.587 1.132v1.132l1.132 1.778v8.568l-.808 9.215-.162 4.85.97 1.293-.162 4.526-.485 1.778.969.709 16.788-4.425 2.175-.602 1.844-2.773 3.605-1.613z"/><g fill="#F1F1F1" stroke="#fff" stroke-width=".75"><path d="M697.86 177.237l-3.233-8.245-2.263-9.053-2.425-3.233-2.587-1.778-1.617 1.132-3.88 1.778-1.94 5.011-2.748 3.718-1.132.647-1.455-.647s-2.587-1.455-2.425-2.102c.162-.647.485-5.011.485-5.011l3.395-1.293.808-3.395.647-2.587 2.425-1.617-.323-10.023-1.617-2.263-1.293-.808-.808-2.102.808-.808 1.617.323.162-1.617-2.425-2.263-1.293-2.587h-2.587l-4.526-1.455-5.496-3.395h-2.748l-.647.647-.97-.485-3.072-2.263-2.91 1.778-2.91 2.263.323 3.557.97.323 2.102.485.485.808-2.587.808-2.587.323-1.455 1.778-.323 2.102.323 1.617.323 5.496-3.557 2.102-.647-.162v-4.203l1.293-2.425.647-2.425-.808-.808-1.94.808-.97 4.203-2.748 1.132-1.778 1.94-.162.97.647.808-.647 2.587-2.263.485v1.132l.808 2.425-1.132 6.143-1.617 4.042.647 4.688.485 1.132-.808 2.425-.323.808-.323 2.748 3.557 5.981 2.91 6.466 1.455 4.85-.808 4.688-.97 5.981-2.425 5.173-.323 2.748-3.259 3.085 4.409-.162 21.419-2.263 7.278-.987.096 1.666 6.852-1.212 10.298-1.503 3.854-.461.138-.588.162-1.455 2.102-3.718 2.001-1.738-.222-5.052 1.597-1.597 1.091-.343.222-3.557 1.536-3.031 1.051.606.162.647.808.162 1.94-.97-.326-9.535z"/><path d="M581.619 82.059l1.829-2.058 2.172-.8 5.373-3.887 2.286-.572.457.457-5.144 5.144-3.315 1.943-2.058.914-1.6-1.141zm86.175 32.128l.647 2.506 3.233.162 1.293-1.212s-.081-1.455-.404-1.617c-.323-.162-1.617-1.859-1.617-1.859l-2.182.242-1.617.162-.323 1.132.97.484zm-100.302-2.974l.716-.58 2.748-.808 3.557-2.263v-.97l.647-.647 5.981-.97 2.425-1.94 4.365-2.102.162-1.293 1.94-2.91 1.778-.808 1.293-1.778 2.263-2.263 4.365-2.425 4.688-.485 1.132 1.132-.323.97-3.718.97-1.455 3.072-2.263.808-.485 2.425-2.425 3.233-.323 2.587.808.485.97-1.132 3.557-2.91 1.293 1.293h2.263l3.233.97 1.455 1.132 1.455 3.072 2.748 2.748 3.88-.162 1.455-.97 1.617 1.293 1.617.485 1.293-.808h1.132l1.617-.97 4.042-3.557 3.395-1.132 6.628-.323 4.526-1.94 2.587-1.293 1.455.162v5.658l.485.323 2.91.808 1.94-.485 6.143-1.617 1.132-1.132 1.455.485v6.951l3.233 3.072 1.293.647 1.293.97-1.293.323-.808-.323-3.718-.485-2.102.647-2.263-.162-3.233 1.455h-1.778l-5.82-1.293-5.173.162-1.94 2.587-6.951.647-2.425.808-1.132 3.072-1.293 1.132-.485-.162-1.455-1.617-4.526 2.425h-.647l-1.132-1.617-.808.162-1.94 4.365-.97 4.042-3.181 7.001-1.177-1.034-1.372-1.031-1.941-10.288-3.544-1.37-2.053-2.286-12.12-2.743-2.855-1.03-8.23-2.173-7.89-1.143-3.723-5.149z"/></g><path fill="#F1F1F1" stroke="#fff" stroke-width=".75" d="M844.484 154.058l.317-5.346-2.891-10.784-.647-.323-2.91-1.293.808-2.91-.808-2.102-2.7-4.64.97-3.88-.808-5.173-2.425-6.466-.806-4.923 26.419-6.732.309 5.522 1.916 2.742v4.042l-3.707 5.058-2.587 1.143-.011 1.121 1.31 1.519-.311 8.098-.609 9.259-.228 5.557.97 1.293-.162 4.571-.485 1.69 1.014.727-7.438 1.507-4.5.723z"/><path fill="#F1F1F1" stroke="#fff" stroke-width=".75" d="M922.84 78.831l1.94 2.102 2.263 3.718v1.94l-2.102 4.688-1.94.647-3.395 3.072-4.85 5.496h-1.293c-.647 0-.97-2.102-.97-2.102l-1.778.162-.97 1.455-2.425 1.455-.97 1.455 1.617 1.455-.485.647-.485 2.748-1.94-.162v-1.617l-.323-1.293-1.455.323-1.778-3.233-2.102 1.293 1.293 1.455.323 1.132-.808 1.293.323 3.072.162 1.617-1.617 2.587-2.91.485-.323 2.91-5.335 3.072-1.293.485-1.617-1.455-3.072 3.557.97 3.233-1.455 1.293-.162 4.365-1.123 6.259-2.462-1.156-.485-3.072-3.88-1.132-.323-2.748-7.275-23.441-4.699-14.64 1.421-.118 1.514.41v-2.587l1.308-4.496 2.587-4.688 1.455-4.042-1.94-2.425v-5.981l.808-.97.808-2.748-.162-1.455-.162-4.85 1.778-4.85 2.91-8.891 2.102-4.203h1.293l1.293.162v1.132l1.293 2.263 2.748.647.808-.808v-.97l4.042-2.91 1.778-1.778 1.455.162 5.981 2.425 1.94.97 9.053 29.907h5.981l.808 1.94.162 4.85 2.91 2.263h.808l.162-.485-.485-1.132 2.752-.164zm-20.932 30.147l1.536-1.536 1.374 1.051.566 2.425-1.697.889-1.779-2.829zm6.709-5.9l1.778 1.859s1.293.081 1.293-.243c0-.323.242-2.021.242-2.021l.889-.808-.808-1.778-2.021.727-1.373 2.264z"/><path fill="#F1F1F1" stroke="#fff" stroke-width=".75" d="M874.07 178.895l-3.696-14.956 6.269-1.845 2.191 1.927 3.307 4.321 2.688 4.402-2.999 1.625-1.293-.162-1.132 1.778-2.425 1.94-2.91.97z"/><path fill="#F1F1F1" stroke="#fff" stroke-width=".75" d="M830.379 188.746l-1.132-.97-2.587-.162-2.263-1.94-1.631-6.129-3.458.09-2.444-2.708-19.385 4.382-43.002 8.73-7.53 1.228-.738-6.468 1.428-1.125 1.293-1.132.97-1.617 1.778-1.132 1.94-1.778.485-1.617 2.102-2.748 1.132-.97-.162-.97-1.293-3.072-1.778-.162-1.94-6.143 2.91-1.778 4.365-1.455 4.042-1.293 3.233-.485 6.305-.162 1.94 1.293 1.617.162 2.102-1.293 2.587-1.132 5.173-.485 2.102-1.778 1.778-3.233 1.617-1.94h2.102l1.94-1.132.162-2.263-1.455-2.102-.323-1.455 1.132-2.102v-1.455h-1.778l-1.778-.808-.808-1.132-.162-2.587 5.82-5.496.647-.808 1.455-2.91 2.91-4.526 2.748-3.718 2.102-2.425 2.415-1.826 3.081-1.246 5.496-1.293 3.233.162 4.526-1.455 7.565-2.071.52 4.98 2.425 6.466.808 5.173-.97 3.88 2.587 4.526.808 2.102-.808 2.91 2.91 1.293.647.323 3.072 10.993-.536 5.06-.485 10.831.808 5.496.808 3.557 1.455 7.275v8.083l-1.132 2.263 1.839 1.993.797 1.678-1.94 1.778.323 1.293 1.293-.323 1.455-1.293 2.263-2.587 1.132-.647 1.617.647 2.263.162 7.921-3.88 2.91-2.748 1.293-1.455 4.203 1.617-3.395 3.557-3.88 2.91-7.113 5.335-2.587.97-5.82 1.94-4.042 1.132-1.175-.533-.244-3.689.485-2.748-.162-2.102-2.814-1.699-4.526-.97-3.88-1.132-3.719-1.777z"/><path fill="#F1F1F1" stroke="#fff" stroke-width=".75" d="M825.124 224.692l1.308-.271 2.33-1.253 1.212-2.483 1.617-2.263 3.233-3.072v-.808l-2.425-1.617-3.557-2.425-.97-2.587-2.748-.323-.162-1.132-.808-2.748 2.263-1.132.162-2.425-1.293-1.293.162-1.617 1.94-3.072v-3.072l2.698-2.646-.92-.675-2.524-.193-2.294-1.94-1.55-6.116-3.505.101-2.455-2.703-18.091 4.198-43.002 8.73-8.891 1.455-.621-6.521-5.363 5.068-1.293.485-4.202 3.009 2.911 19.137 2.482 9.729 3.572 19.261 3.269-.638 11.944-1.502 37.927-7.665 14.876-2.823 8.3-1.622.267-.239 2.102-1.617 2.099-.68z"/><path fill="#F1F1F1" stroke="#fff" stroke-width=".75" d="M829.679 188.46l-2.323 2.734v3.072l-1.94 3.072-.162 1.617 1.293 1.293-.162 2.425-2.263 1.132.808 2.748.162 1.132 2.748.323.97 2.587 3.557 2.425 2.425 1.617v.808l-2.983 2.697-1.617 2.263-1.455 2.748-2.263 1.293-.462 1.602-.242 1.212-.609 2.607 1.092 2.244 3.233 2.91 4.85 2.263 4.042.647.162 1.455-.808.97.323 2.748h.808l2.102-2.425.808-4.85 2.748-4.042 3.072-6.466 1.132-5.496-.647-1.132-.162-9.376-1.617-3.395-1.132.808-2.748.323-.485-.485 1.132-.97 2.102-1.94.063-1.094-.384-3.434.573-2.748-.117-1.969-2.808-1.75-5.092-1.176-4.137-1.382-3.587-1.645z"/><path fill="#F1F1F1" stroke="#fff" stroke-width=".75" d="M825.626 228.279l.368-2.147.375-1.691-1.623.398-1.615.468-2.206 1.764 1.72 5.043 2.263 5.658 2.102 9.7 1.617 6.305 5.011-.162 6.142-1.181-2.264-7.386-.97.485-3.557-2.425-1.778-4.688-1.94-3.557-3.147-2.87-.864-2.098.366-1.616z"/><path fill="#F1F1F1" stroke="#fff" stroke-width=".75" d="M839.792 252.415l-6.009 1.204-5.143.117-1.844-6.922-1.925-9.169-2.573-6.188-1.288-4.398-7.506 1.622-14.876 2.823-37.451 7.551 1.131 5.012.97 5.658.323-.323 2.102-2.425 2.263-2.618 2.425-.616 1.455-1.455 1.778-2.587 1.293.647 2.91-.323 2.587-2.102 2.007-1.453 1.845-.485 1.644 1.13 2.91 1.455 1.94 1.778 1.212 1.536 4.122 1.697v2.91l5.496 1.293 1.144.542 1.412-2.028 2.882 1.97-1.278 2.482-.765 3.986-1.778 2.587v2.102l.647 1.778 5.064 1.356 4.311-.062 3.072.97 2.102.323.97-2.102-1.455-2.102v-1.778l-2.425-2.102-2.102-5.496 1.293-5.335-.162-2.102-1.293-1.293s1.455-1.617 1.455-2.263c0-.647.485-2.102.485-2.102l1.94-1.293 1.94-1.617.485.97-1.455 1.617-1.293 3.718.323 1.132 1.778.323.485 5.496-2.102.97.323 3.557.485-.162 1.132-1.94 1.617 1.778-1.617 1.293-.323 3.395 2.587 3.395 3.88.485 1.617-.808 3.237 4.183 1.358.536 6.654-2.797 2.008-4.024-.436-4.907zm-15.97 9.028l1.132 2.506.162 1.778 1.132 1.859s.889-.889.889-1.212l-.727-3.072-.727-2.344-1.861.485z"/><path fill="#F1F1F1" stroke="#fff" stroke-width=".75" d="M831.639 266.069l-.144-1.947 6.453-2.55-.77 3.218-2.92 3.779-.418 4.586.462 3.39-1.828 4.978-2.164 1.916-1.47-4.641.446-5.449 1.587-4.183.766-3.097zm3.34 28.301l-58.174 12.575-37.427 5.279-6.678-.375-2.585 1.926-7.339.221-8.382.978-10.915 1.615 10.469-5.611-.013-2.075 1.52-2.146 10.554-11.501 3.947 4.477 3.783.964 2.543-1.14 2.237-1.311 2.537 1.344 3.914-1.428 1.877-4.556 2.601.54 2.855-2.131 1.799.494 2.827-3.677.348-2.083-.964-1.276 1.003-1.867 5.274-12.277.617-5.735 1.229-.524 2.179 2.443 3.936-.301 1.929-7.574 2.794-.561 1.05-2.741 2.58-2.347 2.772-5.695.085-5.068 9.822 3.823c.681.34.833-5.049.833-5.049l3.653 1.598.068 2.938 5.784 1.299 2.133 1.176 1.66 2.056-.655 3.649-1.947 2.591.11 2.059.589 1.853 4.979 1.268 4.451.04 3.069.959 1.943.309.715 3.088 3.19.403.868 1.2-.44 4.69 1.375 1.103-.479 1.93 1.229.79-.222 1.385-2.694-.095.089 1.616 2.281 1.543.122 1.412 1.773 1.785.492 2.524-2.553 1.381 1.572 1.494 5.801-1.686 3.607 6.012z"/><path fill="#F1F1F1" stroke="#fff" stroke-width=".75" d="M761.185 238.967l1.112 4.945 1.083 6.031 2.13-2.58 2.263-3.072 2.538-.616 1.455-1.455 1.778-2.587 1.445.647 2.91-.323 2.587-2.102 2.007-1.453 1.845-.485 1.304 1.016 3.643 1.822 1.94 1.778 1.374 1.293-.762 5.555-5.835-2.541-4.245-1.622-.101 5.178-2.748 5.537-2.53 2.427-1.192 2.749-2.644.5-.898 3.602-1.043 3.95-3.968.341-2.324-2.439-1.071.559-.633 5.47-1.35 3.534-4.958 10.955.897 1.161-.206 1.909-2.809 3.884-1.808-.544-2.968 2.16-2.542-.572-1.999 4.556s-3.259 1.43-3.923 1.368c-.161-.015-2.469-1.249-2.469-1.249l-2.337 1.379-2.41 1.044-3.745-.889-1.121-1.168-2.192-3.023-3.143-1.988-1.712-3.623-4.285-3.468-.647-2.263-2.587-1.455-.808-1.617-.242-5.254 2.182-.081 1.94-.808.162-2.748 1.617-1.455.162-5.011.97-3.88 1.293-.647 1.293 1.132.485 1.778 1.778-.97.485-1.617-1.132-1.778v-2.425l.97-1.293 2.263-3.395 1.293-1.455 2.102.485 2.263-1.617 3.072-3.395 2.263-3.88.323-5.658.485-5.011v-4.688l-1.132-3.072.97-1.455 1.284-1.293 3.491 19.827 4.631-.751 12.431-1.801z"/><path fill="#F1F1F1" stroke="#fff" stroke-width=".75" d="M735.325 193.328l-6.094 4.053-3.88 2.263-3.395 3.718-4.042 3.88-3.233.808-2.91.485-5.496 2.587-2.102.162-3.395-3.072-5.173.647-2.587-1.455-2.381-1.351-4.893.703-10.185 1.617-11.207 2.185 1.293 14.63 1.778 13.741 2.587 23.441.566 4.831 4.122-.129 2.425-.808 3.364 1.503 2.07 4.365 5.139-.017 1.892 2.119 1.761-.065 2.538-1.341 2.504.371 5.421.483 1.727-2.133 2.346-1.293 2.07-.681.647 2.748 1.778.97 3.476 2.344 2.182-.081 1.333-.492.185-2.762 1.585-1.455.099-4.793 1.024-4.109 1.299-.601 1.321 1.148.538 1.697 1.719-1.037.439-1.461-1.117-1.903.066-2.314.749-1.072 2.153-3.306 1.05-1.543 2.102.485 2.263-1.617 3.072-3.395 2.771-4.079.32-5.056.485-5.011-.177-5.307-.955-2.895.351-1.19 1.804-1.75-2.289-9.047-2.903-19.363z"/><path fill="#F1F1F1" stroke="#fff" stroke-width=".75" d="M619.57 299.971l.065-2.859.485-4.527 2.263-2.91 1.778-3.88 2.587-4.203-.485-5.82-1.778-2.748-.323-3.233.808-5.496-.485-6.951-1.293-16.004-1.293-15.358-.97-11.72 3.071.89 1.455.97 1.132-.323 2.102-1.94 2.83-1.617 5.093-.162 21.986-2.263 5.576-.533 1.503 15.956 4.251 36.842.598 5.772-.372 2.263 1.228 1.795.096 1.373-2.521 1.6-3.539 1.551-3.202.55-.598 4.867-4.575 3.312-2.796 4.01.323 2.377-.581 1.534h-3.326l-1.586-1.617-2.493 1.262-2.683 1.503.162 3.054-1.194.258-.468-1.018-2.167-1.503-3.25 1.341-1.551 3.006-1.438-.808-1.455-1.6-4.464.485-5.593.97-2.913 1.552z"/><path fill="#F1F1F1" stroke="#fff" stroke-width=".75" d="M619.541 300.342l.031-3.23.567-4.646 2.333-2.916 1.867-4.076 2.233-3.995-.372-5.252-2.005-3.543-.096-3.347.695-5.27-.825-7.178-1.066-15.777-1.293-15.017-.922-11.639-.273-.921-.808-2.587-1.293-3.718-1.617-1.778-1.455-2.587-.234-5.489-45.796 2.598.229 2.372 2.286.686.914 1.143.457 1.829 3.887 3.429.686 2.286-.686 3.429-1.829 3.658-.686 2.515-2.286 1.829-1.829.686-5.258 1.372-.686 1.829-.686 2.058.686 1.372 1.829 1.6-.229 4.115-1.829 1.6-.686 1.6v2.743l-1.829.457-1.6 1.143-.229 1.372.229 2.058-1.715 1.315-1.029 2.801.457 3.658 2.286 7.316 7.316 7.545 5.487 3.658-.229 4.344.914 1.372 6.401.457 2.743 1.372-.686 3.658-2.286 5.944-.686 3.201 2.286 3.887 6.401 5.258 4.572.686 2.058 5.03 2.058 3.201-.914 2.972 1.6 4.115 1.829 2.058 1.414-.881.908-2.075 2.213-1.747 2.131-.614 2.603 1.18 3.627 1.376 1.189-.298.2-2.258-1.287-2.412.304-2.377 1.838-1.347 3.023-.81 1.261-.459-.613-1.387-.791-2.354 1.433-.981 1.158-3.217z"/><path fill="#F1F1F1" stroke="#fff" stroke-width=".75" d="M874.068 178.863l-3.677-14.879-4.719.92-21.229 4.743 1 3.226 1.455 7.275.177 8.967-1.22 2.175 1.921 1.932 4.272-3.906 3.557-3.233 1.94-2.102.808.647 2.748-1.455 5.173-1.132 7.794-3.178z"/><path fill="#F1F1F1" stroke="#fff" stroke-width=".75" d="M615.066 197.369l-.067-3.157-1.179-4.527-.647-6.143-1.132-2.425.97-3.072.808-2.91 1.455-2.587-.647-3.395-.647-3.557.485-1.778 1.94-2.425.162-2.748-.808-1.293.647-2.587-.453-4.171 2.748-5.658 2.91-6.79.162-2.263-.323-.97-.808.485-4.203 6.305-2.748 4.042-1.94 1.778-.808 2.263-1.955.808-1.132 1.94-1.455-.323-.162-1.778 1.293-2.425 2.102-4.688 1.778-1.617.991-2.358-2.56-1.901-1.975-10.367-3.547-1.342-1.946-2.308-12.13-2.722-2.876-1.012-8.213-2.167-7.918-1.159-3.765-5.131-.75.554-1.198-.162-.647-1.132-1.334.297-1.132.162-1.778.97-.97-.647.647-1.94 1.94-3.072 1.132-1.132-1.94-1.455-2.102.808-2.91 1.94-7.436 3.233-2.91.647-2.91-.485-.982-.878-2.117 2.835-.229 2.743v8.459l-1.143 1.6-5.258 3.887-2.286 5.944.457.229 2.515 2.058.686 3.201-1.829 3.201v3.887l.457 6.63 2.972 2.972h3.429l1.829 3.201 3.429.457 3.887 5.716 7.087 4.115 2.058 2.743.914 7.43.686 3.315 2.286 1.6.229 1.372-2.058 3.429.229 3.201 2.515 3.887 2.515 1.143 2.972.457 1.342 1.38 45.299-2.667z"/><path fill="#F1F1F1" stroke="#fff" stroke-width=".75" d="M834.982 294.316l2.085 4.917 3.557 6.466 2.425 2.425.647 2.263-2.425.162.808.647-.323 4.203-2.587 1.293-.647 2.102-1.293 2.91-3.718 1.617-2.425-.323-1.455-.162-1.617-1.293.323 1.293v.97h1.94l.808 1.293-1.94 6.305h4.203l.647 1.617 2.263-2.263 1.293-.485-1.94 3.557-3.072 4.85h-1.293l-1.132-.485-2.748.647-5.173 2.425-6.466 5.335-3.395 4.688-1.94 6.466-.485 2.425-4.688.485-5.453 1.334-9.946-8.203-12.61-7.598-2.91-.808-12.61 1.455-4.276.75-1.617-3.233-2.97-2.117-16.489.485-7.275.808-9.053 4.527-6.143 2.587-21.178 2.587.5-4.054 1.778-1.455 2.748-.647.647-3.718 4.203-2.748 3.88-1.455 4.203-3.557 4.365-2.102.647-3.072 3.88-3.88.647-.162s0 1.132.808 1.132l1.94.323 2.263-3.557 2.102-.647 2.263.323 1.617-3.557 2.91-2.587.485-2.102.188-3.648 4.276-.022 7.199-.856 15.757-2.252 15.136-2.087 21.641-4.719 19.983-4.259 11.177-2.406 5.05-1.153zm4.27 33.206l2.587-2.506 3.152-2.587 1.536-.647.162-2.021-.647-6.143-1.455-2.344-.647-1.859.727-.242 2.748 5.496.404 4.446-.162 3.395-3.395 1.536-2.829 2.425-1.132 1.212-1.049-.161z"/><path fill="#F1F1F1" stroke="#fff" stroke-width=".75" d="M805.819 250.844l-1.858-1.824-1.233-.686 1.443-2.022 2.889 1.949-1.241 2.583z"/><path fill="#F1F1F1" stroke="#fff" stroke-width=".75" d="M899.623 173.254l2.172-.686.457-1.715 1.029.114 1.029 2.286-1.257.457-3.887.114.457-.57zm-9.373.8l2.286-2.629h1.6l1.829 1.486-2.401 1.029-2.172 1.029-1.142-.915zm-34.799-21.988l17.647-4.641 2.263-.647 1.914-2.796 3.737-1.663 2.889 4.413-2.425 5.173-.323 1.455 1.94 2.587 1.132-.808h1.778l2.263 2.587 3.88 5.981 3.557.485 2.263-.97 1.778-1.778-.808-2.748-2.102-1.617-1.455.808-.97-1.293.485-.485 2.102-.162 1.778.808 1.94 2.425.97 2.91.323 2.425-4.203 1.455-3.88 1.94-3.88 4.527-1.94 1.455v-.97l2.425-1.455.485-1.778-.808-3.072-2.91 1.455-.808 1.455.485 2.263-2.066 1-2.747-4.527-3.395-4.365-2.07-1.812-6.533 1.876-5.092 1.051-20.675 4.592-.668-4.768.647-10.589 4.289-.889 6.788-1.293z"/><path fill="#F1F1F1" stroke="#fff" stroke-width=".75" d="M696.678 318.254l-51.893 5.012-15.76 1.778-4.621.513-3.868-.028-.221 4.101-8.185.264-6.951.647-8.091-.124-1.414 7.073-1.696 5.48-3.293 2.751-1.349 4.381-.323 2.587-4.042 2.263 1.455 3.557-.97 4.365-.968.79 108.159-10.408.403-3.955 1.811-1.49 2.834-.749.672-3.717 4.099-2.705 4.047-1.494 4.084-3.57 4.436-2.025.521-3.067 4.065-3.985.551-.114s.031 1.132.84 1.132c.808 0 1.94.355 1.94.355l2.263-3.588 2.07-.647 2.275.295 1.598-3.533 2.955-2.644.422-1.939.309-3.711-2.147-.2-2.602 2.028-6.993.029-18.359 2.387-8.063 1.905z"/><path fill="#F1F1F1" stroke="#fff" stroke-width=".75" d="M593.825 343.053l-3.98.717-5.112-.634.421-1.602 2.98-2.567.943-3.656-1.829-2.972-78.418 2.515 1.6 6.859v8.23l1.372 10.974.229 37.837 2.286 1.943 2.972-1.372 2.743 1.143.68 6.573 55.621-1.141 1.146-2.09-.287-3.549-1.826-2.972 1.599-1.485-1.599-2.512.684-2.51 1.368-5.605 2.518-2.063-.686-2.285 3.658-5.372 2.743-1.368-.113-1.494-.345-1.826 2.857-5.599 2.403-1.257.384-3.428 1.771-1.242-3.143-.484-1.341-4.01 2.804-2.377.55-2.019 1.279-4.047 1.068-3.253z"/><path fill="#F1F1F1" stroke="#fff" stroke-width=".75" d="M558.44 248.113l-2.52-3.087-1.143-2.286-64.357 2.401-2.286.114 1.257 2.515-.229 2.286 2.515 3.887 3.086 4.115 3.086 2.743 2.161.229 1.497.914v2.972l-1.829 1.6-.457 2.286 2.058 3.429 2.515 2.972 2.515 1.829 1.372 11.66.314 36.072.229 4.687.457 5.384 22.433-.867 23.206-.686 20.805-.801 11.655-.23 2.169 3.426-.684 3.307-3.087 2.403-.572 1.837 5.378.457 3.895-.686 1.717-5.494.651-5.857 2.098-2.555 2.596-1.487.051-3.05 1.016-1.936-1.694-2.544-1.331.984-1.993-2.227-1.285-4.759.801-2.518-1.944-3.428-1.831-4.576-4.799-.799-6.969-5.599-1.719-4.114.799-3.201 2.059-6.058.459-2.864-1.949-1.031-6.855-.798-1.028-1.712-.112-4.23-5.487-3.431-6.976-7.772-2.286-7.316-.23-4.225.802-2.285z"/><path fill="#F1F1F1" stroke="#fff" stroke-width=".75" d="M672.292 355.552v2.182l.162 2.102.647 3.395 3.395 7.921 2.425 9.861 1.455 6.143 1.617 4.85 1.455 6.951 2.102 6.305 2.587 3.395.485 3.395 1.94.808.162 2.102-1.778 4.85-.485 3.233-.162 1.94 1.617 4.365.323 5.335-.808 2.425.647.808 1.455.808.205 3.218 2.233 3.35 2.25 2.162 7.921.162 10.82-.647 21.512-1.293 5.446-.674 4.577.028.162 2.91 2.587.808.323-4.365-1.617-4.526 1.132-1.617 5.82.808 4.977.318-.775-6.299 2.263-10.023 1.455-4.203-.485-2.587 3.334-6.244-.51-1.352-1.913.705-2.587-1.293-.647-2.102-1.293-3.557-2.263-2.102-2.587-.647-1.617-4.85-2.925-6.335-4.203-1.94-2.102-1.94-1.293-2.587-2.102-1.94-2.263-1.293-2.263-2.91-3.072-2.263-4.526-1.778-.485-1.455-2.425-2.91-.485-1.455-3.395-4.97-3.52.099-3.755-2.356-1.418-1.293-.323-1.778.871-1.94 2.227-1.11-.634-2.097-41.873 4.989z"/><path fill="#F1F1F1" stroke="#fff" stroke-width=".75" d="M764.943 408.165l-1.777.97-2.587-1.293-.647-2.102-1.293-3.557-2.263-2.102-2.587-.647-1.617-4.85-2.748-5.981-4.203-1.94-2.102-1.94-1.293-2.587-2.102-1.94-2.263-1.293-2.263-2.91-3.072-2.263-4.526-1.778-.485-1.455-2.425-2.91-.485-1.455-3.395-5.173-3.395.162-4.042-2.425-1.293-1.293-.323-1.778.808-1.94 2.263-.97-.511-2.289 5.768-2.337 9.115-4.589 7.775-.808 16.114-.422 2.638 1.877 1.679 3.358 4.302-.61 12.61-1.455 2.91.808 12.61 7.598 10.108 8.122-5.421 5.458-2.587 6.143-.485 6.305-1.617.808-1.132 2.748-2.425.647-2.102 3.557-2.748 2.748-2.263 3.395-1.617.808-3.557 3.395-2.91.162.97 3.233-5.011 5.496-2.098 1.294z"/><path fill="#F1F1F1" stroke="#fff" stroke-width=".75" d="M725.994 295.271l-2.293 2.402-3.578 3.994-4.925 5.465-1.216 1.716-.062 2.102-4.38 2.164-5.658 3.395-7.232 1.799-51.868 4.899-15.76 1.778-4.621.513-3.868-.028-.227 4.22-8.179.145-6.951.647-7.987-.06 1.208-1.32 2.5-1.541.229-3.201.914-1.829-1.607-2.539.802-1.907 2.263-1.778 2.102-.647 2.748 1.293 3.557 1.293 1.132-.323.162-2.263-1.293-2.425.323-2.263 1.94-1.455 2.587-.647 1.617-.647-.808-1.778-.647-1.94 1.507-.996c.003-.037 1.254-3.522 1.238-3.658l3.053-1.479 5.32-.97 4.494-.485 1.392 1.627 1.528.871 1.591-3.108 3.187-1.283 2.205 1.484.411.999 1.174-.264-.162-2.953 3.131-1.749 2.148-1.073 1.529 1.661 3.318-.044.587-1.571-.367-2.263 2.601-3.999 4.777-3.438.706-4.836 2.925-.456 3.791-1.646 2.443-1.708-.198-1.565-1.142-1.455.566-2.995 4.185-.117 2.3-.746 3.347 1.429 2.054 4.365 5.132.011 2.051 2.208 1.615-.148 2.602-1.278 5.237.573 2.575.217 1.688-2.056 2.618-1.426 1.882-.707.647 2.837 2.043 1.058 2.643 2.082.117 5.673.808 1.572 2.59 1.556.772 2.294 4.16 3.437 1.805 3.623 2.452 1.661z"/><path fill="#F1F1F1" stroke="#fff" stroke-width=".75" d="M631.306 460.416l-1.491-14.322-2.748-18.753.162-14.064.808-31.039-.162-16.651.165-6.419 44.484-3.619-.148 2.182.162 2.102.647 3.395 3.395 7.921 2.425 9.861 1.455 6.143 1.617 4.85 1.455 6.951 2.102 6.305 2.587 3.395.485 3.395 1.94.808.162 2.102-1.778 4.85-.485 3.233-.162 1.94 1.617 4.365.323 5.335-.808 2.425.647.808 1.455.808.328 2.889-5.598-.354-6.79.647-25.542 2.91-10.412 1.407-.221 2.877 1.778 1.778 2.587 1.94.581 7.935-5.542 2.573-2.748-.323 2.748-1.94v-.97l-3.072-5.981-2.263-.647-1.455 4.365-1.293 2.748-.647-.162-2.75.001z"/><path fill="#F1F1F1" stroke="#fff" stroke-width=".75" d="M607.967 459.161l-3.285-3.166 1.01-5.5-.661-.893-9.262 1.007-25.028.459-.684-2.395.913-8.456 3.316-5.946 5.031-8.691-.574-2.398 1.257-.681.459-1.952-2.286-2.056-.112-1.942-1.831-4.346-.147-6.339-55.474.924.029 9.574.686 9.374.686 3.887 2.515 4.115.914 5.03 4.344 5.487.229 3.201.686.686-.686 8.459-2.972 5.03 1.6 2.058-.686 2.515-.686 7.316-1.372 3.201.122 3.616 4.686-1.52 12.113.207 10.346 3.557 6.466 1.132 3.718-1.455 3.233 1.132 3.233.97.808-2.102-3.233-1.132-2.587.485-2.748-1.617s.162-1.293.808-1.455c.647-.162 3.072-.97 3.072-.97l1.778 1.455 1.778-.97 3.233.647 1.455 2.425.323 2.263 4.526.323 1.778 1.778-.804 1.614-1.293.808 1.617 1.617 8.406 3.557 3.557-1.293.97-2.425 2.587-.647 1.778-1.455 1.293.97.808 2.91-2.263.808.647.647 3.395-1.293 2.263-3.395.808-.485-2.102-.323.808-1.617-.162-1.455 2.102-.485 1.132-1.293.647.808s-.162 3.072.647 3.072c.808 0 4.203.647 4.203.647l4.042 1.94.97 1.455h2.91l1.132.97 2.263-3.072v-1.455h-1.293l-3.395-2.748-5.82-.808-3.233-2.263 1.132-2.748 2.263.323.162-.647-1.778-.97v-.485h3.233l1.778-3.072-1.293-1.94-.323-2.748-1.455.162-1.94 2.102-.647 2.587-3.072-.647-.97-1.778 1.778-1.94 1.903-3.446-1.061-2.412-1.167-3.983z"/><path fill="#F1F1F1" stroke="#fff" stroke-width=".75" d="M631.559 459.345l-.254 1.256h-5.173l-1.455-.808-2.102-.323-6.79 1.94-1.778-.808-2.587 4.203-1.103.778-1.124-2.488-1.143-3.887-3.429-3.201 1.143-5.545-.686-.914-1.829.229-7.918.873-24.547.373-.77-2.225.873-8.377 3.117-5.673 5.227-9.145-.446-2.433 1.237-.656.436-1.919-2.318-2.079-.115-2.141-1.836-4.121-.109-5.963 1.328-2.481-.223-3.416-1.769-3.083 1.526-1.482-1.571-2.5.457-1.652 1.577-6.526 2.486-2.036-.642-2.367 3.658-5.303 2.832-1.356-.221-1.675-.288-1.681 2.876-5.568 2.346-1.232.152-.893 37.344-3.881.185 6.283.162 16.651-.808 31.039-.162 14.064 2.748 18.753 1.486 13.396z"/><path fill="#F1F1F1" stroke="#fff" stroke-width=".75" d="M569.192 199.584l.264 2.786 2.224.577.954 1.225.5 1.855 3.793 3.359.686 2.391-.674 3.424-1.582 3.232-.799 2.742-2.173 1.602-1.716.572-5.579 1.86-1.391 3.849.729 1.372 1.841 1.683-.283 4.036-1.763 1.538-.771 1.643.127 2.776-1.886.457-1.625 1.105-.279 1.353.279 2.115-1.551 1.116-2.471-3.133-1.263-2.45-65.736 2.515-.918.165-2.052-4.516-.229-6.63-1.6-4.115-.686-5.258-2.286-3.658-.914-4.801-2.743-7.545-1.143-5.373-1.372-2.172-1.6-2.743 1.954-4.844 1.372-5.716-2.743-2.058-.457-2.743.914-2.515h1.715l82.654-1.269.834 4.183 2.252 1.561.257 1.423-2.03 3.389.19 3.206 2.515 3.798 2.527 1.294 3.079.503.655.834z"/><path fill="#F1F1F1" stroke="#fff" stroke-width=".75" d="M475.238 128.824l-.457-8.459-1.829-7.316-1.829-13.489-.457-9.831-1.829-3.429-1.6-5.03v-10.287l.686-3.887-1.821-5.452 30.132.035.323-8.245.647-.162 2.263.485 1.94.808.808 5.496 1.455 6.143 1.617 1.617h4.85l.323 1.455 6.305.323v2.102h4.85l.323-1.293 1.132-1.132 2.263-.647 1.293.97h2.91l3.88 2.587 5.335 2.425 2.425.485.485-.97 1.455-.485.485 2.91 2.587 1.293.485-.485 1.293.162v2.102l2.587.97h3.072l1.617-.808 3.233-3.233 2.587-.485.808 1.778.485 1.293h.97l.97-.808 8.891-.323 1.778 3.072h.647l.714-1.084 4.44-.371-.612 2.279-3.939 1.837-9.246 4.061-4.775 2.007-3.072 2.587-2.425 3.557-2.263 3.88-1.778.808-4.526 5.011-1.293.162-4.328 2.757-2.463 3.205-.229 3.191.094 8.043-1.376 1.689-5.082 3.76-2.23 5.982 2.872 2.234.68 3.227-1.855 3.239.171 3.748.369 6.73 3.028 3.002h3.329l1.891 3.133 3.379.503 3.859 5.671 7.087 4.117 2.143 2.875.671 6.44-81.211 1.145-.338-35.677-.457-2.972-4.115-3.429-1.143-1.829v-1.6l2.058-1.6 1.372-1.372.226-3.201z"/><path fill="#F1F1F1" stroke="#fff" stroke-width=".75" d="M380.343 320.821l-16.684-1.273-.88 10.952 20.465 1.157 32.056 1.304-2.335 24.419-.457 17.833.229 1.6 4.344 3.658 2.058 1.143.686-.229.686-2.058 1.372 1.829h2.058v-1.372l2.743 1.372-.457 3.887 4.115.229 2.515 1.143 4.115.686 2.515 1.829 2.286-2.058 3.429.686 2.515 3.429h.914v2.286l2.286.686 2.286-2.286 1.829.686h2.515l.914 2.515 6.301 2.079 1.372-.686 1.829-4.115h1.143l1.143 2.058 4.115.686 3.658 1.372 2.972.914 1.829-.914.686-2.515h4.344l2.058.914 2.743-2.058h1.143l.686 1.6h4.115l1.6-2.058 1.829.457 2.058 2.515 3.201 1.829 3.201.914 1.941 1.119-.389-37.217-1.372-10.974-.16-8.872-1.44-6.538-.778-7.18-.068-3.816-12.137.319-46.41-.457-45.039-2.058-24.292-1.371z"/><path fill="#F1F1F1" stroke="#fff" stroke-width=".75" d="M361.464 330.574l22.691 1.086 31.093 1.143-2.335 23.456-.297 18.154.068 2.082 4.344 3.818 1.987 1.447 1.184-.56.373-1.818 1.14 1.804 2.112.044-.003-1.447 1.67.967 1.139.409-.359 3.968 4.088.094 2.925 1.197 3.955.525 2.381 2.079 2.124-2.076 3.725.615 2.221 3.225 1.075.321-.16 1.965 2.214.792 2.33-2.055 2.133.615 2.229.035.933 2.435 6.328 2.114 1.593-.767 1.489-4.178h.341l.906.082 1.229 2.069 3.93.665 3.337 1.123 3.426 1.196 1.841-.975.714-2.515 4.453.044 1.809.931 2.799-2.107 1.104.044.851 1.605h4.055l1.519-2.029 1.867.407 1.946 2.403 3.521 2.044 2.859.81 1.514.8 2.447 1.997 3.043-1.328 2.691 1.139.564 6.106-.04 9.702.686 9.534.702 3.605 2.675 4.42.898 4.951 4.216 5.538.196 3.145.746.786-.73 8.38-2.872 5.007 1.533 2.153-.63 2.338-.67 7.404-1.504 3.338.295 3.502-5.665 1.585-9.861 4.526-.97 1.94-2.587 1.94-2.102 1.455-1.293.808-5.658 5.335-2.748 2.102-5.335 3.233-5.658 2.425-6.305 3.395-1.778 1.455-5.82 3.557-3.395.647-3.88 5.496-4.042.323-.97 1.94 2.263 1.94-1.455 5.496-1.293 4.526-1.132 3.88-.808 4.526.808 2.425 1.778 6.951.97 6.143 1.778 2.748-.97 1.455-3.072 1.94-5.658-3.88-5.496-1.132-1.293.485-3.233-.647-4.203-3.072-5.173-1.132-7.598-3.395-2.102-3.88-1.293-6.466-3.233-1.94-.647-2.263.647-.647.323-3.395-1.293-.647-.647-.97 1.293-4.365-1.617-2.263-3.233-1.293-3.395-4.365-3.557-6.628-4.203-2.587.162-1.94-5.335-12.286-.808-4.203-1.778-1.94-.162-1.455-5.981-5.335-2.587-3.072v-1.132l-2.587-2.102-6.79-1.132-7.436-.647-3.072-2.263-4.526 1.778-3.557 1.455-2.263 3.233-.97 3.718-4.365 6.143-2.425 2.425-2.587-.97-1.778-1.132-1.94-.647-3.88-2.263v-.647l-1.778-1.94-5.173-2.102-7.436-7.76-2.263-4.688v-8.083l-3.233-6.466-.485-2.748-1.617-.97-1.132-2.102-5.011-2.102-1.293-1.617-7.113-7.921-1.293-3.233-4.688-2.263-1.455-4.365-2.587-2.91-1.94-.485-.649-4.678 8.002.686 29.035 2.743 29.035 1.6 2.234-19.462 3.887-55.555 1.6-18.747 1.372.029m99.03 229.674l-.566-7.113-2.748-7.194-.566-7.032 1.536-8.245 3.314-6.871 3.476-5.416 3.152-3.557.647.242-4.769 6.628-4.365 6.547-2.021 6.628-.324 5.175.889 6.143 2.587 7.194.485 5.173.162 1.455-.889.243z"/><path fill="#F1F1F1" stroke="#fff" stroke-width=".75" d="M288.153 424.013l-.775-4.748 8.644.525 30.172 2.946 27.268 1.69 2.215-18.707 3.857-55.876 1.738-19.389 1.572.129.825-11.163-104.004-10.636-17.497 120.435 15.461 1.989 1.293-10.023 29.231 2.828z"/><path fill="#F1F1F1" stroke="#fff" stroke-width=".75" d="M507.881 324.38l-12.618.204-46.089-.457-44.557-2.058-24.63-1.257 3.894-64.595 22.083.675 40.289.841 44.301.988h5.096l2.184 2.162 2.018-.021 1.64 1.012-.062 3.009-1.829 1.725-.332 2.232 1.843 3.402 2.952 3.195 2.327 1.614 1.301 11.241.189 36.088z"/><path fill="#F1F1F1" stroke="#fff" stroke-width=".75" d="M486.098 240.701l3.231 7.02-.129 2.303 3.459 5.494 2.719 3.152h-5.049l-43.483-.939-40.787-.89-22.252-.784 1.073-21.328-32.318-2.92 4.344-44.01 15.546 1.029 20.119 1.143 17.833 1.143 23.777 1.143 10.745-.457 2.058 2.286 4.801 2.972 1.143.914 4.344-1.372 3.887-.457 2.743-.229 1.829 1.372 4.057 1.6 2.972 1.6.457 1.6.914 2.058h1.829l.798.046.894 4.682 2.92 8.468.573 3.757 2.523 3.774.57 5.114 1.607 4.24.253 6.476z"/><path fill="#F1F1F1" stroke="#fff" stroke-width=".75" d="M476.447 204.025l-.047-.581-2.896-4.845 1.86-4.712 1.493-5.887-2.782-2.08-.385-2.743.792-2.554 3.189.015-.123-5.006-.333-30.174-.618-3.768-4.072-3.331-.983-1.677-.062-1.609 2.022-1.529 1.532-1.666.245-2.657-58.257-1.6-54.799-3.449-5.325 63.691 14.59.904 19.95 1.206 17.743.929 23.777 1.304 11.983-.425 1.966 2.245 5.195 3.253.764.723 4.541-1.453 6.541-.615 1.675 1.336 4.204 1.596 2.945 1.636.399 1.484 1.039 2.241 2.237-.202z"/><path fill="#F1F1F1" stroke="#fff" stroke-width=".75" d="M475.305 128.918l-.615-8.434-1.677-6.816-1.891-13.024-.457-10.987-1.739-3.077-1.757-5.194.031-10.444.623-3.824-1.834-5.468-28.642-.564-18.591-.647-26.512-1.293-22.946-2.134-6.993 67.177 54.932 3.344 58.068 1.385z"/><path fill="#F1F1F1" stroke="#fff" stroke-width=".75" d="M360.377 143.276l-106.743-13.457-14.083 88.458 113.265 13.585 7.561-88.586z"/><path fill="#F1F1F1" stroke="#fff" stroke-width=".75" d="M369.21 56.969l-30.674-2.808-29.261-3.557-29.261-4.042-32.332-5.335-18.429-3.395-32.724-6.933-4.479 21.348 3.429 7.545-1.372 4.572 1.829 4.572 3.201 1.372 4.621 10.769 2.695 3.177.457 1.143 3.429 1.143.457 2.058-7.087 17.604v2.515l2.515 3.201h.914l4.801-2.972.686-1.143 1.6.686-.229 5.258 2.743 12.574 2.972 2.515.914.686 1.829 2.286-.454 3.43.686 3.429 1.143.915 2.286-2.286h2.743l3.201 1.6 2.515-.914h4.115l3.658 1.6 2.743-.457.457-2.972 2.972-.686 1.372 1.372.457 3.201 1.426.835 1.887-11.035 106.746 13.429 8.803-86.3z"/><path fill="#F1F1F1" stroke="#fff" stroke-width=".75" d="M380.032 320.965l4.903-86.325-113.389-12.644-12.214 87.939 120.7 11.03z"/><path fill="#F1F1F1" stroke="#fff" stroke-width=".75" d="M148.479 176.484l8.771-35.221 1.372-4.23 2.515-5.944-1.257-2.286-2.515.114-.8-1.029.457-1.143.343-3.086 4.458-5.487 1.829-.457 1.143-1.143.572-3.201.914-.686 3.887-5.83 3.887-4.344.229-3.772-3.429-2.629-1.536-4.401 13.625-63.342 13.518 2.528-4.408 21.383 3.56 7.485-1.581 4.661 1.97 4.641 3.138 1.255 3.835 9.557 3.513 4.437.507 1.143 3.341 1.143.369 2.097-6.971 17.376-.165 2.566 2.631 3.322.905-.049 4.911-3.026.677-1.095 1.562.659-.278 5.354 2.739 12.583 3.918 3.178 1.681 2.165-.717 4.084 1.066 2.807 1.062 1.091 2.479-2.351 2.848.049 2.919 1.335 2.78-.682 3.794-.16 3.979 1.6 2.743-.297.497-3.037 2.933-.765 1.26 1.516.441 2.945 1.424 1.213-8.386 53.609c0 .001-87.966-16.699-94.959-18.203z"/><path fill="#F1F1F1" stroke="#fff" stroke-width=".75" d="M259.498 310.105l-83.749-11.872 20.588-112.541 46.78 8.745-1.485 10.63-2.312 13.173 7.808.928 16.407 1.805 8.211.856-12.248 88.276z"/><path fill="#F1F1F1" stroke="#fff" stroke-width=".75" d="M144.911 382.629l-2.627 2.158-.323 1.455.485.97 18.914 10.67 12.125 7.598 14.711 8.568 16.813 10.023 12.286 2.425 24.951 2.705 17.256-119.127-83.736-11.917-3.092 16.412-1.606.015-1.715 2.629-2.515-.114-1.257-2.743-2.743-.343-.915-1.143h-.914l-.915.572-1.943 1.029-.114 6.973-.229 1.715-.572 12.574-1.486 2.172-.572 3.315 2.743 4.915 1.257 5.83.8 1.029 1.029.572-.114 2.286-1.6 1.372-3.429 1.715-1.943 1.943-1.486 3.658-.572 4.915-2.858 2.743-2.058.686.136.83-.457 1.715.457.8 3.658.572-.572 2.743-1.486 2.172-3.772.913z"/><path fill="#F1F1F1" stroke="#fff" stroke-width=".75" d="M196.393 185.576l-23.639 128.823-1.832.349-1.573 2.406-2.373.011-1.472-2.743-2.618-.378-.771-1.108-1.038-.054-2.778 1.644-.31 6.785-.362 5.777-.349 8.593-1.447 2.089-2.439-1.074-69.08-104.201 18.989-67.585 93.092 20.666z"/><path fill="#D5D5D5" stroke="#fff" stroke-width=".75" d="M148.722 175.532l8.85-34.802 1.051-4.23 2.354-5.623-.616-1.163-2.515-.046-1.282-1.671.457-1.464.503-3.247 4.458-5.487 1.829-1.099 1.143-1.143 1.486-3.566 4.047-5.669 3.566-3.862.229-3.451-3.269-2.469-1.783-4.643-12.664-3.612-15.089-3.544-15.432.114-.457-1.372-5.487 2.058-4.458-.572-2.401-1.6-1.257.686-4.687-.229-1.715-1.372-5.258-2.058-.8.114-4.344-1.486-1.943 1.829-6.173-.343-5.944-4.115.686-.8.229-7.773-2.286-3.887-4.115-.572-.686-2.515-2.354-.467-5.799 2.059-2.263 6.466-3.233 10.026-3.233 6.466-5.011 14.064-6.466 13.579-8.083 12.61-1.94 2.91-.808 8.568.386 12.08 112.577 26.323z"/><path fill="#F1F1F1" stroke="#fff" stroke-width=".75" d="M102.073 7.612l4.365 1.455 9.7 2.748 8.568 1.94 20.046 5.658 22.956 5.658 15.223 3.207-13.632 63.586-12.445-3.525-15.508-3.571-15.229.033-.456-1.345-5.599 2.179-4.595-.737-2.147-1.584-1.313.658-4.736-.14-1.698-1.35-5.263-2.112-.735.147-4.389-1.524-1.893 1.817-6.266-.299-5.926-4.126.779-.933.12-7.676-2.282-3.84-4.115-.607-.677-2.511-2.276-.457-3.555 1.231-2.263-3.219.323-2.91 2.748-.323 1.617-4.042-2.587-1.132.162-3.718 4.365-.647-2.748-2.748-1.455-7.113.647-2.91v-7.921l-1.778-3.233 2.263-9.376 2.102.485 2.425 2.91 2.748 2.587 3.233 1.94 4.526 2.102 3.072.647 2.91 1.455 3.395.97 2.263-.162v-2.425l1.293-1.132 2.102-1.293.323 1.132.323 1.778-2.263.485-.323 2.102 1.778 1.455 1.132 2.425.647 1.94 1.455-.162.162-1.293-.97-1.293-.485-3.233.808-1.778-.647-1.455v-2.263l1.778-3.557-1.132-2.587-2.425-4.85.323-.808 1.131-.81zm-9.456 5.979l2.021-.162.485 1.374 1.536-1.617h2.344l.808 1.536-1.536 1.697.647.808-.727 2.021-1.374.404s-.889.081-.889-.242 1.455-2.587 1.455-2.587l-1.697-.566-.323 1.455-.727.647-1.536-2.263-.487-2.505z"/><path fill="#F1F1F1" stroke="#fff" stroke-width=".75" d="M144.694 382.198l3.94-.489 1.486-2.011.545-2.941-3.552-.59-.514-.668.477-2.032-.159-.59 1.923-.62 3.043-2.833.582-4.995 1.38-3.402 1.943-2.166 3.519-1.59 1.654-1.605.069-2.109-.993-.58-1.023-1.073-1.155-5.848-2.685-4.83.566-3.505-2.42-1.029-69.062-104.178 18.902-67.601-67.08-15.698-1.507 4.733-.162 7.436-5.173 11.801-3.072 2.587-.323 1.132-1.778.808-1.455 4.203-.808 3.233 2.748 4.203 1.617 4.203 1.132 3.557-.323 6.466-1.778 3.072-.647 5.82-.97 3.718 1.778 3.88 2.748 4.526 2.263 4.85 1.293 4.042-.323 3.233-.323.485v2.102l5.658 6.305-.485 2.425-.647 2.263-.647 1.94.162 8.245 2.102 3.718 1.94 2.587 2.748.485.97 2.748-1.132 3.557-2.102 1.617h-1.132l-.808 3.88.485 2.91 3.233 4.365 1.617 5.335 1.455 4.688 1.293 3.072 3.395 5.82 1.455 2.587.485 2.91 1.617.97v2.425l-.808 1.94-1.778 7.113-.485 1.94 2.425 2.748 4.203.485 4.526 1.778 3.88 2.102h2.91l2.91 3.072 2.587 4.85 1.132 2.263 3.88 2.102 4.85.808 1.455 2.102.647 3.233-1.455.647.323.97 3.233.808 2.748.162 3.16-1.687 3.88 4.203.808 2.263 2.587 4.203.323 3.233v9.376l.485 1.778 10.023 1.455 19.723 2.748 13.843 1.346zm-88.135-43.717l1.293 1.536-.162 1.293-3.233-.081-.566-1.212-.647-1.455 3.315-.081zm1.94 0l1.212-.647 3.557 2.102 3.072 1.212-.889.647-4.527-.242-1.617-1.617-.808-1.455zm20.693 19.804l1.778 2.344.808.97 1.536.566.566-1.455-.97-1.778-2.667-2.021-1.051.162v1.212zm-1.455 8.649l1.778 3.152 1.212 1.94-1.455.242-1.293-1.212s-.727-1.455-.727-1.859v-2.182l.485-.081z"/></svg>