<svg xmlns="http://www.w3.org/2000/svg" xmlns:xlink="http://www.w3.org/1999/xlink" width="700" height="1000" viewBox="0 0 700 1000"><path opacity=".35" fill="#F9EFEF" d="M677.004 2l-599.57 924.567s-5.793 75.309 325.852 30.413c3.209-.434 285.715-954.98 285.715-954.98h-11.997z"/><path opacity=".35" fill="#F7F0F0" d="M16.608 2l135.492 969.066s223.489 52.498 395.981-32.998c2.593-1.285-518.438-936.068-518.438-936.068h-13.035z"/><path opacity=".35" fill="#EFEAEA" d="M553.387 3.5l-462.783 934.568s140.993 107.995 421.479 4.5c2.713-1.001 71.045-939.068 71.045-939.068h-29.741z"/><path opacity=".35" fill="#EFE8E8" d="M223.402 2l-143.071 928.913s72.412 112.962 412.746 11.585c2.772-.826-241.285-940.498-241.285-940.498h-28.39z"/><ellipse fill="#E6D7C6" cx="199.465" cy="941.105" rx="32.624" ry="8.574"/><image overflow="visible" width="41" height="1812" xlink:href="D9B0A6A634B47566.png" transform="matrix(.24 0 0 .24 194.944 508.127)"/><image overflow="visible" width="113" height="325" xlink:href="D9B0A6A634B4756A.png" transform="matrix(.24 0 0 .24 178.066 444.896)"/><image overflow="visible" width="105" height="284" xlink:href="D9B0A6A634B4756B.png" transform="matrix(.24 0 0 .24 193.068 454.306)"/><image overflow="visible" width="495" height="566" xlink:href="D9B0A6A634B4756C.png" transform="matrix(.24 0 0 .24 134.069 342.882)"/><image overflow="visible" width="485" height="580" xlink:href="D9B0A6A634B4756D.png" transform="matrix(.24 0 0 .24 140.117 338.155)"/><path opacity=".5" fill="#fff" d="M160.901 350.089c-3.354.025-11.134 1.075-10.723 8.375.412 7.302 38.927 97.447 64.331 108.677 13.609 6.015 9.484-3.436 9.484-3.436s-76.141-80.628-64.329-100.73c8.453-14.392 14.228-11.813 14.228-11.813s-9.736-1.095-12.991-1.073z"/><image overflow="visible" width="270" height="116" xlink:href="D9B0A6A634B47568.png" transform="matrix(.24 0 0 .24 193.798 427.712)"/><image overflow="visible" width="277" height="129" xlink:href="D9B0A6A634B47569.png" transform="matrix(.24 0 0 .24 192.329 424.51)"/><image overflow="visible" width="281" height="115" xlink:href="D9B0A6A634B47578.png" transform="matrix(.24 0 0 .24 187.8 419.586)"/><image overflow="visible" width="288" height="129" xlink:href="D9B0A6A634B47579.png" transform="matrix(.24 0 0 .24 186.264 416.384)"/><image overflow="visible" width="289" height="115" xlink:href="768816059E14F73E.png" transform="matrix(.24 0 0 .24 183.121 411.974)"/><image overflow="visible" width="296" height="129" xlink:href="768816059E14F73A.png" transform="matrix(.24 0 0 .24 181.539 408.771)"/><image overflow="visible" width="299" height="115" xlink:href="768816059E14F739.png" transform="matrix(.24 0 0 .24 178.208 404.068)"/><image overflow="visible" width="307" height="128" xlink:href="768816059E14F736.png" transform="matrix(.24 0 0 .24 176.569 400.866)"/><image overflow="visible" width="307" height="115" xlink:href="768816059E14F729.png" transform="matrix(.24 0 0 .24 173.552 396.353)"/><image overflow="visible" width="315" height="128" xlink:href="768816059E14F72E.png" transform="matrix(.24 0 0 .24 171.865 393.15)"/><image overflow="visible" width="316" height="114" xlink:href="768816059E14F72C.png" transform="matrix(.24 0 0 .24 169.214 388.946)"/><image overflow="visible" width="324" height="128" xlink:href="768816059E14F724.png" transform="matrix(.24 0 0 .24 167.472 385.743)"/><image overflow="visible" width="322" height="114" xlink:href="768816059E14F725.png" transform="matrix(.24 0 0 .24 164.633 380.924)"/><image overflow="visible" width="331" height="128" xlink:href="768816059E14F726.png" transform="matrix(.24 0 0 .24 162.856 377.724)"/><image overflow="visible" width="332" height="106" xlink:href="768816059E14F74F.png" transform="matrix(.24 0 0 .24 159.612 373.739)"/><image overflow="visible" width="340" height="119" xlink:href="768816059E14F74C.png" transform="matrix(.24 0 0 .24 157.856 370.554)"/><image overflow="visible" width="335" height="99" xlink:href="768816059E14F74B.png" transform="matrix(.24 0 0 .24 155.315 366.873)"/><image overflow="visible" width="343" height="112" xlink:href="768816059E14F747.png" transform="matrix(.24 0 0 .24 153.602 363.706)"/><image overflow="visible" width="342" height="98" xlink:href="768816059E14F742.png" transform="matrix(.24 0 0 .24 150.971 358.494)"/><image overflow="visible" width="351" height="111" xlink:href="768816059E14F743.png" transform="matrix(.24 0 0 .24 149.22 355.329)"/><path fill="#838484" d="M194.378 361.189c-1.316 1.79-4.032 1.923-6.064.298-2.036-1.62-2.618-4.389-1.302-6.178 1.316-1.788 4.033-1.921 6.065-.298 2.034 1.622 2.617 4.39 1.301 6.178zM235.41 449.248c-1.316 1.791-4.031 1.923-6.063.299-2.037-1.621-2.616-4.389-1.3-6.179 1.312-1.788 4.03-1.92 6.064-.296 2.034 1.621 2.616 4.389 1.299 6.176z"/><path fill="#000707" d="M193.243 361.063c-.827 1.123-2.525 1.208-3.802.189-1.276-1.018-1.642-2.754-.816-3.875.827-1.123 2.529-1.204 3.802-.184 1.279 1.011 1.643 2.748.816 3.87zM234.482 449.122c-.825 1.122-2.527 1.21-3.803.189-1.276-1.016-1.641-2.753-.818-3.873.831-1.123 2.53-1.206 3.806-.184 1.277 1.011 1.641 2.748.815 3.868z"/><path fill="#838484" d="M192.594 358.504l-.231-.13-1.147.63-.634-1.253-.264-.027-.126.24.635 1.255-1.147.629-.026.274.229.134 1.147-.632.575 1.137.263.027.127-.24-.576-1.138 1.149-.63zM233.671 446.584l-.23-.129-1.147.63-.633-1.254-.265-.029-.126.242.632 1.253-1.145.629-.024.274.229.134 1.148-.632.574 1.138.264.029.125-.242-.575-1.138 1.15-.629z"/><path fill="#64685A" d="M204.209 489.3c1.582-.493 3.225.361 3.674 1.91l5.083 17.734c.446 1.548-.479 3.205-2.056 3.696-1.587.487-3.231-.366-3.671-1.913l-5.091-17.736c-.441-1.55.478-3.198 2.061-3.691z"/><path fill="#45483F" d="M210.29 504.369c.113.402-.108.821-.491.938l-1.744.523c-.384.115-.784-.117-.898-.517l-1.909-6.893c-.114-.407.109-.821.497-.938l1.738-.523c.383-.115.787.117.903.517l1.904 6.893z"/><path fill="#0B0C02" d="M209.395 501.12c.051.193-.22.44-.602.558l-1.75.524c-.381.116-.732.049-.785-.139l-.917-3.298c-.048-.188.217-.44.604-.558l1.735-.522c.388-.115.743-.052.796.138l.919 3.297z"/><g fill="#FCFCFC"><path d="M205.66 494.179c.153.545-.12.95-.553 1.08-.448.137-.854-.098-.993-.586-.134-.506.105-.938.559-1.074.462-.139.861.107.987.58zm-1.308.423c.094.34.374.59.724.487.345-.109.46-.47.357-.827-.089-.323-.354-.6-.724-.495-.358.112-.459.488-.357.835zM206.171 494.912l-.438-1.6.238-.072.767.647c.174.149.322.285.445.428l.007-.007c-.078-.204-.142-.4-.209-.648l-.185-.668.209-.062.442 1.596-.224.067-.762-.648c-.168-.14-.336-.289-.465-.438l-.005.004c.065.199.127.389.196.654l.188.683-.204.064z"/></g><g fill="#FCFCFC"><path d="M209.106 508.116c.154.547-.116.949-.554 1.076-.448.137-.854-.096-.989-.58-.14-.505.102-.94.557-1.079.468-.139.855.11.986.583zm-1.31.42c.098.344.381.589.724.486.352-.105.462-.466.362-.825-.087-.32-.359-.6-.719-.491-.373.11-.467.479-.367.83zM209.171 507.25l.914-.271.05.17-.691.209.147.533.639-.193.048.166-.64.191.204.726-.228.065-.443-1.596zM210.396 506.881l.915-.275.048.171-.692.212.147.531.638-.195.052.17-.642.191.2.729-.222.062-.444-1.596z"/></g><image overflow="visible" width="25" height="22" xlink:href="768816059E14F77B.png" transform="matrix(.24 0 0 .24 192.759 366.827)"/><path d="M192.759 367.377l2.369 4.725-1.236.322-1.133-2.042z"/><image overflow="visible" width="23" height="20" xlink:href="768816059E14F77F.png" transform="matrix(.24 0 0 .24 197.19 374.882)"/><path d="M197.189 375.396l2.204 4.385-1.152.299-1.052-1.893z"/><image overflow="visible" width="23" height="20" xlink:href="768816059E14F740.png" transform="matrix(.24 0 0 .24 201.107 382.83)"/><path d="M201.107 383.342l2.199 4.387-1.149.299-1.05-1.896z"/><image overflow="visible" width="23" height="21" xlink:href="768816059E14F741.png" transform="matrix(.24 0 0 .24 204.856 390.806)"/><path d="M204.855 391.438l2.379 4.287-1.138.352-1.126-1.848z"/><image overflow="visible" width="22" height="19" xlink:href="768816059E14F760.png" transform="matrix(.24 0 0 .24 208.63 398.505)"/><path d="M208.63 399.138l2.256 3.889-1.04.34-1.064-1.673z"/><image overflow="visible" width="22" height="19" xlink:href="768816059E14F7A2.png" transform="matrix(.24 0 0 .24 212.553 406.342)"/><path d="M212.553 406.975l2.251 3.891-1.038.34-1.063-1.674z"/><image overflow="visible" width="22" height="19" xlink:href="768816059E14F7A5.png" transform="matrix(.24 0 0 .24 215.924 414.153)"/><path d="M215.922 414.785l2.255 3.891-1.038.34-1.065-1.677z"/><image overflow="visible" width="22" height="19" xlink:href="768816059E14F7A6.png" transform="matrix(.24 0 0 .24 219.431 421.885)"/><path d="M219.431 422.515l2.254 3.892-1.041.339-1.063-1.672z"/><image overflow="visible" width="22" height="19" xlink:href="768816059E14F7A7.png" transform="matrix(.24 0 0 .24 222.961 430.614)"/><path d="M222.961 431.244l2.252 3.892-1.035.341-1.067-1.676z"/></svg>