<svg xmlns="http://www.w3.org/2000/svg" width="609.355" height="299.946" viewBox="0 0 609.355 299.946"><radialGradient id="a" cx="-389.921" cy="797.625" r="231.349" gradientTransform="matrix(1 0 0 -1 694 904.946)" gradientUnits="userSpaceOnUse"><stop offset="0" stop-color="#752104"/><stop offset="1" stop-color="#3D1004"/></radialGradient><path fill="url(#a)" d="M-3.359-4.604h614.875v223.85h-614.875z"/><path fill="#BC9F77" d="M0 215.923h609.355v83.81h-609.355z"/><path fill="#9C8156" d="M0 277.725h609.355v22.008h-609.355z"/><path fill="#7F6846" d="M0 296.494h609.355v3.452h-609.355z"/><path stroke="#9C8156" stroke-miterlimit="10" fill="none" d="M0 222.478h609.355M609.355 272.106h-609.355M287.844 222.478c.535 0-12.678 49.629-12.678 49.629M267.463 222.478c.535 0-25.795 49.629-25.795 49.629M241.982 222.478c.535 0-43.982 49.629-43.982 49.629M211.629 222.478c.543 0-74.246 50.711-73.275 49.629M174.985 222.478c.543 0-101.504 50.711-100.534 49.629M134.214 222.478c.543 0-128.185 50.711-127.214 49.629M81.699 222.478c-26.699 9.522-54.699 17.522-82.869 26.757M308.435 222.478c-.535 0 12.678 49.629 12.678 49.629M328.815 222.478c-.535 0 25.795 49.629 25.795 49.629M354.296 222.478c-.535 0 43.982 49.629 43.982 49.629M384.649 222.478c-.543 0 74.246 50.711 73.275 49.629M421.293 222.478c-.543 0 101.504 50.711 100.534 49.629M462.064 222.478c-.543 0 128.185 50.711 127.214 49.629M514.58 222.478c31.42 11.522 63.42 19.522 95.65 30.845"/><path opacity=".15" enable-background="new" d="M500.954-1.279s-13.218 105.294 83.593 126.872l-13.856 128.995h17.101l12.201-167.899-64.803-88.291-34.236.323z"/><path fill="#E31F26" d="M519.607-1.602s3.014 105.23 67.561 125.326l-10.67 130.847h32.979v-255.85l-89.87-.323z"/><path opacity=".1" fill="#1D1C1A" stroke="#636463" stroke-width=".645" stroke-miterlimit="10" enable-background="new" d="M535.19-1.602s4.022 92.336 56.202 125.941c0 0-45.244-36.001-46.148-125.941h-10.054z"/><path opacity=".1" fill="#1D1C1A" stroke="#636463" stroke-width=".604" stroke-miterlimit="10" enable-background="new" d="M563.292-1.444s-1.334 81.545 29.911 125.784c0 0-24.182-50.475-16.704-125.619l-13.207-.165z"/><path opacity=".1" fill="#1D1C1A" stroke="#636463" stroke-width=".483" stroke-miterlimit="10" enable-background="new" d="M588.774-1.113s-5.903 80.316 11.218 126.075c0 0-12.487-51.726-3.014-126.285l-8.204.21z"/><path fill="#F2BD38" d="M609.478 108.997s-8.749 14.889-24.931 13.847c0 0 16.674 9.919 24.931-13.847z"/><path opacity=".1" fill="#1D1C1A" stroke="#636463" stroke-width=".699" stroke-miterlimit="10" enable-background="new" d="M589.214 126.697l-4.779 127.896 4.684-.279v-129.483M595.12 126.743l3.908 127.845 4.679-.414-8.712-129.292"/><path opacity=".15" enable-background="new" d="M107.147-1.279s13.218 105.294-83.593 126.872l13.856 128.995h-17.101l-12.201-167.9 64.802-88.29 34.237.323z"/><path fill="#E31F26" d="M88.494-1.602s-3.014 105.23-67.561 125.326l10.67 130.847h-32.98v-255.85l89.871-.323z"/><path opacity=".1" fill="#1D1C1A" stroke="#636463" stroke-width=".645" stroke-miterlimit="10" enable-background="new" d="M72.911-1.602s-4.022 92.336-56.202 125.941c0 0 45.244-36.001 46.148-125.941h10.054z"/><path opacity=".1" fill="#1D1C1A" stroke="#636463" stroke-width=".604" stroke-miterlimit="10" enable-background="new" d="M44.81-1.444s1.334 81.545-29.911 125.784c0 0 24.182-50.475 16.704-125.619l13.207-.165z"/><path opacity=".1" fill="#1D1C1A" stroke="#636463" stroke-width=".483" stroke-miterlimit="10" enable-background="new" d="M19.327-1.113s5.903 80.316-11.218 126.075c0 0 12.487-51.726 3.014-126.285l8.204.21z"/><path fill="#F2BD38" d="M-1.377 108.997s8.749 14.889 24.931 13.847c0 0-16.674 9.919-24.931-13.847z"/><path opacity=".1" fill="#1D1C1A" stroke="#636463" stroke-width=".699" stroke-miterlimit="10" enable-background="new" d="M18.887 126.697l4.779 127.896-4.684-.279v-129.483M12.981 126.743l-3.908 127.845-4.679-.414 8.712-129.292"/></svg>