<?xml version="1.0" encoding="utf-8"?>
<!-- Generator: Adobe Illustrator 16.0.0, SVG Export Plug-In . SVG Version: 6.00 Build 0)  -->
<!DOCTYPE svg PUBLIC "-//W3C//DTD SVG 1.1//EN" "http://www.w3.org/Graphics/SVG/1.1/DTD/svg11.dtd">
<svg version="1.1" id="Layer_1" xmlns="http://www.w3.org/2000/svg" xmlns:xlink="http://www.w3.org/1999/xlink" x="0px" y="0px"
	 width="2000px" height="985px" viewBox="0 0 2000 985" enable-background="new 0 0 2000 985" xml:space="preserve">
<g>
	<radialGradient id="SVGID_1_" cx="1000.1104" cy="351.8872" r="760.387" gradientUnits="userSpaceOnUse">
		<stop  offset="0" style="stop-color:#752104"/>
		<stop  offset="1" style="stop-color:#3D1004"/>
	</radialGradient>
	<rect x="-10.359" y="-15.982" fill="url(#SVGID_1_)" width="2020.939" height="735.738"/>
	<rect x="0.682" y="708.835" fill="#BC9F77" width="2002.797" height="275.462"/>
	<rect x="0.682" y="911.962" fill="#9C8156" width="2002.797" height="72.335"/>
	<rect x="0.682" y="973.652" fill="#7F6846" width="2002.797" height="11.348"/>
	<line fill="none" stroke="#9C8156" stroke-miterlimit="10" x1="0.682" y1="730.379" x2="2003.479" y2="730.379"/>
	<line fill="none" stroke="#9C8156" stroke-miterlimit="10" x1="2003.479" y1="893.498" x2="0.682" y2="893.498"/>
	<path fill="none" stroke="#9C8156" stroke-miterlimit="10" d="M946.751,730.379c1.759,0-41.668,163.118-41.668,163.118"/>
	<path fill="none" stroke="#9C8156" stroke-miterlimit="10" d="M879.765,730.379c1.759,0-84.784,163.118-84.784,163.118"/>
	<path fill="none" stroke="#9C8156" stroke-miterlimit="10" d="M796.017,730.379c1.76,0-144.558,163.118-144.558,163.118"/>
	<path fill="none" stroke="#9C8156" stroke-miterlimit="10" d="M696.252,730.379c1.784,0-244.028,166.674-240.837,163.118"/>
	<path fill="none" stroke="#9C8156" stroke-miterlimit="10" d="M575.813,730.379c1.784,0-333.62,166.674-330.43,163.118"/>
	<path fill="none" stroke="#9C8156" stroke-miterlimit="10" d="M441.809,730.379c1.786,0-421.31,166.674-418.12,163.118"/>
	<path fill="none" stroke="#9C8156" stroke-miterlimit="10" d="M269.205,730.379c-87.752,31.297-179.782,57.592-272.368,87.946"/>
	<g>
		<path fill="none" stroke="#9C8156" stroke-miterlimit="10" d="M1014.428,730.379c-1.76,0,41.668,163.118,41.668,163.118"/>
		<path fill="none" stroke="#9C8156" stroke-miterlimit="10" d="M1081.415,730.379c-1.759,0,84.783,163.118,84.783,163.118"/>
		<path fill="none" stroke="#9C8156" stroke-miterlimit="10" d="M1165.163,730.379c-1.759,0,144.559,163.118,144.559,163.118"/>
		<path fill="none" stroke="#9C8156" stroke-miterlimit="10" d="M1264.928,730.379c-1.786,0,244.027,166.674,240.836,163.118"/>
		<path fill="none" stroke="#9C8156" stroke-miterlimit="10" d="M1385.366,730.379c-1.784,0,333.619,166.674,330.43,163.118"/>
		<path fill="none" stroke="#9C8156" stroke-miterlimit="10" d="M1519.37,730.379c-1.784,0,421.311,166.674,418.119,163.118"/>
		<path fill="none" stroke="#9C8156" stroke-miterlimit="10" d="M1691.974,730.379c103.271,37.872,208.448,64.165,314.38,101.381"/>
	</g>
	<path opacity="0.15" d="M1647.189-5.053c0,0-43.445,346.075,274.75,416.997l-45.541,423.974h56.207l40.101-551.842L1759.717-6.111
		L1647.189-5.053z"/>
	<path fill="#E31F26" d="M1708.499-6.111c0,0,9.907,345.867,222.057,411.916l-35.07,430.06h108.396V-5.053L1708.499-6.111z"/>
	<path opacity="0.1" fill="#1D1C1A" stroke="#636463" stroke-width="0.6448" stroke-miterlimit="10" d="M1759.717-6.111
		c0,0,13.221,303.484,184.723,413.937c0,0-148.706-118.327-151.678-413.937H1759.717z"/>
	<path opacity="0.1" fill="#1D1C1A" stroke="#636463" stroke-width="0.604" stroke-miterlimit="10" d="M1852.078-5.594
		c0,0-4.386,268.017,98.308,413.42c0,0-79.479-165.897-54.9-412.878L1852.078-5.594z"/>
	<path opacity="0.1" fill="#1D1C1A" stroke="#636463" stroke-width="0.4826" stroke-miterlimit="10" d="M1935.834-4.507
		c0,0-19.403,263.98,36.872,414.376c0,0-41.042-170.008-9.907-415.066L1935.834-4.507z"/>
	<path fill="#F2BD38" d="M2003.882,357.398c0,0-28.755,48.935-81.942,45.511C1921.939,402.909,1976.741,435.509,2003.882,357.398z"
		/>
	<polyline opacity="0.1" fill="#1D1C1A" stroke="#636463" stroke-width="0.6989" stroke-miterlimit="10" points="1937.279,415.574 
		1921.572,835.935 1936.967,835.018 1936.967,409.44 	"/>
	<polyline opacity="0.1" fill="#1D1C1A" stroke="#636463" stroke-width="0.699" stroke-miterlimit="10" points="1956.688,415.725 
		1969.535,835.917 1984.913,834.556 1956.279,409.607 	"/>
	<path opacity="0.15" d="M352.849-5.053c0,0,43.445,346.075-274.751,416.997l45.542,423.974H67.433L27.332,284.075L240.321-6.111
		L352.849-5.053z"/>
	<path fill="#E31F26" d="M291.538-6.111c0,0-9.907,345.867-222.057,411.916l35.07,430.06H-3.844V-5.053L291.538-6.111z"/>
	<path opacity="0.1" fill="#1D1C1A" stroke="#636463" stroke-width="0.6448" stroke-miterlimit="10" d="M240.321-6.111
		c0,0-13.221,303.484-184.723,413.937c0,0,148.706-118.327,151.676-413.937H240.321z"/>
	<path opacity="0.1" fill="#1D1C1A" stroke="#636463" stroke-width="0.604" stroke-miterlimit="10" d="M147.96-5.594
		c0,0,4.386,268.017-98.309,413.42c0,0,79.479-165.897,54.9-412.878L147.96-5.594z"/>
	<path opacity="0.1" fill="#1D1C1A" stroke="#636463" stroke-width="0.4826" stroke-miterlimit="10" d="M64.204-4.507
		c0,0,19.402,263.98-36.872,414.376c0,0,41.041-170.008,9.907-415.066L64.204-4.507z"/>
	<path fill="#F2BD38" d="M-3.844,357.398c0,0,28.754,48.935,81.942,45.511C78.098,402.909,23.296,435.509-3.844,357.398z"/>
	<polyline opacity="0.1" fill="#1D1C1A" stroke="#636463" stroke-width="0.6989" stroke-miterlimit="10" points="62.759,415.574 
		78.466,835.935 63.071,835.018 63.071,409.44 	"/>
	<polyline opacity="0.1" fill="#1D1C1A" stroke="#636463" stroke-width="0.699" stroke-miterlimit="10" points="43.349,415.725 
		30.502,835.917 15.125,834.556 43.758,409.607 	"/>
	<path opacity="0.1" fill="#FFFFFF" d="M1246.809,819.333c0.483-0.255,0.812-0.515,0.812-0.772c0-0.546-1.101-1.083-3.189-1.605
		L121.614-306.272L721.733,816.87c-2.318,0.55-3.581,1.115-3.581,1.69c0,5.711,118.526,10.338,264.733,10.338
		c132.403,0,242.097-3.797,261.634-8.752h3.101L1246.809,819.333z"/>
	<path opacity="0.1" fill="#FFFFFF" d="M1246.809,819.333c0.483-0.255,0.812-0.515,0.812-0.772c0-0.546-1.101-1.083-3.189-1.605
		L421.259-362.385L721.733,816.87c-2.318,0.55-3.581,1.115-3.581,1.69c0,5.711,118.526,10.338,264.733,10.338
		c132.403,0,242.097-3.797,261.634-8.752h3.101L1246.809,819.333z"/>
	<path opacity="0.1" fill="#FFFFFF" d="M652.103,819.457c-0.314,0.188-0.51,0.378-0.566,0.568l-0.121,0.121h0.043
		c0,5.71,116.632,10.338,260.503,10.338c143.867,0,260.498-4.628,260.498-10.338l598.319-1126.418L652.103,819.457z"/>
	<path opacity="0.1" fill="#FFFFFF" d="M652.103,819.457c-0.314,0.188-0.51,0.378-0.566,0.568l-0.121,0.121h0.043
		c0,5.71,116.632,10.338,260.503,10.338c143.867,0,260.498-4.628,260.498-10.338l367.208-1182.531L652.103,819.457z"/>
</g>
</svg>
