<svg xmlns="http://www.w3.org/2000/svg" width="2535" height="1256" viewBox="0 0 2535 1256"><radialGradient id="a" cx="666.338" cy="-99.373" r="968.948" gradientTransform="translate(598 563.446)" gradientUnits="userSpaceOnUse"><stop offset="0" stop-color="#752104"/><stop offset="1" stop-color="#3D1004"/></radialGradient><path fill="url(#a)" d="M-23.285-4.696h2575.247v937.539h-2575.247v-937.539z"/><path fill="#BC9F77" d="M-9.217 918.925h2552.128v351.017h-2552.128v-351.017z"/><path fill="#9C8156" d="M-9.217 1177.766h2552.128v92.175h-2552.128v-92.175z"/><path fill="#7F6846" d="M-9.217 1256.375h2552.128v14.458h-2552.128v-14.458z"/><path stroke="#9C8156" stroke-miterlimit="10" d="M-9.217 946.378h2552.128m0 207.855h-2552.128m1205.561-207.855c2.241 0-53.099 207.858-53.099 207.858m-32.261-207.858c2.241 0-108.036 207.858-108.036 207.858m1.315-207.858c2.241 0-184.207 207.858-184.207 207.858m57.081-207.858c2.274 0-310.96 212.39-306.894 207.858m153.42-207.858c2.274 0-425.124 212.39-421.061 207.858m250.302-207.858c2.274 0-536.87 212.39-532.803 207.858m312.858-207.858c-111.822 39.88-229.093 73.386-347.076 112.065m1296.701-112.065c-2.241 0 53.099 207.858 53.099 207.858m32.258-207.858c-2.241 0 108.036 207.858 108.036 207.858m-1.316-207.858c-2.241 0 184.207 207.858 184.207 207.858m-57.081-207.858c-2.274 0 310.96 212.39 306.894 207.858m-153.42-207.858c-2.274 0 425.124 212.39 421.061 207.858m-250.302-207.858c-2.274 0 536.87 212.39 532.803 207.858m-312.853-207.858c131.594 48.257 265.618 81.763 400.605 129.186" fill="none"/><path opacity=".15" enable-background="new" d="M2088.901 9.229s-55.36 440.997 350.108 531.371l-58.032 540.263h71.623l51.101-703.202-271.411-369.784-143.389 1.352z"/><path fill="#E31F26" d="M2167.024 7.877s12.623 440.729 282.962 524.896l-44.688 548.019h138.124v-1071.563l-376.398-1.352z"/><path opacity=".1" fill="#1D1C1A" stroke="#636463" stroke-width=".645" stroke-miterlimit="10" enable-background="new" d="M2232.29 7.877s16.845 386.726 235.388 527.472c0 0-189.493-150.781-193.279-527.472h-42.109z"/><path opacity=".1" fill="#1D1C1A" stroke="#636463" stroke-width=".604" stroke-miterlimit="10" enable-background="new" d="M2349.988 8.538s-5.587 341.53 125.275 526.814c0 0-101.28-211.402-69.96-526.123l-55.315-.691z"/><path opacity=".1" fill="#1D1C1A" stroke="#636463" stroke-width=".483" stroke-miterlimit="10" enable-background="new" d="M2456.713 9.925s-24.723 336.383 46.984 528.033c0 0-52.299-216.641-12.623-528.912l-34.361.879z"/><path fill="#F2BD38" d="M2543.426 471.092s-36.643 62.359-104.417 57.995c0 0 69.835 41.543 104.417-57.995z"/><path opacity=".1" fill="#1D1C1A" stroke="#636463" stroke-width=".699" stroke-miterlimit="10" enable-background="new" d="M2458.555 545.224l-20.016 535.66 19.618-1.168v-542.307m25.134 8.008l16.368 535.446 19.597-1.734-36.488-541.507"/><path opacity=".15" enable-background="new" d="M439.541 9.229s55.36 440.997-350.108 531.371l58.032 540.263h-71.623l-51.101-703.206 271.407-369.78 143.393 1.352z"/><path fill="#E31F26" d="M361.418 7.877s-12.623 440.729-282.962 524.896l44.689 548.019h-138.129v-1071.563l376.402-1.352z"/><path opacity=".1" fill="#1D1C1A" stroke="#636463" stroke-width=".645" stroke-miterlimit="10" enable-background="new" d="M296.152 7.877s-16.845 386.726-235.388 527.472c0 0 189.493-150.781 193.279-527.472h42.109z"/><path opacity=".1" fill="#1D1C1A" stroke="#636463" stroke-width=".604" stroke-miterlimit="10" enable-background="new" d="M178.458 8.538s5.587 341.53-125.275 526.814c0 0 101.28-211.402 69.96-526.123l55.315-.691z"/><path opacity=".1" fill="#1D1C1A" stroke="#636463" stroke-width=".483" stroke-miterlimit="10" enable-background="new" d="M71.729 9.925s24.723 336.383-46.984 528.033c0 0 52.299-216.641 12.623-528.912.001-.001 34.361.879 34.361.879z"/><path fill="#F2BD38" d="M-14.984 471.092s36.643 62.359 104.417 57.995c0 0-69.835 41.543-104.417-57.995z"/><path opacity=".1" fill="#1D1C1A" stroke="#636463" stroke-width=".699" stroke-miterlimit="10" enable-background="new" d="M69.887 545.224l20.016 535.66-19.618-1.168v-542.307m-25.134 8.008l-16.368 535.446-19.597-1.734 36.488-541.507"/></svg>