<svg xmlns="http://www.w3.org/2000/svg" width="175.065" height="157.333" viewBox="0 0 175.065 157.333"><path d="M171.102 47.301l-79.605-44.991c-2.181-1.301-5.748-1.301-7.929 0l-79.603 44.991c-2.181 1.303-3.965 4.447-3.965 6.99v65.751c0 2.543 1.989 5.215 4.425 5.944l78.684 28.673c2.434.732 6.414.732 8.849 0l78.684-28.673c2.434-.729 4.425-3.401 4.425-5.944v-65.751c-.002-2.543-1.788-5.687-3.965-6.99"/><path fill="#fff" d="M102.948 82.381c-.233.231-.615.308-1.768.308h-3.879c-1.156 0-1.538-.076-1.77-.308-.269-.27-.463-1.078-.463-7.005 0-5.88.194-6.724.463-6.993.232-.231.614-.31 1.77-.31h3.879c1.152 0 1.534.079 1.768.31.269.27.463 1.113.463 6.993 0 5.891-.194 6.735-.463 7.005m-8.724-20.461c-2.807 0-3.961.422-5 1.462-1.578 1.538-2.46 4.573-2.46 11.994 0 7.427.882 10.465 2.46 12.003 1.039 1.04 2.193 1.462 5 1.462h10.032c2.807 0 3.963-.422 4.998-1.462 1.579-1.538 2.463-4.576 2.463-12.003 0-7.421-.884-10.456-2.463-11.994-1.035-1.04-2.191-1.462-4.998-1.462h-10.032zm37.555 0v6h2.651v7.77l-8.947-13.77h-12.242v6h2.847v14.921h-2.847v6h12.843l-.037-6h-2.843v-9.343l9.482 15.343h8.858v-20.921h2.773v-6h-12.538zm-82.67 47.909l7.964-10.614h2.731v-6h-13.464v5.921h2.351l-3.195 4.617h-.153l-2.959-4.617h2.343v-5.921h-13.977v6h2.669l7.808 10.731v4.189h-3.038v6h13.961v-6h-3.041v-4.306zm4.985-26.988h-7.248v-14.921h7.248v-6h-23.347v6h7.254v14.921h-7.254v6h23.347v-6zm12.893-14.997h6.026c1.115 0 1.538.076 1.768.308.347.38.426.957.426 2.344 0 1.386-.079 1.963-.426 2.347-.23.231-.652.308-1.768.308h-6.026v-5.307zm2.923 14.997h-2.923v-4.151h4.521l5.959 10.151h8.314v-6h-2.576l-4.077-6.923c3.116-.615 4.383-1.767 4.383-6.539 0-3.345-.381-4.85-1.574-6.041-1.037-1.034-2.54-1.418-4.845-1.418h-20.833v6h2.844v14.921h-2.844v6h13.651v-6zm64.133 30.797c-.383.383-1.038.498-2.77.498h-6.269l-.074-14.921h6.344c1.731 0 2.387.114 2.77.495.426.428.575 1.544.575 6.967-.001 5.385-.15 6.536-.576 6.961m-30.85-9.501c-.228.228-.649.307-1.766.307h-6.025v-5.308h6.025c1.116 0 1.538.079 1.766.308.35.387.428.964.428 2.35 0 1.382-.078 1.959-.428 2.343m-36.063 2.194l1.985-6.231h1.886l1.935 6.231h-5.806zm65.417-13.116h-18.35v6h2.846v14.921h-5.4239999999999995l-4.077-6.92c3.116-.615 4.384-1.772 4.384-6.539 0-3.349-.382-4.846-1.574-6.038-1.039-1.04-2.542-1.424-4.845-1.424h-20.833v6h2.844v14.921h-4.003l-7.105-21.038h-12.109l-7.133 21.038h-3.074v6h13.418v-5.883h-2.462l.617-2.31h8.73l.654 2.31h-2.461v5.883h25.734v-6h-2.923v-4.152h4.52l5.96 10.152h26.666c3.882 0 5.962-.501 7.577-2.118 1.843-1.843 2.807-4.615 2.807-11.341 0-6.733-.964-9.501-2.807-11.35-1.615-1.614-3.695-2.112-7.577-2.112m-27.797-48.829c.146-.088.411-.208.616-.208.208 0 .354.087.354.322 0 .911-3.877 5.054-5.553 5.054-.146 0-.471-.029-.703-.381 1.35-1.644 3.32-3.437 5.286-4.787m-42.34.94c6.662-.229 10.103-3.561 12.341-7.062.7-1.092.287-1.49-.358-.688-1.664 2.066-4.441 4.438-7.483 5.528-7.203 2.584-4.591-8.112.385-9.489 3.952-1.095 10.542.806 16.763 1.896 0 0-.47.325-.707.501-.527.41-3.112 2.672-7.605 7.017-2.676 2.59-7.992 7.699-7.992 9.551 0 .674 2.028 4.169 3.204 4.169.441 0 .146-.939 2.437-3.903 3.849-4.994 9.781-10.783 12.131-13.071 2-1.939 4.672-4.113 5.583-4.113.75 0 1.798-.029 2.986-.079-4.682 4.204-12.335 11.273-15.991 16.617-.177.264-.266.523-.266.674 0 1.084 1.941 2.642 2.498 2.642.322 0 .825-1.174 1.057-1.434 4.084-4.995 6.671-7.198 8.959-8.168-1.994 1.969-4.259 4.143-4.259 5.994 0 1.462.854 3.521 2.525 3.521 1.381 0 4.362-2.163 6.145-3.812.157 1.242 2.802 4.078 4.055 4.078 2.881 0 5.786-2.061 7.932-4.025 1.205-1.087 2.377-2.44 2.377-2.763 0-.114-.027-.293-.261-.293-.267 0-3.084 2.613-8.459 4.585-.356.114-1 .293-1.528.293-.911 0-1.147-.618-1.147-1.09 0-.527.325-1.264.881-2.112.646.677 1.529 1.028 2.146 1.028 2.203 0 7.048-3.996 7.048-6.817 0-.378-.089-.882-1.144-1.849-.735-.823-1.557-1.439-2.174-1.439-1.119 0-2.909.938-5.258 3.052-1.198 1.076-2.351 2.242-3.191 3.505-.3.453-1.322 1.904-2.31 2.666-1.703 1.318-3.526 2.525-4.11 2.525-.208 0-.384-.115-.384-.41 0-1.5 4.494-5.021 5.904-6.229.498-.439.617-.586.617-.938 0-1.206-1.704-2.146-2.615-2.146-1.529 0-2.644.703-4.553 1.644.743-.946 3.53-2.921 7.529-6.715 1.243-1.178 2.787-2.408 4.824-2.977 2.676-.196 5.376-.426 7.524-.677.766-.085 1.998-.352 1.998-.703 0-.472-1.029-1.09-1.409-1.412-2.644-2.112-2.734-1.767-3.113-1.767-.589 0-13.928.829-27.613.829-5.815 0-10.375-.545-13.406.764-7.621 3.288-8.844 13.316-2.513 13.102"/></svg>