<?xml version="1.0" encoding="utf-8"?>
<!-- Generator: Adobe Illustrator 16.0.0, SVG Export Plug-In . SVG Version: 6.00 Build 0)  -->
<!DOCTYPE svg PUBLIC "-//W3C//DTD SVG 1.1//EN" "http://www.w3.org/Graphics/SVG/1.1/DTD/svg11.dtd">
<svg version="1.1" id="Layer_1" xmlns="http://www.w3.org/2000/svg" xmlns:xlink="http://www.w3.org/1999/xlink" x="0px" y="0px"
	 width="748.648px" height="356.081px" viewBox="0 0 748.648 356.081" enable-background="new 0 0 748.648 356.081"
	 xml:space="preserve">
<path d="M647.191,108.28c-13.604-14.398-32.51-22.331-53.231-22.331c-33.29,0-61.476,22.688-70.624,53.741V90.636l-44.909,9.171
	c-8.203-8.606-21.304-13.604-36.238-13.604c-29.557,0-59.408,18.24-68.347,53.346V90.636l-44.91,10.716
	c-5.995-6.672-17.8-15.402-38.464-15.402c-32.994,0-59.344,21.556-67.866,52.773c-9.356-31.378-38.441-52.773-72.871-52.773
	c-41.636,0-74.247,32.832-74.247,74.742c0,42.181,33.044,75.228,75.232,75.228c33.217,0,62.02-21.171,72.048-52.182
	c7.875,28.558,30.793,52.434,67.703,52.434c12.979,0,29.002-4.095,38.464-15.159v15.113h44.91v-53.19
	c8.283,31.295,34.91,52.984,68.347,52.984c19.3,0,30.461-8.928,35.986-15.37v2.045c0,21.63-15.719,31.31-31.305,31.31
	c-3.7,0-7.135-0.541-10.165-1.605c-3.907-1.436-9.139-4.476-11.94-10.775l-0.523-1.184h-50.047l0.314,2.257
	c2.574,18.497,19.396,53.776,69.404,53.776c37.315,0,61.563-21.886,71.022-37.27c7.025-12.238,8.4-26.183,8.4-46.129V182.77
	c9.198,30.704,37.701,53.149,71.362,53.149c14.664,0,28.54-4.389,40.081-12.669c12.041-8.204,21.928-20.603,28.571-35.872
	l1.211-2.778h-45.996l-0.592,0.862c-3.843,5.571-9.964,11.963-23.275,11.963c-14.71,0-26.608-8.373-29.223-20.203H666.73
	l0.225-1.733C670.425,148.237,663.964,126.255,647.191,108.28z M179.611,175.475l-0.557,1.055
	c-6.128,11.573-15.237,17.199-27.845,17.199c-17.998,0-30.571-13.485-30.571-32.794c0-9.263,2.978-17.732,8.354-23.812
	c5.448-5.897,12.541-9.02,20.503-9.02c0.532,0,1.068,0.014,1.713,0.042c12.938,0,22.033,5.924,27.804,18.107l0.536,1.128h41.204
	c-0.694,4.379-1.075,8.9-1.075,13.555c0,4.869,0.422,9.739,1.24,14.54H179.611z M328.937,162.998
	c-0.491,6.199-2.3,11.779-5.381,16.622c-5.88,9.524-14.935,14.357-26.918,14.357c-24.213,0-32.05-21.767-32.05-32.304v-0.243
	c0-13.376,8.469-33.285,31.802-33.285c18.124,0,26.125,11.192,29.285,17.864C328.267,151.429,329.395,157.307,328.937,162.998z
	 M469.389,184.934c-5.833,5.837-13.408,8.794-22.52,8.794c-14.935,0-30.818-11.578-30.818-33.037v-0.252
	c0-17.97,13.646-32.047,31.066-32.047c9.863,0,17.86,3.412,23.175,9.932c5.245,5.934,8.134,14.577,8.134,24.238
	C477.968,171.513,474.832,179.257,469.389,184.934z M566.205,142.18c2.123-5.929,9.661-17.732,27.998-17.732
	s25.875,11.803,27.998,17.732H566.205z"/>
</svg>
