<?xml version="1.0" encoding="utf-8"?>
<!-- Generator: Adobe Illustrator 16.0.0, SVG Export Plug-In . SVG Version: 6.00 Build 0)  -->
<!DOCTYPE svg PUBLIC "-//W3C//DTD SVG 1.1//EN" "http://www.w3.org/Graphics/SVG/1.1/DTD/svg11.dtd">
<svg version="1.1" id="Layer_1" xmlns="http://www.w3.org/2000/svg" xmlns:xlink="http://www.w3.org/1999/xlink" x="0px" y="0px"
	 width="488px" height="83.5px" viewBox="0 0 488 83.5" enable-background="new 0 0 488 83.5" xml:space="preserve">
<g>
	<path fill="#C68144" d="M101.583,53.455L79.352,31.226c-0.302-0.304-0.697-0.453-1.09-0.453c-0.396,0-0.791,0.149-1.091,0.453
		l-0.027,0.025c-0.29,0.29-0.453,0.683-0.453,1.091v6.152c0,0.409,0.163,0.801,0.453,1.091l14.96,14.961l-14.96,14.963
		c-0.29,0.289-0.453,0.683-0.453,1.088v6.156c0,0.405,0.163,0.8,0.453,1.088l0.027,0.027c0.287,0.289,0.682,0.453,1.091,0.453
		c0.409,0,0.8-0.164,1.091-0.453l22.232-22.23C102.186,55.037,102.186,54.058,101.583,53.455"/>
	<path fill="#C68144" d="M45.195,53.455l22.231-22.229c0.299-0.304,0.695-0.453,1.09-0.453c0.394,0,0.791,0.149,1.093,0.453
		l0.026,0.025c0.289,0.29,0.452,0.683,0.452,1.091v6.152c0,0.409-0.163,0.801-0.452,1.091L54.674,54.546l14.961,14.963
		c0.289,0.289,0.452,0.683,0.452,1.088v6.156c0,0.405-0.163,0.8-0.452,1.088l-0.026,0.027c-0.29,0.289-0.683,0.453-1.093,0.453
		c-0.409,0-0.8-0.164-1.092-0.453l-22.229-22.23C44.592,55.037,44.592,54.058,45.195,53.455"/>
	<g>
		<path fill="#626F68" d="M27.902,36.176c4.8,0,8.901,2.4,12.401,6.201l4.8-3.601c-4.5-5.1-10.5-8-17.201-8
			c-14.201,0-24.301,10.201-24.301,24.301c0,14.102,10.1,24.302,24.301,24.302c6.601,0,12.501-2.601,17.001-8.001l-4.6-3.8
			c-3.1,3.8-7.4,6.4-12.401,6.4c-11.3,0-18.301-8.501-18.301-18.901S16.602,36.176,27.902,36.176z"/>
		<path fill="#626F68" d="M185.299,30.776c-13.501,0-23.101,10.4-23.101,24.201c0,14.301,9.3,24.402,23.401,24.402
			c8.201,0,15.301-2.9,20.001-9.901l-4.4-3.699c-3,5-9.401,8.2-15.501,8.2c-14.001,0-17.501-12.401-17.501-17.401H207v-4.2
			C207,41.676,199.5,30.776,185.299,30.776z M168.198,51.177c0-2.4,3.7-15.001,16.801-15.001c8.9,0,16.001,6.8,16.001,15.001
			H168.198z"/>
		<path fill="#626F68" d="M235.098,43.577c0-4.801,5.501-7.401,9.801-7.401c5.399,0,8.6,2.3,10.9,6.501l5.4-3.2
			c-3-5.901-8.801-8.701-16.301-8.701c-7.602,0-15.801,4.3-15.801,13.301c0,17.601,27.401,8.7,27.401,21.4
			c0,5.301-5.4,8.501-10.6,8.501c-5.401,0-10.901-2.7-13.401-7.601l-5.3,3.6c3.6,6.4,10.7,9.401,18.601,9.401
			c8.8,0,16.701-4.8,16.701-14.301C262.5,46.377,235.098,56.077,235.098,43.577z"/>
		<path fill="#626F68" d="M291.699,36.176c4.8,0,8.9,2.4,12.4,6.201l4.801-3.601c-4.501-5.1-10.501-8-17.201-8
			c-14.201,0-24.302,10.201-24.302,24.301c0,14.102,10.101,24.302,24.302,24.302c6.6,0,12.5-2.601,17.001-8.001l-4.601-3.8
			c-3.101,3.8-7.4,6.4-12.4,6.4c-11.301,0-18.302-8.501-18.302-18.901S280.398,36.176,291.699,36.176z"/>
		<path fill="#626F68" d="M383.398,30.775c-14.201,0-24.302,10.201-24.302,24.302s10.101,24.301,24.302,24.301
			c14.2,0,24.301-10.2,24.301-24.301S397.599,30.775,383.398,30.775z M383.398,73.979c-11.301,0-18.302-8.501-18.302-18.901
			c0-10.401,7.001-18.901,18.302-18.901s18.301,8.5,18.301,18.901C401.699,65.478,394.699,73.979,383.398,73.979z"/>
		<path fill="#626F68" d="M437.797,30.775c-14.201,0-24.302,10.201-24.302,24.302s10.101,24.301,24.302,24.301
			c14.2,0,24.301-10.2,24.301-24.301S451.997,30.775,437.797,30.775z M437.797,73.979c-11.301,0-18.302-8.501-18.302-18.901
			c0-10.401,7.001-18.901,18.302-18.901s18.301,8.5,18.301,18.901C456.098,65.478,449.098,73.979,437.797,73.979z"/>
		<path fill="#626F68" d="M352.736,69.483h-0.038V50.677c0-10.101-3.2-19.901-17.601-19.901c-7.501,0-13.401,4.2-15.801,9.3h-0.2
			V2.574h-6v75.604h6V55.077c0-12.701,7.101-18.901,16.001-18.901c9.5,0,11.601,7.3,11.601,14.801l0.003,18.701l0.007,0.01
			c0.015,0.688,0.108,3.026,0.711,4.79c0.508,1.48,1.253,3.105,2.53,4.516c3.937,4.346,11.652,1.719,13.638,0.908
			c-1.291-1.238-2.427-2.627-3.393-4.135C352.375,79.763,352.736,69.483,352.736,69.483z"/>
		<path fill="#626F68" d="M155.102,70.627V2.574h-6.001v37.502h-0.2c-3.7-6.4-11.601-9.3-18.501-9.3
			c-14.201,0-24.301,10.2-24.301,24.301c0,14.102,10.1,24.302,24.301,24.302c6.9,0,14.801-2.9,18.501-9.301h0.153
			c0.04,0.957,0.182,2.888,0.699,4.399c0.507,1.48,1.253,3.105,2.53,4.516c3.936,4.346,11.652,1.719,13.638,0.908
			c-1.291-1.238-2.427-2.627-3.393-4.135C156.357,78.92,155.282,73.187,155.102,70.627z M130.4,73.979
			c-11.3,0-18.301-8.501-18.301-18.901c0-10.401,7.001-18.901,18.301-18.901c10.901,0,19.301,8.5,19.301,18.901
			C149.701,65.478,141.301,73.979,130.4,73.979z"/>
		<path fill="#626F68" d="M482.007,75.767c-6.525,3.335-7.399-3.269-7.511-5.546V2.574h-6v66.979l0.022,0.032
			c0.008,0.519,0.075,3.027,0.713,4.893c0.508,1.48,1.253,3.105,2.53,4.516c3.937,4.346,11.652,1.719,13.638,0.908
			C484.108,78.663,482.973,77.274,482.007,75.767z"/>
	</g>
</g>
</svg>
