<?xml version="1.0" encoding="utf-8"?>
<!-- Generator: Adobe Illustrator 16.0.0, SVG Export Plug-In . SVG Version: 6.00 Build 0)  -->
<!DOCTYPE svg PUBLIC "-//W3C//DTD SVG 1.1//EN" "http://www.w3.org/Graphics/SVG/1.1/DTD/svg11.dtd">
<svg version="1.1" id="Layer_1" xmlns="http://www.w3.org/2000/svg" xmlns:xlink="http://www.w3.org/1999/xlink" x="0px" y="0px"
	 width="410px" height="60px" viewBox="0 0 410 60" enable-background="new 0 0 410 60" xml:space="preserve">
<g>
	<g>
		<path fill="#4A4B4A" d="M76.961,14.828c3.345,0,10.775,1.166,10.775,5.523v3.733h-4.629v-2.14c0-2.06-3.656-2.76-5.912-2.76
			c-5.329,0-9.219,3.732-9.219,9.568c0,6.225,4.046,10.27,9.491,10.27c1.673,0,5.991-0.545,5.991-2.724v-2.14h4.629v3.773
			c0,4.124-7.118,5.445-10.93,5.445c-8.363,0-14.432-6.34-14.432-14.393C62.724,20.818,68.948,14.828,76.961,14.828z"/>
		<path fill="#4A4B4A" d="M94.27,19.146h-3.306v-3.851h11.746v3.851h-3.345v13.381c0,1.556,0.351,2.956,0.934,3.928
			c0.972,1.556,2.878,2.451,5.213,2.451c2.294,0,4.162-0.855,5.173-2.489c0.622-1.05,0.933-2.334,0.933-3.928V19.146h-3.306v-3.851
			h11.708v3.851h-3.306v13.381c0,2.684-0.739,5.174-2.023,6.924c-2.022,2.646-5.484,3.928-9.179,3.928
			c-3.929,0-7.274-1.438-9.18-3.89c-1.439-1.788-2.062-4.201-2.062-6.962V19.146z"/>
		<path fill="#4A4B4A" d="M127.158,34.004v2.062c0,1.79,2.256,2.84,4.862,2.84c2.801,0,4.785-1.205,4.785-3.423
			c0-2.8-3.151-3.695-6.341-4.94c-3.694-1.4-7.312-3.073-7.312-8.014c0-5.562,4.512-7.701,9.258-7.701
			c4.356,0,8.751,1.673,8.751,4.861v3.617h-4.628v-1.865c0-1.401-2.062-2.141-4.123-2.141c-2.256,0-4.123,0.934-4.123,3.034
			c0,2.53,2.566,3.423,5.445,4.513c4.124,1.479,8.247,3.111,8.247,8.285c0,5.641-4.746,8.246-9.958,8.246
			c-4.59,0-9.491-2.061-9.491-6.223v-3.152H127.158z"/>
		<path fill="#4A4B4A" d="M150.708,39.101h3.307V19.379h-5.213v4.163h-4.318v-8.246h24.195v8.246h-4.317v-4.163h-5.251v19.722h3.345
			v3.812h-11.748V39.101z"/>
		<path fill="#4A4B4A" d="M185.403,14.828c8.167,0,14.315,6.184,14.315,14.082c0,8.129-6.147,14.469-14.315,14.469
			c-8.169,0-14.315-6.34-14.315-14.469C171.088,21.012,177.234,14.828,185.403,14.828z M185.403,38.906
			c4.979,0,9.063-4.316,9.063-9.996c0-5.447-4.084-9.609-9.063-9.609s-9.063,4.162-9.063,9.609
			C176.34,34.59,180.424,38.906,185.403,38.906z"/>
		<path fill="#4A4B4A" d="M201.752,39.101h3.267l1.634-19.954h-3.345v-3.851h8.986l6.146,15.597
			c0.467,1.361,0.661,2.295,0.661,2.295h0.078c0,0,0.194-0.934,0.699-2.295l6.107-15.597h8.985v3.851h-3.306l1.594,19.954h3.268
			v3.812h-11.319v-3.812h3.073l-1.011-13.926c-0.077-0.973,0.117-2.566,0.117-2.566h-0.117c0,0-0.312,1.517-0.66,2.45l-5.291,12.72
			h-4.357l-5.289-12.72c-0.35-0.934-0.623-2.45-0.623-2.45h-0.156c0,0,0.194,1.594,0.117,2.566l-1.011,13.926h3.111v3.812h-11.358
			V39.101z"/>
		<path fill="#4A4B4A" d="M239.778,39.101h3.306V19.146h-3.306v-3.851h12.68c2.062,0,3.503,0.153,4.94,0.737
			c2.49,0.973,4.201,3.308,4.201,6.381c0,2.566-1.243,4.784-3.385,5.912v0.077c3.073,0.935,4.475,3.618,4.475,6.535
			c0,3.851-2.489,6.613-5.485,7.509c-1.361,0.389-2.646,0.466-4.122,0.466h-13.304V39.101z M253.042,26.574
			c2.179,0,3.385-1.516,3.385-3.615c0-1.363-0.507-2.568-1.595-3.152c-0.662-0.312-1.401-0.428-2.374-0.428h-4.277v7.195H253.042z
			 M253.315,38.829c0.66,0,1.399-0.079,1.982-0.312c1.402-0.584,2.219-2.14,2.219-3.89c0-2.374-1.479-4.007-4.007-4.007h-5.329
			v8.208H253.315z"/>
		<path fill="#4A4B4A" d="M264.947,39.101h2.53l8.285-23.805h5.795l8.285,23.805h2.529v3.812h-10.387v-3.812h2.724l-1.711-5.173
			h-8.715l-1.711,5.173h2.723v3.812h-10.348V39.101z M281.831,29.959l-2.607-7.818c-0.427-1.361-0.506-2.41-0.506-2.41h-0.115
			c0,0-0.118,1.049-0.507,2.41l-2.646,7.818H281.831z"/>
		<path fill="#4A4B4A" d="M307.763,14.828c4.94,0,10.812,1.944,10.812,5.446v3.811h-4.628v-2.021c0-1.906-2.994-2.878-5.951-2.878
			c-5.875,0-9.531,3.732-9.531,9.607c0,5.912,3.656,10.23,9.764,10.23c2.218,0,6.341-0.583,6.341-2.878v-2.958h-5.018v-3.812h9.647
			v8.325c0,4.201-7.392,5.678-11.475,5.678c-8.481,0-14.548-6.146-14.548-14.393C293.177,20.779,299.166,14.828,307.763,14.828z"/>
		<path fill="#4A4B4A" d="M328.155,34.004v2.062c0,1.79,2.256,2.84,4.861,2.84c2.801,0,4.784-1.205,4.784-3.423
			c0-2.8-3.149-3.695-6.34-4.94c-3.695-1.4-7.312-3.073-7.312-8.014c0-5.562,4.513-7.701,9.257-7.701
			c4.357,0,8.753,1.673,8.753,4.861v3.617h-4.629v-1.865c0-1.401-2.062-2.141-4.124-2.141c-2.255,0-4.122,0.934-4.122,3.034
			c0,2.53,2.566,3.423,5.445,4.513c4.124,1.479,8.246,3.111,8.246,8.285c0,5.641-4.744,8.246-9.958,8.246
			c-4.59,0-9.49-2.061-9.49-6.223v-3.152H328.155z"/>
	</g>
	<g>
		<g>
			<path fill="#F37321" d="M346.221,39.101h3.306V19.146h-3.306v-3.851h11.746v3.851h-3.344v7.973h12.564v-7.973h-3.346v-3.851
				h11.748v3.851h-3.308v19.954h3.308v3.812h-11.748v-3.812h3.346v-7.896h-12.564v7.896h3.344v3.812h-11.746V39.101z"/>
			<path fill="#F37321" d="M392.646,14.828c8.129,0,14.354,5.795,14.354,13.849c0,3.5-1.167,6.534-3.152,8.985L407,40.5l-2.879,3.19
				l-3.113-3.072c-2.295,1.829-5.173,2.761-8.361,2.761c-8.246,0-14.354-6.379-14.354-14.393
				C378.293,20.974,384.359,14.828,392.646,14.828z M392.646,38.906c1.633,0,3.539-0.506,4.861-1.556l-3.89-3.735l2.8-3.111
				l3.892,3.851c0.934-1.517,1.556-3.423,1.556-5.444c0-5.408-4.007-9.609-9.219-9.609c-5.097,0-9.104,4.124-9.104,9.686
				C383.543,34.59,387.55,38.906,392.646,38.906z"/>
		</g>
		<g>
			<path fill="#F37321" d="M28.012,3.846c-14.037,0-25.416,11.379-25.416,25.411c0,14.038,11.378,25.417,25.416,25.417
				c14.032,0,25.41-11.379,25.41-25.417C53.421,15.225,42.044,3.846,28.012,3.846z M41.283,44.614H14.735V18.068h4.875
				c0.43-4.294,4.05-7.606,8.402-7.606c4.353,0,7.97,3.312,8.398,7.606h4.873V44.614z"/>
			<path fill="#F37321" d="M33.559,18.068c-0.411-2.709-2.769-4.774-5.547-4.774c-2.778,0-5.137,2.065-5.552,4.774H33.559z"/>
		</g>
	</g>
</g>
<g>
</g>
<g>
</g>
<g>
</g>
<g>
</g>
<g>
</g>
<g>
</g>
</svg>
