<svg xmlns="http://www.w3.org/2000/svg" width="900" height="805"><title>Blue Florida</title><title>Layer 1</title><path fill="#fff" stroke="#fff" stroke-width=".5" d="M0 429.5v-375.5l5.2 5.5c3.533 3.667 5.533 6.167 6 7.5.533 1.333 1.2 2.167 2 2.5.867.333 1.4.833 1.6 1.5.133.667 2.133 2 6 4 3.8 2 5.2 6 4.2 12s-.4 10.4 1.8 13.2c2.133 2.866 3.6 4.533 4.4 5 .867.533 1.4.866 1.6 1l.2.3-2.8 2.3c-1.8 1.467-2.934 3.467-3.4 6-.533 2.467-1.867 4.134-4 5-2.2.8-3.466 1.367-3.8 1.7s-.667.833-1 1.5l-.5 1-.3.2-.2.3-.2.3-.3.2-.3.2-.2.3-.2.3-.3.2-.3.2-.2.3h6l-.2.3-.3.2-.3.2-.2.3-.2.3-.3.2-.3 1-.2 1 1-.2 1-.3 1.5-.5c1-.333 4.833-1.4 11.5-3.2 6.667-1.866 10-3.3 10-4.3s.667-1.667 2-2 2.267-1.5 2.8-3.5l.7-3 .3-.2.2-.3h2l-.2.3-.3.2-.3.2-.2.3 2 .7c1.333.533 2 1.3 2 2.3s8.5-.434 25.5-4.3c17-3.8 27.9-5.934 32.7-6.4 4.867-.533 7.4-1.466 7.6-2.8.133-1.333 2.034-2.5 5.7-3.5s5.5-2.5 5.5-4.5.833-3 2.5-3 2.5.333 2.5 1 1.5 1.267 4.5 1.8c3 .467 6.167.367 9.5-.3s5.667-.833 7-.5 2.5.667 3.5 1l1.5.5 1 .5 1 .5 1 .5 1 .5.2.3.3.2.3.2.2.3.2.3.3.2.3 1 .2 1-1.5-.2-1.5-.3-1.5-.5-1.5-.5-1-.5-1-.5-.2-.3-.6-.4c-.133-.2-1.133-.4-3-.6-1.8-.134-2.534.133-2.2.8s-.733 1.066-3.2 1.2c-2.533.2-6.8.466-12.8.8l-9 .5-2 .3-2 .2v3h3l.2 1 .3 1 .3.2.2.3 1 .5 1 .5 25.5 5c17 3.333 29.9 6.9 38.7 10.7 8.867 3.866 15.633 6.966 20.3 9.3s7.1 3.833 7.3 4.5c.133.667 2.367 2.333 6.7 5s7.333 4.934 9 6.8c1.667 1.8 4.9 3.8 9.7 6 4.867 2.134 8.466 4.7 10.8 7.7s3.933 6.9 4.8 11.7c.8 4.866 1.867 7.966 3.2 9.3s4 1.667 8 1 8.167-1.5 12.5-2.5 7.833-1.667 10.5-2 4.333-1.267 5-2.8c.667-1.467 2-2.467 4-3 2-.467 3.333-.6 4-.4.667.134 1.167.6 1.5 1.4.333.866 1.1 1.2 2.3 1 1.134-.134 1.8-.534 2-1.2.134-.667 5.867-4.733 17.2-12.2 11.333-7.533 20.267-13.066 26.8-16.6 6.467-3.467 9.467-6.367 9-8.7-.533-2.333 6.367-4.9 20.7-7.7 14.333-2.866 26.833-1.633 37.5 3.7s18.167 11.167 22.5 17.5 8.667 10.833 13 13.5 7.233 4.434 8.7 5.3c1.533.8 2.633 3.2 3.3 7.2s3.566 8.267 8.7 12.8c5.2 4.467 8.866 7.134 11 8 2.2.8 4.3 2.534 6.3 5.2s3.767 5.066 5.3 7.2c1.467 2.2 3.367 3.733 5.7 4.6 2.333.8 3.833 2.267 4.5 4.4.667 2.2 2.333 4.3 5 6.3s4.733 2.566 6.2 1.7c1.533-.8 5.066-1.034 10.6-.7 5.467.333 8.533 1.434 9.2 3.3.667 1.8 2.667 5.7 6 11.7s5.667 9.566 7 10.7c1.333 1.2 2 2.133 2 2.8s.5 1.267 1.5 1.8c1 .467 2 .8 3 1l1.5.2-.5 3.5c-.333 2.333-1.1 3.667-2.3 4-1.134.333-1.134 1.567 0 3.7 1.2 2.2 2.133 3.4 2.8 3.6.667.133.934 7.2.8 21.2-.2 14-.967 23.5-2.3 28.5s-2 8-2 9-.833 3.5-2.5 7.5-2.333 7.833-2 11.5.5 8.667.5 15-.667 10.667-2 13-1.833 5.167-1.5 8.5 1.934 7.066 4.8 11.2c2.8 4.2 4.8 7.066 6 8.6 1.134 1.467 1.867 2.533 2.2 3.2l.5 1 .3.2.2.3.2.3.3.2.3.2.2.3.2.3.3.2.3.2.2.3.2.3.3.2.3.2.2.3.2.3.3.2.3.2.2.3.2.3.3.2.3.2.2.3.2.3.3.2.3-.2.2-.3.2-.3.3-.2v-3l-.5-1.5c-.333-1-.667-1.667-1-2l-.5-.5-.5-1-.5-1-.3-.2-.2-.3-.2-.3-.3-.2-.3-1-.2-1h2l.2 1 .3 1 .3.2.2.3.2.3.3.2.3 1 .2 1 1.2.5c.866.333 1.399.833 1.6 1.5l.2 1 3-.2 3-.3.2-.3.3-.2.5-1 .5-1 .5-5.5c.333-3.667.5-6.833.5-9.5s-1.9-5.667-5.7-9l-5.8-5-.2-3.5-.3-3.5v-2l.3-.2.2-.3h2l1.5.5 1.5.5.2.3.3.2.3.2.2.3 1 .5 1 .5.2.3.3.2.3.2.2.3.2.3.3.2 2.3 1c1.467.667 2.267 2.833 2.4 6.5.2 3.667.399 5.833.6 6.5l.2 1 1 .2 1 .3.2.3.3.2.3.2.2.3.2.3.3.2.3.2.2.3 3.5.3 3.5.2-.2-1-.3-1-.5-4-.5-4-.3-.2-.2-.3.2-.3.3-.2.5-1 .5-1 .3-.2.2-.3.2-.3.3-.2.3.2.2.3.2.3.3.2.5 1 .5 1 .5 1 .5 1 .5 1 .5 1-1 5c-.667 3.333-2.333 6.667-5 10s-5.434 8.167-8.3 14.5c-2.8 6.333-3.934 9.667-3.4 10 .467.333.533.833.2 1.5s-.5 1.333-.5 2v1l.3.2.2.3h-1.5c-1 0-3.333-.167-7-.5l-5.5-.5-.2-.3-.3-.2-.3.2-.2.3-.2.3-.3.2v2l.5 1 .5 1 .3.2.2.3.2.3.3.2.5 1 .5 1 .5 1 .5 1 1.7 1c1.2.667 1.967 1.4 2.3 2.2.333.866 2.333 1.733 6 2.6 3.667.8 6.1 3.867 7.3 9.2 1.134 5.333 4.033 11.833 8.7 19.5s8.9 14.566 12.7 20.7c3.866 6.2 7.633 11.467 11.3 15.8s7.167 7 10.5 8 5.5 1.667 6.5 2l1.5.5 3 .3 3 .2-.2-1-.3-1-.5-2.5-.5-2.5-.5-2c-.333-1.333-1.066-3.5-2.2-6.5l-1.8-4.5-1-.2-1-.3-.2-.3-.3-.2-.3-.2-.2-.3-.2-.3-.3-.2-.3-.2-.2-.3-.2-.3-.3-.2-.3-.2-.2-.3h3l1 .5 1 .5.2.3.3.2.3.2.2.3.2.3.3.2.3.2.2.3 1 .5 1 .5 3 3.3c2 2.134 3.333 3.2 4 3.2s1.066 4.167 1.2 12.5c.2 8.333.633 13.333 1.3 15s1.1 4.1 1.3 7.3c.134 3.134 1.2 5.533 3.2 7.2s3.333 2.6 4 2.8c.667.134 1 .7 1 1.7s.5 1.5 1.5 1.5 1.5.5 1.5 1.5 1.934 1.667 5.8 2c3.8.333 5.8.167 6-.5.134-.667.533-1 1.2-1h1l1.2 7.5c.866 5 1.8 8.333 2.8 10s2.167 6 3.5 13 3.667 12.833 7 17.5 5.566 7.5 6.7 8.5c1.2 1 1.8 1.833 1.8 2.5s-.6 1-1.8 1c-1.134 0-1.7.5-1.7 1.5s.167 2 .5 3l.5 1.5.3.2.2.3.2.3.3.2.3.2.2.3.2.3.3.2.3.2.2.3.2.3.3.2.3.2.2.3.2.3.3.2.3.2.2.3 5.2-1.7c3.533-1.2 8.399-1.399 14.6-.6 6.134.866 11.467 2.533 16 5 4.467 2.533 6.8 4.133 7 4.8.134.667-.2 1.333-1 2-.866.667-.467 2.333 1.2 5s4 5.5 7 8.5 4.934 5.667 5.8 8c.8 2.333 1.601 3.667 2.4 4 .866.333 2.133 2.167 3.8 5.5s4.6 7.6 8.8 12.8c4.134 5.134 7.533 8.367 10.2 9.7s5.333 2.167 8 2.5l4 .5.2.3.3.2.3.2.2.3.2.3.3.2.3.2.2.3.2.3.3.2.3.2.2.3.2.3.3.2v4l-.3.2-.2.3-1 .5-1 .5-1 .5-1 .5h-4l-.2-.3-.3-.2-.3-.2-.2-.3-1-.5c-.667-.333-2.5-2.167-5.5-5.5l-4.5-5-1-.5-1-.5-2.5-.3-2.5-.2-.2 1.5-.3 1.5v6c0 4 .767 7.4 2.3 10.2 1.467 2.866 2.533 4.399 3.2 4.6.667.134 1 .533 1 1.2s1.5 1.733 4.5 3.2c3 1.533 7.833 1.399 14.5-.4 6.667-1.866 10.667-3.533 12-5 1.333-1.533 5.066-2.066 11.2-1.6 6.2.533 10.2.467 12-.2 1.866-.667 2.8-1.667 2.8-3s1.066-2.333 3.2-3c2.2-.667 3.467-1.5 3.8-2.5s.6-2 .8-3l.2-1.5 2.8 1c1.8.667 3.267 1.4 4.4 2.2 1.2.866 1.967 1.133 2.3.8s.566-.6.7-.8l.3-.2.3-1.5.2-1.5 1 .2 1 .3.2.3.3.2.3.2.2.3.2.3.3.2.3.2.2.3.2.3.3.2.3.2.2.3.2.3.3.2.3 2 .2 2-1-.2c-.667-.2-1.5-.3-2.5-.3s-1.667.434-2 1.3c-.333.8 0 1.2 1 1.2s1.434.333 1.3 1l-.3 1v7l.3-.2.2-.3.2-.3.3-.2.3-.2.2-.3 1-.3 1-.2v-2l1-.2 1-.3.2-.3.3-.2.3-.2c.134-.2.934-1.866 2.4-5 1.533-3.2 3.066-5.467 4.6-6.8 1.467-1.333 2.601-2.833 3.4-4.5.866-1.667 1.467-2.333 1.8-2s.667 0 1-1 .733-1.667 1.2-2c.533-.333.733-1.167.6-2.5l-.3-2v-2l.3-.2.2-.3.2-.3.3-.2.3-1 .2-1h-3v-3l-1.5.2-1.5.3-.8.7c-.467.533-.867 1.133-1.2 1.8l-.5 1-.5 1-.5 1-.3.2-.2.3h-3l.2-.3.3-.2.3-.2.2-.3.2-.3.3-.2.3-.2.2-.3.2-.3.3-.2.5-1 .5-1 .3-.2.2-.3.2-.3.3-.2.5-1c.333-.667.4-1.267.2-1.8-.134-.467-.8-2.267-2-5.4-1.134-3.2-1.367-8.133-.7-14.8s1.833-12.333 3.5-17 3.333-7.5 5-8.5 2.167-3.333 1.5-7l-1-5.5-.3-.2-.2-.3.2-.3.3-.2.5-1 .5-1 .5 1 .5 1 .3.2.2.3.2.3.3.2.3.2.2.3.2.3.3.2.3.2.2.3.2.3.3.2.3.2.2.3.2.3.3.2.3.2.2.3.2.3.3.2.3.2.2.3 1.5.3 1.5.2.2-1.5.3-1.5h.5v184h-900v-375.5z"/><path fill="#F5F5F5" d="M620 .2v-.2h3l1 1.2c.667.866 7.167 2.466 19.5 4.8s19.667 3.5 22 3.5 3.833.167 4.5.5 1.667.267 3-.2c1.333-.533 2-.3 2 .7s.733 2.167 2.2 3.5c1.533 1.333 2.8 3.333 3.8 6s1.6 5.667 1.8 9l.2 5-2-.2-2-.3-.2-.3c-.2-.134-.733-.6-1.6-1.4l-1.2-1.3-.2-.3-.3-.2-.3-.2-.2-.3-.2-.3-.3-.2-.3-.2-.2-.3-.2-.3-.3-.2v4l.3.2.2.3.2.3.3.2.3.2.2.3.2.3.3.2.3.2.2.3.2.3.3.2.3.2.2.3 3.8 3.3c2.467 2.134 5.033 8.2 7.7 18.2s5 17.167 7 21.5 4.767 11.767 8.3 22.3c3.467 10.467 7.134 20.134 11 29 3.8 8.8 10.533 22.034 20.2 39.7s16.4 29.667 20.2 36c3.866 6.333 6.533 10.167 8 11.5 1.533 1.333 3.8 4 6.8 8s7.267 9.733 12.8 17.2c5.467 7.533 9.8 12.4 13 14.6 3.134 2.133 6.367 5.7 9.7 10.7s5 9.333 5 13-.1 6.1-.3 7.3c-.134 1.133-.533 2.7-1.2 4.7s-1.333 3.1-2 3.3c-.667.133-1.267 1.2-1.8 3.2-.467 2-.7 4.167-.7 6.5v4.5l-.3 2-.2 2h-2l-.2-1.5-.3-1.5-.5-3c-.333-2-.6-4.167-.8-6.5l-.2-3.5-1 .2-1 .3h-5l-.2-.3-.3-.2-.3.2-.2.3-.2.3-.3.2-.3.2-.2.3.2.3.3.2.3.2.2.3.2.3.3.2.5 1 .5 1 11.7 21.8c7.866 14.467 16.066 28.8 24.6 43 8.467 14.134 14.867 26.367 19.2 36.7 4.333 10.333 7.833 18.167 10.5 23.5s3.767 8.667 3.3 10c-.533 1.333.367 2.934 2.7 4.8 2.333 1.8 4 2.8 5 3 1 .134 1.667.601 2 1.4.333.866.833 1.399 1.5 1.6.667.134 2.6 3.533 5.8 10.2 3.134 6.667 4.601 11 4.4 13-.134 2 .399 3.333 1.6 4 1.134.667 2.533 2.833 4.2 6.5s3.267 11.566 4.8 23.7c1.467 12.2 1.867 18.399 1.2 18.6-.667.134-.733 11.7-.2 34.7.467 23 1.033 37.333 1.7 43s1.167 9.667 1.5 12l.5 3.5h.5v3h-.5l-.3 1.5-.2 1.5-1.5-.2-1.5-.3-.2-.3-.3-.2-.3-.2-.2-.3-.2-.3-.3-.2-.3-.2-.2-.3-.2-.3-.3-.2-.3-.2-.2-.3-.2-.3-.3-.2-.3-.2-.2-.3-.2-.3-.3-.2-.3-.2-.2-.3-.2-.3-.3-.2-.5-1-.5-1-.5 1-.5 1-.3.2-.2.3.2.3.3.2 1 5.5c.667 3.667.167 6-1.5 7s-3.333 3.833-5 8.5-2.833 10.333-3.5 17-.434 11.6.7 14.8c1.2 3.134 1.866 4.934 2 5.4.2.533.133 1.133-.2 1.8l-.5 1-.3.2-.2.3 1.2-.3c.866-.134 1.399-.267 1.6-.4l.2-.3 1.5-.3 1.5-.2v3h3l-.2 1-.3 1-.3.2-.2.3-.2.3-.3.2v2l.3 2c.134 1.333-.066 2.167-.6 2.5-.467.333-.867 1-1.2 2s-.667 1.333-1 1-.934.333-1.8 2c-.8 1.667-1.934 3.167-3.4 4.5-1.533 1.333-3.066 3.6-4.6 6.8-1.467 3.134-2.267 4.8-2.4 5l-.3.2-.3.2-.2.3-1 .3-1 .2v2l-1 .2-1 .3-.2.3-.3.2-.3.2-.2.3-.2.3-.3.2v-5l-.5-1-.5-1-.3-2.2c-.134-1.533.3-2.3 1.3-2.3s1.833.1 2.5.3l1 .2-.2-2-.3-2-.3-.2-.2-.3-.2-.3-.3-.2-.3-.2-.2-.3-.2-.3-.3-.2-.3-.2-.2-.3-.2-.3-.3-.2-.3-.2-.2-.3-1-.3-1-.2-.2 1.5-.3 1.5-.3.2c-.134.2-.367.467-.7.8s-1.1.066-2.3-.8c-1.134-.8-2.601-1.533-4.4-2.2l-2.8-1-.2 1.5c-.2 1-.467 2-.8 3s-1.6 1.833-3.8 2.5c-2.134.667-3.2 1.667-3.2 3s-.934 2.333-2.8 3c-1.8.667-5.8.733-12 .2-6.134-.467-9.867.066-11.2 1.6-1.333 1.467-5.333 3.134-12 5-6.667 1.8-11.5 1.934-14.5.4-3-1.467-4.5-2.533-4.5-3.2s-.333-1.066-1-1.2c-.667-.2-1.733-1.733-3.2-4.6-1.533-2.8-2.3-6.2-2.3-10.2v-6l.3-1.5.2-1.5 2.5.2 2.5.3 1 .5 1 .5 4.5 5c3 3.333 4.833 5.167 5.5 5.5l1 .5.2.3.3.2.3.2.2.3h4l1-.5 1-.5 1-.5 1-.5.2-.3.3-.2v-4l-.3-.2-.2-.3-.2-.3-.3-.2-.3-.2-.2-.3-.2-.3-.3-.2-.3-.2-.2-.3-.2-.3-.3-.2-.3-.2-.2-.3-4-.5c-2.667-.333-5.333-1.167-8-2.5s-6.066-4.566-10.2-9.7c-4.2-5.2-7.133-9.467-8.8-12.8s-2.934-5.167-3.8-5.5c-.8-.333-1.601-1.667-2.4-4-.866-2.333-2.8-5-5.8-8s-5.333-5.833-7-8.5-2.066-4.333-1.2-5c.8-.667 1.134-1.333 1-2-.2-.667-2.533-2.267-7-4.8-4.533-2.467-9.866-4.134-16-5-6.2-.8-11.066-.601-14.6.6l-5.2 1.7-.2-.3-.3-.2-.3-.2-.2-.3-.2-.3-.3-.2-.3-.2-.2-.3-.2-.3-.3-.2-.3-.2-.2-.3-.2-.3-.3-.2-.3-.2-.2-.3-.2-.3-.3-.2-.5-1.5c-.333-1-.5-2.833-.5-5.5s-1.667-6.333-5-11-5.667-10.5-7-17.5-2.5-11.333-3.5-13-1.934-5-2.8-10l-1.2-7.5h-1c-.667 0-1.066.333-1.2 1-.2.667-2.2.833-6 .5-3.866-.333-5.8-1-5.8-2s-.5-1.5-1.5-1.5-1.5-.5-1.5-1.5-.333-1.566-1-1.7c-.667-.2-2-1.133-4-2.8s-3.066-4.066-3.2-7.2c-.2-3.2-.633-5.633-1.3-7.3s-1.1-6.667-1.3-15c-.134-8.333-.533-12.5-1.2-12.5s-2-1.066-4-3.2l-3-3.3-1-.5-1-.5-.2-.3-.3-.2-.3-.2-.2-.3-.2-.3-.3-.2-.3-.2-.2-.3-1-.5-1-.5h-3l.2.3.3.2.3.2.2.3.2.3.3.2.3.2.2.3.2.3.3.2.3.2.2.3 1 .3 1 .2 1.8 4.5c1.134 3 1.867 5.167 2.2 6.5l.5 2 .5 2.5.5 2.5.3 1 .2 1-3-.2-3-.3-1.5-.5c-1-.333-3.167-1-6.5-2s-6.833-3.667-10.5-8-7.434-9.6-11.3-15.8c-3.8-6.134-8.033-13.033-12.7-20.7s-7.566-14.167-8.7-19.5c-1.2-5.333-3.633-8.4-7.3-9.2-3.667-.866-5.667-1.733-6-2.6-.333-.8-1.1-1.533-2.3-2.2l-1.7-1-.5-1-.5-1-.5-1-.5-1-.3-.2-.2-.3-.2-.3-.3-.2-.5-1-.5-1v-2l.3-.2.2-.3.2-.3.3-.2.3.2.2.3 5.5.5c3.667.333 6 .5 7 .5h1.5l-.2-.3-.3-.2v-1c0-.667.167-1.333.5-2s.267-1.167-.2-1.5c-.533-.333.601-3.667 3.4-10 2.866-6.333 5.633-11.167 8.3-14.5s4.333-6.667 5-10l1-5-.5-1-.5-1-.5-1-.5-1-.5-1-.5-1-.3-.2-.2-.3-.2-.3-.3-.2-.3.2-.2.3-.2.3-.3.2-.5 1-.5 1-.3.2-.2.3.2.3.3.2.5 4 .5 4 .3 1 .2 1-3.5-.2-3.5-.3-.2-.3-.3-.2-.3-.2-.2-.3-.2-.3-.3-.2-.3-.2-.2-.3-1-.3-1-.2-.2-1c-.2-.667-.399-2.833-.6-6.5-.134-3.667-.934-5.833-2.4-6.5l-2.3-1-.3-.2-.2-.3-.2-.3-.3-.2-.3-.2-.2-.3-1-.5-1-.5-.2-.3-.3-.2-.3-.2-.2-.3-1.5-.5-1.5-.5h-2l-.2.3-.3.2v2l.3 3.5.2 3.5 5.8 5c3.8 3.333 5.7 6.333 5.7 9s-.167 5.833-.5 9.5l-.5 5.5-.5 1-.5 1-.3.2-.2.3-3 .3-3 .2-.2-1c-.2-.667-.733-1.167-1.6-1.5l-1.2-.5-.2-1-.3-1-.3-.2-.2-.3h-2l.2.3.3.2.5 1 .5 1 .5.5c.333.333.667 1 1 2l.5 1.5v3l-.3.2-.2.3-.2.3-.3.2-.3-.2-.2-.3-.2-.3-.3-.2-.3-.2-.2-.3-.2-.3-.3-.2-.3-.2-.2-.3-.2-.3-.3-.2-.3-.2-.2-.3-.2-.3-.3-.2-.3-.2-.2-.3-.2-.3-.3-.2-.3-.2-.2-.3-.2-.3-.3-.2-.5-1c-.333-.667-1.066-1.733-2.2-3.2-1.2-1.533-3.2-4.399-6-8.6-2.866-4.134-4.467-7.867-4.8-11.2s.167-6.167 1.5-8.5 2-6.667 2-13-.167-11.333-.5-15 .333-7.5 2-11.5 2.5-6.5 2.5-7.5.667-4 2-9 2.1-14.5 2.3-28.5c.134-14-.133-21.067-.8-21.2-.667-.2-1.6-1.4-2.8-3.6-1.134-2.133-1.134-3.367 0-3.7 1.2-.333 1.967-1.667 2.3-4l.5-3.5-1.5-.2c-1-.2-2-.533-3-1-1-.533-1.5-1.133-1.5-1.8s-.667-1.6-2-2.8c-1.333-1.134-3.667-4.7-7-10.7s-5.333-9.9-6-11.7c-.667-1.866-3.733-2.966-9.2-3.3-5.533-.333-9.066-.1-10.6.7-1.467.866-3.533.3-6.2-1.7s-4.333-4.1-5-6.3c-.667-2.134-2.167-3.6-4.5-4.4-2.333-.866-4.233-2.4-5.7-4.6-1.533-2.134-3.3-4.534-5.3-7.2s-4.1-4.4-6.3-5.2c-2.134-.866-5.8-3.533-11-8-5.134-4.533-8.033-8.8-8.7-12.8s-1.767-6.4-3.3-7.2c-1.467-.866-4.367-2.633-8.7-5.3s-8.667-7.167-13-13.5-11.833-12.167-22.5-17.5-23.167-6.566-37.5-3.7c-14.333 2.8-21.233 5.367-20.7 7.7.467 2.333-2.533 5.233-9 8.7-6.533 3.533-15.467 9.066-26.8 16.6-11.333 7.467-17.066 11.534-17.2 12.2-.2.667-.866 1.066-2 1.2-1.2.2-1.967-.134-2.3-1-.333-.8-.833-1.267-1.5-1.4-.667-.2-2-.066-4 .4-2 .533-3.333 1.533-4 3-.667 1.533-2.333 2.466-5 2.8s-6.167 1-10.5 2-8.5 1.833-12.5 2.5-6.667.333-8-1-2.4-4.434-3.2-9.3c-.867-4.8-2.466-8.7-4.8-11.7s-5.933-5.566-10.8-7.7c-4.8-2.2-8.034-4.2-9.7-6-1.667-1.866-4.667-4.133-9-6.8s-6.567-4.333-6.7-5c-.2-.667-2.633-2.167-7.3-4.5s-11.433-5.434-20.3-9.3c-8.8-3.8-21.7-7.367-38.7-10.7l-25.5-5-1-.5-1-.5-.2-.3-.3-.2-.3-1-.2-1h-3v-3l2-.2 2-.3 9-.5c6-.333 10.267-.6 12.8-.8 2.467-.134 3.534-.534 3.2-1.2s.4-.934 2.2-.8c1.867.2 2.867.4 3 .6l.6.4.2.3 1 .5 1 .5 1.5.5 1.5.5 1.5.3 1.5.2-.2-1-.3-1-.3-.2-.2-.3-.2-.3-.3-.2-.3-.2-.2-.3-1-.5-1-.5-1-.5-1-.5-1.5-.5c-1-.333-2.167-.667-3.5-1s-3.667-.167-7 .5-6.5.767-9.5.3c-3-.533-4.5-1.133-4.5-1.8s-.833-1-2.5-1-2.5 1-2.5 3-1.833 3.5-5.5 4.5-5.567 2.167-5.7 3.5c-.2 1.333-2.733 2.267-7.6 2.8-4.8.467-15.7 2.6-32.7 6.4-17 3.866-25.5 5.3-25.5 4.3s-.667-1.767-2-2.3l-2-.7.2-.3.3-.2.3-.2.2-.3h-2l-.2.3-.3.2-.7 3c-.533 2-1.466 3.167-2.8 3.5s-2 1-2 2-3.333 2.434-10 4.3c-6.667 1.8-10.5 2.867-11.5 3.2l-1.5.5-1 .3-1 .2.2-1 .3-1 .3-.2.2-.3.2-.3.3-.2.3-.2.2-.3h-6l.2-.3.3-.2.3-.2.2-.3.2-.3.3-.2.3-.2.2-.3.2-.3.3-.2.5-1c.333-.667.667-1.167 1-1.5s1.6-.9 3.8-1.7c2.133-.866 3.467-2.533 4-5 .467-2.533 1.6-4.533 3.4-6l2.8-2.3-.2-.3c-.2-.134-.733-.467-1.6-1-.8-.467-2.267-2.134-4.4-5-2.2-2.8-2.8-7.2-1.8-13.2s-.4-10-4.2-12c-3.867-2-5.867-3.333-6-4-.2-.667-.733-1.167-1.6-1.5-.8-.333-1.467-1.167-2-2.5-.467-1.333-2.467-3.833-6-7.5l-5.2-5.5v-5h.5l.5-2 .5-2v-4c0-2.667-.1-4.333-.3-5l-.2-1 139.5-10.8c93-7.134 140.333-10.8 142-11 1.667-.134 4.433 2.466 8.3 7.8 3.8 5.333 6.267 10.667 7.4 16 1.2 5.333 2.133 8 2.8 8s1 .333 1 1 48-.667 144-4 144-4.5 144-3.5.5 1.5 1.5 1.5 2.1 2.333 3.3 7c1.134 4.667 1.867 7.5 2.2 8.5s.667 1.833 1 2.5l.5 1 .5 1 .5 1 .3.2.2.3h2l3.5-.5 3.5-.5 1-.5 1-.5.2-.3.3-.2 1-12.5c.667-8.333.167-14-1.5-17s-2.333-7.333-2-13 1.4-9.566 3.2-11.7c1.866-2.2 3.633-3.466 5.3-3.8s2.5-.6 2.5-.8zm170.2 296.6c-.134-.2-.134-.4 0-.6l.3-.2v.5c0 .333-.1.433-.3.3zm90.6 387.2l-.3 1-.3.2-.2.3h-3l.2-.3.3-.2.3-.2.2-.3.2-.3.3-.2.3-.2.2-.3 1-.3c.667-.134.934.133.8.8z"/><path fill="#fff" stroke="#fff" stroke-width=".5" d="M624 1.2l-1-1.2h277v618h-.5l-.5-3.5c-.333-2.333-.833-6.333-1.5-12s-1.233-20-1.7-43c-.533-23-.467-34.566.2-34.7.667-.2.267-6.399-1.2-18.6-1.533-12.134-3.133-20.033-4.8-23.7s-3.066-5.833-4.2-6.5c-1.2-.667-1.733-2-1.6-4 .2-2-1.267-6.333-4.4-13-3.2-6.667-5.133-10.066-5.8-10.2-.667-.2-1.167-.733-1.5-1.6-.333-.8-1-1.267-2-1.4-1-.2-2.667-1.2-5-3-2.333-1.866-3.233-3.467-2.7-4.8.467-1.333-.633-4.667-3.3-10s-6.167-13.167-10.5-23.5-10.733-22.566-19.2-36.7c-8.533-14.2-16.733-28.533-24.6-43l-11.7-21.8-.5-1-.5-1-.3-.2-.2-.3-.2-.3-.3-.2-.3-.2-.2-.3-.2-.3-.3-.2v-3l.3.2.2.3.2.3.3.2.3.2.2.3.2.3.3.2.3.2.2.3h5l1-.3 1-.2.2 3.5c.2 2.333.467 4.5.8 6.5l.5 3 .3.2.2.3 1 .3 1 .2.2-1 .3-1v-4.5c0-2.333.233-4.5.7-6.5.533-2 1.133-3.067 1.8-3.2.667-.2 1.4-1.867 2.2-5 .866-3.2 1.3-6.633 1.3-10.3s-1.667-8-5-13-6.566-8.567-9.7-10.7c-3.2-2.2-7.533-7.066-13-14.6-5.533-7.467-9.8-13.2-12.8-17.2s-5.267-6.667-6.8-8c-1.467-1.333-4.134-5.167-8-11.5-3.8-6.333-10.533-18.333-20.2-36s-16.4-30.9-20.2-39.7c-3.866-8.866-7.533-18.533-11-29-3.533-10.533-6.3-17.966-8.3-22.3s-4.333-11.5-7-21.5-5.233-16.066-7.7-18.2l-3.8-3.3-.2-.3-.3-.2-.3-.2-.2-.3-.2-.3-.3-.2-.3-.2-.2-.3-.2-.3-.3-.2-.3-.2-.2-.3-.2-.3-.3-.2v-4l.3.2.2.3.2.3.3.2.3.2.2.3.2.3.3.2.3.2.2.3 1.2 1.3c.866.8 1.399 1.267 1.6 1.4l.2.3 2 .3 2 .2-.2-5c-.2-3.333-.8-6.333-1.8-9s-2.267-4.667-3.8-6c-1.467-1.333-2.2-2.5-2.2-3.5s-.667-1.233-2-.7c-1.333.467-2.333.534-3 .2s-2.167-.5-4.5-.5-9.667-1.167-22-3.5-18.833-3.934-19.5-4.8zm186.2 288.6c-.134-.2-.134-.4 0-.6.2-.133.3-.034.3.3s-.1.433-.3.3z"/><path fill="#FEFEFE" stroke="#FEFEFE" stroke-width=".5" d="M0 24.5v-24.5h620v.2c0 .2-.833.466-2.5.8s-3.434 1.6-5.3 3.8c-1.8 2.134-2.867 6.034-3.2 11.7s.333 10 2 13 2.167 8.667 1.5 17l-1 12.5-.3.2-.2.3-1 .5-1 .5-3.5.5-3.5.5h-2l-.2-.3-.3-.2-.5-1-.5-1-.5-1c-.333-.667-.667-1.5-1-2.5s-1.066-3.833-2.2-8.5c-1.2-4.667-2.3-7-3.3-7s-1.5-.5-1.5-1.5-48 .167-144 3.5-144 4.667-144 4-.333-1-1-1-1.6-2.667-2.8-8c-1.133-5.333-3.6-10.667-7.4-16-3.867-5.333-6.633-7.934-8.3-7.8-1.667.2-49 3.866-142 11l-139.5 10.8.2 1c.2.667.3 2.333.3 5v4l-.5 2-.5 2h-.5v-24.5z"/><circle fill="#B51F24" cx="587.1" cy="398.6" r="12.4"/></svg>