<?xml version="1.0" encoding="utf-8"?>
<!-- Generator: Adobe Illustrator 16.0.0, SVG Export Plug-In . SVG Version: 6.00 Build 0)  -->
<!DOCTYPE svg PUBLIC "-//W3C//DTD SVG 1.1//EN" "http://www.w3.org/Graphics/SVG/1.1/DTD/svg11.dtd">
<svg version="1.1" id="Layer_1" xmlns="http://www.w3.org/2000/svg" xmlns:xlink="http://www.w3.org/1999/xlink" x="0px" y="0px"
	 width="480px" height="80px" viewBox="0 0 480 80" enable-background="new 0 0 480 80" xml:space="preserve">
<rect y="-4.549" fill="#333333" width="85.124" height="84.549"/>
<path fill="#EC4324" d="M101.875,23.488h10.893l8.875,14.4l8.874-14.4h10.893v37.197h-10.256V39.324l-9.511,14.559h-0.214
	l-9.46-14.453v21.256h-10.094V23.488z"/>
<path fill="#EC4324" d="M158.814,23.223h9.938l15.835,37.463h-11.053l-2.71-6.643h-14.348l-2.655,6.643h-10.842L158.814,23.223z
	 M167.847,46.02l-4.143-10.574l-4.2,10.574H167.847z"/>
<path fill="#EC4324" d="M186.125,23.488h10.308V38.58l12.807-15.092h12.221l-14.081,15.994l14.559,21.203h-12.38l-9.352-13.816
	l-3.773,4.199v9.617h-10.308V23.488z"/>
<path fill="#EC4324" d="M223.15,23.488h29.918v8.768h-19.716v5.633h17.853v8.131h-17.853v5.896h19.98v8.77H223.15V23.488z"/>
<path fill="#262626" d="M260.35,23.488h10.893l8.873,14.4l8.875-14.4h10.893v37.197h-10.256V39.324l-9.512,14.559h-0.213
	l-9.457-14.453v21.256H260.35V23.488z"/>
<path fill="#262626" d="M301.791,42.193v-0.107c0-10.68,8.609-19.342,20.088-19.342c11.475,0,19.977,8.557,19.977,19.236v0.105
	c0,10.68-8.605,19.344-20.084,19.344C310.295,61.43,301.791,52.873,301.791,42.193z M331.336,42.193v-0.107
	c0-5.365-3.879-10.043-9.564-10.043c-5.633,0-9.406,4.57-9.406,9.938v0.105c0,5.369,3.881,10.043,9.514,10.043
	C327.562,52.129,331.336,47.561,331.336,42.193z"/>
<path fill="#262626" d="M352.232,32.521h-11.16v-9.033h32.627v9.033h-11.16v28.164h-10.307V32.521z"/>
<path fill="#262626" d="M377.188,23.488h10.361v37.197h-10.361V23.488z"/>
<path fill="#262626" d="M390.131,42.193v-0.107c0-10.68,8.607-19.342,20.086-19.342c11.477,0,19.98,8.557,19.98,19.236v0.105
	c0,10.68-8.609,19.344-20.088,19.344C398.633,61.43,390.131,52.873,390.131,42.193z M419.674,42.193v-0.107
	c0-5.365-3.879-10.043-9.564-10.043c-5.633,0-9.404,4.57-9.404,9.938v0.105c0,5.369,3.879,10.043,9.512,10.043
	C415.9,52.129,419.674,47.561,419.674,42.193z"/>
<path fill="#262626" d="M432.422,23.488h9.619l15.303,19.662V23.488h10.201v37.197h-9.033l-15.887-20.404v20.404h-10.203V23.488z"/>
<g>
	<g>
		<polygon fill="#EC4324" points="11.87,8.067 11.87,64.683 40.708,36.374 		"/>
	</g>
	<polygon fill="#FFFFFF" points="73.603,8.136 11.87,68.662 23.513,68.662 73.603,19.63 	"/>
	<polygon fill="#FFFFFF" points="73.603,23.24 27.2,68.662 38.942,68.662 73.603,34.735 	"/>
	<polygon fill="#FFFFFF" points="73.603,38.398 42.63,68.662 54.374,68.662 73.603,49.839 	"/>
	<polygon fill="#FFFFFF" points="73.603,53.45 58.06,68.662 62.088,68.662 73.603,68.662 	"/>
</g>
<g>
</g>
<g>
</g>
<g>
</g>
<g>
</g>
<g>
</g>
<g>
</g>
</svg>
