<?xml version="1.0"?><svg width="640" height="480" xmlns="http://www.w3.org/2000/svg">
 <title>mic1.5</title>

 <g>
  <title>Layer 1</title>
  <g id="layer1">
   <path d="m174.459595,134.082886l338.386841,162.84079l3.418091,-17.672607l-324.714661,-183.038116c0,0 -1.709015,22.721931 -17.090271,37.869934z" id="path1510" stroke-width="2.79654px" stroke="#000000" fill-rule="evenodd" fill-opacity="0.612022" fill="#000000"/>
   <path d="m178.626831,126.864563l206.575012,99.409393l2.086609,-10.788605l-198.228516,-111.739288c0,0 -1.043365,13.871063 -10.433105,23.1185z" id="path1512" stroke-miterlimit="4" stroke-width="2.79654" stroke="#000000" fill-rule="evenodd" fill="#000000"/>
   <path d="m198.385956,94.950577l324.71463,181.775864c0,0 -1.708984,17.672607 -5.127014,22.721954c-3.418091,5.049347 -18.508362,17.672638 -34.180542,11.360992c-15.67218,-6.311646 -338.386871,-150.217545 -338.386871,-150.217545c0,0 27.344391,-10.098648 52.979797,-65.641266z" id="path1514" stroke-width="2.79654px" stroke="#000000" fill-rule="evenodd" fill="#000000"/>
   <path d="m203.015503,129.358246a86.603828,81.622917 0 1 1 -173.207623,-62.0811a86.603828,81.622917 0 1 1 173.207623,62.0811z" id="path1516" stroke-dashoffset="0" stroke-miterlimit="4" stroke-width="0.999706" stroke="#000000" fill="#000000"/>
   <path d="m132.521271,79.853104a31.54969,29.73513 0 1 1 -63.09935,-22.616135a31.54969,29.73513 0 1 1 63.09935,22.616135z" id="path2395" stroke-dashoffset="0" stroke-miterlimit="4" stroke-width="1.000605" fill="#000000"/>
   <g id="g2414">
    <path d="m46.88332,52.936649c0,0 44.434673,-6.311729 82.033245,34.082897c40.352539,43.353409 22.217346,23.984375 22.217346,23.984375" id="path2405" stroke-width="1px" stroke="#000000" fill-rule="evenodd" fill-opacity="0.75" fill="#000000"/>
    <path d="m81.016479,31.50745c0,0 33.417862,-4.74678 61.69458,25.632721c30.347687,32.604595 16.708893,18.037846 16.708893,18.037846" id="path2407" stroke-width="0.752067px" stroke="#000000" fill-rule="evenodd" fill-opacity="0.75" fill="#000000"/>
    <path d="m64.254936,41.899349c0,0 39.671471,-5.635059 73.239571,30.429379c36.027008,38.706032 19.835785,21.4133 19.835785,21.4133" id="path2409" stroke-width="0.892804px" stroke="#000000" fill-rule="evenodd" fill-opacity="0.75" fill="#000000"/>
   </g>
   <g id="g2425">
    <path d="m84.665848,97.74128c0,0 -15.019196,-16.795326 35.272896,-48.780731c53.975807,-34.328178 29.872566,-18.912909 29.872566,-18.912909" id="path2419" stroke-width="1px" stroke="#000000" fill-rule="evenodd" fill-opacity="0.75" fill="#000000"/>
    <path d="m48.707581,82.574333c0,0 -8.301159,-16.449486 29.521843,-40.504684c40.59343,-25.817028 22.466209,-14.22374 22.466209,-14.22374" id="path2421" stroke-width="0.752067px" stroke="#000000" fill-rule="evenodd" fill-opacity="0.75" fill="#000000"/>
    <path d="m64.510239,92.493446c0,0 -10.174259,-19.682793 34.726654,-48.239426c48.189926,-30.648411 26.670456,-16.885551 26.670456,-16.885551" id="path2423" stroke-width="0.892804px" stroke="#000000" fill-rule="evenodd" fill-opacity="0.75" fill="#000000"/>
   </g>
   <path d="m519.682983,297.186005c0,0 97.578003,16.098999 64.942017,68.165985c-32.63501,52.067017 -261.480011,-41.656982 -292.243011,-12.622986c-30.761993,29.03299 15.381012,54.279999 15.381012,54.279999" id="path2432" stroke-miterlimit="4" stroke-width="10.836592" stroke="#000000" fill-rule="evenodd" fill-opacity="0.75" fill="none"/>
  </g>
  <line id="svg_1" y2="92" x2="198" y1="93" x1="198" stroke-width="2.79654px" stroke="#000000" fill="none"/>
  <line id="svg_2" y2="89" x2="197" y1="89" x1="196" stroke-width="2.79654px" stroke="#000000" fill="none"/>
 </g>
</svg>