<?xml version="1.0" encoding="utf-8"?>
<!-- Generator: Adobe Illustrator 16.0.0, SVG Export Plug-In . SVG Version: 6.00 Build 0)  -->
<!DOCTYPE svg PUBLIC "-//W3C//DTD SVG 1.1//EN" "http://www.w3.org/Graphics/SVG/1.1/DTD/svg11.dtd">
<svg version="1.1" id="Layer_1" xmlns="http://www.w3.org/2000/svg" xmlns:xlink="http://www.w3.org/1999/xlink" x="0px" y="0px"
	 width="270px" height="80px" viewBox="0 0 270 80" enable-background="new 0 0 270 80" xml:space="preserve">
<g>
	<path d="M28.229,13.039c16.471,0,22.6,10.917,22.6,20.557c0,10.854-8.108,23.558-24.962,23.558
		c-15.769,0-22.664-10.98-22.664-21.323C3.204,24.786,11.312,13.039,28.229,13.039z M27.655,53.578
		c8.108,0,11.811-8.682,11.811-18.194c0-9.257-3.895-18.77-12.833-18.77c-8.554,0-12.257,8.363-12.257,17.237
		C14.376,43.619,19.101,53.578,27.655,53.578z"/>
	<path d="M73.275,54.217c2.49-0.319,3.448-1.852,3.448-4.15V31.361h-9.704l-0.83,0.831v17.875c0,1.916-0.017,3.448-0.017,3.448
		l3.208,0.574L69.11,56.29l-16.263-0.024v-2.049c2.49-0.319,3.447-1.852,3.447-4.15V31.745h-3.83v-3.256l3.83-1.404v-1.213
		c0-8.427,6.64-14.875,15.896-14.875c2.234,0,7.405,0.319,9.065,2.746c2.937-2.937,6.895-4.725,10.98-4.725
		c3.767,0,9.001,1.469,9.001,5.043c0,2.171-1.852,3.767-3.831,3.767c-3.575,0-5.873-5.299-8.044-5.299
		c-1.851,0-2.745,3.83-2.745,11.236v3.384h7.917l-0.703,4.405h-6.384l-0.83,0.83v17.683c0,1.916-0.024,3.448-0.024,3.448
		l6.089,0.574l-0.266,2.201H73.275V54.217z M66.189,27.275h10.534v-2.298c0-2.106,0.383-4.086,1.085-5.937h-0.128
		c-3.703,0-6.256-4.597-8.938-4.597c-2.234,0-2.554,3.064-2.554,10.662V27.275z"/>
	<path d="M96.437,47.066h2.234c0.51,5.427,4.15,7.086,6.831,7.086c1.915,0,3.256-1.021,3.256-3c0-6.001-12.896-4.852-12.896-15.13
		c0-6.384,5.17-9.64,11.108-9.64c3.767,0,9.321,1.277,9.321,1.277l-1.596,7.597h-2.298c-0.511-4.788-2.682-5.874-4.788-5.874
		c-1.66,0-3.192,0.894-3.192,3.064c0,6.256,12.832,4.661,12.832,14.811c0,6.959-5.554,9.896-11.938,9.896
		c-4.341,0-10.151-1.532-10.151-4.532C95.159,50.896,96.437,47.066,96.437,47.066z"/>
	<path d="M135.367,26.382c3.831,0,10.406,1.149,10.406,5.235c0,1.852-1.404,3.639-3.511,3.639c-3.895,0-3.447-5.682-8.044-5.682
		c-3.895,0-5.937,4.597-5.937,9.832c0,6.639,3.191,11.108,9.192,11.108c4.215,0,7.662-1.979,7.662-1.979l0.766,2.17
		c0,0-3.703,6.448-12.577,6.448c-8.81,0-14.045-6.896-14.045-14.429C119.279,35.192,124.833,26.382,135.367,26.382z"/>
	<path d="M148.453,54.217c2.17-0.319,3.128-1.852,3.128-4.15V35.256c0-2.554-0.063-4.149-1.915-4.149h-2.043v-2.234
		c8.044-1.149,14.045-3.384,14.045-3.384l0.191,0.191c0,0-0.958,3.448-0.958,7.597c0.895-1.341,4.214-6.895,9.321-6.895
		c3.384,0,4.277,2.618,4.277,4.341c0,2.107-1.532,4.661-4.725,4.661c-2.361,0-2.809-1.405-4.469-1.405
		c-1.724,0-3.83,1.405-3.83,1.405v14.683c0,1.916,0.002,3.448,0.002,3.448l5.232,0.574l-0.283,2.201h-17.975V54.217z"/>
	<path d="M189.094,26.382c6.001,0,11.363,3.256,11.618,11.811c0,0-3.639,1.277-4.915,1.468l-12.065,1.852l-0.512,0.829
		c0.894,4.405,3.447,8.172,9.513,8.172c4.213,0,7.15-2.234,7.15-2.234l0.829,2.171c0,0-3.511,6.703-11.811,6.703
		c-9.575,0-15.003-7.214-15.003-14.875C173.898,33.532,180.475,26.382,189.094,26.382z M182.9,38.193l8.683-1.085
		c0,0-0.063-7.278-4.021-7.278C184.816,29.83,182.965,33.66,182.9,38.193z"/>
	<path d="M217.873,26.382c6.001,0,11.363,3.256,11.618,11.811c0,0-3.639,1.277-4.915,1.468l-12.065,1.852L212,42.342
		c0.893,4.405,3.446,8.172,9.512,8.172c4.213,0,7.15-2.234,7.15-2.234l0.829,2.171c0,0-3.511,6.703-11.81,6.703
		c-9.576,0-15.003-7.214-15.003-14.875C202.679,33.532,209.254,26.382,217.873,26.382z M211.681,38.193l8.682-1.085
		c0,0-0.063-7.278-4.021-7.278C213.596,29.83,211.744,33.66,211.681,38.193z"/>
	<path d="M231.062,54.217c2.171-0.319,3.129-1.852,3.129-4.15V35.192c0-2.554-0.064-4.15-1.916-4.15h-2.043v-2.234
		c8.044-1.213,14.109-3.32,14.109-3.32l0.191,0.191c0,0-0.575,1.021-1.021,6.704c2.17-2.682,5.745-6.001,10.917-6.001
		c4.405,0,7.788,2.426,7.788,8.619v15.066c0,1.916-0.053,3.401-0.053,3.401l4.33,0.621l-0.243,2.201h-16.355v-2.073
		c1.787-0.319,2.426-1.852,2.426-4.15V38.129c0-4.341-0.83-5.107-3.256-5.107c-1.787,0-3.83,0.574-4.979,1.149v15.896
		c0,1.916-0.021,3.415-0.021,3.415l3.085,0.607l-0.29,2.201h-15.798V54.217z"/>
</g>
<rect x="3.204" y="68.147" width="263.29" height="4.147"/>
</svg>
