<?xml version="1.0" encoding="utf-8"?>
<!-- Generator: Adobe Illustrator 17.0.0, SVG Export Plug-In . SVG Version: 6.00 Build 0)  -->
<!DOCTYPE svg PUBLIC "-//W3C//DTD SVG 1.1//EN" "http://www.w3.org/Graphics/SVG/1.1/DTD/svg11.dtd">
<svg version="1.1" id="Layer_1" xmlns="http://www.w3.org/2000/svg" xmlns:xlink="http://www.w3.org/1999/xlink" x="0px" y="0px"
	 width="2535px" height="1256px" viewBox="0 0 2535 1256" enable-background="new 0 0 2535 1256" xml:space="preserve">
<radialGradient id="SVGID_1_" cx="666.3383" cy="-99.3732" r="968.9476" gradientTransform="matrix(1 0 0 1 598 563.446)" gradientUnits="userSpaceOnUse">
	<stop  offset="0" style="stop-color:#752104"/>
	<stop  offset="1" style="stop-color:#3D1004"/>
</radialGradient>
<path fill="url(#SVGID_1_)" d="M-23.285-4.696h2575.247v937.539H-23.285L-23.285-4.696z"/>
<path fill="#BC9F77" d="M-9.217,918.925h2552.128v351.017H-9.217V918.925z"/>
<path fill="#9C8156" d="M-9.217,1177.766h2552.128v92.175H-9.217V1177.766z"/>
<path fill="#7F6846" d="M-9.217,1256.375h2552.128v14.458H-9.217V1256.375z"/>
<path fill="none" stroke="#9C8156" stroke-miterlimit="10" d="M-9.217,946.378h2552.128 M2542.911,1154.233H-9.217
	 M1196.344,946.378c2.241,0-53.099,207.858-53.099,207.858 M1110.984,946.378c2.241,0-108.036,207.858-108.036,207.858
	 M1004.263,946.378c2.241,0-184.207,207.858-184.207,207.858 M877.137,946.378c2.274,0-310.96,212.39-306.894,207.858
	 M723.663,946.378c2.274,0-425.124,212.39-421.061,207.858 M552.904,946.378c2.274,0-536.87,212.39-532.803,207.858
	 M332.959,946.378c-111.822,39.88-229.093,73.386-347.076,112.065 M1282.584,946.378c-2.241,0,53.099,207.858,53.099,207.858
	 M1367.941,946.378c-2.241,0,108.036,207.858,108.036,207.858 M1474.661,946.378c-2.241,0,184.207,207.858,184.207,207.858
	 M1601.787,946.378c-2.274,0,310.96,212.39,306.894,207.858 M1755.261,946.378c-2.274,0,425.124,212.39,421.061,207.858
	 M1926.02,946.378c-2.274,0,536.87,212.39,532.803,207.858 M2145.97,946.378c131.594,48.257,265.618,81.763,400.605,129.186"/>
<path opacity="0.15" enable-background="new    " d="M2088.901,9.229c0,0-55.36,440.997,350.108,531.371l-58.032,540.263h71.623
	l51.101-703.202L2232.29,7.877C2232.29,7.877,2088.901,9.229,2088.901,9.229z"/>
<path fill="#E31F26" d="M2167.024,7.877c0,0,12.623,440.729,282.962,524.896l-44.688,548.019h138.124V9.229
	C2543.422,9.229,2167.024,7.877,2167.024,7.877z"/>
<path opacity="0.1" fill="#1D1C1A" stroke="#636463" stroke-width="0.645" stroke-miterlimit="10" enable-background="new    " d="
	M2232.29,7.877c0,0,16.845,386.726,235.388,527.472c0,0-189.493-150.781-193.279-527.472
	C2274.398,7.877,2232.29,7.877,2232.29,7.877z"/>
<path opacity="0.1" fill="#1D1C1A" stroke="#636463" stroke-width="0.604" stroke-miterlimit="10" enable-background="new    " d="
	M2349.988,8.538c0,0-5.587,341.53,125.275,526.814c0,0-101.28-211.402-69.96-526.123L2349.988,8.538L2349.988,8.538z"/>
<path opacity="0.1" fill="#1D1C1A" stroke="#636463" stroke-width="0.483" stroke-miterlimit="10" enable-background="new    " d="
	M2456.713,9.925c0,0-24.723,336.383,46.984,528.033c0,0-52.299-216.641-12.623-528.912L2456.713,9.925L2456.713,9.925z"/>
<path fill="#F2BD38" d="M2543.426,471.092c0,0-36.643,62.359-104.417,57.995C2439.009,529.087,2508.844,570.63,2543.426,471.092z"/>
<path opacity="0.1" fill="#1D1C1A" stroke="#636463" stroke-width="0.699" stroke-miterlimit="10" enable-background="new    " d="
	M2458.555,545.224l-20.016,535.66l19.618-1.168V537.409 M2483.291,545.417l16.368,535.446l19.597-1.734l-36.488-541.507"/>
<path opacity="0.15" enable-background="new    " d="M439.541,9.229c0,0,55.36,440.997-350.108,531.371l58.032,540.263H75.842
	L24.741,377.657L296.148,7.877C296.148,7.877,439.541,9.229,439.541,9.229z"/>
<path fill="#E31F26" d="M361.418,7.877c0,0-12.623,440.729-282.962,524.896l44.689,548.019H-14.984V9.229
	C-14.984,9.229,361.418,7.877,361.418,7.877z"/>
<path opacity="0.1" fill="#1D1C1A" stroke="#636463" stroke-width="0.645" stroke-miterlimit="10" enable-background="new    " d="
	M296.152,7.877c0,0-16.845,386.726-235.388,527.472c0,0,189.493-150.781,193.279-527.472C254.044,7.877,296.152,7.877,296.152,7.877
	z"/>
<path opacity="0.1" fill="#1D1C1A" stroke="#636463" stroke-width="0.604" stroke-miterlimit="10" enable-background="new    " d="
	M178.458,8.538c0,0,5.587,341.53-125.275,526.814c0,0,101.28-211.402,69.96-526.123C123.144,9.229,178.458,8.538,178.458,8.538z"/>
<path opacity="0.1" fill="#1D1C1A" stroke="#636463" stroke-width="0.483" stroke-miterlimit="10" enable-background="new    " d="
	M71.729,9.925c0,0,24.723,336.383-46.984,528.033c0,0,52.299-216.641,12.623-528.912C37.369,9.045,71.729,9.925,71.729,9.925z"/>
<path fill="#F2BD38" d="M-14.984,471.092c0,0,36.643,62.359,104.417,57.995C89.433,529.087,19.598,570.63-14.984,471.092z"/>
<path opacity="0.1" fill="#1D1C1A" stroke="#636463" stroke-width="0.699" stroke-miterlimit="10" enable-background="new    " d="
	M69.887,545.224l20.016,535.66l-19.618-1.168V537.409 M45.151,545.417l-16.368,535.446l-19.597-1.734l36.488-541.507"/>
</svg>
