<?xml version="1.0" encoding="utf-8"?>
<!-- Generator: Adobe Illustrator 16.0.0, SVG Export Plug-In . SVG Version: 6.00 Build 0)  -->
<!DOCTYPE svg PUBLIC "-//W3C//DTD SVG 1.1//EN" "http://www.w3.org/Graphics/SVG/1.1/DTD/svg11.dtd">
<svg version="1.1" id="Layer_1" xmlns="http://www.w3.org/2000/svg" xmlns:xlink="http://www.w3.org/1999/xlink" x="0px" y="0px"
	 width="230px" height="135px" viewBox="0 0 230 135" enable-background="new 0 0 230 135" xml:space="preserve">
<path fill="#602D12" d="M14.403,131.85c-3.746,0-7.126-0.412-10.141-3.427l3.883-3.882c1.964,1.964,4.522,2.238,6.349,2.238
	c2.056,0,4.203-0.686,4.203-2.467c0-1.188-0.64-2.01-2.512-2.193l-3.747-0.365c-4.293-0.411-6.942-2.283-6.942-6.669
	c0-4.934,4.34-7.583,9.181-7.583c3.701,0,6.808,0.64,9.091,2.786l-3.654,3.7c-1.371-1.232-3.472-1.599-5.528-1.599
	c-2.375,0-3.379,1.097-3.379,2.283c0,0.869,0.364,1.874,2.466,2.057l3.746,0.366c4.705,0.455,7.081,2.969,7.081,6.987
	C24.499,129.337,20.022,131.85,14.403,131.85z"/>
<path fill="#602D12" d="M34.865,131.575c-4.842,0-6.898-3.426-6.898-6.807v-11.785h-2.512v-4.521h2.512v-7.035h5.938v7.035h4.203
	v4.521h-4.203v11.421c0,1.369,0.64,2.146,2.056,2.146h2.147v5.024H34.865z"/>
<path fill="#602D12" d="M40.747,103.71v-4.841h6.076v4.841H40.747z M40.838,131.575v-23.799h5.939v23.799H40.838z"/>
<path fill="#602D12" d="M60.197,131.85c-4.751,0-10.644-2.559-10.644-12.197c0-9.638,5.893-12.15,10.644-12.15
	c3.289,0,5.755,1.005,7.856,3.198l-4.019,4.02c-1.234-1.324-2.284-1.873-3.837-1.873c-1.417,0-2.513,0.502-3.38,1.553
	c-0.913,1.143-1.325,2.741-1.325,5.253c0,2.514,0.412,4.157,1.325,5.3c0.868,1.051,1.964,1.553,3.38,1.553
	c1.554,0,2.604-0.548,3.837-1.873l4.019,3.975C65.952,130.799,63.485,131.85,60.197,131.85z"/>
<path fill="#602D12" d="M84.436,131.575l-5.847-9.912l-2.512,2.832v7.08h-5.938V99.052h5.938v18.454l7.903-9.729h7.171l-8.497,9.593
	l9.136,14.206H84.436z"/>
<path fill="#602D12" d="M96.75,121.526c0,3.061,1.872,5.298,5.208,5.298c2.603,0,3.882-0.73,5.39-2.237l3.609,3.518
	c-2.42,2.42-4.75,3.745-9.044,3.745c-5.619,0-11.009-2.559-11.009-12.197c0-7.765,4.202-12.15,10.369-12.15
	c6.623,0,10.369,4.842,10.369,11.374v2.65H96.75z M105.246,114.902c-0.639-1.416-1.963-2.468-3.973-2.468
	c-2.011,0-3.335,1.052-3.975,2.468c-0.365,0.868-0.502,1.508-0.548,2.558h9.044C105.749,116.41,105.612,115.771,105.246,114.902z"/>
<path fill="#602D12" d="M127.389,114.263c-0.912-0.914-1.689-1.416-3.15-1.416c-1.828,0-3.839,1.371-3.839,4.386v14.343h-5.938
	v-23.799h5.801v2.284c1.143-1.371,3.427-2.559,5.983-2.559c2.332,0,3.976,0.594,5.619,2.239L127.389,114.263z"/>
<path fill="#F3712F" d="M158.555,107.502c-2.97,0-5.117,0.914-7.127,3.016c-1.508-2.056-3.654-3.016-6.303-3.016
	c-2.193,0-4.385,0.868-5.938,2.467v-2.192h-5.802v23.799h5.938v-14.389c0-3.244,2.102-4.34,3.974-4.34c1.873,0,3.93,1.096,3.93,4.34
	v14.389h5.938V117.05c0-3.107,2.147-4.203,3.974-4.203c1.874,0,3.93,1.096,3.93,4.34v14.389h5.938v-15.211
	c0-2.604-0.686-4.843-2.605-6.761C163.076,108.279,160.93,107.502,158.555,107.502z"/>
<path fill="#F3712F" d="M184.364,122.166c0,3.242-2.102,4.339-3.976,4.339c-1.871,0-3.928-1.097-3.928-4.339v-14.39h-5.938v15.212
	c0,2.603,0.502,4.841,2.42,6.76c1.325,1.325,3.244,2.102,5.619,2.102c2.193,0,4.385-0.822,5.938-2.467v2.192h5.802v-23.799h-5.938
	V122.166z"/>
<path fill="#F3712F" d="M200.021,124.404V99.052h-5.938v25.717c0,3.381,2.056,6.807,6.942,6.807h3.381v-5.024h-2.283
	C200.615,126.551,200.021,125.82,200.021,124.404z"/>
<path fill="#F3712F" d="M226.208,118.876c0-6.532-3.745-11.374-10.369-11.374c-6.167,0-10.369,4.386-10.369,12.15
	c0,9.639,5.39,12.197,11.009,12.197c4.294,0,6.623-1.325,9.044-3.745l-3.608-3.518c-1.508,1.507-2.787,2.237-5.39,2.237
	c-3.335,0-5.208-2.237-5.208-5.298h14.892V118.876z M211.316,117.46c0.046-1.05,0.183-1.689,0.547-2.558
	c0.641-1.416,1.965-2.468,3.976-2.468s3.334,1.052,3.974,2.468c0.366,0.868,0.503,1.508,0.549,2.558H211.316z"/>
<path fill-rule="evenodd" clip-rule="evenodd" fill="#602D12" d="M126.265,92.095c-0.837,0.402-1.979,0.312-3.161,0.348
	c-1.018,0.027-2.441,0.049-3.032-0.475c-0.321-0.283-0.414-0.9-0.435-1.259c-0.025-0.428,0.082-0.952,0.172-1.431
	c0.107-0.566,0.221-1.29,0-1.603c-0.254-0.36-1.164-0.209-1.646-0.478c-0.513-0.284-0.657-0.969-0.821-1.732
	c-0.053-0.241-0.195-0.46-0.22-0.65c-0.144-1.17,0.251-2.74,0.52-3.943c0.286-1.271,0.658-2.462,0.868-3.642
	c0.318-1.78,0.424-3.792,0.303-5.632c-0.062-0.959-0.191-1.712-0.043-2.514c0.14-0.749,0.451-1.373,0.605-2.121
	c0.049-0.239,0.012-0.521,0.045-0.782c0.031-0.229,0.162-0.417,0.174-0.604c0.026-0.502-0.135-1.109-0.174-1.734
	c-0.105-1.671,0.022-4.027,0.132-5.461c0.036-0.497,0.27-1.066-0.089-1.298c-1.735-0.026-3.32,0.312-4.94,0.519
	c-4.356,0.557-9.838,0.629-14.041-0.216c-0.397-0.081-0.794-0.089-1.167-0.174c-2.982-0.685-5.723-1.966-7.844-3.64
	c-0.327-0.258-0.715-0.539-1.083-0.822c-0.36-0.279-0.745-0.667-1.083-0.823c-1.699-0.788-3.948,0.119-4.636,1.212
	c-0.276,0.437-0.472,0.999-0.737,1.516c-0.253,0.496-0.475,1.02-0.693,1.519c-1.12,2.561-2.384,5.006-3.51,7.582
	c-0.65,1.486-1.377,3.142-1.864,4.81c-1.033,3.541-0.069,8.283,0.738,11.613c0.073,0.305,0.235,0.609,0.347,0.952
	c0.254,0.807,0.801,1.876,1.429,2.429c0.328,0.286,0.886,0.459,1.256,0.78c0.466,0.397,0.811,1.189,1.17,1.862
	c0.151,0.281,0.36,0.599,0.563,0.952c0.432,0.748,0.579,1.419-0.26,1.863c-0.631,0.335-1.587,0.421-2.47,0.476
	c-0.403,0.103-0.275,0.645-0.52,0.91c-0.138,0.151-0.732,0.39-1.04,0.478c-1.163,0.337-3.125,0.315-4.031,0
	c-0.453-0.159-0.968-0.506-1.083-0.866c-0.224-0.708,0.333-1.604-0.173-2.168c-0.221-0.242-0.703-0.199-1.128-0.388
	c-0.604-0.269-1.183-0.834-1.473-1.562c-0.693-1.745-0.263-4.486-0.346-6.629c-0.023-0.625-0.107-1.296-0.128-1.994
	c-0.042-1.27-0.341-2.516-0.477-3.77c-0.068-0.61-0.269-1.132-0.389-1.688c-0.2-0.896-0.35-1.865-0.608-2.774
	c-0.286-0.998-0.294-1.971,0.043-2.815c0.093-0.237,0.342-0.456,0.477-0.782c0.2-0.49,0.271-1.064,0.259-1.516
	c-0.146-0.255-0.754-0.055-0.91-0.302c-0.362-2.739-0.773-5.497-0.996-8.363c-0.073-0.958-0.077-1.958-0.175-2.947
	c-0.188-1.959-0.031-3.952-0.214-5.849c-0.092-0.925-0.318-1.793-0.434-2.688c-0.331-2.514-1.032-5.74-0.521-8.362
	c0.329-1.683,0.933-3.046,1.908-4.289c0.677-0.868,1.409-1.699,2.208-2.472c0.766-0.736,1.649-1.467,2.558-2.122
	c0.586-0.422,1.207-0.914,1.864-1.213c1.452-0.665,3.343-1.255,5.329-1.345c1.996-0.086,4.257-0.098,6.241,0.262
	c1.893,0.342,3.773,0.674,5.633,1.039c1.82,0.356,3.605,0.852,5.329,1.3c0.223,0.058,0.414,0.195,0.65,0.26
	c0.549,0.15,1.171,0.183,1.778,0.346c1.604,0.438,3.718,0.651,5.676,0.651c2.129,0,4.049-0.058,5.807-0.478
	c0.26-0.062,0.46-0.198,0.735-0.302c0.279-0.107,0.61-0.086,0.868-0.175c0.175-0.06,0.361-0.25,0.563-0.346
	c1.014-0.482,1.871-0.97,2.773-1.603c0.714-0.501,1.301-0.93,2.251-1.3c0.422-0.165,0.848-0.391,1.258-0.52
	c0.898-0.285,1.871-0.554,2.56-0.997c1.077-0.693,1.874-1.686,2.771-2.47c0.937-0.818,1.878-1.602,2.861-2.383
	c1.989-1.586,4.011-3.037,5.89-4.55c0.951-0.766,2.003-1.484,3.121-2.123c2.186-1.248,4.398-2.716,7.539-2.947
	c1.229-0.09,2.526-0.127,3.771,0.042c0.343,0.048,0.812,0.239,1.126,0.173c0.345-0.073,0.596-0.594,0.821-0.996
	c0.47-0.83,0.801-1.382,1.216-2.385c0.254-0.619,0.147-1.235,0.778-1.213c0.646,0.024,0.536,1.673,0.564,2.298
	c0.035,0.756-0.094,1.771,0.043,2.295c0.093,0.364,0.576,0.9,1.084,0.911c0.346,0.005,0.58-0.281,0.908-0.478
	c0.34-0.198,0.654-0.316,0.867-0.476c0.514-0.386,1.129-1.026,1.646-1.561c0.429-0.442,1.1-1.475,1.822-1.386
	c1.23,0.147,0.008,1.962-0.264,2.555c-0.643,1.419-1.263,2.479-1.99,3.814c-0.301,0.551-0.995,1.294-1,1.864
	c0,0.401,0.346,0.668,0.521,1.083c0.085,0.198,0.133,0.41,0.219,0.605c0.423,0.981,0.744,2.359,1.084,3.51
	c0.283,0.969,0.516,1.992,0.865,2.947c0.342,0.933,0.836,1.811,1.215,2.729c0.098,0.24,0.117,0.535,0.217,0.781
	c0.793,2.024,1.557,4.333,2.508,6.284c0.391,0.791,0.918,1.776,0.914,2.947c-0.008,1.289-0.678,1.905-1.259,2.858
	c-0.304,0.504-0.752,1.272-1.211,1.431c-0.341,0.116-0.737-0.007-1.082,0.041c-0.487,0.068-0.825,0.383-1.259,0.434
	c-1.18,0.136-2.233-0.781-2.559-1.646c-0.107-0.292-0.059-0.69-0.127-1.04c-0.281-1.406-0.962-2.085-1.949-2.99
	c-0.629-0.574-1.111-1.017-1.907-1.431c-1.106-0.574-2.339-0.929-3.511-1.561c-0.432-0.23-0.974-0.461-1.344-0.388
	c-0.627,0.123-1.252,1.14-1.732,1.777c-3.059,4.03-5.761,8.172-8.755,12.133c-1.978,2.618-4.091,5.278-5.676,8.275
	c-0.398,0.754-0.636,1.633-0.953,2.514c-0.31,0.86-0.457,1.813-0.78,2.729c-1.151,3.296-1.51,7.306-2.555,10.747
	c-0.111,0.361-0.152,0.776-0.261,1.169c-0.481,1.757-0.962,3.77-1.516,5.634c-0.415,1.39-0.54,3.266-0.61,5.114
	c-0.062,1.712-0.145,4.152,0.479,5.24c0.33,0.579,1.504,0.789,1.951,1.389c0.307,0.415,0.515,1.229,0.823,1.776
	c0.212,0.379,0.826,1.187,0.778,1.775c-0.035,0.441-0.408,0.752-0.736,0.911c-0.364,0.18-0.904,0.069-1.255,0.261
	C126.482,91.355,126.669,91.833,126.265,92.095z"/>
<g>
</g>
<g>
</g>
<g>
</g>
<g>
</g>
<g>
</g>
<g>
</g>
</svg>
