<?xml version="1.0" encoding="utf-8"?>
<!-- Generator: Adobe Illustrator 16.0.0, SVG Export Plug-In . SVG Version: 6.00 Build 0)  -->
<!DOCTYPE svg PUBLIC "-//W3C//DTD SVG 1.1//EN" "http://www.w3.org/Graphics/SVG/1.1/DTD/svg11.dtd">
<svg version="1.1" id="Layer_1" xmlns="http://www.w3.org/2000/svg" xmlns:xlink="http://www.w3.org/1999/xlink" x="0px" y="0px"
	 width="424px" height="205px" viewBox="0 0 424 205" enable-background="new 0 0 424 205" xml:space="preserve">
<g id="bird">
	<path fill="#CCCCCC" d="M333.574,58.906c10.455-12.354,8.215-19.839,8.215-19.839L316.4,47.865c0,0,7.192-8.515,10.938-14.669
		c3.743-6.154,1.494-17.134,1.494-17.134s-46.711,20.492-81.269,34.242c-6.378,2.538-13.298,5.167-20.34,7.77
		c-0.175,0.005-0.297,0.007-0.297,0.007l-0.178-6.811c0,0,6.032-0.879,9.994-1.872c1.107-0.277-0.01-1.798-0.292-2.148
		c-5.559-7.048-13.669-13.416-22.442-11.921c-4.543,0.775-9.552,4.542-11.699,9.079c-0.97,2.042-1.5,4.322-1.776,6.557
		c-0.05,0.414-0.225,3.965-0.178,5.739c-5.763-2.15-11.4-4.306-16.662-6.399c-34.558-13.75-81.269-34.242-81.269-34.242
		s-2.251,10.98,1.494,17.134c3.746,6.155,10.936,14.669,10.936,14.669L89.47,39.066c0,0-2.239,7.486,8.216,19.839
		c8.19,9.684,18.418,11.565,18.418,11.565l-25.511,0.402c0,0,2.553,11.913,13.09,17.406c10.537,5.5,17.331,6.502,17.331,6.502
		l-17.413,1.711c0,0,1.916,10.493,16.04,16.341c9.394,3.883,20.022,0.367,20.022,0.367l-11.861,9.9c0,0,34.396,16.095,53.52,23.23
		c2.138,0.797,4.453,1.552,6.88,2.263l-17.905,27.61l43.792,25.955l43.752-27.827l-19.094-24.556
		c3.999-1.042,7.815-2.187,11.191-3.445c19.124-7.136,53.519-23.23,53.519-23.23l-11.86-9.9c0,0,10.628,3.516,20.022-0.367
		c14.124-5.849,16.039-16.341,16.039-16.341l-17.411-1.711c0,0,6.792-1.002,17.33-6.502c10.539-5.493,13.091-17.406,13.091-17.406
		l-25.511-0.402C315.156,70.471,325.383,68.59,333.574,58.906z"/>
	<path fill="#FFFFFF" d="M333.574,51.686c10.455-12.355,8.215-19.841,8.215-19.841L316.4,40.645c0,0,7.192-8.515,10.938-14.669
		c3.743-6.156,1.494-17.137,1.494-17.137s-46.711,20.493-81.269,34.245c-6.378,2.538-13.298,5.167-20.34,7.769
		c-0.175,0.004-0.297,0.009-0.297,0.009l-0.178-6.812c0,0,6.032-0.88,9.994-1.872c1.107-0.278-0.01-1.797-0.292-2.149
		c-5.559-7.047-13.669-13.415-22.442-11.922c-4.543,0.776-9.552,4.542-11.699,9.079c-0.97,2.041-1.5,4.324-1.776,6.557
		c-0.05,0.415-0.225,3.967-0.178,5.741c-5.763-2.151-11.4-4.308-16.662-6.4c-34.558-13.752-81.269-34.245-81.269-34.245
		s-2.251,10.981,1.494,17.137c3.746,6.154,10.936,14.669,10.936,14.669L89.47,31.844c0,0-2.239,7.486,8.216,19.841
		c8.19,9.682,18.418,11.563,18.418,11.563l-25.511,0.404c0,0,2.553,11.912,13.09,17.406c10.537,5.501,17.331,6.502,17.331,6.502
		l-17.413,1.713c0,0,1.916,10.492,16.04,16.339c9.394,3.884,20.022,0.368,20.022,0.368l-11.861,9.898
		c0,0,34.396,16.097,53.52,23.229c2.138,0.799,4.453,1.555,6.88,2.264l-17.905,27.613l43.792,25.955l43.752-27.83l-19.094-24.553
		c3.999-1.042,7.815-2.187,11.191-3.449c19.124-7.132,53.519-23.229,53.519-23.229l-11.86-9.898c0,0,10.628,3.516,20.022-0.368
		c14.124-5.848,16.039-16.339,16.039-16.339l-17.411-1.713c0,0,6.792-1.001,17.33-6.502c10.539-5.494,13.091-17.406,13.091-17.406
		l-25.511-0.404C315.156,63.249,325.383,61.368,333.574,51.686z"/>
	<path fill="#CCCCCC" d="M333.574,45.017c10.455-12.354,8.215-19.841,8.215-19.841L316.4,33.977c0,0,7.192-8.517,10.938-14.669
		c3.743-6.157,1.494-17.135,1.494-17.135s-46.711,20.49-81.269,34.242c-6.378,2.537-13.298,5.166-20.34,7.769
		c-0.175,0.005-0.297,0.01-0.297,0.01l-0.178-6.814c0,0,6.032-0.879,9.994-1.871c1.107-0.276-0.01-1.799-0.292-2.149
		c-5.559-7.048-13.669-13.414-22.442-11.919c-4.543,0.773-9.552,4.541-11.699,9.079c-0.97,2.039-1.5,4.322-1.776,6.555
		c-0.05,0.416-0.225,3.966-0.178,5.739c-5.763-2.148-11.4-4.304-16.662-6.398c-34.558-13.752-81.269-34.242-81.269-34.242
		s-2.251,10.978,1.494,17.135c3.746,6.152,10.936,14.669,10.936,14.669L89.47,25.175c0,0-2.239,7.488,8.216,19.841
		c8.19,9.682,18.418,11.563,18.418,11.563l-25.511,0.405c0,0,2.553,11.912,13.09,17.407c10.537,5.5,17.331,6.5,17.331,6.5
		l-17.413,1.714c0,0,1.916,10.491,16.04,16.338c9.394,3.884,20.022,0.368,20.022,0.368l-11.861,9.899c0,0,34.396,16.096,53.52,23.23
		c2.138,0.801,4.453,1.553,6.88,2.264l-17.905,27.61l43.792,25.956l43.752-27.828l-19.094-24.556
		c3.999-1.043,7.815-2.187,11.191-3.446c19.124-7.135,53.519-23.23,53.519-23.23l-11.86-9.899c0,0,10.628,3.516,20.022-0.368
		c14.124-5.847,16.039-16.338,16.039-16.338l-17.411-1.714c0,0,6.792-1,17.33-6.5c10.539-5.495,13.091-17.407,13.091-17.407
		l-25.511-0.405C315.156,56.58,325.383,54.698,333.574,45.017z"/>
</g>
<g>
	<path fill="#53A0D5" d="M113.682,153.616v7.035h-3.503v-21.14h10.569c1.929,0,3.583,0.692,4.964,2.072
		c1.381,1.381,2.072,3.045,2.072,4.995c0,1.93-0.69,3.595-2.072,4.996c-1.381,1.36-3.036,2.041-4.964,2.041H113.682z
		 M113.682,143.046v7.036h7.066c0.954,0,1.777-0.345,2.467-1.035s1.036-1.513,1.036-2.468c0-0.975-0.345-1.807-1.036-2.498
		c-0.69-0.688-1.513-1.035-2.467-1.035H113.682z"/>
	<path fill="#53A0D5" d="M155.349,160.651l-4.081-7.035h-5.971v7.035h-3.502v-21.14h10.569c1.929,0,3.584,0.692,4.965,2.072
		c1.38,1.381,2.071,3.036,2.071,4.965c0,1.462-0.416,2.792-1.249,3.991c-0.812,1.178-1.848,2.02-3.106,2.527l4.355,7.584H155.349z
		 M152.364,143.046h-7.067v7.005l7.067,0.031c0.955,0,1.776-0.345,2.467-1.035c0.69-0.69,1.036-1.523,1.036-2.498
		c0-0.954-0.345-1.776-1.036-2.468C154.141,143.393,153.319,143.046,152.364,143.046z"/>
	<path fill="#53A0D5" d="M173.411,139.512h3.503v21.14h-3.503V139.512z"/>
	<path fill="#53A0D5" d="M190.925,139.482l14.073,12.672v-12.672h3.533v21.14v-0.031v0.061l-14.103-12.671v12.642h-3.503V139.482z"
		/>
	<path fill="#53A0D5" d="M222.541,139.512h17.638v3.534h-7.036v17.605h-3.533v-17.605h-7.068V139.512z"/>
	<path fill="#53A0D5" d="M254.188,139.512h3.505v21.14h-3.505V139.512z"/>
	<path fill="#53A0D5" d="M271.704,139.482l14.071,12.672v-12.672h3.533v21.14v-0.031v0.061l-14.103-12.671v12.642h-3.502V139.482z"
		/>
	<path fill="#53A0D5" d="M313.89,139.512c1.461,0,2.832,0.275,4.112,0.823c1.279,0.549,2.405,1.31,3.38,2.285l-2.527,2.497
		c-1.361-1.381-3.016-2.071-4.965-2.071c-1.931,0-3.595,0.69-4.996,2.071c-1.36,1.381-2.04,3.037-2.04,4.965
		c0,1.93,0.68,3.594,2.04,4.995c1.401,1.362,3.065,2.041,4.996,2.041c1.055,0,2.035-0.207,2.939-0.625
		c0.902-0.416,1.689-0.998,2.36-1.75v-2.894h-5.3v-3.503h8.832v7.553c-0.486,0.712-1.05,1.361-1.69,1.95
		c-0.639,0.59-1.335,1.091-2.085,1.508c-0.752,0.415-1.555,0.736-2.407,0.959c-0.853,0.224-1.736,0.335-2.649,0.335
		c-2.925,0-5.412-1.036-7.463-3.106c-2.072-2.05-3.106-4.539-3.106-7.463c0-2.904,1.034-5.392,3.106-7.462
		C308.478,140.549,310.965,139.512,313.89,139.512z"/>
</g>
<g id="threadbird">
	<g>
		<path fill="#C1DAE8" d="M22.335,135.902V61.658H9.96V49.283h37.22v12.375H34.806v74.244H22.335z"/>
		<path fill="#C1DAE8" d="M54.508,135.902V49.283h12.47v37.123h12.278V49.283h12.471v86.619H79.256V98.781H66.979v37.121H54.508z"/>
		<path fill="#C1DAE8" d="M99.055,135.902V49.283h24.845v0.097c3.351,0,6.251,1.193,8.701,3.577
			c2.449,2.385,3.674,5.285,3.674,8.701v37.123c0,1.74-0.613,3.223-1.836,4.445c-1.225,1.16-2.707,1.741-4.447,1.741
			c1.74,0,3.222,0.612,4.447,1.836c1.224,1.226,1.836,2.675,1.836,4.351v24.748h-12.471v-19.721
			c-0.258-1.223-0.838-2.286-1.739-3.189c-1.226-1.226-2.707-1.838-4.447-1.838h-6.09v24.748H99.055z M117.616,98.781
			c1.74,0,3.222-0.581,4.447-1.74c0.901-0.902,1.481-1.965,1.739-3.191V66.686c-0.258-1.224-0.838-2.288-1.739-3.191
			c-1.226-1.224-2.707-1.836-4.447-1.836h-6.09v37.123H117.616z"/>
		<path fill="#C1DAE8" d="M143.602,135.902V49.283h24.846v12.375h-12.375v24.748h12.375v12.375h-12.375v24.748h12.375v12.373
			H143.602z"/>
		<path fill="#C1DAE8" d="M175.775,135.902V61.658c0-3.416,1.192-6.316,3.577-8.701c2.449-2.384,5.38-3.577,8.797-3.577v-0.097
			h12.471v0.097c3.351,0,6.25,1.193,8.701,3.577c2.448,2.385,3.674,5.285,3.674,8.701v74.244h-12.471v-12.373h-12.277v12.373
			H175.775z M200.523,111.154V66.686c-0.258-1.224-0.838-2.288-1.74-3.191c-1.225-1.224-2.707-1.836-4.447-1.836
			c-1.74,0-3.224,0.613-4.447,1.836c-0.903,0.903-1.45,1.967-1.643,3.191v44.469H200.523z"/>
		<path fill="#C1DAE8" d="M220.322,135.902V49.283h24.845v0.097c3.351,0,6.251,1.193,8.7,3.577c2.448,2.385,3.674,5.285,3.674,8.701
			v61.871c0,3.479-1.226,6.413-3.674,8.796c-2.449,2.386-5.35,3.577-8.7,3.577H220.322z M238.883,123.529
			c1.74,0,3.222-0.58,4.447-1.74c0.902-0.902,1.483-1.966,1.739-3.191V66.686c-0.256-1.224-0.837-2.288-1.739-3.191
			c-1.226-1.224-2.707-1.836-4.447-1.836h-6.09v61.871H238.883z"/>
		<path fill="#C1DAE8" d="M264.869,135.902V49.283h24.846v0.097c3.351,0,6.25,1.193,8.7,3.577c2.447,2.385,3.673,5.285,3.673,8.701
			v24.748c0,1.74-0.612,3.224-1.836,4.447c-1.227,1.161-2.707,1.74-4.447,1.74c1.74,0,3.221,0.613,4.447,1.837
			c1.224,1.225,1.836,2.676,1.836,4.351v24.748c0,3.479-1.226,6.413-3.673,8.796c-2.45,2.386-5.35,3.577-8.7,3.577H264.869z
			 M283.43,86.406c1.74,0,3.223-0.58,4.447-1.741c0.902-0.901,1.482-1.965,1.739-3.19v-14.79c-0.257-1.224-0.837-2.288-1.739-3.191
			c-1.225-1.224-2.707-1.836-4.447-1.836h-6.09v24.748H283.43z M283.43,123.529c1.74,0,3.223-0.58,4.447-1.74
			c0.902-0.902,1.482-1.966,1.739-3.191v-14.79c-0.257-1.224-0.837-2.287-1.739-3.19c-1.225-1.223-2.707-1.836-4.447-1.836h-6.09
			v24.748H283.43z"/>
		<path fill="#C1DAE8" d="M309.416,135.902V49.283h12.471v86.619H309.416z"/>
		<path fill="#C1DAE8" d="M329.215,135.902V49.283h24.845v0.097c3.351,0,6.251,1.193,8.701,3.577
			c2.448,2.385,3.673,5.285,3.673,8.701v37.123c0,1.74-0.613,3.223-1.836,4.445c-1.226,1.16-2.708,1.741-4.447,1.741
			c1.739,0,3.222,0.612,4.447,1.836c1.223,1.226,1.836,2.675,1.836,4.351v24.748h-12.471v-19.721
			c-0.258-1.223-0.838-2.286-1.739-3.189c-1.227-1.226-2.707-1.838-4.448-1.838h-6.09v24.748H329.215z M347.775,98.781
			c1.741,0,3.222-0.581,4.448-1.74c0.901-0.902,1.481-1.965,1.739-3.191V66.686c-0.258-1.224-0.838-2.288-1.739-3.191
			c-1.227-1.224-2.707-1.836-4.448-1.836h-6.09v37.123H347.775z"/>
		<path fill="#C1DAE8" d="M373.762,135.902V49.283h24.846v0.097c3.352,0,6.25,1.193,8.701,3.577
			c2.448,2.385,3.673,5.285,3.673,8.701v61.871c0,3.479-1.225,6.413-3.673,8.796c-2.451,2.386-5.35,3.577-8.701,3.577H373.762z
			 M392.322,123.529c1.741,0,3.223-0.58,4.448-1.74c0.9-0.902,1.48-1.966,1.74-3.191V66.686c-0.26-1.224-0.84-2.288-1.74-3.191
			c-1.226-1.224-2.707-1.836-4.448-1.836h-6.089v61.871H392.322z"/>
	</g>
	<g>
		<path fill="#FFFFFF" d="M21.543,135.11V60.866H9.168V48.492h37.22v12.375H34.013v74.244H21.543z"/>
		<path fill="#FFFFFF" d="M53.716,135.11V48.492h12.471v37.123h12.278V48.492h12.471v86.619H78.464V97.988H66.187v37.123H53.716z"/>
		<path fill="#FFFFFF" d="M98.262,135.11V48.492h24.846v0.097c3.35,0,6.25,1.193,8.7,3.576c2.449,2.385,3.674,5.286,3.674,8.701
			v37.122c0,1.741-0.613,3.224-1.838,4.449c-1.224,1.159-2.706,1.739-4.446,1.739c1.74,0,3.222,0.613,4.446,1.836
			c1.225,1.226,1.838,2.676,1.838,4.352v24.747h-12.472v-19.72c-0.258-1.226-0.838-2.289-1.739-3.191
			c-1.226-1.224-2.708-1.836-4.448-1.836h-6.09v24.747H98.262z M116.824,97.988c1.74,0,3.222-0.579,4.448-1.739
			c0.901-0.902,1.481-1.965,1.739-3.19V65.893c-0.258-1.224-0.838-2.288-1.739-3.19c-1.226-1.224-2.708-1.836-4.448-1.836h-6.09
			v37.122H116.824z"/>
		<path fill="#FFFFFF" d="M142.81,135.11V48.492h24.845v12.375h-12.374v24.749h12.374v12.373h-12.374v24.749h12.374v12.374H142.81z"
			/>
		<path fill="#FFFFFF" d="M174.983,135.11V60.866c0-3.416,1.192-6.316,3.577-8.701c2.449-2.383,5.38-3.576,8.797-3.576v-0.097
			h12.471v0.097c3.35,0,6.25,1.193,8.699,3.576c2.449,2.385,3.675,5.286,3.675,8.701v74.244h-12.471v-12.374h-12.278v12.374H174.983
			z M199.731,110.363v-44.47c-0.258-1.224-0.838-2.288-1.741-3.19c-1.225-1.224-2.707-1.836-4.446-1.836
			c-1.74,0-3.224,0.613-4.447,1.836c-0.903,0.903-1.45,1.967-1.644,3.19v44.47H199.731z"/>
		<path fill="#FFFFFF" d="M219.529,135.11V48.492h24.845v0.097c3.351,0,6.252,1.193,8.701,3.576
			c2.448,2.385,3.675,5.286,3.675,8.701v61.87c0,3.48-1.227,6.415-3.675,8.798c-2.449,2.385-5.351,3.576-8.701,3.576H219.529z
			 M238.092,122.736c1.74,0,3.222-0.58,4.446-1.74c0.902-0.901,1.481-1.964,1.74-3.189V65.893c-0.259-1.224-0.838-2.288-1.74-3.19
			c-1.225-1.224-2.706-1.836-4.446-1.836H232v61.87H238.092z"/>
		<path fill="#FFFFFF" d="M264.077,135.11V48.492h24.844v0.097c3.352,0,6.251,1.193,8.702,3.576
			c2.447,2.385,3.673,5.286,3.673,8.701v24.749c0,1.74-0.612,3.223-1.837,4.447c-1.225,1.16-2.706,1.74-4.446,1.74
			c1.74,0,3.222,0.614,4.446,1.837c1.225,1.225,1.837,2.676,1.837,4.349v24.749c0,3.48-1.226,6.415-3.673,8.798
			c-2.451,2.385-5.351,3.576-8.702,3.576H264.077z M282.64,85.615c1.739,0,3.222-0.581,4.445-1.741
			c0.902-0.901,1.483-1.965,1.74-3.189V65.893c-0.257-1.224-0.838-2.288-1.74-3.19c-1.224-1.224-2.706-1.836-4.445-1.836h-6.092
			v24.749H282.64z M282.64,122.736c1.739,0,3.222-0.58,4.445-1.74c0.902-0.901,1.483-1.964,1.74-3.189v-14.792
			c-0.257-1.223-0.838-2.287-1.74-3.189c-1.224-1.224-2.706-1.837-4.445-1.837h-6.092v24.749H282.64z"/>
		<path fill="#FFFFFF" d="M308.624,135.11V48.492h12.472v86.619H308.624z"/>
		<path fill="#FFFFFF" d="M328.422,135.11V48.492h24.846v0.097c3.351,0,6.251,1.193,8.7,3.576c2.449,2.385,3.676,5.286,3.676,8.701
			v37.122c0,1.741-0.614,3.224-1.839,4.449c-1.224,1.159-2.706,1.739-4.445,1.739c1.739,0,3.222,0.613,4.445,1.836
			c1.225,1.226,1.839,2.676,1.839,4.352v24.747h-12.472v-19.72c-0.259-1.226-0.84-2.289-1.741-3.191
			c-1.225-1.224-2.705-1.836-4.446-1.836h-6.092v24.747H328.422z M346.984,97.988c1.741,0,3.222-0.579,4.446-1.739
			c0.901-0.902,1.482-1.965,1.741-3.19V65.893c-0.259-1.224-0.84-2.288-1.741-3.19c-1.225-1.224-2.705-1.836-4.446-1.836h-6.092
			v37.122H346.984z"/>
		<path fill="#FFFFFF" d="M372.97,135.11V48.492h24.845v0.097c3.351,0,6.251,1.193,8.701,3.576c2.448,2.385,3.674,5.286,3.674,8.701
			v61.87c0,3.48-1.226,6.415-3.674,8.798c-2.45,2.385-5.351,3.576-8.701,3.576H372.97z M391.531,122.736
			c1.74,0,3.222-0.58,4.447-1.74c0.901-0.901,1.482-1.964,1.74-3.189V65.893c-0.258-1.224-0.839-2.288-1.74-3.19
			c-1.226-1.224-2.707-1.836-4.447-1.836h-6.09v61.87H391.531z"/>
	</g>
	<g>
		<path fill="#2A88C9" d="M20.75,134.319V60.074H8.376V47.7h37.219v12.375H33.222v74.245H20.75z"/>
		<path fill="#2A88C9" d="M52.924,134.319V47.7h12.471v37.123h12.277V47.7h12.471v86.62H77.672V97.197H65.395v37.122H52.924z"/>
		<path fill="#2A88C9" d="M97.47,134.319V47.7h24.846v0.096c3.35,0,6.25,1.195,8.701,3.577c2.449,2.385,3.673,5.286,3.673,8.701
			v37.123c0,1.74-0.613,3.223-1.836,4.446c-1.225,1.16-2.707,1.739-4.447,1.739c1.74,0,3.222,0.614,4.447,1.838
			c1.224,1.225,1.836,2.675,1.836,4.351v24.748h-12.47v-19.722c-0.258-1.224-0.838-2.287-1.74-3.19
			c-1.226-1.224-2.707-1.836-4.448-1.836h-6.09v24.748H97.47z M116.032,97.197c1.741,0,3.222-0.581,4.448-1.741
			c0.901-0.902,1.481-1.965,1.74-3.19V65.102c-0.258-1.224-0.838-2.288-1.74-3.19c-1.226-1.224-2.707-1.837-4.448-1.837h-6.09
			v37.123H116.032z"/>
		<path fill="#2A88C9" d="M142.018,134.319V47.7h24.845v12.375h-12.375v24.748h12.375v12.375h-12.375v24.747h12.375v12.375H142.018z
			"/>
		<path fill="#2A88C9" d="M174.191,134.319V60.074c0-3.415,1.192-6.316,3.577-8.701c2.448-2.382,5.38-3.577,8.797-3.577V47.7h12.471
			v0.096c3.35,0,6.25,1.195,8.701,3.577c2.449,2.385,3.673,5.286,3.673,8.701v74.245h-12.471v-12.375h-12.278v12.375H174.191z
			 M198.939,109.571v-44.47c-0.258-1.224-0.839-2.288-1.741-3.19c-1.225-1.224-2.707-1.837-4.447-1.837s-3.224,0.613-4.447,1.837
			c-0.903,0.903-1.45,1.967-1.644,3.19v44.47H198.939z"/>
		<path fill="#2A88C9" d="M218.738,134.319V47.7h24.845v0.096c3.351,0,6.25,1.195,8.7,3.577c2.449,2.385,3.673,5.286,3.673,8.701
			v61.87c0,3.48-1.224,6.414-3.673,8.798c-2.45,2.386-5.35,3.577-8.7,3.577H218.738z M237.299,121.944
			c1.741,0,3.222-0.578,4.448-1.739c0.902-0.902,1.48-1.967,1.739-3.19V65.102c-0.259-1.224-0.837-2.288-1.739-3.19
			c-1.227-1.224-2.707-1.837-4.448-1.837h-6.09v61.87H237.299z"/>
		<path fill="#2A88C9" d="M263.285,134.319V47.7h24.845v0.096c3.352,0,6.25,1.195,8.7,3.577c2.449,2.385,3.674,5.286,3.674,8.701
			v24.748c0,1.741-0.613,3.224-1.836,4.448c-1.227,1.16-2.709,1.74-4.448,1.74c1.739,0,3.222,0.613,4.448,1.836
			c1.223,1.226,1.836,2.675,1.836,4.352v24.747c0,3.48-1.225,6.414-3.674,8.798c-2.45,2.386-5.349,3.577-8.7,3.577H263.285z
			 M281.847,84.822c1.74,0,3.221-0.58,4.446-1.74c0.903-0.901,1.481-1.965,1.74-3.19v-14.79c-0.259-1.224-0.837-2.288-1.74-3.19
			c-1.226-1.224-2.706-1.837-4.446-1.837h-6.091v24.748H281.847z M281.847,121.944c1.74,0,3.221-0.578,4.446-1.739
			c0.903-0.902,1.481-1.967,1.74-3.19v-14.791c-0.259-1.223-0.837-2.287-1.74-3.19c-1.226-1.223-2.706-1.836-4.446-1.836h-6.091
			v24.747H281.847z"/>
		<path fill="#2A88C9" d="M307.832,134.319V47.7h12.471v86.62H307.832z"/>
		<path fill="#2A88C9" d="M327.632,134.319V47.7h24.845v0.096c3.35,0,6.25,1.195,8.699,3.577c2.45,2.385,3.674,5.286,3.674,8.701
			v37.123c0,1.74-0.613,3.223-1.836,4.446c-1.226,1.16-2.708,1.739-4.447,1.739c1.739,0,3.222,0.614,4.447,1.838
			c1.223,1.225,1.836,2.675,1.836,4.351v24.748h-12.472v-19.722c-0.257-1.224-0.837-2.287-1.739-3.19
			c-1.225-1.224-2.706-1.836-4.446-1.836h-6.091v24.748H327.632z M346.192,97.197c1.74,0,3.222-0.581,4.446-1.741
			c0.902-0.902,1.482-1.965,1.739-3.19V65.102c-0.257-1.224-0.837-2.288-1.739-3.19c-1.225-1.224-2.706-1.837-4.446-1.837h-6.091
			v37.123H346.192z"/>
		<path fill="#2A88C9" d="M372.179,134.319V47.7h24.845v0.096c3.35,0,6.251,1.195,8.699,3.577c2.45,2.385,3.676,5.286,3.676,8.701
			v61.87c0,3.48-1.226,6.414-3.676,8.798c-2.448,2.386-5.35,3.577-8.699,3.577H372.179z M390.739,121.944
			c1.74,0,3.222-0.578,4.446-1.739c0.902-0.902,1.482-1.967,1.74-3.19V65.102c-0.258-1.224-0.838-2.288-1.74-3.19
			c-1.225-1.224-2.706-1.837-4.446-1.837h-6.092v61.87H390.739z"/>
	</g>
</g>
<g>
</g>
<g>
</g>
<g>
</g>
<g>
</g>
<g>
</g>
<g>
</g>
</svg>
