<?xml version="1.0" encoding="utf-8"?>
<!-- Generator: Adobe Illustrator 16.0.0, SVG Export Plug-In . SVG Version: 6.00 Build 0)  -->
<!DOCTYPE svg PUBLIC "-//W3C//DTD SVG 1.1//EN" "http://www.w3.org/Graphics/SVG/1.1/DTD/svg11.dtd">
<svg version="1.1" id="Layer_1" xmlns="http://www.w3.org/2000/svg" xmlns:xlink="http://www.w3.org/1999/xlink" x="0px" y="0px"
	 width="199px" height="25px" viewBox="0 0 199 25" enable-background="new 0 0 199 25" xml:space="preserve">
<path fill="#20282B" d="M3.402,17.4c-2.76,0-3.913-2.088-3.192-5.497l0.912-4.272C1.554,5.592,2.273,4.92,3.714,4.92H4.29
	c1.512,0,2.904,0.624,2.448,2.712l-0.816,3.601c-0.264,1.008,0.048,1.68,0.888,1.68c0.48,0,0.744-0.144,1.08-0.456l1.032-4.825
	c0.432-2.04,1.152-2.712,2.592-2.712h0.576c1.512,0,2.904,0.624,2.448,2.712l-1.272,5.953c-0.336,1.513-0.096,2.112,0.648,2.448
	c0.048,0.048-0.48,1.367-2.856,1.367c-2.064,0-3.072-1.008-3.24-2.471C6.738,16.441,5.394,17.4,3.402,17.4z"/>
<path fill="#20282B" d="M26.25,4.729c2.232,0,3.504,1.464,3.504,3.696c0,0.84-0.216,1.776-0.672,3.384
	c-0.312,1.128-0.552,2.064-0.552,2.544c0,0.72,0.312,1.056,0.912,1.224c0.072,0.024-0.528,1.823-3.288,1.823
	c-2.353,0-3.265-1.031-3.265-2.543c0-0.721,0.12-1.272,0.528-2.712c0.264-0.96,0.408-1.608,0.408-1.92
	c0-0.624-0.336-1.008-0.984-1.008c-0.48,0-0.744,0.144-1.08,0.456l-1.032,4.824c-0.432,2.04-1.152,2.712-2.592,2.712h-0.576
	c-1.512,0-2.904-0.624-2.448-2.712l1.944-9.193c0.024-0.12,0.744-0.384,1.656-0.384c1.368,0,2.688,0.696,2.976,2.472
	C22.818,5.784,24.162,4.729,26.25,4.729z"/>
<path fill="#20282B" d="M48.858,4.729c2.136,0,3.384,1.608,3.384,3.696c0,0.84-0.216,1.776-0.672,3.384
	c-0.312,1.128-0.552,2.064-0.552,2.544c0,0.72,0.312,1.056,0.912,1.224c0.072,0.024-0.528,1.823-3.288,1.823
	c-2.353,0-3.265-1.031-3.265-2.543c0-0.721,0.12-1.272,0.528-2.712c0.264-0.96,0.408-1.608,0.408-1.92
	c0-0.624-0.336-1.008-0.864-1.008c-0.264,0-0.6,0.12-0.912,0.432c0-0.024-1.032,4.848-1.032,4.848
	c-0.432,2.04-1.152,2.712-2.592,2.712h-0.576c-1.512,0-2.904-0.624-2.448-2.712l0.816-3.84c0.168-0.84-0.12-1.44-0.72-1.44
	c-0.36,0-0.624,0.12-0.936,0.336l-1.056,4.944c-0.432,2.04-1.152,2.712-2.592,2.712h-0.576c-1.512,0-2.904-0.624-2.448-2.712
	l1.944-9.193c0.024-0.12,0.744-0.384,1.656-0.384c1.368,0,2.688,0.696,2.976,2.472c1.128-1.608,2.448-2.664,4.417-2.664
	c1.608,0,2.928,0.96,3.289,2.544C45.69,5.736,47.01,4.729,48.858,4.729z"/>
<path fill="#20282B" d="M57.425,17.377c-2.592,0-4.248-1.896-4.248-4.729c0-4.032,2.568-7.92,6.384-7.92
	c1.416,0,2.904,0.648,3.577,2.088c0.768-1.344,1.92-1.896,3.648-1.896c1.08,0,1.944,0.456,1.896,0.672l-1.705,7.993
	c-0.336,1.513-0.096,2.112,0.648,2.448c0.048,0.048-0.48,1.367-2.856,1.367c-2.088,0-3.072-1.008-3.24-2.495
	C60.761,16.32,59.297,17.377,57.425,17.377z M60.689,8.953c-1.296,0-2.136,1.224-2.136,2.664c0,0.816,0.504,1.439,1.368,1.439
	c0.912,0,1.68-0.576,1.944-1.824l0.288-1.32C61.865,9.361,61.458,8.953,60.689,8.953z"/>
<path fill="#20282B" d="M70.264,12.625l0.72-3.432h-0.048c-1.176,0-1.896-0.624-1.896-1.512c0-0.432,0.192-1.536,0.744-2.088
	c0.36-0.36,0.768-0.552,1.896-0.552h0.192l0.024-0.12c0.48-2.4,1.536-3.48,4.033-3.48c1.248,0,2.112,0.456,2.064,0.672l-0.624,2.928
	h0.84c1.296,0,1.992,0.624,1.992,1.512c0,0.432-0.192,1.536-0.744,2.088c-0.36,0.36-0.768,0.552-1.896,0.552h-1.176l-0.672,3.144
	c-0.144,0.648,0.192,1.008,0.672,1.008c0.456,0,0.912-0.192,1.272-0.479c0.12-0.096,0.768,0.384,0.768,1.416
	c0,0.816-0.312,1.488-0.864,2.039c-0.744,0.744-1.848,1.129-3.288,1.129C70.912,17.449,69.64,15.577,70.264,12.625z"/>
<path fill="#20282B" d="M79.548,11.929c0-3.936,3.048-7.2,6.96-7.2c2.136,0,3.577,0.6,4.44,1.464c0.552,0.552,0.816,1.2,0.816,1.824
	c0,2.64-3.336,2.712-3.384,2.496c-0.168-0.816-0.648-1.464-1.752-1.464c-1.272,0-2.088,1.128-2.088,2.4
	c0,0.912,0.552,1.632,1.704,1.632c0.696,0,1.368-0.312,1.8-1.056c0.096-0.144,2.424,0.312,2.424,2.161
	c0,0.695-0.312,1.344-0.864,1.896c-0.816,0.815-2.136,1.319-3.841,1.319C81.925,17.4,79.548,15.409,79.548,11.929z"/>
<path fill="#20282B" d="M99.349,14.857c0-0.721,0.12-1.272,0.528-2.712c0.264-0.96,0.408-1.608,0.408-1.92
	c0-0.624-0.336-1.008-0.984-1.008c-0.48,0-0.744,0.144-1.08,0.456l-1.032,4.824c-0.432,2.04-1.152,2.712-2.592,2.712h-0.576
	c-1.512,0-2.88-0.624-2.448-2.712l2.496-11.785C94.501,0.672,95.221,0,96.661,0h0.576c1.512,0,2.904,0.624,2.448,2.712l-0.936,4.369
	c0.888-1.368,2.328-2.352,4.081-2.352c2.111,0,3.384,1.464,3.384,3.696c0,0.84-0.216,1.776-0.672,3.384
	c-0.312,1.128-0.554,2.064-0.554,2.544c0,0.72,0.312,1.056,0.912,1.224c0.072,0.024-0.526,1.823-3.287,1.823
	C100.262,17.4,99.349,16.369,99.349,14.857z"/>
<path fill="#20282B" d="M113.677,13.753c1.272,0,2.376-0.576,2.952-1.32c0.023-0.024,2.186,0.216,2.186,1.92
	c0,0.647-0.289,1.199-0.816,1.728c-0.696,0.696-2.208,1.319-4.393,1.319c-4.561,0-6.504-2.303-6.504-5.399
	c0-4.44,3.407-7.272,7.561-7.272c3.504,0,5.305,1.584,5.305,3.864c0,2.328-1.561,3.96-6.865,3.96c-0.479,0-0.982,0-1.512-0.024
	C111.805,13.32,112.523,13.753,113.677,13.753z M112.621,9.889c2.111,0,2.928-0.336,2.928-1.008c0-0.408-0.384-0.792-1.128-0.792
	c-1.08,0-1.92,0.768-2.424,1.8C112.213,9.889,112.43,9.889,112.621,9.889z"/>
<path fill="#20282B" d="M125.076,17.377c-2.641,0-4.488-1.92-4.488-4.993c0-3.912,2.279-7.656,5.977-7.656
	c1.367,0,2.832,0.576,3.625,1.8l0.814-3.816C131.438,0.672,132.156,0,133.598,0h0.575c1.513,0,2.904,0.624,2.448,2.712
	l-2.305,10.873c-0.359,1.536-0.096,2.112,0.647,2.448c0.048,0.048-0.479,1.367-2.856,1.367c-2.063,0-3.023-1.008-3.215-2.471
	C128.195,16.345,126.852,17.377,125.076,17.377z M127.908,8.953c-1.32,0-1.969,1.2-1.969,2.568c0,0.888,0.455,1.536,1.439,1.536
	c0.792,0,1.561-0.576,1.824-1.824l0.288-1.32C129.204,9.361,128.771,8.953,127.908,8.953z"/>
<path fill="#20282B" d="M136.404,15.77c-0.48-0.48-0.793-1.057-0.793-1.705c0-1.416,1.369-2.159,1.488-2.04
	c0.961,0.912,2.592,1.776,3.769,1.776c0.407,0,0.552-0.096,0.552-0.384c0-0.216-0.336-0.408-0.84-0.624
	c-1.632-0.72-3.336-1.536-3.336-3.84c0-2.232,1.729-4.152,5.354-4.152c2.135,0,3.937,0.624,4.967,1.656
	c0.36,0.36,0.602,0.84,0.602,1.464c0,1.68-1.607,2.4-1.704,2.304c-0.888-0.96-2.16-1.872-3.407-1.872
	c-0.434,0-0.673,0.168-0.673,0.408c0,0.264,0.527,0.48,1.224,0.768c1.97,0.816,3.648,1.704,3.648,3.768
	c0,2.354-1.85,4.033-5.568,4.033C139.068,17.33,137.292,16.657,136.404,15.77z"/>
<path fill="#20282B" d="M149.887,12.625l0.721-3.432h-0.049c-1.177,0-1.896-0.624-1.896-1.512c0-0.432,0.19-1.536,0.744-2.088
	c0.358-0.36,0.768-0.552,1.896-0.552h0.192l0.024-0.12c0.479-2.4,1.535-3.48,4.031-3.48c1.248,0,2.112,0.456,2.064,0.672
	l-0.625,2.928h0.841c1.296,0,1.992,0.624,1.992,1.512c0,0.432-0.192,1.536-0.744,2.088c-0.36,0.36-0.769,0.552-1.896,0.552h-1.177
	l-0.672,3.144c-0.146,0.648,0.19,1.008,0.672,1.008c0.456,0,0.912-0.192,1.271-0.479c0.121-0.096,0.77,0.384,0.77,1.416
	c0,0.816-0.312,1.488-0.863,2.039c-0.744,0.744-1.849,1.129-3.289,1.129C150.534,17.449,149.262,15.577,149.887,12.625z"/>
<path fill="#20282B" d="M159.51,21.001c-0.48-0.479-0.695-1.08-0.695-1.849c0-0.936,0.672-1.823,0.721-1.799
	c0.238,0.168,0.792,0.336,1.296,0.336c0.84,0,1.464-0.289,2.185-1.345l0.191-0.288c-0.553-0.191-0.938-0.672-1.057-1.512
	l-0.721-5.112c-0.24-1.776-0.888-2.232-1.656-2.4c-0.119-0.024,0.554-2.304,3.312-2.304c1.992,0,3.168,1.272,3.336,4.224
	l0.098,1.944l3.407-6.145c0.048-0.072,3.841,0.312,3.841,2.712c0,0.84-0.289,1.417-1.009,2.521l-5.399,8.449
	c-1.152,1.801-2.568,3.457-4.992,3.457C161.046,21.891,160.086,21.578,159.51,21.001z"/>
<path fill="#20282B" d="M174.27,13.345l2.256-10.633C176.958,0.672,177.678,0,179.118,0h0.575c1.513,0,2.904,0.624,2.449,2.712
	l-2.306,10.873c-0.336,1.513-0.096,2.112,0.647,2.448c0.049,0.048-0.479,1.367-2.977,1.367
	C174.391,17.4,173.812,15.529,174.27,13.345z"/>
<path fill="#20282B" d="M188.598,13.753c1.272,0,2.377-0.576,2.952-1.32c0.024-0.024,2.185,0.216,2.185,1.92
	c0,0.647-0.287,1.199-0.815,1.728c-0.696,0.696-2.208,1.319-4.394,1.319c-4.561,0-6.504-2.303-6.504-5.399
	c0-4.44,3.408-7.272,7.562-7.272c3.504,0,5.306,1.584,5.306,3.864c0,2.328-1.562,3.96-6.865,3.96c-0.479,0-0.984,0-1.512-0.024
	C186.727,13.32,187.445,13.753,188.598,13.753z M187.542,9.889c2.112,0,2.929-0.336,2.929-1.008c0-0.408-0.385-0.792-1.129-0.792
	c-1.08,0-1.92,0.768-2.424,1.8C187.134,9.889,187.35,9.889,187.542,9.889z"/>
</svg>
