<svg width="867" height="1435" viewBox="0 0 867 1435" fill="none" xmlns="http://www.w3.org/2000/svg">
<path d="M866 1434L866 2.37183L541.936 538.204L541.936 897.62M866 1434L542.435 898.444L324.73 898.444L0.999937 1433.45M866 1434L0.999937 1433.45M0.999937 1433.45L1 1.27433M766.62 1269.38L766.62 166.441M704.3 1166.22L704.3 269.602M661.591 1095.71L661.591 340.114M630.515 1044.4L630.515 391.419M606.916 1005.17L606.916 430.652M588.302 974.441L588.302 461.383M573.346 949.749L573.346 486.075M561.048 929.172L561.048 506.652M550.745 912.161L550.745 523.663M541.936 574.147L866 145.041M541.936 610.086L866 288.258M541.936 646.029L866 431.477M541.936 681.971L866 574.695M541.936 717.913L866 717.914M541.936 753.853L866 861.129M541.936 789.796L866 1004.35M541.936 825.738L866 1147.57M541.936 861.68L866 1290.78M1 1.27433L866 1L866 2.64617M1 1.27433L325.062 537.656L325.062 897.072M324.565 536.01L542.268 536.01M767.451 165.069L99.3817 165.069M704.965 267.956L161.702 267.956M662.255 338.466L204.579 338.466M631.012 389.774L235.655 389.774M607.413 428.734L259.42 428.734M588.801 459.462L278.032 459.462M573.844 484.154L292.989 484.154M561.38 504.458L305.288 504.458M551.077 521.469L315.756 521.469M346.335 536.01L86.4188 0.999966M368.105 536.01L173.169 0.99997M389.876 536.01L259.917 0.999974M411.646 536.01L346.667 0.999977M433.417 536.01L433.417 0.999981M455.188 536.01L520.166 0.999985M476.958 536.01L606.916 0.999989M498.728 536.01L693.664 0.999992M520.498 536.01L780.414 0.999996M100.379 165.892L100.379 1268.83M162.698 269.053L162.698 1165.67M205.409 339.566L205.409 1095.16M236.485 390.871L236.485 1043.86M260.084 430.104L260.084 1004.62M278.531 460.835L278.531 973.892M293.487 485.527L293.487 949.201M305.952 506.104L305.952 928.899M316.255 523.114L316.255 911.613M325.062 861.129L0.999944 1290.24M325.062 825.189L0.99995 1147.02M325.062 789.247L0.999956 1003.8M325.062 753.305L0.999962 860.581M325.062 717.365L0.999969 717.365M325.062 681.423L0.999975 574.147M325.062 645.48L0.999981 430.928M325.062 609.538L0.999987 287.71M325.062 573.598L0.999994 144.492M99.5485 1269.38L767.618 1269.38M162.034 1166.5L705.131 1166.5M204.744 1095.99L662.421 1095.99M235.821 1044.68L631.345 1044.68M259.585 1005.72L607.58 1005.72M278.199 974.992L588.968 974.992M293.155 950.297L574.01 950.297M305.62 929.996L561.545 929.996M315.923 912.985L551.244 912.985M520.665 898.444L780.58 1433.45M498.895 898.444L693.831 1433.45M477.123 898.444L607.081 1433.45M455.353 898.444L520.333 1433.45M433.583 898.444L433.582 1433.45M411.812 898.444L346.834 1433.45M390.042 898.444L260.084 1433.45M368.272 898.444L173.334 1433.45M346.5 898.444L86.5856 1433.45" stroke="#EA371F" stroke-width="2" stroke-linecap="round" stroke-linejoin="round"/>
</svg>
