<svg width="1996" height="1013" viewBox="0 0 1996 1013" fill="none" xmlns="http://www.w3.org/2000/svg">
<path d="M1995 1L1248.63 380.387H748.512L2.90888 2L1995 1ZM1995 1L1994.24 1012M1249.78 378.804V634.003M1994.24 1012H1.38178M1994.24 1012L1247.87 633.615H747.749M1765.94 118.039H231.209M1622.39 190.805H374.756M1524.27 240.675H472.873M1452.88 276.96H544.263M1398.29 304.514H598.856M1355.53 326.248H641.617M1321.17 343.712H675.975M1292.54 358.071H704.608M1268.87 370.102H728.278M798.526 380.387L201.431 2M848.535 380.387L400.716 2M898.549 380.387L600.002 2M948.562 380.387L799.289 2M998.575 380.387V2M1048.58 380.387L1197.86 2M1098.6 380.387L1397.14 2M1148.61 380.387L1596.43 2M1198.62 380.387L1795.72 2M1.38178 1012L745.46 634.195V379.999M1.38178 1012L1 2H3.29062M229.3 117.068V897.127M372.465 190.029V824.359M470.58 239.899V774.296M541.974 276.379V738.01M596.186 303.934V710.261M638.944 325.666V688.529M673.302 343.13V671.065M701.555 357.683V656.705M725.226 369.714V644.481M745.46 608.776L1 912.263M745.46 583.357L1 810.97M745.46 557.937L1 709.68M745.46 532.518L1 608.388M745.46 507.096H1M745.46 481.677L1 405.806M745.46 456.258L1 304.514M745.46 430.838L1 203.224M745.46 405.419L1 101.933M230.446 895.962H1765.17M373.993 823.196H1621.63M472.11 773.325H1523.51M543.5 737.04H1452.12M598.092 709.486H1397.53M640.854 687.947H1354.77M675.212 670.483H1320.41M703.845 655.929H1292.16M727.515 643.898H1268.11M1197.86 633.615L1794.95 1012M1147.85 633.615L1595.67 1012M1097.83 633.615L1396.38 1012M1047.82 633.615L1197.09 1012M997.812 633.615V1012M947.799 633.615L798.526 1012M897.785 633.615L599.239 1012M847.772 633.615L399.953 1012M797.763 633.615L200.667 1012M1765.94 896.932V116.874M1622.77 823.971V189.835M1524.66 774.103V239.704M1453.27 737.815V275.99M1399.05 710.068V303.739M1356.3 688.334V325.471M1321.93 670.87V342.937M1293.69 656.317V357.49M1270.02 644.286V369.519M1249.78 405.224L1994.24 101.739M1249.78 430.643L1994.24 203.029M1249.78 456.065L1994.24 304.322M1249.78 481.484L1994.24 405.612M1249.78 506.904H1994.24M1249.78 532.323L1994.24 608.194M1249.78 557.742L1994.24 709.486M1249.78 583.162L1994.24 810.778M1249.78 608.583L1994.24 912.068" stroke="#EA371F" stroke-width="2" stroke-linecap="round" stroke-linejoin="round"/>
</svg>
