<svg width="802" height="712" viewBox="0 0 802 712" fill="none" xmlns="http://www.w3.org/2000/svg">
<path d="M659.333 278.028L659.356 278.019C693.894 265.146 735.372 249.685 785.875 208.014C805.167 192.181 806.042 162.944 788.403 145.444L788.389 145.431L659.333 278.028ZM659.333 278.028C658.542 278.324 657.48 278.686 656.176 279.131C636.424 285.874 560.942 311.641 522.208 414.292C521.838 415.268 521.432 416.353 520.988 417.54C506.533 456.183 451.404 603.555 259.792 674.972L659.333 278.028ZM297.984 460.582L297.982 460.584C251.112 507.482 218.241 519.794 182.417 533.212L182.214 533.288L182.208 533.291C147.375 546.367 110.421 560.554 63.576 602.106L20.6435 559.474L20.6431 559.473C7.07079 545.997 7.8981 523.719 22.4523 511.696C71.5964 471.154 111.798 456.175 146.055 443.415C146.749 443.156 147.714 442.83 148.923 442.42C157.987 439.349 180.781 431.626 206.243 413.325C235.22 392.497 267.621 358.081 289.036 301.337C289.399 300.376 289.799 299.302 290.239 298.118C304.087 260.898 357.839 116.425 545.644 46.4541L545.646 46.4532L546.067 46.2963C567.854 38.1731 584.972 31.7905 605.044 16.9287C611.374 12.2465 619.168 9.97774 627.023 10.531C634.872 11.0838 642.267 14.4186 647.877 19.9355C647.881 19.9391 647.884 19.9428 647.888 19.9464L692.637 64.3631C656.029 96.0581 627.659 106.868 597.051 118.403C557.17 133.355 514.993 149.211 458.288 205.945C401.583 262.678 385.715 304.825 370.762 344.697L370.76 344.701L370.727 344.789C357.28 380.695 344.95 413.617 297.984 460.582ZM738.424 109.896L781.31 152.494L781.324 152.508L781.342 152.526L781.36 152.543C794.934 166.011 794.088 188.336 779.531 200.284L779.521 200.292L779.51 200.301C730.319 240.89 690.113 255.883 655.841 268.658L655.831 268.661C655.128 268.924 654.149 269.257 652.921 269.675C643.823 272.769 621.048 280.516 595.626 298.796C566.648 319.632 534.254 354.044 512.852 410.761C512.485 411.731 512.082 412.808 511.641 413.987C497.416 452.023 443.658 595.769 256.303 665.6C256.302 665.601 256.301 665.601 256.299 665.602L255.938 665.736C234.123 673.856 217.02 680.223 196.984 695.044L196.982 695.045C190.653 699.729 182.86 701.999 175.005 701.448C167.157 700.897 159.763 697.565 154.151 692.051C154.147 692.047 154.142 692.042 154.138 692.038L109.372 647.568C145.928 615.904 174.282 605.119 204.869 593.582C244.754 578.656 286.843 562.826 343.556 506.128C400.275 449.423 416.157 407.319 431.153 367.391L431.157 367.38L431.161 367.369L431.164 367.361C444.568 331.414 456.866 298.431 503.858 251.507C550.803 204.628 583.706 192.287 619.542 178.845L619.679 178.794L619.682 178.792C654.609 165.676 691.555 151.487 738.424 109.896Z" fill="#6A3213" stroke="black" stroke-width="20"/>
</svg>
