<svg width="99" height="93" viewBox="0 0 99 93" fill="none" xmlns="http://www.w3.org/2000/svg">
<path d="M3 28.4604C3 14.3977 14.3636 3 28.3843 3C41.7842 3 49.4585 14.6703 49.4585 14.6703C49.4585 14.6703 57.2158 3 70.6157 3C84.6364 3 96 14.3977 96 28.4604C96 54.5279 69.9255 77.2309 49.5415 90C29.1575 77.2309 3 54.5279 3 28.4604Z" fill="#DE425E"/>
<path fill-rule="evenodd" clip-rule="evenodd" d="M43.919 6.51102C47.5312 9.53603 49.4558 12.4751 49.4558 12.4751C49.4558 12.4751 51.3938 9.54743 55.0137 6.52864C58.8662 3.31592 64.6238 0 71.978 0C86.9033 0 99 12.1837 99 27.2163C99 55.0815 71.2433 79.3503 49.5442 93C27.8451 79.3503 0 55.0815 0 27.2163C0 12.1837 12.0967 0 27.022 0C34.3627 0 40.0893 3.3038 43.919 6.51102ZM49.5436 83.4563C58.7932 77.2308 68.5759 69.2822 76.336 60.2317C85.3639 49.7025 91 38.4642 91 27.2163C91 16.5478 82.4311 8 71.978 8C67.2788 8 63.3755 10.0447 60.4054 12.4522C58.9404 13.6397 57.8086 14.8342 57.057 15.7159C56.6849 16.1523 56.4169 16.4993 56.2582 16.7128C56.1791 16.8191 56.1281 16.8911 56.1058 16.9229C56.1042 16.9252 56.1027 16.9273 56.1014 16.9292L49.4199 27.023L42.7888 16.897L42.7851 16.8916C42.7634 16.8604 42.7134 16.789 42.6355 16.6834C42.4793 16.4712 42.2148 16.1257 41.8472 15.6908C41.1044 14.8122 39.9847 13.6216 38.533 12.438C35.5924 10.0406 31.7162 8 27.022 8C16.5689 8 8 16.5478 8 27.2163C8 38.4562 13.6506 49.6921 22.7023 60.2248C30.4821 69.2777 40.2857 77.2284 49.5436 83.4563Z" fill="black"/>
</svg>
