<svg width="73" height="71" viewBox="0 0 73 71" fill="none" xmlns="http://www.w3.org/2000/svg">
<path d="M16.8023 15.9309L40.6729 8.47138L64.2653 25.0662L56.9343 53.97L33.1988 61.9323L9.47131 44.8347L16.8023 15.9309Z" fill="#F4E9DD"/>
<path d="M40.6729 8.47138L16.8023 15.9309M40.6729 8.47138L33.2069 36.8724M40.6729 8.47138L64.2653 25.0662M16.8023 15.9309L9.47131 44.8347M16.8023 15.9309L40.8487 33.2127M9.47131 44.8347L33.2069 36.8724M9.47131 44.8347L33.1988 61.9323M33.2069 36.8724L56.9343 53.97M64.2653 25.0662L56.9343 53.97M64.2653 25.0662L40.8487 33.2127M56.9343 53.97L33.1988 61.9323M33.1988 61.9323L40.8487 33.2127" stroke="black" stroke-width="4" stroke-linecap="round" stroke-linejoin="round"/>
</svg>
