<svg width="110" height="70" viewBox="0 0 110 70" fill="none" xmlns="http://www.w3.org/2000/svg">
<path d="M75.6438 20.912L76.4582 24.8829L80.4179 24.0158C81.8649 23.6989 83.3707 23.5312 84.92 23.5312C96.5391 23.5312 106 33.0151 106 44.7655C106 56.5162 96.5391 66 84.92 66H25.08C13.461 66 4 56.5162 4 44.7655C4 33.0151 13.4609 23.5312 25.08 23.5312C26.6293 23.5312 28.1351 23.6989 29.5821 24.0158L33.5418 24.8829L34.3562 20.912C36.3398 11.2401 44.8481 4 55 4C65.1519 4 73.6602 11.2401 75.6438 20.912Z" fill="#F4E9DD" stroke="black" stroke-width="8"/>
</svg>
