<svg width="60" height="61" viewBox="0 0 60 61" fill="none" xmlns="http://www.w3.org/2000/svg">
<path d="M15.108 36.6067L47.6466 4.50074C38.7093 2.78256 28.9989 4.29406 21.5081 6.92572C10.7916 10.6913 4.74861 18.6111 4.07026 23.8784C3.92775 24.985 3.96281 26.0048 4.13928 26.9442L4.43897 28.0995C6.08411 33.0369 11.7897 35.492 15.108 36.6067Z" fill="#F4E9DD"/>
<path d="M47.6489 4.5019L15.1103 36.6079L20.7949 58.5214L53.4012 26.6764L47.6489 4.5019Z" fill="#F4E9DD"/>
<path d="M15.1089 36.6074C11.7906 35.4926 6.08496 33.0376 4.43981 28.1001L10.1066 49.9452C10.5011 51.8329 13.1906 56.1908 20.7934 58.5209L15.1089 36.6074Z" fill="#F4E9DD"/>
<path d="M15.1094 36.6065L47.648 4.50049M15.1094 36.6065C11.791 35.4918 6.08544 33.0367 4.4403 28.0992M15.1094 36.6065L20.7939 58.52M47.648 4.50049C38.7106 2.78232 29.0003 4.29381 21.5095 6.92547C10.793 10.691 4.74994 18.6108 4.07159 23.8782C3.92908 24.9847 3.96414 26.0045 4.14062 26.944L4.4403 28.0992M47.648 4.50049L53.4002 26.675L20.7939 58.52M4.4403 28.0992L10.1071 49.9443C10.5016 51.832 13.1911 56.1899 20.7939 58.52" stroke="black" stroke-width="4" stroke-linecap="round" stroke-linejoin="round"/>
</svg>
