<svg width="40" height="38" viewBox="0 0 40 38" fill="none" xmlns="http://www.w3.org/2000/svg">
<path d="M19.1345 3.49581C19.5196 2.83026 20.4804 2.83026 20.8655 3.49581L25.8976 12.1922C26.0392 12.4369 26.2778 12.6102 26.5543 12.6693L36.38 14.7677C37.132 14.9283 37.4289 15.8422 36.9149 16.4141L30.1992 23.8872C30.0102 24.0975 29.9191 24.378 29.9484 24.6592L30.9889 34.6524C31.0686 35.4172 30.2912 35.982 29.5885 35.6699L20.4059 31.5922C20.1475 31.4775 19.8525 31.4775 19.5941 31.5922L10.4115 35.6699C9.70877 35.982 8.93142 35.4172 9.01106 34.6524L10.0516 24.6592C10.0809 24.378 9.98976 24.0975 9.80078 23.8872L3.08506 16.4141C2.57109 15.8422 2.86801 14.9283 3.62 14.7677L13.4457 12.6693C13.7222 12.6102 13.9608 12.4369 14.1024 12.1922L19.1345 3.49581Z" fill="#FFC500" stroke="black" stroke-width="4"/>
</svg>
