<svg width="104" height="107" viewBox="0 0 104 107" fill="none" xmlns="http://www.w3.org/2000/svg">
<path d="M26.1294 64.2578L83.6112 7.54026C67.8228 4.50498 50.6687 7.17514 37.4357 11.8242C18.5042 18.4763 7.82876 32.4672 6.6304 41.7724C6.37865 43.7271 6.44059 45.5287 6.75235 47.1883L7.28175 49.2291C10.188 57.9515 20.2674 62.2886 26.1294 64.2578Z" fill="#FFC64A"/>
<path d="M83.6136 7.54313L26.1319 64.2607L36.1741 102.973L93.7754 46.716L83.6136 7.54313Z" fill="#FFC64A"/>
<path d="M26.1327 64.2609C20.2706 62.2916 10.1913 57.9545 7.28499 49.2322L17.2958 87.8231C17.9926 91.1579 22.7439 98.8564 36.1749 102.973L26.1327 64.2609Z" fill="#FFC64A"/>
<path d="M26.1302 64.258L83.612 7.54048M26.1302 64.258C20.2682 62.2888 10.1888 57.9517 7.28256 49.2293M26.1302 64.258L36.1724 102.97M83.612 7.54048C67.8236 4.5052 50.6695 7.17536 37.4365 11.8244C18.505 18.4765 7.82957 32.4674 6.63121 41.7726C6.37946 43.7274 6.44139 45.5289 6.75315 47.1885L7.28256 49.2293M83.612 7.54048L93.7738 46.7133L36.1724 102.97M7.28256 49.2293L17.2934 87.8202C17.9902 91.155 22.7415 98.8535 36.1724 102.97" stroke="black" stroke-width="8" stroke-linecap="round" stroke-linejoin="round"/>
</svg>
