<svg width="47" height="44" viewBox="0 0 47 44" fill="none" xmlns="http://www.w3.org/2000/svg">
<g clip-path="url(#clip0_273_1337)">
<path d="M0 12.8126C0 5.73571 5.69476 0 12.7211 0C19.4364 0 23.2823 5.8729 23.2823 5.8729C23.2823 5.8729 27.1698 0 33.885 0C40.9114 0 46.6062 5.73571 46.6062 12.8126C46.6062 25.9307 33.5391 37.3557 23.3239 43.7815C13.1086 37.3557 0 25.9307 0 12.8126Z" fill="#DE425E"/>
<path fill-rule="evenodd" clip-rule="evenodd" d="M20.4953 2.91637C22.312 4.39126 23.2823 5.8729 23.2823 5.8729C23.2823 5.8729 24.2592 4.39705 26.0795 2.92502C27.8905 1.46062 30.5361 0 33.885 0C40.9114 0 46.6062 5.73571 46.6062 12.8126C46.6062 25.9307 33.5391 37.3557 23.3239 43.7815C13.1086 37.3557 0 25.9307 0 12.8126C0 5.73571 5.69476 0 12.7211 0C16.0634 0 18.695 1.45487 20.4953 2.91637ZM23.3236 39.0066C27.6269 36.0975 32.1595 32.4012 35.7591 28.203C39.9909 23.2675 42.6062 18.0293 42.6062 12.8126C42.6062 7.91778 38.6753 4 33.885 4C31.7439 4 29.9568 4.93119 28.5843 6.04379C27.908 6.59195 27.3853 7.14363 27.0386 7.55028C26.8672 7.75138 26.7442 7.91064 26.6723 8.0074C26.6364 8.05558 26.6137 8.08764 26.6044 8.1009L23.2643 13.1469L19.9497 8.08525C19.9407 8.07222 19.9184 8.04041 19.8832 7.99269C19.8124 7.89658 19.6912 7.73806 19.5218 7.53773C19.1793 7.13261 18.6623 6.58288 17.9924 6.03668C16.6339 4.92914 14.8598 4 12.7211 4C7.93087 4 4 7.91778 4 12.8126C4 18.0253 6.62184 23.2622 10.8649 28.1996C14.4737 32.3989 19.0161 36.0963 23.3236 39.0066ZM26.6008 8.10614C26.5992 8.10837 26.5993 8.10828 26.6008 8.10614Z" fill="black"/>
</g>
<defs>
<clipPath id="clip0_273_1337">
<rect width="47" height="44" fill="white"/>
</clipPath>
</defs>
</svg>
