<svg width="60" height="60" viewBox="0 0 60 60" fill="none" xmlns="http://www.w3.org/2000/svg">
<path fill-rule="evenodd" clip-rule="evenodd" d="M49.851 13.1046C52.0661 13.7124 53.8105 15.5034 54.4025 17.7777C55.4783 21.8996 55.4783 30.5 55.4783 30.5C55.4783 30.5 55.4783 39.1001 54.4025 43.2223C53.8105 45.4966 52.0661 47.2876 49.851 47.8957C45.8369 49 29.7391 49 29.7391 49C29.7391 49 13.6414 49 9.62692 47.8957C7.4119 47.2876 5.66749 45.4966 5.07549 43.2223C4 39.1001 4 30.5 4 30.5C4 30.5 4 21.8996 5.07549 17.7777C5.66749 15.5034 7.4119 13.7124 9.62692 13.1046C13.6414 12 29.7391 12 29.7391 12C29.7391 12 45.8369 12 49.851 13.1046ZM24 39.1958C24 39.9812 24.8639 40.4601 25.53 40.0438L38.6432 31.8484C39.2699 31.4567 39.2699 30.544 38.6432 30.1524L25.53 21.9563C24.864 21.54 24 22.0188 24 22.8043V39.1958Z" fill="#F4E9DD"/>
</svg>
