<svg width="60" height="60" viewBox="0 0 60 60" fill="none" xmlns="http://www.w3.org/2000/svg">
<path d="M20.668 51C40.6689 51 51.6067 34.4582 51.6067 20.1146C51.6067 19.6447 51.5971 19.1771 51.5754 18.7113C53.6985 17.1793 55.5442 15.2669 57 13.0909C55.0517 13.955 52.9552 14.5369 50.7556 14.7993C53.0004 13.4556 54.7244 11.3289 55.5376 8.79432C53.4362 10.0382 51.1094 10.942 48.6331 11.4294C46.6481 9.31966 43.8222 8 40.6955 8C34.6898 8 29.8197 12.8616 29.8197 18.854C29.8197 19.706 29.9156 20.5341 30.1012 21.329C21.0647 20.8759 13.051 16.5558 7.68853 9.98822C6.75359 11.5919 6.21529 13.4562 6.21529 15.4438C6.21529 19.2096 8.13521 22.5343 11.0546 24.4798C9.27088 24.4251 7.5951 23.9352 6.12969 23.1216C6.12728 23.1668 6.12728 23.2125 6.12728 23.26C6.12728 28.5176 9.8761 32.9069 14.851 33.9016C13.9378 34.1501 12.9769 34.2837 11.9847 34.2837C11.2842 34.2837 10.6031 34.2139 9.9406 34.0881C11.3246 38.4003 15.3393 41.5391 20.099 41.6276C16.3767 44.5395 11.6881 46.2744 6.59385 46.2744C5.71677 46.2744 4.85115 46.2244 4 46.1239C8.81215 49.2025 14.5261 51 20.668 51Z" fill="#F4E9DD"/>
</svg>
