<svg width="60" height="60" viewBox="0 0 60 60" fill="none" xmlns="http://www.w3.org/2000/svg">
<path d="M5 30.4132C5.00296 42.9166 14.0951 53.5627 26.444 55.5223V37.7586H19.9958V30.4132H26.4517V24.8215C26.1631 22.1719 27.0681 19.5313 28.9213 17.6157C30.7744 15.7002 33.3837 14.7083 36.0414 14.909C37.949 14.9398 39.8518 15.1097 41.7347 15.4173V21.6673H38.522C37.416 21.5224 36.3041 21.8877 35.4994 22.6602C34.6948 23.4328 34.2845 24.5289 34.3842 25.6399V30.4132H41.4272L40.3012 37.7611H34.3842V55.5223C47.7393 53.4117 57.1044 41.2147 55.6948 27.7675C54.2853 14.3203 42.5945 4.33041 29.092 5.03509C15.5895 5.73976 5.00215 16.8923 5 30.4132Z" fill="#F4E9DD"/>
</svg>
