<svg width="60" height="60" viewBox="0 0 60 60" fill="none" xmlns="http://www.w3.org/2000/svg">
<path d="M30.2981 11.2713C36.511 11.2713 37.2876 11.2713 39.8115 11.4655C46.2185 11.6596 49.1308 14.766 49.3249 20.9789C49.5191 23.5028 49.5191 24.0853 49.5191 30.2981C49.5191 36.511 49.5191 37.2876 49.3249 39.6174C49.1308 45.8302 46.0244 48.9366 39.8115 49.1308C37.2876 49.3249 36.7051 49.3249 30.2981 49.3249C24.0853 49.3249 23.3087 49.3249 20.9789 49.1308C14.5719 48.9366 11.6596 45.8302 11.4655 39.6174C11.2713 37.0934 11.2713 36.511 11.2713 30.2981C11.2713 24.0853 11.2713 23.3087 11.4655 20.9789C11.6596 14.766 14.766 11.6596 20.9789 11.4655C23.3087 11.2713 24.0853 11.2713 30.2981 11.2713ZM30.2981 7C23.8911 7 23.1145 7 20.7847 7.19415C12.2421 7.58245 7.58245 12.2421 7.19415 20.7847C7 23.1145 7 23.8911 7 30.2981C7 36.7051 7 37.4817 7.19415 39.8115C7.58245 48.3542 12.2421 53.0138 20.7847 53.4021C23.1145 53.5963 23.8911 53.5963 30.2981 53.5963C36.7051 53.5963 37.4817 53.5963 39.8115 53.4021C48.3542 53.0138 53.0138 48.3542 53.4021 39.8115C53.5963 37.4817 53.5963 36.7051 53.5963 30.2981C53.5963 23.8911 53.5963 23.1145 53.4021 20.7847C53.0138 12.2421 48.3542 7.58245 39.8115 7.19415C37.4817 7 36.7051 7 30.2981 7ZM30.2981 18.2608C23.697 18.2608 18.2608 23.697 18.2608 30.2981C18.2608 36.8993 23.697 42.3355 30.2981 42.3355C36.8993 42.3355 42.3355 36.8993 42.3355 30.2981C42.3355 23.697 36.8993 18.2608 30.2981 18.2608ZM30.2981 38.0642C26.0268 38.0642 22.5321 34.5695 22.5321 30.2981C22.5321 26.0268 26.0268 22.5321 30.2981 22.5321C34.5695 22.5321 38.0642 26.0268 38.0642 30.2981C38.0642 34.5695 34.5695 38.0642 30.2981 38.0642ZM42.7238 15.1543C41.1706 15.1543 40.0057 16.3193 40.0057 17.8725C40.0057 19.4257 41.1706 20.5906 42.7238 20.5906C44.277 20.5906 45.4419 19.4257 45.4419 17.8725C45.4419 16.3193 44.277 15.1543 42.7238 15.1543Z" fill="#F4E9DD"/>
</svg>
