<svg id="2122" viewBox="0 0 1600 1600" xmlns="http://www.w3.org/2000/svg" xmlns:xlink="http://www.w3.org/1999/xlink"><g transform="matrix(1,0,0,1,0,0)"><g id="2122" opacity="1"><g><defs><clipPath id="2122_clipPath" x="-50%" y="-50%" width="200%" height="200%"><path d="M0,1600v-1600h1600v1600z" clip-rule="nonzero"></path></clipPath></defs><g clip-path="url(#2122_clipPath)"><g transform="matrix(0.9991518213376787,0.04117812426033482,-0.04117812426033482,0.9991518213376787,33.62104233812488,-32.26395647841082)"><g id="167421" opacity="1" style="mix-blend-mode:normal"><g><g><path id="167421_fill_path" d="M1600,845.28316h-563.91678l523.89446,208.64641l-33.50721,84.13757l-539.04646,-214.67841l410.27838,410.27851l-64.03847,64.03834l-398.74555,-398.74568l222.91202,517.98409l-83.19034,35.80162l-229.35682,-532.96001v580.21438h-90.56646v-563.91359l-208.64635,523.89434l-84.1376,-33.50709l214.67838,-539.04646l-410.27874,410.27838l-64.03967,-64.03834l398.74403,-398.74568l-517.98307,222.91522l-35.80064,-83.19047l532.97092,-229.36315h-580.22403v-90.56633h563.904l-523.88672,-208.64328l33.50944,-84.14077l539.04607,214.68161l-410.28,-410.27813l64.03999,-64.03968l398.74239,398.74338l-222.91199,-517.97954l83.18721,-35.80064l229.36638,532.97065v-580.23043h90.56646v563.9072l208.64315,-523.88678l84.13757,33.50913l-214.67828,539.04644l410.27826,-410.27941l64.03847,64.03968l-398.74242,398.7453l517.97763,-222.91199l35.8015,83.19044l-532.95988,229.35682h580.22077z" fill-rule="evenodd" fill="#b51f24" fill-opacity="1" style="mix-blend-mode:NORMAL"></path></g></g></g></g></g></g></g></g><animateTransform href="#167421" attributeName="transform" type="rotate" values="0 800 800;0 800 800;90 800 800;90 800 800" dur="10s" repeatCount="indefinite" calcMode="spline" keyTimes="0;0;1;1" keySplines="0 0 0.15 1;0 0 1 1;0.5 0.35 1 1" additive="sum"></animateTransform></svg>