<?xml version="1.0" encoding="utf-8"?>
<!-- Generator: Adobe Illustrator 16.0.0, SVG Export Plug-In . SVG Version: 6.00 Build 0)  -->
<!DOCTYPE svg PUBLIC "-//W3C//DTD SVG 1.1//EN" "http://www.w3.org/Graphics/SVG/1.1/DTD/svg11.dtd">
<svg version="1.1" id="Layer_1" xmlns="http://www.w3.org/2000/svg" xmlns:xlink="http://www.w3.org/1999/xlink" x="0px" y="0px"
	 width="760px" height="220px" viewBox="0 0 760 220" enable-background="new 0 0 760 220" xml:space="preserve">
<g>
	<g>
		<path fill="#010101" d="M737.738,134.619c-2.73,0-4.955,2.226-4.955,4.957c0,2.73,2.225,4.954,4.955,4.954
			c2.732,0,4.957-2.224,4.957-4.954C742.695,136.845,740.47,134.619,737.738,134.619z M737.738,143.812
			c-2.346,0-4.234-1.89-4.234-4.235c0-2.344,1.889-4.236,4.234-4.236s4.238,1.893,4.238,4.236
			C741.976,141.922,740.083,143.812,737.738,143.812z"/>
		<path fill="#010101" d="M739.935,138.284c0-1.025-0.504-1.586-1.797-1.586h-2.199v5.714h0.721v-2.503h1.025l1.705,2.503h0.812
			l-1.705-2.503C739.271,139.775,739.935,139.336,739.935,138.284z M737.58,139.27h-0.92v-1.932h1.277
			c0.613,0,1.279,0.213,1.279,0.946C739.216,139.229,738.365,139.27,737.58,139.27z"/>
	</g>
	<path fill="#010101" d="M194.308,137.835c-10.629,0-15.007-12.09-15.007-20.843c0-11.463,2.502-22.927,5.419-33.973
		c2.709-9.587,6.878-19.383,6.878-29.596c0-9.17-4.168-14.59-13.756-14.59c-28.762,0-54.188,60.234-65.026,82.326
		c-0.625,1.041-1.042,1.876-1.876,2.918c0-1.042-0.208-1.877-0.208-2.918c0-8.753,1.875-17.299,3.752-26.052
		c1.875-8.545,3.751-17.299,3.751-26.053c0-7.712-1.459-18.342-11.254-18.342c-18.759,0-48.562,52.731-57.733,68.154
		c4.793-17.508,10.629-35.224,10.629-53.564c0-13.756-5.002-29.596-21.467-29.596c-7.503,0-20.008,6.253-20.008,14.798
		c0,2.292,1.667,4.585,4.168,4.585c4.793,0,7.92-7.503,14.798-7.503c9.171,0,11.463,11.88,11.463,18.966
		c0,12.922-3.335,26.47-6.461,38.975c-2.292,8.962-8.754,26.677-8.754,35.222c0,3.544,1.668,7.086,5.627,7.086
		c2.501,0,4.586-1.666,6.044-3.542c11.255-13.964,44.394-81.284,60.858-81.492c0.208,0.625,0.417,1.459,0.417,2.084
		c0,10.838-1.876,21.676-3.751,32.306c-1.251,7.92-3.335,15.839-3.335,24.177c0,6.669,1.459,15.214,10.004,15.214
		c9.379,0,14.381-12.713,17.716-19.8c10.212-21.467,21.05-48.77,41.267-62.526c2.501-1.667,5.418-3.334,8.337-3.334
		c2.5,0,3.126,2.709,3.126,4.585c0,3.334-1.042,6.46-1.875,9.587c-4.377,18.758-10.63,37.515-10.63,57.106
		c0,13.549,9.587,25.221,23.552,25.221c3.126,0,8.545-1.042,8.545-5.211C199.518,139.085,197.017,137.835,194.308,137.835z"/>
	<path fill="#010101" d="M284.134,82.186c6.461,0,9.626-4.295,9.626-9.295c0-4.168-2.21-7.968-7-8.167
		c-5.915-0.246-8.833,4.623-8.833,10.667C277.927,79.351,280.382,82.186,284.134,82.186z"/>
	<path fill="#010101" d="M551.478,86.084c6.461,0,10.949-5.317,10.949-11.361c0-4.168-2.291-8.754-7.086-8.754
		c-7.297,0-10.742,7.819-10.742,13.863C544.599,83.793,547.726,86.084,551.478,86.084z"/>
	<path fill="#010101" d="M233.376,83.501c-17.507-0.086-36.361,26.119-36.361,42.377c0,10.212,7.919,18.55,18.341,18.55
		c9.587,0,17.715-5.335,22.509-13.046c3.334,5.626,8.545,9.586,15.214,9.586c7.08,0,13.487-3.725,18.41-9.066
		c2.903,7.451,5.81,11.584,14.246,12.335c15.711,1.399,24.651-16.533,24.651-16.533c3.099,9.261,8.973,16.885,19.598,16.885
		c9.928,0,17.886-4.189,24.959-21.092c10.294,18.131,32.273,26.843,53.312,26.843c32.006,0,51.215-21.046,68.654-38.758
		c-0.256,12.009-2.223,27.541-2.756,35.422c-0.195,2.911,2.086,5.419,5.004,5.419c5,0,6.242-3.472,7.73-8.271
		c3.49-11.258,10.154-36.539,17.906-36.539c7.748,0,0.623,30.012,18.547,30.012c4.568,0,9.754-1.851,15.109-7.325
		c0.564,8.41,3.826,15.479,13.859,16.436c5.117,0.488,9.305-1.477,12.963-4.045c1.027-0.72,1.551-1.243,1.551-1.243
		c0,3.084,2.5,5.585,5.586,5.585c2.879,0,4.98-2.734,6.895-7.243c3.283-7.734,13.961-35.605,23.859-32.096
		c3.547,1.256,3.959,5.209,3.959,7.919c0,9.17-2.969,18.017-2.969,23.645c0,2.709,2.084,5.21,5.002,5.21
		c3.543,0,5.438-2.522,6.668-6.074c8.096-23.345,13.455-32.866,19.645-30.908c8.324,2.634-0.416,37.1,19.803,37.1
		c4.145,0,7.373-1.304,7.287-1.393c-3.842,8.901-4.453,15.496-4.453,24.262c0,13.438,3.316,30.969,12.879,30.969
		c3.543,0,5.627-2.711,6.67-5.837c2.916-10.63,2.725-39.798,2.93-52.095c6.463,2.71,13.549,4.169,20.428,4.169
		c24.684,0,40.42-16.382,40.42-16.382c1.967-1.968,1.967-5.16,0-7.128c-1.969-1.968-4.609-1.999-7.129,0
		c-4.639,3.688-7.656,5.795-7.656,5.795c3.893-10.892,1.621-33.973-21.676-33.973c-9.17,0-18.877,3.752-24.801,10.003l-0.422-8.303
		c-0.174-3.316-2.551-5.694-5.693-5.694c-3.146,0-5.695,2.549-5.695,5.694c0,0,0.395,11.52,0.395,19.548
		c0,8.08-0.193,19.734-10.037,19.734c-16.232,0-1.918-37.101-21.904-37.101c-7.775,0-15.271,6.021-21.207,18.414
		c0.35-8.028-2.229-17.787-9.939-17.787c-6.463,0-12.506,3.752-16.883,8.337c0.834-2.501,2.709-5.996,2.709-9.796
		c0-2.833-2.064-4.316-4.857-4.316c-6.197,0-7.477,13.184-12.859,25.267c-5.379,12.082-12.668,20.701-19.172,19.135
		c-5.064-1.219-5.209-5.627-5.209-9.38c0-8.961,3.959-19.799,3.959-25.843c0-2.917-1.891-5.73-5.002-5.419
		c-5.832,0.582-6.781,10.215-8.99,16.329c-2.209,6.114-4.65,16.999-14.164,16.192c-10.381-0.882-2.271-31.836-19.361-31.836
		c-7.088,0-15.424,12.505-18.758,17.926l0.768-10.33c0,0,12.873-13.573,19.416-25.354c6.865-12.36,11.129-23.513,11.129-39.046
		c0-6.879-1.926-17.601-10.889-17.601c-20.979,0-27.811,46.725-29.906,76.268c-16.537,18.238-41.627,42.531-68.506,42.531
		c-24.178,0-47.845-13.547-47.845-42.31c0-24.385,21.675-50.854,42.933-60.65c1.102-0.606,10.359-5.01,20.268-5.184
		c0.328-0.013,0.654-0.026,0.992-0.026c3.389,0,6.561,0.59,9.33,1.744c0.891,0.356,1.762,0.77,2.611,1.256
		c1.719,0.988,3.264,2.155,4.643,3.465l0.002-0.002c1.717,1.487,5.857,5.686,10.029,2.629c4.205-3.081,0.469-7.812,0.123-8.363
		c-5.137-7.245-14.07-10.937-24.895-11.515c-6.115-0.125-12.098,1.157-15.379,2.017c-0.002,0.005-0.006,0.011-0.012,0.016
		c-30.012,7.711-56.463,34.271-62.942,76.075c-0.758,4.889-0.276,9.272-0.554,12.605c-1.982,11.372-6.14,21.45-16.326,21.45
		c-14.392,0-13.17-16.489-13.17-16.489s13.178-21.555,19.723-33.336c6.866-12.359,12.023-22.667,12.722-38.201
		c0.309-6.872-3.13-17.237-12.092-17.237c-20.979,0-28.117,51.291-30.213,80.833c0,0-0.27,1.927-1.485,4.887
		c-2.792,6.808-12.217,20.085-19.197,18.688c-4.992-0.999-5.539-4.914-5.539-8.666c0-8.962,3.192-21.201,3.192-27.245
		c0-2.918-1.876-5.42-5.002-5.42c-5.171,0-6.44,7.689-9.189,17.638c-2.74,9.915-7.2,21.345-17.696,21.345
		c-7.711,0-9.17-12.087-9.17-17.923c0-3.96,0.944-9.893,1.251-13.84C246.467,95.37,247.16,83.57,233.376,83.501z M506.957,33.41
		c5.936,1.833,3.32,16.717-2.879,30.893c-6.418,14.679-15.982,24.754-15.982,24.754C489.781,75.854,493.792,29.344,506.957,33.41z
		 M338.708,40.153c5.936,1.832,4.193,12.143-2.006,26.318c-6.419,14.679-17.103,32.5-17.103,32.5
		C321.286,85.768,325.542,36.087,338.708,40.153z M217.756,133.591c-7.984,0-10.472-4.288-10.472-8.942
		c0-18.327,21.895-36.163,28.274-29.584C239.747,99.384,234.25,133.591,217.756,133.591z M670.498,186.477
		c-7.592-19.373,0.174-42.237,0.174-42.237C671.718,160.82,670.498,170.419,670.498,186.477z M716.433,121.94
		c-1.279,9.713-11.463,11.881-19.174,11.881c-4.17,0-13.664-2.219-15.916-6.348c-1.5-2.75-1.07-7.494-0.76-9.701
		c1.008-7.092,6.406-13.547,21.887-13.547C712.056,104.226,717.794,111.602,716.433,121.94z"/>
</g>
<rect x="-32.906" y="-28.422" fill="none" width="825.812" height="276.844"/>
</svg>
