<svg xmlns="http://www.w3.org/2000/svg" width="325.958" height="418.657" viewBox="0 0 325.958 418.657"><path fill="#D3EFF0" d="M148.561 250.942s-17.534 14.438-23.465 27.069c.512.22 1.017.467 1.512.754.939.476 1.879 1.225 2.726 2.079 1.037-6.155 7.97-15.455 26.087-29.518l-6.86-.384zM129.623 279.567c-1.529-.347-3.015-.952-4.394-1.845-4.816 9.987 4.411 18.823 21.11 18.822-.381-1.453.529-2.807 1.962-3.794-7.008-.232-21.821-2.027-18.678-13.183zM165.772 252.383s18.491 13.189 25.283 25.377c-.495.257-.983.538-1.456.856-.901.544-1.789 1.354-2.573 2.262-1.461-6.066-9.018-14.863-28.072-27.636l6.818-.859zM186.65 279.625c1.503-.452 2.937-1.158 4.255-2.142 5.496 9.627-3.095 19.082-19.756 20.24.279-1.476-.723-2.766-2.221-3.651 6.98-.718 21.63-3.535 17.722-14.447z"/><path fill="#231F20" d="M171.317 301.538l-28.002-1.317 1.007 111.929 2.394-.214-.602-97.264 21.591-1.743.604 99.007 2.306.159z"/><path opacity=".15" fill="#211F1F" d="M161.701 414.731c-55.599 0-100.672.654-100.672 1.461 0 .81 45.073 1.464 100.672 1.464 55.604 0 100.686-.654 100.686-1.464.001-.806-45.082-1.461-100.686-1.461z"/><path fill="#231F20" d="M175.757 259.198l-1.952 48.718h-31.085l-3.43-50.021"/><path fill="#D3EFF0" d="M139.545 267.929l2.372 37.363 32.66-.612 1.894-36.751-18.566 26.376z"/><path fill="#070507" d="M170.511 412.072s1.971 3.123 6.717 3.123l.131.97s-6.088.481-7.921-2.432l.126 2.224-2.032-.211.638-4.024 2.341.35zM144.75 412.072s-1.971 3.123-6.717 3.123l-.133.97s6.088.481 7.916-2.432l-.119 2.224 2.027-.211-.636-4.024-2.338.35zM147.155 412.15l.568-58.689h-3.741l.243 59.252z"/><path fill="#111714" d="M170.511 412.072l1.34-57.857h-4.319l.483 58.498z"/><path fill="#2E8496" d="M140.259 264.436s-3.77 5.193-.279 10.345c0 0 13.908 15.929 36.491 4.52 0 0 3.3-8.113.624-14.865h-36.836zM144.355 266.091s-28.309-26.521-51.176-1.881l9.152 19.495s16.979-24.766 42.024-17.614z"/><circle fill="#755538" cx="158.565" cy="298.972" r="1.249"/><path fill="#2E8496" d="M249.607 118.647c-2.935 2.887 2.559 7.916 5.617 9.706 6.249 3.657 12.855 3.268 18.018-2.276 10.123-10.87 4.79-24.004-6.417-30.676 7.218-3.353 21.781.448 21.16 10.452 9.999-3.607 25.933.967 22.419 14.64-4.004-3.606-11.641-6.296-17.025-5.663-7.37.867-9.745 6.922-13.32 12.417-3.646 5.605-7.166 12.125-14.18 14.022-7.865 2.127-16.31-2.677-19.676-7.476l3.404-15.146zM32.159 136.534c3.356-1.424 6.841-1.6 9.732-.133 14.307-10.697 29.927-18.98 47.978-21.947 21.575-3.547 42.908-1.855 64.558-.099 22.146 1.796 44.747 3.938 66.013 10.74 10.448 3.342 21.71 7.085 30.98 13.311 1.618.005 3.224.408 4.709 1.304 1.708-6.641 2.615-13.528 2.615-20.593 0-54.082-52.684-97.924-117.673-97.924s-117.673 43.842-117.673 97.924c0 6.4.746 12.653 2.155 18.71 1.325-.643 2.775-1.008 4.243-.948.57.023 1.054.065 1.502.122.276-.178.561-.34.861-.467z"/><path fill="#3C2415" d="M83.291 104.597s-31.914-48.404 58.487-50.404c81.155-1.796 65.427 19.894 58.276 45.94-7.152 26.045-116.763 4.464-116.763 4.464zM250.038 229.743c-.784.521-1.538 1.071-2.279 1.636-5.162-.061-10.307-.157-15.392-.242-17.085-.285-34.112-1.308-51.069-2.967-44.672-5.271-88.318-14.828-131.073-26.438-9.498-11.657-20.101-22.766-19.797-36.623.525-20.748 21.482-48.273 41.915-60.129 19.901-11.594 48.383-17.241 73.536-19.568l-2.152-.092c22.397-14.48 77.412-.664 91.558 19.661 6.811 9.74 8.614 20.793 11.686 31.416 3.253 11.25 1.58 22.641 8.747 33.371 6.811 9.316 15.194 19.055 12.574 30.489-2.607 10.531-12.989 19.388-18.254 29.486z"/><linearGradient id="a" gradientUnits="userSpaceOnUse" x1="140.983" y1="185.599" x2="140.983" y2="252.354"><stop offset="0" stop-color="#3C2415"/><stop offset="1" stop-color="#603913"/></linearGradient><path fill="url(#a)" d="M239.35 216.199c-11.136-7.2-39.347-12-53.452-9.6l-92.646-14.479c-4.196 6.61-11.58 11.073-19.854 11.073-10.683 0-19.885-7.436-22.649-17.335-12.77 4.35-22.777 16.11-14.994 26.856 2.175 3.002 5.365 5.122 8.065 7.758 8.161 7.964-6.801 11.553-7.719 18.554-1.422 10.815 16.578 14.124 26.56 13.174 15.591-1.8 21.53-12.6 36.378-5.999 5.001 1.682 22.438-4.67 28.443-8.23 2.987-1.771-9.141 4.03-4.687 1.03 14.849-9.6 27.469 3.6 41.575 3 18.557-.6 23.757-24.001 42.316-19.2 13.364 3.601 14.848 22.2 28.954 21.6 20.785-.001 13.36-21.601 3.71-28.202z"/><ellipse fill="#3C2415" cx="141.778" cy="156.52" rx="84.749" ry="80.035"/><path fill="#EBC19C" d="M211.458 194.268c-.232-.001 15.211-89.751-55.64-94.177-1.143 1.057-2.532 1.892-4.095 2.412-4.203 1.397-7.79 2.913-12.325 3.024-3.119.076-6.212.566-9.333.333-1.63-.121-3.179-.558-4.553-1.256-45.42 21.013-37.776 106.788-38.572 101.135 0 0-.536 36.548 34.161 51.006 0 0 15.259 22.832 44.495 15.392 29.236-7.44 27.79-21.694 27.79-21.694s27.469-15.284 18.072-56.175z"/><path fill="#3C2415" d="M91.597 188.572s9.268-29.634 36.084-11.135c-.001 0-21.505-8.175-36.084 11.135zM192.064 146.86c.228 3.6 7.009 8.362 9.333 11.316 2.81 3.571 4.381 7.245 5.009 11.766 1.369 9.856-3.569 19.111.399 28.842 1.794 4.399 5.291 10.664 9.992 12.509 8.555 3.357 15.769-5.213 14.624-13.48-2.318-16.731-8.779-37.926-25.948-45.554-.993-.441-1.635-.733-2.742-.733l-10.667-4.666zM91.64 187.106s20.474 23.208-4.701 44.98l-6.233-30.091 1.506-14.116 9.428-.773z"/><path fill="#DACF8C" d="M86.94 131.128"/><path fill="#3C2415" d="M104.985 100.159c-1.047-1.047-38.162 29.774-39.211 28.726-7.333 13.622-29.012 43.149-15.025 56.974 14.163 13.999 20.004 18.16 44.331-1.46 5.027-4.054 12.824-11.747 13.872-19.083.498-2.987.045-6.052-.754-9.058-.157-.339-.303-.686-.431-1.043l-.162-.469-.075-.157c-.248-.529-.498-1.058-.751-1.585-.884-1.858-1.736-3.738-2.491-5.653-1.151-2.92-1.852-6.082-1.691-9.235.087-1.7.543-3.314 1.301-4.729 2.441-17.203 20.427-29.672 41.043-27.477l-39.956-5.751z"/><linearGradient id="b" gradientUnits="userSpaceOnUse" x1="189.916" y1="85.321" x2="189.916" y2="228.117"><stop offset="0" stop-color="#3C2415"/><stop offset=".325" stop-color="#3F2616"/><stop offset=".559" stop-color="#482D19"/><stop offset=".764" stop-color="#58381F"/><stop offset=".952" stop-color="#6E4727"/><stop offset="1" stop-color="#754C29"/></linearGradient><path fill="url(#b)" d="M255.871 205.76c-1.571-19.902-2.097-37.406-12.052-54.343-8.907-14.397-22.004-26.958-34.579-40.508-22.528-24.135-51.344-32.181-85.399-19.901l11.002 6.775c7.107.999 14.392 2.593 21.164 4.9 1.301-.183 2.659-.135 4.006.167 2.723.611 5.228 1.318 7.775 2.518 3.076 1.449 5.143 3.775 7.138 6.431.344.457.609.946.829 1.448 1.07.917 2.072 1.88 3.003 2.885 1.354.487 2.613 1.24 3.464 2.273 3.876 4.699 6.412 10.332 4.939 16.527-.161.678-.401 1.319-.703 1.92.863 8.024 3.428 13.09 11.256 19.787 9.43 7.199 20.434 14.398 22.005 25.407 1.572 9.316-6.811 16.09-6.811 24.559-.524 8.893 9.956 17.361 19.909 20.326 18.338 5.506 24.099-9.314 23.054-21.171z"/><path fill="#3C2415" d="M229.919 150.046c-6.654-7.06-16.636-11.766-22.875-19.162-5.408-6.722-4.161-12.774-2.913-20.506 1.664-13.781-10.398-22.857-27.45-23.866-5.927-.281-29.382 5.578-34.611 11.44.657.429 1.055 1.089 1.341 1.823l.145.36c1.296-.56 3.284-1.662 4.011-1.858 9.15-2.353 18.3-2.353 27.034 1.008 15.805 5.715 20.38 14.119 18.301 26.892-2.079 14.119 3.742 19.497 17.469 27.565 16.219 9.749 27.451 23.195 19.548 39.329-3.329 7.061-11.648 14.791-10.398 22.522.831 5.379 7.069 9.75 11.645 13.447-7.902-11.092 4.992-20.84 8.735-31.263 5.823-15.124 2.081-35.293-9.982-47.731z"/><linearGradient id="c" gradientUnits="userSpaceOnUse" x1="84.459" y1="177.693" x2="84.459" y2="245.957"><stop offset="0" stop-color="#3C2415"/><stop offset="1" stop-color="#603913"/></linearGradient><path fill="url(#c)" d="M142.142 98.817c-9.852-8.499-26.589-14.829-44.187-9.079-19.098 6.658-37.447 18.461-49.43 32.08-10.861 12.107-20.97 28.449-21.72 43.885-.749 17.552 13.481 28.75 25.838 41.461 11.983 12.409 13.044 26.493 15.728 40.253 3.783 19.397 30.065 8.751 30.706-11.198.719-22.422-27.712-33.594-43.813-47.515-17.227-15.133-8.613-27.239 11.608-35.108 8.239-3.329 17.227-6.356 22.845-12.408 6.364-6.659 8.237-15.134 10.857-23.001 4.493-12.409 15.398-30.329 35.245-27 2.995.606 2.576 3.393 5.571 4.301l.752 3.329z"/><path stroke="#603913" stroke-width="2.037" stroke-linecap="round" stroke-linejoin="round" stroke-miterlimit="10" d="M50.696 158.38c-8.16 6.705-16.399 18.76-14.476 28.06 2.711 13.117 19.139 20.455 25.122 32.299 3.619 7.166 7.937 17.743 3.759 25.256-5.426 9.757-21.349 9.497-22.301-2.446-.556-4.5 7.239-13.05 11.693-6.301 2.227 3.601-1.114 7.651-5.011 4.05M144.005 100.116c-8.907-21.173-39.983-6.146-44.7 8.675-2.618 8.469-1.57 16.937-3.666 25.406-3.143 12.28-14.146 13.974-27.244 15.668-28.818 4.234-27.244 30.488-8.907 44.461 17.288 13.127 44.534 26.677 37.199 49.543-3.144 9.74-15.195 20.749-25.15 8.893-11.002-12.28 10.48-11.857 9.43-3.812" fill="none"/><path stroke="#603913" stroke-width="2.265" stroke-linecap="round" stroke-linejoin="round" stroke-miterlimit="10" d="M144.939 105.909c-25.968-6.305-48.876 23.457-40.971 43.409 2.066 5.216 5.8 10.251 4.983 15.997-1.27 8.889-13.178 22.666-24.325 22.563-4.775-.045-11.417-4.168-11.094-8.793.382-5.504 12.284-7.082 12.979-1.006 0 2.5-3.177 3.609-5.399 3.331" fill="none"/><path stroke="#603913" stroke-width="2.037" stroke-linecap="round" stroke-linejoin="round" stroke-miterlimit="10" d="M144.005 100.116c13.194-9.047 26.472-15.193 40.465-2.914 15.593 14.218 5.598 38.13 25.589 50.086 8.795 5.492 20.79 6.462 24.388 16.479 2.399 8.079-1.999 16.156-5.197 23.589-3.598 8.401-2.399 12.278.4 20.357 2.798 8.079-1.999 13.894-11.194 17.126-7.069 2.484-21.448-.758-19.546-8.707.539-2.252 2.414-4.279 5.219-4.908 4.104-.922 10.889.429 11.505 4.47.185 1.206-1.316 2.867-2.838 2.953-2.159.122-2.359-1.88-2.337-3.179M144.005 100.116c12.435-10.492 30.074-15.397 44.543-9.977 11.646 3.993 11.646 14.832 20.468 20.821 9.53 6.561 19.059 8.035 26.118 17.732 6.353 9.413 0 16.781 6.705 25.909 6.706 8.557 22.588 8.272 28.231 17.969 4.944 8.842-2.821 15.117-9.879 21.107-6.706 5.704-16.588 13.121-17.999 21.393-1.059 7.986 9.881 13.69 7.411 21.392-2.47 7.987-19.764 11.41-18.352.286 1.059-10.554 14.117-3.994 9.529-.856-.705.57-3.175.856-4.236.856" fill="none"/><path stroke="#603913" stroke-width="1.199" stroke-linecap="round" stroke-linejoin="round" stroke-miterlimit="10" d="M123.404 90.232c-6.946-5.209-20.618-6.728-28.432-2.822-3.906 1.953-13.239 11.069-6.728 15.192 2.605 1.737 6.511.435 6.945-2.821.651-3.69-3.906-5.427-6.945-6.078-9.767-1.736-17.363 6.946-18.883 16.061-.868 4.992 1.086 10.418 4.992 13.456 3.908 3.038 10.852 3.038 11.069-3.038.218-5.86-6.945-9.115-11.937-9.333-6.293-.217-11.502 3.256-15.41 8.248-5.427 7.161-8.247 19.966 3.69 23.006 3.473.868 6.511-1.086 6.511-4.776.217-4.558-5.21-6.945-9.115-8.031-16.278-4.123-21.052 19.1-9.984 27.782l1.519 1.301" fill="none"/><path stroke="#603913" stroke-width="2.037" stroke-linecap="round" stroke-linejoin="round" stroke-miterlimit="10" d="M144.939 105.909c6.102-5.776 19.321-3.797 24.181-.64 5.346 3.402 8.991 8.99 8.019 15.549-.729 3.888-3.645 9.476-8.505 8.504-3.887-.729-4.374-5.588-2.672-8.746 1.943-3.888 7.288-6.074 11.418-5.345.922.112 1.959.552 2.812.908.883.368 1.717.846 2.457 1.457 3.069 2.533 4.027 6.686 4.705 10.418.847 4.657.199 11.766-4.482 14.408-3.731 2.106-9.325-.775-8.449-5.387.248-1.3 1.082-2.358 2.31-2.868 1.903-.791 4.779-.723 6.195.951.43.509.739 1.212.58 1.88-.151.624-.556 1.216-1.12 1.537-.427.245-1.359.466-1.837.241-1.061-.498-.637-1.58-.029-2.238" fill="none"/><g fill="#CD9C78"><path d="M134.151 201.995s14.97 46.425 30.903 0c-.001 0-15.725 28.094-30.903 0z"/><path opacity=".2" d="M134.151 201.995s15.451 67.706 30.903 0c-.001 0-15.725 28.094-30.903 0z"/></g><circle fill="#2E8496" cx="38.57" cy="76.486" r="18.459"/><circle fill="#2E8496" cx="248.95" cy="76.486" r="18.459"/><path opacity=".1" d="M40.055 71.153c1.34 3.663-.747 7.809-4.662 9.259-3.915 1.451-8.174-.343-9.514-4.006-1.34-3.663 1.111-6.814 5.026-8.264 3.914-1.452 7.81-.653 9.15 3.011z"/><path fill="#FAF6DF" d="M40.117 69.316c1.34 3.663-.747 7.809-4.662 9.259-3.915 1.451-8.174-.343-9.514-4.006-1.34-3.663 1.111-6.814 5.026-8.264 3.914-1.451 7.81-.652 9.15 3.011z"/><path opacity=".1" d="M28.203 77.61c1.945 1.467 4.673 1.92 7.252.964 3.915-1.451 6.002-5.596 4.662-9.259-.183-.5-.415-.945-.687-1.339-.552 8.965-8.238 9.693-11.227 9.634z"/><path fill="#5E5E5E" d="M30.864 71.151c-.333-.91-1.335-1.376-2.239-1.041-.904.335-1.367 1.344-1.034 2.254.333.91 1.335 1.376 2.239 1.041.904-.336 1.367-1.345 1.034-2.254z"/><path fill="#FAF6DF" d="M31.179 70.47c-.187-.512-.752-.775-1.261-.586-.509.189-.77.757-.582 1.269.187.512.752.775 1.261.586.508-.188.769-.757.582-1.269z"/><path opacity=".1" d="M249.542 72.957c-2.07 3.306-.888 7.794 2.64 10.025 3.529 2.231 8.068 1.36 10.138-1.946 2.07-3.306.326-6.896-3.203-9.127-3.528-2.232-7.504-2.258-9.575 1.048z"/><path fill="#FAF6DF" d="M249.862 71.147c-2.07 3.306-.888 7.794 2.64 10.025 3.529 2.231 8.068 1.36 10.138-1.946 2.07-3.306.326-6.896-3.203-9.127-3.528-2.231-7.504-2.258-9.575 1.048z"/><path opacity=".1" d="M259.797 81.732c-2.207 1.032-4.969.909-7.294-.561-3.529-2.231-4.711-6.719-2.64-10.025.283-.451.602-.838.949-1.168-1.319 8.885 6.049 11.192 8.985 11.754z"/><path fill="#5E5E5E" d="M258.534 74.861c.514-.821 1.592-1.069 2.406-.554.815.515 1.058 1.598.544 2.419s-1.591 1.069-2.406.554c-.815-.515-1.059-1.598-.544-2.419z"/><path fill="#FAF6DF" d="M258.367 74.13c.289-.462.896-.602 1.355-.312.459.29.596.9.307 1.362-.29.462-.896.602-1.355.312-.459-.29-.597-.9-.307-1.362z"/><g fill="#FAF6DF"><path d="M41.954 126.45c-2.077-3.147-5.393-4.956-8.727-5.085-.014.84-.152 1.677-.437 2.486-.498 1.411-1.065 2.703-1.73 3.939-.348.82-.81 1.571-1.373 2.241-.267.395-.528.79-.823 1.183-.648.862-1.328 1.717-1.888 2.641-.132.218-.27.523-.374.77l-.062.225c-.228.981-.62 1.884-1.137 2.699.178.253.359.505.56.748 3.912 4.728 10.332 5.841 14.483 2.767 4.153-3.075 4.889-9.492 1.508-14.614zM59.159 116.371c2.809 5.457 1.438 11.731-2.948 14.293-4.386 2.562-10.576.709-13.946-4.42-3.37-5.129-2.2-11.887 2.747-14.778 4.948-2.889 11.338-.552 14.147 4.905zM77.118 108.305c2.211 5.725.22 11.8-4.357 13.851-4.578 2.05-10.478-.489-13.276-5.951-2.798-5.463-.967-12.023 4.197-14.335 5.164-2.314 11.225.709 13.436 6.435zM95.665 102.25c1.595 5.926-.997 11.749-5.724 13.286-4.728 1.538-10.284-1.633-12.484-7.362-2.2-5.73.271-12.037 5.604-13.771 5.332-1.734 11.009 1.921 12.604 7.847zM114.632 98.208c.965 6.061-2.205 11.577-7.039 12.602-4.834 1.025-9.996-2.723-11.58-8.653-1.584-5.929 1.506-11.93 6.959-13.086 5.453-1.156 10.695 3.076 11.66 9.137zM133.851 96.177c.326 6.128-3.394 11.284-8.292 11.796-4.898.513-9.62-3.759-10.573-9.821-.953-6.063 2.728-11.703 8.252-12.281 5.526-.578 10.287 4.178 10.613 10.306zM153.156 96.159c-.315 6.129-4.554 10.869-9.473 10.869-4.919 0-9.16-4.74-9.475-10.869-.314-6.129 3.926-11.354 9.474-11.354 5.55 0 9.789 5.225 9.474 11.354zM172.379 98.152c-.954 6.063-5.674 10.334-10.572 9.821-4.898-.512-8.621-5.668-8.294-11.796.327-6.128 5.089-10.884 10.614-10.306 5.525.578 9.206 6.218 8.252 12.281zM191.352 102.157c-1.584 5.93-6.745 9.677-11.578 8.653-4.834-1.025-8.006-6.541-7.04-12.602.965-6.061 6.209-10.293 11.662-9.137 5.451 1.156 8.54 7.157 6.956 13.086zM209.908 108.174c-2.2 5.729-7.756 8.9-12.483 7.362-4.727-1.538-7.32-7.36-5.725-13.286 1.596-5.926 7.273-9.581 12.606-7.847 5.332 1.735 7.802 8.042 5.602 13.771zM227.88 116.204c-2.797 5.463-8.698 8.001-13.276 5.951-4.578-2.05-6.569-8.125-4.358-13.85 2.212-5.725 8.274-8.748 13.438-6.436 5.165 2.312 6.993 8.872 4.196 14.335zM245.1 126.245c-3.369 5.129-9.559 6.982-13.946 4.419-4.386-2.562-5.757-8.836-2.949-14.293 2.808-5.457 9.201-7.795 14.148-4.904 4.949 2.891 6.117 9.649 2.747 14.778zM258.754 136.601c-.293-1.625-.458-3.259-.802-4.858l-.317-.492c-1.667-2.671-2.942-5.85-2.738-9.058.018-.276.051-.548.087-.819-3.611-.173-7.32 1.663-9.573 5.076-3.38 5.122-2.644 11.54 1.508 14.615 3.72 2.755 9.256 2.139 13.181-1.419-.666-.925-1.149-1.954-1.346-3.045z"/></g><path fill="#2E8496" d="M25.572 137.824s120.049-93.052 234.437 2.158l-7.153-29.289-21.763-38.893-39.029-24.568s-46.333-5.039-47.125-5.789c-.792-.75-41.042 7.328-41.042 5.789 0-1.539-28.5 6.857-28.5 6.857l-12 5.104-26 49.5-6.158 9.25-5.667 19.881z"/><path d="M186.593 229.22c-11.017-.462-21.581 3.221-32.546 4.592-4.893.615-9.543 2.367-14.398 3.257-2.406.44-4.84.606-7.24 1.096-.684.139-5.736 1.323-5.404.829-.393.589-.874 1.118-1.403 1.56 7.144 8.729 19.47 19.069 35.855 14.87 18.24-4.674 23.839-18.086 25.565-26.238l-.429.034z"/><path fill="#fff" d="M118.562 230.016l69.22-7.388s.083 3.605-1.219 8.484l-59.253 11.451c-5.685-6.374-8.748-12.547-8.748-12.547z"/><path fill="#E87583" d="M175.578 248.69c-3.54 2.843-8.097 5.247-13.957 6.75-3.328.853-6.486 1.105-9.468.892 8.246-16.325 18.626-11.31 23.425-7.642z"/><path stroke="#603913" stroke-width="2.037" stroke-linecap="round" stroke-linejoin="round" stroke-miterlimit="10" d="M107.451 195.382s5.284-22.736 19.749 0" fill="none"/><path fill="#3C2415" d="M201.003 179.967s-15.867-26.689-37.68-2.493c0-.001 19.032-12.924 37.68 2.493z"/><path stroke="#603913" stroke-width="2.037" stroke-linecap="round" stroke-linejoin="round" stroke-miterlimit="10" d="M187.152 190.257s-10.396-20.899-19.214 4.565" fill="none"/></svg>