<?xml version="1.0" encoding="utf-8"?>
<!-- Generator: Adobe Illustrator 16.0.0, SVG Export Plug-In . SVG Version: 6.00 Build 0)  -->
<!DOCTYPE svg PUBLIC "-//W3C//DTD SVG 1.1//EN" "http://www.w3.org/Graphics/SVG/1.1/DTD/svg11.dtd">
<svg version="1.1" id="Layer_1" xmlns="http://www.w3.org/2000/svg" xmlns:xlink="http://www.w3.org/1999/xlink" x="0px" y="0px"
	 width="480px" height="500px" viewBox="0 0 480 500" enable-background="new 0 0 480 500" xml:space="preserve">
<g>
	<path fill="#29A8E0" d="M178.218,279.637l-1.993-7.257c-3.504,0.436-11.728,4.646-17.212,8.304
		c-5.827,3.888-12.893,9.827-15.313,16.918c3.806,0.418,7.33,1.465,10.322,2.976c2.3-11.211,22.62-20.401,24.929-21.078
		C178.937,279.504,178.664,279.581,178.218,279.637z"/>
	<path fill="#E9C09B" d="M153.802,302.59c0.004-1.416,0.322-2.806,0.877-4.159c-3.65-0.759-6.944-2.107-9.629-3.875
		c-0.959,1.764-1.664,3.615-1.997,5.539c-1.046,6.04,1.602,11.781,7.87,17.063c6.824,5.752,18.129,10.991,33.6,15.573l4.419-6.754
		C165.598,319.064,153.775,311.195,153.802,302.59z"/>
	<path fill="#29A8E0" d="M298.486,273.461l-9.71,5.102c1.656,3.153,10.069,9.153,16.888,12.778
		c7.246,3.854,17.773,7.985,28.555,7.172c-0.535-3.819-0.095-7.647,1.164-11.17c-16.596,2.744-35.665-12.613-37.311-14.521
		C298.084,272.834,298.275,273.059,298.486,273.461z"/>
	<path fill="#E9C09B" d="M338.305,286.666c-2.012,0.62-4.079,0.929-6.164,0.995c0.006,3.82-0.933,7.561-2.646,10.904
		c2.789,0.139,5.625-0.005,8.456-0.534c8.883-1.663,16.246-6.723,21.887-15.035c6.141-9.052,10.227-22.156,12.144-38.952
		l-10.896-1.244C358.191,268.142,350.527,282.9,338.305,286.666z"/>
	<polygon fill="#414142" points="184.542,309.104 226.126,308.433 222.808,481.933 219.266,481.508 221.313,352.373 
		189.366,348.789 187.232,480.517 183.815,480.639 	"/>
	<path fill="#09080A" d="M183.409,480.591c0,0-3.229,4.76-10.64,4.532l-0.248,1.518c0,0,9.475,1.047,12.479-3.413l-0.302,3.469
		l3.173-0.242l-0.796-6.308L183.409,480.591z"/>
	<polygon fill="#FFFFFF" points="231.28,341.354 180.09,337.498 180.111,341.924 231.121,344.701 	"/>
	<g>
		
			<radialGradient id="SVGID_1_" cx="1326.542" cy="4383.125" r="91.8335" gradientTransform="matrix(-1.9291 0 0 0.0671 2764.3281 193.2913)" gradientUnits="userSpaceOnUse">
			<stop  offset="0" style="stop-color:#010101"/>
			<stop  offset="1" style="stop-color:#FFFFFF;stop-opacity:0"/>
		</radialGradient>
		<path opacity="0.29" fill="url(#SVGID_1_)" d="M28.162,487.398c0-3.404,79.311-6.162,177.136-6.162
			c97.835,0,177.135,2.758,177.135,6.162c0,3.402-79.3,6.163-177.135,6.163C107.473,493.562,28.162,490.801,28.162,487.398z"/>
		
			<radialGradient id="SVGID_2_" cx="2726.3145" cy="4396.875" r="91.8643" gradientTransform="matrix(-1.2207 0 0 0.0671 3544.165 193.2913)" gradientUnits="userSpaceOnUse">
			<stop  offset="0" style="stop-color:#010101"/>
			<stop  offset="1" style="stop-color:#FFFFFF;stop-opacity:0"/>
		</radialGradient>
		<path opacity="0.29" fill="url(#SVGID_2_)" d="M104.056,488.32c0-3.403,50.188-6.165,112.101-6.165
			c61.902,0,112.095,2.762,112.095,6.165c0,3.407-50.192,6.168-112.095,6.168C154.244,494.488,104.056,491.728,104.056,488.32z"/>
	</g>
	<polygon fill="#29A8E0" points="231.121,344.701 234.3,249.416 173.364,249.14 180.111,341.924 	"/>
	<path fill="#09080A" d="M222.915,481.891c0,0,2.907,4.967,10.319,5.194l0.15,1.529c0,0-9.51,0.451-12.228-4.181l0.082,3.467
		l-3.147-0.408l1.184-6.256L222.915,481.891z"/>
	<g>
		<path fill="#BBA992" d="M290.882,154.865c0,0,32.139-126.908-44.784-112.121c0,0-179.765-62.29-124.705,150.773
			c0,0,15.751,66.612,45.073,67.309L290.882,154.865z"/>
		<path fill="#E9C09B" d="M284.434,224.004c0,0,45.525,86.502-22.944,99.459c0,0-84.896,49.88-88.377-61.434l-3.21-28.016
			L284.434,224.004z"/>
		<path fill="#E9C09B" d="M289.711,149.118c0,50.991-33.152,92.327-74.048,92.327s-74.048-41.336-74.048-92.327
			c0-17.223-2.36-42.714,4.224-56.514c12.912-27.055,44.655-26.873,69.824-35.814C254.199,43.102,289.711,98.127,289.711,149.118z"
			/>
		<path fill="#E9C09B" d="M155.043,212.395c0,0,19.462,58.57,41.653,40.381c22.191-18.19,83.605-8.61,83.605-8.61
			s35.099-75.529-0.299-103.072c0,0,5.093-88.4-59.661-66.937s-69.491,85.854-69.491,85.854"/>
		<path fill="#E9C09B" d="M154.14,197.493c0,0-17.2-22.478-34.915-1.634c-22.084,26.003,25.367,34.471,25.367,34.471
			s15.057,2.88,12.057,19.124c-3.003,16.25-2.201,21.916,3.447,23.056c5.64,1.124,15.911-5.536,15.007-14.867
			C171.207,217.357,154.14,197.493,154.14,197.493z"/>
		<g>
			<path fill="#D09F78" d="M160.167,224.629c0,0-29.579-46.608-23.313-7.076C136.854,217.553,137.528,194.858,160.167,224.629z"/>
			<path fill="#D09F78" d="M160.346,224.743c0,0-19.165-22.417-8.109,8.735C152.236,233.479,147.154,213.133,160.346,224.743z"/>
		</g>
		<g>
			<path opacity="0.39" fill="#D09F78" d="M231.82,231.702c-2.953-0.501-7.917-6.475-10.938-8.217
				c-4.896-2.823-13.507,3.11-18.369-3.897c0,0,20.177,34.975,42.082,30.197c0,0,18.667,0.491,24.896-39.245
				C269.492,210.54,255.144,235.66,231.82,231.702z"/>
			<path fill="#D09F78" d="M201.961,211.106c0,0-9.191,22.669,16.491,10.897C218.452,222.003,200.833,226.463,201.961,211.106z"/>
			<path fill="#D09F78" d="M211.371,215.318c0,0,33.334,50.273,57.218-4.834C268.589,210.483,240.027,243.479,211.371,215.318z"/>
		</g>
		<g>
			<path fill="#D09F78" d="M185.175,245.443c0,0,2.611-13.088,15.932-3.38C201.106,242.062,192.066,235.743,185.175,245.443z"/>
			<path fill="#D09F78" d="M191.862,242.505c0,0-13.342,23.899,13.924,30.826c18.425,4.678,40.312-14.116,40.312-14.116
				S210.263,274.433,191.862,242.505z"/>
			<path fill="#D09F78" d="M238.787,261.801c-9.765,2.642-18.604,2.599-26.428-0.157c-15.933-5.604-21.624-20.301-21.865-20.926
				l1.496-0.563c0.055,0.146,5.688,14.644,20.918,19.99c13.042,4.578,29.114,1.305,47.765-9.719l0.816,1.375
				C253.459,256.546,245.88,259.885,238.787,261.801z"/>
			<path fill="#F4F5F5" d="M246.098,259.215c0,0-31.796,13.493-50.872-11.641c-1.945,2.976-8.057,13.934,6.435,15.601
				c0,0-3.886,4.239-1.662,8.168c1.698,0.757,3.597,1.427,5.788,1.988C224.211,278.009,246.098,259.215,246.098,259.215z"/>
		</g>
		<path fill="#BBA992" d="M256.779,72.325c0,0-37.289-112.368-105.928-32.25c0,0,46.668-4.22,28.908,32.25
			C162,108.795,263.371,88.002,256.779,72.325z"/>
		<path fill="#A39582" d="M157.758,39.981c0,0,34.078,0.023,24.314,26.834l-1.752,1.151
			C180.32,67.966,184.129,42.455,157.758,39.981z"/>
		<path fill="#BBA992" d="M150.851,133.979v14.077c0,0,52.217-8.25,76.296,8.685v-22.761
			C227.147,133.979,188.721,116.437,150.851,133.979z"/>
		<path fill="#BBA992" d="M304.978,138.509l-0.479,14.068c0,0-32.28-9.354-47.872,7.06l0.774-22.748
			C257.401,136.889,281.96,120.172,304.978,138.509z"/>
		<path fill="#D09F78" d="M234.584,127.539c0,0,13.102,9.914,1.419,16.163C236.003,143.701,240.838,137.963,234.584,127.539z"/>
		<path fill="#D09F78" d="M249.23,143.701c0,0-13.102-9.914-1.419-16.163C247.812,127.539,242.978,133.277,249.23,143.701z"/>
		<path fill="#231F20" d="M209.109,168.057c0,0-19.685,33.027-48.863,6.451C160.246,174.508,185.59,191.271,209.109,168.057z"/>
		<path fill="#231F20" d="M294.917,168.409c0,0-11.297,28.36-28.781,5.099C266.136,173.508,281.26,188.248,294.917,168.409z"/>
		<g>
			<path opacity="0.43" fill="#FFFFFF" d="M138.412,145.36c0,0,113-8.942,83.966,43.18
				C193.344,240.662,129.104,211.82,138.412,145.36z"/>
			<path fill="#231F20" d="M170.583,214.241c-9.392-1.348-16.815-4.978-22.066-10.788c-5.983-6.62-10.047-15.689-11.151-24.88
				l-0.013-0.112c-0.133-1.104-0.539-4.46-0.666-7.692c-0.026-0.689-0.06-1.534-0.044-2.448c-1.911-0.841-3.496-2.183-4.608-3.933
				c-2.355-3.707-2.505-8.775-0.455-15.494c0.56-1.836,2.181-3.147,4.094-3.312c9.817-0.843,20.445-1.25,31.59-1.213
				c2.453,0.009,5.188-0.058,8.083-0.129c8.245-0.201,17.591-0.431,26.527,0.854c15.035,2.16,24.739,8.119,29.666,18.215
				c8.474,17.371-3.814,33.349-18.14,42.51c-6.095,3.899-13.286,6.557-21.371,7.898C184.411,214.98,176.995,215.161,170.583,214.241
				z M141.084,159.891 M146.1,167.488c-0.092,1.104-0.138,3.847,0.586,9.846l0.015,0.117c0.877,7.307,4.082,14.487,8.792,19.697
				c3.74,4.139,9.268,6.758,16.428,7.787c5.469,0.784,11.891,0.615,18.569-0.495c6.824-1.132,12.828-3.333,17.846-6.542
				c3.77-2.411,22.198-15.211,14.756-30.467c-3.507-7.184-10.673-11.326-22.555-13.032c-8.155-1.171-17.083-0.953-24.96-0.76
				c-2.962,0.072-5.761,0.141-8.345,0.132c-9.612-0.034-12.293-0.034-20.893,0.604"/>
			<path fill="#231F20" d="M256.779,180.078c0-4.306-29.632-4.306-29.632,0v-23.337c0,4.2,29.632,4.2,29.632,0V180.078z"/>
			<path opacity="0.43" fill="#FFFFFF" d="M323.712,145.36c0,0-85.428-8.942-63.479,43.18
				C282.183,240.662,330.748,211.82,323.712,145.36z"/>
			<path fill="#231F20" d="M283.177,213.715c-6.113-1.341-11.549-3.999-16.157-7.898c-10.829-9.161-20.119-25.139-13.713-42.51
				c3.726-10.097,11.062-16.055,22.428-18.215c6.756-1.284,13.82-1.054,20.054-0.854c2.189,0.071,4.257,0.139,6.111,0.129
				c8.425-0.038,16.46,0.37,23.882,1.213c1.447,0.165,2.671,1.476,3.096,3.312c1.549,6.719,1.437,11.787-0.346,15.494
				c-0.84,1.75-2.038,3.091-3.482,3.933c0.012,0.914-0.014,1.759-0.033,2.448c-0.097,3.232-0.403,6.588-0.504,7.692l-0.009,0.112
				c-0.835,9.191-3.908,18.261-8.432,24.88c-3.969,5.81-9.582,9.44-16.682,10.788C294.542,215.161,288.937,214.98,283.177,213.715z
				 M321.691,159.891 M317.719,154.375c-6.502-0.638-8.527-0.638-15.796-0.604c-1.953,0.008-4.068-0.06-6.309-0.132
				c-5.954-0.193-12.703-0.412-18.869,0.76c-8.982,1.707-14.4,5.848-17.051,13.032c-5.626,15.256,8.305,28.056,11.155,30.467
				c3.794,3.209,8.333,5.41,13.492,6.542c5.049,1.11,9.902,1.279,14.037,0.495c5.413-1.029,9.592-3.648,12.42-7.787
				c3.561-5.21,5.982-12.39,6.646-19.697l0.011-0.117c0.547-5.999,0.513-8.742,0.443-9.846"/>
		</g>
	</g>
	<g>
		<polygon fill="#FFFFFF" points="374.541,172.932 383.104,181.21 376.263,204.217 380.026,206.078 385.654,203.283 
			392.917,205.852 397.216,210.123 398.727,209.515 408.295,217.257 416.134,222.056 418.464,231.277 410.164,257.803 
			402.557,263.33 399.15,269.952 392.202,273.508 388.189,287.007 381.813,283.796 376.681,277.191 367.606,280.276 
			342.465,270.355 342.353,265.593 340.743,261.886 331.427,244.294 330.014,231.849 321.521,215.987 324.347,208.787 
			332.28,204.445 340.731,206.118 341.518,213.433 351.414,218.708 362.241,174.836 		"/>
		
			<rect x="367.486" y="169.417" transform="matrix(0.9586 0.2848 -0.2848 0.9586 64.7708 -99.5176)" fill="#231F20" width="14.107" height="7.028"/>
		<polygon fill="#231F20" points="405.835,215.293 377.354,206.829 379.36,200.091 407.842,208.559 		"/>
		
			<rect x="337.004" y="273.526" transform="matrix(0.9586 0.2849 -0.2849 0.9586 93.6168 -89.5521)" fill="#231F20" width="35.291" height="7.024"/>
		
			<rect x="378.013" y="282.525" transform="matrix(0.9585 0.285 -0.285 0.9585 97.4928 -97.8481)" fill="#231F20" width="13.828" height="7.024"/>
		
			<rect x="328.623" y="201.916" transform="matrix(0.9586 0.2849 -0.2849 0.9586 72.437 -87.098)" fill="#231F20" width="13.93" height="7.024"/>
		
			<rect x="322.69" y="200.149" transform="matrix(-0.2849 0.9586 -0.9586 -0.2849 650.5683 -78.0038)" fill="#231F20" width="63.38" height="7.027"/>
		
			<rect x="353.979" y="192.703" transform="matrix(-0.2849 0.9586 -0.9586 -0.2849 674.594 -110.8441)" fill="#231F20" width="49.332" height="7.03"/>
		
			<rect x="384.773" y="212.786" transform="matrix(-0.2847 0.9586 -0.9586 -0.2847 714.533 -100.5451)" fill="#231F20" width="20.009" height="7.031"/>
		
			<rect x="400.119" y="219.534" transform="matrix(-0.285 0.9585 -0.9585 -0.285 737.0478 -103.6971)" fill="#231F20" width="14.162" height="7.028"/>
		
			<rect x="398" y="240.45" transform="matrix(-0.2848 0.9586 -0.9586 -0.2848 767.8944 -84.9784)" fill="#231F20" width="35.294" height="7.03"/>
		<polygon fill="#231F20" points="383.067,267.23 391.106,240.194 397.841,242.197 389.808,269.235 		"/>
		
			<rect x="394.86" y="261.955" transform="matrix(-0.2851 0.9585 -0.9585 -0.2851 770.9672 -44.0764)" fill="#231F20" width="14.121" height="7.027"/>
		<polygon fill="#231F20" points="369.811,263.294 377.845,236.252 384.581,238.256 376.549,265.298 		"/>
		
			<rect x="373.412" y="272.81" transform="matrix(-0.2851 0.9585 -0.9585 -0.2851 749.2727 -6.1722)" fill="#231F20" width="7.052" height="7.027"/>
		<polygon fill="#231F20" points="385.819,282.642 389.808,269.231 396.539,271.235 392.558,284.644 		"/>
		<polygon fill="#231F20" points="356.243,259.26 364.276,232.22 371.015,234.223 362.976,261.262 		"/>
		
			<rect x="315.512" y="208.953" transform="matrix(-0.2848 0.9586 -0.9586 -0.2848 618.1083 -36.2173)" fill="#231F20" width="14.105" height="7.028"/>
		
			<rect x="322.74" y="221.172" transform="matrix(-0.2854 0.9584 -0.9584 -0.2854 634.7141 -23.8927)" fill="#231F20" width="7.049" height="7.028"/>
		
			<rect x="330.127" y="245.231" transform="matrix(-0.2849 0.9586 -0.9586 -0.2849 667.1483 -0.2084)" fill="#231F20" width="7.051" height="7.027"/>
		<polygon fill="#231F20" points="334.009,259.886 336.017,253.123 342.751,255.13 340.743,261.886 		"/>
		<polygon fill="#231F20" points="338.731,268.651 340.743,261.886 347.48,263.892 345.472,270.647 		"/>
		
			<rect x="323.063" y="233.22" transform="matrix(-0.2849 0.9586 -0.9586 -0.2849 650.9658 -12.1572)" fill="#231F20" width="13.909" height="7.026"/>
		
			<rect x="411.406" y="218.143" transform="matrix(-0.2847 0.9586 -0.9586 -0.2847 745.5677 -113.0098)" fill="#231F20" width="7.08" height="7.027"/>
		
			<rect x="340.071" y="211.715" transform="matrix(-0.2849 0.9586 -0.9586 -0.2849 647.8229 -52.8162)" fill="#231F20" width="7.081" height="7.027"/>
	</g>
</g>
<g>
</g>
<g>
</g>
<g>
</g>
<g>
</g>
<g>
</g>
<g>
</g>
<g>
</g>
<g>
</g>
<g>
</g>
<g>
</g>
<g>
</g>
</svg>
