<svg xmlns="http://www.w3.org/2000/svg" width="325.958" height="418.657" viewBox="0 0 325.958 418.657"><path fill="#885E3C" d="M143.043 272.048s59.742-1.164 65.731-30.821l-4.949-1.832s-7.976 28.227-55.214 23.445"/><path fill="#885E3C" d="M94.732 280.914c3.938-5.467 11.545-10.135 15.131-11.9l-1.479-3.011 1.477 3.011-2.95-6.02c-1.548.758-11.311 5.74-17.092 13.277 1.87 1.205 3.509 2.818 4.913 4.643zM111.315 280.914s-40.826-31.501-10.299-32.297c30.421-.794 105.525-20.853 46.084 30.739"/><path fill="#885E3C" d="M92.263 287.825c-.136-2.505 1.015-5.02 2.811-7.373-1.961-1.155-3.633-2.758-4.869-4.665-2.87 3.585-4.882 7.775-4.639 12.385.481 9.106 9.204 16.636 26.664 23.014l2.3-6.296c-14.247-5.205-21.95-11.107-22.267-17.065z"/><path fill="#1C75B9" d="M141.357 294.749l-28.242-.458 2.255 117.81 2.407-.287-1.392-87.685 21.689-2.433 1.452 89.443 2.319.087z"/><path fill="#885E3C" d="M109.723 318.921l-2.158-64.704 41.378-.186-4.582 63.001z"/><path fill="#F3901E" d="M107.192 263.073c-.324.515-.695.998-1.113 1.444l21.401 21.959 22.855-22.096-43.143-1.307z"/><path fill="#1F232E" d="M107.565 272.983l19.915 17.693 18.635-16.759 2.309-7.882-19.178 15.288-23.633-17.661z"/><path fill="#070507" d="M115.298 412.076s-1.977 3.371-7.007 3.523l-.102 1.041s6.457.307 8.303-2.839l-.057 2.353 2.138-.277-.803-4.246-2.472.445zM142.122 411.194s2.192 3.231 7.225 3.076l.165 1.031s-6.429.708-8.466-2.318l.203 2.355-2.16-.164.543-4.284 2.49.304z"/><path opacity=".1" stroke="#A27F5F" stroke-width=".599" d="M237.141 416.812c0 1.019-47.933 1.844-107.052 1.844-59.133 0-107.059-.825-107.059-1.844 0-1.016 47.926-1.846 107.059-1.846 59.119 0 107.052.83 107.052 1.846z"/><path stroke="#1F232E" stroke-width="2.302" stroke-linecap="round" stroke-linejoin="round" stroke-miterlimit="10" d="M122.526 281.823c-2.357-1.045-3.702 3.481-4.372 4.968-1.521 3.378-1.672 6.594 1.181 9.28 2.139 2.013 5.788 3.677 5.248 7.211-.439 2.875-3.997 4.169-6.49 3.426M131.274 284.632c2.726.852 4.26 2.898 4.772 5.625.682 4.091-2.386 6.306-2.897 10.057-.34 2.898 1.363 3.579 2.386 6.136.171.511 1.023 4.262.342 3.409" fill="none"/><path fill="#fff" d="M119.39 305.874v2.39h-3.017l.134-3.013 2.883.415M134.83 308.562l2.388-.085.108 3.014-3.017-.026.313-2.896"/><path fill="#603913" d="M34.64 124.515s-42.677-120.767 135.178-85.196c3.704.741 34.079 45.681 8.149 92.109 0 0-99.272 29.92-102.236 28.913-2.964-1.006-41.091-35.826-41.091-35.826z"/><path fill="#E7BE99" d="M49.412 142.407s-40.824 126.074 99.658 121.871c0 0 127.875-93.655 28.817-136.88 0 0 10.806-87.651-63.637-77.445l-64.838 92.454z"/><path fill="#603913" d="M44.741 156.753h15.501l-3.134-22.516s15.931-28.922-1.435-43.251l-10.932 10.348-2.518 33.687 2.518 21.732zM166.854 54.136s-14.954 61.49-111.565 38.524c0-.001 15.997-83.715 111.565-38.524z"/><path fill="#E7BE99" d="M47.259 131.207s-12.351-29.044-37.26-11.439c-31.059 21.968 17.848 44.262 17.848 44.262s15.466 7.282 7.725 23.997c-7.747 16.718-8.451 23.062-2.665 25.858 5.779 2.776 18.719-1.571 20.327-11.9 6.955-44.593-5.975-70.778-5.975-70.778zm-8.504 79.356c-3.307 0-5.987-2.68-5.987-5.987 0-3.306 2.68-5.987 5.987-5.987 3.306 0 5.986 2.681 5.986 5.987 0 3.307-2.68 5.987-5.986 5.987z"/><g fill="#CE9C78"><path d="M46.25 162.187s-19.035-58.538-23.221-14.103c0 0 7.018-24.326 23.221 14.103zM46.411 162.36s-14.489-29.523-11.179 7.188c0 0 .147-23.383 11.179-7.188z"/></g><circle stroke="#3A3A3A" stroke-width="1.09" stroke-miterlimit="10" cx="38.755" cy="204.576" r="5.987" fill="none"/><path fill="#603913" d="M163.977 61.499s-4.317 33.305-25.333 41.843l5.254 5.254s21.769-14.726 20.079-47.097zM154.341 167.582c-1.069 2.016-2.799 3.662-5.194 4.485-.212.158-.407.331-.633.476-4.04 2.591-9.466 4.491-14.318 4.065-3.132-.275-5.971-1.602-7.896-3.746-.574-.405-1.092-.866-1.548-1.377-74.563 19.449-15.072 92.137-19.36 92.557 0 0 41.481 20.13 75.123-19.255.001-.001 37.326-76.558-26.174-77.205z"/><path fill="#E7BE99" d="M134.047 241.917v-7.224l-8.882 2.571-4.581-11.109 39.734-7.787 1.402 13.064-10.362 2.603 4.363 7.881s47.912-52.54-13.15-47.943-49.766 39.484-8.524 47.944z"/><path fill="#603913" d="M115.65 140.385c-10.219-6.519-20.324-5.225-28.749 3.444-2.583-1.947-3.876-2.924-6.457-4.871 10.948-12.949 26.7-15.281 41.044-6.31-1.947 2.583-3.892 5.159-5.838 7.737zM178.653 138.754c-6.26-8.688-14.21-9.766-22.559-3.297-1.513-2.493-2.274-3.734-3.786-6.22 11.236-10.031 23.698-8.657 32.523 3.361-2.059 2.052-4.12 4.101-6.178 6.156z"/><path fill="#fff" d="M168.407 146.472c.684 4.635-2.343 9.078-6.779 9.931-4.423.835-8.559-2.243-9.244-6.886-.69-4.638 2.346-9.084 6.766-9.925 4.427-.844 8.563 2.237 9.257 6.88zM116.163 150.244c.818 5.794-3.791 11.502-10.321 12.735-6.511 1.229-12.445-2.471-13.265-8.275-.829-5.803 3.791-11.512 10.304-12.735 6.515-1.236 12.452 2.471 13.282 8.275z"/><path fill="#F1F1F1" d="M160.893 142.889c2.828-.539 5.527.527 7.297 2.569.089.33.166.665.217 1.013.684 4.635-2.343 9.078-6.779 9.931-2.817.53-5.513-.53-7.282-2.563-.091-.333-.168-.675-.219-1.026-.689-4.636 2.347-9.083 6.766-9.924z"/><path fill="#231F20" d="M156.74 150.084c.196 1.223-.339 2.351-1.186 2.517-.853.163-1.699-.696-1.889-1.923-.194-1.229.336-2.357 1.186-2.52.848-.161 1.697.7 1.889 1.926z"/><path fill="#F1F1F1" d="M94.935 157.122c-.829-5.803 3.789-11.508 10.305-12.735 3.562-.675 6.941.136 9.42 1.947.769 1.143 1.299 2.462 1.503 3.91.818 5.794-3.791 11.502-10.321 12.735-3.557.672-6.935-.139-9.407-1.947-.773-1.144-1.297-2.462-1.5-3.91z"/><path fill="#231F20" d="M104.862 154.489c-.228 1.275-1.141 2.206-2.036 2.073-.893-.126-1.426-1.269-1.195-2.545.231-1.275 1.141-2.21 2.036-2.076.896.132 1.429 1.272 1.195 2.548z"/><path fill="#E7BE99" d="M206.066 243.547c-3.595-.681-14.706-11.259-8.961-13.326 4.467-1.442 8.807 8.205 10.257 11.208l.426-.208c1.71-1.26 3.841-2.303 5.758-3.134 3.193-1.243 19.348-5.539 21.632-1.46 3.33 5.37-17.662 6.411-21.055 6.586 5.512-.151 15.006 3.583 16.209 9.57-4.71 4.212-14.762-6.354-17.904-9.589 1.457 2.363 6.876 10.316 1.16 9.825-2.964-.247-4.825-4.321-5.858-6.679"/><g fill-rule="evenodd" clip-rule="evenodd"><path fill="#1F232E" d="M196.844 275.254l-2.716-.959 38.002-106.744 2.716.96z"/><path fill="#fff" d="M232.129 167.565l93.503 33.042-20.352 57.592-93.503-33.042z"/><path fill="#003A80" d="M232.13 167.551l39.887 14.094-10.966 31.034-39.887-14.094 10.966-31.034zm4.231 4.179l-1.393-.492.023-1.334-.819 1.053-1.393-.492.814 1.184-.891 1.251 1.41-.509.814 1.182.058-1.432 1.377-.411zm23.891 37.196l-1.294-.457-.075-1.369-.82 1.052-1.293-.457.812 1.184-.99 1.216 1.412-.508.778 1.282.093-1.533 1.377-.41zm-6.565-2.319l-1.393-.492.025-1.333-.82 1.052-1.392-.492.812 1.184-.891 1.251 1.412-.508.777 1.282.093-1.533 1.377-.411zm-6.665-2.356l-1.293-.457.024-1.333-.82 1.052-1.392-.492.812 1.184-.99 1.216 1.511-.473.777 1.282.093-1.533 1.278-.446zm-6.565-2.319l-1.293-.457.024-1.334-.919 1.017-1.293-.457.812 1.184-.99 1.216 1.511-.473.777 1.282-.006-1.568 1.377-.41zm-6.565-2.32l-1.293-.457-.076-1.369-.819 1.053-1.293-.457.812 1.184-.99 1.216 1.41-.509.779 1.282.093-1.533 1.377-.41zm-6.564-2.319l-1.393-.492.023-1.334-.819 1.053-1.393-.492.814 1.184-.891 1.251 1.411-.509.779 1.282.093-1.533 1.376-.41zm30.567 7.221l-1.293-.457.023-1.334-.819 1.053-1.393-.492.812 1.184-.988 1.216 1.51-.474.813 1.181-.042-1.467 1.377-.41zm-6.565-2.32l-1.292-.457-.076-1.369-.819 1.053-1.294-.457.812 1.184-.988 1.216 1.41-.509.813 1.181.058-1.432 1.376-.41zm-6.565-2.32l-1.393-.492.024-1.333-.819 1.053-1.393-.492.812 1.184-.89 1.251 1.412-.508.813 1.181.058-1.432 1.376-.412zm-6.565-2.319l-1.392-.492.023-1.334-.819 1.053-1.393-.492.812 1.184-.89 1.251 1.412-.508.813 1.181.058-1.432 1.376-.411zm-6.664-2.355l-1.293-.457.023-1.334-.82 1.052-1.392-.492.812 1.184-.99 1.216 1.511-.473.813 1.181-.042-1.467 1.378-.41zm28.608 2.947l-1.292-.457.023-1.333-.819 1.052-1.393-.492.812 1.184-.953 1.116 1.474-.373.813 1.181-.042-1.467 1.377-.411zm-6.564-2.319l-1.293-.457-.077-1.368-.819 1.051-1.294-.457.812 1.184-.953 1.116 1.375-.408.813 1.181.058-1.432 1.378-.41zm-6.565-2.32l-1.393-.492.024-1.332-.818 1.052-1.393-.492.812 1.184-.855 1.151 1.376-.408.813 1.181.058-1.432 1.376-.412zm-6.565-2.32l-1.392-.492.023-1.333-.819 1.051-1.393-.492.812 1.184-.855 1.15 1.376-.408.813 1.181.058-1.432 1.377-.409zm-6.664-2.354l-1.293-.457.023-1.333-.82 1.051-1.392-.492.812 1.184-.954 1.115 1.475-.373.813 1.181-.042-1.467 1.378-.409zm28.607 2.949l-1.293-.457.059-1.435-.855 1.154-1.393-.492.813 1.181-.954 1.119 1.474-.373.813 1.181-.041-1.47 1.377-.408zm-6.564-2.32l-1.293-.457-.041-1.47-.855 1.154-1.294-.457.813 1.181-.954 1.119 1.375-.408.813 1.181.059-1.435 1.377-.408zm-6.565-2.32l-1.393-.492.06-1.434-.855 1.154-1.393-.492.813 1.181-.856 1.153 1.376-.408.813 1.181.059-1.435 1.376-.408zm-6.565-2.319l-1.392-.492.059-1.435-.855 1.154-1.393-.492.813 1.181-.856 1.153 1.376-.408.813 1.181.059-1.435 1.376-.407zm-6.664-2.355l-1.293-.457.059-1.435-.856 1.153-1.392-.492.813 1.181-.955 1.118 1.475-.373.813 1.181-.041-1.47 1.377-.406zm28.643 2.847l-1.293-.457.023-1.333-.819 1.052-1.393-.492.812 1.184-.988 1.217 1.51-.474.778 1.282-.006-1.568 1.376-.411zm-6.564-2.32l-1.292-.457-.077-1.368-.818 1.051-1.294-.457.812 1.184-.988 1.216 1.41-.509.778 1.282.093-1.533 1.376-.409zm-6.565-2.32l-1.393-.492.024-1.332-.818 1.051-1.393-.492.812 1.184-.89 1.251 1.412-.508.777 1.282.093-1.533 1.376-.411zm-6.565-2.319l-1.392-.492.023-1.333-.819 1.051-1.393-.492.812 1.184-.89 1.251 1.412-.508.777 1.282.093-1.533 1.377-.41zm-6.664-2.355l-1.293-.457.023-1.333-.82 1.051-1.392-.492.812 1.184-.99 1.216 1.511-.473.778 1.282-.006-1.568 1.377-.41zm24.181 26.56l-1.294-.457-.075-1.369-.82 1.053-1.293-.457.813 1.182-.955 1.117 1.376-.408.813 1.181.058-1.434 1.377-.408zm-6.565-2.32l-1.393-.492.025-1.334-.82 1.053-1.392-.492.813 1.183-.856 1.152 1.376-.408.813 1.181.058-1.434 1.376-.409zm-6.665-2.355l-1.292-.457.024-1.334-.82 1.053-1.392-.492.813 1.182-.955 1.117 1.475-.373.813 1.181.058-1.434 1.276-.443zm-6.565-2.32l-1.293-.457.024-1.334-.92 1.017-1.293-.457.813 1.182-.955 1.117 1.475-.373.813 1.181-.041-1.469 1.377-.407zm-6.565-2.32l-1.292-.457-.076-1.369-.819 1.053-1.293-.457.812 1.182-.955 1.117 1.375-.408.814 1.182.058-1.434 1.376-.409zm-6.564-2.319l-1.393-.492.023-1.334-.819 1.053-1.393-.492.814 1.183-.856 1.152 1.375-.408.814 1.182.058-1.434 1.377-.41zm35.174 5.267l-1.294-.457-.039-1.469-.856 1.153-1.293-.457.812 1.184-.954 1.115 1.376-.408.813 1.181.057-1.432 1.378-.41zm-6.565-2.319l-1.393-.492.06-1.434-.856 1.153-1.392-.492.812 1.184-.855 1.15 1.376-.408.813 1.181.057-1.432 1.378-.41zm-6.666-2.356l-1.293-.457.06-1.434-.856 1.153-1.392-.492.812 1.184-.954 1.115 1.475-.372.813 1.181.058-1.432 1.277-.446zm-6.565-2.319l-1.292-.457.06-1.434-.955 1.118-1.293-.457.812 1.184-.954 1.115 1.475-.373.813 1.181-.042-1.467 1.376-.41zm-6.564-2.32l-1.292-.457-.041-1.47-.855 1.154-1.292-.457.812 1.184-.954 1.115 1.375-.408.814 1.182.058-1.432 1.375-.411zm-6.564-2.319l-1.393-.492.059-1.435-.855 1.154-1.393-.492.814 1.184-.855 1.15 1.375-.408.814 1.181.058-1.432 1.376-.41zm35.173 5.269l-1.294-.457-.039-1.469-.856 1.153-1.293-.457.813 1.181-.955 1.118 1.377-.409.813 1.182.058-1.435 1.376-.407zm-6.565-2.32l-1.393-.492.06-1.434-.856 1.153-1.392-.492.813 1.181-.856 1.153 1.376-.409.813 1.182.058-1.435 1.377-.407zm-6.666-2.356l-1.292-.457.06-1.434-.856 1.153-1.392-.492.813 1.181-.955 1.118 1.476-.374.813 1.182.059-1.435 1.274-.442zm-6.565-2.319l-1.292-.457.06-1.434-.955 1.118-1.293-.457.813 1.181-.955 1.118 1.476-.374.813 1.182-.041-1.47 1.374-.407zm-6.564-2.32l-1.293-.457-.041-1.47-.855 1.154-1.293-.457.813 1.181-.955 1.118 1.375-.409.814 1.183.059-1.435 1.376-.408zm-6.564-2.319l-1.393-.492.059-1.435-.855 1.153-1.393-.492.815 1.182-.856 1.153 1.375-.409.814 1.183.059-1.435 1.375-.408zm35.209 5.167l-1.294-.457-.075-1.369-.82 1.052-1.293-.457.812 1.184-.99 1.216 1.412-.508.813 1.181.057-1.432 1.378-.41zm-6.565-2.32l-1.393-.492.025-1.334-.82 1.052-1.392-.492.812 1.184-.891 1.251 1.412-.508.813 1.181.057-1.432 1.377-.41zm-6.666-2.355l-1.293-.457.024-1.334-.82 1.052-1.392-.492.812 1.184-.99 1.216 1.511-.473.813 1.181.058-1.432 1.277-.445zm-6.565-2.32l-1.292-.457.024-1.334-.92 1.017-1.293-.457.812 1.184-.99 1.216 1.511-.473.813 1.181-.042-1.467 1.377-.41zm-6.564-2.32l-1.292-.457-.076-1.369-.819 1.053-1.293-.457.812 1.184-.99 1.216 1.41-.509.814 1.182.058-1.432 1.376-.411z"/><path fill="#E03A3E" d="M272.018 181.645l53.613 18.944-1.581 4.475-53.613-18.944 1.581-4.475zm-3.129 8.853l53.613 18.944-1.582 4.476-53.613-18.944 1.582-4.476zm-3.127 8.852l53.613 18.944-1.582 4.476-53.613-18.944 1.582-4.476zm-3.128 8.852l53.613 18.944-1.582 4.477-53.613-18.944 1.582-4.477zm50.485 27.796l-1.582 4.477-93.5-33.038 1.582-4.477 93.5 33.038zm-3.128 8.854l-1.582 4.476-93.5-33.038 1.582-4.476 93.5 33.038zm-3.129 8.853l-1.581 4.475-93.5-33.038 1.581-4.475 93.5 33.038z"/></g><path fill-rule="evenodd" clip-rule="evenodd" fill="#CD9C78" d="M121.645 169.548s19.147 27.83 35.565-5.145c.001 0-16.923 17.77-35.565 5.145z"/><path stroke="#996437" stroke-width="1.042" stroke-miterlimit="10" d="M38.755 81.775c89.37 24.952 128.821-37.634 128.821-37.634s-26.91 27.829-89.549 26.785" fill="none"/><path stroke="#B4886B" stroke-width=".816" d="M156.781 204.934c-12.942 9.97-30.412 15.57-43.049 5.222" fill="none"/><path fill="#CD9C78" d="M118.121 204.955s-15.71-1.035-8.644 11.253c0 .001-5.182-8.924 8.644-11.253z"/></svg>