<svg xmlns="http://www.w3.org/2000/svg" xmlns:xlink="http://www.w3.org/1999/xlink" width="325.958" height="418.657" viewBox="0 0 325.958 418.657"><path fill="#231F20" d="M243.978 152.434l-44.962 23.317-7.329-10.088 50.347-21.077z"/><path fill="#414042" d="M206.296 299.498c-9.75 0-19.839-2.237-29.322-8.273-12.793-8.144-18.272-19.322-18.499-19.795l6.308-3.033-3.154 1.517 3.15-1.525c.787 1.616 19.869 39.288 71.761 17.281l2.733 6.445c-9.244 3.919-20.848 7.383-32.977 7.383zM80.006 297.492c-4.237 0-8.307-.285-12.075-.727l.815-6.953c23.742 2.785 41.73-2.597 53.468-15.993 8.693-9.921 10.543-20.612 10.561-20.719l6.906 1.143c-.085.517-2.208 12.784-12.202 24.189-13.143 15-31.481 19.06-47.473 19.06z"/><path fill="#1C75B9" d="M135.407 302.519l26.469-.427-2.112 110.42-2.256-.27 1.303-82.183-20.328-2.284-1.36 83.836-2.173.081z"/><path fill="#414042" d="M165.058 325.177l2.021-60.645-38.784-.176 4.296 59.05z"/><path fill="#070507" d="M159.829 412.488s1.854 3.16 6.571 3.301l.095.977s-6.052.286-7.782-2.663l.052 2.206-2.003-.26.753-3.979 2.314.418zM134.69 411.662s-2.056 3.027-6.771 2.883l-.158.966s6.03.664 7.937-2.173l-.189 2.208 2.021-.156-.507-4.014-2.333.286z"/><path opacity=".1" stroke="#A27F5F" stroke-width=".505" d="M45.632 416.927c0 .956 36.373 1.729 81.237 1.729 44.877 0 81.248-.773 81.248-1.729 0-.952-36.371-1.73-81.248-1.73-44.863.001-81.237.778-81.237 1.73z"/><path fill="#E7BE99" d="M86.018 288.651c2.672-3.501 4.114-21.912-2.694-19.142-5.16 2.301-1.287 14.433-.17 18.287l-.549.156c-2.545.246-5.292 1.027-7.677 1.824-3.86 1.455-21.782 10.602-20.547 16.093 1.338 7.487 20.974-8.466 24.153-11.038-5.057 4.299-10.556 15.279-6.819 21.608 7.606-.016 8.11-17.564 8.321-22.989.596 3.288 2.14 14.77 6.864 9.731 2.456-2.605.845-7.751-.126-10.693"/><circle opacity=".2" fill="#404041" cx="57.148" cy="128.154" r=".72"/><path fill="#E5BC98" d="M230.092 168.032c-3.78-7.562-9.059-14.445-11.172-22.747l-.002-.009c-.108-.425-.185-.83-.26-1.232-.27-.1-.535-.219-.799-.347l-.122-.053c-.236-.118-.467-.257-.697-.397l-.197-.113c-.186-.12-.366-.26-.547-.396l-.315-.229-.339-.305c-.162-.143-.327-.279-.485-.437-.245-.245-.477-.511-.697-.791l-.284-.403-.327-.472c-.124-.199-.235-.408-.346-.617l-.174-.321c-.127-.258-.24-.524-.347-.793l-.08-.193c-.116-.307-.218-.621-.307-.939l-.025-.083c-.094-.344-.172-.693-.233-1.044l-.001-.006c-.124-.72-.175-1.449-.145-2.169 5.028-23.594 8.796-73.615-44.203-88.963-72.044-20.859-105.673 25.232-113.404 52.235 0 0-19.506 40.994 15.286 68.421l.001.001c1.54 2.593 3.189 5.118 4.923 7.597l.047.067c5.639 8.052 12.175 15.637 18.804 23.554l.295.352.822.986 1.134 1.363.722.873 1.29 1.569.596.728c.629.771 1.257 1.547 1.883 2.328l.79 3.708c-2.324 26.939 13.575 43.029 22.698 52.29 0 0 4.261 4.221 11.133 8.423.403.246.814.492 1.234.737 2.104 1.228 4.424 2.431 6.921 3.506.349.15.702.298 1.058.443.519.211 1.044.416 1.576.615l.954.345c2.88 1.012 5.942 1.812 9.137 2.262.606.085 1.217.16 1.833.219.936.09 1.882.15 2.837.175.531.013 1.064.018 1.6.009 5.406-.085 11.067-1.326 16.757-4.281.998-.518 1.996-1.089 2.994-1.717 1.878-1.181 3.755-2.557 5.624-4.157.64-.548 1.279-1.115 1.916-1.716 3.205-3.02 6.375-6.712 9.467-11.186.301-.436.654-.824 1.036-1.182 1.146-1.075 2.561-1.882 3.677-2.928l.027-.024h-.001c.625-.586 1.235-1.174 1.83-1.761 4.163-4.111 7.58-8.187 10.059-11.287 15.357-18.591 25.863-46.877 14.548-69.508zM230.092 168.032c-3.78-7.562-9.059-14.445-11.172-22.747l-.002-.009c-.108-.425-.185-.83-.26-1.232-.27-.1-.535-.219-.799-.347l-.122-.053c-.236-.118-.467-.257-.697-.397l-.197-.113c-.186-.12-.366-.26-.547-.396l-.315-.229-.339-.305c-.162-.143-.327-.279-.485-.437-.245-.245-.477-.511-.697-.791l-.284-.403-.327-.472c-.124-.199-.235-.408-.346-.617l-.174-.321c-.127-.258-.24-.524-.347-.793l-.08-.193c-.116-.307-.218-.621-.307-.939l-.025-.083c-.094-.344-.172-.693-.233-1.044l-.001-.006c-.124-.72-.175-1.449-.145-2.169 5.028-23.594 8.796-73.615-44.203-88.963-72.044-20.859-105.673 25.232-113.404 52.235 0 0-19.506 40.994 15.286 68.421l.001.001c1.54 2.593 3.189 5.118 4.923 7.597l.047.067c5.639 8.052 12.175 15.637 18.804 23.554l.295.352.822.986 1.134 1.363.722.873 1.29 1.569.596.728c.629.771 1.257 1.547 1.883 2.328l.79 3.708c-2.324 26.939 13.575 43.029 22.698 52.29 0 0 4.261 4.221 11.133 8.423.403.246.814.492 1.234.737 2.104 1.228 4.424 2.431 6.921 3.506.349.15.702.298 1.058.443.519.211 1.044.416 1.576.615l.954.345c2.88 1.012 5.942 1.812 9.137 2.262.606.085 1.217.16 1.833.219.936.09 1.882.15 2.837.175.531.013 1.064.018 1.6.009 5.406-.085 11.067-1.326 16.757-4.281.998-.518 1.996-1.089 2.994-1.717 1.878-1.181 3.755-2.557 5.624-4.157.64-.548 1.279-1.115 1.916-1.716 3.205-3.02 6.375-6.712 9.467-11.186.301-.436.654-.824 1.036-1.182 1.146-1.075 2.561-1.882 3.677-2.928l.027-.024h-.001c.625-.586 1.235-1.174 1.83-1.761 4.163-4.111 7.58-8.187 10.059-11.287 15.357-18.591 25.863-46.877 14.548-69.508z"/><path fill="#fff" d="M223.394 157.994c-.171 5.629-4.695 10.255-10.126 10.327-5.414.058-9.667-4.457-9.499-10.104.161-5.636 4.695-10.263 10.108-10.327 5.422-.061 9.668 4.454 9.517 10.104z"/><path fill="#E6E7E8" d="M215.248 152.164c3.459-.043 6.435 1.788 8.1 4.581.036.411.058.826.046 1.249-.171 5.629-4.695 10.255-10.126 10.327-3.447.038-6.42-1.787-8.085-4.573-.037-.413-.057-.83-.045-1.256.163-5.637 4.697-10.267 10.11-10.328z"/><path fill="#231F20" d="M210.678 160.141c-.027 1.492-.898 2.713-1.938 2.734-1.044.009-1.863-1.185-1.828-2.679.027-1.494.893-2.719 1.934-2.732 1.039-.012 1.863 1.187 1.832 2.677z"/><path fill="#fff" d="M175.927 159.776c-1.164 7.951-9.453 13.691-18.533 12.789-9.057-.9-15.45-8.079-14.281-16.045 1.154-7.967 9.451-13.702 18.512-12.794 9.068.893 15.454 8.079 14.302 16.05z"/><path fill="#E6E7E8" d="M145.282 160.617c1.153-7.964 9.451-13.7 18.511-12.792 4.957.49 9.102 2.867 11.663 6.215.577 1.804.759 3.745.471 5.735-1.164 7.951-9.453 13.691-18.533 12.789-4.95-.492-9.091-2.868-11.648-6.211-.576-1.805-.755-3.745-.464-5.736z"/><path fill="#231F20" d="M158.918 160.524c-.791 1.599-2.355 2.467-3.483 1.949-1.13-.518-1.392-2.225-.592-3.821.798-1.588 2.361-2.464 3.486-1.95 1.133.525 1.394 2.232.589 3.822z"/><path fill="#A48974" d="M168.988 232.673c4.764-.495 9.951-1.94 15.551-4.688.27-.132.381-.457.249-.725-.131-.27-.458-.381-.726-.249-13.335 6.538-25.823 6.397-37.122-.419-11.248-6.785-16.855-17.597-17.031-18.861.062-.203.002-.433-.173-.578-.23-.192-.572-.158-.764.072-.765.925 2.338 5.87 4.873 9.083 5.154 6.535 19.406 18.001 35.143 16.365zM119.098 201.56s12.598 15.369 17.605-2.36c0 0-5.302 11.909-17.657 1.976"/><path opacity=".4" fill="#404041" d="M167.988 44.976c-72.044-20.862-105.673 25.229-113.404 52.232 0 0-19.506 40.994 15.286 68.421l.001.001c1.54 2.593 3.189 5.118 4.923 7.597l.047.067c.711 1.015 1.437 2.023 2.174 3.025l10.21 3.418 16.672-5.801-16.672-30.209s21.947-35.779-4.837-68.785l128.012 7.038c-5.796-15.692-18.157-29.98-42.412-37.004z"/><circle opacity=".2" fill="#404041" cx="93.371" cy="161.924" r="1.682"/><circle opacity=".2" fill="#404041" cx="66.341" cy="147.063" r="1.997"/><circle opacity=".2" fill="#404041" cx="83.958" cy="121.087" r="1.571"/><circle opacity=".2" fill="#404041" cx="79.042" cy="134.419" r="1.493"/><circle opacity=".2" fill="#404041" cx="69.058" cy="120.236" r=".72"/><path fill="#0D72B8" d="M207.088 237.699l84.175 12.724-20.638 84.826-35.968 4.836-32.904-15.455z"/><path fill="#2BA7E3" d="M248.111 251.09l-12.328 81.565 29.296-4.202 17.486-72.153z"/><path fill="#fff" d="M78.019 276.402l-19.516-77.334-17.61-15.426-6.738 25.655 33.854 73.919z"/><path fill="#3A4393" d="M82.303 324.306l12.127-5.543-10.638-28.816 12.457-5.058 1.281-9.81-11.34-1.235-.943 7.593-4.057 1.338-.487-7.19-17.403 5.296 5.433 6.952-4.415 1.438-6.944-4.789-5 8.931 18.723 4.166z"/><path stroke="#D3D3D3" stroke-width="1.041" stroke-miterlimit="10" fill="none" d="M72.63 276.387l-26.241-67.879 12.114-9.44"/><path fill="#F29400" d="M75.566 287.447l3.044-11.784-10.308-8.543-3.262 13.231 10.526 7.096"/><defs><path id="a" d="M82.303 324.306l12.127-5.543-10.638-28.816 12.457-5.058 1.281-9.81-11.34-1.235-.943 7.593-4.057 1.338-.487-7.19-17.403 5.296 5.433 6.952-4.415 1.438-6.944-4.789-5 8.931 18.723 4.166z"/></defs><use xlink:href="#a" overflow="visible" fill="#E34F26"/><clipPath id="b"><use xlink:href="#a" overflow="visible"/></clipPath><path clip-path="url(#b)" stroke="#737FC6" stroke-width="1.041" stroke-miterlimit="10" fill="none" d="M88.404 291.836l-18.454 11.176 2.157 3.561 18.942-6.225 2.888 4.769-20.221 6.793 2.549 9.568 21.219-7.163"/><path stroke="#D3D3D3" stroke-width="1.041" stroke-miterlimit="10" fill="none" d="M46.389 208.508l-11.703-1.232"/><path opacity=".3" fill="#fff" d="M204.018 145.073h38.759v24.78h-38.759zM123.571 144.164h61v24.78h-61z"/><path stroke="#231F20" stroke-width="3.188" stroke-miterlimit="10" fill="none" d="M204.018 145.073h38.759v24.78h-38.759z"/><path stroke="#231F20" stroke-width="4" stroke-miterlimit="10" fill="none" d="M123.571 144.164h61v24.78h-61z"/><path fill="#231F20" d="M123.571 150.496l-44.961 23.318-7.329-10.089 50.346-21.076z"/><path fill="#E5BC98" d="M78.362 166.141s-16.56-10.921-26.919 12.568c-12.899 29.295 24.605 17.157 24.605 17.157s11.92-3.692 12.11 10.322c.195 13.991 1.665 18.163 6.149 16.827 4.475-1.359 11.302-10.692 9.195-17.701-9.113-30.238-25.14-39.173-25.14-39.173z"/><g fill="#A87C4F"><path d="M87.086 185.174s-29.678-25.044-18.877 3.66c0 0-2.944-18.177 18.877-3.66zM87.224 185.192s-18.05-10.074-4.841 10.12c.001 0-6.989-14.05 4.841-10.12z"/></g><path fill="#E6E6E5" d="M220.119 259.901l59.388 4.336-14.389 51.643-32.444 8.051-26.362-12.141 3.213-13.792 11.754.857-1.158 4.927 16.216 8.395 19.475-5.989 3.069-11.898-47.233-3.448 3.043-11.5 47.432 3.464 1.781-7.884-47.433-3.462z"/><path fill="#231F20" d="M184.57 156.554s12.002-6.255 19.447 1.552v-8.926s-6.483-6.58-19.447 0l.272 8.283"/><path fill="#231F20" d="M132.645 131.712s23.133-29.61 43.416 0l-4.312 4.2s-12.895-20.873-34.147 0l-4.957-4.2zM204.477 137.406s14.232-29.61 26.711 0l-2.653 4.2s-7.933-20.873-21.009 0l-3.049-4.2z"/><g fill="#CD9C78"><path d="M210.785 180.11s-13.95 36.26-37.698 4.789c0 0 21.791 18.103 37.698-4.789z"/><path opacity=".2" d="M210.785 180.11s-12.561 51.893-37.698 4.789c0 0 21.791 18.103 37.698-4.789z"/></g></svg>