<svg xmlns="http://www.w3.org/2000/svg" width="480" height="500"><path stroke="#415E98" stroke-width="8.265" stroke-miterlimit="10" d="M281.744 341.334s44.617-39.353-20.223-77.668" fill="none"/><path fill="#6E6F72" d="M234.91 287.239c3.044 2.37 125.31 205.944 125.31 205.944l10.755-.119-125.461-213.336-10.604 7.511z"/><path fill="#A3A5A8" d="M253.163 312.229c0 5.739-5.742 10.391-12.828 10.391h-37.237c-7.083 0-12.826-4.651-12.826-10.391v-52.458c0-5.737 5.743-10.391 12.826-10.391h37.237c7.086 0 12.828 4.653 12.828 10.391v52.458z"/><path fill="#6E6F72" d="M244.85 300.939c-18.051-.052-36.329.178-54.578-.056v11.346c0 5.739 5.743 10.391 12.826 10.391h37.237c7.086 0 12.828-4.651 12.828-10.391v-11.266c-2.771-.008-5.543-.014-8.313-.024z"/><polygon fill="#415E98" points="218.692,308.185 256.968,306.382 255.599,487.26 252.315,486.963 253.136,326.146 223.622,323.755 222.8,486.963 219.645,487.177"/><polygon fill="#415E98" points="211.823,239.354 262.472,248.522 257.98,320.101 238.535,318.988 235.829,315.217 233.415,319.439 219.451,318.988"/><path fill="#323031" d="M255.694 487.209s2.826 4.494 9.657 4.494l.185 1.399s-8.75.696-11.386-3.497l.172 3.192-2.906-.295.91-5.795 3.368.502z"/><path fill="#323031" d="M219.271 487.132s-2.83 4.497-9.66 4.497l-.181 1.393s8.743.699 11.384-3.493l-.178 3.197 2.909-.299-.91-5.787-3.364.492z"/><circle fill="#1E2D47" cx="235.429" cy="274.577" r="3.012"/><circle fill="#1E2D47" cx="235.429" cy="287.316" r="3.012"/><circle fill="#1E2D47" cx="235.429" cy="300.98" r="3.012"/><line stroke="#1E2D47" stroke-width="1.097" stroke-miterlimit="10" x1="241.105" y1="264.153" x2="241.105" y2="313.26" fill="none"/><path opacity=".15" fill="#211F1F" d="M249.025 491.005c-61.405 0-111.183.974-111.183 2.179 0 1.208 49.778 2.183 111.183 2.183 61.407 0 111.194-.975 111.194-2.183.001-1.205-49.786-2.179-111.194-2.179z"/><path fill="#A3A5A8" d="M223.957 256.549s8.863 18.861-9.624 27.756l-2.51-6.172s13.071 1.445 10.224-21.584"/><path fill="#A3A5A8" d="M251.888 261.298s-4.237 15.372 8.339 23.007v-6.716s-5.583.424-4.513-16.291h-3.826z"/><path fill="#D1B39D" d="M277.474 345.695c-.014-.322-2.199-1.273-2.429-1.396-1.849-1.017-3.751-1.948-5.803-2.479-3.109-.799-6.56-.874-8.744 1.818-1.507 1.87-3.403 7.36-.524 9.076 2.747 1.608 6.443-3.799 9.443-3.739 5.375.109 8.172-.484 8.172-.484l-.115-2.796z"/><path fill="#F0D0B5" d="M271.274 329.926c2.043-1.308 5.53-3.632 7.069-.761 1.279 2.033-.608 5.868 1.273 7.649 1.73 1.636 5.202-.42 7.051 1.647 1.741 1.628-.231 4.465.631 6.616.857 2.437 4.057 3.021 4.608 5.723.571 2.42-.848 5.281-2.482 7.016-2.844 3.359-9.061 6.807-13.295 4.758-2.464-1.259-4.248-4.434-2.574-7.007 1.515-2.168 4.245-3.276 6.156-5.001-1.771 1.588-5.747 7.826-7.86 2.809-1.35-3.587 1.948-7.614 4.566-9.444-1.36 2.042-2.889 4.206-5.551 4.196-2.793-.152-5.341-2.392-5.766-4.935-1.146-4.826 2.629-9.824 5.889-13.002.128.144.128.144.113.41"/><path stroke="#415E98" stroke-width="8.265" stroke-miterlimit="10" d="M141.331 224.154s12.369 58.192 77.589 20.526" fill="none"/><path fill="#CA9D69" d="M221.536 27.87c-22.442 15.052-44.433 32.521-70.306 40.961-7.631 2.489-15.567 2.317-22.827.06-30.249 42.561 8.81 98.56 8.81 98.56l169.985-27.598c2.863-32.86-13.641-111.834-85.662-111.983z"/><path fill="#F0D0B5" d="M140.395 147.289c-12.2-38.901 13.044-81.446 56.381-95.037 43.338-13.593 88.359 6.916 100.56 45.818 1.498 4.775 2.568 10.045 3.239 15.637l.012-.003c.424 3.511.689 7.147.79 10.859l9.616 25.253c.327.621.637 1.245.938 1.876l.285.619c.192.418.387.842.569 1.261l.317.741c.16.378.318.76.469 1.145l.305.782c.143.37.281.73.414 1.101l.279.801c.129.362.251.729.37 1.094l.251.799c.116.37.229.743.335 1.117l.217.771c.109.389.209.786.312 1.184l.174.696c.112.468.213.943.316 1.407l.104.477c.125.619.244 1.242.354 1.871l.079.492.217 1.384.089.704c.051.391.1.784.144 1.173l.07.759c.037.371.073.75.1 1.124l.063.776.063 1.102.029.771.036 1.111.006.762c.003.38.005.766-.002 1.142l-.006.716-.039 1.27-.023.575c-.032.613-.066 1.229-.115 1.846l-.001.008c-.045.613-.102 1.22-.157 1.828l-.069.591-.147 1.241-.094.696c-.049.377-.104.751-.164 1.128l-.12.737-.184 1.082c-.042.247-.085.497-.138.747-.063.361-.137.72-.207 1.067l-.146.744-.245 1.085-.16.703c-.091.385-.187.773-.287 1.156l-.152.624c-.123.466-.249.925-.376 1.381l-.102.378c-.172.592-.341 1.178-.521 1.76l-.135.432c-.132.437-.269.874-.413 1.309-.066.216-.138.43-.216.64-.115.362-.239.729-.365 1.086l-.254.706c-.114.344-.237.675-.36 1.015l-.272.718-.379.994-.278.714-.4.986-.291.707-.422.993-.289.673c-.158.357-.313.712-.477 1.065l-.261.582c-.238.523-.485 1.047-.727 1.565l-.152.307c-.215.451-.43.904-.65 1.349l-.313.625-.488.96-.361.702-.459.878-.385.725-.449.826c-.137.249-.271.494-.414.735-.143.269-.29.536-.441.795l-.418.743-.449.775-.426.743-.463.765-.426.719-.478.78-.604.97c-.222.369-.448.726-.676 1.085l-.491.766-.419.645-.521.789-.388.592-.532.79-.392.581-.539.784-.374.544-.548.793-.366.512-.572.803-.313.434-.616.854-.223.295c-1.075 1.467-2.148 2.887-3.209 4.249l-.111.139-.731.928-.161.199c-.231.299-.463.593-.703.884l-.172.217-.697.866-.149.181c-.243.3-.48.592-.726.882l-.081.093c-.262.319-.521.636-.785.945l-.012.017-.038.04c-.536.646-1.069 1.273-1.588 1.88l-.062.067-.072.087-.036.04c-.76.883-1.501 1.736-2.217 2.541l-.129.149-.053.061-.676.75-.038.045-.756.836c-.348.389-.71.755-1.072 1.128l-.008.002-.147.13v.008c-.336.324-.674.641-1.019.938h-.001l-.009.01c-9.876 8.674-24.18 8.671-36.785 6.111l-.031-.002c-.828-.165-1.647-.351-2.464-.537l-.033-.009c-.81-.188-1.619-.387-2.415-.592l-.011-.004c-3.997-1.035-7.713-2.265-10.929-3.461l-.026-.006c-.624-.229-1.229-.459-1.812-.69l-.084-.029c-.572-.225-1.118-.443-1.646-.656l-.114-.042c-.521-.212-1.011-.42-1.488-.62l-.106-.043-1.35-.584-.083-.035-1.209-.543-.039-.016c-1.155-.526-2.057-.961-2.67-1.26l-.041-.015-.479-.244-.01-.006-.354-.187c-3.411-1.387-6.525-2.818-9.368-4.287l-.01-.015-.1-.048c-.901-.468-1.762-.936-2.597-1.405l-.014-.009-.431-.243-.001-.006c-1.651-.93-3.2-1.883-4.647-2.834l-.021-.016-.234-.158-.017-.002c-.704-.47-1.377-.943-2.033-1.409l-.002-.007-.28-.197-.016-.011c-1.332-.965-2.57-1.942-3.724-2.917l-.016-.009-.192-.162h-.005c-1.799-1.538-3.375-3.066-4.759-4.593l-.119-.126-.022-.03s-14.085-13.762-20.525-39.178l-9.648-27.69-12.727-8.158-3.018-12.113z"/><path fill="#CE9C78" d="M221.307 180.123s37.979 30.468 41.282-12.947c0 0-5.892 27.872-41.282 12.947z"/><path stroke="#CE9C78" stroke-width="1.944" stroke-miterlimit="10" d="M203.467 215.941s41.815 31.196 69.562-.352" fill="none"/><path fill="#231F20" d="M189.998 172.993s.958-47.668 38.457-19.187c-.001 0-30.519-18.035-38.457 19.187z"/><path fill="#231F20" d="M251.888 149.375s7.661-45.062 35.941-7.983c0 .001-24.431-25.014-35.941 7.983z"/><path fill="#CE9C78" d="M193.78 224.348s-8.318-20.069 11.833-17.397c0 0-15.02 1.143-11.833 17.397z"/><path fill="#CA9D69" d="M160.789 180.913l7.976-3.643-19.616-33.469s13.353-9.415 4.145-27.977c0 0 40.328-80.299 137.382-32.471l-5.968-19.025s-34.829-30.425-36.314-28.266c-1.483 2.159-35.016-1.271-35.016-1.271s-34.423 13.121-38.844 12.183c-4.421-.937-33.16 22.651-33.16 22.651l-17.898 18.152 2.811 44.827 6.771 21.585 27.731 26.724z"/><path fill="#F0D0B5" d="M152.971 162.03s-15.104-14.918-31.664 1.92c-11.253 11.438-3.64 17.238 5.622 20.139 7.732 2.426 16.625 2.832 16.625 2.832s13.594.765 10.501 12.926c-3.111 12.163-2.502 16.239 2.599 16.569 5.093.323 14.577-5.467 13.964-12.219-2.612-29.14-17.647-42.167-17.647-42.167z"/><g fill="#CE9C78"><path d="M158.051 181.888s-16.884-14.696-7.564 7.114c0 0-4.148-14.437 7.564-7.114z"/><path d="M157.891 181.822s-25.78-31.487-21.004-3.106c0 0 1.141-16.671 21.004 3.106z"/></g><path fill="#415E98" d="M164.979 43.452s73.15-46.157 79.271-28.647c6.122 17.504-100.682 64.719-100.682 64.719l-26.654 18.136-11.468-13.749s-48.786-10.199-5.436-37.865c43.351-27.671 35.632-53.034 64.969-2.594z"/><path fill="#1E2D47" d="M164.979 43.452s-3.674 10.651-20.57 17.761c0 0 17.546-11.94 18.372-21.517l2.198 3.756z"/><path fill="#415E98" d="M114.439 38.359s2.289-19.652-8.333-13.099c-10.623 6.55 8.333 13.099 8.333 13.099z"/><path fill="#CA9D69" d="M217.794 125.428l1.751 10.504s-29.688-9.752-47.303 18.067c0 .001 3.272-32.508 45.552-28.571z"/><path fill="#CA9D69" d="M242.265 118.694l4.653 9.535s14.751-24.592 42.199-11.823c0 0-20.306-24.633-46.852 2.288z"/><polygon fill="#6E6F72" points="317.902,480.867 317.902,495.366 396.613,493.186 396.613,480.867"/><polygon fill="#464748" points="317.902,489.874 317.902,495.366 396.613,493.186 396.613,488.139"/><path fill="#F0D0B5" d="M145.457 228.773c-1.002 2.603-3.758 4.139-6.127 3.421-2.362-.723-6.125.069-8.351 1.756l-2.191 1.671c-2.226 1.698-5.229 1.677-6.681-.036-1.452-1.717-.656-4.254 1.764-5.641l3.093-1.771c2.421-1.39 2.246-3.294-.381-4.229l-8.669-3.078c-2.637-.933-4.225-3.539-3.542-5.796.695-2.259 3.383-3.258 5.976-2.229l8.543 3.407c2.592 1.039 3.223.154 1.388-1.959l-3.71-4.29c-1.827-2.11-2.297-4.987-1.046-6.378 1.25-1.4 3.823-.854 5.714 1.202l7.65 8.331c1.891 2.053 3.903 1.677 4.471-.838.566-2.517 2.929-4.167 5.255-3.668 2.323.493 3.402 3.039 2.402 5.652l-5.558 14.473z"/><path fill="#99734D" d="M130.02 110.191c-1.664.515-3.229.494-4.891-.02-.726-.224-2.355.835-1.192 1.195 2.124.657 4.271.636 6.393-.02 1.19-.367.896-1.528-.31-1.155z"/><path fill="#99734D" d="M137.715 121.172c-2.111 1.429-3.613 3.132-4.774 5.407-.204.4.698.386.845.365.429-.06.936-.235 1.144-.643.968-1.896 2.233-3.429 4-4.625 1.115-.754-.633-.898-1.215-.504z"/><path fill="#99734D" d="M143.62 102.794c-.436-.898-.521-1.761-.522-2.745 0-1.097-2.029-.835-2.028.127 0 1.294.162 2.349.73 3.522.415.857 2.299.085 1.82-.904z"/><path fill="#99734D" d="M142.113 122.465l-3.761 1.253c-.23.107-.641.494-.21.648.452.161.996-.031 1.404-.221 1.198-.558 2.55-.689 3.76-1.253.231-.108.642-.494.21-.648-.451-.161-.995.031-1.403.221z"/><path fill="#99734D" d="M137.338 142.913c-1.056 1.601-1.854 3.155-1.894 5.106-.006.315 1.984.045 1.996-.535.038-1.887.849-3.38 1.866-4.922.202-.305-.735-.205-.799-.194-.377.067-.941.199-1.169.545z"/><path fill="#99734D" d="M131.591 143.494c-1.04-.529-1.768-1.233-2.299-2.278-.363-.712-2.306-.075-1.996.535.634 1.246 1.464 2.099 2.714 2.735.426.217 1.035.062 1.416-.177.279-.176.593-.597.165-.815z"/><path fill="#99734D" d="M141.665 136.294c.491-.022.97-.142 1.437-.289l.797-.261c.078-.026.521-.089.273-.078.438-.02 1.02-.164 1.33-.497.317-.341-.274-.415-.492-.405-.491.022-.97.142-1.437.289l-.797.261c-.078.026-.521.089-.273.078-.438.02-1.02.164-1.33.497-.318.341.274.415.492.405z"/><path fill="#99734D" d="M147.974 153.995c.793 0 2.107-1.204.757-1.204-.793 0-2.107 1.204-.757 1.204z"/><path fill="#99734D" d="M152.196 86.822l-5.015-.627c-1.16-.025-1.512 1.479-.165 1.508l5.015.627c1.16.024 1.512-1.479.165-1.508z"/><path fill="#99734D" d="M133.511 97.084c-.748.353-1.526.482-2.349.483-.474 0-1.057.128-1.307.586-.223.409.19.745.583.744 1.367-.001 2.671-.182 3.92-.772.312-.147.805-.56.495-.941-.302-.372-.967-.276-1.342-.1z"/><path fill="#99734D" d="M152.421 96.894l-1.253 3.761c-.461.99 1.552.898 1.892.168l1.253-3.761c.46-.99-1.552-.898-1.892-.168z"/><path fill="#99734D" d="M169.412 79.94v-2.508c0-.891-2.002-.484-2.002.227v2.508c0 .891 2.002.484 2.002-.227z"/><path fill="#99734D" d="M156.747 82.019c.012.652.117 1.31.598 1.791.508.508 1.237.688 1.937.701.479.009 1.063-.128 1.303-.599.213-.418-.185-.785-.596-.793-.316-.006-.653-.011-.881-.24-.265-.265-.336-.67-.343-1.03-.02-1.015-2.034-.678-2.018.17z"/><path fill="#99734D" d="M161.838 91.312c-.498 1.057-.692 2.12-.694 3.282-.001.847 1.996.421 1.997-.245.001-1.024.116-2.047.558-2.985.416-.885-1.579-.651-1.861-.052z"/><path fill="#99734D" d="M179.439 73.666v-3.762c0-.859-1.998-.438-1.998.24v3.762c0 .859 1.998.437 1.998-.24z"/><path fill="#99734D" d="M188.118 65.555c.66-.661 1.341-1.25 2.178-1.68.143-.073.702-.405.25-.499-.433-.09-1.009.063-1.394.26-1.075.551-1.986 1.23-2.837 2.083-.315.315.278.325.466.308.418-.039 1.025-.16 1.337-.472z"/><path fill="#99734D" d="M206.408 55.539c.001-1.238.042-2.423.572-3.564.491-1.056-1.527-1.095-1.916-.258-.589 1.267-.681 2.581-.682 3.958-.002 1.079 2.025.801 2.026-.136z"/><path fill="#99734D" d="M211.493 50.44c1.39.726 2.261 1.969 2.307 3.554.018.612 2.018.222 1.996-.535-.052-1.792-1.165-3.162-2.711-3.969-.563-.294-2.403.527-1.592.95z"/><path fill="#99734D" d="M203.705 61.312c-1.815.999-3.012 2.961-3.081 5.035-.033 1.018 1.99.702 2.019-.166.045-1.366.662-3.042 1.933-3.741 1.192-.656.11-1.667-.871-1.128z"/><path fill="#99734D" d="M195.779 69.087c-.871 1.006-.248 2.423.554 3.264.357.374.909.384 1.36.165.32-.156.821-.682.464-1.056-.309-.323-1.101-1.288-.7-1.751.312-.36.169-.837-.268-.999-.479-.178-1.079-.005-1.41.377z"/><path fill="#99734D" d="M181.804 83.091c.699 0 2.142-1.061.795-1.061-.699.001-2.142 1.061-.795 1.061z"/><path fill="#99734D" d="M225.824 58.475c.033-1.138.745-2.045 1.246-3.02.194-.376-.703-.323-.828-.304-.397.061-.953.219-1.152.608-.559 1.084-1.225 1.991-1.262 3.251-.014.452 1.976.142 1.996-.535z"/><path fill="#99734D" d="M228.16 42.08c.229-.22.51-.397.79-.546.172-.092.352-.168.531-.24l.113-.028c.318-.091-.129-.003.146-.016.421-.019 1.04-.303 1.108-.775.072-.501-.547-.615-.907-.599-1.255.056-2.55.833-3.436 1.679-.336.321-.168.773.242.903.496.157 1.05-.031 1.413-.378z"/><path fill="#99734D" d="M236.433 47.833c.607.607 1.279 1.315 2.189 1.379.488.034 1.02-.062 1.411-.378.295-.237.257-.595-.167-.624-.632-.044-1.154-.71-1.572-1.127-.454-.454-2.332.281-1.861.75z"/><path fill="#99734D" d="M238.234 59.958c.778 0 2.113-1.182.764-1.182-.778.001-2.113 1.182-.764 1.182z"/><path fill="#99734D" d="M216.186 63.78l-.626-.628c-.677-.679-2.368.358-1.523 1.206l.626.628c.676.68 2.367-.358 1.523-1.206z"/><path fill="#99734D" d="M249.528 58.382l2.508 4.389c.337.657 2.271 0 1.996-.535l-2.508-4.389c-.336-.658-2.269-.001-1.996.535z"/><path fill="#99734D" d="M258.223 46.371l1.881-2.507c.282-.294.249-.62-.19-.711-.44-.091-1.09.043-1.411.378l-1.881 2.507c-.282.294-.249.62.19.711s1.09-.043 1.411-.378z"/><path fill="#99734D" d="M277.836 66.983c-.665.719-.725 1.384-.045 2.117.323.348 2.146-.38 1.887-.659-.482-.52-.54-1.111-.045-1.646.29-.313-.259-.295-.457-.274-.395.041-1.053.152-1.34.462z"/><path fill="#99734D" d="M256.487 59.729c.485.521.563 1.101.564 1.786.001.457 1.997.127 1.996-.535-.001-.779-.147-1.391-.691-1.975-.398-.427-2.277.286-1.869.724z"/><path fill="#99734D" d="M266.454 69.666c0 .508-.052 1.08.129 1.565.173.463.656.554 1.096.575.435.021 1.049-.169 1.321-.529.292-.386-.248-.513-.524-.526l.104-.042c-.062-.074-.072-.263-.087-.355-.065-.4-.043-.82-.043-1.224 0-.554-1.996-.195-1.996.536z"/><path fill="#99734D" d="M268.442 52.947c.838-1.644 2.027-3.094 3.55-4.146.334-.23.234-.514-.149-.559-.48-.056-1.018.106-1.411.378-1.703 1.176-3.033 2.793-3.97 4.632-.191.375.703.318.827.299.393-.06.956-.217 1.153-.604z"/><path fill="#99734D" d="M244.003 42.949c.498-1.464 1.123-2.857 1.812-4.239.437-.873-1.563-.652-1.861-.056-.739 1.479-1.416 2.971-1.949 4.538-.238.703 1.766.438 1.998-.243z"/><path fill="#99734D" d="M236.083 33.244c-.36.24-.888.491-1.11.884-.309.546.426.849.852.792.343-.045.609-.176.91-.323l.477-.216c.271-.113-.2.061.061-.019.244-.074-.219.014-.006.002.425-.023 1.039-.303 1.106-.781.069-.501-.544-.63-.911-.61-.446.024-.876.196-1.281.372l-.444.211c-.307.152-.397.064.284-.026l.852.792.004-.005-.296.328c.244-.209.544-.373.811-.551.338-.225.526-.719.121-.982-.432-.28-1.035-.131-1.43.132z"/><path fill="#99734D" d="M285.293 70.622c.463-.434 1.272-.639 1.328-1.375.05-.671-1.94-.25-1.982.303-.016.21-.039.292-.216.402-.351.217-.661.447-.962.729-.355.333.305.458.505.452.479-.016.974-.181 1.327-.511z"/><path fill="#99734D" d="M292.123 78.692c.684 0 2.146-1.038.801-1.038-.684 0-2.147 1.038-.801 1.038z"/><path fill="#99734D" d="M298.382 94.955c.839-.001 2.571-.141 2.655-1.261.051-.677-1.94-.256-1.982.301-.033.449-.193.122.542-.013-.113.021-.271.005-.395.005-.435.001-1.033.166-1.326.511-.307.361.263.458.506.457z"/></svg>