<svg xmlns="http://www.w3.org/2000/svg" width="325.958" height="418.657" viewBox="0 0 325.958 418.657"><path opacity=".15" fill="#211F1F" d="M158.991 414.862c-61.979 0-112.226.847-112.226 1.897 0 1.047 50.247 1.897 112.226 1.897 61.983 0 112.24-.85 112.24-1.897 0-1.05-50.257-1.897-112.24-1.897z"/><path fill="#603913" d="M248.894 296.746c-29.97 3.233-60.09 2.621-90.024-.815-22.557-3.435-44.739-8.397-66.882-13.995-12.59-3.183-25.152-6.495-37.545-10.335 12.05-111.145 29.35-314.567 176.766-237.657 0 0 52.749 29.644 33.847 259.869-5.387 1.088-10.776 2.081-16.162 2.933z"/><path stroke="#3C2415" stroke-width=".952" stroke-miterlimit="10" d="M112.067 286.806c-2.405-14.203-1.069-102.996-1.069-102.996" fill="none"/><path fill="#427E90" d="M144.287 211.889l2.408 60.099h38.344l4.23-61.702"/><path fill="#E6BD98" d="M182.843 222.659s-14.794 46.251-33.077.89l32.114-.89"/><path fill="#CD9B78" d="M171.633 237.488c.226-.063-5.596.407-4.597 5.949 0 0 .607-4.853 4.597-5.949zM162.126 237.488c-.228-.063 5.593.407 4.594 5.949 0 0-.609-4.853-4.594-5.949z"/><path fill="#E9BF9A" d="M238.772 134.381s18.867 51.139-54.463 94.455c0 0-33.213 25.711-59.807-18.55-6.857-11.413-27.217-32.483-13.018-107.083 0 0 5.044-83.221 89.205-58.428 67.296 19.823 38.083 89.606 38.083 89.606z"/><path opacity=".05" fill="#231F20" d="M226.153 56.719s-63.875-10.536-111.174 33.201l13.766-21.07 24.386-17.464 25.024-6.097h17.239c-.001 0 21.312.385 30.759 11.43z"/><path fill="#603913" d="M226.153 56.719s-70.034-33.885-119.247 44.887l20.565-59.087 49.467-5.661 37.224-6.009 11.991 25.87z"/><path opacity=".2" fill="#CD9C78" d="M178.794 232.116s-8.639 9.021-22.885 3.637c0 0 13.737 2.436 22.885-3.637z"/><path fill="#603913" d="M214.755 243.769l-.473.134c-1.45 4.66-3.004 9.347-4.68 14.056l19.88-5.11 6.778-19.252c-6.607 4.555-13.793 7.57-21.505 10.172zM258.852 116.222l-19.335-59.503h-13.364s16.261 73.372-5.188 162.876c6.09-3.451 10.577-8.159 13.489-16.127l.241-.588c-.037-.249-.074-.499-.098-.754-1.098-11.552 11.187-29.619 23.707-31.146l3.37-9.572-2.822-45.186zM197.316 35.855s-26.299-3.367-27.883-5.006c-1.585-1.638-38.594 19.916-38.594 19.916l-28.742 43.879-19.583 71.079-1.237 5.024c1.505.769 2.877 2.01 3.955 3.833 2.323 3.924 8.636 7.544 12.205 11.262 1.163 1.212 2.291 2.454 3.413 3.701 8.967-159.074 125.303-132.824 125.303-132.824l-28.837-20.864z"/><path stroke="#3C2415" stroke-width=".952" stroke-miterlimit="10" d="M65.683 274.934v-41.663c.143-10.04.719-20.073 1.651-30.072 3.202-34.239 10.183-68.019 21.329-100.562 10.03-29.288 28.102-56.752 57.047-70.12 13.468-6.221 28.645-8.316 42.862-3.363 14.965 5.214 26.546 16.727 37.612 27.591-1.908-1.649-4.047-2.969-6.236-4.206-8.115-4.587-17.541-8.279-26.632-10.302-7.437-1.653-15.973-2.025-23.541-1.292-30.474 2.951-55.612 26.845-67.679 53.699-4.344 9.669-7.827 19.869-10.364 30.157-9.172 37.228-9.371 76.32-8.139 114.423l1.912 41.057M221.58 298.63c35.918-197.535.164-243.94 4.604-241.885 0 0-6.362-12.583 5.025-22.802" fill="none"/><path opacity=".2" fill="#CD9C78" d="M193.328 56.166c-1.513.175-3 .377-4.461.599 1.508-.406 2.995-.753 4.449-1.049l.012.45zM188.867 56.765c-29.737 7.987-88.147 57.868-71.562 141.969 0 0-8.365-9.386-11.667-47.456-.045-.525 10.561-82.501 83.229-94.513z"/><path stroke="#3C2415" stroke-width=".952" stroke-miterlimit="10" d="M226.184 56.745s43.318 78.993 14.432 242.122" fill="none"/><path fill="#231F20" d="M172.044 153.811s8.107-9.55 22.747-6.1c14.63 3.454 17.219-14.042 17.219-14.042s.905 15.54-10.849 16.953c0 0 8.423 3.222 12.226-4.13 0 0-4.155 14.71-26.549 5.051-6.924-2.989-14.794 2.268-14.794 2.268zM144.037 147.064s-4.729-8.677-16.007-6.644c-11.271 2.038-10.87-13.089-10.87-13.089s-2.726 13.235 5.776 15.18c0 0-6.65 2.227-8.489-4.299 0 0 1.126 12.841 18.956 5.984 5.513-2.122 10.634 2.868 10.634 2.868z"/><path opacity=".43" fill="#fff" d="M230.568 130.087s-75.048-15.362-59.895 22.002c15.152 37.363 60.628 23.342 59.895-22.002z"/><path fill="#3C2415" d="M188.941 171.487c-5.31-1.569-9.912-3.947-13.677-7.066-8.85-7.331-15.766-19.066-8.645-30.015 4.143-6.364 11.145-9.555 21.405-9.758 6.102-.122 12.348.808 17.863 1.626 1.937.286 3.765.559 5.411.756 7.478.899 14.572 2.053 21.086 3.432 1.269.269 2.249 1.283 2.473 2.56.817 4.677.297 8.064-1.59 10.354-.891 1.083-2.065 1.852-3.417 2.256-.065.614-.159 1.179-.234 1.638-.353 2.157-.9 4.376-1.082 5.104l-.019.074c-1.501 6.074-4.98 11.819-9.541 15.763-4.002 3.462-9.284 5.282-15.692 5.407-4.377.085-9.333-.65-14.341-2.131zm38.63-31.876-3.069-4.136c-5.715-1.141-7.512-1.362-13.963-2.135-1.734-.209-3.604-.487-5.584-.781-5.267-.784-11.237-1.669-16.804-1.559-8.11.16-13.258 2.342-16.208 6.87-6.256 9.616 5.046 19.727 7.374 21.657 3.099 2.568 6.941 4.542 11.426 5.868 4.385 1.297 8.679 1.943 12.414 1.869 4.886-.096 8.809-1.393 11.66-3.861 3.591-3.104 6.337-7.653 7.529-12.481l.02-.079c.983-3.962 1.179-5.806 1.208-6.554"/><path fill="#3C2415" d="M148.301 143.562c.357-2.888 20.232-.432 19.874 2.454l1.934-15.651c-.349 2.817-20.22.361-19.874-2.455l-1.934 15.652z"/><path opacity=".43" fill="#fff" d="M106.289 114.733s58.035 1.08 38.996 34.22c-19.04 33.137-49.222 9.768-38.996-34.22z"/><path fill="#3C2415" d="M116.894 162.944c-4.65-1.492-8.115-4.392-10.295-8.617-2.486-4.815-3.794-11.152-3.592-17.385l.003-.076c.024-.749.095-3.025.298-5.199.047-.465.099-1.035.183-1.648-.899-.682-1.593-1.683-2.013-2.924-.886-2.633-.544-6.042 1.053-10.42.437-1.197 1.368-1.975 2.352-1.966 5.047.05 10.469.443 16.118 1.166 1.243.16 2.635.286 4.107.42 4.199.381 8.957.812 13.38 2.234 7.444 2.391 11.871 6.995 13.535 14.075 2.854 12.18-4.699 22.128-12.72 27.373-3.416 2.234-7.282 3.566-11.492 3.958-3.967.371-7.741.027-10.917-.991zm-10.455-38.3 1.914 5.409c-.138.735-.388 2.572-.516 6.641l-.004.079c-.161 4.955.869 9.971 2.825 13.761 1.556 3.009 4.139 5.113 7.685 6.251 2.707.869 5.978 1.157 9.456.832 3.554-.333 6.782-1.432 9.592-3.271 2.109-1.381 12.514-8.812 10.005-19.509-1.184-5.039-4.473-8.266-10.356-10.154-4.039-1.296-8.582-1.709-12.592-2.074-1.51-.136-2.934-.266-4.242-.434-4.872-.625-6.23-.792-10.643-.903"/><path stroke="#CD9C78" stroke-width="2.245" stroke-miterlimit="10" d="M198.016 189.273s-16.01 33.183-53.306 18.657" fill="none"/><path fill="#CD9C78" d="M202.513 194.722s5.315-17.547-14.524-7.585c0 0 14.901-5.246 14.524 7.585z"/><path fill="#603913" d="M175.972 120.133s30.362-25.954 50.212 4.643c0 0-21.636-19.348-50.212-4.643zM101.569 114.38s30.361-25.954 50.212 4.643c0 0-21.636-19.349-50.212-4.643z"/><g fill="#CD9C78"><path d="M136.03 166.486s13.01 36.608 37.562 5.76c0 0-22.251 17.534-37.562-5.76z"/><path opacity=".2" d="M136.03 166.486s11.217 52.199 37.562 5.76c0 0-22.251 17.534-37.562-5.76z"/></g><path fill="#E9BF9A" d="M171.058 281.503s-80.451-60.846-96.001-35.381l75.719 55.663"/><path opacity=".2" stroke="#231F20" stroke-width="2.677" stroke-miterlimit="10" d="M98.012 268.625s18.881 9.367 32.639 18.295" fill="none"/><path fill="#E9BF9A" d="M173.474 281.503s80.452-60.846 96.001-35.381c15.549 25.465-75.719 55.663-75.719 55.663"/><path opacity=".2" stroke="#231F20" stroke-width="2.677" stroke-miterlimit="10" d="M246.521 268.625s-18.881 9.367-32.638 18.295" fill="none"/><path fill="#fff" d="M243.411 283.972c.147-1.763-.003-3.612-.491-5.472-1.549-5.911-5.988-10.703-11.049-14.129-11.575-7.834-27.17-9.335-40.027-3.851-5.851 2.495-10.744 6.637-12.086 12.281-2.059-2.25-4.413-4.332-7.148-6.657-8.268-7.028-17.126-10.711-28.691-10.489-12.84.246-25.012 6.513-31.118 17.041-3.979 6.86-2.192 12.747.14 18.787-6.415-6.533-16.282-10.675-25.018-7.608-10.725 3.771-20.012 18.804-13.136 29.459.357.553.836 1.149 1.398 1.735-5.832 1.03-11.17 6.971-11.626 13.246-.508 6.993 3.739 13.773 9.626 17.582 4.548 2.942 9.643 3.968 14.886 4.668-1.392 5.618-.666 11.376 3.178 15.94 3.669 4.356 9.449 6.73 15.144 6.619 5.694-.111 11.234-2.595 15.404-6.474 3.096 9.194 7.521 15.117 15.868 20.341 6.34 3.969 14.95 8.142 22.633 8.142 12.691.98 25.644-3.931 34.771-12.746 2.743-2.65 7.01-6.975 8.201-11.257 7.874 4.275 19.452 6.818 23.366 7.126 28.404 2.232 52.494-26.61 52.379-53.316-.096-22.109-14.743-42.054-36.604-40.968z"/><path fill="#CCCBCB" d="M164.513 397.223c-1.098 0-2.205-.042-3.293-.124-8.401-.028-17.466-4.603-23.599-8.442-7.74-4.845-12.437-10.387-15.716-18.709-4.285 3.196-9.427 5.043-14.475 5.142l-.419.004c-6.323 0-12.404-2.738-16.267-7.324-3.546-4.21-4.939-9.67-4.013-15.557-4.61-.722-9.346-1.905-13.615-4.667-6.92-4.475-11.05-12.081-10.519-19.374.439-6.043 4.814-11.832 10.296-14.158-2.73-4.495-3.175-10.041-1.248-15.672 2.521-7.364 8.8-13.923 15.625-16.324 2.159-.759 4.452-1.142 6.817-1.142 4.991 0 10.268 1.749 14.941 4.842-.986-4.403-.858-8.958 2.072-14.01 6.291-10.848 18.852-17.753 32.781-18.021 11.464-.201 20.929 3.245 30.003 10.957 1.911 1.625 3.584 3.092 5.09 4.543 2.104-4.348 6.291-8 12.1-10.477 5.257-2.242 11.163-3.427 17.082-3.427 8.897 0 17.711 2.649 24.817 7.458 4.353 2.947 9.942 7.986 11.849 15.259.345 1.315.544 2.641.596 3.963 22.777.196 36.471 21.94 36.562 42.965.061 14.225-6.45 29.294-17.418 40.31-9.698 9.739-21.711 15.103-33.823 15.103h-.001c-1.082 0-2.178-.043-3.257-.128-3.857-.303-14.14-2.511-22.155-6.341-1.744 3.693-5.049 7.181-7.892 9.927-8.832 8.531-20.831 13.424-32.921 13.424zm-40.825-34.089l.972 2.888c3.034 9.011 7.253 14.423 15.048 19.302 5.715 3.578 14.101 7.843 21.589 7.843l.151.006c1.011.078 2.042.118 3.065.118 11.08 0 22.083-4.49 30.189-12.318 1.96-1.892 6.548-6.325 7.673-10.37l.661-2.379 2.171 1.178c7.854 4.263 19.181 6.626 22.581 6.892 12.018.943 24.239-4.04 33.986-13.829 10.246-10.29 16.329-24.315 16.273-37.518-.085-19.691-13.061-40.033-34.54-39.012l-2.244.112.187-2.24c.133-1.587-.012-3.206-.433-4.81-1.597-6.09-6.455-10.431-10.249-12.999-6.462-4.373-14.494-6.782-22.613-6.782-5.393 0-10.767 1.076-15.54 3.112-3.469 1.48-9.503 4.866-10.945 10.927l-.858 3.609-2.505-2.736c-1.925-2.104-4.095-4.042-6.971-6.487-8.414-7.151-16.823-10.25-27.38-10.021-12.563.241-23.849 6.396-29.455 16.061-3.518 6.066-3.867 11.827-1.561 17.8-4.951-5.04-12.877-6.673-18.854-6.673-1.92 0-3.775.31-5.513.92-5.749 2.022-11.057 7.603-13.208 13.887-1.121 3.276-1.845 8.129 1.072 12.651.29.449.694.949 1.167 1.442l2.541 2.657-3.62.639c-5.038.89-9.62 6.134-10.007 11.451-.428 5.883 3 12.08 8.733 15.788 4.025 2.605 8.539 3.631 14.078 4.37l2.177.291-.528 2.131c-.953 3.844-1.246 9.429 2.773 14.201 3.125 3.709 8.082 5.924 13.259 5.924l.343-.004c5.004-.098 10.144-2.266 14.102-5.948l2.233-2.074z"/><g fill="#CCCBCB"><path d="M213.617 310.392s-43.357 66.472-85.911 1.004c0 0 36.658 45.462 85.911-1.004zM148.751 330.704s-21.012 32.213-41.633.487c0 0 17.765 22.031 41.633-.487zM230.109 322.027s-16.507 25.306-32.707.382c0 0 13.956 17.308 32.707-.382z"/></g><path stroke="#D9923E" stroke-width="8.219" stroke-linecap="round" stroke-miterlimit="10" d="M67.926 211.749" fill="none"/><path fill="#E9BF9A" d="M75.264 213.153c-.28 0-.563-.004-.851-.013-8.411-.253-15-6.895-15-15.122 0-8.34 6.784-15.124 15.124-15.124 2.27 0 4.109 1.84 4.109 4.109 0 2.27-1.84 4.109-4.109 4.109-3.807 0-6.905 3.098-6.905 6.905 0 3.755 3.087 6.789 7.028 6.907 2.686.075 4.524-.354 5.462-1.294 1.199-1.202 1.381-3.645 1.322-5.482-.041-1.267-.292-2.362-.747-3.257-1.029-2.022-.224-4.497 1.799-5.525 2.023-1.03 4.497-.224 5.526 1.799 1.006 1.977 1.557 4.237 1.637 6.719.162 5.03-1.09 8.917-3.719 11.552-2.493 2.498-5.991 3.717-10.676 3.717zM255.601 213.153c.28 0 .563-.004.851-.013 8.411-.253 15-6.895 15-15.122 0-8.34-6.784-15.124-15.124-15.124-2.27 0-4.109 1.84-4.109 4.109 0 2.27 1.84 4.109 4.109 4.109 3.807 0 6.905 3.098 6.905 6.905 0 3.755-3.087 6.789-7.028 6.907-2.686.075-4.525-.354-5.462-1.294-1.199-1.202-1.381-3.645-1.322-5.482.041-1.267.292-2.362.747-3.257 1.029-2.022.224-4.497-1.799-5.525-2.023-1.03-4.497-.224-5.526 1.799-1.006 1.977-1.557 4.237-1.637 6.719-.162 5.03 1.09 8.917 3.719 11.552 2.493 2.498 5.991 3.717 10.676 3.717zM145.184 234.268c-25.468-2.606-54.546-9.545-71.508-26.671-11.796-11.912-12.121-23.061-12.13-23.582-.014-2.258-1.848-4.084-4.109-4.084-2.27 0-4.109 1.84-4.109 4.109 0 .584.158 14.458 13.916 28.732 15.75 16.341 42.049 26.34 78.273 29.802l-.333-8.306zM273.428 179.93c-2.261 0-4.095 1.826-4.109 4.084-.009.521-.334 11.67-12.13 23.582-16.528 16.688-44.563 23.707-69.549 26.466l-.573 8.348c35.342-3.611 61.054-13.556 76.554-29.639 13.758-14.274 13.916-28.148 13.916-28.732 0-2.269-1.84-4.109-4.109-4.109z"/></svg>