<?xml version="1.0" encoding="utf-8"?>
<!-- Generator: Adobe Illustrator 16.0.0, SVG Export Plug-In . SVG Version: 6.00 Build 0)  -->
<!DOCTYPE svg PUBLIC "-//W3C//DTD SVG 1.1//EN" "http://www.w3.org/Graphics/SVG/1.1/DTD/svg11.dtd">
<svg version="1.1" id="Layer_1" xmlns="http://www.w3.org/2000/svg" xmlns:xlink="http://www.w3.org/1999/xlink" x="0px" y="0px"
	 width="200px" height="70px" viewBox="0 0 200 70" enable-background="new 0 0 200 70" xml:space="preserve">
<g>
	<path fill="#B52126" d="M24.659,7.022v8.748h-7.006v-3.522h-5.977v6.887h7.521v5.265h-7.521v5.027h4.038v5.264H0.99v-5.264h2.454
		V12.247H0.99V7.022H24.659z"/>
	<path fill="#B52126" d="M26.243,34.689v-5.185h1.741v-9.46h-1.702v-5.146h7.441l1.188,2.533c1.029-1.9,2.059-3.523,6.135-3.523
		v7.125c-3.562,0-5.581,0.911-5.581,4.394v4.077h1.979v5.185H26.243z"/>
	<path fill="#B52126" d="M42.076,24.715c0.04-6.61,5.383-10.291,10.845-10.291c6.254,0.079,10.885,3.839,11.003,10.449
		c0.079,6.571-4.789,10.331-10.806,10.331C47.458,35.204,41.997,31.721,42.076,24.715z M55.81,24.873
		c0-2.968-1.029-5.264-2.889-5.304c-1.544,0-2.731,2.296-2.731,5.185c0,3.246,1.267,5.383,2.929,5.383
		C54.821,30.138,55.81,27.842,55.81,24.873z"/>
	<path fill="#B52126" d="M65.35,34.689v-5.185h1.662v-9.46H65.35v-5.146h8.431l0.91,2.454c1.346-1.86,3.167-3.167,5.66-3.167
		c6.135,0,7.165,4.552,7.165,8.708v6.61h1.86v5.185h-9.975V23.884c0-1.346,0.119-3.681-2.217-3.681
		c-2.019,0-2.494,1.979-2.494,3.681v5.621h2.85v5.185H65.35z"/>
	<path fill="#B52126" d="M92.701,14.899v-3.642l7.283-2.335v5.977h3.76v5.146h-3.76v7.045c0,1.346-0.277,3.167,1.266,3.167
		c0.515,0,1.742-0.356,2.494-0.673v5.066c-1.188,0.475-3.879,0.752-4.79,0.752c-5.937,0-6.135-3.246-6.254-8.312v-7.045h-2.137
		v-5.146H92.701z"/>
	<path fill="#B52126" d="M117.677,22.617v5.264h-11.479v-5.264H117.677z"/>
	<path fill="#B52126" d="M144.474,7.022v8.748h-6.848v-3.522h-6.333v5.462h7.521v5.265h-7.521v6.452h6.333v-3.681h6.848v8.945
		h-23.868v-5.264h2.494V12.247h-2.494V7.022H144.474z"/>
	<path fill="#B52126" d="M146.453,34.689v-5.185h1.663v-9.46h-1.663v-5.146h8.431l0.911,2.454c1.346-1.86,3.166-3.167,5.66-3.167
		c6.135,0,7.164,4.552,7.164,8.708v6.61h1.86v5.185h-9.975V23.884c0-1.346,0.118-3.681-2.217-3.681
		c-2.019,0-2.493,1.979-2.493,3.681v5.621h2.85v5.185H146.453z"/>
	<path fill="#B52126" d="M183.819,10.149V5.003h9.855v24.541h1.9v5.146h-9.262l-0.673-1.464c-0.515,0.475-2.257,1.821-4.987,1.821
		c-5.581,0-9.184-4.948-9.184-10.45c0-6.175,4.314-10.093,9.184-10.093c2.81,0,4.234,1.029,4.987,1.504v-5.858H183.819z
		 M182.83,29.465c1.543,0,2.969-1.939,2.811-5.066c0-2.691-1.347-4.75-2.851-4.75c-1.662,0-2.81,1.939-2.81,4.948
		C179.98,26.971,181.088,29.465,182.83,29.465z"/>
	<path fill="#AFAEAF" d="M8.442,51.325c0.374,0.234,0.798,0.645,1.272,1.23v-6.34h2.027v17.273H9.844v-1.746
		c-0.49,0.773-1.07,1.332-1.739,1.676c-0.67,0.344-1.436,0.516-2.3,0.516c-1.394,0-2.6-0.588-3.619-1.764s-1.529-2.74-1.529-4.693
		c0-1.828,0.465-3.412,1.395-4.752c0.93-1.34,2.259-2.01,3.986-2.01C6.995,50.716,7.796,50.919,8.442,51.325z M3.734,60.735
		c0.567,0.906,1.477,1.359,2.729,1.359c0.972,0,1.77-0.42,2.396-1.26c0.625-0.84,0.938-2.045,0.938-3.615
		c0-1.586-0.323-2.76-0.968-3.521s-1.442-1.143-2.39-1.143c-1.057,0-1.914,0.406-2.571,1.219c-0.657,0.812-0.985,2.008-0.985,3.586
		C2.883,58.704,3.167,59.829,3.734,60.735z"/>
	<path fill="#AFAEAF" d="M22.647,51.284c0.831,0.418,1.463,0.959,1.898,1.623c0.419,0.633,0.699,1.371,0.838,2.215
		c0.124,0.578,0.187,1.5,0.187,2.766h-9.129c0.039,1.277,0.337,2.302,0.896,3.073s1.422,1.157,2.593,1.157
		c1.093,0,1.965-0.365,2.616-1.095c0.364-0.424,0.623-0.914,0.774-1.472h2.074c-0.055,0.461-0.236,0.975-0.545,1.541
		s-0.653,1.029-1.033,1.389c-0.636,0.625-1.423,1.047-2.361,1.266c-0.504,0.125-1.074,0.188-1.71,0.188
		c-1.553,0-2.869-0.568-3.948-1.705s-1.619-2.729-1.619-4.775c0-2.016,0.543-3.652,1.63-4.91s2.508-1.887,4.263-1.887
		C20.958,50.657,21.816,50.866,22.647,51.284z M23.402,56.212c-0.085-0.914-0.283-1.645-0.593-2.191
		c-0.573-1.016-1.53-1.523-2.87-1.523c-0.96,0-1.766,0.35-2.417,1.049s-0.996,1.588-1.034,2.666H23.402z"/>
	<path fill="#AFAEAF" d="M29.496,59.552c0.063,0.703,0.243,1.242,0.538,1.617c0.542,0.68,1.483,1.02,2.823,1.02
		c0.797,0,1.499-0.17,2.105-0.51s0.909-0.865,0.909-1.576c0-0.539-0.242-0.949-0.727-1.23c-0.31-0.172-0.921-0.371-1.834-0.598
		l-1.703-0.422c-1.087-0.266-1.89-0.562-2.406-0.891c-0.921-0.57-1.381-1.359-1.381-2.367c0-1.188,0.434-2.148,1.3-2.883
		s2.033-1.102,3.498-1.102c1.916,0,3.298,0.555,4.145,1.664c0.531,0.703,0.788,1.461,0.772,2.273h-1.992
		c-0.04-0.474-0.212-0.905-0.516-1.294c-0.496-0.551-1.356-0.827-2.58-0.827c-0.815,0-1.433,0.151-1.853,0.455
		s-0.63,0.705-0.63,1.203c0,0.545,0.276,0.98,0.828,1.308c0.318,0.194,0.788,0.366,1.409,0.515l1.421,0.34
		c1.544,0.367,2.579,0.723,3.104,1.066c0.82,0.539,1.23,1.387,1.23,2.543c0,1.117-0.429,2.082-1.288,2.895
		c-0.858,0.812-2.165,1.219-3.921,1.219c-1.891,0-3.229-0.424-4.016-1.271s-1.208-1.896-1.264-3.146H29.496z"/>
	<path fill="#AFAEAF" d="M40.242,46.274h2.145v2.391h-2.145V46.274z M40.242,50.997h2.145v12.492h-2.145V50.997z"/>
	<path fill="#AFAEAF" d="M52.552,51.442c0.396,0.273,0.801,0.672,1.214,1.195v-1.582h1.945V62.47c0,1.594-0.233,2.852-0.701,3.773
		c-0.872,1.703-2.519,2.555-4.94,2.555c-1.347,0-2.48-0.303-3.399-0.908s-1.433-1.553-1.542-2.842h2.145
		c0.101,0.562,0.303,0.996,0.606,1.301c0.474,0.469,1.22,0.703,2.238,0.703c1.608,0,2.661-0.57,3.158-1.711
		c0.295-0.672,0.432-1.871,0.408-3.598c-0.42,0.641-0.926,1.117-1.518,1.43c-0.591,0.312-1.374,0.469-2.346,0.469
		c-1.354,0-2.539-0.482-3.554-1.447c-1.016-0.965-1.523-2.561-1.523-4.787c0-2.102,0.512-3.742,1.535-4.922s2.259-1.77,3.706-1.77
		C50.964,50.716,51.82,50.958,52.552,51.442z M52.81,53.704c-0.637-0.75-1.45-1.125-2.437-1.125c-1.477,0-2.487,0.695-3.031,2.086
		c-0.288,0.742-0.432,1.715-0.432,2.918c0,1.414,0.286,2.49,0.857,3.229s1.339,1.107,2.303,1.107c1.508,0,2.569-0.684,3.183-2.051
		c0.342-0.773,0.513-1.676,0.513-2.707C53.766,55.606,53.447,54.454,52.81,53.704z"/>
	<path fill="#AFAEAF" d="M58.922,50.938h2.004v1.781c0.594-0.734,1.223-1.262,1.887-1.582s1.402-0.48,2.215-0.48
		c1.781,0,2.984,0.621,3.609,1.863c0.344,0.68,0.516,1.652,0.516,2.918v8.051h-2.145v-7.91c0-0.766-0.113-1.383-0.34-1.852
		c-0.375-0.781-1.055-1.172-2.039-1.172c-0.5,0-0.91,0.051-1.23,0.152c-0.578,0.172-1.086,0.516-1.523,1.031
		c-0.352,0.414-0.58,0.842-0.686,1.283s-0.158,1.072-0.158,1.893v6.574h-2.109V50.938z"/>
	<path fill="#AFAEAF" d="M87.229,51.606c0.887,0.688,1.42,1.871,1.6,3.551h-2.051c-0.125-0.773-0.41-1.416-0.855-1.928
		s-1.16-0.768-2.145-0.768c-1.344,0-2.305,0.655-2.883,1.967c-0.375,0.85-0.562,1.899-0.562,3.148c0,1.256,0.266,2.313,0.797,3.172
		s1.367,1.287,2.508,1.287c0.875,0,1.568-0.267,2.08-0.8s0.865-1.263,1.061-2.188h2.051c-0.234,1.664-0.82,2.881-1.758,3.65
		s-2.137,1.154-3.598,1.154c-1.641,0-2.949-0.6-3.926-1.799s-1.465-2.697-1.465-4.494c0-2.203,0.535-3.918,1.605-5.145
		s2.434-1.84,4.09-1.84C85.191,50.575,86.342,50.919,87.229,51.606z"/>
	<path fill="#AFAEAF" d="M100.031,52.191c1.109,1.077,1.664,2.661,1.664,4.753c0,2.022-0.488,3.692-1.466,5.012
		c-0.978,1.319-2.494,1.979-4.55,1.979c-1.714,0-3.076-0.583-4.084-1.75c-1.009-1.167-1.513-2.734-1.513-4.701
		c0-2.107,0.531-3.786,1.594-5.035c1.062-1.248,2.49-1.873,4.282-1.873C97.564,50.575,98.922,51.114,100.031,52.191z M98.722,60.532
		c0.514-1.058,0.771-2.233,0.771-3.529c0-1.17-0.186-2.122-0.556-2.855c-0.587-1.155-1.599-1.732-3.036-1.732
		c-1.275,0-2.202,0.491-2.781,1.475c-0.58,0.983-0.869,2.17-0.869,3.559c0,1.334,0.29,2.446,0.869,3.336
		c0.579,0.89,1.499,1.334,2.758,1.334C97.26,62.118,98.208,61.59,98.722,60.532z"/>
	<path fill="#AFAEAF" d="M104.285,50.938h2.004v1.781c0.594-0.734,1.223-1.262,1.887-1.582s1.402-0.48,2.215-0.48
		c1.781,0,2.984,0.621,3.609,1.863c0.344,0.68,0.516,1.652,0.516,2.918v8.051h-2.145v-7.91c0-0.766-0.113-1.383-0.34-1.852
		c-0.375-0.781-1.055-1.172-2.039-1.172c-0.5,0-0.91,0.051-1.23,0.152c-0.578,0.172-1.086,0.516-1.523,1.031
		c-0.352,0.414-0.58,0.842-0.686,1.283s-0.158,1.072-0.158,1.893v6.574h-2.109V50.938z"/>
	<path fill="#AFAEAF" d="M118.617,47.106c0.492-0.719,1.441-1.078,2.848-1.078c0.133,0,0.27,0.004,0.41,0.012s0.301,0.02,0.48,0.035
		v1.922c-0.221-0.016-0.381-0.025-0.479-0.029c-0.1-0.004-0.192-0.006-0.279-0.006c-0.647,0-1.035,0.166-1.161,0.498
		s-0.189,1.178-0.189,2.537h2.109v1.664h-2.109v10.828h-2.086V52.661h-1.746v-1.664h1.746v-1.969
		C118.191,48.153,118.344,47.513,118.617,47.106z"/>
	<path fill="#AFAEAF" d="M132.053,51.284c0.831,0.418,1.464,0.959,1.898,1.623c0.42,0.633,0.699,1.371,0.839,2.215
		c0.124,0.578,0.187,1.5,0.187,2.766h-9.129c0.039,1.277,0.337,2.302,0.896,3.073c0.558,0.771,1.422,1.157,2.593,1.157
		c1.093,0,1.965-0.365,2.616-1.095c0.364-0.424,0.622-0.914,0.774-1.472h2.074c-0.055,0.461-0.236,0.975-0.545,1.541
		s-0.653,1.029-1.033,1.389c-0.636,0.625-1.423,1.047-2.36,1.266c-0.504,0.125-1.074,0.188-1.71,0.188
		c-1.553,0-2.868-0.568-3.947-1.705c-1.08-1.137-1.619-2.729-1.619-4.775c0-2.016,0.543-3.652,1.631-4.91
		c1.087-1.258,2.508-1.887,4.263-1.887C130.364,50.657,131.223,50.866,132.053,51.284z M132.809,56.212
		c-0.085-0.914-0.283-1.645-0.593-2.191c-0.573-1.016-1.53-1.523-2.87-1.523c-0.961,0-1.767,0.35-2.417,1.049
		s-0.995,1.588-1.034,2.666H132.809z"/>
	<path fill="#AFAEAF" d="M137.707,50.938h2.004v2.168c0.164-0.422,0.566-0.936,1.207-1.541s1.379-0.908,2.215-0.908
		c0.039,0,0.105,0.004,0.199,0.012s0.254,0.023,0.48,0.047v2.227c-0.125-0.023-0.24-0.039-0.346-0.047s-0.221-0.012-0.346-0.012
		c-1.062,0-1.879,0.342-2.449,1.025s-0.855,1.471-0.855,2.361v7.219h-2.109V50.938z"/>
	<path fill="#AFAEAF" d="M153.393,51.284c0.831,0.418,1.464,0.959,1.898,1.623c0.42,0.633,0.699,1.371,0.839,2.215
		c0.124,0.578,0.187,1.5,0.187,2.766h-9.129c0.039,1.277,0.337,2.302,0.896,3.073c0.558,0.771,1.422,1.157,2.593,1.157
		c1.093,0,1.965-0.365,2.616-1.095c0.364-0.424,0.622-0.914,0.774-1.472h2.074c-0.055,0.461-0.236,0.975-0.545,1.541
		s-0.653,1.029-1.033,1.389c-0.636,0.625-1.423,1.047-2.36,1.266c-0.504,0.125-1.074,0.188-1.71,0.188
		c-1.553,0-2.868-0.568-3.947-1.705c-1.08-1.137-1.619-2.729-1.619-4.775c0-2.016,0.543-3.652,1.631-4.91
		c1.087-1.258,2.508-1.887,4.263-1.887C151.704,50.657,152.562,50.866,153.393,51.284z M154.148,56.212
		c-0.085-0.914-0.283-1.645-0.593-2.191c-0.573-1.016-1.53-1.523-2.87-1.523c-0.961,0-1.767,0.35-2.417,1.049
		s-0.995,1.588-1.034,2.666H154.148z"/>
	<path fill="#AFAEAF" d="M158.988,50.938h2.004v1.781c0.594-0.734,1.223-1.262,1.887-1.582s1.402-0.48,2.215-0.48
		c1.781,0,2.984,0.621,3.609,1.863c0.344,0.68,0.516,1.652,0.516,2.918v8.051h-2.145v-7.91c0-0.766-0.113-1.383-0.34-1.852
		c-0.375-0.781-1.055-1.172-2.039-1.172c-0.5,0-0.91,0.051-1.23,0.152c-0.578,0.172-1.086,0.516-1.523,1.031
		c-0.352,0.414-0.58,0.842-0.686,1.283s-0.158,1.072-0.158,1.893v6.574h-2.109V50.938z"/>
	<path fill="#AFAEAF" d="M180.627,51.606c0.887,0.688,1.42,1.871,1.6,3.551h-2.051c-0.125-0.773-0.41-1.416-0.855-1.928
		s-1.16-0.768-2.145-0.768c-1.344,0-2.305,0.655-2.883,1.967c-0.375,0.85-0.562,1.899-0.562,3.148c0,1.256,0.266,2.313,0.797,3.172
		s1.367,1.287,2.508,1.287c0.875,0,1.568-0.267,2.08-0.8s0.865-1.263,1.061-2.188h2.051c-0.234,1.664-0.82,2.881-1.758,3.65
		s-2.137,1.154-3.598,1.154c-1.641,0-2.949-0.6-3.926-1.799s-1.465-2.697-1.465-4.494c0-2.203,0.535-3.918,1.605-5.145
		s2.434-1.84,4.09-1.84C178.59,50.575,179.74,50.919,180.627,51.606z"/>
	<path fill="#AFAEAF" d="M192.088,51.284c0.831,0.418,1.464,0.959,1.898,1.623c0.42,0.633,0.699,1.371,0.839,2.215
		c0.124,0.578,0.187,1.5,0.187,2.766h-9.129c0.039,1.277,0.337,2.302,0.896,3.073c0.558,0.771,1.422,1.157,2.593,1.157
		c1.093,0,1.965-0.365,2.616-1.095c0.364-0.424,0.622-0.914,0.774-1.472h2.074c-0.055,0.461-0.236,0.975-0.545,1.541
		s-0.653,1.029-1.033,1.389c-0.636,0.625-1.423,1.047-2.36,1.266c-0.504,0.125-1.074,0.188-1.71,0.188
		c-1.553,0-2.868-0.568-3.947-1.705c-1.08-1.137-1.619-2.729-1.619-4.775c0-2.016,0.543-3.652,1.631-4.91
		c1.087-1.258,2.508-1.887,4.263-1.887C190.399,50.657,191.258,50.866,192.088,51.284z M192.844,56.212
		c-0.085-0.914-0.283-1.645-0.593-2.191c-0.573-1.016-1.53-1.523-2.87-1.523c-0.961,0-1.767,0.35-2.417,1.049
		s-0.995,1.588-1.034,2.666H192.844z"/>
</g>
<g>
</g>
<g>
</g>
<g>
</g>
<g>
</g>
<g>
</g>
<g>
</g>
</svg>
