<?xml version="1.0" encoding="utf-8"?>
<!-- Generator: Adobe Illustrator 16.0.0, SVG Export Plug-In . SVG Version: 6.00 Build 0)  -->
<!DOCTYPE svg PUBLIC "-//W3C//DTD SVG 1.1//EN" "http://www.w3.org/Graphics/SVG/1.1/DTD/svg11.dtd">
<svg version="1.1" id="Layer_1" xmlns="http://www.w3.org/2000/svg" xmlns:xlink="http://www.w3.org/1999/xlink" x="0px" y="0px"
	 width="480px" height="500px" viewBox="0 0 480 500" enable-background="new 0 0 480 500" xml:space="preserve">
<symbol  id="james" viewBox="-135.009 -179.718 270.017 359.436">
	<polygon fill="#939598" points="8.659,-88.167 -21.788,-84.938 -8.199,-173.584 -5.218,-172.898 -14.562,-98.574 10.789,-91.271 
		102.986,-83.685 102.621,-81.047 	"/>
	<path fill="#231F20" d="M-19.951,81.068c0,0,11.166,79.275,51.583,82.461l1.64-6.879c0,0-38.83-6.057-40.074-69.666"/>
	<path fill="#EAC19C" d="M24.922,154.087c-3.502,3.361-4.34,8.548-1.863,11.525c2.479,2.978,4.484,7.205,4.459,9.395
		c-0.026,2.19,2.453,4.282,5.506,4.651c3.056,0.37,6.244-1.002,5.898-2.987c-0.347-1.984-1.221-2.452-0.753-1.101
		c0.468,1.353,3.706,4.59,8.948-0.418c2.949-2.814,3.498-5.869,2.119-7.271c-1.381-1.401,1.264-1.317,5.88,0.189l6.714,2.189
		c4.615,1.507,9.416,0.565,10.67-2.091c1.254-2.655-1.459-6.172-6.025-7.813l-14.926-5.361c-4.568-1.641-5.63-4.896-2.358-7.236
		c3.269-2.338,4.212-6.734,2.094-9.77c-2.114-3.035-6.713-2.77-10.214,0.594L24.922,154.087z"/>
	<polyline fill="#231F20" points="11.912,-27.588 14.162,-88.79 -21.192,-94.74 -35.666,-22.152 	"/>
	<path fill="#EAC19C" d="M13.523,101.533c-22.703,37.193-66.271,51.984-97.31,33.039c-31.042-18.947-63.428-62.678-40.726-99.87
		C-101.811-2.491-32.618-19.062-1.577-0.115C29.464,18.829,36.224,64.34,13.523,101.533z"/>
	<path opacity="0.15" fill="#231F20" d="M15.406-175.806c-54.688,0-99.024-0.876-99.024-1.956c0-1.081,44.336-1.956,99.024-1.956
		s99.031,0.875,99.031,1.956C114.438-176.682,70.095-175.806,15.406-175.806z"/>
	<path fill="#231F20" d="M102.01-81.449c0,0,4.217,2.575,4.31,8.926l1.299,0.158c0,0,0.527-8.153-3.408-10.549l2.979,0.123
		l-0.325-2.71l-5.364,0.928L102.01-81.449z"/>
	<path fill="#231F20" d="M-8.331-172.246c0,0-2.637-4.179-8.986-4.179l-0.178-1.297c0,0,8.145-0.646,10.596,3.255l-0.164-2.978
		l2.714,0.286L-5.2-171.78L-8.331-172.246z"/>
	<path fill="#231F20" d="M28.368-2.792c0,0,77.673,10.416,81.055,49.955l-6.724,1.652c0,0-6.181-37.972-68.453-38.774"/>
	<path fill="#EAC19C" d="M60.499,2.059c0,0,2.842,72.45-40.549,77.831l-71.655-39.817l1.408-52.108l29.259-20.23
		c0,0,18.521-15.295,49.087-2.243C28.049-34.51,59.099-27.463,60.499,2.059z"/>
	<g>
		<path opacity="0.3" fill="#D09F78" d="M8.857,90.477c0,0-8.632-13.396-3.604-24.564c0,0,18.714-19.323,21.416,11.496
			C26.67,77.408,18.405,94.027,8.857,90.477z"/>
		<path fill="none" stroke="#D09F78" stroke-width="0.6009" d="M16.07,93.744c0,0-16.616-19.918-14.058-27.906
			c0,0,2.55-8.206,10.357-3.775"/>
		<path fill="none" stroke="#D09F78" stroke-width="0.6009" d="M11.592,64.999c0,0,13.555-13.121,19.846,9.729"/>
		<path fill="none" stroke="#D09F78" stroke-width="0.6009" d="M9.61,66.341c0,0-12.995,13.08,10.044,18.747"/>
		<path fill="#FFFFFF" stroke="#D09F78" stroke-width="0.6009" d="M19.95,79.89c-4.045,2.546-9.375,1.354-11.937-2.705
			c-2.547-4.038-1.34-9.377,2.7-11.927c4.042-2.552,9.386-1.351,11.946,2.702C25.204,71.994,23.997,77.342,19.95,79.89z"/>
		<path fill="#29AAE1" d="M8.553,67.294c-1.334,2.335-0.537,5.305,1.799,6.647c2.336,1.336,5.305,0.537,6.645-1.797
			c1.343-2.337,0.538-5.311-1.791-6.652C12.864,64.152,9.895,64.957,8.553,67.294z"/>
		<path fill="#231F20" d="M8.89,66.724c-0.691,1.202-0.278,2.727,0.919,3.41c1.199,0.692,2.723,0.278,3.412-0.919
			c0.689-1.199,0.277-2.728-0.922-3.418C11.104,65.113,9.579,65.525,8.89,66.724z"/>
		<path fill="#FFFFFF" d="M11.336,69.689c-0.353,0.609-0.143,1.383,0.465,1.73c0.608,0.345,1.382,0.139,1.732-0.467
			c0.348-0.61,0.138-1.383-0.467-1.731C12.456,68.871,11.68,69.079,11.336,69.689z"/>
	</g>
	<g>
		<path opacity="0.3" fill="#D09F78" d="M-43.941,26.172c0,0,7.188,23.013,21.09,29.55c0,0,33.599,3.14,11.027-28.429
			C-11.824,27.293-37.742,15.009-43.941,26.172z"/>
		<path fill="none" stroke="#D09F78" stroke-width="0.7538" d="M-33.812,47.868c5.754,3.369,13.783,8.395,20.795,7.505
			c6.875-0.87,9.466-8.003,5.863-13.632"/>
		<path fill="none" stroke="#D09F78" stroke-width="0.7538" d="M-10.785,42.907c0,0,15.581-17.818-13.444-24.262"/>
		<path fill="none" stroke="#D09F78" stroke-width="0.7538" d="M-12.34,45.467c0,0-15.572,17.109-24.135-11.405"/>
		<path fill="#FFFFFF" stroke="#D09F78" stroke-width="0.7538" d="M-29.981,33.369c-2.928,5.229-1.092,11.844,4.149,14.785
			c5.223,2.938,11.834,1.092,14.771-4.133c2.944-5.223,1.095-11.852-4.143-14.792C-20.413,26.293-27.036,28.146-29.981,33.369z"/>
		<path fill="#29AAE1" d="M-11.805,45.299c-1.839,2.832-5.608,3.638-8.443,1.802c-2.833-1.843-3.641-5.614-1.803-8.455
			c1.845-2.823,5.617-3.633,8.452-1.798C-10.762,38.683-9.963,42.469-11.805,45.299z"/>
		<path fill="#231F20" d="M-11.935,45.438c-0.939,1.452-2.876,1.863-4.331,0.931c-1.457-0.949-1.874-2.892-0.931-4.344
			c0.942-1.456,2.89-1.871,4.347-0.927C-11.396,42.04-10.986,43.983-11.935,45.438z"/>
		<path fill="#FFFFFF" d="M-15.794,43.712c-0.479,0.74-1.464,0.951-2.2,0.469c-0.736-0.48-0.948-1.463-0.474-2.2
			c0.484-0.738,1.469-0.948,2.206-0.47C-15.521,41.992-15.321,42.979-15.794,43.712z"/>
	</g>
	<path fill="none" stroke="#D09F78" stroke-width="0.6054" d="M-10.38,74.459c0,0,0.861-10.849,6.816-11.826"/>
	<path fill="none" stroke="#D09F78" stroke-width="0.6054" d="M-17.703,68.493c0,0,10.586-2.455,10.669-8.501"/>
	<path fill="#D09F78" d="M10.482,30.984c0,0,38.127-11.434,23.172,19.449C33.654,50.434,41.756,31.095,10.482,30.984z"/>
	<path fill="#C7AC6E" d="M-8.007,56.376l-9.223,9.074c0,0-20.342-19.318-40.452-22.289l3.285-12.914
		C-54.396,30.247-27.241,25.918-8.007,56.376z"/>
	<path fill="#C7AC6E" d="M0.883,67.252l-5.842,6.124c0,0,14.521,12.131,17.644,24.688l8.824-2.521
		C21.509,95.543,23.108,78.293,0.883,67.252z"/>
	<path fill="#C2E1F6" d="M-96.567-3.282c0,0-38.462-19.302-20.954-31.1C-100.011-46.179-96.567-3.282-96.567-3.282z"/>
	<path fill="#C2E1F6" d="M-107.801,5.522c0,0-32.693,3.696-26.404-11.17C-127.914-20.513-107.801,5.522-107.801,5.522z"/>
	<path fill="#C2E1F6" d="M29.938,91.162c0,0,20.175,21.35,24.447,7.588C58.658,84.984,29.938,91.162,29.938,91.162z"/>
	<path fill="#C2E1F6" d="M26.389,100.233c0,0,4.008,22.099,12.49,15.066S26.389,100.233,26.389,100.233z"/>
	<path fill="#D09F78" d="M-76.723-0.634c0,0,4.094,1.801,9.927-0.009c0,0-4.233,3.353-11.677,1.144L-76.723-0.634z"/>
	<path fill="#C7AC6E" d="M-77.784,0.145c0,0-27.406,44.106-49.92,40.631C-127.704,40.775-120.316,8.632-77.784,0.145z"/>
	<path fill="#EAC19C" d="M-68.774-0.707c0,0-20.658,4.696-20.877-15.776c-0.256-25.536,31.105-7.694,31.105-7.694
		s10.04,5.547,16.09-5.235c6.045-10.782,9.22-13.665,13.017-11.621c3.779,2.061,5.754,10.151,1.522,15.745
		C-49.422,3.15-68.774-0.707-68.774-0.707z"/>
	<g>
		<path fill="#D09F78" d="M-52.316-13.442c0,0-39.329,12.664-16.803-7.094C-69.119-20.536-79.589-7.148-52.316-13.442z"/>
		<path fill="#D09F78" d="M-52.164-13.427c0,0-21.758,3.724-0.486-8.907C-52.65-22.334-65.309-13.06-52.164-13.427z"/>
	</g>
	<path fill="#D09F78" d="M-26.131-28.744c0,0-1.391,5.389-3.966,9.539c0,0,5.007-5.063,5.805-10.812L-26.131-28.744z"/>
	<g>
		<path fill="#E8594D" d="M-13.238-22.391C-9.673-15.882-6.094-11.083-2.59-7.604c3.357-3.821,8.111-6.383,13.404-6.813
			c2.119-0.781,4.396-1.211,6.758-1.211c2.113,0,4.155,0.35,6.08,0.98c0,0,0.003-0.002,0.005-0.003
			c-3.738-5.173-4.486-11.982-4.457-18.185C19.248-43.43,24.853-65.997,7.305-64.37c-10.482,0.974-22.317,6.728-24.706,17.855
			C-18.973-39.193-16.811-28.91-13.238-22.391z"/>
		<path fill="#AD493E" d="M6.919-13.698c1.035-0.303,2.1-0.527,3.191-0.656C3.824-20.67-0.922-31.35,1.694-49.416
			C1.694-49.416-7.248-27.86,6.919-13.698z"/>
		<path fill="none" stroke="#B4886B" stroke-width="1.0054" d="M-4.165-5.839c0,0,14.641-19.721,41.686-2.705"/>
	</g>
	<path fill="#EAC19C" d="M100.322,47.969c1.309-4.566,5.415-7.664,9.125-6.883c3.711,0.783,8.287,0.589,10.171-0.434
		c1.884-1.024,4.829,0.165,6.544,2.64c1.716,2.476,1.987,5.862,0.109,6.472c-1.876,0.607-2.681,0.064-1.297-0.15
		c1.385-0.212,5.666,1.111,3.73,7.938c-1.088,3.84-3.481,5.712-5.326,5.158c-1.845-0.555-0.562,1.697,2.852,5.003l4.966,4.811
		c3.413,3.307,4.794,7.895,3.067,10.192c-1.726,2.298-6.011,1.559-9.518-1.646l-11.465-10.467c-3.509-3.203-6.812-2.634-7.342,1.266
		c-0.53,3.899-3.904,6.726-7.5,6.28c-3.593-0.442-5.466-4.545-4.154-9.114L100.322,47.969z"/>
	<path fill="#B4886B" d="M0.118-3.775c0,0-12.41,4.158-8.32-6.876C-8.202-10.651-10.459-2.225,0.118-3.775z"/>
	<path fill="none" stroke="#C7AC6E" stroke-miterlimit="10" d="M-100.328,110.494c0,0-5.317,5.937-15.301,7.5"/>
	<path fill="none" stroke="#C7AC6E" stroke-miterlimit="10" d="M-94.289,118.09c0,0-3.271,7.268-12.314,11.777"/>
	<path fill="none" stroke="#C7AC6E" stroke-miterlimit="10" d="M-86.024,126.798c0,0-0.545,7.951-7.461,15.319"/>
</symbol>
<use xlink:href="#james"  width="270.017" height="359.436" x="-135.009" y="-179.718" transform="matrix(1.3259 0 0 -1.3259 238.7686 253.7471)" overflow="visible"/>
<g>
</g>
<g>
</g>
<g>
</g>
<g>
</g>
<g>
</g>
<g>
</g>
<g>
</g>
<g>
</g>
<g>
</g>
<g>
</g>
</svg>
