<svg xmlns="http://www.w3.org/2000/svg" width="480" height="500"><path fill="#9CD9EF" d="M384.849 65.205c.057-.556.336-1.19.641-1.637 1.531-2.267 4.101-2.817 6.502-3.068 5.216-.546 8.606 2.463 11.2 6.911 1.449 2.482 2.178 5.359 2.393 8.288.462 6.213-1.066 13.188-5.655 17.509-4.206 3.96-15.389 9.77-18.174 1.365-.507-1.524-.412-5.492.939-6.661 4.17-3.61 4.708 8.321 4.657 10.202-.201 7.498-5.435 11.527-11.175 14.706-3.276 1.817-6.833 2.912-10.423 3.651-7.129 1.46-15.588 2.443-22.145-1.271-6.299-3.57-15.515-13.81-10.146-22.128 1.508-2.128 4.606-2.761 6.057-.495 1.029 1.719.76 4.809-.434 6.368-1.594 2.085-4.469 3.011-6.78 3.68-2.286.664-5.214.467-7.563.527-10.812.274-22.229-4.784-24.191-17.211-.464-2.946-.751-6.697-.195-9.678 1.257-6.746 3.616-13.935 8.901-18.339 1.552-1.291 3.688-2.088 5.655-1.974 1.891.108 3.91.574 5.013 2.266.625.957 1.836 2.81 1.609 4.087-.251 1.396-1.557.49-2.286-.076-3.638-2.838-4.774-8.236-2.819-12.625 3.984-8.951 14.455-13.15 23.057-13.621 2.408-.13 4.953-.103 7.335.229 3.767.529 7.781 1.543 10.848 3.99 1.514 1.208 7.949 7.041 1.723 13.914-.904.999-1.894.582-1.894-.918.006-11.594 6.846-11.457 9.646-11.918 5.449-.894 11.237 1.451 15.434 4.944 1.197.995 2.328 2.136 3.335 3.346.892 1.079 1.686 2.267 2.378 3.501 1.013 1.813 2.005 3.762 2.11 5.935.089 1.898-2.189 7.341-4.415 7.388-.938.018-1.202-.527-1.138-1.187z"/><path stroke="#fff" stroke-width="2.232" stroke-miterlimit="10" d="M377.362 68.141c.042-.424.257-.909.49-1.25 1.169-1.731 3.133-2.152 4.967-2.345 3.984-.416 6.576 1.882 8.559 5.281 1.105 1.896 1.661 4.096 1.826 6.332.354 4.749-.814 10.076-4.32 13.377-3.213 3.026-11.757 7.465-13.886 1.043-.387-1.163-.312-4.195.717-5.088 3.188-2.758 3.598 6.356 3.56 7.794-.153 5.729-4.151 8.807-8.537 11.236-2.504 1.389-5.221 2.224-7.964 2.789-5.445 1.116-11.91 1.868-16.917-.971-4.812-2.728-11.854-10.55-7.752-16.905 1.151-1.628 3.519-2.111 4.626-.379.789 1.315.583 3.676-.33 4.867-1.217 1.592-3.414 2.3-5.181 2.81-1.744.506-3.981.358-5.779.403-8.258.21-16.981-3.655-18.48-13.149-.354-2.251-.573-5.117-.15-7.394.962-5.155 2.765-10.647 6.804-14.012 1.185-.985 2.816-1.595 4.318-1.509 1.444.083 2.986.439 3.83 1.733.478.73 1.402 2.147 1.229 3.121-.19 1.068-1.191.376-1.746-.057-2.779-2.168-3.647-6.29-2.156-9.646 3.045-6.838 11.045-10.045 17.617-10.405 1.839-.1 3.783-.081 5.603.174 2.878.404 5.945 1.179 8.289 3.048 1.156.923 6.071 5.38 1.314 10.631-.689.764-1.445.442-1.445-.703.005-8.857 5.231-8.752 7.367-9.104 4.164-.683 8.587 1.109 11.795 3.777.912.759 1.778 1.633 2.547 2.557.682.825 1.288 1.73 1.816 2.674.774 1.385 1.532 2.875 1.613 4.536.066 1.449-1.674 5.607-3.376 5.643-.714.012-.917-.404-.868-.909z" fill="none"/><path fill="#9CD9EF" d="M253.859 23.9c.027-.279.168-.595.32-.818.764-1.132 2.049-1.407 3.248-1.533 2.605-.271 4.299 1.231 5.594 3.453.725 1.24 1.088 2.677 1.195 4.14.23 3.103-.533 6.588-2.825 8.747-2.102 1.978-7.688 4.88-9.078.682-.253-.762-.207-2.744.468-3.328 2.084-1.803 2.354 4.156 2.328 5.097-.102 3.745-2.715 5.757-5.582 7.345-1.637.908-3.414 1.455-5.206 1.824-3.562.73-7.788 1.221-11.063-.634-3.146-1.784-7.75-6.899-5.068-11.054.753-1.063 2.302-1.379 3.025-.247.515.858.38 2.403-.216 3.181-.796 1.042-2.233 1.504-3.387 1.838-1.142.332-2.604.234-3.778.263-5.401.137-11.103-2.39-12.083-8.597-.232-1.472-.375-3.345-.099-4.834.629-3.372 1.808-6.962 4.447-9.161.774-.646 1.844-1.042 2.825-.986.944.054 1.953.287 2.503 1.132.312.478.918 1.403.804 2.041-.125.697-.778.246-1.143-.038-1.816-1.418-2.385-4.114-1.409-6.306 1.992-4.471 7.222-6.569 11.517-6.804 1.204-.065 2.475-.051 3.664.115 1.882.264 3.888.77 5.42 1.993.756.604 3.972 3.518.86 6.952-.452.498-.946.29-.946-.459.004-5.792 3.421-5.724 4.818-5.953 2.722-.447 5.614.724 7.71 2.469.598.497 1.162 1.067 1.666 1.671.444.54.841 1.133 1.188 1.748.506.906 1 1.879 1.053 2.965.045.948-1.093 3.667-2.206 3.691-.464.007-.596-.265-.564-.595z"/><path stroke="#fff" stroke-width="1.115" stroke-miterlimit="10" d="M250.119 25.368c.021-.212.129-.455.244-.625.585-.864 1.565-1.076 2.48-1.172 1.991-.208 3.286.94 4.276 2.639.554.948.83 2.045.913 3.163.176 2.372-.407 5.034-2.159 6.682-1.604 1.512-5.872 3.729-6.936.521-.193-.581-.157-2.096.357-2.542 1.593-1.377 1.797 3.175 1.779 3.894-.077 2.861-2.074 4.399-4.266 5.612-1.252.694-2.607 1.111-3.978 1.394-2.721.559-5.948.933-8.451-.484-2.406-1.363-5.922-5.271-3.873-8.445.575-.813 1.759-1.054 2.312-.189.394.657.291 1.835-.165 2.431-.608.795-1.706 1.149-2.587 1.403-.872.253-1.991.18-2.89.202-4.123.104-8.48-1.826-9.229-6.569-.177-1.124-.289-2.556-.077-3.692.481-2.576 1.381-5.32 3.4-7 .591-.492 1.407-.797 2.157-.753.721.042 1.491.219 1.912.865.24.364.702 1.072.615 1.559-.095.534-.595.188-.873-.028-1.388-1.083-1.822-3.143-1.077-4.818 1.521-3.416 5.518-5.017 8.8-5.197.92-.05 1.891-.04 2.799.085 1.438.204 2.97.591 4.141 1.524.577.461 3.032 2.688.656 5.311-.344.381-.723.221-.723-.351.003-4.425 2.614-4.373 3.683-4.548 2.079-.341 4.288.553 5.889 1.887.457.379.889.815 1.273 1.278.342.412.645.864.908 1.334.387.691.765 1.438.805 2.267.033.724-.836 2.801-1.686 2.818-.353.004-.453-.205-.429-.456z" fill="none"/><path fill="#C16559" d="M228.22 317.361c-23.499-8.308-34.894-17.2-34.833-27.184.085-13.745 22.377-21.719 24.919-22.584l2.433 7.155c-6.445 2.201-19.758 8.88-19.793 15.478-.016 2.844 2.857 10.487 29.795 20.013l-2.521 7.122zm-7.482-42.612l-1.217-3.577 1.218 3.576-.001.001z"/><path fill="#C16559" d="M279.59 292.142c-10.798 0-22.131-4.571-33.836-13.676l4.638-5.966c13.919 10.825 26.897 14.389 38.575 10.59 26.587-8.651 39.339-51.925 39.464-52.36l7.263 2.092c-.56 1.939-14.03 47.577-44.389 57.454-3.827 1.245-7.737 1.866-11.715 1.866z"/><path fill="#E9C09B" d="M201.225 291.886c-1.458-.341-2.914-.684-4.375-1.01-1.151-.257-2.306-.499-3.459-.748l-.004.05c-.06 9.983 11.334 18.876 34.833 27.184l2.52-7.122c-22.763-8.051-28.342-14.754-29.515-18.354z"/><path fill="#E9C09B" d="M328.431 230.729c-.125.436-12.877 43.709-39.464 52.36-1.68.546-3.389.921-5.119 1.163.159 2.525.261 5.054.312 7.583 2.411-.295 4.795-.795 7.146-1.561 30.358-9.877 43.829-55.515 44.389-57.454l-7.264-2.091z"/><polygon fill="#0E73BA" points="223.121,310.419 251.45,309.622 249.68,486.33 247.264,486.067 248.346,324.179 226.523,325.354 225.427,485.655 223.096,485.77"/><polygon fill="#C16559" points="254.816,319.309 256.324,266.911 219.433,267.534 220.684,319.309"/><path fill="#070507" d="M249.753 486.293s2.024 3.362 7.077 3.456l.114 1.036s-6.474.397-8.367-2.743l.083 2.363-2.147-.255.753-4.271 2.487.414z"/><path fill="#070507" d="M222.822 485.734s-2.158 3.28-7.206 3.187l-.159 1.03s6.462.637 8.468-2.427l-.177 2.364 2.165-.19-.597-4.286-2.494.322z"/><path fill="#E9C09B" d="M326.856 237.342c2.536 2.165 6.076 2.442 7.867.616 1.791-1.826 5.952-2.902 9.247-2.392l1.176.183c3.295.511 6.378-.928 6.852-3.197.473-2.27-1.868-4.188-5.202-4.263l-2.017-.046c-3.334-.075-4.237-2.166-2.008-4.645l5.233-5.818c2.229-2.479 2.637-5.903.904-7.607s-4.895-1.002-7.028 1.561l-5.011 6.021c-2.134 2.562-3.294 1.995-2.578-1.262l.9-4.101c.716-3.257-.191-6.453-2.015-7.103-1.823-.65-3.979 1.465-4.789 4.7l-2.434 9.709c-.812 3.234-2.907 4.244-4.659 2.244s-4.707-2.333-6.569-.74c-1.861 1.594-1.309 4.669 1.228 6.833l10.903 9.307z"/><ellipse fill="#231F20" cx="241.173" cy="107.98" rx="82.906" ry="73.325"/><path fill="#231F20" d="M315.649 77.939c-16.403-18.365-52.636-50.843-97.762-42.067 0 0-25.784.768-44.437 18.285-5.547 5.209-10.465 11.899-13.888 20.493 0 0 4.845-7.325 9.18-8.187 0 0-18.54 23.216-19.812 58.788 0 0 2.173-8.376 4.758-10.962 0 0-2.878 30.952 8.256 42.62 11.133 11.669 140.631 0 140.631 0s31.588-37.931 14.066-76.913c-.341-.682-.674-1.366-.992-2.057z"/><path fill="#E8BF9B" d="M162.237 170.473c2.764 3.487 6.304 111.363 70.439 111.363 64.136 0 71.422-103.608 71.422-103.608l-141.861-7.755z"/><path opacity=".1" fill="#010101" stroke="#A38060" stroke-width=".851" d="M126.104 490.628c0 1.393 52.97 2.517 118.31 2.517 65.355 0 118.324-1.124 118.324-2.517 0-1.389-52.969-2.521-118.324-2.521-65.339 0-118.31 1.132-118.31 2.521z"/><path fill="#E8BF9B" d="M162.252 178.071c6.214-1.894 12.361-1.457 19.36-.504 5.132.699 9.914 2.954 14.626 5.199 3.667 1.198 7.48 2.018 11.306 2.652 30.613 3.059 61.71-3.344 92.256-.887l.984-29.613-.898-7.48 5.024-.295c1.537-.092-5.717-41.795-6.862-46.021-2.343-8.653-6.309-19.326-14.573-23.995-10.385-5.866-22.668.512-33.549.454-8.798-.046-16.664-3.318-24.964-5.776-26.729-7.916-49.559 7.908-61.974 30.929-2.259 4.192-13.796 36.102-3.425 37.134-.915 6.185-2.686-2.878-3.937 3.1-.614 2.94 6.629 35.101 6.626 35.103z"/><path fill="#D09F78" d="M165.51 187.066s5.198-4.306 6.726-11.489c0 0-.362 10.3-6.558 15.509.001 0-.842-2.143-.168-4.02z"/><path fill="#231F20" d="M245.351 159.562s34.843-14.683 37.641 5.253c-.001 0-9.201-13.332-37.641-5.253z"/><path fill="#231F20" d="M221.819 159.462s-34.233-16.054-37.818 3.758c0 0 9.721-12.963 37.818-3.758z"/><path fill="#D09F78" d="M215.916 188.412s17.532 25.549 38.531-.826c-.001 0-18.009 16.303-38.531.826z"/><path fill="#E8BF9B" d="M300.265 137.731s8.569-18.698 24.48-6.771c19.847 14.858-12.415 28.493-12.415 28.493s-10.197 4.477-5.456 15.493c4.743 11.029 5.085 15.181 1.272 16.892-3.816 1.71-12.166-1.35-13.039-8.114-3.72-29.172 5.158-45.993 5.158-45.993z"/><g fill="#D09F78"><path d="M300.374 157.938s13.442-37.796 15.376-8.776c0 0-4.138-15.973-15.376 8.776z"/><path d="M300.272 158.035s9.958-18.96 7.149 4.89c.001 0 .316-15.236-7.149-4.89z"/></g><path fill="#6D312B" d="M287.233 208.393l-103.941 5.449-2.814 1.709s3.731 31.115 47.184 32.386c0 .001 60.604 1.697 59.571-39.544z"/><path fill="#fff" d="M287.194 204.188l.039 4.206s-60.236 24.11-106.663 7.094l-1.924-4.774 11.721-5.02s53.417 10.4 89.811-4.784l7.016 3.278z"/><path fill="#CA8C84" d="M266.138 236.973s-32.484-18.659-51.621 5.902l51.621-5.902z"/><path fill="#fff" d="M273.927 234.499s-53.92 10.597-73.619 6.672c0 0 38.07 19.548 73.619-6.672z"/><path clip-rule="evenodd" stroke="#A38060" stroke-width="2.274" d="M280.862 200.926s-41.771 16.56-90.495 4.767l-11.218 5.272s5.535 39.845 54.888 36.34c0 0 59.435-1.591 53.046-42.701l-6.221-3.678z" fill="none"/><path fill="#A38060" d="M292.88 209.563s-5.074-11.004-22.271-12.739c-.001 0 16.515 4.573 22.271 12.739z"/><path fill="#A38060" d="M197.447 203.675s-13.886-1.179-23.993 10.929c.001 0 12.717-10.314 23.993-10.929z"/><path fill="#A38060" d="M223.257 255.311s17.648 5.604 33.043-.729c.001-.001-16.223 12.545-33.043.729z"/><path stroke="#D09F78" stroke-width="1.372" d="M230.884 147.143s7.021 10.256.337 18.18" fill="none"/><path stroke="#D09F78" stroke-width="1.372" d="M241.245 147.314s-7.349 10.022-.929 18.151" fill="none"/><path fill="#D09F78" d="M183.878 154.808s9.496-13.391 30.133-1.532c0-.001-12.485-9.312-30.133 1.532z"/><path fill="#D09F78" d="M255.503 154.126s22.654-10.01 30.12 4.361c0 0-10.255-11.252-30.12-4.361z"/><path fill="#231F20" d="M164.868 134.007l3.14 15.865s18.19-12.169 55.937-6.873l1.173-12.612s-27.831-11.028-57.921 2.717"/><path fill="#231F20" d="M245.279 129.267l.321 16.158s18.594-9.059 52.263 2.273l3.101-12.25s-23.678-15.382-53.409-6.694"/><path fill="#D09F78" d="M302.354 191.406s-5.087-4.437-6.434-11.655c0 0 .1 10.306 6.163 15.67 0 0 .896-2.121.271-4.015z"/><path fill="#231F20" d="M292.88 74.217s-36.216 56.875-100.844 37.055c0 0 4.911-2.155 8.272-3.017 0 0-17.711 4.739-28.072-3.877 0 0 14.629-4.08 18.076-6.133 0 0-21.898-.872-25.063-14.979 0 0 43.16-24.559 46.175-24.559h38.348l35.852 11.034 7.256 4.476z"/><path fill="#E8BF9B" d="M165.542 138.904s-6.538-19.496-23.624-9.333c-21.312 12.677 9.316 29.659 9.316 29.659s9.671 5.527 3.796 15.984c-5.891 10.461-6.67 14.549-3.059 16.658 3.609 2.105 12.235-.05 13.819-6.684 6.786-28.619-.248-46.284-.248-46.284z"/><g fill="#D09F78"><path d="M163.284 158.983s-9.352-39.007-14.354-10.35c.001 0 5.807-15.447 14.354 10.35z"/><path d="M163.378 159.098s-7.896-19.915-7.622 4.101c.001 0 1.302-15.183 7.622-4.101z"/></g><path fill="#231F20" d="M168.741 59.152c6.816-9.457 15.26-15.957 15.26-15.957-3.008.575-11.765 1.148-11.765 1.148 28.313-25.277 65.448-14.937 65.448-14.937-1.602-.573-8.621-5.744-8.621-5.744 41.481-1.149 61.592 25.48 61.592 25.48"/><path fill="#231F20" d="M289.867 50.763s-3.403-14.628-8.123-18.909c0 0 10.044 9.275 11.136 15.876 0 0 11.979-8.028 12.243-8.384.265-.357-9.203 10.702-9.203 10.702s12.849.012 16.778 8.659c0 0-13.405-7.944-22.042-4.733"/><path fill="#9CD9EF" d="M166.241 39.771c.066-.652.394-1.398.753-1.921 1.796-2.662 4.813-3.307 7.632-3.603 6.125-.64 10.104 2.893 13.15 8.114 1.701 2.915 2.556 6.292 2.81 9.731.541 7.293-1.254 15.482-6.642 20.556-4.938 4.649-18.065 11.471-21.337 1.602-.594-1.789-.482-6.447 1.103-7.818 4.896-4.238 5.529 9.769 5.468 11.978-.236 8.802-6.38 13.532-13.118 17.264-3.846 2.133-8.023 3.417-12.237 4.287-8.371 1.715-18.3 2.867-26-1.493-7.394-4.191-18.212-16.213-11.907-25.979 1.768-2.5 5.406-3.243 7.108-.581 1.209 2.018.893 5.646-.51 7.476-1.869 2.449-5.247 3.537-7.958 4.321-2.685.779-6.122.549-8.88.618-12.694.323-26.097-5.614-28.402-20.205-.545-3.459-.882-7.863-.231-11.362 1.479-7.921 4.248-16.361 10.453-21.531 1.822-1.515 4.333-2.452 6.639-2.318 2.222.126 4.589.675 5.884 2.661.734 1.124 2.156 3.3 1.89 4.798-.295 1.638-1.828.576-2.683-.09-4.27-3.331-5.607-9.668-3.311-14.822 4.677-10.506 16.971-15.438 27.07-15.99 2.826-.154 5.814-.122 8.61.269 4.421.621 9.136 1.812 12.736 4.684 1.776 1.419 9.333 8.266 2.022 16.336-1.063 1.172-2.222.682-2.222-1.078.007-13.613 8.037-13.451 11.323-13.992 6.397-1.05 13.191 1.703 18.12 5.804 1.405 1.167 2.733 2.508 3.915 3.928 1.047 1.267 1.979 2.661 2.792 4.109 1.188 2.128 2.354 4.417 2.477 6.968.104 2.228-2.57 8.618-5.183 8.673-1.1.022-1.408-.619-1.334-1.394z"/><path stroke="#fff" stroke-width="2.62" stroke-miterlimit="10" d="M157.453 43.218c.049-.498.301-1.068.575-1.468 1.373-2.032 3.678-2.526 5.83-2.753 4.679-.489 7.722 2.208 10.048 6.2 1.3 2.227 1.953 4.809 2.146 7.434.414 5.575-.957 11.83-5.073 15.705-3.773 3.553-13.803 8.764-16.302 1.224-.454-1.364-.369-4.924.842-5.973 3.741-3.237 4.223 7.463 4.18 9.15-.182 6.727-4.875 10.339-10.025 13.193-2.94 1.629-6.129 2.609-9.351 3.273-6.394 1.309-13.979 2.192-19.86-1.139-5.65-3.204-13.916-12.387-9.101-19.847 1.35-1.913 4.132-2.479 5.432-.446.926 1.543.685 4.315-.389 5.714-1.428 1.869-4.007 2.699-6.081 3.299-2.048.596-4.675.421-6.787.473-9.694.247-19.934-4.291-21.695-15.437-.416-2.644-.674-6.006-.178-8.681 1.129-6.053 3.246-12.5 7.987-16.451 1.391-1.156 3.309-1.872 5.071-1.77 1.695.097 3.506.515 4.496 2.033.561.857 1.646 2.52 1.442 3.666-.222 1.252-1.397.44-2.048-.067-3.263-2.546-4.284-7.386-2.531-11.323 3.574-8.028 12.967-11.794 20.683-12.216 2.16-.118 4.441-.095 6.577.202 3.379.477 6.98 1.386 9.731 3.581 1.357 1.082 7.129 6.316 1.543 12.481-.809.895-1.696.52-1.696-.825.006-10.4 6.143-10.277 8.651-10.689 4.887-.802 10.08 1.301 13.845 4.434 1.071.891 2.089 1.917 2.99 3.002.801.969 1.513 2.032 2.134 3.139.908 1.625 1.797 3.375 1.892 5.326.081 1.7-1.964 6.581-3.962 6.624-.836.014-1.075-.474-1.016-1.068z" fill="none"/></svg>