<?xml version="1.0" encoding="utf-8"?>
<!-- Generator: Adobe Illustrator 16.0.0, SVG Export Plug-In . SVG Version: 6.00 Build 0)  -->
<!DOCTYPE svg PUBLIC "-//W3C//DTD SVG 1.1//EN" "http://www.w3.org/Graphics/SVG/1.1/DTD/svg11.dtd">
<svg version="1.1" id="Layer_1" xmlns="http://www.w3.org/2000/svg" xmlns:xlink="http://www.w3.org/1999/xlink" x="0px" y="0px"
   width="480px" height="500px" viewBox="0 0 480 500" enable-background="new 0 0 480 500" xml:space="preserve">
<symbol  id="stephanie" viewBox="-197.956 -232.056 395.912 464.111">
  <path opacity="0.15" fill="#231F20" d="M-155.199-229.3c0-1.522,79.058-2.756,176.576-2.756c97.522,0,176.579,1.233,176.579,2.756
    c0,1.521-79.057,2.755-176.579,2.755C-76.142-226.545-155.199-227.778-155.199-229.3z"/>
  <g>
    <path fill="#EBC19C" d="M-89.307-219.777c1.354-2.199,0.913-4.368-0.98-4.818c-1.895-0.45-3.969-2.14-4.61-3.752
      c-0.642-1.613-2.673-2.788-4.515-2.611c-1.843,0.178-2.472,1.675-1.398,3.326c1.072,1.651-0.119,2.571-2.648,2.045l-5.852-1.221
      c-2.528-0.526-5.226-0.129-5.993,0.885s0.684,2.226,3.224,2.693l6.023,1.108c2.54,0.468,2.515,1.044-0.059,1.279l-3.637,0.333
      c-2.573,0.236-4.639,1.146-4.59,2.023s2.195,1.438,4.771,1.245l8.323-0.62c2.576-0.192,3.878,0.526,2.894,1.596
      c-0.984,1.07-0.367,2.368,1.371,2.884s4.269-0.862,5.623-3.062L-89.307-219.777z"/>
  </g>
  <polygon fill="#EBC19C" points="-88.905,-217.524 -88.905,-113.598 -84.016,-116.177 -85.2,-220.17  "/>
  <polygon fill="#323031" points="-83.977,-219.806 -88.678,-211.49 -94.804,-216.62 -88.772,-223.821   "/>
  <path fill="#231F20" d="M18.885-28.225l14.334-189.432c0,0,135.435-2.797,147.187-11.101l-168.777,0.76l-71.33,1.956
    l-42.069,164.848L18.885-28.225z"/>
  <polygon fill="#EBC19C" points="-56.714,77.309 -59.702,90.312 -86.461,90.312 -84.016,67.682   "/>
  <polyline fill="#231F20" points="-89.101,13.404 -88.567,74.646 -52.979,78.983 -41.818,5.812   "/>
  <path fill="#EBC19C" d="M7.808-15.688c0,0,43.288,44.536,70.057,28.029l-2.12-5.061c0,0-27.093,13.984-56.993-25.284"/>
  <g>
    <path fill="#EBC19C" d="M78.229,10.701c-0.084,2.582,1.524,4.869,3.574,5.084c2.05,0.214,4.778,2.222,6.064,4.462l0.655,1.143
      c1.286,2.24,3.702,3.386,5.37,2.546s1.752-3.209,0.188-5.265l-1.214-1.594c-1.564-2.056-0.734-3.614,1.845-3.464l6.67,0.391
      c2.578,0.15,4.852-1.319,5.051-3.266c0.198-1.946-1.752-3.581-4.335-3.633l-6.689-0.133c-2.583-0.052-2.8-1.028-0.483-2.17
      l3.372-1.662c2.317-1.142,3.796-3.285,3.286-4.762s-2.85-1.808-5.199-0.734L88.707,1.15c-2.35,1.073-3.965,0.228-3.589-1.879
      c0.376-2.107-0.899-4.133-2.835-4.502c-1.935-0.369-3.586,1.441-3.67,4.023L78.229,10.701z"/>
  </g>
  <path fill="#EBC19C" d="M-100.609-78.66c0,0,3.424-17.768-14.06-17.374c-21.806,0.505-5.686,26.771-5.686,26.771
    s5.02,8.413-4.014,13.884c-9.032,5.466-11.404,8.258-9.552,11.441c1.866,3.168,8.828,4.623,13.484,0.854
    C-96.768-62.249-100.609-78.66-100.609-78.66z"/>
  <g>
    <path fill="#CF9E78" d="M-111.015-64.249c0,0,9.696-33.933-6.531-14.144C-117.546-78.393-106.415-87.709-111.015-64.249z"/>
    <path fill="#CF9E78" d="M-110.996-64.12c0,0,2.562-18.679-7.617-0.162C-118.613-64.282-111.056-75.351-110.996-64.12z"/>
  </g>
  <path fill="#EBC19C" d="M-106.063,17.967c0,0,11.661,29.32,44.916,20.693C-29.969,30.57-12.402,16.478-7.75,7.525l25.257-71.309
    l-38.501-59.473l-51.06,5.687l-36.644,60.75C-108.697-56.819-129.98-28.315-106.063,17.967z"/>
  <path fill="#CF9E78" d="M-78.688-20.513c0,0,2.01,25.805,26.459,14.365C-52.229-6.147-70.879-2.333-78.688-20.513z"/>
  <g>
    <path fill="#FFFFFF" d="M-90.749-68.439c0,0-16.581,36.075,29.233,30.298L-90.749-68.439z"/>
    <path fill="#DB9C94" d="M-90.749-68.439c0,0,25.776-10.949,29.104,29.414L-90.749-68.439z"/>
    <g>
      <defs>
        <path id="SVGID_1_" d="M-90.749-68.439c0,0-16.581,36.075,29.233,30.298L-90.749-68.439z"/>
      </defs>
      <clipPath id="SVGID_2_">
        <use xlink:href="#SVGID_1_"  overflow="visible"/>
      </clipPath>
      <g clip-path="url(#SVGID_2_)">
        <path fill="#8B5E3C" d="M-56.188-34.601c3.022-5.566,0.962-12.527-4.603-15.548c-5.565-3.021-12.525-0.959-15.549,4.607
          c-3.021,5.564-0.96,12.525,4.605,15.546C-66.17-26.974-59.21-29.035-56.188-34.601z"/>
        <path fill="#231F20" d="M-61.554-37.514c1.413-2.603,0.448-5.855-2.151-7.268c-2.602-1.412-5.854-0.449-7.268,2.153
          c-1.412,2.6-0.449,5.854,2.152,7.267C-66.22-33.949-62.966-34.914-61.554-37.514z"/>
        <path fill="#FFFFFF" d="M-69.059-41.936c0.631-1.16,0.201-2.615-0.961-3.246c-1.16-0.631-2.615-0.198-3.245,0.963
          c-0.632,1.162-0.201,2.615,0.96,3.246C-71.143-40.342-69.689-40.772-69.059-41.936z"/>
      </g>
    </g>
    <path fill="#323031" d="M-93.305-71.044c0,0,24.776,20.387,33.603,35.011"/>
    <path fill="#323031" d="M-91.735-75.121c0,0,16.398-11.042,28.696,11.852C-63.039-63.27-78.689-77.403-91.735-75.121z"/>
  </g>
  <g>
    <path fill="#FFFFFF" d="M-3.941-21.588c0,0-21.227,33.556-41.333-8.018L-3.941-21.588z"/>
    <path fill="#DB9C94" d="M-3.941-21.588c0,0-4.857-27.583-40.521-8.39L-3.941-21.588z"/>
    <g>
      <defs>
        <path id="SVGID_3_" d="M-3.941-21.588c0,0-21.227,33.556-41.333-8.018L-3.941-21.588z"/>
      </defs>
      <clipPath id="SVGID_4_">
        <use xlink:href="#SVGID_3_"  overflow="visible"/>
      </clipPath>
      <g clip-path="url(#SVGID_4_)">
        <path fill="#8B5E3C" d="M-50.816-31.399c2.898-5.339,9.572-7.317,14.911-4.419c5.334,2.897,7.31,9.572,4.411,14.91
          s-9.572,7.314-14.906,4.419C-51.738-19.389-53.716-26.061-50.816-31.399z"/>
        <path fill="#231F20" d="M-45.671-28.605c1.354-2.495,4.476-3.421,6.971-2.066c2.491,1.353,3.415,4.475,2.06,6.97
          c-1.354,2.494-4.474,3.417-6.965,2.063C-46.1-22.992-47.025-26.111-45.671-28.605z"/>
        <path fill="#FFFFFF" d="M-37.818-25.874c0.54-0.996,1.782-1.363,2.774-0.824c0.992,0.538,1.362,1.781,0.822,2.777
          c-0.539,0.992-1.784,1.36-2.777,0.822C-37.99-23.638-38.358-24.882-37.818-25.874z"/>
      </g>
    </g>
    <path fill="#323031" d="M-0.364-20.865c0,0-30.593-9.673-47.663-9.113"/>
    <path fill="#323031" d="M-23.702-43.088c0,0,18.575-6.774,24.979,18.397C1.277-24.69-10.494-42.168-23.702-43.088z"/>
  </g>
  <path fill="none" stroke="#B4886B" stroke-width="0.6914" d="M-51.744-51.355c0,0,1.483,12.345-4.97,14.776"/>
  <path fill="none" stroke="#B4886B" stroke-width="0.6914" d="M-41.196-44.892c0,0-11.298,5.137-10.036,11.917"/>
  <polygon fill="#323031" points="76.904,7.205 79.951,16.258 72.042,17.39 70.712,8.091  "/>
  <g>
    <path fill="#EBC19C" d="M6.541-32.075c0,0,9.571-15.356,22.123-3.18C44.31-20.058,14.629-11.759,14.629-11.759
      S5.228-9.003,8.132,1.15c2.906,10.149,2.746,13.81-0.776,14.885c-3.522,1.054-9.616-2.613-10.468-8.544
      C-7.435-22.654,6.541-32.075,6.541-32.075z"/>
    <g>
      <path fill="#CF9E78" d="M4.371-14.433c0,0,15.964-31.475,14.406-5.93C18.777-20.362,16.95-34.763,4.371-14.433z"/>
      <path fill="#CF9E78" d="M4.271-14.351c0,0,10.822-15.438,5.695,5.06C9.966-9.291,11.95-22.546,4.271-14.351z"/>
    </g>
  </g>
  <polygon fill="#1C75BC" points="-54.155,90.312 -93.305,80.918 -94.804,100.615 -54.155,100.615   "/>
  <path fill="#1C75BC" d="M-78.688,94.883c0,0-32.493,126.439-98.493,70.439v-7c0,0,55.332,56.121,93.166-63.439H-78.688z"/>
  <path fill="#231F20" d="M-177.938,166.143c0,0-10.66,0.539-17.391,12.496l-2.627-1.039c0,0,7.411-16.021,17.351-16.508l-5.782-2.84
    l3.413-4.809l9.226,7.295L-177.938,166.143z"/>
  <path fill="#1C75BC" d="M-64.699,91.512c0,0,108.396,72.752,33.61,116.33l-6.601-2.331c0,0,71.347-33.479-28.785-108.978
    L-64.699,91.512z"/>
  <path fill="#231F20" d="M-30.972,209.062c0,0-5.569,9.105,0.508,21.41l-2.339,1.583c0,0-9.05-15.159-3.844-23.64l-5.607,3.172
    l-2.045-5.531l11.228-3.502L-30.972,209.062z"/>
  <path fill="#231F20" d="M17.507-50.431c0,0-9.398-68.314-103.968-52.771l26.759-28.389l64.073,14.073l17.008,49.077L17.507-50.431z
    "/>
  <path fill="#DB9C94" d="M-90.357,7.598c0,0,18.362-10.421,19.852,6.774c0,0,11.501-8.046,11.905,4.19
    C-58.601,18.562-80.336,34.645-90.357,7.598z"/>
  <path fill="none" stroke="#BF8782" stroke-miterlimit="10" d="M-51.331,17.964c0,0-34.465,4.906-42.342-15.739"/>
</symbol>
<use xlink:href="#stephanie"  width="395.912" height="464.111" x="-197.956" y="-232.056" transform="matrix(1.0505 0 0 -1.0505 240.2217 251.4199)" overflow="visible"/>
</svg>