<svg viewBox="0 0 110 256" xmlns="http://www.w3.org/2000/svg" xml:space="preserve" style="fill-rule:evenodd;clip-rule:evenodd;stroke-miterlimit:10"><path d="M0-255.544S13.218-150.25-83.593-128.672L-69.737.323h-17.101l-12.201-167.9 64.802-88.29L0-255.544Z" style="fill-rule:nonzero" transform="matrix(1.00179 0 0 1 107.505 254.432)" opacity=".15"/><path d="M0-256.173s-3.014 105.23-67.561 125.326L-56.891 0h-32.98v-255.85L0-256.173Z" style="fill:#e31f26;fill-rule:nonzero" transform="matrix(1.00179 0 0 1 88.818 254.738)"/><path d="M0-125.941S-4.022-33.605-56.202 0c0 0 45.244-36.001 46.148-125.941H0Z" style="fill:#1d1c1a;fill-rule:nonzero;stroke:#636463;stroke-width:.65px" transform="matrix(1.00179 0 0 1 73.208 124.506)" opacity=".1"/><path d="M0-125.784S1.334-44.239-29.911 0c0 0 24.182-50.475 16.704-125.619L0-125.784Z" style="fill:#1d1c1a;fill-rule:nonzero;stroke:#636463;stroke-width:.6px" transform="matrix(1.00179 0 0 1 45.056 124.507)" opacity=".1"/><path d="M0-125.865S5.903-45.549-11.218.21c0 0 12.487-51.726 3.014-126.285l8.204.21Z" style="fill:#1d1c1a;fill-rule:nonzero;stroke:#636463;stroke-width:.48px" transform="matrix(1.00179 0 0 1 19.528 126.919)" opacity=".1"/><path d="M0-23.766S8.749-8.877 24.931-9.919C24.931-9.919 8.257 0 0-23.766" style="fill:#f2bd38;fill-rule:nonzero" transform="matrix(1.00179 0 0 1 -1.213 132.93)"/><path d="M0-126.03 4.779 1.866.095 1.587v-129.483" style="fill:#1d1c1a;fill-rule:nonzero;stroke:#636463;stroke-width:.7px" transform="matrix(1.00179 0 0 1 19.087 252.894)" opacity=".1"/><path d="M0-125.984-3.908 1.861l-4.679-.414L.125-127.845" style="fill:#1d1c1a;fill-rule:nonzero;stroke:#636463;stroke-width:.7px" transform="matrix(1.00179 0 0 1 13.17 252.894)" opacity=".1"/></svg>