<svg viewBox="0 0 1410 440" xmlns="http://www.w3.org/2000/svg" xml:space="preserve" style="fill-rule:evenodd;clip-rule:evenodd;stroke-linejoin:round;stroke-miterlimit:2"><path d="M.025-.567h.062v.434H.025V0h.372v-.133H.295V-.26h.19v-.133h-.19v-.174h.151v.089h.177v-.221H.025v.132Z" style="fill:#b52025;fill-rule:nonzero" transform="translate(-1.655 215.488) scale(286.70832)"/><path d="M.308-.131h-.05v-.103c0-.088.051-.111.141-.111v-.173c-.103 0-.129.034-.155.082L.214-.5H.026v.13h.043v.239H.025V0h.283v-.131Z" style="fill:#b52025;fill-rule:nonzero" transform="translate(164 215.488) scale(286.70832)"/><path d="M.29.013c.152 0 .275-.095.273-.261C.56-.415.443-.51.285-.512c-.138 0-.273.093-.274.26-.002.177.136.265.279.265Zm0-.128c-.042 0-.074-.054-.074-.136 0-.073.03-.131.069-.131.047.001.073.059.073.134 0 .075-.025.133-.068.133Z" style="fill:#b52025;fill-rule:nonzero" transform="translate(282.633 215.488) scale(286.70832)"/><path d="M.333-.131H.261v-.142c0-.043.012-.093.063-.093.059 0 .056.059.056.093V0h.252v-.131H.585v-.167c0-.105-.026-.22-.181-.22-.063 0-.109.033-.143.08L.238-.5H.025v.13h.042v.239H.025V0h.308v-.131Z" style="fill:#b52025;fill-rule:nonzero" transform="translate(447.14 215.488) scale(286.70832)"/><path d="M.015-.37h.054v.178c.003.128.008.21.158.21a.465.465 0 0 0 .121-.019v-.128a.23.23 0 0 1-.063.017c-.039 0-.032-.046-.032-.08V-.37h.095V-.5H.253v-.151l-.184.059V-.5H.015v.13Z" style="fill:#b52025;fill-rule:nonzero" transform="translate(632.576 215.488) scale(286.70832)"/><path style="fill:#b52025;fill-rule:nonzero" d="M.025-.305h.29v.133h-.29z" transform="translate(736.592 215.488) scale(286.70832)"/><path d="M.025-.567h.063v.434H.025V0h.603v-.226H.455v.093h-.16v-.163h.19v-.133h-.19v-.138h.16v.089h.173v-.221H.025v.132Z" style="fill:#b52025;fill-rule:nonzero" transform="translate(847.261 215.488) scale(286.70832)"/><path d="M.333-.131H.261v-.142c0-.043.012-.093.063-.093.059 0 .056.059.056.093V0h.252v-.131H.585v-.167c0-.105-.026-.22-.181-.22-.063 0-.109.033-.143.08L.238-.5H.025v.13h.042v.239H.025V0h.308v-.131Z" style="fill:#b52025;fill-rule:nonzero" transform="translate(1034.482 215.488) scale(286.70832)"/><path d="M.368-.472C.349-.484.313-.51.242-.51.119-.51.01-.411.01-.255c0 .139.091.264.232.264a.189.189 0 0 0 .126-.046L.385 0h.234v-.13H.571v-.62H.322v.13h.046v.148Zm-.143.217c0-.076.029-.125.071-.125.038 0 .072.052.072.12.004.079-.032.128-.071.128-.044 0-.072-.063-.072-.123Z" style="fill:#b52025;fill-rule:nonzero" transform="translate(1219.982 215.488) scale(286.70832)"/><path d="M.514 0v-.714H.451v.296H.449a.157.157 0 0 0-.071-.085.222.222 0 0 0-.108-.028.22.22 0 0 0-.175.081.253.253 0 0 0-.043.087.403.403 0 0 0 0 .209.253.253 0 0 0 .043.087.22.22 0 0 0 .175.081.224.224 0 0 0 .155-.066.149.149 0 0 0 .029-.046h.002V0h.058ZM.101-.258c0-.027.003-.053.01-.08a.21.21 0 0 1 .03-.07.144.144 0 0 1 .129-.07c.033 0 .061.006.085.019.023.013.041.03.056.051a.233.233 0 0 1 .031.07.363.363 0 0 1 0 .159.228.228 0 0 1-.031.071.158.158 0 0 1-.056.05.175.175 0 0 1-.162 0 .146.146 0 0 1-.052-.05.3.3 0 0 1-.04-.15Z" style="fill:#aeafaf;fill-rule:nonzero" transform="translate(-5.637 399.895) scale(179.1927)"/><path d="M.431-.294H.097a.29.29 0 0 1 .017-.069.17.17 0 0 1 .084-.1.152.152 0 0 1 .069-.015.151.151 0 0 1 .119.056.2.2 0 0 1 .045.128Zm-.334.053h.397a.427.427 0 0 0-.01-.107.286.286 0 0 0-.039-.093.208.208 0 0 0-.178-.09.226.226 0 0 0-.105.023.221.221 0 0 0-.114.15.377.377 0 0 0 0 .204.233.233 0 0 0 .041.087.193.193 0 0 0 .073.059.226.226 0 0 0 .105.022.222.222 0 0 0 .152-.048.252.252 0 0 0 .073-.136H.429a.19.19 0 0 1-.054.096.153.153 0 0 1-.108.036.144.144 0 0 1-.077-.019.181.181 0 0 1-.083-.114.247.247 0 0 1-.01-.07Z" style="fill:#aeafaf;fill-rule:nonzero" transform="translate(97.22 399.895) scale(179.1927)"/><path d="M.369-.365h.063a.182.182 0 0 0-.017-.073.148.148 0 0 0-.04-.052.175.175 0 0 0-.059-.031.248.248 0 0 0-.073-.01.316.316 0 0 0-.068.008.218.218 0 0 0-.063.025.121.121 0 0 0-.045.045.122.122 0 0 0-.018.067c0 .022.004.041.011.055a.104.104 0 0 0 .031.038.152.152 0 0 0 .045.026.38.38 0 0 0 .057.019l.081.018a.331.331 0 0 1 .078.029.092.092 0 0 1 .026.026.08.08 0 0 1 .009.039.073.073 0 0 1-.013.045.105.105 0 0 1-.035.031.144.144 0 0 1-.045.017.28.28 0 0 1-.048.005.165.165 0 0 1-.105-.033C.112-.092.097-.124.094-.167H.031c.005.063.027.109.065.138a.232.232 0 0 0 .147.043.37.37 0 0 0 .073-.008.189.189 0 0 0 .067-.027.157.157 0 0 0 .048-.048A.123.123 0 0 0 .45-.14a.122.122 0 0 0-.013-.059.14.14 0 0 0-.033-.042.202.202 0 0 0-.101-.042L.219-.302a.342.342 0 0 1-.07-.027.089.089 0 0 1-.026-.025.056.056 0 0 1-.011-.035.077.077 0 0 1 .04-.07.128.128 0 0 1 .04-.015.21.21 0 0 1 .093.002c.016.005.03.012.043.021a.1.1 0 0 1 .029.035.137.137 0 0 1 .012.051Z" style="fill:#aeafaf;fill-rule:nonzero" transform="translate(190.22 399.895) scale(179.1927)"/><path d="M.061-.714v.101h.063v-.101H.061Zm0 .198V0h.063v-.516H.061Z" style="fill:#aeafaf;fill-rule:nonzero" transform="translate(276.412 399.895) scale(179.1927)"/><path d="M.496-.042v-.474H.433v.089H.431a.156.156 0 0 0-.025-.04.178.178 0 0 0-.139-.064.24.24 0 0 0-.099.02.206.206 0 0 0-.073.056.247.247 0 0 0-.045.083.377.377 0 0 0-.003.204.219.219 0 0 0 .042.085.19.19 0 0 0 .072.056.244.244 0 0 0 .106.021c.038 0 .071-.01.1-.029a.186.186 0 0 0 .064-.077h.002v.07a.229.229 0 0 1-.039.144C.368.135.326.152.267.152A.294.294 0 0 1 .216.147.151.151 0 0 1 .171.129a.108.108 0 0 1-.055-.08H.053a.15.15 0 0 0 .072.119.196.196 0 0 0 .066.028.322.322 0 0 0 .183-.008.17.17 0 0 0 .07-.049.206.206 0 0 0 .04-.078.41.41 0 0 0 .012-.103ZM.267-.059a.153.153 0 0 1-.129-.064.187.187 0 0 1-.031-.065.3.3 0 0 1 0-.155A.177.177 0 0 1 .19-.46a.154.154 0 0 1 .077-.018.144.144 0 0 1 .128.069.235.235 0 0 1 .029.069.329.329 0 0 1-.001.152.188.188 0 0 1-.084.111.143.143 0 0 1-.072.018Z" style="fill:#aeafaf;fill-rule:nonzero" transform="translate(309.563 399.895) scale(179.1927)"/><path d="M.059-.516V0h.063v-.301a.235.235 0 0 1 .013-.071.164.164 0 0 1 .032-.056.145.145 0 0 1 .117-.05c.025 0 .047.004.064.012a.1.1 0 0 1 .04.033c.01.014.017.03.021.049.004.019.006.04.006.062V0h.063v-.332a.352.352 0 0 0-.009-.083.15.15 0 0 0-.031-.063.142.142 0 0 0-.058-.039.268.268 0 0 0-.091-.014.188.188 0 0 0-.101.028.152.152 0 0 0-.064.076H.122v-.089H.059Z" style="fill:#aeafaf;fill-rule:nonzero" transform="translate(409.195 399.895) scale(179.1927)"/><path d="M.424-.354h.063a.187.187 0 0 0-.068-.133.23.23 0 0 0-.141-.044.23.23 0 0 0-.228.167.336.336 0 0 0-.016.106.33.33 0 0 0 .016.105.261.261 0 0 0 .047.087.23.23 0 0 0 .181.08.197.197 0 0 0 .144-.053.24.24 0 0 0 .069-.146H.428a.167.167 0 0 1-.049.105.144.144 0 0 1-.101.042.157.157 0 0 1-.079-.019.168.168 0 0 1-.056-.05.272.272 0 0 1 0-.302.168.168 0 0 1 .056-.05.157.157 0 0 1 .079-.019c.042 0 .075.011.098.033a.177.177 0 0 1 .048.091Z" style="fill:#aeafaf;fill-rule:nonzero" transform="translate(555.237 399.895) scale(179.1927)"/><path d="M.278-.478c.03 0 .056.006.079.019a.172.172 0 0 1 .057.05.24.24 0 0 1 .034.07.322.322 0 0 1 0 .161.234.234 0 0 1-.034.071.172.172 0 0 1-.057.05.157.157 0 0 1-.079.019.157.157 0 0 1-.079-.019.168.168 0 0 1-.056-.05.272.272 0 0 1 0-.302.168.168 0 0 1 .056-.05.157.157 0 0 1 .079-.019Zm0-.053a.23.23 0 0 0-.228.167.336.336 0 0 0-.016.106.33.33 0 0 0 .016.105.261.261 0 0 0 .047.087.23.23 0 0 0 .181.08.238.238 0 0 0 .105-.022.217.217 0 0 0 .076-.058.261.261 0 0 0 .047-.087.33.33 0 0 0 .016-.105.336.336 0 0 0-.016-.106.232.232 0 0 0-.123-.145.238.238 0 0 0-.105-.022Z" style="fill:#aeafaf;fill-rule:nonzero" transform="translate(648.238 399.895) scale(179.1927)"/><path d="M.059-.516V0h.063v-.301a.235.235 0 0 1 .013-.071.164.164 0 0 1 .032-.056.145.145 0 0 1 .117-.05c.025 0 .047.004.064.012a.1.1 0 0 1 .04.033c.01.014.017.03.021.049.004.019.006.04.006.062V0h.063v-.332a.352.352 0 0 0-.009-.083.15.15 0 0 0-.031-.063.142.142 0 0 0-.058-.039.268.268 0 0 0-.091-.014.188.188 0 0 0-.101.028.152.152 0 0 0-.064.076H.122v-.089H.059Z" style="fill:#aeafaf;fill-rule:nonzero" transform="translate(747.869 399.895) scale(179.1927)"/><path d="M.259-.463v-.053H.157v-.045L.158-.6a.08.08 0 0 1 .008-.032.045.045 0 0 1 .02-.021.086.086 0 0 1 .04-.008l.022.001.024.004V-.71a1.11 1.11 0 0 1-.027-.003L.219-.714a.156.156 0 0 0-.062.011.087.087 0 0 0-.039.031.115.115 0 0 0-.019.048.386.386 0 0 0-.005.061v.047H.006v.053h.088V0h.063v-.463h.102Z" style="fill:#aeafaf;fill-rule:nonzero" transform="translate(844.096 399.895) scale(179.1927)"/><path d="M.431-.294H.097a.29.29 0 0 1 .017-.069.17.17 0 0 1 .084-.1.152.152 0 0 1 .069-.015.151.151 0 0 1 .119.056.2.2 0 0 1 .045.128Zm-.334.053h.397a.427.427 0 0 0-.01-.107.286.286 0 0 0-.039-.093.208.208 0 0 0-.178-.09.226.226 0 0 0-.105.023.221.221 0 0 0-.114.15.377.377 0 0 0 0 .204.233.233 0 0 0 .041.087.193.193 0 0 0 .073.059.226.226 0 0 0 .105.022.222.222 0 0 0 .152-.048.252.252 0 0 0 .073-.136H.429a.19.19 0 0 1-.054.096.153.153 0 0 1-.108.036.144.144 0 0 1-.077-.019.181.181 0 0 1-.083-.114.247.247 0 0 1-.01-.07Z" style="fill:#aeafaf;fill-rule:nonzero" transform="translate(890.506 399.895) scale(179.1927)"/><path d="M.06-.516V0h.063v-.275a.21.21 0 0 1 .014-.076.171.171 0 0 1 .04-.059.173.173 0 0 1 .138-.05v-.063a.19.19 0 0 0-.195.128H.118v-.121H.06Z" style="fill:#aeafaf;fill-rule:nonzero" transform="translate(983.507 399.895) scale(179.1927)"/><path d="M.431-.294H.097a.29.29 0 0 1 .017-.069.17.17 0 0 1 .084-.1.152.152 0 0 1 .069-.015.151.151 0 0 1 .119.056.2.2 0 0 1 .045.128Zm-.334.053h.397a.427.427 0 0 0-.01-.107.286.286 0 0 0-.039-.093.208.208 0 0 0-.178-.09.226.226 0 0 0-.105.023.221.221 0 0 0-.114.15.377.377 0 0 0 0 .204.233.233 0 0 0 .041.087.193.193 0 0 0 .073.059.226.226 0 0 0 .105.022.222.222 0 0 0 .152-.048.252.252 0 0 0 .073-.136H.429a.19.19 0 0 1-.054.096.153.153 0 0 1-.108.036.144.144 0 0 1-.077-.019.181.181 0 0 1-.083-.114.247.247 0 0 1-.01-.07Z" style="fill:#aeafaf;fill-rule:nonzero" transform="translate(1036.728 399.895) scale(179.1927)"/><path d="M.059-.516V0h.063v-.301a.235.235 0 0 1 .013-.071.164.164 0 0 1 .032-.056.145.145 0 0 1 .117-.05c.025 0 .047.004.064.012a.1.1 0 0 1 .04.033c.01.014.017.03.021.049.004.019.006.04.006.062V0h.063v-.332a.352.352 0 0 0-.009-.083.15.15 0 0 0-.031-.063.142.142 0 0 0-.058-.039.268.268 0 0 0-.091-.014.188.188 0 0 0-.101.028.152.152 0 0 0-.064.076H.122v-.089H.059Z" style="fill:#aeafaf;fill-rule:nonzero" transform="translate(1129.729 399.895) scale(179.1927)"/><path d="M.424-.354h.063a.187.187 0 0 0-.068-.133.23.23 0 0 0-.141-.044.23.23 0 0 0-.228.167.336.336 0 0 0-.016.106.33.33 0 0 0 .016.105.261.261 0 0 0 .047.087.23.23 0 0 0 .181.08.197.197 0 0 0 .144-.053.24.24 0 0 0 .069-.146H.428a.167.167 0 0 1-.049.105.144.144 0 0 1-.101.042.157.157 0 0 1-.079-.019.168.168 0 0 1-.056-.05.272.272 0 0 1 0-.302.168.168 0 0 1 .056-.05.157.157 0 0 1 .079-.019c.042 0 .075.011.098.033a.177.177 0 0 1 .048.091Z" style="fill:#aeafaf;fill-rule:nonzero" transform="translate(1225.955 399.895) scale(179.1927)"/><path d="M.431-.294H.097a.29.29 0 0 1 .017-.069.17.17 0 0 1 .084-.1.152.152 0 0 1 .069-.015.151.151 0 0 1 .119.056.2.2 0 0 1 .045.128Zm-.334.053h.397a.427.427 0 0 0-.01-.107.286.286 0 0 0-.039-.093.208.208 0 0 0-.178-.09.226.226 0 0 0-.105.023.221.221 0 0 0-.114.15.377.377 0 0 0 0 .204.233.233 0 0 0 .041.087.193.193 0 0 0 .073.059.226.226 0 0 0 .105.022.222.222 0 0 0 .152-.048.252.252 0 0 0 .073-.136H.429a.19.19 0 0 1-.054.096.153.153 0 0 1-.108.036.144.144 0 0 1-.077-.019.181.181 0 0 1-.083-.114.247.247 0 0 1-.01-.07Z" style="fill:#aeafaf;fill-rule:nonzero" transform="translate(1318.956 399.895) scale(179.1927)"/></svg>