<svg viewBox="0 0 610 300" xmlns="http://www.w3.org/2000/svg" xml:space="preserve" style="fill-rule:evenodd;clip-rule:evenodd;stroke-miterlimit:10"><g id="Layer-1"><clipPath id="_clip1"><path d="M.258.383h607.971v299.46H.258z"/></clipPath><g clip-path="url(#_clip1)"><path style="fill:url(#_Radial2)" d="M-1.314-.484H1.32v.948h-2.634z" transform="translate(304.078 111.926) scale(231.349)"/><path style="fill:#240801" d="M-1.314-.484H1.32v.948h-2.634z" transform="matrix(231.762 0 0 231.349 304.624 111.926)" id="bg-initial"/><g id="year"><path d="M.141-.472c.03-.032.069-.076.123-.076.046 0 .084.015.084.066 0 .062-.106.104-.177.167a.522.522 0 0 0-.146.17V0h.54v-.213H.397v.08H.221a.58.58 0 0 1 .15-.134c.106-.069.16-.109.16-.224C.531-.626.426-.71.293-.71c-.1 0-.19.043-.26.124l.108.114Z" style="fill:#240801;fill-rule:nonzero" transform="matrix(240.42941 0 0 239.99984 25.62 187.902)"/><path d="M.302.012c.181 0 .282-.136.282-.358 0-.221-.091-.366-.287-.366-.166 0-.282.147-.282.359 0 .246.12.365.287.365Zm0-.155c-.04 0-.089-.081-.089-.21 0-.122.046-.199.083-.198.049 0 .087.086.087.205 0 .122-.035.203-.081.203Z" style="fill:#240801;fill-rule:nonzero" transform="matrix(240.42941 0 0 239.99984 167.472 187.902)"/><path d="M.141-.472c.03-.032.069-.076.123-.076.046 0 .084.015.084.066 0 .062-.106.104-.177.167a.522.522 0 0 0-.146.17V0h.54v-.213H.397v.08H.221a.58.58 0 0 1 .15-.134c.106-.069.16-.109.16-.224C.531-.626.426-.71.293-.71c-.1 0-.19.043-.26.124l.108.114Z" style="fill:#240801;fill-rule:nonzero" transform="matrix(240.42941 0 0 239.99984 311.49 187.902)"/><path d="M.248.013c.135 0 .277-.072.277-.22a.201.201 0 0 0-.093-.164c.026-.02.074-.059.074-.127C.506-.626.414-.71.251-.71a.323.323 0 0 0-.214.095l.097.117c.035-.037.079-.06.117-.06.042 0 .088.025.088.079 0 .045-.037.069-.085.069H.181v.119h.075c.05 0 .083.019.083.073 0 .05-.034.077-.09.077-.057 0-.095-.028-.132-.065L.015-.1a.305.305 0 0 0 .233.113Z" style="fill:#240801;fill-rule:nonzero" transform="matrix(240.42941 0 0 239.99984 453.342 187.902)"/></g><path style="fill:#bc9f77" d="M0 .213h609.355v83.81H0z" transform="translate(0 215.71)"/><path style="fill:#9c8156" d="M0 .213h609.355v22.008H0z" transform="translate(0 277.512)"/><path style="fill:#7f6846" d="M0 0h609.355v3.452H0z" transform="translate(0 296.494)"/><path d="M0 0h609.355" style="fill:none;fill-rule:nonzero;stroke:#9c8156;stroke-width:1px" transform="translate(0 222.478)"/><path d="M-609.355 0H0" style="fill:none;fill-rule:nonzero;stroke:#9c8156;stroke-width:1px" transform="matrix(-1 0 0 1 0 272.106)"/><path d="M-31.617-25.074c-.132.519 51.223 0 51.223 0" style="fill:none;fill-rule:nonzero;stroke:#9c8156;stroke-width:1px" transform="scale(-1 1) rotate(75.67 -319.1 -66.253)"/><path d="M-40.473-25.052c-.247.475 55.933 0 55.933 0" style="fill:none;fill-rule:nonzero;stroke:#9c8156;stroke-width:1px" transform="scale(-1 1) rotate(62.537 -357.78 -88.187)"/><path d="M-54.703-25.015c-.355.401 66.314 0 66.314 0" style="fill:none;fill-rule:nonzero;stroke:#9c8156;stroke-width:1px" transform="scale(-1 1) rotate(48.452 -423.356 -109.373)"/><path d="M-81.582-25.683c-.45.304 89.911.351 88.5 0" style="fill:none;fill-rule:nonzero;stroke:#9c8156;stroke-width:1px" transform="scale(-1 1) rotate(34.11 -551.071 -113.56)"/><path d="M-106.97-25.746c-.487.24 113.466.541 112.117 0" style="fill:none;fill-rule:nonzero;stroke:#9c8156;stroke-width:1px" transform="scale(-1 1) rotate(26.273 -672.774 -47.35)"/><path d="M-132.493-25.782c-.506.198 137.85.655 136.552 0" style="fill:none;fill-rule:nonzero;stroke:#9c8156;stroke-width:1px" transform="scale(-1 1) rotate(21.312 -793.072 93.775)"/><path d="M-84.975-13.379c28.333.858 57.436-.132 87.081.001" style="fill:none;fill-rule:nonzero;stroke:#9c8156;stroke-width:1px" transform="scale(-1 1) rotate(17.894 -832.375 114.955)"/><path d="M-19.474-24.555c-.132-.519 51.223 0 51.223 0" style="fill:none;fill-rule:nonzero;stroke:#9c8156;stroke-width:1px" transform="scale(1 -1) rotate(-75.67 17.061 -334.619)"/><path d="M-15.213-24.577c-.247-.475 55.933 0 55.933 0" style="fill:none;fill-rule:nonzero;stroke:#9c8156;stroke-width:1px" transform="scale(1 -1) rotate(-62.537 -6.147 -406.794)"/><path d="M-11.256-24.614c-.355-.401 66.314 0 66.314 0" style="fill:none;fill-rule:nonzero;stroke:#9c8156;stroke-width:1px" transform="scale(1 -1) rotate(-48.452 -48.345 -529.747)"/><path d="M-7.879-25.028c-.45-.304 89.911-.351 88.5 0" style="fill:none;fill-rule:nonzero;stroke:#9c8156;stroke-width:1px" transform="scale(1 -1) rotate(-34.11 -133.428 -763.513)"/><path d="M-6.009-24.965c-.487-.24 113.466-.541 112.117 0" style="fill:none;fill-rule:nonzero;stroke:#9c8156;stroke-width:1px" transform="scale(1 -1) rotate(-26.273 -215.51 -1039.175)"/><path d="M-4.851-24.929c-.506-.198 137.85-.655 136.552 0" style="fill:none;fill-rule:nonzero;stroke:#9c8156;stroke-width:1px" transform="scale(1 -1) rotate(-21.312 -296.356 -1364.474)"/><path d="M-2.425-15.422c33.44-1.323 66.351.884 100.5-.001" style="fill:none;fill-rule:nonzero;stroke:#9c8156;stroke-width:1.02px" transform="matrix(.9321 .30058 .30058 -.9321 521.476 208.834)"/><path d="M0-255.544S-13.218-150.25 83.593-128.672L69.737.323h17.101l12.201-167.899-64.803-88.291L0-255.544Z" style="fill-rule:nonzero" transform="translate(500.954 254.265)" opacity=".15"/><path d="M0-256.173s3.014 105.23 67.561 125.326L56.891 0H89.87v-255.85L0-256.173Z" style="fill:#e31f26;fill-rule:nonzero" transform="translate(519.607 254.571)"/><path d="M0-125.941S4.022-33.605 56.202 0c0 0-45.244-36.001-46.148-125.941H0Z" style="fill:#1d1c1a;fill-rule:nonzero;stroke:#636463;stroke-width:.65px" transform="translate(535.19 124.339)" opacity=".1"/><path d="M0-125.784S-1.334-44.239 29.911 0c0 0-24.182-50.475-16.704-125.619L0-125.784Z" style="fill:#1d1c1a;fill-rule:nonzero;stroke:#636463;stroke-width:.6px" transform="translate(563.292 124.34)" opacity=".1"/><path d="M0-125.865S-5.903-45.549 11.218.21c0 0-12.487-51.726-3.014-126.285l-8.204.21Z" style="fill:#1d1c1a;fill-rule:nonzero;stroke:#636463;stroke-width:.48px" transform="translate(588.774 124.752)" opacity=".1"/><path d="M0-23.766S-8.749-8.877-24.931-9.919c0 0 16.674 9.919 24.931-13.847" style="fill:#f2bd38;fill-rule:nonzero" transform="translate(609.478 132.763)"/><path d="M0-126.03-4.779 1.866l4.684-.279v-129.483" style="fill:#1d1c1a;fill-rule:nonzero;stroke:#636463;stroke-width:.7px" transform="translate(589.214 252.727)" opacity=".1"/><path d="M0-125.984 3.908 1.861l4.679-.414-8.712-129.292" style="fill:#1d1c1a;fill-rule:nonzero;stroke:#636463;stroke-width:.7px" transform="translate(595.12 252.727)" opacity=".1"/><path d="M0-255.544S13.218-150.25-83.593-128.672L-69.737.323h-17.101l-12.201-167.9 64.802-88.29L0-255.544Z" style="fill-rule:nonzero" transform="translate(107.147 254.265)" opacity=".15"/><path d="M0-256.173s-3.014 105.23-67.561 125.326L-56.891 0h-32.98v-255.85L0-256.173Z" style="fill:#e31f26;fill-rule:nonzero" transform="translate(88.494 254.571)"/><path d="M0-125.941S-4.022-33.605-56.202 0c0 0 45.244-36.001 46.148-125.941H0Z" style="fill:#1d1c1a;fill-rule:nonzero;stroke:#636463;stroke-width:.65px" transform="translate(72.911 124.339)" opacity=".1"/><path d="M0-125.784S1.334-44.239-29.911 0c0 0 24.182-50.475 16.704-125.619L0-125.784Z" style="fill:#1d1c1a;fill-rule:nonzero;stroke:#636463;stroke-width:.6px" transform="translate(44.81 124.34)" opacity=".1"/><path d="M0-125.865S5.903-45.549-11.218.21c0 0 12.487-51.726 3.014-126.285l8.204.21Z" style="fill:#1d1c1a;fill-rule:nonzero;stroke:#636463;stroke-width:.48px" transform="translate(19.327 124.752)" opacity=".1"/><path d="M0-23.766S8.749-8.877 24.931-9.919C24.931-9.919 8.257 0 0-23.766" style="fill:#f2bd38;fill-rule:nonzero" transform="translate(-1.377 132.763)"/><path d="M0-126.03 4.779 1.866.095 1.587v-129.483" style="fill:#1d1c1a;fill-rule:nonzero;stroke:#636463;stroke-width:.7px" transform="translate(18.887 252.727)" opacity=".1"/><path d="M0-125.984-3.908 1.861l-4.679-.414L.125-127.845" style="fill:#1d1c1a;fill-rule:nonzero;stroke:#636463;stroke-width:.7px" transform="translate(12.981 252.727)" opacity=".1"/></g></g><defs><radialGradient id="_Radial2" cx="0" cy="0" r="1" gradientUnits="userSpaceOnUse" gradientTransform="matrix(1 0 0 -1 0 -.02)"><stop offset="0" style="stop-color:#752104;stop-opacity:1"/><stop offset="1" style="stop-color:#3d1004;stop-opacity:1"/></radialGradient></defs></svg>