<?xml version="1.0" encoding="utf-8"?>
<!-- Generator: Adobe Illustrator 16.0.0, SVG Export Plug-In . SVG Version: 6.00 Build 0)  -->
<!DOCTYPE svg PUBLIC "-//W3C//DTD SVG 1.1//EN" "http://www.w3.org/Graphics/SVG/1.1/DTD/svg11.dtd">
<svg version="1.1" id="Layer_1" xmlns="http://www.w3.org/2000/svg" xmlns:xlink="http://www.w3.org/1999/xlink" x="0px" y="0px"
	 width="480px" height="500px" viewBox="0 0 480 500" enable-background="new 0 0 480 500" xml:space="preserve">
<symbol  id="allison" viewBox="-275.532 -358.227 551.064 716.453">
	<path fill="#121715" d="M131.877,48.825c-15.31,13.923-18.747,26.887-17.841,39.919c3.063,10.628,5.392,21.649,6.928,32.979
		c1.046,4.836,1.246,9.676,1.527,14.777l0,0c0.416,5.734,0.64,11.529,0.64,17.388c0,112.853-78.398,204.338-175.107,204.338
		c-96.71,0-175.108-91.485-175.108-204.338c0-26.746,4.411-52.286,12.417-75.695c0-33.298,55.712-106.562,18.921-139.859
		c-18.203-16.477-42.068-27.124-58.34-45.733c-28.824-32.978,31.924-67.021,54.982-78.914
		c40.977-21.141,91.475-30.246,137.079-31.895c44.471-1.608,92.343-0.705,133.786,17.291c22.639,9.83,46.836,25.017,64.634,42.253
		c32.767,31.733,62.239,69.124,63.812,116.676C201.958,10.982,168.672,14.011,131.877,48.825z"/>
	<path fill="#3A459A" d="M-109.387-82.93C-109.575-68.39-94.3-45.235-46.793-8.375l-16.38,0.919c0,0-49.493-40.751-59.034-72.376
		C-117.853-80.454-113.635-81.671-109.387-82.93z"/>
	<path fill="#DEB097" d="M-108.357-75.754c-3.647,0.825-7.187,2.273-10.479,4.397c-11.494-23.822-6.099-45.141,50.37-44.909
		c-0.911,3.476,1.261,6.708,4.682,9.061C-80.509-106.652-115.85-102.372-108.357-75.754z"/>
	<path fill="#DEB097" d="M-21.631-31.362c0,0,68.772-81.228,116.478-56.155l-3.032,8.897c0,0-47.962-20.719-94.462,49.927"/>
	<path fill="#3A459A" d="M15.753-52.16c-6.085,6.402-12.254,14.131-18.4,23.467l-18.983-2.669c0,0,12.918-15.252,31.432-30.498
		C11.684-58.561,13.667-55.328,15.753-52.16z"/>
	<path fill="#E7BE99" d="M106.905-72.568c-3.176-3.086-3.913-7.821-1.64-10.525c2.271-2.702,3.249-8.423,2.169-12.719l-0.552-2.187
		c-1.079-4.293,0.536-8.583,3.595-9.529c3.057-0.947,5.979,1.873,6.497,6.269l0.397,3.413c0.519,4.395,3.392,5.33,6.396,2.078
		l7.765-8.418c3-3.254,7.552-4.145,10.112-1.981c2.56,2.162,2.099,6.501-1.024,9.636l-8.093,8.125
		c-3.124,3.135-2.229,4.598,1.986,3.248l6.136-1.96c4.216-1.35,8.591-0.464,9.719,1.96c1.126,2.432-1.364,5.624-5.541,7.092
		l-13.636,4.812c-4.177,1.473-5.161,4.436-2.192,6.586c2.971,2.15,3.811,6.169,1.86,8.926c-1.948,2.754-6.138,2.488-9.314-0.6
		L106.905-72.568z"/>
	<g>
		<path fill="#D0E7F1" d="M64.06-2.561L53.384-113.704c0,0,22.728-26.653,66.193-19.89l44.08,114.635
			C163.657-18.959,114.603,10.723,64.06-2.561z"/>
		<path fill="#775335" d="M68.977-37.314l-7.264-70.09c0,0,17.581-22.328,56.396-17.414l22.442,71.03L68.977-37.314z"/>
		<path fill="#896D4A" d="M140.552-53.788c-0.701-3.049-17.299-1.837-37.059,2.712c-19.769,4.554-35.219,10.713-34.517,13.762
			c0.702,3.06,17.291,1.845,37.059-2.707C125.804-44.574,141.252-50.731,140.552-53.788z"/>
	</g>
	<polygon fill="#B9BBBD" points="-8.879,-128.165 -75.687,-125.026 -73.288,-344.409 -67.572,-343.898 -69.005,-159.511 
		-17.492,-155.35 -16.053,-343.898 -10.554,-344.276 	"/>
	<path opacity="0.15" fill="#221F1F" d="M-0.015-350.886c-152.16,0-275.518-1.645-275.518-3.672s123.357-3.669,275.518-3.669
		c152.169,0,275.547,1.642,275.547,3.669S152.154-350.886-0.015-350.886z"/>
	<polyline fill="#3A459A" points="1.713,-27.155 -2.938,-143.395 -77.106,-143.395 -85.286,-24.053 	"/>
	<path fill="#070507" d="M-10.681-344.212c0,0,4.942-7.837,16.855-7.837l0.331-2.435c0,0-15.276-1.205-19.874,6.106l0.309-5.585
		l-5.091,0.535l1.596,10.093L-10.681-344.212z"/>
	<path fill="#070507" d="M-73.764-344.212c0,0-4.944-7.837-16.857-7.837l-0.332-2.435c0,0,15.274-1.205,19.875,6.106l-0.308-5.585
		l5.091,0.535l-1.596,10.093L-73.764-344.212z"/>
	<path fill="#DEB097" d="M71.354,75.672c-0.007,0.575-0.018,1.154-0.036,1.732c-0.013,0.423-0.027,0.847-0.046,1.269
		c-0.028,0.584-0.065,1.171-0.104,1.757c-0.028,0.418-0.056,0.839-0.089,1.256c-0.051,0.612-0.111,1.223-0.174,1.838
		c-0.041,0.402-0.078,0.802-0.126,1.202c-0.079,0.683-0.175,1.365-0.27,2.049c-0.049,0.336-0.089,0.673-0.14,1.013
		c-0.159,1.029-0.333,2.059-0.526,3.093l-2.61,40.322c1.632,5.348,2.975,10.646,4.012,15.85H71.23
		c1.656,8.269,2.55,16.266,2.55,23.755c0,60.94-59.191,110.341-132.207,110.341c-73.02,0-132.21-49.4-132.21-110.341
		c0-16.237,4.392-34.854,12.179-53.437c0,0,0-0.004-0.003-0.004c0.039-0.09,0.08-0.18,0.118-0.272
		c0.105-0.247,0.202-0.49,0.307-0.736c0.004,0.001,0.009,0.003,0.012,0.005c0.021-0.048,0.045-0.096,0.062-0.14
		c1.461-3.431,3.025-6.857,4.713-10.269c0.152-0.312,0.315-0.62,0.475-0.933c0.704-1.409,1.413-2.819,2.158-4.224
		c0.923-1.748,1.877-3.49,2.858-5.222l4.849-26.512c0,0-0.006-0.01-0.021-0.029c-0.004-0.007-0.009-0.019-0.019-0.028
		c-0.013-0.022-0.031-0.049-0.053-0.08c-0.008-0.01-0.016-0.024-0.022-0.034c-0.028-0.045-0.064-0.097-0.101-0.159
		c-0.01-0.012-0.016-0.02-0.021-0.03c-0.146-0.231-0.354-0.576-0.602-1.029c0-0.001,0-0.003-0.004-0.003
		c-2.505-4.552-9.107-19.998,1.614-41.689c0.01-0.02,0.015-0.036,0.024-0.056c0.041-0.077,0.078-0.154,0.118-0.235
		c1.396-2.79,3.079-5.683,5.097-8.671c0.004-0.006,0.004-0.011,0.009-0.013c0.067-0.104,0.145-0.21,0.213-0.311
		c0.004-0.012,0.012-0.018,0.019-0.026c1.299-1.905,2.732-3.851,4.315-5.829c0.005-0.003,0.009-0.007,0.012-0.013
		c0.111-0.137,0.222-0.279,0.335-0.416c0.002,0,0.002-0.003,0.002-0.003c0.781-0.965,1.597-1.94,2.449-2.924
		c0.004-0.006,0.01-0.015,0.018-0.021c0.09-0.108,0.188-0.21,0.281-0.318c0.011-0.012,0.022-0.026,0.032-0.036
		c1.762-2.008,3.676-4.053,5.754-6.123c0-0.007,0.001-0.007,0.001-0.01c0.182-0.177,0.361-0.356,0.544-0.533
		c0.007-0.007,0.013-0.019,0.021-0.023c1.059-1.044,2.155-2.095,3.303-3.156c0.046-0.045,0.094-0.087,0.138-0.127
		c0.005-0.006,0.012-0.017,0.015-0.018c3.649-3.367,7.728-6.81,12.298-10.314c0,0,0.157-0.147,0.447-0.412
		c0.007-0.008,0.01-0.01,0.019-0.018c0.166-0.149,0.369-0.332,0.622-0.559c0.018-0.013,0.038-0.029,0.056-0.048
		c0.786-0.694,1.964-1.722,3.485-2.989c0.021-0.011,0.034-0.029,0.053-0.041c0.495-0.411,1.027-0.85,1.594-1.31
		c0.039-0.029,0.074-0.06,0.111-0.094c0.562-0.456,1.161-0.934,1.788-1.428c0.049-0.036,0.097-0.076,0.141-0.112
		c0.634-0.502,1.296-1.018,1.991-1.553c0.048-0.037,0.101-0.075,0.148-0.113c0.705-0.542,1.441-1.098,2.209-1.671
		c0.038-0.026,0.074-0.053,0.111-0.084c0.789-0.586,1.605-1.184,2.449-1.792c0.014-0.009,0.023-0.017,0.033-0.025
		c4.36-3.142,9.474-6.551,15.111-9.823c0.005-0.005,0.008-0.006,0.015-0.008c1.118-0.65,2.261-1.294,3.417-1.929
		c0.016-0.007,0.03-0.019,0.048-0.024c1.157-0.631,2.33-1.255,3.521-1.867c0.012-0.006,0.024-0.015,0.04-0.02
		c18.104-9.283,40.049-15.691,59.371-7.736c0.008,0,0.013,0.006,0.02,0.006c0,0,0.001,0,0.001,0.005
		c0.673,0.274,1.343,0.57,2.011,0.884c0.007,0,0.009,0.005,0.009,0.005c0.095,0.043,0.19,0.085,0.284,0.125
		c0.005,0.003,0.012,0.003,0.016,0.01c0.73,0.351,1.462,0.717,2.186,1.112c0.509,0.276,1.029,0.566,1.558,0.854
		c0.028,0.016,0.058,0.032,0.085,0.049c0.46,0.255,0.93,0.512,1.402,0.776c0.035,0.021,0.072,0.041,0.11,0.06
		c0.085,0.049,0.177,0.103,0.265,0.149c1.481,0.827,3.029,1.71,4.624,2.633c0.027,0.015,0.051,0.026,0.079,0.044
		c0.049,0.03,0.097,0.058,0.147,0.087c0.042,0.023,0.085,0.046,0.126,0.071c1.09,0.633,2.208,1.29,3.341,1.966
		c0.026,0.016,0.053,0.03,0.079,0.045c0.008,0.007,0.018,0.012,0.027,0.017c0.55,0.328,1.102,0.659,1.66,0.998
		c0.056,0.032,0.109,0.07,0.166,0.1c0.512,0.308,1.02,0.621,1.537,0.935c0.105,0.065,0.209,0.129,0.314,0.196
		c0.494,0.303,0.986,0.606,1.488,0.916c0.123,0.079,0.25,0.154,0.371,0.235c0.501,0.307,0.998,0.622,1.504,0.94
		c0.115,0.069,0.229,0.145,0.342,0.22c0.517,0.323,1.037,0.653,1.561,0.988c0.079,0.055,0.159,0.105,0.241,0.158
		c2.282,1.466,4.611,3.007,6.971,4.619c0.162,0.111,0.318,0.218,0.48,0.326c0.45,0.308,0.903,0.621,1.354,0.939
		c0.233,0.154,0.465,0.316,0.696,0.48c0.42,0.293,0.839,0.588,1.261,0.889c0.268,0.188,0.535,0.381,0.805,0.569
		c0.406,0.292,0.817,0.588,1.228,0.882c0.279,0.2,0.558,0.403,0.835,0.605c0.402,0.291,0.8,0.583,1.202,0.878
		c0.294,0.216,0.588,0.436,0.884,0.65c0.395,0.297,0.792,0.59,1.191,0.892c0.295,0.22,0.591,0.446,0.887,0.67
		c0.392,0.297,0.781,0.593,1.172,0.893c0.32,0.243,0.635,0.492,0.952,0.735c0.376,0.291,0.753,0.58,1.126,0.874
		c0.521,0.41,1.039,0.82,1.558,1.237c0.463,0.366,0.928,0.745,1.392,1.121c0.371,0.299,0.744,0.595,1.11,0.901
		c0.337,0.272,0.67,0.555,1.005,0.83c0.357,0.296,0.712,0.593,1.07,0.887c0.341,0.289,0.678,0.578,1.016,0.865
		c0.352,0.301,0.706,0.604,1.058,0.903c0.333,0.288,0.666,0.579,0.999,0.868c0.356,0.311,0.711,0.622,1.067,0.936
		c0.327,0.287,0.653,0.584,0.979,0.87c0.362,0.328,0.726,0.656,1.087,0.981c0.316,0.287,0.63,0.575,0.943,0.86
		c0.373,0.347,0.747,0.692,1.12,1.039c0.299,0.282,0.594,0.56,0.893,0.842c0.407,0.385,0.812,0.773,1.214,1.158
		c0.259,0.251,0.521,0.499,0.779,0.753c0.553,0.535,1.104,1.082,1.649,1.625c0.125,0.125,0.251,0.248,0.38,0.376
		c0.625,0.634,1.249,1.27,1.867,1.909c0.229,0.233,0.452,0.472,0.679,0.709c0.417,0.436,0.832,0.867,1.246,1.312
		c0.258,0.273,0.512,0.55,0.767,0.828c0.376,0.409,0.755,0.818,1.124,1.229c0.267,0.292,0.525,0.586,0.79,0.881
		c0.362,0.406,0.724,0.81,1.082,1.222c0.258,0.297,0.52,0.595,0.777,0.898c0.355,0.412,0.706,0.825,1.059,1.24
		c0.254,0.301,0.508,0.606,0.759,0.91c0.353,0.423,0.702,0.85,1.051,1.278c0.241,0.297,0.482,0.595,0.722,0.898
		c0.365,0.458,0.729,0.921,1.091,1.385c0.21,0.27,0.423,0.539,0.632,0.814c0.429,0.555,0.849,1.12,1.266,1.685
		c0.138,0.184,0.279,0.364,0.419,0.552c0.55,0.75,1.095,1.512,1.635,2.276c0.114,0.159,0.224,0.327,0.335,0.489
		c0.42,0.604,0.836,1.205,1.244,1.811c0.181,0.274,0.361,0.547,0.539,0.821c0.336,0.505,0.668,1.011,0.992,1.52
		c0.197,0.311,0.39,0.622,0.586,0.933c0.299,0.481,0.597,0.961,0.894,1.443c0.195,0.328,0.393,0.654,0.586,0.986
		c0.28,0.473,0.56,0.949,0.836,1.43c0.193,0.338,0.384,0.672,0.574,1.008c0.27,0.488,0.537,0.971,0.798,1.46
		c0.181,0.328,0.361,0.661,0.537,1.001c0.269,0.506,0.531,1.018,0.791,1.528c0.161,0.317,0.325,0.639,0.48,0.955
		c0.283,0.565,0.554,1.137,0.821,1.704c0.126,0.271,0.259,0.54,0.386,0.812c0.388,0.838,0.764,1.682,1.129,2.531
		c0.002,0.004,0.004,0.01,0.004,0.01c0.371,0.859,0.719,1.721,1.063,2.586c0.105,0.27,0.204,0.543,0.309,0.811
		c0.229,0.598,0.458,1.197,0.675,1.795c0.121,0.336,0.236,0.673,0.354,1.013c0.192,0.542,0.378,1.085,0.557,1.632
		c0.118,0.364,0.233,0.726,0.347,1.09c0.169,0.53,0.331,1.061,0.485,1.594c0.11,0.375,0.219,0.747,0.325,1.123
		c0.147,0.532,0.289,1.063,0.43,1.599c0.099,0.378,0.197,0.757,0.291,1.137c0.133,0.545,0.258,1.095,0.383,1.64
		c0.084,0.376,0.17,0.745,0.249,1.121c0.122,0.574,0.235,1.157,0.349,1.743c0.063,0.347,0.135,0.689,0.195,1.038
		c0.123,0.684,0.23,1.379,0.338,2.071c0.034,0.248,0.08,0.492,0.115,0.738c0.136,0.939,0.254,1.882,0.357,2.83
		c0.024,0.238,0.043,0.479,0.065,0.715c0.071,0.716,0.14,1.435,0.194,2.155c0.025,0.357,0.042,0.717,0.063,1.071
		c0.038,0.607,0.075,1.219,0.099,1.831c0.015,0.396,0.023,0.794,0.033,1.191c0.015,0.58,0.025,1.162,0.029,1.747
		C71.36,74.842,71.356,75.257,71.354,75.672z"/>
	<path opacity="0.7" fill="#C79777" d="M-97.448,87.552c0,0,9.969,6.053-0.916,17.613c-10.876,11.573,0.062,0.824,0.062,0.824
		s-34.822,43.958-57.36,24.635l-7.003-10.614l1.132-9.379L-97.448,87.552z"/>
	<path fill="#FFFFFF" d="M-152.629,101.318c0,0,17.771-44.368,56.203-10.189c0,0-27.134,28.273-56.42,10.697"/>
	<path fill="#221F1F" d="M-93.404,99.105c0,0-55.636,80.765-69.829,19.41C-163.233,118.516-145.472,159.897-93.404,99.105z"/>
	<g>
		<defs>
			<path id="SVGID_1_" d="M-152.629,101.318c0,0,17.771-44.368,56.203-10.189c0,0-27.134,28.273-56.42,10.697"/>
		</defs>
		<clipPath id="SVGID_2_">
			<use xlink:href="#SVGID_1_"  overflow="visible"/>
		</clipPath>
		<path clip-path="url(#SVGID_2_)" fill="#51463D" d="M-107.403,107.47c6.998-0.954,11.854-7.573,10.843-14.789
			c-1.003-7.213-7.492-12.292-14.495-11.344c-7,0.961-11.855,7.581-10.852,14.788C-120.9,103.338-114.408,108.42-107.403,107.47z"/>
		<path clip-path="url(#SVGID_2_)" fill="#221F1F" d="M-108.275,100.855c3.431-0.465,5.81-3.71,5.322-7.241
			c-0.495-3.535-3.677-6.027-7.108-5.56c-3.426,0.463-5.811,3.706-5.314,7.244C-114.886,98.838-111.708,101.321-108.275,100.855z"/>
		<path clip-path="url(#SVGID_2_)" fill="#FFFFFF" d="M-115.293,96.292c1.371-0.188,2.326-1.49,2.133-2.912
			c-0.199-1.418-1.478-2.416-2.854-2.227c-1.377,0.181-2.336,1.488-2.138,2.904C-117.954,95.481-116.675,96.476-115.293,96.292z"/>
	</g>
	<path fill="#221F1F" d="M-96.426,91.129c-0.493,0.363-0.884,2.044-1.28,2.591c-1.414,1.921-3.193,3.66-4.956,5.328
		c-6.802,6.412-15.047,10.078-25.538,10.806c-4.259,0.288-8.568,0.218-12.869,0.013c-5.497-0.253-11.012-1.244-16.509-1.292
		c-5.31-0.054-10.331,1.161-14.719,3.415c-2.194,1.126-4.477,2.559-6.138,4.229c-1.601,1.607-2.838,3.676-3.512,5.737
		c0,0,0.8-16.058,21.288-21.082c0,0-5.521-2.359-16.031,1.621c0,0,3.792-4.438,14.293-7.167c3.086-0.803,6.349-1.741,8.55-3.78
		c3.133-2.891,5.141-6.598,8.491-9.385c2.983-2.474,6.691-4.362,10.889-5.057c2.31-0.384,4.943-0.536,7.337-0.29
		c1.845,0.184,3.679,0.485,5.492,0.896c1.41,0.321,2.953,1.027,4.365,1.235c0,0-25.875-3.766-31.622,22.678
		C-148.895,101.626-127.766,114.152-96.426,91.129z"/>
	<path opacity="0.2" fill="#010101" d="M-150.532,98.127c0,0,21.088,8.73,54.106-6.998l-12.05,8.453l-16.603,5.791l-15.958,1.345
		l-6.631-2.203L-150.532,98.127z"/>
	<g>
		<path opacity="0.4" fill="#C79777" d="M-41.83,105.869c0,0,63.417-61.646,83.087,18.827L-41.83,105.869z"/>
		<path fill="#FFFFFF" d="M33.15,121.632c0,0-19.116-47.406-74.879-17.636c0,0,33.554,32.252,75.109,18.177"/>
		<path fill="#51463D" d="M30.005,124.154c-12.885-1.488-26.467-0.914-39.54-0.829c-0.036-0.287-0.093-0.564-0.12-0.854
			c-0.979-11.441,7.512-21.505,18.949-22.478c11.441-0.979,21.504,7.512,22.478,18.948c0.158,1.897,0.052,3.753-0.28,5.541
			C31.03,124.329,30.534,124.216,30.005,124.154z"/>
		<path fill="#221F1F" d="M1.113,123.209c-0.146-0.558-0.258-1.129-0.306-1.721c-0.483-5.607,3.682-10.537,9.283-11.017
			c5.604-0.475,10.539,3.681,11.018,9.287c0.109,1.275-0.033,2.51-0.368,3.669C14.248,123.105,7.66,123.129,1.113,123.209z"/>
		<path fill="#FFFFFF" d="M-0.89,114.456c-0.195-2.249,1.473-4.232,3.724-4.428c2.255-0.191,4.237,1.481,4.426,3.735
			c0.192,2.247-1.478,4.23-3.725,4.422C1.278,118.378-0.702,116.707-0.89,114.456z"/>
		<path fill="#221F1F" d="M-41.729,103.996c0.62,0.427-0.048,0.811,1.442,2.801c1.616,2.155,3.907,4.132,6.115,6.056
			c8.485,7.396,19.222,12.193,33.338,14.285c5.714,0.854,11.559,1.336,17.391,1.688c7.475,0.448,15.03,0.157,22.479,0.82
			c7.174,0.634,13.842,2.52,19.523,5.376c2.841,1.432,5.77,3.182,7.833,5.101c1.979,1.834,3.431,4.1,4.11,6.283
			c0,0,0.699-16.427-26.454-24.189c0,0,7.723-1.685,21.505,3.722c0,0-4.639-4.995-18.535-9.131
			c-4.081-1.216-8.39-2.594-11.147-4.947c-3.914-3.353-6.219-7.374-10.45-10.643c-3.746-2.9-8.553-5.299-14.152-6.552
			c-3.081-0.688-6.624-1.184-9.898-1.247c-2.504-0.045-5.027,0.022-7.525,0.198c-1.942,0.147-4.109,0.668-6.043,0.699
			c0,0,35.424-0.478,40.248,27.144C28.05,121.459-1.905,131.461-41.729,103.996z"/>
		<path fill="#221F1F" d="M-46.718,107.146c0,0,81.104,107.062,108.262,38.261C61.544,145.407,30.36,189.995-46.718,107.146z"/>
		<path opacity="0.2" fill="#010101" d="M32.379,117.881c0,0-34.226,6.078-74.107-13.885l7.251,6.256l13.97,9.034l18.969,4.873
			l17.926,0.905c0,0,6.499,0.17,6.892,0.108c0.391-0.062,9.416-0.585,9.416-0.585L32.379,117.881z"/>
	</g>
	<path fill="#C29885" d="M-93.271,61.938c0,0,29.891-30.752,60.881,8.992C-32.39,70.931-56.884,45.271-93.271,61.938z"/>
	<g>
		<path fill="#121715" d="M-128.281,282.702c-20.285,18.722-79.567-71.764-84.249-92.049c-12.481-49.92,26.524-74.886,70.205-57.723
			c54.607,21.843,24.964,51.483,23.402,92.047c-1.561,34.322,31.205,59.286,65.524,56.165L-128.281,282.702z"/>
	</g>
	<path fill="#121715" d="M-58.427,294.111c0,0,18.665-91.254,141.443-147.706l5.71,85.798l-117.958,94.746L-58.427,294.111z"/>
	<path fill="#AE7874" d="M10.884,39.681c0,0-47.476,4.484-65.746-18.35c0,0-34.649,16.53-57.531-2.146
		C-112.394,19.186-48.61-76.667,10.884,39.681z"/>
	<path fill="#C88A82" d="M10.884,39.681c0.662,0.557-0.789-1.532-1.185-2.285c-59.149-112.797-122.093-18.21-122.093-18.21
		S-49.611-11.299,10.884,39.681z"/>
	<polygon fill="#070507" points="-67.722,-344.409 -66.295,-247.259 -75.687,-247.259 -75.081,-345.823 	"/>
	<polygon fill="#121715" points="-10.681,-344.212 -7.321,-249.153 -18.15,-249.153 -16.947,-345.823 	"/>
</symbol>
<use xlink:href="#allison"  width="551.064" height="716.453" id="XMLID_1_" x="-275.532" y="-358.227" transform="matrix(0.6801 0 0 -0.6801 262.6055 251.0703)" overflow="visible"/>
<g>
</g>
<g>
</g>
<g>
</g>
<g>
</g>
<g>
</g>
<g>
</g>
<g>
</g>
<g>
</g>
<g>
</g>
<g>
</g>
<g>
</g>
<g>
</g>
<g>
</g>
</svg>
