<?xml version="1.0" encoding="utf-8"?>
<!-- Generator: Adobe Illustrator 16.0.0, SVG Export Plug-In . SVG Version: 6.00 Build 0)  -->
<!DOCTYPE svg PUBLIC "-//W3C//DTD SVG 1.1//EN" "http://www.w3.org/Graphics/SVG/1.1/DTD/svg11.dtd">
<svg version="1.1" id="Layer_1" xmlns="http://www.w3.org/2000/svg" xmlns:xlink="http://www.w3.org/1999/xlink" x="0px" y="0px"
	 width="480px" height="500px" viewBox="0 0 480 500" enable-background="new 0 0 480 500" xml:space="preserve">
<g>
	<g>
		<polyline fill="#8A5E3C" points="315.471,249.425 121.836,338.266 114.464,325.156 349.446,214.752 357.702,230.368 
			322.449,246.342 		"/>
		<g>
			<path fill="#E1A880" d="M354.563,229.917c-2.83,0.814-26.918,11.987-29.687,12.975c-2.402,0.859-4.962,1.233-7.426,1.79
				c-3.497,0.793-6.437,2.097-9.399,4.014c-4.488,2.903-9.185,6.09-14.331,7.817c-1.54,0.523-3.325,0.898-4.718,0.247
				c-1.684-0.788-1.21-2.716-0.265-4.065c1.345-1.934,4.017-3.033,5.803-1.558c1.589,1.315-1.453,2.41-2.68,2.162
				c-0.272-0.051-0.077-0.43,0.191-0.375c2.07,0.418,2.641-1.503,1.103-2.072c-0.93-0.348-2.079,0.298-2.844,0.828
				c-1.267,0.875-2.317,2.471-1.915,3.771c0.456,1.469,2.508,1.357,3.959,1.052c3.999-0.857,7.942-3.406,11.361-5.507
				c2.674-1.643,5.216-3.582,8.082-4.915c3.125-1.452,6.606-1.993,9.903-2.726c3.953-0.88,28.946-12.711,32.827-13.828
				C354.812,229.45,354.846,229.837,354.563,229.917L354.563,229.917z"/>
			<path fill="#E1A880" d="M289.747,257.081c-6.906,1.109-11.813,6.04-17.69,9.308c-5.719,3.18-11.949,5.641-18.288,7.108
				c-3.486,0.811-6.958,1.333-10.323,2.712c-3.293,1.346-6.327,3.283-9.408,5.013c-5.446,3.064-106.946,51.011-113.04,52.305
				c-0.287,0.062-0.322-0.326-0.035-0.387c6.346-1.351,107.942-49.473,113.604-52.651c2.875-1.617,5.684-3.312,8.725-4.635
				c3.126-1.358,6.442-1.863,9.716-2.579c7.029-1.535,13.904-4.351,20.167-7.954c5.527-3.183,9.97-7.572,16.537-8.63
				C290.001,256.643,290.034,257.032,289.747,257.081L289.747,257.081z"/>
			<path fill="#E1A880" d="M352.131,222.708c-2.695,2.69-27.554,13.584-31.243,14.298c-1.961,0.382-3.925,0.705-5.88,1.14
				c-1.231,0.277-2.408,0.753-3.443,1.481c-0.483,0.401-0.856,0.865-1.119,1.39c-0.787,1.38,0.99,1.631,2.11,1.201
				c0.278-0.106,0.428,0.243,0.153,0.351c-3.774,1.452-3.403-1.831-0.961-3.546c1.904-1.338,4.793-1.622,6.969-2.019
				c4.228-0.771,29.908-11.353,33.071-14.507C351.992,222.298,352.335,222.507,352.131,222.708L352.131,222.708z"/>
			<path fill="#E1A880" d="M310.407,240.743c-6.868,1.801-10.113,9.196-17.26,10.251c-0.287,0.046-0.325-0.343-0.035-0.384
				c7.078-1.047,10.392-8.451,17.261-10.257C310.658,240.277,310.692,240.667,310.407,240.743L310.407,240.743z"/>
			<path fill="#E1A880" d="M116.327,326.856c-0.266-0.084-0.505-0.07-0.559-0.314c-0.026-0.131,0.136-0.237,0.265-0.236
				c1.124-0.024,2.322-0.459,3.446-0.681c1.283-0.248,2.574-0.424,3.862-0.623c2.535-0.394,100.637-46.469,103.141-47.127
				c5.246-1.38,10.306-3.457,15.26-5.709c10.308-4.697,20.931-9.084,30.541-15.052c4.688-2.914,9.005-6.321,13.448-9.532
				c4.29-3.105,8.701-5.826,13.5-8.191c4.96-2.453,10.06-4.935,15.201-6.99c4.066-1.63,29.941-12.562,34.206-12.762
				c0.289-0.013,0.205,0.384-0.081,0.394c-4.889,0.229-31.453,11.482-35.997,13.587c-5.129,2.375-10.302,4.649-15.339,7.2
				c-10.134,5.133-18.301,12.974-28.086,18.624c-9.319,5.385-19.501,9.646-29.351,14.02c-4.547,2.021-9.209,3.73-14.002,4.991
				c-2.516,0.664-100.636,46.661-103.182,47.053c-1.287,0.197-2.565,0.405-3.849,0.655c-0.673,0.132-1.34,0.304-2.008,0.485
				c-1.253,0.351-0.071-0.121-0.23-0.169C116.773,326.556,116.583,326.934,116.327,326.856L116.327,326.856z"/>
		</g>
	</g>
	<path fill="#8F9294" d="M362.004,267.208l-51.048,21.085l-19.649-77.135l32.245-8.215
		C331.42,221.811,362.004,267.208,362.004,267.208z"/>
	<path fill="#BA202F" d="M323.552,202.943c4.519,10.834,16.527,30.419,25.934,45.128c-14.748,5.841-29.587,11.446-44.442,17.004
		l-13.736-53.917L323.552,202.943z"/>
</g>
<path fill="#6E9B75" d="M214.886,297.611c-26.17-9.251-38.858-19.154-38.791-30.272c0.094-15.307,24.919-24.188,27.749-25.15
	l2.709,7.969c-7.178,2.451-22.004,9.889-22.043,17.235c-0.016,3.167,3.184,11.68,33.182,22.286L214.886,297.611z M206.553,250.157
	l-1.355-3.985l1.357,3.984L206.553,250.157L206.553,250.157z"/>
<path fill="#E2B885" d="M184.824,269.24c-1.625-0.38-3.245-0.761-4.872-1.124c-1.281-0.286-2.57-0.556-3.854-0.834
	c0,0.021-0.003,0.035-0.003,0.057c-0.067,11.118,12.621,21.021,38.791,30.272l2.805-7.933
	C192.342,280.714,186.13,273.251,184.824,269.24z"/>
<path fill="#6E9B75" d="M229.203,289.679c29.998-10.606,33.197-19.119,33.181-22.286c-0.04-7.347-14.865-14.784-22.042-17.235
	l2.708-7.969c2.831,0.963,27.656,9.844,27.749,25.15c0.068,11.118-12.62,21.021-38.791,30.272L229.203,289.679z M240.342,250.157
	l-0.001-0.001l1.356-3.984L240.342,250.157L240.342,250.157z"/>
<path fill="#E2B885" d="M262.069,269.24c1.623-0.38,3.246-0.761,4.872-1.124c1.283-0.286,2.569-0.556,3.854-0.834
	c0,0.021,0.004,0.035,0.004,0.057c0.068,11.118-12.62,21.021-38.791,30.272l-2.805-7.933
	C254.553,280.714,260.765,273.251,262.069,269.24z"/>
<polyline fill="#7B8468" points="209.205,306.389 209.207,289.88 240.755,288.992 238.784,485.777 236.092,485.485 237.298,305.202 
	212.995,306.51 "/>
<polygon fill="#6E9B75" points="244.503,299.779 246.184,241.429 205.1,242.122 206.495,299.779 "/>
<path fill="#070507" d="M238.864,485.737c0,0,2.257,3.743,7.882,3.848l0.127,1.154c0,0-7.209,0.443-9.318-3.055l0.094,2.631
	l-2.392-0.283l0.837-4.758L238.864,485.737z"/>
<g opacity="0.1">
	<path fill="#010101" d="M114.464,490.563c0,1.552,54.449,2.803,121.612,2.803c67.179,0,121.626-1.251,121.626-2.803
		c0-1.547-54.447-2.806-121.626-2.806C168.913,487.758,114.464,489.017,114.464,490.563z"/>
	<path fill="#A38060" d="M236.076,493.76c-32.505,0-63.048-0.291-86.001-0.819c-36.004-0.829-36.004-1.724-36.004-2.377
		c0-0.652,0-1.545,36.004-2.376c22.988-0.531,53.531-0.823,86.001-0.823c32.477,0,63.025,0.292,86.015,0.823
		c36.004,0.831,36.004,1.724,36.004,2.376c0,0.653,0,1.548-36.004,2.377C299.136,493.469,268.589,493.76,236.076,493.76z
		 M115.581,490.563c6.804,1.199,52.362,2.409,120.495,2.409c68.141,0,113.706-1.21,120.51-2.409
		c-6.807-1.201-52.375-2.413-120.51-2.413C167.948,488.15,122.387,489.362,115.581,490.563z"/>
</g>
<path fill="#E2B885" d="M279.153,9.375c-36.325-11.123-92.021-6.093-117.226,26.125c-11.875,15.182-16.17,34.481-12.746,53.295
	c1.644,9.033,7.5,13.077,4.975,23c-2.368,9.296-8.278,17.002-12.513,25.47c-12.669,25.342-0.905,57.012,16.292,77.829
	c7.239,9.052,17.193,19.908,27.148,26.249c0,0,40.901,37.825,71.485,3.87l0,0c9.783-8.618,29.113-30.245,26.143-64.666l-1.12-1.357
	c19.258-24.044,48.645-49.166,54.628-79.935C343.403,62.326,314.127,20.084,279.153,9.375z"/>
<path fill="#603A17" d="M201.372,163.798c-42.845,9.857-35.951,45.831-25.254,70.713c2.938,2.574,5.953,4.913,8.967,6.832
	c0,0,40.901,37.825,71.485,3.87c4.384-3.861,10.681-10.343,16.031-19.406C274.246,161.518,259.75,150.367,201.372,163.798z"/>
<path fill="#E2B885" d="M304.469,140.965c0,0,16.013-10.561,26.031,12.152c12.471,28.328-23.794,16.589-23.794,16.589
	s-11.529-3.569-11.71,9.982c-0.189,13.529-1.61,17.564-5.945,16.271c-4.33-1.313-10.93-10.339-8.893-17.117
	C288.971,149.605,304.469,140.965,304.469,140.965z"/>
<g>
	<path fill="#A87D50" d="M296.031,159.369c0,0,28.699-24.218,18.255,3.54C314.286,162.908,317.135,145.331,296.031,159.369z"/>
	<path fill="#A87D50" d="M295.899,159.387c0,0,17.453-9.743,4.681,9.785C300.58,169.171,307.34,155.586,295.899,159.387z"/>
</g>
<path fill="#FFFFFF" d="M157.155,118.303c-0.138,6.305,4.651,11.742,10.72,12.141c6.052,0.379,11.072-4.42,11.212-10.745
	c0.147-6.311-4.653-11.75-10.7-12.137C162.329,107.177,157.318,111.978,157.155,118.303z"/>
<path fill="#E7E7E7" d="M166.604,112.261c-3.863-0.249-7.298,1.623-9.321,4.65c-0.066,0.457-0.116,0.92-0.128,1.392
	c-0.138,6.305,4.651,11.742,10.72,12.141c3.853,0.244,7.285-1.624,9.308-4.641c0.066-0.461,0.11-0.924,0.124-1.403
	C177.455,118.088,172.655,112.646,166.604,112.261z"/>
<path fill="#231F20" d="M171.25,121.448c-0.058,1.67,0.846,3.085,2.008,3.169c1.166,0.07,2.15-1.216,2.199-2.89
	c0.059-1.672-0.84-3.092-2.002-3.167C172.295,118.487,171.304,119.779,171.25,121.448z"/>
<g>
	<path fill="#FFFFFF" d="M206.469,120.705c0.839,8.96,9.773,15.861,19.979,15.383c10.18-0.477,17.746-8.131,16.907-17.106
		c-0.826-8.977-9.77-15.875-19.954-15.388C213.207,104.063,205.646,111.725,206.469,120.705z"/>
	<path fill="#E7E7E7" d="M240.688,123.436c-0.827-8.973-9.769-15.87-19.953-15.384c-5.57,0.258-10.346,2.674-13.403,6.267
		c-0.751,1.986-1.067,4.144-0.864,6.386c0.839,8.96,9.773,15.861,19.979,15.383c5.562-0.261,10.332-2.675,13.388-6.265
		C240.583,127.838,240.897,125.679,240.688,123.436z"/>
	<path fill="#231F20" d="M225.443,122.536c0.792,1.833,2.492,2.896,3.783,2.382c1.295-0.514,1.687-2.407,0.884-4.239
		c-0.8-1.822-2.493-2.894-3.781-2.383C225.029,118.818,224.639,120.71,225.443,122.536z"/>
</g>
<path fill="#603A17" d="M141.859,96.513l1.17,12.354c0,0,33.254,11.485,37.257-13.988l-7.099-9.242
	C173.188,85.638,169.224,108.878,141.859,96.513z"/>
<path fill="#A87D50" d="M283.706,191.063c0,0-5.818-5.106-7.671-13.295c0,0-1.878,13.297,6.25,19.731L283.706,191.063z"/>
<path fill="#603A17" d="M210.39,101.343l1.974-16.389c0,0,47.333-15.274,52.331,18.485l-10.282,12.266
	C254.412,115.705,249.413,84.893,210.39,101.343z"/>
<g>
	<path fill="#D6555E" d="M217.751,200.445c0.621,0.57,7.009,23.042,1.886,31.474l14.604,5.149c0,0,29.389-2.159,25.372-49.722
		L217.751,200.445z"/>
	<path fill="#923540" d="M227.06,234.534c-2.304-1.356,2.589-35.021,31.083-22.171C258.143,212.363,246.281,245.857,227.06,234.534z
		"/>
	<path fill="#FFFFFF" d="M257.551,174.084c0,0-0.654,4.927-6.373,8.788c-0.624,0.716-1.392,1.826-2.236,2.342
		c-5.74,3.511-9.104,5.467-15.725,6.511c-1.095,0.173-5.608,1.275-6.656,1.168c-9.244,1.575-21.771,0.765-36.977-0.154
		c0,0,0.23,7.855,5.128,9.915c4.889,2.056,54.792,0.075,64.917-14.785L257.551,174.084z"/>
	<path fill="#FFFFFF" d="M201.412,231.768c0,0-0.55-7.612,2.395-7.34c2.942,0.268,34.147,12.189,34.147,12.189
		S224.268,240.733,201.412,231.768z"/>
	<path fill="#A87D50" d="M226.891,238.546c-7.271,0.001-16.215-1.836-27.208-6.507c-0.474-0.201-0.695-0.748-0.493-1.22
		c0.201-0.474,0.745-0.695,1.221-0.493c14.939,6.345,41.68,13.537,52.929-9.603c6.907-14.213,6.364-31.916,4.225-45.71
		c-1.231,3.88-3.512,7.221-6.813,9.971c-16.063,13.375-52.079,9.859-69.386,8.169l-1.519-0.147
		c-0.511-0.049-0.886-0.504-0.837-1.017c0.049-0.511,0.493-0.887,1.017-0.837l1.521,0.148c15.723,1.537,52.547,5.132,68.013-7.747
		c4.259-3.545,6.658-8.167,7.132-13.735c0.039-0.462,0.414-0.826,0.878-0.85c0.464-0.029,0.875,0.296,0.964,0.753
		c2.803,14.565,4.47,35.378-3.521,51.816C251.448,228.869,243.578,238.545,226.891,238.546z"/>
	<polyline fill="#D6555E" points="246.553,208.349 243.222,218.434 239.527,216.949 237.345,221.326 247.972,225.47 
		250.169,220.672 246.553,219.571 250.773,209.069 248.167,209.486 	"/>
</g>
<path fill="#A87D50" d="M176.071,150.952c0,0,19.308,43.591,37.485-3.981C213.556,146.971,200.758,169.813,176.071,150.952z"/>
<path fill="#A87D50" d="M250.773,156.245c0,0,17.07-15.127,20.025,6.664C270.799,162.908,265.646,148.878,250.773,156.245z"/>
<g>
	<ellipse fill="#8A5E3C" cx="182.123" cy="490.304" rx="14.581" ry="3.062"/>
	<path fill="#B3C78F" d="M154.495,446.915c0,0-27.983-1.82-21.445,22.274C133.05,469.189,153.838,475.298,154.495,446.915z"/>
	<path fill="#8A5E3C" d="M193.042,410.394c-8.558,0.813-17.094,1.449-25.618,1.918l0.241,34.955l-27.523-20.632l-3.636,6.033
		l31.365,27.415l-0.329,30.221c9.407-0.972,19.599,0.573,29.009-0.315l0.214-78.172
		C195.524,411.942,194.287,410.275,193.042,410.394z"/>
	<g>
		<path fill="#E1A880" d="M171.519,412.07c-0.254,0.015-0.506,0.032-0.758,0.046c0.138,12.954,0.226,26.443,0.458,29.024
			c0.381,4.265,1.609,8.435,2.495,12.578c1.25,5.895,1.331,11.291,0.491,17.156c-0.999,6.991-2.155,14.303-2.128,21.516
			c0.175-0.016,0.348-0.034,0.523-0.053c0.034-4.486,0.649-9.077,1.145-13.236c0.626-5.228,1.796-10.47,1.809-15.776
			c0.02-5.785-1.608-11.477-2.812-17.021C171.944,442.616,171.728,426.676,171.519,412.07z"/>
		<path fill="#E1A880" d="M182.196,411.322c-0.233,0.018-0.468,0.036-0.702,0.054c0.067,13.787,0.696,28.418,1.503,31.704
			c0.797,3.257,1.688,6.48,2.398,9.77c0.447,2.073,0.547,4.199,0.165,6.289c-0.271,1.021-0.717,1.917-1.332,2.689
			c-1.554,2.172-3.184-0.364-3.314-2.376c-0.035-0.497-0.671-0.48-0.645,0.016c0.446,6.775,5.189,3.901,6.082-1.029
			c0.698-3.85-0.897-8.454-1.824-12.048C183.518,442.48,182.472,426.168,182.196,411.322z"/>
		<path fill="#E1A880" d="M180.51,491.538c0.211-0.021,0.424-0.041,0.635-0.064c-0.975-10.13,6.01-19.475,4.146-30.004
			c-0.085-0.488-0.703-0.265-0.615,0.221C186.535,472.175,179.587,481.396,180.51,491.538z"/>
		<path fill="#E1A880" d="M192.604,410.431c-0.127,0.014-0.25,0.022-0.375,0.034c1.2,16.786,1.797,37.678,1.791,42.935
			c-0.015,9.488,0.157,18.976-0.188,28.454c-0.104,2.839-0.34,5.652-0.656,8.452c0.187-0.017,0.371-0.035,0.558-0.056
			c0.452-4.112,0.756-8.251,0.867-12.469c0.246-9.289,0.444-18.812-0.042-28.096C194.332,445.239,193.68,426.231,192.604,410.431z"
			/>
	</g>
	<path fill="#E1A880" d="M167.578,451.451c-1.466-0.859-2.714-2.006-4.104-2.967c-1.208-0.834-2.611-1.386-3.919-2.035
		c-1.854-0.93-3.27-2.111-4.569-3.686c-1.965-2.383-3.989-4.973-6.596-6.689c-0.78-0.519-1.733-0.974-2.684-0.732
		c-1.154,0.294-1.306,1.571-1.054,2.541c0.354,1.389,1.664,2.408,3.025,1.691c1.214-0.639-0.312-1.701-1.076-1.695
		c-0.171,0-0.144,0.265,0.027,0.263c1.294-0.014,1.2,1.272,0.183,1.445c-0.617,0.105-1.142-0.443-1.471-0.872
		c-0.541-0.708-0.798-1.843-0.275-2.618c0.59-0.875,1.754-0.555,2.53-0.184c2.135,1.028,3.859,3.124,5.383,4.867
		c1.189,1.364,2.236,2.901,3.606,4.094c1.496,1.298,3.397,2.064,5.151,2.93c2.099,1.038,3.729,2.713,5.736,3.892
		C167.616,451.778,167.723,451.539,167.578,451.451L167.578,451.451z"/>
	<path fill="#E1A880" d="M154.592,448.084c-3.586-1.976-3.842-7.051-7.758-8.59c-0.157-0.062-0.263,0.18-0.105,0.244
		c3.882,1.521,4.17,6.609,7.76,8.587C154.637,448.407,154.744,448.166,154.592,448.084L154.592,448.084z"/>
	<path fill="#E1A880" d="M196.704,411.816c0,1.692-6.527,3.064-14.581,3.064c-8.051,0-14.58-1.372-14.58-3.064
		c0-1.688,6.529-3.06,14.58-3.06C190.177,408.757,196.704,410.129,196.704,411.816z"/>
	<path fill="#8A5E3C" d="M190.411,411.25c0,0.453-3.326,0.82-7.427,0.82c-4.104,0-7.43-0.367-7.43-0.82
		c0-0.45,3.326-0.819,7.43-0.819C187.085,410.431,190.411,410.8,190.411,411.25z"/>
</g>
<path fill="#7B8468" d="M185.339,331.477l-0.115,75.837l2.597-0.126l0.612-75.891C187.408,331.407,186.376,331.469,185.339,331.477z
	"/>
<path fill="#070507" d="M185.023,406.557c0,0-2.404,3.654-8.025,3.549l-0.176,1.147c0,0,7.196,0.709,9.43-2.703l-0.196,2.633
	l2.411-0.212l-0.666-4.771L185.023,406.557z"/>
<polyline fill="#7B8468" points="188.432,331.297 212.753,302.472 209.205,302.472 185.339,331.477 "/>
</svg>
