<?xml version="1.0" encoding="utf-8"?>
<!-- Generator: Adobe Illustrator 16.0.0, SVG Export Plug-In . SVG Version: 6.00 Build 0)  -->
<!DOCTYPE svg PUBLIC "-//W3C//DTD SVG 1.1//EN" "http://www.w3.org/Graphics/SVG/1.1/DTD/svg11.dtd">
<svg version="1.1" id="Layer_1" xmlns="http://www.w3.org/2000/svg" xmlns:xlink="http://www.w3.org/1999/xlink" x="0px" y="0px"
   width="480px" height="500px" viewBox="0 0 480 500" enable-background="new 0 0 480 500" xml:space="preserve">
<symbol  id="brandon" viewBox="-143.824 -183.564 287.648 367.13">
  <path fill="#E9C09B" d="M103.51,68.439c0-42.977-32.209-77.816-71.94-77.816c-39.73,0-71.939,34.84-71.939,77.816
    s32.209,77.816,71.939,77.816C71.301,146.256,103.51,111.416,103.51,68.439z"/>
  <path fill="#C6AB6D" d="M-22.96,107.736c0,0,15.807-22.133,3.54-43.565l8.337-21.629l-24.42-2.286l-3.701,61.677L-22.96,107.736z"
    />
  <path fill="#C6AB6D" d="M84.055,128.992c0,0-44.711-45.338-102.045-9.338C-17.99,119.654,12.088,164.446,84.055,128.992z"/>
  <path fill="#754C29" d="M103.452,141.725c-17.138,10.416-40.256,11.626-59.685,9.379c-3.077-0.356-6.151-0.811-9.217-1.351
    l-0.978,7.821c26.861-10.943,49.652,19.633,17.463,25.436c-32.189,5.801-28.118-35.721-28.118-35.721l0.091-0.016
    c-8.693-2.195-17.242-5.125-25.505-8.729c5.305,12.128,16.074,20.62,16.074,20.62c-21.994-3.76-24.818-18.6-24.818-18.6
    c-2.199,10.844,1.891,15.662,2.522,16.33c-10.991-10.997-13.565-22.096-13.945-28.886c-2.755-1.697-5.462-3.47-8.104-5.332
    l0.377,0.417c0,0-22.832,34.92-44.293,10.236c-21.46-24.684,15.458-34.246,29.545-8.893l5.34-8.662
    c-13.319-10.969-24.691-24.185-33.04-39.359c-6.074-11.044-10.758-23.738-13.399-36.077c-3.207-14.987-4.952-32.184-3.617-47.503
    c2.34-26.858,9.68-50.277,21.446-74.396c7.854-16.102,19.066-31.601,22.971-49.31c0.825-3.735,5.374-48.845,5.805-48.903
    c0,0,8.285-1.035,8.29-1.036c1.779,0.018,7.616,11.645,8.733,13.256c5.379,7.752,13.684,16.317,23.961,15.417l54.229-7.61
    c6.661-3.657,9.843-8.748,11.708-18.153c0.139-0.704,12.162,0.199,13.237,0.199l-1.71,18.815
    c7.986-1.331,17.703,0.755,10.674,22.359l-25.384,99.28c14.472,3.039,56.034,27.869,37.19,73.603
    c8.746-9.739,12.702-15.458,12.702-15.458c2.397,17.722-10.816,43.893-10.816,43.893c16.456-7.742,25.384-21.039,25.384-21.039
    c-0.413,21.1-23.755,47.416-23.755,47.416c14.629-2.115,25.526-10.912,25.526-10.912
    C131.299,101.43,122.287,130.281,103.452,141.725z M37.302-3.736c-34.504-2.766-65.1,27.741-68.337,68.139
    c-3.236,40.396,22.111,75.385,56.616,78.149c34.503,2.765,65.101-27.741,68.335-68.139C97.154,34.017,71.807-0.973,37.302-3.736z"
    />
  <path fill="#593920" d="M-9.555-6.497c0,0-23.648-28.047-21.788-61.999c0,0,2.966,16.907,6.288,20.632
    c0,0-5.165-25.43,2.953-51.632c0,0-0.12,16.238,1.601,23.619c0,0-2.13-66.488,46.11-59.815L-9.555-6.497z"/>
  <path fill="#593920" d="M-6.928,7.334c0,0-0.578-1.28-1.533-3.573c-8.533-20.477-33.288-147.405,40.03-139.071
    c81.527,9.267,15.315,113.412,15.315,113.412"/>
  <path fill="#754C29" d="M-50.396,12.838c0,0-57.885,22.509-53.116,53.595l5.486,0.02c0,0-2.319-30.4,45.497-42.633"/>
  <g>
    <path fill="#754C29" d="M-99.67,62.677c-2.168-1.404-4.958-1.208-6.199,0.438c-1.24,1.646-4.369,2.946-6.951,2.891l-1.316-0.028
      c-2.582-0.056-4.812,1.423-4.953,3.285c-0.143,1.861,1.843,3.156,4.41,2.878l1.994-0.217c2.567-0.278,3.474,1.236,2.014,3.367
      l-3.778,5.513c-1.46,2.131-1.376,4.835,0.188,6.01c1.564,1.176,3.971,0.349,5.349-1.837l3.567-5.66
      c1.378-2.186,2.326-1.867,2.108,0.706l-0.317,3.746c-0.218,2.573,0.854,4.946,2.383,5.271c1.528,0.326,3.02-1.507,3.313-4.073
      l0.961-8.385c0.294-2.566,1.852-3.513,3.461-2.103c1.609,1.409,4.003,1.362,5.317-0.104c1.314-1.467,0.617-3.816-1.552-5.221
      L-99.67,62.677z"/>
  </g>
  <path fill="#754C29" d="M56.863-42.569c0,0,62.107-0.282,69.067,30.387l-5.098,2.029c0,0-8.987-29.134-57.959-22.982"/>
  <g>
    <path fill="#754C29" d="M120.979-14.268c1.502-2.102,4.17-2.941,5.928-1.865s5.146,1.139,7.528,0.141l1.213-0.51
      c2.383-0.998,4.999-0.44,5.813,1.24c0.814,1.68-0.557,3.613-3.049,4.295l-1.933,0.529c-2.491,0.682-2.779,2.424-0.64,3.871
      l5.535,3.742c2.14,1.447,3.053,3.995,2.028,5.662c-1.024,1.666-3.566,1.78-5.649,0.252l-5.395-3.958
      c-2.083-1.528-2.849-0.885-1.702,1.431l1.668,3.367c1.146,2.315,1.02,4.916-0.283,5.779s-3.362-0.295-4.576-2.575l-3.968-7.448
      c-1.215-2.28-3.011-2.59-3.992-0.688c-0.98,1.901-3.224,2.735-4.984,1.853c-1.762-0.883-1.973-3.324-0.471-5.426L120.979-14.268z"
      />
  </g>
  <path opacity="0.15" fill="#231F20" d="M128.436-180.809c0-1.522-60.948-2.756-136.129-2.756
    c-75.184,0-136.131,1.233-136.131,2.756c0,1.521,60.947,2.755,136.131,2.755C67.487-178.054,128.436-179.287,128.436-180.809z"/>
  <path fill="#754C29" d="M67.391-3.67"/>
  <path fill="#754C29" d="M-31.343-180.81c0,0-34.484,17.572-34.484,1.322L-31.343-180.81z"/>
  <path fill="#754C29" d="M66.812-178.598c0,0,34.484,17.57,34.484,1.32L66.812-178.598z"/>
  <path fill="#E9C09B" d="M-17.99,35.403c0,0-13.013-80.069,67.653-66.665s42.268,79.34,42.268,79.34L-17.99,35.403z"/>
  <path fill="#D09E78" d="M31.185,35.124c0,0,15.277-17.689,28.091,3.156C59.275,38.28,48.434,26.893,31.185,35.124z"/>
  <path fill="#D09E78" d="M25.609,6.657c0,0,15.474-17.739,33.611-0.349C59.221,6.309,41.821-4.096,25.609,6.657z"/>
  <path fill="none" stroke="#B2846B" stroke-linecap="round" stroke-linejoin="round" stroke-miterlimit="10" d="M1.412,28.547
    c0,0,27.204-30,63.704-12"/>
  <path fill="#B2846B" d="M1.412,21.266c0,0-11.706,14.99,8.396,9.804C9.808,31.069-5.476,35.242,1.412,21.266z"/>
  <path fill="#D09E78" d="M36.047-26.361c0,0,16,23.632,37.333,5.929C73.38-20.433,54.714-8.587,36.047-26.361z"/>
  <path fill="#E9C09B" d="M-19.944,52.636c0,0-7.071,18.562-26.891,11.934c-24.715-8.26,10.046-28.14,10.046-28.14
    s10.979-6.42,4.001-14.983c-6.99-8.556-7.97-12.125-3.875-14.568c4.095-2.434,14.041-1.764,15.993,3.977
    C-12.239,35.647-19.944,52.636-19.944,52.636z"/>
  <g>
    <path fill="#D09E78" d="M-22.96,34.864c0,0-9.89,36.569-16.244,11.474C-39.204,46.338-32.207,59.398-22.96,34.864z"/>
    <path fill="#D09E78" d="M-22.853,34.747c0,0-8.632,19.139-8.842-2.562C-31.694,32.185-29.872,45.679-22.853,34.747z"/>
  </g>
  <path fill="#754C29" d="M-86.237,40.339c0,0-22.359-31.731-10.512-76.879c0,0,0.542,18.019,3.524,27.149
    c0,0-1.303-41.638,11.285-62.521c0,0-5.529,6.928,0.938,21.16S-86.237,40.339-86.237,40.339z"/>
  <path fill="#C6AB6D" d="M-11.083,69.307c0,0,22.146,5.125,46.341,0.355V58.104c0,0-20.104,3.224-46.341-3.07V69.307z"/>
  <path fill="#C6AB6D" d="M83.923,70.114c0,0-15.146,5.125-31.691,0.355V58.912c0,0,13.748,3.224,31.691-3.07V70.114z"/>
  
    <line fill="none" stroke="#B2846B" stroke-linecap="round" stroke-linejoin="round" stroke-miterlimit="10" x1="0.701" y1="55.136" x2="35.344" y2="55.034"/>
  <path fill="#B2846B" d="M26.232,55.311c0-3.217-2.49-5.825-5.562-5.825s-5.562,2.608-5.562,5.825"/>
  
    <line fill="none" stroke="#B2846B" stroke-width="0.9242" stroke-linecap="round" stroke-linejoin="round" stroke-miterlimit="10" x1="52.231" y1="54.928" x2="76.955" y2="54.834"/>
  <path fill="#B2846B" d="M68.535,55.09c0-2.973-2.302-5.384-5.141-5.384c-2.84,0-5.142,2.411-5.142,5.384"/>
</symbol>
<use xlink:href="#brandon"  width="287.648" height="367.13" id="XMLID_2_" x="-143.824" y="-183.564" transform="matrix(1.3195 0 0 -1.3195 224.9355 249.417)" overflow="visible"/>
</svg>