<?xml version="1.0" encoding="utf-8"?>
<!-- Generator: Adobe Illustrator 16.0.0, SVG Export Plug-In . SVG Version: 6.00 Build 0)  -->
<!DOCTYPE svg PUBLIC "-//W3C//DTD SVG 1.1//EN" "http://www.w3.org/Graphics/SVG/1.1/DTD/svg11.dtd">
<svg version="1.1" id="Layer_1" xmlns="http://www.w3.org/2000/svg" xmlns:xlink="http://www.w3.org/1999/xlink" x="0px" y="0px"
	 width="480px" height="500px" viewBox="0 0 480 500" enable-background="new 0 0 480 500" xml:space="preserve">
<g>
	<path fill="none" stroke="#231F20" stroke-width="9.4629" stroke-miterlimit="10" d="M272.869,249.774
		c0.763,0.278,81.291,33.593,23.244,65.681"/>
	<path fill="none" stroke="#231F20" stroke-width="9.4629" stroke-miterlimit="10" d="M219.454,258.21c0,0-76.276-0.609-36.455,44.8
		"/>
	<path fill="#424243" d="M250.277,377.968l-1.681,105.978l3.264,0.391l2.027-105.954
		C252.683,378.257,251.479,378.12,250.277,377.968z"/>
	<path fill="#424243" d="M220.241,373.675l-0.46,109.474l3.146-0.119l1.764-108.747C223.195,374.14,221.711,373.941,220.241,373.675
		z"/>
	<polygon fill="#231F20" points="271.754,320.634 274.68,232.876 218.555,232.621 224.772,318.071 	"/>
	<path fill="#09080A" d="M251.957,484.3c0,0,2.682,4.572,9.507,4.779l0.138,1.412c0,0-8.757,0.415-11.259-3.852l0.076,3.192
		l-2.899-0.378l1.09-5.76L251.957,484.3z"/>
	<path fill="#09080A" d="M219.405,483.104c0,0-2.972,4.384-9.797,4.173l-0.228,1.397c0,0,8.727,0.963,11.485-3.145l-0.274,3.194
		l2.926-0.223l-0.735-5.81L219.405,483.104z"/>
	<path opacity="0.1" fill="#010101" stroke="#A38060" stroke-width="0.8759" d="M94,490.744c0,1.501,57.112,2.713,127.558,2.713
		c70.465,0,127.573-1.212,127.573-2.713c0-1.496-57.108-2.719-127.573-2.719C151.112,488.025,94,489.248,94,490.744z"/>
	<path fill="#424242" d="M194.205,329.556c0,0,29.791,38.488,91.804,9.938L194.205,329.556z"/>
	<path fill="#424242" d="M222.028,344.293c0,0,20.058,7.378,43.11,0H222.028z"/>
	<polygon fill="#424242" points="287.234,338.662 195.241,339.518 195.09,322.918 287.075,322.061 	"/>
	<path fill="#D1D2D2" d="M237.553,325.51c-0.009-0.865-0.719-1.56-1.583-1.55c-0.864,0.007-1.561,0.716-1.55,1.581
		c0.006,0.863,0.718,1.56,1.578,1.554C236.867,327.084,237.562,326.375,237.553,325.51z"/>
	<path fill="#D1D2D2" d="M237.601,331.58c-0.009-0.865-0.721-1.559-1.587-1.552c-0.862,0.006-1.561,0.714-1.549,1.58
		c0.005,0.867,0.715,1.562,1.58,1.553C236.912,333.153,237.609,332.446,237.601,331.58z"/>
	<path fill="none" stroke="#D1D2D2" stroke-width="0.7644" d="M210.083,323.857c0,0,34.493-10.004,60.432,2.207"/>
	<path fill="none" stroke="#D1D2D2" stroke-width="0.7644" d="M215.438,311.167c0,0,14.542,4.621,24.169,9.014
		c0,0,12.764-12.137,23.356-8.9"/>
	<path fill="#E7E6E6" d="M253.429,295.958c0,0,10.153,6.634,22.27-0.627C275.698,295.331,261.441,298.827,253.429,295.958z"/>
	<path fill="#E7E6E6" d="M200.393,295.178c0,0,9.619,7.377,22.255,1.053C222.648,296.23,208.169,298.64,200.393,295.178z"/>
	<path fill="none" stroke="#D1D2D2" stroke-width="0.7644" d="M239.607,320.181c0,0-1.834,9.248,0.014,14.035"/>
	<polygon fill="#E92629" points="239.507,320.702 250.938,303.951 241.537,285.533 228.092,304.374 	"/>
	<path fill="#424242" d="M219.679,338.137c0,0,20.127,7.191,43.116-0.402L219.679,338.137z"/>
	<polygon fill="#7A7B7D" points="156.962,388.578 156.962,393.145 267.835,400.277 286.872,365.97 286.671,361.574 	"/>
	<g>
		<polygon fill="#939598" points="290.291,358.645 286.709,362.45 283.637,357.837 		"/>
		<g>
			<polygon fill="#939598" points="191.051,281.832 187.506,284.232 192.289,288.568 289.802,287.938 289.479,285.463 			"/>
			<polygon fill="#939598" points="191.051,281.832 292.623,284.497 290.255,358.651 190.084,357.493 			"/>
			<polygon fill="#231F20" points="187.506,284.232 289.079,286.899 286.676,362.094 185.741,358.77 			"/>
		</g>
	</g>
	<polygon fill="#2AA6DD" points="190.676,353.854 282.577,357.017 283.48,291.985 192.936,289.954 	"/>
	<g>
		<path fill="#E8BF9B" d="M300.304,317.643c0.623,1.856-0.374,3.92-2.215,4.586l-0.028,0.01c-1.841,0.666-3.734,2.766-4.208,4.666
			l-0.697,2.802c-0.474,1.9-2.316,3.146-4.097,2.768s-2.641-2.175-1.913-3.992l1.304-3.254c0.728-1.817-0.205-2.825-2.073-2.239
			l-7.875,2.47c-1.868,0.586-3.984-0.347-4.703-2.073c-0.719-1.726,0.239-3.558,2.129-4.07l8-2.172
			c1.89-0.513,1.865-1.25-0.054-1.638l-5.587-1.128c-1.919-0.388-3.431-1.9-3.358-3.361c0.072-1.462,1.71-2.385,3.639-2.052
			l10.092,1.742c1.929,0.333,2.784-0.824,1.9-2.571l-0.152-0.299c-0.884-1.747-0.216-3.82,1.485-4.606s3.603,0.089,4.226,1.945
			L300.304,317.643z"/>
	</g>
	<path fill="#D2D3D4" d="M256.639,290.956h10.745c0,0-5.556-47.5,2.901-50.151l-12.424-7.088c0,0-4.743,21.1-1.307,57.208
		L256.639,290.956z"/>
	<circle fill="#939598" cx="261.272" cy="285.504" r="2.504"/>
	<polygon fill="#939598" points="185.741,358.77 156.962,388.578 266.756,395.647 286.676,362.094 	"/>
	<path fill="#D2D3D4" d="M215.293,288.524h10.748c0,0-0.43-44.708,13.327-40.408l-8.599-8.167c0,0-18.876,12.245-15.438,48.354
		L215.293,288.524z"/>
	<circle fill="#939598" cx="220.972" cy="283.575" r="2.503"/>
	<polygon fill="none" stroke="#767778" stroke-width="0.9462" points="203.053,388.913 208.92,380.839 235.301,382.156 
		229.065,390.636 	"/>
	<polygon fill="#231F20" points="198.242,361.669 271.705,365.296 260.217,381.62 186.452,376.181 	"/>
	<line fill="none" stroke="#939598" stroke-width="0.9462" x1="195.471" y1="363.442" x2="271.306" y2="367.493"/>
	<line fill="none" stroke="#939598" stroke-width="0.9462" x1="193.156" y1="366.625" x2="268.991" y2="370.678"/>
	<line fill="none" stroke="#939598" stroke-width="0.9462" x1="190.985" y1="369.953" x2="266.819" y2="374.007"/>
	<line fill="none" stroke="#939598" stroke-width="0.9462" x1="187.222" y1="373.86" x2="263.057" y2="377.913"/>
	<line fill="none" stroke="#939598" stroke-width="0.9462" x1="192.636" y1="377.447" x2="204.051" y2="360.609"/>
	<line fill="none" stroke="#939598" stroke-width="0.9462" x1="198.629" y1="378.589" x2="210.045" y2="361.751"/>
	<line fill="none" stroke="#939598" stroke-width="0.9462" x1="205.765" y1="379.16" x2="217.18" y2="362.322"/>
	<line fill="none" stroke="#939598" stroke-width="0.9462" x1="214.923" y1="375.223" x2="223.174" y2="362.607"/>
	<line fill="none" stroke="#939598" stroke-width="0.9462" x1="221.459" y1="375.393" x2="229.451" y2="363.463"/>
	<line fill="none" stroke="#939598" stroke-width="0.9462" x1="227.898" y1="376.223" x2="236.871" y2="362.607"/>
	<line fill="none" stroke="#939598" stroke-width="0.9462" x1="233.613" y1="376.326" x2="242.293" y2="363.463"/>
	<line fill="none" stroke="#939598" stroke-width="0.9462" x1="237.444" y1="380.299" x2="248.857" y2="363.463"/>
	<line fill="none" stroke="#939598" stroke-width="0.9462" x1="245.146" y1="380.87" x2="256.563" y2="364.033"/>
	<line fill="none" stroke="#939598" stroke-width="0.9462" x1="252.281" y1="381.44" x2="263.698" y2="364.604"/>
	<g>
		<ellipse fill="#7A7B7D" cx="186.167" cy="362.484" rx="1.192" ry="0.643"/>
		<ellipse fill="#7A7B7D" cx="189.47" cy="362.861" rx="1.192" ry="0.641"/>
		<ellipse fill="#7A7B7D" cx="192.867" cy="363.238" rx="1.192" ry="0.643"/>
		<ellipse fill="#7A7B7D" cx="184.386" cy="364.605" rx="1.194" ry="0.642"/>
		<ellipse fill="#7A7B7D" cx="187.689" cy="364.982" rx="1.193" ry="0.642"/>
		<ellipse fill="#7A7B7D" cx="191.085" cy="365.361" rx="1.192" ry="0.643"/>
		<ellipse fill="#7A7B7D" cx="182.688" cy="366.557" rx="1.193" ry="0.643"/>
		<ellipse fill="#7A7B7D" cx="185.991" cy="366.936" rx="1.193" ry="0.643"/>
		<ellipse fill="#7A7B7D" cx="189.388" cy="367.312" rx="1.193" ry="0.645"/>
		<ellipse fill="#7A7B7D" cx="180.822" cy="368.594" rx="1.193" ry="0.643"/>
		<ellipse fill="#7A7B7D" cx="184.125" cy="368.971" rx="1.193" ry="0.641"/>
		<ellipse fill="#7A7B7D" cx="187.521" cy="369.349" rx="1.193" ry="0.643"/>
		<ellipse fill="#7A7B7D" cx="178.616" cy="370.631" rx="1.192" ry="0.642"/>
		<ellipse fill="#7A7B7D" cx="181.918" cy="371.009" rx="1.192" ry="0.643"/>
		<ellipse fill="#7A7B7D" cx="185.316" cy="371.386" rx="1.193" ry="0.644"/>
	</g>
	<g>
		
			<ellipse transform="matrix(0.9949 -0.1007 0.1007 0.9949 -35.5743 29.4297)" fill="#7A7B7D" cx="273.784" cy="367.162" rx="1.193" ry="0.641"/>
		
			<ellipse transform="matrix(0.9949 -0.1006 0.1006 0.9949 -35.5343 29.7389)" fill="#7A7B7D" cx="277.108" cy="367.208" rx="1.194" ry="0.643"/>
		
			<ellipse transform="matrix(0.995 -0.0999 0.0999 0.995 -35.2734 29.8517)" fill="#7A7B7D" cx="280.527" cy="367.241" rx="1.193" ry="0.643"/>
		
			<ellipse transform="matrix(0.995 -0.0999 0.0999 0.995 -35.5496 29.0462)" fill="#7A7B7D" cx="272.225" cy="369.452" rx="1.192" ry="0.643"/>
		<path fill="#7A7B7D" d="M276.735,369.376c-0.036-0.352-0.596-0.584-1.251-0.517c-0.656,0.062-1.159,0.404-1.122,0.756
			c0.034,0.354,0.595,0.586,1.25,0.521C276.269,370.069,276.771,369.729,276.735,369.376z"/>
		
			<ellipse transform="matrix(0.9949 -0.1007 0.1007 0.9949 -35.7864 29.9636)" fill="#7A7B7D" cx="278.966" cy="369.53" rx="1.193" ry="0.643"/>
		<path fill="#7A7B7D" d="M271.919,371.445c-0.035-0.353-0.595-0.586-1.252-0.521c-0.654,0.067-1.158,0.406-1.122,0.76
			c0.036,0.351,0.597,0.585,1.252,0.519S271.954,371.798,271.919,371.445z"/>
		
			<ellipse transform="matrix(0.995 -0.0999 0.0999 0.995 -35.7559 29.2401)" fill="#7A7B7D" cx="274.057" cy="371.608" rx="1.192" ry="0.642"/>
		<path fill="#7A7B7D" d="M278.659,371.521c-0.035-0.352-0.596-0.583-1.25-0.518c-0.655,0.066-1.158,0.406-1.123,0.758
			c0.036,0.354,0.597,0.586,1.251,0.521C278.193,372.213,278.695,371.875,278.659,371.521z"/>
		
			<ellipse transform="matrix(0.995 -0.0998 0.0998 0.995 -35.9693 28.7288)" fill="#7A7B7D" cx="269.08" cy="373.778" rx="1.193" ry="0.643"/>
		
			<ellipse transform="matrix(0.9949 -0.1007 0.1007 0.9949 -36.2662 29.3373)" fill="#7A7B7D" cx="272.403" cy="373.823" rx="1.193" ry="0.642"/>
		
			<ellipse transform="matrix(0.9948 -0.1015 0.1015 0.9948 -36.5325 29.936)" fill="#7A7B7D" cx="275.82" cy="373.857" rx="1.193" ry="0.644"/>
		
			<ellipse transform="matrix(0.995 -0.0999 0.0999 0.995 -36.2322 28.566)" fill="#7A7B7D" cx="267.089" cy="376.027" rx="1.192" ry="0.642"/>
		
			<ellipse transform="matrix(0.9949 -0.1008 0.1008 0.9949 -36.5169 29.1609)" fill="#7A7B7D" cx="270.413" cy="376.07" rx="1.192" ry="0.642"/>
		<path fill="#7A7B7D" d="M275.018,375.985c-0.035-0.353-0.598-0.585-1.252-0.519c-0.657,0.065-1.158,0.404-1.121,0.757
			c0.035,0.352,0.596,0.587,1.248,0.52C274.551,376.676,275.053,376.339,275.018,375.985z"/>
	</g>
	<polygon fill="#42C6F4" points="271.301,308.145 260.03,317.95 274.253,322.517 258.535,327.48 266.77,337.029 250.815,335.818 
		250.854,347.791 238.937,340.731 230.772,351.919 226.086,340.901 211.903,348.306 215.705,336.281 199.303,337.92 
		210.574,328.115 196.349,323.544 212.067,318.582 203.832,309.034 219.787,310.244 219.748,298.271 231.665,305.331 
		239.83,294.146 244.516,305.164 258.701,297.759 254.898,309.781 	"/>
	<g>
		<path fill="#E8BF9B" d="M178.537,300.192c-1.421,1.347-1.508,3.637-0.194,5.089l0.02,0.021c1.314,1.452,2.002,4.194,1.528,6.094
			l-0.698,2.803c-0.474,1.899,0.571,3.864,2.32,4.365c1.75,0.501,3.353-0.682,3.562-2.629l0.376-3.483
			c0.209-1.947,1.507-2.399,2.882-1.006l5.796,5.872c1.375,1.394,3.682,1.562,5.126,0.375c1.444-1.187,1.457-3.254,0.028-4.594
			l-6.046-5.669c-1.428-1.34-1.061-1.979,0.816-1.422l5.462,1.623c1.877,0.558,3.921-0.07,4.542-1.395
			c0.621-1.324-0.393-2.907-2.254-3.519l-9.728-3.191c-1.861-0.611-2.074-2.033-0.473-3.162l0.276-0.194
			c1.601-1.129,1.982-3.272,0.849-4.765c-1.134-1.493-3.224-1.611-4.645-0.265L178.537,300.192z"/>
	</g>
	<path fill="#CA9D69" d="M266.376,176.642c7.543-4.271,16.531-5.56,24.984-3.53l0.117,0.027c8.834,2.121,16.551,7.73,21.297,15.474
		c1.943,3.173,3.333,6.631,4.16,10.21c22.048-37.287,68.656-75.418,51.493-129.008C347.757,5.278,214.34,16.019,214.34,16.019
		c2.425,28.078-18.971,82.323-18.971,82.323L266.376,176.642z"/>
	<path fill="#E7BE99" d="M177.342,208.351c2.245,12.65,4.831,36.84,15.66,42.49c16.12,8.411,44.536,17.037,60.494,11.044
		c22.01-8.257,62.043-45.246,60.344-71.457c-0.323-5.18,4.846-14.146,6.344-19.101c6.856-22.75,20.197-56.014,8.927-79.255
		c-9.859-20.339-38.248-28.271-58.308-32.753c-3.957-0.893-50.473-9.742-52.242-4.781c-3.185,8.939-16.473,41.448-20.5,50.041
		c-8.454,18.043-22.772,33.613-26.958,53.492C167.188,176.655,174.041,189.708,177.342,208.351z"/>
	<path fill="#CE9C78" d="M307.48,211.427c0,0-7.562-10.065-3.789-18.021c0,0-8.62,14.019,0.713,22.665L307.48,211.427"/>
	<g>
		<path opacity="0.39" fill="#CD9D78" d="M221.958,172.442c2.226,0.178,6.779-2.864,9.258-3.481
			c4.005-1.004,9.311,4.317,13.963,0.588c0,0-20.59,18.445-35.737,11.607c0,0-11.453-5.37-11.467-28.886
			C197.975,152.27,204.376,171.048,221.958,172.442z"/>
		<path fill="#CD9D78" d="M246.936,164.129c0,0,3.051,16.308-13.72,4.278C233.215,168.407,245.301,174.309,246.936,164.129z"/>
		<path fill="#CD9D78" d="M239.43,165.267c0,0-32.254,27.019-40.793-12.881C198.637,152.386,214.11,178.703,239.43,165.267z"/>
	</g>
	<path fill="#A17F60" d="M249.417,224.169c0,0-14.997,5.481-28.229-4.469C221.188,219.7,233.628,232.339,249.417,224.169z"/>
	<path fill="none" stroke="#A17F60" stroke-width="0.9747" stroke-miterlimit="10" d="M196.57,202.222
		c0,0,57.721,27.013,87.032-1.346"/>
	<path fill="#CA9D69" d="M326.079,83.341c0,0-20.803,41.003-7.062,54.229l-6.908,28.771l17.293,4.152l17.949-51.602L326.079,83.341z
		"/>
	<path fill="#E7BE99" d="M318.716,165.062c0,0,13.624-17.596,32.72-4.034c23.8,16.906-19.942,26.892-19.942,26.892
		s-13.853,3.307-9.165,14.756c4.709,11.45,4.601,15.6-0.59,16.88c-5.188,1.275-16.22-6.226-16.444-13.013
		C304.338,177.219,318.716,165.062,318.716,165.062z"/>
	<g>
		<path fill="#CE9C78" d="M316.162,185.093c0,0,22.512-35.974,21.152-7.012C337.314,178.082,334.069,161.803,316.162,185.093z"/>
		<path fill="#CE9C78" d="M316.009,185.191c0,0,15.484-17.709,8.651,5.623C324.66,190.814,327.094,175.754,316.009,185.191z"/>
	</g>
	<path fill="none" stroke="#A07953" stroke-width="0.9747" stroke-miterlimit="10" d="M226.306,48.592
		c0,0,3.569-12.627,2.896-26.375"/>
	<path fill="none" stroke="#A07953" stroke-width="0.9747" stroke-miterlimit="10" d="M235.491,50.797c0,0,7.25-20.608,7.773-32.372
		"/>
	<path fill="none" stroke="#A07953" stroke-width="0.9747" stroke-miterlimit="10" d="M254.395,52.344
		c0,0,7.247-20.607,7.771-32.371"/>
	<path fill="none" stroke="#A07953" stroke-width="0.9747" stroke-miterlimit="10" d="M263.498,54.529
		c0,0,7.249-20.606,7.773-32.371"/>
	<path fill="none" stroke="#A07953" stroke-width="0.9747" stroke-miterlimit="10" d="M272.036,56.58c0,0,7.247-20.607,7.771-32.37"
		/>
	<path fill="none" stroke="#A07953" stroke-width="0.9747" stroke-miterlimit="10" d="M281.247,58.791c0,0,7.247-20.607,7.771-32.37
		"/>
	<path fill="none" stroke="#A07953" stroke-width="0.9747" stroke-miterlimit="10" d="M291.476,61.967
		c0,0,7.248-20.608,7.771-32.371"/>
	<path fill="none" stroke="#A07953" stroke-width="0.9747" stroke-miterlimit="10" d="M300.873,64.998
		c0,0,7.246-20.606,7.772-32.371"/>
	<path fill="none" stroke="#A07953" stroke-width="0.9747" stroke-miterlimit="10" d="M311.132,67.461c0,0,7.247-20.606,7.771-32.37
		"/>
	<path fill="none" stroke="#A07953" stroke-width="0.9747" stroke-miterlimit="10" d="M317.415,72.289
		c0,0,9.834-19.507,11.863-31.106"/>
	<path fill="none" stroke="#A07953" stroke-width="0.9747" stroke-miterlimit="10" d="M325.852,77.344
		c0,0,13.36-17.284,17.557-28.285"/>
	<path fill="none" stroke="#A07953" stroke-width="0.9747" stroke-miterlimit="10" d="M245.134,50.121
		c0,0,7.357-24.203,8.353-29.242"/>
	<path fill="none" stroke="#A07953" stroke-width="0.9747" stroke-miterlimit="10" d="M331.122,87.149
		c0,0,5.648,17.175,30.812,27.013"/>
	<path fill="none" stroke="#A07953" stroke-width="0.9747" stroke-miterlimit="10" d="M328.445,98.299
		c0,0,5.648,17.173,30.812,27.012"/>
	<path fill="none" stroke="#A07953" stroke-width="0.9747" stroke-miterlimit="10" d="M325.372,111.104
		c0,0,5.647,17.173,30.811,27.01"/>
	<path fill="none" stroke="#A07953" stroke-width="0.9747" stroke-miterlimit="10" d="M329.644,80.289
		c1.091,0.612,23.843-9.908,30.051-19.781"/>
	<path fill="none" stroke="#A07953" stroke-width="0.9747" stroke-miterlimit="10" d="M331.711,84.695
		c0,0,18.215,10.684,32.908,10.497"/>
	<path fill="none" stroke="#A07953" stroke-width="0.9747" stroke-miterlimit="10" d="M321.526,127.117
		c0,0,12.534,13.697,24.933,19.097"/>
	<path fill="none" stroke="#A07953" stroke-width="0.9747" stroke-miterlimit="10" d="M322.24,143.229
		c0,0,5.454,7.776,13.929,10.946"/>
	<path fill="none" stroke="#A07953" stroke-width="0.9747" stroke-miterlimit="10" d="M330.927,82.365
		c0,0,25.809,0.605,32.644-2.312"/>
	<g>
		<path fill="#FFFFFF" d="M215.804,321.793l1.466-0.393l2.035,7.597c0.808,3.016-0.426,4.34-2.38,4.863
			c-0.539,0.145-1.228,0.202-1.639,0.151l-0.101-1.255c0.334,0.036,0.8,0.02,1.288-0.111c1.314-0.352,1.931-1.149,1.335-3.373
			L215.804,321.793z"/>
		<path fill="#FFFFFF" d="M230.908,323.704c1.047,3.909-0.773,6.617-3.671,7.394c-2.999,0.803-5.728-0.957-6.648-4.394
			c-0.966-3.605,0.643-6.565,3.675-7.378C227.364,318.496,230.005,320.335,230.908,323.704z M222.147,326.25
			c0.65,2.427,2.546,4.247,4.854,3.629c2.325-0.623,3.066-3.115,2.375-5.691c-0.604-2.258-2.416-4.301-4.859-3.646
			C222.091,321.191,221.479,323.757,222.147,326.25z"/>
		<path fill="#FFFFFF" d="M231.368,317.785c0.604-0.306,1.587-0.679,2.615-0.954c1.465-0.393,2.477-0.392,3.338-0.009
			c0.707,0.28,1.241,0.859,1.48,1.753c0.293,1.095-0.174,2.248-1.253,3.007l0.009,0.033c1.15-0.018,2.653,0.535,3.104,2.221
			c0.262,0.977,0.073,1.821-0.351,2.531c-0.598,0.937-1.787,1.616-3.641,2.112c-1.011,0.271-1.805,0.411-2.311,0.475
			L231.368,317.785z M234.079,322.042l1.331-0.356c1.55-0.415,2.243-1.468,1.95-2.562c-0.357-1.331-1.507-1.582-2.99-1.186
			c-0.674,0.181-1.048,0.336-1.271,0.448L234.079,322.042z M235.537,327.483c0.3-0.025,0.726-0.122,1.248-0.262
			c1.516-0.406,2.765-1.337,2.323-2.988c-0.416-1.55-1.917-1.834-3.518-1.405l-1.213,0.325L235.537,327.483z"/>
		<path fill="#FFFFFF" d="M242.823,324.81c0.765,0.229,1.815,0.308,2.827,0.037c1.498-0.402,2.162-1.429,1.855-2.574
			c-0.284-1.061-1.053-1.505-2.744-1.684c-2.029-0.161-3.433-0.814-3.861-2.414c-0.474-1.77,0.64-3.477,2.847-4.068
			c1.162-0.312,2.076-0.267,2.658-0.116l-0.083,1.305c-0.425-0.104-1.273-0.236-2.301,0.039c-1.55,0.415-1.892,1.499-1.685,2.274
			c0.285,1.062,1.115,1.399,2.845,1.586c2.119,0.227,3.345,0.892,3.791,2.56c0.47,1.751-0.421,3.616-3.1,4.334
			c-1.096,0.293-2.378,0.292-3.093,0.051L242.823,324.81z"/>
		<path fill="#FFFFFF" d="M251.021,321.024l-2.402-8.023l1.617-0.433l1.931,8.148L251.021,321.024z M251.245,323.546
			c-0.162-0.606,0.142-1.157,0.715-1.312c0.606-0.162,1.111,0.173,1.273,0.779c0.158,0.589-0.107,1.147-0.714,1.311
			C251.93,324.481,251.403,324.135,251.245,323.546z"/>
	</g>
	<path fill="#A17F60" d="M280.154,193.407c0,0,22.902-0.167,12.469,18.284C292.623,211.69,297.868,197.781,280.154,193.407z"/>
	<path fill="#FFFFFF" d="M202.896,121.498c-1.916,4.905,0.279,10.539,4.922,12.591c4.636,2.032,9.947-0.293,11.871-5.21
		c1.925-4.905-0.279-10.545-4.911-12.583C210.141,114.255,204.835,116.584,202.896,121.498z"/>
	<path fill="#FFFFFF" d="M257.121,133.89c-2.358,6.14,1.253,13.559,8.096,16.555c6.822,2.994,14.262,0.435,16.624-5.718
		c2.371-6.147-1.247-13.567-8.077-16.553C266.935,125.175,259.495,127.737,257.121,133.89z"/>
	<path fill="#C4E8F3" d="M212.037,119.468c-2.961-1.303-6.189-0.817-8.645,0.976c-0.181,0.338-0.351,0.686-0.495,1.054
		c-1.916,4.905,0.279,10.539,4.922,12.591c2.953,1.294,6.176,0.815,8.627-0.97c0.183-0.343,0.354-0.696,0.502-1.069
		C218.873,127.144,216.667,121.504,212.037,119.468z"/>
	<path fill="#E0E1E0" d="M278.647,146.781c2.372-6.146-1.248-13.566-8.078-16.552c-3.73-1.638-7.641-1.607-10.812-0.244
		c-1.134,1.057-2.043,2.368-2.636,3.905c-2.358,6.14,1.253,13.559,8.096,16.555c3.728,1.636,7.633,1.604,10.799,0.244
		C277.15,149.632,278.058,148.319,278.647,146.781z"/>
	<path fill="#CA9D69" d="M308.226,145.389l-10.89,8.528c0,0-8.839-23.444-54.771-21.909l-0.303-11.358
		C242.263,120.65,307.535,111.036,308.226,145.389z"/>
	<path fill="#CA9D69" d="M182.915,115.053l4.325,9.602c0,0,9.112-15.193,33.696-0.76l2.256-8.515
		C223.192,115.379,189.628,89.249,182.915,115.053z"/>
	<g>
		<circle fill="#3BB14A" cx="275.922" cy="143.229" r="4.232"/>
		<circle fill="#231F20" cx="275.922" cy="143.229" r="2.155"/>
		<circle fill="#FFFFFF" cx="274.007" cy="141.991" r="1.239"/>
	</g>
	<g>
		<circle fill="#3BB14A" cx="214.912" cy="126.917" r="3.164"/>
		<circle fill="#231F20" cx="214.912" cy="126.917" r="1.611"/>
		<circle fill="#FFFFFF" cx="213.481" cy="125.992" r="0.926"/>
	</g>
</g>
<g>
</g>
<g>
</g>
<g>
</g>
<g>
</g>
<g>
</g>
<g>
</g>
</svg>
