<?xml version="1.0" encoding="utf-8"?>
<!-- Generator: Adobe Illustrator 16.0.0, SVG Export Plug-In . SVG Version: 6.00 Build 0)  -->
<!DOCTYPE svg PUBLIC "-//W3C//DTD SVG 1.1//EN" "http://www.w3.org/Graphics/SVG/1.1/DTD/svg11.dtd">
<svg version="1.1" id="Layer_1" xmlns="http://www.w3.org/2000/svg" xmlns:xlink="http://www.w3.org/1999/xlink" x="0px" y="0px"
	 width="480px" height="500px" viewBox="0 0 480 500" enable-background="new 0 0 480 500" xml:space="preserve">
<g>
	<polygon fill="#E9C09B" points="304.059,171.923 377.964,156.267 378.935,164.628 300.222,182.75 	"/>
	<path fill="#E9C09B" d="M81.61,239.023c13.737-17.039,37.29-38.988,74.899-67.257l2.77,9.988c0,0-55.871,40.747-73.76,72.021"/>
	<polygon fill="#175680" points="233.131,293.297 152.803,289.862 156.441,480.751 163.314,480.099 161.005,331.286 
		222.921,326.022 225.265,479.851 233.875,479.815 	"/>
	<path fill="#231F20" d="M232.267,480.339c0,0,5.965,9.407,20.297,9.349l0.403,2.935c0,0-18.349,1.538-23.921-7.239l0.391,6.703
		l-6.106-0.608l1.862-12.157L232.267,480.339z"/>
	<path fill="#231F20" d="M155.834,480.5c0,0-5.894,9.449-20.229,9.5l-0.381,2.94c0,0,18.36,1.388,23.859-7.439l-0.341,6.724
		l6.114-0.653l-1.965-12.146L155.834,480.5z"/>
	<path fill="#D8D6CB" d="M231.471,202.143c-99.611,1.543,74.479-6.788,78.982-9.666l-6.921-27.655l-47.266,5.6l-17.56,0.074
		L231.471,202.143z"/>
	<g>
		<path fill="#E9C09B" d="M377.786,164.713c0.615,2.973,3.581,5.073,6.59,4.666l0.737-0.1c3.009-0.407,7.177,1.066,9.262,3.273
			l4.002,4.236c2.085,2.207,5.62,2.457,7.855,0.555c2.234-1.902,2.138-5.027-0.217-6.945l-5.347-4.354
			c-2.354-1.917-1.835-3.926,1.153-4.464l14.032-2.526c2.988-0.538,5.1-3.439,4.691-6.448l-0.023-0.17
			c-0.408-3.009-3.168-4.935-6.133-4.279l-13.923,3.076c-2.965,0.655-3.481-0.398-1.148-2.341l7.426-6.183
			c2.333-1.943,3.159-5.222,1.835-7.287c-1.324-2.065-4.362-2.223-6.751-0.349l-13.38,10.491c-2.389,1.874-4.495,0.927-4.681-2.104
			l-0.072-1.197c-0.186-3.031-2.818-5.391-5.851-5.245l-0.224,0.011c-3.032,0.146-5.01,2.698-4.395,5.671L377.786,164.713z"/>
	</g>
	<path fill="#D8D6CB" d="M140.76,168.469c0,0-19.586,18.094-38.687,40.321l22.213,16.147l23.522-25.193L140.76,168.469z"/>
	<polyline fill="#D8D6CB" points="204.425,315.91 235.861,315.079 245.385,171.781 140.76,168.469 150.793,318.648 191.591,316.135 
			"/>
	<polygon fill="#414142" points="150.332,313.562 236.601,310.515 235.402,318.383 151.365,325.116 	"/>
	<polygon fill="#6E6F71" points="177.009,310.166 177.633,323.923 204.462,321.753 204.406,309.369 	"/>
	<line fill="none" stroke="#BCBBB3" stroke-width="3.284" x1="192.707" y1="170.086" x2="193.267" y2="308.837"/>
	<path fill="#BCBBB3" d="M209.734,204.91c-0.014-2.574-2.107-4.654-4.686-4.641c-2.573,0.01-4.654,2.104-4.641,4.683
		c0.007,2.569,2.103,4.65,4.679,4.637C207.664,209.578,209.741,207.485,209.734,204.91z"/>
	<path fill="#BCBBB3" d="M210.228,223.566c-0.007-2.569-2.104-4.65-4.68-4.64c-2.576,0.007-4.65,2.104-4.643,4.676
		c0.009,2.576,2.106,4.661,4.683,4.644C208.161,228.239,210.242,226.139,210.228,223.566z"/>
	<path fill="#BCBBB3" d="M210.315,244.345c-0.01-2.575-2.103-4.653-4.683-4.643c-2.572,0.006-4.653,2.106-4.64,4.679
		c0.01,2.576,2.103,4.653,4.675,4.647C208.25,249.019,210.322,246.922,210.315,244.345z"/>
	<path fill="#BCBBB3" d="M210.39,262.157c-0.014-2.577-2.105-4.661-4.682-4.649c-2.583,0.008-4.654,2.109-4.644,4.688
		c0.011,2.575,2.104,4.645,4.679,4.643C208.32,266.819,210.401,264.72,210.39,262.157z"/>
	<path fill="#BCBBB3" d="M211.748,284.2c-0.011-2.571-2.107-4.655-4.68-4.639c-2.58,0.011-4.654,2.103-4.647,4.672
		c0.014,2.577,2.11,4.662,4.679,4.651C209.683,288.875,211.761,286.775,211.748,284.2z"/>
	<line fill="none" stroke="#BCBBB3" stroke-width="1.642" x1="153.942" y1="223.988" x2="185.173" y2="223.855"/>
	<path fill="#EAC19C" d="M100.04,150.243c7.094,39.27,49.315,67.302,106.073,55.208c56.765-12.086,79.297-48.331,73.422-87.803
		c-5.863-39.463-37.903-67.207-94.67-55.12C128.094,74.618,91.149,101.029,100.04,150.243z"/>
	<path fill="#EAC19C" d="M96.536,87.037c4.957,29.802,44.867,47.025,89.133,38.483c44.265-8.54,76.128-39.614,71.173-69.41
		c-4.961-29.793-43.447-58.789-87.715-50.246C124.861,14.398,91.576,57.254,96.536,87.037z"/>
	<path fill="#EAC19C" d="M247.418,74.821c0.865,5.837,6.842,9.438,13.347,8.049c6.511-1.382,11.081-7.232,10.22-13.062
		c-0.875-5.828-6.849-9.438-13.363-8.055C251.118,63.145,246.542,68.99,247.418,74.821z"/>
	<path fill="#EAC19C" d="M78.908,110.77c1.271,8.497,9.979,13.746,19.452,11.729c9.486-2.025,16.146-10.546,14.878-19.04
		c-1.258-8.496-9.968-13.749-19.461-11.731C84.308,93.749,77.644,102.27,78.908,110.77z"/>
	<path fill="#CE9E77" d="M99.028,103.209c0,0-15.616-7.253-16.254,11.831c0,0,3.829-11.403,8.3-8.905c0,0-4.967,7.943-2.405,12.81
		C88.669,118.944,91.483,104.812,99.028,103.209z"/>
	<path fill="#CE9E77" d="M256.897,71.586c0,0,6.273-10.219,12.029-0.308c0,0-5.277-4.518-6.959-1.374c0,0,4.894,2.222,4.91,5.861
		C266.878,75.766,261.375,69.376,256.897,71.586z"/>
	<path fill="#FFFFFF" d="M186.1,81.356c0.444,2.92,7.69,3.823,16.192,2.007c8.504-1.813,15.048-5.641,14.619-8.571
		c-0.441-2.914-7.688-3.816-16.192-2C192.213,74.601,185.668,78.436,186.1,81.356z"/>
	<path fill="#FFFFFF" d="M161.988,86.17c0.709,4.809,8.183,7.245,16.688,5.428c8.519-1.808,14.832-7.176,14.111-11.992
		c-0.716-4.809-8.194-7.232-16.695-5.423C167.59,76,161.268,81.364,161.988,86.17z"/>
	<path fill="#46160D" d="M191.133,76.504c0.248,1.686,1.326,3.253,2.947,2.828c1.394-0.362,2.338-1.906,2.089-3.588
		c-0.252-1.676-1.583-2.804-2.992-2.504c-0.094,0.024-0.201,0.046-0.295,0.083"/>
	<path fill="#46160D" d="M184.486,78.6c0.321,2.182,2.061,3.639,3.871,3.253c1.824-0.386,3.035-2.47,2.714-4.659
		c-0.329-2.181-2.064-3.639-3.884-3.256C185.374,74.318,184.158,76.408,184.486,78.6z"/>
	<path fill="#553F37" d="M220.99,62.666c0,0-17.57-19.211-30.666,0.132C190.325,62.798,211.84,54.831,220.99,62.666z"/>
	<path fill="#553F37" d="M182.827,58.751c0,0-23.955-28.399-33.562,8.084C149.265,66.836,161.539,42.024,182.827,58.751z"/>
	<path fill="#EAC19C" d="M216.524,78.797l-21.296,4.158c0,0-4.755,1.201-3.45,2.778C191.777,85.733,209.759,84.133,216.524,78.797z"
		/>
	<path fill="#CE9E77" d="M245.982,78.087c0,0-27.09-6.192-54.853,6.395C191.129,84.482,233.2,74.687,245.982,78.087z"/>
	<path fill="#EAC19C" d="M194.96,85.667c0,0-14.616-6.303-37.109,1.267l2.34,9.516l28.576-5.53L194.96,85.667z"/>
	<path fill="#CE9E77" d="M191.511,84.49c0,0-42.361-6.273-59.531,9.065C131.98,93.555,177.417,79.981,191.511,84.49z"/>
	<path fill="#FFFFFF" d="M191.444,76.483c0.068,0.471,0.447,0.778,0.83,0.704c0.391-0.097,0.655-0.544,0.586-1.011
		c-0.065-0.472-0.442-0.789-0.836-0.702C191.637,75.556,191.373,76.008,191.444,76.483z"/>
	<path fill="#FFFFFF" d="M188.677,76.804c0.099,0.675,0.635,1.118,1.192,1c0.556-0.121,0.931-0.75,0.832-1.432
		c-0.096-0.669-0.626-1.113-1.188-0.996C188.952,75.5,188.585,76.134,188.677,76.804z"/>
	<path fill="#CE9E77" d="M219.601,74.05c0,0-19.851-21.723-28.61,2.54C190.991,76.589,211.054,68.777,219.601,74.05z"/>
	<path fill="#CE9E77" d="M191.226,76.642c0,0-11.021-26.006-32.714,1.299C158.511,77.941,183.405,72.837,191.226,76.642z"/>
	<path fill="#EAC19C" d="M229.159,162.151"/>
	<path opacity="0.31" fill="#D09F78" d="M107.892,114.458c0,0-20.779-62.611,32.36-92.78c0,0,41.202,38.119,70.423-6.942
		c0,0,42.58,26.564,46.946,47.018c0,0-3.567-59.334-82.299-56.556c-57.688,2.035-86.269,69.471-78.068,86l2.899,31.057
		c0,0-17.916,89.263,95.215,85.051c0,0,99.288-3.735,82.825-96.317c0,0-3.405-16.627-14.54-28.786c0,0,2.26,10.531-3.283,12.218
		C260.37,94.421,178.912,117.498,107.892,114.458z"/>
	<path fill="#EAC19C" d="M107.42,134.025c0,0,16.211-23.791,39.97-12.769c0,0,60.809,7.912,98.521-13.736
		c0,0,7.47-16.474,14.459-13.099c7,3.377,2.525-1.795,2.525-1.795s12.767,39.971,0.975,55.583c0,0-5.796,34.117-55.451,34.321
		c0,0-84.419,18.129-86.835-29.296L107.42,134.025z"/>
	<g>
		<path fill="#FFFFFF" d="M125.951,126.601c0,0,63.127,19.682,132.099-17.409l2.251,24.498c0,0-15.616,24.381-65.257,28.832
			c-49.621,4.447-2.133,0.055-2.133,0.055s-58.729,3.788-64.294-6.641L125.951,126.601z"/>
		<path fill="none" stroke="#A58060" stroke-width="2.343" d="M125.951,126.601c0,0,67.314,19.75,132.099-17.409l4.126,21.859
			c0,0-3.212,22.835-69.265,31.524c-66.052,8.712-64.959-11.34-64.959-11.34L125.951,126.601z"/>
		<path fill="#A58060" d="M113.068,138.456c0,0,3.094-24.123,31.187-17.368C144.254,121.087,123.414,121.739,113.068,138.456z"/>
		<path fill="#A58060" d="M237.818,103.398c0,0,20.035-13.77,33.733,11.654C271.552,115.052,257.172,99.972,237.818,103.398z"/>
		<path fill="#A58060" d="M179.261,175.067c0,0,31.183-6.894,46.389-2.624l-45.154,6.646L179.261,175.067z"/>
	</g>
	<path fill="none" stroke="#C2C1C1" stroke-width="1.642" d="M130.678,143.273c0,0,77.394,14.87,127.116-20.749"/>
	<path fill="#D09F78" d="M172.943,98.17c0,0,22.252,15.516,36.339-4.305C209.282,93.865,193.309,106.413,172.943,98.17z"/>
	<g>
		<g>
			<path fill="#3B2416" d="M97.645,346.019c0,0,61.156-14.848,51.662,38.69c0,0-5.247,20.645,9.432,33.057
				c14.68,12.399,30.511,66.25-36.874,72.401c-67.374,6.138-70.215-33.128-64.807-52.481c5.394-19.356,11.658-30.226,4.996-43.166
				c-6.656-12.942-7.09-40.92,25.186-46.348L97.645,346.019z"/>
			<path fill="#F2F2F2" d="M125.46,404.665c1.802-9.298-4.291-18.306-13.612-20.094c-9.302-1.803-18.309,4.284-20.098,13.589
				c-1.804,9.32,4.296,18.328,13.597,20.125C114.66,420.088,123.668,413.979,125.46,404.665z"/>
			<polygon fill="#3B2416" points="85.538,238.352 95.806,346.9 112.391,345.115 100.68,237.524 			"/>
			<polygon fill="#3B2416" points="74.249,193.291 82.259,240.21 102.927,238.794 102.615,190.852 			"/>
			<g>
				<path fill="#3B2416" d="M112.895,199.973c0.521,3.005-0.416,5.673-2.086,5.956c-1.665,0.291-3.436-1.916-3.964-4.921
					c-0.507-3,0.419-5.665,2.093-5.952C110.605,194.77,112.378,196.969,112.895,199.973z"/>
				<polygon fill="#3B2416" points="109.419,202.3 99.48,204.009 98.962,201.053 108.916,199.345 				"/>
			</g>
			<g>
				<path fill="#3B2416" d="M113.094,214.71c-0.049,2.858-1.38,5.157-2.969,5.126c-1.593-0.029-2.837-2.372-2.785-5.237
					c0.046-2.855,1.38-5.153,2.967-5.122C111.905,209.51,113.153,211.849,113.094,214.71z"/>
				<polygon fill="#3B2416" points="109.482,216.243 100.019,216.07 100.072,213.256 109.539,213.43 				"/>
			</g>
			<g>
				<path fill="#3B2416" d="M112.531,226.914c0.191,2.68-0.858,4.939-2.347,5.046c-1.489,0.101-2.846-1.979-3.044-4.659
					c-0.19-2.676,0.861-4.939,2.347-5.037C110.979,222.157,112.34,224.233,112.531,226.914z"/>
				<polygon fill="#3B2416" points="109.289,228.649 100.429,229.291 100.239,226.654 109.104,226.027 				"/>
			</g>
			<g>
				<path fill="#3B2416" d="M71.313,231.331c-0.684-2.6-0.061-5.004,1.375-5.393c1.449-0.378,3.165,1.425,3.851,4.021
					c0.673,2.598,0.057,5.008-1.377,5.382C73.717,235.718,71.99,233.926,71.313,231.331z"/>
				<polygon fill="#3B2416" points="74.181,229.031 82.769,226.78 83.441,229.327 74.854,231.574 				"/>
			</g>
			<g>
				<path fill="#3B2416" d="M69.894,219.387c-0.212-2.678,0.838-4.94,2.323-5.055c1.486-0.108,2.861,1.968,3.061,4.647
					c0.202,2.675-0.837,4.934-2.319,5.049C71.469,224.136,70.098,222.061,69.894,219.387z"/>
				<polygon fill="#3B2416" points="73.135,217.632 81.984,216.958 82.188,219.595 73.328,220.267 				"/>
			</g>
			<g>
				<path fill="#3B2416" d="M67.285,205.557c-0.205-2.673,0.834-4.937,2.323-5.052c1.483-0.108,2.854,1.967,3.065,4.646
					c0.198,2.673-0.834,4.933-2.327,5.047C68.867,210.313,67.489,208.234,67.285,205.557z"/>
				
					<rect x="70.604" y="203.466" transform="matrix(-0.9971 0.0759 -0.0759 -0.9971 165.4271 403.2843)" fill="#3B2416" width="8.889" height="2.64"/>
			</g>
			<polygon fill="#F2F2F2" points="90.763,438.501 135.885,431.941 138.257,444.06 92.614,450.517 			"/>
			<polygon fill="#F2F2F2" points="114.671,444.751 108.361,444.309 87.671,240.388 89.036,240.244 109.612,443.021 
				113.137,443.264 92.68,239.939 94.049,239.806 			"/>
			<polygon fill="#F2F2F2" points="120.098,441.084 96.343,239.249 97.706,239.085 121.461,440.914 			"/>
		</g>
		<polygon fill="#F2F2F2" points="80.89,200.532 84.74,200.157 88.646,235.589 84.796,235.966 		"/>
		<polygon fill="#F2F2F2" points="91.684,200.087 100.2,199.242 100.644,234.816 95.133,234.946 		"/>
	</g>
	<path fill="#E9C09B" d="M85.519,253.775c-10.869,18.993-7.717,34.479,30.491,35.229l1.88,8.623c0,0-88.166,5.737-36.28-58.604"/>
	<g>
		<path fill="#E9C09B" d="M109.371,294.277c-0.543,2.987,1.42,6.044,4.363,6.791l0.739,0.188c2.942,0.747,6.254,3.673,7.358,6.501
			l2.117,5.419c1.104,2.828,4.29,4.382,7.078,3.453s3.873-3.865,2.41-6.526l-3.312-6.023c-1.463-2.66-0.228-4.328,2.744-3.707
			l13.932,2.913c2.972,0.621,6.019-1.277,6.77-4.219l0.038-0.146c0.751-2.941-1.083-5.763-4.077-6.268l-14.063-2.376
			c-2.994-0.505-3.078-1.678-0.187-2.605l9.189-2.947c2.891-0.928,4.884-3.66,4.429-6.073c-0.456-2.413-3.215-3.697-6.132-2.854
			l-16.343,4.721c-2.917,0.843-4.513-0.822-3.545-3.701l0.384-1.143c0.967-2.879-0.587-6.053-3.454-7.053l-0.216-0.076
			c-2.867-1-5.656,0.625-6.199,3.612L109.371,294.277z"/>
	</g>
	<path opacity="0.15" fill="#221F1F" d="M247.641,489.465c-108.111,0.437-195.755,1.956-195.75,3.395
		c0.005,1.444,87.658,2.256,195.771,1.817c108.117-0.438,195.769-1.956,195.767-3.4C443.42,489.837,355.757,489.026,247.641,489.465
		z"/>
</g>
<g>
</g>
<g>
</g>
<g>
</g>
<g>
</g>
<g>
</g>
<g>
</g>
</svg>
