<?xml version="1.0" encoding="utf-8"?>
<!-- Generator: Adobe Illustrator 17.0.0, SVG Export Plug-In . SVG Version: 6.00 Build 0)  -->
<!DOCTYPE svg PUBLIC "-//W3C//DTD SVG 1.1//EN" "http://www.w3.org/Graphics/SVG/1.1/DTD/svg11.dtd">
<svg version="1.1" id="Layer_1" xmlns="http://www.w3.org/2000/svg" xmlns:xlink="http://www.w3.org/1999/xlink" x="0px" y="0px"
	 width="480px" height="500px" viewBox="0 0 480 500" enable-background="new 0 0 480 500" xml:space="preserve">
<path fill="#885E3C" d="M220.923,307.541c0,0,76.468-1.49,84.134-39.45l-6.335-2.345c0,0-10.209,36.13-70.672,30.009"/>
<path fill="#885E3C" d="M159.087,318.889c5.041-6.998,14.777-12.973,19.367-15.232l-1.893-3.854l1.891,3.854l-3.776-7.705
	c-1.981,0.97-14.478,7.347-21.877,16.994C155.192,314.488,157.29,316.553,159.087,318.889L159.087,318.889z M180.313,318.889
	c0,0-52.256-40.32-13.182-41.339c38.938-1.016,135.069-26.691,58.986,39.345"/>
<path fill="#885E3C" d="M155.927,327.735c-0.174-3.206,1.299-6.425,3.598-9.437c-2.51-1.478-4.65-3.53-6.232-5.971
	c-3.674,4.589-6.249,9.952-5.938,15.852c0.616,11.655,11.781,21.294,34.129,29.457l2.944-8.059
	C166.192,342.915,156.332,335.361,155.927,327.735L155.927,327.735z"/>
<path fill="#1C75B9" d="M218.765,336.597l-36.149-0.586l2.886,150.793l3.081-0.367l-1.782-112.234l27.761-3.114l1.859,114.484
	l2.968,0.111L218.765,336.597z"/>
<path fill="#885E3C" d="M178.275,367.537l-2.762-82.819l52.963-0.238l-5.865,80.639L178.275,367.537z"/>
<path fill="#F3901E" d="M175.035,296.053c-0.415,0.659-0.89,1.277-1.425,1.848l27.393,28.107l29.254-28.282L175.035,296.053z"/>
<path fill="#1F232E" d="M175.513,308.738l25.491,22.646l23.852-21.451l2.955-10.089l-24.547,19.568l-30.25-22.606L175.513,308.738z"
	/>
<path fill="#070507" d="M185.411,486.772c0,0-2.53,4.315-8.969,4.509l-0.131,1.332c0,0,8.265,0.393,10.628-3.634l-0.073,3.012
	l2.737-0.355l-1.028-5.435C188.575,486.203,185.411,486.772,185.411,486.772z M219.745,485.644c0,0,2.806,4.136,9.248,3.937
	l0.211,1.32c0,0-8.229,0.906-10.836-2.967l0.26,3.014l-2.765-0.21l0.695-5.483L219.745,485.644z"/>
<path opacity="0.1" stroke="#A27F5F" stroke-width="0.599" enable-background="new    " d="M341.366,492.834
	c0,1.304-61.353,2.36-137.023,2.36c-75.688,0-137.032-1.056-137.032-2.36c0-1.3,61.344-2.363,137.032-2.363
	C280.013,490.472,341.366,491.534,341.366,492.834z"/>
<path fill="none" stroke="#1F232E" stroke-width="2.302" stroke-linecap="round" stroke-linejoin="round" stroke-miterlimit="10" d="
	M194.662,320.052c-3.017-1.338-4.738,4.456-5.596,6.359c-1.947,4.324-2.14,8.44,1.512,11.878c2.738,2.577,7.408,4.706,6.717,9.23
	c-0.562,3.68-5.116,5.336-8.307,4.385 M205.86,323.648c3.489,1.091,5.453,3.709,6.108,7.2c0.873,5.236-3.054,8.072-3.708,12.873
	c-0.435,3.709,1.745,4.581,3.054,7.854c0.219,0.654,1.309,5.455,0.438,4.363"/>
<path fill="#FFFFFF" d="M190.648,350.837v3.059h-3.862l0.172-3.857l3.69,0.531 M210.411,354.278l3.057-0.109l0.138,3.858
	l-3.862-0.033l0.401-3.707"/>
<path fill="#603913" d="M82.171,118.703c0,0-54.625-154.578,173.024-109.048c4.741,0.948,43.62,58.47,10.43,117.897
	c0,0-127.065,38.297-130.859,37.008C130.972,163.271,82.171,118.703,82.171,118.703z"/>
<path fill="#E7BE99" d="M101.079,141.604c0,0-52.254,161.371,127.559,155.991c0,0,163.676-119.876,36.885-175.202
	c0,0,13.831-112.191-81.453-99.127L101.079,141.604L101.079,141.604z"/>
<path fill="#603913" d="M95.1,159.967h19.841l-4.011-28.82c0,0,20.391-37.019-1.837-55.36L95.1,89.032l-3.223,43.118L95.1,159.967
	L95.1,159.967z M251.401,28.62c0,0-19.141,78.705-142.8,49.31C108.601,77.928,129.077-29.223,251.401,28.62z"/>
<path fill="#E7BE99" d="M98.323,127.268c0,0-15.809-37.175-47.692-14.642c-39.755,28.118,22.845,56.654,22.845,56.654
	s19.796,9.321,9.888,30.715c-9.916,21.399-10.817,29.519-3.411,33.097c7.397,3.553,23.96-2.011,26.018-15.232
	C114.873,160.784,98.323,127.268,98.323,127.268z M87.438,228.842c-4.233,0-7.663-3.43-7.663-7.663c0-4.232,3.43-7.663,7.663-7.663
	c4.232,0,7.662,3.432,7.662,7.663C95.1,225.411,91.67,228.842,87.438,228.842z"/>
<g>
	<path fill="#CE9C78" d="M97.031,166.922c0,0-24.364-74.927-29.722-18.051C67.309,148.87,76.292,117.734,97.031,166.922z
		 M97.237,167.143c0,0-18.545-37.789-14.309,9.2C82.929,176.344,83.117,146.414,97.237,167.143z"/>
</g>
<circle fill="none" stroke="#3A3A3A" stroke-width="1.09" stroke-miterlimit="10" cx="87.438" cy="221.179" r="7.663"/>
<path fill="#603913" d="M247.718,38.044c0,0-5.526,42.629-32.425,53.558l6.725,6.725C222.018,98.327,249.882,79.478,247.718,38.044z
	 M235.385,173.827c-1.368,2.58-3.583,4.687-6.648,5.741c-0.271,0.202-0.521,0.424-0.81,0.609
	c-5.171,3.316-12.116,5.748-18.327,5.203c-4.009-0.352-7.643-2.051-10.107-4.795c-0.735-0.518-1.398-1.108-1.981-1.763
	c-95.438,24.894-19.292,117.933-24.78,118.47c0,0,53.094,25.766,96.155-24.646C268.888,272.646,316.663,174.656,235.385,173.827
	L235.385,173.827z"/>
<path fill="#E7BE99" d="M209.409,268.974v-9.246l-11.369,3.291l-5.864-14.219l50.858-9.967l1.795,16.722l-13.263,3.332l5.585,10.087
	c0,0,61.326-67.25-16.832-61.366S156.62,258.145,209.409,268.974L209.409,268.974z"/>
<path fill="#603913" d="M185.861,139.016c-13.08-8.344-26.014-6.688-36.798,4.408c-3.306-2.492-4.961-3.743-8.265-6.235
	c14.013-16.574,34.175-19.559,52.535-8.077C190.842,132.419,188.352,135.716,185.861,139.016z M266.503,136.928
	c-8.013-11.12-18.188-12.5-28.875-4.22c-1.937-3.191-2.911-4.779-4.846-7.961c14.382-12.839,30.333-11.081,41.628,4.302
	C271.775,131.675,269.137,134.298,266.503,136.928z"/>
<path fill="#FFFFFF" d="M253.389,146.807c0.876,5.933-2.999,11.62-8.677,12.711c-5.661,1.069-10.955-2.871-11.832-8.814
	c-0.883-5.936,3.003-11.627,8.66-12.704C247.206,136.921,252.5,140.864,253.389,146.807z M186.518,151.635
	c1.047,7.416-4.852,14.722-13.211,16.3c-8.334,1.573-15.929-3.163-16.979-10.592c-1.061-7.428,4.852-14.735,13.189-16.3
	C177.856,139.461,185.456,144.206,186.518,151.635z"/>
<path fill="#F1F1F1" d="M243.771,142.221c3.62-0.69,7.074,0.675,9.34,3.288c0.114,0.422,0.212,0.851,0.278,1.297
	c0.876,5.933-2.999,11.62-8.677,12.711c-3.606,0.678-7.056-0.678-9.321-3.281c-0.116-0.426-0.215-0.864-0.28-1.313
	C234.229,148.99,238.115,143.298,243.771,142.221z"/>
<path fill="#231F20" d="M238.455,151.43c0.251,1.565-0.434,3.009-1.518,3.222c-1.092,0.209-2.175-0.891-2.418-2.461
	c-0.248-1.573,0.43-3.017,1.518-3.226C237.123,148.759,238.209,149.861,238.455,151.43L238.455,151.43z"/>
<path fill="#F1F1F1" d="M159.347,160.439c-1.061-7.428,4.85-14.73,13.19-16.3c4.559-0.864,8.884,0.174,12.057,2.492
	c0.984,1.463,1.663,3.151,1.924,5.005c1.047,7.416-4.852,14.722-13.211,16.3c-4.553,0.86-8.877-0.178-12.041-2.492
	C160.277,163.979,159.606,162.292,159.347,160.439z"/>
<path fill="#231F20" d="M172.053,157.069c-0.292,1.632-1.46,2.824-2.606,2.653c-1.143-0.161-1.825-1.624-1.53-3.258
	c0.296-1.632,1.46-2.829,2.606-2.657C171.67,153.976,172.352,155.435,172.053,157.069z"/>
<path fill="#E7BE99" d="M301.591,271.06c-4.602-0.872-18.823-14.411-11.47-17.057c5.718-1.846,11.273,10.502,13.129,14.346
	l0.545-0.266c2.189-1.613,4.916-2.948,7.37-4.011c4.087-1.591,24.765-7.09,27.688-1.869c4.262,6.873-22.607,8.206-26.95,8.43
	c7.055-0.193,19.207,4.586,20.747,12.249c-6.029,5.391-18.895-8.133-22.917-12.274c1.865,3.025,8.801,13.204,1.485,12.576
	c-3.794-0.316-6.176-5.531-7.498-8.549"/>
<g>
	<path fill="#1F232E" d="M289.787,311.644l-3.476-1.228l48.641-136.629l3.476,1.229L289.787,311.644z"/>
	<path fill="#FFFFFF" d="M334.951,173.806l119.681,42.293l-26.05,73.716l-119.681-42.293L334.951,173.806z"/>
	<path fill="#003A80" d="M334.952,173.788l51.054,18.04L371.97,231.55l-51.054-18.04L334.952,173.788z M340.368,179.137l-1.783-0.63
		l0.029-1.707l-1.048,1.348l-1.783-0.63l1.042,1.515l-1.14,1.601l1.805-0.652l1.042,1.513l0.074-1.833L340.368,179.137
		L340.368,179.137z M370.948,226.746l-1.656-0.585l-0.096-1.752l-1.05,1.347l-1.655-0.585l1.039,1.516l-1.267,1.556l1.807-0.65
		l0.996,1.641l0.119-1.962L370.948,226.746z M362.545,223.778l-1.783-0.63l0.032-1.706l-1.05,1.347l-1.782-0.63l1.039,1.516
		l-1.14,1.601l1.807-0.65l0.995,1.641l0.119-1.962L362.545,223.778L362.545,223.778z M354.014,220.763l-1.655-0.585l0.031-1.706
		l-1.05,1.347l-1.782-0.63l1.039,1.516l-1.267,1.556l1.934-0.605l0.995,1.641l0.119-1.962L354.014,220.763L354.014,220.763z
		 M345.611,217.794l-1.655-0.585l0.031-1.707l-1.176,1.302l-1.655-0.585l1.039,1.516l-1.267,1.556l1.934-0.605l0.995,1.641
		l-0.008-2.007L345.611,217.794L345.611,217.794z M337.208,214.825l-1.655-0.585l-0.097-1.752l-1.048,1.348l-1.655-0.585
		l1.039,1.515l-1.267,1.556l1.805-0.652l0.997,1.641l0.119-1.962L337.208,214.825L337.208,214.825z M328.806,211.857l-1.783-0.63
		l0.029-1.707l-1.048,1.348l-1.783-0.63l1.042,1.516l-1.14,1.601l1.806-0.652l0.997,1.641l0.119-1.962L328.806,211.857
		L328.806,211.857z M367.931,221.099l-1.655-0.585l0.029-1.707l-1.048,1.348l-1.783-0.63l1.039,1.516l-1.265,1.556l1.933-0.607
		l1.041,1.512l-0.054-1.878L367.931,221.099z M359.528,218.13l-1.654-0.585l-0.097-1.752l-1.048,1.348l-1.656-0.585l1.039,1.516
		l-1.265,1.556l1.805-0.652l1.041,1.512l0.074-1.833L359.528,218.13L359.528,218.13z M351.125,215.16l-1.783-0.63l0.031-1.706
		l-1.048,1.348l-1.783-0.63l1.039,1.515l-1.139,1.601l1.807-0.65l1.041,1.512l0.074-1.833L351.125,215.16z M342.722,212.192
		l-1.782-0.63l0.029-1.707l-1.048,1.348l-1.783-0.63l1.039,1.515l-1.139,1.601l1.807-0.65l1.041,1.512l0.074-1.833L342.722,212.192z
		 M334.192,209.178l-1.655-0.585l0.029-1.707l-1.05,1.347l-1.782-0.63l1.039,1.516l-1.267,1.556l1.934-0.605l1.041,1.512
		l-0.054-1.878L334.192,209.178L334.192,209.178z M370.809,212.95l-1.654-0.585l0.029-1.706l-1.048,1.347l-1.783-0.63l1.039,1.515
		l-1.22,1.428l1.887-0.477l1.041,1.512l-0.054-1.878L370.809,212.95L370.809,212.95z M362.408,209.981l-1.655-0.585l-0.099-1.751
		l-1.048,1.345l-1.656-0.585l1.039,1.515l-1.22,1.428l1.76-0.522l1.041,1.512l0.074-1.833L362.408,209.981L362.408,209.981z
		 M354.005,207.012l-1.783-0.63l0.031-1.705l-1.047,1.347l-1.783-0.63l1.039,1.515l-1.094,1.473l1.761-0.522l1.041,1.512
		l0.074-1.833L354.005,207.012L354.005,207.012z M345.602,204.042l-1.782-0.63l0.029-1.706l-1.048,1.345l-1.783-0.63l1.039,1.515
		l-1.094,1.472l1.761-0.522l1.041,1.512l0.074-1.833L345.602,204.042L345.602,204.042z M337.072,201.029l-1.655-0.585l0.029-1.706
		l-1.05,1.345l-1.782-0.63l1.039,1.515l-1.221,1.427l1.888-0.477l1.041,1.512l-0.054-1.878L337.072,201.029L337.072,201.029z
		 M373.688,204.804l-1.655-0.585l0.076-1.837l-1.094,1.477l-1.783-0.63l1.041,1.512l-1.221,1.432l1.887-0.477l1.041,1.512
		l-0.052-1.882L373.688,204.804L373.688,204.804z M365.286,201.834l-1.655-0.585l-0.052-1.882l-1.094,1.477l-1.656-0.585
		l1.041,1.512l-1.221,1.432l1.76-0.522l1.041,1.512l0.076-1.837L365.286,201.834L365.286,201.834z M356.883,198.865l-1.783-0.63
		l0.077-1.835l-1.094,1.477l-1.783-0.63l1.041,1.512l-1.096,1.476l1.761-0.522l1.041,1.512l0.076-1.837L356.883,198.865
		L356.883,198.865z M348.48,195.897l-1.782-0.63l0.076-1.837l-1.094,1.477l-1.783-0.63l1.041,1.512l-1.096,1.476l1.761-0.522
		l1.041,1.512l0.076-1.837L348.48,195.897L348.48,195.897z M339.951,192.882l-1.655-0.585l0.076-1.837l-1.096,1.476l-1.782-0.63
		l1.041,1.512l-1.222,1.431l1.888-0.477l1.041,1.512l-0.052-1.882L339.951,192.882L339.951,192.882z M376.613,196.526l-1.655-0.585
		l0.029-1.706l-1.048,1.347l-1.783-0.63l1.039,1.516l-1.265,1.558l1.933-0.607l0.996,1.641l-0.008-2.007L376.613,196.526
		L376.613,196.526z M368.211,193.557l-1.654-0.585l-0.099-1.751l-1.047,1.345l-1.656-0.585l1.039,1.515l-1.265,1.556l1.805-0.652
		l0.996,1.641l0.119-1.962L368.211,193.557z M359.808,190.587l-1.783-0.63l0.031-1.705l-1.047,1.345l-1.783-0.63l1.039,1.516
		l-1.139,1.601l1.807-0.65l0.995,1.641l0.119-1.962L359.808,190.587z M351.405,187.619l-1.782-0.63l0.029-1.706l-1.048,1.345
		l-1.783-0.63l1.039,1.515l-1.139,1.601l1.807-0.65l0.995,1.641l0.119-1.962L351.405,187.619L351.405,187.619z M342.875,184.605
		l-1.655-0.585l0.029-1.706l-1.05,1.345l-1.782-0.63l1.039,1.515l-1.267,1.556l1.934-0.605l0.996,1.641l-0.008-2.007
		L342.875,184.605L342.875,184.605z M373.826,218.601l-1.656-0.585l-0.096-1.752l-1.05,1.348l-1.655-0.585l1.041,1.513l-1.222,1.43
		l1.761-0.522l1.041,1.512l0.074-1.835L373.826,218.601L373.826,218.601z M365.423,215.631l-1.783-0.63l0.032-1.707l-1.05,1.348
		l-1.782-0.63l1.041,1.514l-1.096,1.475l1.761-0.522l1.041,1.512l0.074-1.835L365.423,215.631L365.423,215.631z M356.892,212.617
		l-1.654-0.585l0.031-1.707l-1.05,1.348l-1.782-0.63l1.041,1.513l-1.222,1.43l1.888-0.477l1.041,1.512l0.074-1.835L356.892,212.617z
		 M348.489,209.647l-1.655-0.585l0.031-1.707l-1.178,1.302l-1.655-0.585l1.041,1.513l-1.222,1.43l1.888-0.477l1.041,1.512
		l-0.052-1.88L348.489,209.647L348.489,209.647z M340.086,206.678l-1.654-0.585l-0.097-1.752l-1.048,1.348l-1.655-0.585l1.039,1.513
		l-1.222,1.43l1.76-0.522l1.042,1.513l0.074-1.835L340.086,206.678L340.086,206.678z M331.684,203.709l-1.783-0.63l0.029-1.707
		l-1.048,1.348l-1.783-0.63l1.042,1.514l-1.096,1.475l1.76-0.522l1.042,1.513l0.074-1.835L331.684,203.709L331.684,203.709z
		 M376.706,210.451l-1.656-0.585l-0.05-1.88l-1.096,1.476l-1.655-0.585l1.039,1.516l-1.221,1.427l1.761-0.522l1.041,1.512
		l0.073-1.833L376.706,210.451z M368.303,207.483l-1.783-0.63l0.077-1.835l-1.096,1.476l-1.782-0.63l1.039,1.516l-1.094,1.472
		l1.761-0.522l1.041,1.512l0.073-1.833L368.303,207.483L368.303,207.483z M359.771,204.467l-1.655-0.585l0.077-1.835l-1.096,1.476
		l-1.782-0.63l1.039,1.516l-1.221,1.427l1.888-0.476l1.041,1.512l0.074-1.833L359.771,204.467z M351.368,201.499l-1.654-0.585
		l0.077-1.835l-1.222,1.431l-1.655-0.585l1.039,1.515l-1.221,1.427l1.888-0.477l1.041,1.512l-0.054-1.878L351.368,201.499z
		 M342.966,198.529l-1.654-0.585l-0.052-1.882l-1.094,1.477l-1.654-0.585l1.039,1.516l-1.221,1.427l1.76-0.522l1.042,1.513
		l0.074-1.833L342.966,198.529L342.966,198.529z M334.564,195.561l-1.783-0.63l0.076-1.837l-1.094,1.477l-1.783-0.63l1.042,1.515
		l-1.094,1.472l1.76-0.522l1.042,1.512l0.074-1.833L334.564,195.561L334.564,195.561z M379.585,202.305l-1.656-0.585l-0.05-1.88
		l-1.096,1.476l-1.655-0.585l1.041,1.512l-1.222,1.431l1.763-0.524l1.041,1.513l0.074-1.837L379.585,202.305L379.585,202.305z
		 M371.182,199.336l-1.783-0.63l0.077-1.835l-1.096,1.476l-1.782-0.63l1.041,1.512l-1.096,1.476l1.761-0.524l1.041,1.513
		l0.074-1.837L371.182,199.336L371.182,199.336z M362.649,196.32l-1.654-0.585l0.077-1.835l-1.096,1.476l-1.782-0.63l1.041,1.512
		l-1.222,1.431l1.889-0.479l1.041,1.513l0.076-1.837L362.649,196.32z M354.246,193.352l-1.654-0.585l0.077-1.835l-1.222,1.431
		l-1.655-0.585l1.041,1.512l-1.222,1.431l1.889-0.479l1.041,1.513l-0.052-1.882L354.246,193.352L354.246,193.352z M345.845,190.382
		l-1.655-0.585l-0.052-1.882l-1.094,1.477l-1.655-0.585l1.041,1.512l-1.222,1.431l1.76-0.523l1.042,1.514l0.076-1.837
		L345.845,190.382L345.845,190.382z M337.443,187.414l-1.783-0.63l0.076-1.837l-1.094,1.476l-1.783-0.63l1.043,1.513l-1.096,1.476
		l1.76-0.523l1.042,1.514l0.076-1.837L337.443,187.414z M382.51,194.028l-1.656-0.585l-0.096-1.752l-1.05,1.347l-1.655-0.585
		l1.039,1.516l-1.267,1.556l1.807-0.65l1.041,1.512l0.073-1.833L382.51,194.028L382.51,194.028z M374.107,191.058l-1.783-0.63
		l0.032-1.707l-1.05,1.347l-1.782-0.63l1.039,1.516l-1.14,1.601l1.807-0.65l1.041,1.512l0.073-1.833L374.107,191.058z
		 M365.574,188.044l-1.655-0.585l0.031-1.707l-1.05,1.347l-1.782-0.63l1.039,1.515l-1.267,1.556l1.934-0.605l1.041,1.512
		l0.074-1.833L365.574,188.044L365.574,188.044z M357.171,185.074l-1.654-0.585l0.031-1.707l-1.178,1.302l-1.655-0.585l1.039,1.515
		l-1.267,1.556l1.934-0.605l1.041,1.512l-0.054-1.878L357.171,185.074L357.171,185.074z M348.77,182.105l-1.654-0.585l-0.097-1.752
		l-1.048,1.348l-1.655-0.585l1.039,1.516l-1.267,1.556l1.805-0.652l1.042,1.513l0.074-1.833L348.77,182.105L348.77,182.105z"/>
	<path fill="#E03A3E" d="M386.008,191.828l68.623,24.248l-2.024,5.728l-68.623-24.248L386.008,191.828z M382.003,203.159
		l68.623,24.248l-2.025,5.729l-68.623-24.248L382.003,203.159z M378,214.489l68.623,24.248l-2.025,5.729l-68.623-24.248L378,214.489
		z M373.996,225.82l68.623,24.248l-2.025,5.73l-68.623-24.248L373.996,225.82z M438.616,261.398l-2.025,5.73l-119.677-42.288
		l2.025-5.73L438.616,261.398z M434.612,272.731l-2.025,5.729L312.91,236.172l2.025-5.729L434.612,272.731z M430.607,284.062
		l-2.024,5.728l-119.677-42.288l2.024-5.728L430.607,284.062z"/>
</g>
<path fill="#CD9C78" d="M193.535,176.344c0,0,24.508,35.622,45.522-6.585C239.058,169.758,217.396,192.503,193.535,176.344z"/>
<path fill="none" stroke="#996437" stroke-width="1.042" stroke-miterlimit="10" d="M87.438,63.997
	c114.391,31.938,164.887-48.17,164.887-48.17s-34.444,35.62-114.62,34.284"/>
<path fill="none" stroke="#B4886B" stroke-width="0.816" d="M238.508,221.637c-16.565,12.761-38.926,19.929-55.101,6.684"/>
<path fill="#CD9C78" d="M189.024,221.664c0,0-20.108-1.325-11.064,14.404C177.96,236.069,171.327,224.645,189.024,221.664z"/>
</svg>
