<?xml version="1.0" encoding="utf-8"?>
<!-- Generator: Adobe Illustrator 16.0.0, SVG Export Plug-In . SVG Version: 6.00 Build 0)  -->
<!DOCTYPE svg PUBLIC "-//W3C//DTD SVG 1.1//EN" "http://www.w3.org/Graphics/SVG/1.1/DTD/svg11.dtd">
<svg version="1.1" id="Layer_1" xmlns="http://www.w3.org/2000/svg" xmlns:xlink="http://www.w3.org/1999/xlink" x="0px" y="0px"
	 width="480px" height="500px" viewBox="0 0 480 500" enable-background="new 0 0 480 500" xml:space="preserve">
<g>
	<path fill="#231F20" d="M317.92,376.006c-0.476,0-0.957-0.092-1.423-0.286c-125.734-52.557-214.52-119.218-215.401-119.885
		c-1.625-1.229-1.946-3.543-0.718-5.169c1.23-1.625,3.544-1.948,5.17-0.717c0.875,0.661,88.967,66.782,213.796,118.962
		c1.881,0.786,2.768,2.948,1.981,4.828C320.734,375.153,319.363,376.006,317.92,376.006z"/>
	<path fill="#231F20" d="M321.358,364.092c-70.156-29.324-128.639-63.131-165.346-86.326l-0.77-0.485
		c-1.536,6.042-5.577,11.169-10.916,14.181l1.745,1.104c37.38,23.643,96.939,58.098,168.41,87.973
		c1.095,0.458,2.252,0.689,3.438,0.689c3.604,0,6.833-2.148,8.224-5.475C328.039,371.219,325.892,365.988,321.358,364.092z"/>
	<path fill="#231F20" d="M319.344,368.91c-69.805-29.179-128.119-62.717-166.121-86.729c-0.236,0.482-0.484,0.961-0.758,1.428
		c-0.98,1.672-2.203,3.192-3.601,4.544c38.285,24.216,97.153,58.107,167.633,87.567c0.466,0.194,0.947,0.286,1.423,0.286
		c1.443,0,2.814-0.853,3.405-2.268C322.111,371.858,321.225,369.696,319.344,368.91z"/>
	<path fill="#E9C09B" d="M190.634,300.251c0.004-1.348,0.306-2.672,0.836-3.96c-3.477-0.723-6.613-2.008-9.17-3.69
		c-0.913,1.68-1.583,3.442-1.901,5.274c-0.995,5.751,1.526,11.218,7.494,16.247c6.498,5.478,17.262,10.467,31.993,14.83l4.207-6.433
		C201.865,315.938,190.608,308.445,190.634,300.251z"/>
	<path fill="#E9C09B" d="M293.05,300.251c-0.005-1.348-0.308-2.672-0.836-3.96c3.476-0.723,6.611-2.008,9.169-3.69
		c0.913,1.68,1.584,3.442,1.901,5.274c0.995,5.751-1.526,11.218-7.495,16.247c-6.497,5.478-17.261,10.467-31.993,14.83l-4.206-6.433
		C281.816,315.938,293.075,308.445,293.05,300.251z"/>
	<polygon fill="#414142" points="259.265,315.294 219.669,314.654 222.829,479.858 226.202,479.454 224.252,356.494 
		254.671,353.081 256.703,478.511 259.956,478.627 	"/>
	<polygon fill="#FFFFFF" stroke="#B0B0B0" stroke-width="2" stroke-miterlimit="10" points="214.913,349.189 211.886,258.46 
		269.907,258.197 263.483,346.544 	"/>
	<circle fill="#EA2327" cx="239.813" cy="304.904" r="22.458"/>
	<polygon fill="#231F20" points="317.205,362.345 335.315,369.937 326.833,386.396 307.253,377.222 	"/>
	<path fill="none" stroke="#231F20" stroke-width="3" stroke-miterlimit="10" d="M215.588,288.784c0,0,14.009,32.31,49.916,40.469"
		/>
	<path fill="#231F20" d="M154.402,287.752c-5.397,7.233-11.589,11.742-13.829,10.07c-2.241-1.672,0.317-8.892,5.717-16.126
		c5.396-7.231,11.587-11.74,13.827-10.066C162.357,273.299,159.8,280.518,154.402,287.752z"/>
	<path fill="#FFFFFF" stroke="#B0B0B0" stroke-width="2" stroke-miterlimit="10" d="M213.882,278.396l-1.897-6.91
		c-3.336,0.415-11.167,4.423-16.389,7.906c-5.549,3.702-12.277,9.358-14.582,16.109c3.624,0.398,6.98,1.395,9.829,2.833
		c2.189-10.674,21.538-19.426,23.736-20.07C214.565,278.269,214.307,278.343,213.882,278.396z"/>
	<path fill="#FFFFFF" stroke="#B0B0B0" stroke-width="2" stroke-miterlimit="10" d="M269.801,278.396l1.897-6.91
		c3.336,0.415,11.167,4.423,16.389,7.906c5.549,3.702,12.276,9.358,14.581,16.109c-3.624,0.398-6.979,1.395-9.827,2.833
		c-2.19-10.674-21.539-19.426-23.737-20.07C269.117,278.269,269.376,278.343,269.801,278.396z"/>
	<path fill="#09080A" d="M222.727,479.817c0,0-2.769,4.729-9.827,4.945l-0.143,1.457c0,0,9.056,0.431,11.643-3.98l-0.077,3.301
		l2.996-0.389l-1.126-5.956L222.727,479.817z"/>
	<path fill="#09080A" d="M260.344,478.581c0,0,3.073,4.531,10.13,4.315l0.236,1.444c0,0-9.021,0.997-11.882-3.25l0.289,3.304
		l-3.022-0.23l0.758-6.006L260.344,478.581z"/>
	<g>
		
			<radialGradient id="SVGID_1_" cx="2040.0664" cy="4348.3203" r="87.4424" gradientTransform="matrix(1.9291 0 0 0.0671 -3695.9902 193.2913)" gradientUnits="userSpaceOnUse">
			<stop  offset="0" style="stop-color:#010101"/>
			<stop  offset="1" style="stop-color:#FFFFFF;stop-opacity:0"/>
		</radialGradient>
		<path opacity="0.29" fill="url(#SVGID_1_)" d="M408.167,485.062c0-3.242-75.518-5.867-168.665-5.867
			c-93.157,0-168.665,2.625-168.665,5.867c0,3.239,75.507,5.869,168.665,5.869C332.649,490.932,408.167,488.302,408.167,485.062z"/>
		
			<radialGradient id="SVGID_2_" cx="3854.3398" cy="4361.4102" r="87.4717" gradientTransform="matrix(1.2207 0 0 0.0671 -4475.8271 193.2913)" gradientUnits="userSpaceOnUse">
			<stop  offset="0" style="stop-color:#010101"/>
			<stop  offset="1" style="stop-color:#FFFFFF;stop-opacity:0"/>
		</radialGradient>
		<path opacity="0.29" fill="url(#SVGID_2_)" d="M335.902,485.94c0-3.24-47.788-5.87-106.74-5.87
			c-58.942,0-106.735,2.63-106.735,5.87c0,3.244,47.793,5.873,106.735,5.873C288.114,491.813,335.902,489.185,335.902,485.94z"/>
	</g>
	
		<ellipse transform="matrix(0.9883 -0.1523 0.1523 0.9883 -16.6288 34.3099)" fill="#694F2E" cx="215.588" cy="125.673" rx="94.997" ry="112.699"/>
	<path fill="#D09F78" d="M297.474,128.532c0,0,3.918-16.281,22.585-11.11c23.278,6.451-5.33,24.669-5.33,24.669
		s-9.003,5.878-1.611,13.093c7.395,7.217,8.747,10.281,5.389,12.513c-3.358,2.225-12.384,1.935-14.883-2.986
		C292.798,143.472,297.474,128.532,297.474,128.532z"/>
	<path fill="#EAC19C" d="M295.945,140.151c3.055-30.003-1.497-49.457-7.674-61.895C274.396,47.96,237.73,30.867,200.013,39.2
		c-85.114,18.411-62.836,107.3-62.836,107.3l1.362,16.472l-1.161,37.72l4.918,2.25c-1.699,7.987-1.793,16.2-0.006,24.354
		c8.346,38.143,84.592,58.902,106.184,72.583c9.461,5.996,73.944-69.219,69.866-105.502
		C317.123,172.496,295.945,140.151,295.945,140.151z"/>
	<path fill="#D09F78" d="M208.641,172.458c0,0,22.504,31.029,35.037-5.564C243.678,166.894,230.893,186.634,208.641,172.458z"/>
	<g>
		<path opacity="0.3" fill="#D09F78" d="M166.668,128.594c0,0,36.438-4.081,43.994,10.345c0,0,0.457,26.75-50.865,8.386
			C159.797,147.325,155.132,135.663,166.668,128.594z"/>
		<path fill="none" stroke="#D09F78" stroke-width="1.5298" d="M167.894,127.72c0,0,34.463-1.03,40.725,8.206
			c0,0,6.483,9.402-4.555,13.933"/>
		<path fill="none" stroke="#D09F78" stroke-width="1.5298" d="M201.626,146.628c0,0,2.599,24.958-26.47,12.776"/>
		<path fill="none" stroke="#D09F78" stroke-width="1.5298" d="M201.846,143.46c0,0-3.008-24.322-27.852-4.883"/>
		<path fill="#FFFFFF" stroke="#D09F78" stroke-width="1.5298" d="M179.184,143.148c0.655-6.316,6.294-10.912,12.63-10.259
			c6.316,0.646,10.916,6.293,10.266,12.611c-0.648,6.319-6.301,10.924-12.627,10.272
			C183.132,155.126,178.538,149.471,179.184,143.148z"/>
		<path fill="#56341F" d="M201.547,145.574c0.082-2.124-1.559-3.903-3.684-3.989c-2.12-0.085-3.902,1.562-3.985,3.686
			c-0.085,2.117,1.561,3.905,3.677,3.991C199.68,149.347,201.463,147.692,201.547,145.574z"/>
	</g>
	<g>
		<path opacity="0.3" fill="#D09F78" d="M265.733,112.414c0,0-36.217,5.715-39.683,21.633c0,0,6.646,25.915,51.272-5.393
			C277.323,128.654,278.728,116.173,265.733,112.414z"/>
		<path fill="none" stroke="#D09F78" stroke-width="1.5298" d="M264.319,111.897c0,0-33.508,8.14-37.095,18.7
			c0,0-3.761,10.785,8.088,12.228"/>
		<path fill="none" stroke="#D09F78" stroke-width="1.5298" d="M236.802,139.064c0,0,4.104,24.756,28.907,5.312"/>
		<path fill="none" stroke="#D09F78" stroke-width="1.5298" d="M235.75,136.068c0,0-3.542-24.25,25.563-12.087"/>
		<path fill="#FFFFFF" stroke="#D09F78" stroke-width="1.5298" d="M257.519,129.765c-2.302-5.918-8.962-8.855-14.893-6.545
			c-5.925,2.298-8.859,8.956-6.559,14.881c2.296,5.92,8.969,8.863,14.896,6.559C256.884,142.359,259.814,135.694,257.519,129.765z"
			/>
		<path fill="#56341F" d="M236.599,138.026c-0.644-2.025,0.472-4.175,2.499-4.816c2.016-0.645,4.175,0.466,4.815,2.495
			c0.642,2.018-0.472,4.179-2.493,4.822C239.396,141.17,237.242,140.05,236.599,138.026z"/>
	</g>
	<path fill="#EAC19C" d="M142.277,155.064c0,0-9.879-17.904-30.189-5.778c-25.33,15.137,14.26,27.334,14.26,27.334
		s12.508,4.009,6.138,14.902c-6.376,10.89-6.979,14.936-2.294,16.478c4.671,1.533,15.205-1.729,16.562-8.335
		C152.628,171.146,142.277,155.064,142.277,155.064z"/>
	<g>
		<path fill="#D09F78" d="M141.292,174.733c0,0-15.147-36.332-18.777-8.022C122.515,166.711,128.347,151.028,141.292,174.733z"/>
		<path fill="#D09F78" d="M141.415,174.833c0,0-11.606-18.125-9.11,4.992C132.305,179.825,132.558,165.01,141.415,174.833z"/>
	</g>
	<path fill="#694F2E" d="M304.722,152.762c-3.834-5.641-5.577-12.734-10.854-17.209c5.926,14.309,14.563,29.062,17.312,44.413
		c4.329,24.17-16.837,47.664-34.902,60.604c-5.638,4.038-11.994,7.727-18.42,10.364c-27.217,11.171-65.382,9.157-87.938-11.538
		c-5.887-5.402-11.568-13.132-14.62-20.56c-7.002-17.039-5.008-34.578-6.358-52.439c-0.812-10.75-6.927-20.774-7.084-31.552
		l-4.68,11.656c5.902,13.136,6.868,28.845,6.539,40.352c-0.539,3.573-1.383,9.501-2.643,18.654
		c-1.819,13.188,1.903,30.887,7.283,42.979c6.053,13.6,20.173,24.438,35.265,29.778c22.911,8.109,56.746,31.894,79.891,25.591
		c20.714-5.648,36.893-46.349,47.73-63.612c16.485-26.264,10.233-62.922-6.496-87.444
		C304.737,152.786,304.73,152.774,304.722,152.762z M142.296,202.942c0,0,0.489-4.084,1.009-8.621
		C142.871,199.619,142.296,202.942,142.296,202.942z"/>
	<polygon fill="#694F2E" points="252.421,242.052 247.321,235.797 277.22,222.766 275.564,232.569 	"/>
	<path fill="#694F2E" d="M142.984,131.103l-4.844-13.521c0,0,21.602-18.153,54.679-16.01l1.167,15.157
		C193.986,116.729,175.342,103.641,142.984,131.103z"/>
	<path fill="#694F2E" d="M290.042,109.946l0.38-14.361c0,0-26.192-10.497-56.945,1.869l3.626,14.765
		C237.103,112.218,250.725,93.96,290.042,109.946z"/>
	<g>
		<g opacity="0.5">
			<path fill="#FFFFFF" d="M242.146,106.774c-10.247,2.166-16.429,12.219-13.737,22.341l3.204,12.043
				c2.691,10.122,13.351,17.013,23.686,15.313l33.404-5.495c10.335-1.7,17.057-11.483,14.938-21.741l-3.167-15.324
				c-2.119-10.257-12.238-16.878-22.485-14.712L242.146,106.774z"/>
		</g>
		<g opacity="0.5">
			<path fill="#FFFFFF" d="M148.938,124.329c-10.32,1.8-17.127,11.687-15.126,21.97l2.342,12.033
				c2.001,10.283,12.141,17.605,22.531,16.272l33.691-4.324c10.391-1.333,17.733-10.917,16.317-21.298l-2.1-15.389
				c-1.416-10.38-11.02-17.4-21.34-15.6L148.938,124.329z"/>
		</g>
		<path fill="#231F20" d="M201.86,172.796L201.86,172.796l-0.035,0.002l-51.604,6.625c-7.415,0.954-14.6-4.161-16.013-11.405
			l-5.839-30.029c-0.694-3.552,0.068-7.158,2.157-10.142c2.075-2.981,5.224-4.976,8.839-5.607l54.122-9.439
			c3.749-0.65,7.488,0.243,10.473,2.482c2.822,2.13,4.646,5.236,5.12,8.744l4.571,33.559
			C214.662,164.983,209.376,171.812,201.86,172.796L201.86,172.796z M195.093,120.044l-0.268,0.044l-54.126,9.442
			c-1.622,0.285-3.041,1.178-3.977,2.524c-0.938,1.343-1.281,2.961-0.974,4.566l5.845,30.02c0.664,3.4,4.157,5.888,7.637,5.444
			l51.604-6.628l0.522,3.671l-0.507-3.676c3.414-0.445,5.819-3.541,5.356-6.902l-4.575-33.555c-0.214-1.55-1.002-2.912-2.233-3.833
			C198.179,120.237,196.647,119.843,195.093,120.044L195.093,120.044z"/>
		<path fill="#231F20" d="M245.657,161.742L245.657,161.742c-6.975,0.427-13.57-4.27-15.338-10.922l-7.896-29.677
			c-0.937-3.53-0.412-7.148,1.476-10.196c1.887-3.054,4.91-5.15,8.498-5.91l53.579-11.325c7.549-1.597,14.833,3.343,16.335,10.599
			l6.869,33.233c0.733,3.561,0.006,7.15-2.042,10.102c-2.054,2.955-5.17,4.909-8.795,5.51l-51.262,8.428
			C246.604,161.66,246.139,161.709,245.657,161.742L245.657,161.742z M288.65,100.814c-0.301,0.017-0.609,0.058-0.912,0.124
			l-53.577,11.322c-1.606,0.337-2.956,1.276-3.803,2.634c-0.837,1.362-1.062,2.983-0.649,4.557l7.892,29.678
			c0.84,3.146,4.088,5.45,7.402,5.238l0,0c0.217-0.007,0.436-0.033,0.654-0.065l51.26-8.434c1.624-0.269,3.031-1.148,3.959-2.48
			c0.927-1.333,1.254-2.952,0.922-4.553l-6.866-33.228C294.328,102.691,291.631,100.631,288.65,100.814L288.65,100.814z"/>
		<path fill="#231F20" d="M205.972,138.527c0,0,8.186-24.907,23.679-4.346l0.37,8.312c0,0-14.313-13.907-21.986,5.355
			L205.972,138.527z"/>
	</g>
	<path fill="#694F2E" d="M133.731,76.558c0,0,28.21,26.585,86.396,18.003c0,0-15.146-3.042-18.11-8.421
		c0,0,46.435,11.087,86.254-7.883c0,0-15.749-78.501-116.26-40.451L133.731,76.558z"/>
	<g>
		<path fill="#FFFFFF" d="M199.193,216.944c0,0,47.899,0.872,88.339-38.922l6.537,16.584c0,0-5.915,20.123-39.533,33.292
			c-33.61,13.17-1.467,0.48-1.467,0.48s-40.085,14.549-46.069,8.423L199.193,216.944z"/>
		<path fill="none" stroke="#A47F5F" stroke-width="3.9092" d="M199.193,216.944c0,0,50.818,0.07,88.339-38.922l7.301,14.363
			c0,0,2.399,16.529-41.764,35.994c-44.175,19.459-47.488,5.29-47.488,5.29L199.193,216.944z"/>
		<path fill="#A47F5F" d="M192.635,227.799c0,0-2.742-17.404,18.164-18.405C210.799,209.394,196.441,214.073,192.635,227.799z"/>
		<path fill="#A47F5F" d="M272.282,178.101c0,0,11.137-13.647,25.829,1.255C298.111,179.356,285.052,171.787,272.282,178.101z"/>
	</g>
	<path fill="none" stroke="#BBBDBF" stroke-width="1.7497" d="M206.974,227.444c0,0,44.453-1.071,83.562-38.345"/>
	<path fill="#694F2E" d="M179.968,251.523c0,0-14.165-50.772,31.101-50.174c11.968,0.158,24.903-1.533,35.404-7.654
		c9.404-5.48,15.715-14.874,24.442-21.25c8.29-6.056,20.804-9.005,30.114-3.445c4.282,2.557,7.245,6.71,10.094,10.694
		c0.005-8.193-3.321-15.489-11.545-17.989c-8.49-2.582-18.777-2.824-27.351-0.545c-9.289,2.468-16.516,8.59-23.518,14.865
		c-6.856,6.143-13.864,10.802-22.894,13.105c-9.168,2.339-18.718,2.36-28.062,1.125c-7.346-0.971-18.453-5.056-24.544,1.149
		c-3.59,3.656-6.264,9.596-8.491,14.155c-2.919,5.977-4.021,12.38-5.203,18.865c-1.016,5.566-2.397,11.1-2.935,16.742
		c-0.264,2.774,0.107,5.822-0.599,8.53l26.049,1.507"/>
	<path fill="#83623E" d="M142.672,62.71c0,0,72.474,29.574,138.871,9.153C281.543,71.864,202.982,85.792,142.672,62.71z"/>
</g>
<g>
</g>
<g>
</g>
<g>
</g>
<g>
</g>
<g>
</g>
<g>
</g>
<g>
</g>
<g>
</g>
<g>
</g>
<g>
</g>
<g>
</g>
</svg>
