<?xml version="1.0" encoding="utf-8"?>
<!-- Generator: Adobe Illustrator 16.0.0, SVG Export Plug-In . SVG Version: 6.00 Build 0)  -->
<!DOCTYPE svg PUBLIC "-//W3C//DTD SVG 1.1//EN" "http://www.w3.org/Graphics/SVG/1.1/DTD/svg11.dtd">
<svg version="1.1" id="Layer_1" xmlns="http://www.w3.org/2000/svg" xmlns:xlink="http://www.w3.org/1999/xlink" x="0px" y="0px"
	 width="480px" height="500px" viewBox="0 0 480 500" enable-background="new 0 0 480 500" xml:space="preserve">
<symbol  id="doug" viewBox="-103.345 -162.86 210.407 325.72">
	<path fill="#66584F" d="M-68.103,31.315c0,0-1.644-13.247,7.883-17.86l-1.193,24.196L-68.103,31.315z"/>
	<path fill="#E9C09B" d="M-14.877-45.72c0,0-61.676,7.309-64.837,38.599l5.307,1.393c0,0,5.361-30.015,54.718-29.894"/>
	<g>
		<path fill="#E9C09B" d="M-75.054-9.795c-1.748-1.902-4.498-2.41-6.11-1.127c-1.613,1.282-4.968,1.758-7.455,1.059l-1.266-0.357
			c-2.487-0.699-5.016,0.174-5.619,1.94c-0.603,1.767,0.995,3.518,3.551,3.891l1.984,0.289c2.556,0.373,3.055,2.066,1.107,3.765
			l-5.038,4.391c-1.947,1.698-2.542,4.338-1.321,5.867s3.758,1.331,5.638-0.44l4.871-4.587c1.88-1.771,2.72-1.227,1.864,1.211
			l-1.244,3.547c-0.855,2.438-0.41,5.003,0.988,5.701c1.397,0.697,3.3-0.704,4.227-3.115l3.028-7.879
			c0.927-2.411,2.671-2.938,3.877-1.17c1.206,1.769,3.534,2.322,5.175,1.23c1.64-1.091,1.552-3.54-0.196-5.442L-75.054-9.795z"/>
	</g>
	<path fill="#E9C09B" d="M-0.49-29.183c0,0,32.887-45.619,61.911-33.512l-1.301,5.329c0,0-28.95-9.563-52.324,33.906"/>
	<path fill="#231F20" d="M21.933-52.046c1.111,1.776,2.343,3.498,3.668,5.166c-5.929,5.208-12.036,12.692-17.805,23.421
		l-8.286-5.724c0,0,9.208-12.771,22.178-23.005C21.771-52.143,21.851-52.092,21.933-52.046z"/>
	<path fill="#231F20" d="M-56.582-34.225c1.084,1.794,2.062,3.67,2.953,5.605c7.323-2.935,16.761-5,28.938-5.299l4.54-10.224
		c0,0-21.454,2.688-36.446,9.634C-56.595-34.412-56.584-34.318-56.582-34.225z"/>
	<g>
		<g>
			<path fill="#E9C09B" d="M60.422-54.183c1.084,2.091,3.367,2.809,5.072,1.595c1.706-1.215,4.928-1.594,7.16-0.843l2.22,0.747
				c2.232,0.751,4.637-0.07,5.344-1.825s-0.605-3.562-2.917-4.017l-2.974-0.585c-2.312-0.454-2.588-1.878-0.614-3.164l0.011-0.007
				c1.974-1.286,2.643-3.657,1.487-5.27c-1.154-1.613-3.628-1.768-5.496-0.344c-1.867,1.425-2.498,1.101-1.4-0.719
				c1.098-1.82,0.931-4.302-0.37-5.514s-3.653-0.771-5.227,0.982l-1.45,1.613c-1.573,1.753-2.643,2.82-2.376,2.373
				s-0.788-0.169-2.345,0.619c-1.557,0.787-1.942,3.143-0.858,5.233L60.422-54.183z"/>
		</g>
		<g>
			<path fill="#512615" d="M82.431-44.014c-3.17-5.176-23.742-38.228-35.973-45.581c0.016-0.012,0.022-0.022,0.037-0.032
				c7.113-5.693,36.67,43.922,36.67,43.922C83.075-45.009,82.797-44.456,82.431-44.014z"/>
			<path fill="#6C3319" d="M46.495-89.627c7.113-5.693,36.67,43.922,36.67,43.922c-0.392,3.036-4.232,3.39-4.232,3.39
				S39.372-83.939,46.495-89.627z M47.809-83.216c0.626,1.006,1.946,1.313,2.953,0.688c1.004-0.622,1.317-1.945,0.689-2.95
				c-0.629-1.007-1.947-1.314-2.955-0.69C47.492-85.542,47.186-84.219,47.809-83.216z"/>
			<path fill="#DEC48E" d="M80.521-38.587c0,0-6.246,5.544,9.189,20.537l12.297-7.471c0,0-9.039-18.463-16.617-15.489L80.521-38.587
				z"/>
			<path fill="#C4AB81" d="M98.789-28.441C91.976-39.608,83.8-40.172,83.8-40.172l0.01-0.049l1.581-0.789
				c5.17-2.029,11.016,5.919,14.212,11.176L98.789-28.441z"/>
			<path fill="#E8E8E8" d="M77.637-43.989c0,0,3.966-0.573,4.554-3.249c0,0,3.8,0.902,1.466,3.155c0,0,2.651,0.098,1.826,3.108
				l-4.488,2.233c0,0-2.515-0.366-1.857-2.893c0,0-2.612-0.06-1.737-2.284"/>
			<path fill="#B2B5B6" d="M79.137-41.634c0,0,3.302-1.153,4.376-2.359c0,0-3.099,1.785-4.845,2.306
				C78.668-41.688,78.983-41.596,79.137-41.634z"/>
		</g>
		<path fill="#E9C09B" d="M64.237-52.282c0.254,0.006,8.913-2.525,4.308-8.229c-4.6-5.71-7.055,3.21-7.055,3.21L64.237-52.282z"/>
	</g>
	<path fill-rule="evenodd" clip-rule="evenodd" fill="#4283AF" d="M91.049-17.159c0,0,10.619-5.717,12.297-7.47
		c0,0-2.221-5.52-3.385-7.517c0,0-8.578,13.462-10.641,13.595L91.049-17.159z"/>
	<polygon fill="#4283AF" points="9.564,-75.359 -23.113,-73.824 -21.94,-156.102 -19.145,-155.854 -19.845,-90.69 5.352,-88.653 
		6.057,-155.854 8.745,-156.036 	"/>
	<path opacity="0.15" fill="#231F20" d="M-0.395-159.271c-56.856,0-102.95-0.804-102.95-1.795c0-0.992,46.094-1.795,102.95-1.795
		c56.858,0,102.959,0.803,102.959,1.795C102.564-160.074,56.464-159.271-0.395-159.271z"/>
	<polyline fill="#231F20" points="14.745,-25.952 9.073,-81.858 -23.808,-82.808 -27.81,-24.435 	"/>
	<path fill="#66584F" d="M26.253,48.025c0,0,8.704,33.55,20.238,43.579c0,0,4.427-7.492,3.926-11.003
		c0,0,18.554,63.184-49.642,69.701c0,0,6.519,2.508,16.547,0c0,0-85.806,42.041-106.541-27.726c0,0,5.229-26.071,13.934-66.454
		L26.253,48.025z"/>
	<path fill="#E9C09B" d="M27.982,56.577L25.748,43.63c2.891,19.772,7.496,38.837,14.801,52.185c0,0-25.632,66.117-108.76,29.929
		l3.669-77.375c0,0-3.7-95.606,67.56-87.88C57.679-33.585,27.982,56.577,27.982,56.577z"/>
	<path fill="#D09F78" d="M-53.742,83.641l7.313,35.933c0,0,40.949-14.92,78.893-4.428l-36.299,16.556H-61.49l-13.795-26.281
		L-53.742,83.641z"/>
	<path fill="#66584F" d="M-65.416,67.063l11.508-3.601l0.527,64.275c0,0,41.706-19.056,93.562-12.537
		c0,0-41.412,39.113-91.056,31.09c-49.643-8.023-29.345-18.553-29.345-18.553V94.643L-65.416,67.063z"/>
	<path fill="#E9C09B" d="M-64.583,70.799c0,0-6.795,17.835-25.839,11.467c-23.748-7.937,9.652-27.039,9.652-27.039
		s10.549-6.168,3.845-14.396c-6.717-8.221-7.658-11.651-3.724-13.998c3.935-2.339,13.491-1.695,15.368,3.82
		C-57.181,54.476-64.583,70.799-64.583,70.799z"/>
	<g>
		<path fill="#D09F78" d="M-67.481,53.724c0,0-9.502,35.138-15.608,11.023C-83.09,64.747-76.366,77.297-67.481,53.724z"/>
		<path fill="#D09F78" d="M-67.378,53.61c0,0-8.295,18.39-8.496-2.463C-75.874,51.147-74.122,64.114-67.378,53.61z"/>
	</g>
	<path fill="#D09F78" d="M-15.325,40.862c0,0,14.29-28.44,28.768,1.938C13.442,42.801,3.062,23.012-15.325,40.862z"/>
	<path fill="#66584F" d="M-61.49,120.18c0,0,1.209,7.381,57.655-5.034l-42.594,25.652h-11.181L-61.49,120.18z"/>
	<g>
		<polygon fill="#4B3323" points="-41.418,7.429 -32.208,-15.037 17.663,-17.141 31.217,4.548 		"/>
		<path fill="#CA8B84" d="M-41.264,5.211l71.955-3.035c0,0,5.849,13.009,0.092,15.048l-71.03,1.056
			C-40.247,18.279-43.163,17.6-41.264,5.211z"/>
		<polygon fill="#CA8B84" points="-33.235,-9.412 -28.806,-16.089 15.545,-19.181 22.578,-11.798 		"/>
		<path fill="#FFFFFF" d="M-39.46,2.653c0,0,47.994-18.84,69.483,0.702l3.296,11.498l-40.055,3.143l-35.172,1.458
			C-41.907,19.454-41.909,11.206-39.46,2.653z"/>
		<path fill="#FFFFFF" d="M-32.281-13.686c0,0,37.198,5.805,50.451-3.033L3.561-19.181l-24.738-1.005L-32.281-13.686z"/>
		<path fill="#E5BAB5" d="M-41.907,13.984c0,0,31.666,3.076,74.254-2.267l-1.077,5.293l-52.867,3.45l-19.82-1.028L-41.907,13.984z"
			/>
		<path fill="#FFFFFF" d="M-42.058,13.719c0,0,3.157,2.863,8.822,0.816c0,0,5.665,3.624,10.476,0.299c0,0,12.85,3.986,19.612,0.146
			c0,0,9.778,3.486,18.887-1.53c0,0,6.379,2.082,10.149-0.977c0,0,5.167,1.16,6.458-0.755c1.29-1.917,0-0.254,0-0.254l-9.769-5.369
			l-48.987,1.334L-42.058,13.719z"/>
		<path fill="#D2A286" d="M-29.135-19.994c15.408-9.42,45.639-1.981,45.639-1.981L16.5-21.907
			c1.314,1.376,22.647,22.604,15.847,40.663l-0.001,0.026c-7.309,2.771-16.68,5.54-26.227,6.071
			c-2.862,0.161-5.573-1.503-8.428-1.477c-3.724,0.036-7.574,1.72-11.097,1.593c-15.787-0.575-28.652-4.79-28.652-4.79
			S-47.632-5.109-29.135-19.994z M-29.295-13.955l0.008-0.248C-38.063-4.012-40.758,8.448-41.562,15.925
			c34.998,4.267,67.397-0.636,73.258-1.61c-1.221-8.421-4.885-23.596-15.709-29.893l0.002-0.015
			C-7.968-20.596-29.295-13.955-29.295-13.955z"/>
	</g>
	<g>
		<path fill="#FFFFFF" d="M-14.217-66.489l1.034,1.015l2.42-3.498c0,0,1.025-1.186-0.092-2.284c-1.118-1.096-0.866-0.85-0.866-0.85
			l-0.821,1.155c0,0,0.92,0.479,0.331,1.382C-12.798-68.671-14.217-66.489-14.217-66.489z"/>
		<polygon fill="#FFFFFF" points="-14.415,-66.121 -15.17,-65.048 -14.075,-63.974 -13.341,-65.066 		"/>
		<path fill="#FFFFFF" d="M-7.206-62.845c0,0-0.08,0.684-1.51,2.527c-1.432,1.845-2.957,0.434-3.772-0.285
			c-0.816-0.717-1.382-1.987,0.021-4.578c1.403-2.591,3.396-1.309,3.396-1.309l3.053,2.995l-0.671,1.156L-7.206-62.845z
			 M-9.16-62.272c0.608-0.964,0.88-1.456,0.88-1.456l-1.503-1.478c0,0-1.179,0.04-1.748,1.352c-0.572,1.312-0.458,1.927,0.229,2.603
			C-10.613-60.575-9.769-61.308-9.16-62.272z"/>
		<path fill="#FFFFFF" d="M-8.68-58.677l1.097,1.075l1.803-2.782c0,0,0.381-0.688,1.003-0.076l0.644,0.633l-2.225,3.429l1.032,1.013
			l2.896-4.585l-2.171-2.13c0,0-0.84-0.952-1.766,0.25S-8.68-58.677-8.68-58.677z"/>
		<path fill="#FFFFFF" d="M0.281-54.434c0,0-1.544,3.036-3.093,1.516c-1.548-1.518-1.808-1.899-0.742-4.274
			c1.063-2.371,2.758-1.176,2.758-1.176l2.171,2.131l-0.713,1.116c0,0-0.885-0.951-1.7-1.753c-0.817-0.803-1.131,0.034-1.131,0.034
			L0.281-54.434z M-2.656-54.578c0.796,0.993,1.202,0.191,1.202,0.191l-1.418-1.392C-2.872-55.778-3.454-55.574-2.656-54.578z"/>
		<path fill="#FFFFFF" d="M3.018-49.009L0.76-51.225l2.185-3.472l-1.054-1.033l-2.832,4.648l2.536,2.489
			C1.595-48.592,2.28-48.172,3.018-49.009z"/>
		<polygon fill="#FFFFFF" points="2.224,-50.351 3.301,-49.293 4.142,-49.639 3.323,-45.796 4.57,-44.572 5.539,-50.63 
			6.234,-51.468 4.986,-52.692 4.4,-51.536 		"/>
		<path fill="#4283AF" d="M-21.796-71.974c0,0,4.403-5.259,7.146,1.232C-14.649-70.741-16.22-79.374-21.796-71.974z"/>
		<path fill="#4283AF" d="M-20.688-70.948c0,0,2.641-3.157,4.289,0.738C-16.399-70.21-17.343-75.393-20.688-70.948z"/>
		<path fill="#4283AF" d="M-20.325-69.806c0,0,1.86-2.221,3.019,0.52C-17.307-69.286-17.971-72.932-20.325-69.806z"/>
	</g>
	<g>
		<path opacity="0.3" fill="#D09F78" d="M-46.811,69.516c0.032,0.007,28.566,5.278,38.294-1.407
			c2.416-1.661,1.709-8.891,1.401-11.062c-2.251-15.873-26.61-26.143-40.386-18.883c-3.438,1.811-5.618,4.911-6.638,8.615
			c-1.196,4.342-2.089,9.794-0.254,14.073C-53.248,63.52-49.951,68.928-46.811,69.516z"/>
		<path fill="none" stroke="#D09F78" stroke-width="0.5134" d="M-32.993,70.408c0,0,22.08-1.848,25.408-8.196
			c0,0,3.455-6.476-3.922-8.57"/>
		<path fill="none" stroke="#D09F78" stroke-width="0.5134" d="M-14.564,57.036c0,0-0.158-16.121-17.832-6.234"/>
		<path fill="none" stroke="#D09F78" stroke-width="0.5134" d="M-14.192,58.02c0,0-0.156,15.756-17.437,5.146"/>
		<path fill="#9B765D" d="M-12.127,56.892c0,0-4.915,7.132-34.088,1.823C-46.215,58.715-20.94,60.646-12.127,56.892z"/>
		<path fill="#9B765D" d="M-12.161,57.217c0,0-5.836,6.399-34.021-2.812C-46.182,54.404-21.401,59.741-12.161,57.217z"/>
	</g>
	<g>
		<path opacity="0.3" fill="#D09F78" d="M27.92,56.708l1.673,7.8c-1.02,0.691-2.08,1.33-2.879,2.286
			c-0.176,0.21-0.282,0.443-0.359,0.683c-6.888,0.704-16.767,1.036-21.271-2.06c-1.808-1.242-1.278-6.65-1.049-8.275
			C5.594,46.15,21.31,38.779,31.812,42.05L27.92,56.708z"/>
		<path fill="none" stroke="#D09F78" stroke-width="0.384" d="M23.392,67.137c0,0-16.517-1.382-19.007-6.13
			c0,0-2.584-4.845,2.936-6.41"/>
		<path fill="none" stroke="#D09F78" stroke-width="0.384" d="M9.606,57.136c0,0,0.118-12.06,13.338-4.664"/>
		<path fill="none" stroke="#D09F78" stroke-width="0.384" d="M9.327,57.87c0,0,0.118,11.786,13.043,3.85"/>
	</g>
	<path fill="#66584F" d="M-47.634,74.798c0,0,25.562,14.915,43.251-7.734l-3.639-3.601c0,0-12.438,13.722-38.407,3.601
		L-47.634,74.798z"/>
	<path fill="#66584F" d="M4.869,66.673c0,0,15.776,21.653,29.632-2.154l-3.469-4.455c0,0-13.345,15.434-25.416,0.517L4.869,66.673z"
		/>
	<path fill="#9B765D" d="M8.722,56.242c0,0,2.679,7.131,18.583,1.822C27.305,58.064,13.525,59.995,8.722,56.242z"/>
	<path fill="#9B765D" d="M8.74,56.566c0,0,3.182,6.399,18.547-2.812C27.287,53.755,13.777,59.092,8.74,56.566z"/>
	<path fill="#D09F78" d="M-64.215,34.046c0,0,1.139,4.188,1.504,6.233c0,0,0.465-6.978-0.989-9.889L-64.215,34.046z"/>
	<path fill="#050305" d="M8.999-155.21c0,0,2.418-3.834,8.245-3.834l0.162-1.19c0,0-7.472-0.592-9.722,2.987l0.151-2.732
		l-2.49,0.263l0.78,4.935L8.999-155.21z"/>
	<path fill="#050305" d="M-21.856-155.21c0,0-2.419-3.834-8.245-3.834l-0.163-1.19c0,0,7.473-0.592,9.722,2.987l-0.15-2.732
		l2.49,0.263l-0.78,4.935L-21.856-155.21z"/>
	<path fill="#4283AF" d="M99.38-28.909c0,0,16.147-47.05,1.621-47.56C101.001-76.469,89.601-78.184,99.38-28.909z"/>
</symbol>
<use xlink:href="#doug"  width="210.407" height="325.72" id="XMLID_1_" x="-103.345" y="-162.86" transform="matrix(1.4849 0 0 -1.4849 234.1025 250.6421)" overflow="visible"/>
<g>
</g>
<g>
</g>
<g>
</g>
<g>
</g>
<g>
</g>
<g>
</g>
<g>
</g>
<g>
</g>
<g>
</g>
</svg>
