<?xml version="1.0" encoding="utf-8"?>
<!-- Generator: Adobe Illustrator 17.0.0, SVG Export Plug-In . SVG Version: 6.00 Build 0)  -->
<!DOCTYPE svg PUBLIC "-//W3C//DTD SVG 1.1//EN" "http://www.w3.org/Graphics/SVG/1.1/DTD/svg11.dtd">
<svg version="1.1" id="Layer_1" xmlns="http://www.w3.org/2000/svg" xmlns:xlink="http://www.w3.org/1999/xlink" x="0px" y="0px"
	 width="325.958px" height="418.657px" viewBox="0 0 325.958 418.657" enable-background="new 0 0 325.958 418.657"
	 xml:space="preserve">
<g>
	<path opacity="0.15" fill="#211F1F" d="M155.991,414.862c-61.979,0-112.226,0.847-112.226,1.897
		c0,1.047,50.247,1.897,112.226,1.897c61.983,0,112.24-0.85,112.24-1.897C268.231,415.709,217.975,414.862,155.991,414.862z"/>
	<g>
		<path fill="#603913" d="M245.894,296.746c-29.97,3.233-60.09,2.621-90.024-0.815c-22.557-3.435-44.739-8.397-66.882-13.995
			c-12.59-3.183-25.152-6.495-37.545-10.335c12.05-111.145,29.35-314.566,176.766-237.657c0,0,52.749,29.644,33.847,259.869
			C256.669,294.901,251.28,295.894,245.894,296.746z"/>
		<path fill="none" stroke="#3C2415" stroke-width="0.9522" stroke-miterlimit="10" d="M109.067,286.807
			c-2.405-14.203-1.069-102.996-1.069-102.996"/>
		<polyline fill="#427E90" points="141.287,211.889 143.695,271.989 182.039,271.989 186.27,210.286 		"/>
		<path fill="#E6BD98" d="M179.843,222.66c0,0-14.793,46.251-33.077,0.89l32.114-0.89"/>
		<path fill="#CD9B78" d="M168.633,237.489c0.226-0.063-5.596,0.407-4.597,5.949C164.036,243.438,164.643,238.584,168.633,237.489z"
			/>
		<path fill="#CD9B78" d="M159.126,237.489c-0.228-0.063,5.593,0.407,4.594,5.949C163.72,243.438,163.111,238.584,159.126,237.489z"
			/>
		<path fill="#E9BF9A" d="M235.772,134.381c0,0,18.867,51.139-54.463,94.455c0,0-33.213,25.711-59.807-18.55
			c-6.857-11.413-27.217-32.483-13.019-107.083c0,0,5.044-83.221,89.205-58.428C264.985,64.599,235.772,134.381,235.772,134.381z"/>
		<path opacity="0.05" fill="#231F20" d="M223.153,56.719c0,0-63.875-10.536-111.174,33.201l13.766-21.07l24.386-17.464
			l25.024-6.097h17.239C192.393,45.29,213.706,45.674,223.153,56.719z"/>
		<path fill="#603913" d="M223.153,56.719c0,0-70.034-33.885-119.247,44.887l20.565-59.087l49.467-5.661l37.224-6.009
			L223.153,56.719z"/>
		<path opacity="0.2" fill="#CD9C78" d="M175.794,232.117c0,0-8.639,9.02-22.885,3.637
			C152.909,235.753,166.646,238.19,175.794,232.117z"/>
		<path fill="#603913" d="M211.755,243.77c-0.161,0.054-0.315,0.088-0.473,0.135c-1.45,4.66-3.004,9.347-4.68,14.056l19.88-5.11
			l6.778-19.252C226.654,238.152,219.467,241.167,211.755,243.77z"/>
		<path fill="#603913" d="M255.852,116.222l-19.335-59.503h-13.364c0,0,16.261,73.372-5.188,162.877
			c6.09-3.451,10.577-8.159,13.489-16.127c0.073-0.2,0.159-0.393,0.241-0.588c-0.037-0.249-0.074-0.499-0.098-0.754
			c-1.098-11.552,11.187-29.619,23.707-31.146l3.37-9.572L255.852,116.222z"/>
		<path fill="#603913" d="M194.316,35.855c0,0-26.299-3.367-27.883-5.006c-1.585-1.638-38.594,19.916-38.594,19.916L99.096,94.645
			l-19.582,71.079l-1.237,5.024c1.505,0.769,2.877,2.01,3.955,3.833c2.323,3.924,8.636,7.544,12.205,11.262
			c1.163,1.212,2.291,2.454,3.413,3.701C106.817,30.47,223.153,56.719,223.153,56.719L194.316,35.855z"/>
		<path fill="none" stroke="#3C2415" stroke-width="0.9522" stroke-miterlimit="10" d="M62.683,274.935v-41.663
			c0.143-10.04,0.719-20.073,1.651-30.072c3.202-34.239,10.183-68.019,21.329-100.562c10.03-29.288,28.102-56.752,57.047-70.12
			c13.468-6.221,28.645-8.316,42.862-3.363c14.965,5.214,26.546,16.727,37.612,27.591c-1.908-1.649-4.047-2.969-6.236-4.206
			c-8.115-4.587-17.541-8.279-26.632-10.302c-7.437-1.653-15.973-2.025-23.541-1.292c-30.474,2.951-55.612,26.845-67.679,53.699
			c-4.344,9.669-7.827,19.869-10.363,30.157c-9.172,37.228-9.371,76.32-8.139,114.423l1.912,41.057"/>
		<path fill="none" stroke="#3C2415" stroke-width="0.9522" stroke-miterlimit="10" d="M218.58,298.631
			c35.918-197.535,0.164-243.94,4.604-241.885c0,0-6.362-12.583,5.025-22.801"/>
		<path opacity="0.2" fill="#CD9C78" d="M190.328,56.166c-1.513,0.175-3,0.377-4.461,0.6c1.508-0.406,2.995-0.753,4.449-1.049
			C190.324,55.866,190.321,56.016,190.328,56.166z"/>
		<path opacity="0.2" fill="#CD9C78" d="M185.867,56.766c-29.737,7.987-88.147,57.868-71.562,141.968c0,0-8.365-9.386-11.667-47.456
			C102.593,150.753,113.199,68.778,185.867,56.766z"/>
		<path fill="none" stroke="#3C2415" stroke-width="0.9522" stroke-miterlimit="10" d="M223.184,56.745
			c0,0,43.318,78.993,14.432,242.122"/>
		<g>
			<path fill="#231F20" d="M169.044,153.812c0,0,8.107-9.55,22.747-6.1c14.63,3.454,17.219-14.042,17.219-14.042
				s0.905,15.54-10.849,16.953c0,0,8.423,3.222,12.226-4.13c0,0-4.155,14.71-26.549,5.051
				C176.914,148.555,169.044,153.812,169.044,153.812z"/>
			<path fill="#231F20" d="M141.037,147.065c0,0-4.729-8.677-16.007-6.644c-11.271,2.038-10.87-13.089-10.87-13.089
				s-2.726,13.235,5.776,15.18c0,0-6.65,2.227-8.489-4.299c0,0,1.126,12.841,18.956,5.984
				C135.916,142.074,141.037,147.065,141.037,147.065z"/>
			<g>
				<path opacity="0.43" fill="#FFFFFF" d="M227.568,130.087c0,0-75.048-15.362-59.895,22.002
					C182.825,189.452,228.301,175.431,227.568,130.087z"/>
				<path fill="#3C2415" d="M185.941,171.487c-5.31-1.569-9.912-3.947-13.677-7.066c-8.85-7.331-15.766-19.066-8.645-30.015
					c4.143-6.363,11.145-9.555,21.405-9.758c6.102-0.122,12.348,0.808,17.863,1.626c1.937,0.286,3.765,0.559,5.411,0.756
					c7.478,0.899,14.572,2.053,21.086,3.432c1.269,0.269,2.249,1.283,2.473,2.559c0.817,4.677,0.297,8.064-1.59,10.354
					c-0.891,1.083-2.065,1.851-3.417,2.256c-0.065,0.614-0.159,1.179-0.234,1.639c-0.353,2.157-0.9,4.376-1.082,5.104l-0.019,0.074
					c-1.501,6.074-4.98,11.819-9.541,15.763c-4.002,3.462-9.284,5.282-15.692,5.407
					C195.905,173.704,190.949,172.968,185.941,171.487z M224.571,139.611 M221.503,135.476c-5.715-1.141-7.512-1.362-13.963-2.135
					c-1.734-0.209-3.604-0.487-5.584-0.781c-5.267-0.784-11.237-1.669-16.804-1.559c-8.11,0.16-13.258,2.342-16.208,6.87
					c-6.256,9.616,5.046,19.727,7.374,21.657c3.099,2.568,6.941,4.542,11.426,5.868c4.385,1.297,8.679,1.943,12.414,1.869
					c4.886-0.096,8.809-1.393,11.66-3.861c3.591-3.104,6.337-7.653,7.529-12.481l0.02-0.079c0.983-3.962,1.179-5.806,1.208-6.554"/>
				<path fill="#3C2415" d="M145.301,143.563c0.357-2.888,20.232-0.432,19.874,2.455l1.934-15.651
					c-0.349,2.817-20.22,0.361-19.874-2.455L145.301,143.563z"/>
				<path opacity="0.43" fill="#FFFFFF" d="M103.289,114.733c0,0,58.035,1.08,38.996,34.22
					C123.245,182.09,93.063,158.722,103.289,114.733z"/>
				<path fill="#3C2415" d="M113.894,162.944c-4.65-1.492-8.115-4.392-10.295-8.617c-2.486-4.815-3.794-11.152-3.592-17.385
					l0.003-0.076c0.024-0.749,0.095-3.025,0.298-5.199c0.047-0.465,0.099-1.035,0.183-1.648c-0.899-0.682-1.593-1.683-2.013-2.924
					c-0.886-2.633-0.544-6.042,1.053-10.42c0.437-1.197,1.368-1.975,2.352-1.966c5.047,0.05,10.469,0.443,16.118,1.166
					c1.243,0.16,2.635,0.286,4.108,0.42c4.199,0.381,8.957,0.812,13.38,2.234c7.444,2.391,11.871,6.995,13.535,14.075
					c2.854,12.18-4.699,22.128-12.72,27.373c-3.416,2.234-7.282,3.566-11.492,3.958C120.844,164.306,117.07,163.962,113.894,162.944
					z M103.439,124.644 M105.353,130.054c-0.138,0.735-0.388,2.572-0.516,6.641l-0.004,0.079c-0.161,4.955,0.869,9.971,2.825,13.761
					c1.556,3.009,4.139,5.113,7.685,6.251c2.707,0.869,5.978,1.157,9.456,0.832c3.554-0.333,6.782-1.432,9.592-3.271
					c2.109-1.381,12.513-8.812,10.005-19.509c-1.184-5.039-4.473-8.266-10.356-10.154c-4.039-1.296-8.582-1.709-12.592-2.074
					c-1.51-0.136-2.934-0.265-4.242-0.434c-4.872-0.625-6.23-0.792-10.643-0.903"/>
			</g>
		</g>
		<g>
			<path fill="none" stroke="#CD9C78" stroke-width="2.2449" stroke-miterlimit="10" d="M195.016,189.274
				c0,0-16.01,33.183-53.306,18.657"/>
			<path fill="#CD9C78" d="M199.513,194.722c0,0,5.315-17.547-14.524-7.584C184.989,187.138,199.89,181.891,199.513,194.722z"/>
		</g>
		<path fill="#603913" d="M172.972,120.134c0,0,30.362-25.954,50.212,4.643C223.184,124.777,201.548,105.428,172.972,120.134z"/>
		<path fill="#603913" d="M98.569,114.38c0,0,30.361-25.954,50.212,4.643C148.781,119.023,127.145,99.675,98.569,114.38z"/>
		<g>
			<path fill="#CD9C78" d="M133.03,166.486c0,0,13.01,36.608,37.562,5.76C170.592,172.246,148.341,189.78,133.03,166.486z"/>
			<path opacity="0.2" fill="#CD9C78" d="M133.03,166.486c0,0,11.217,52.199,37.562,5.76
				C170.592,172.246,148.341,189.78,133.03,166.486z"/>
		</g>
		<g>
			<path fill="#E9BF9A" d="M168.058,281.504c0,0-80.451-60.846-96.001-35.381s75.719,55.663,75.719,55.663"/>
			<path opacity="0.2" fill="none" stroke="#231F20" stroke-width="2.6767" stroke-miterlimit="10" d="M95.012,268.625
				c0,0,18.881,9.367,32.639,18.295"/>
			<g>
				<path fill="#E9BF9A" d="M170.474,281.504c0,0,80.452-60.846,96.001-35.381c15.549,25.465-75.719,55.663-75.719,55.663"/>
				<path opacity="0.2" fill="none" stroke="#231F20" stroke-width="2.6767" stroke-miterlimit="10" d="M243.521,268.625
					c0,0-18.881,9.367-32.638,18.295"/>
			</g>
		</g>
		<g>
			<path fill="#FFFFFF" d="M240.411,283.972c0.147-1.763-0.003-3.612-0.491-5.472c-1.549-5.911-5.988-10.703-11.049-14.129
				c-11.575-7.834-27.17-9.335-40.027-3.851c-5.851,2.495-10.744,6.637-12.086,12.281c-2.059-2.25-4.413-4.332-7.148-6.657
				c-8.268-7.028-17.126-10.711-28.691-10.489c-12.84,0.246-25.012,6.513-31.118,17.041c-3.979,6.86-2.192,12.747,0.14,18.787
				c-6.415-6.533-16.282-10.675-25.018-7.608c-10.725,3.771-20.012,18.804-13.137,29.459c0.357,0.553,0.836,1.149,1.398,1.735
				c-5.832,1.03-11.17,6.971-11.626,13.246c-0.508,6.993,3.739,13.773,9.626,17.582c4.548,2.942,9.643,3.968,14.886,4.668
				c-1.392,5.618-0.666,11.376,3.178,15.94c3.669,4.356,9.449,6.731,15.144,6.62c5.694-0.111,11.234-2.595,15.404-6.474
				c3.096,9.194,7.521,15.117,15.868,20.341c6.34,3.969,14.95,8.142,22.633,8.142c12.691,0.98,25.644-3.931,34.771-12.746
				c2.743-2.65,7.01-6.975,8.201-11.257c7.874,4.275,19.452,6.818,23.366,7.126c28.403,2.232,52.494-26.61,52.379-53.316
				C276.919,302.832,262.272,282.887,240.411,283.972z"/>
			<path fill="#CCCBCB" d="M161.513,397.223c-1.098,0-2.205-0.042-3.293-0.124c-8.401-0.028-17.466-4.603-23.599-8.442
				c-7.74-4.845-12.437-10.387-15.716-18.709c-4.285,3.196-9.427,5.043-14.475,5.142l-0.419,0.004
				c-6.323,0-12.404-2.738-16.267-7.324c-3.546-4.21-4.939-9.67-4.013-15.557c-4.61-0.722-9.347-1.905-13.615-4.667
				c-6.92-4.475-11.05-12.081-10.519-19.374c0.439-6.043,4.814-11.832,10.296-14.158c-2.73-4.495-3.175-10.041-1.248-15.672
				c2.521-7.364,8.8-13.923,15.625-16.324c2.159-0.759,4.452-1.143,6.817-1.143c4.991,0,10.268,1.749,14.941,4.842
				c-0.986-4.403-0.858-8.958,2.072-14.01c6.291-10.848,18.852-17.753,32.781-18.021c11.464-0.201,20.929,3.245,30.003,10.957
				c1.911,1.625,3.584,3.092,5.09,4.543c2.104-4.348,6.291-8,12.1-10.477c5.257-2.242,11.163-3.426,17.082-3.426
				c8.897,0,17.711,2.649,24.817,7.458c4.353,2.947,9.942,7.986,11.849,15.259c0.345,1.315,0.544,2.641,0.596,3.963
				c22.777,0.196,36.471,21.94,36.562,42.965c0.061,14.225-6.45,29.294-17.418,40.31c-9.698,9.739-21.711,15.103-33.823,15.103
				c0,0,0,0-0.001,0c-1.082,0-2.178-0.043-3.257-0.128c-3.857-0.303-14.14-2.511-22.155-6.341c-1.744,3.693-5.049,7.181-7.892,9.927
				C185.602,392.331,173.603,397.223,161.513,397.223z M120.688,363.134l0.972,2.888c3.034,9.01,7.253,14.423,15.048,19.302
				c5.715,3.578,14.101,7.843,21.589,7.843l0.151,0.006c1.011,0.078,2.042,0.118,3.065,0.118c11.08,0,22.083-4.49,30.189-12.318
				c1.96-1.892,6.548-6.325,7.673-10.37l0.661-2.379l2.171,1.178c7.854,4.263,19.181,6.626,22.581,6.892
				c12.018,0.943,24.239-4.04,33.986-13.829c10.246-10.29,16.329-24.315,16.273-37.518c-0.085-19.691-13.061-40.033-34.54-39.012
				l-2.244,0.112l0.187-2.24c0.133-1.587-0.012-3.206-0.433-4.81c-1.597-6.09-6.455-10.431-10.249-12.999
				c-6.462-4.373-14.494-6.782-22.613-6.782c-5.393,0-10.767,1.076-15.54,3.112c-3.469,1.48-9.503,4.866-10.945,10.927l-0.858,3.609
				l-2.505-2.736c-1.925-2.104-4.095-4.042-6.971-6.487c-8.414-7.151-16.823-10.25-27.38-10.02
				c-12.563,0.241-23.849,6.396-29.455,16.061c-3.518,6.066-3.867,11.827-1.561,17.8l0,0c-4.951-5.04-12.877-6.673-18.854-6.673
				c-1.92,0-3.775,0.31-5.513,0.92c-5.749,2.022-11.057,7.603-13.208,13.887c-1.121,3.276-1.845,8.129,1.072,12.651
				c0.29,0.449,0.694,0.949,1.167,1.442l2.541,2.657l-3.62,0.639c-5.038,0.89-9.62,6.134-10.007,11.451
				c-0.428,5.883,3,12.08,8.733,15.788c4.025,2.605,8.539,3.631,14.078,4.37l2.177,0.291l-0.528,2.131
				c-0.953,3.844-1.246,9.429,2.773,14.201c3.125,3.709,8.082,5.924,13.259,5.924l0.343-0.004
				c5.004-0.098,10.144-2.266,14.102-5.948L120.688,363.134z"/>
		</g>
		<g>
			<path fill="#CCCBCB" d="M210.617,310.392c0,0-43.357,66.472-85.911,1.004C124.706,311.397,161.364,356.859,210.617,310.392z"/>
			<path fill="#CCCBCB" d="M145.751,330.704c0,0-21.012,32.213-41.633,0.487C104.118,331.191,121.883,353.222,145.751,330.704z"/>
			<path fill="#CCCBCB" d="M227.109,322.028c0,0-16.507,25.306-32.707,0.382C194.402,322.41,208.358,339.718,227.109,322.028z"/>
		</g>
		<path fill="none" stroke="#D9923E" stroke-width="8.2186" stroke-linecap="round" stroke-miterlimit="10" d="M64.926,211.75"/>
		<path fill="#E9BF9A" d="M72.264,213.153c-0.28,0-0.563-0.004-0.851-0.013c-8.411-0.253-15-6.895-15-15.122
			c0-8.34,6.784-15.124,15.124-15.124c2.27,0,4.109,1.84,4.109,4.109c0,2.27-1.84,4.109-4.109,4.109
			c-3.807,0-6.905,3.098-6.905,6.905c0,3.755,3.087,6.789,7.028,6.907c2.686,0.075,4.524-0.354,5.462-1.294
			c1.2-1.202,1.381-3.645,1.322-5.481c-0.041-1.267-0.292-2.362-0.747-3.257c-1.029-2.022-0.224-4.497,1.799-5.525
			c2.023-1.03,4.497-0.224,5.526,1.799c1.006,1.977,1.557,4.237,1.637,6.719c0.162,5.03-1.09,8.917-3.719,11.552
			C80.447,211.934,76.949,213.153,72.264,213.153z"/>
		<path fill="#E9BF9A" d="M252.601,213.153c0.28,0,0.563-0.004,0.851-0.013c8.411-0.253,15-6.895,15-15.122
			c0-8.34-6.784-15.124-15.124-15.124c-2.27,0-4.109,1.84-4.109,4.109c0,2.27,1.84,4.109,4.109,4.109
			c3.807,0,6.905,3.098,6.905,6.905c0,3.755-3.087,6.789-7.028,6.907c-2.686,0.075-4.524-0.354-5.462-1.294
			c-1.199-1.202-1.381-3.645-1.322-5.481c0.041-1.267,0.292-2.362,0.747-3.257c1.029-2.022,0.224-4.497-1.799-5.525
			c-2.023-1.03-4.497-0.224-5.526,1.799c-1.006,1.977-1.557,4.237-1.637,6.719c-0.162,5.03,1.09,8.917,3.719,11.552
			C244.418,211.934,247.916,213.153,252.601,213.153z"/>
		<path fill="#E9BF9A" d="M142.184,234.268c-25.468-2.606-54.546-9.545-71.508-26.671c-11.796-11.912-12.121-23.061-12.13-23.582
			c-0.014-2.258-1.848-4.084-4.109-4.084c-2.269,0-4.109,1.84-4.109,4.109c0,0.584,0.158,14.458,13.916,28.732
			c15.75,16.342,42.049,26.34,78.273,29.803L142.184,234.268z"/>
		<path fill="#E9BF9A" d="M270.428,179.931c-2.261,0-4.095,1.826-4.109,4.084c-0.009,0.521-0.334,11.67-12.13,23.582
			c-16.528,16.688-44.563,23.707-69.549,26.466l-0.573,8.348c35.342-3.611,61.054-13.555,76.554-29.639
			c13.758-14.274,13.916-28.148,13.916-28.732C274.537,181.771,272.697,179.931,270.428,179.931z"/>
	</g>
</g>
</svg>
