<?xml version="1.0" encoding="utf-8"?>
<!-- Generator: Adobe Illustrator 16.0.0, SVG Export Plug-In . SVG Version: 6.00 Build 0)  -->
<!DOCTYPE svg PUBLIC "-//W3C//DTD SVG 1.1//EN" "http://www.w3.org/Graphics/SVG/1.1/DTD/svg11.dtd">
<svg version="1.1" id="Layer_1" xmlns="http://www.w3.org/2000/svg" xmlns:xlink="http://www.w3.org/1999/xlink" x="0px" y="0px"
	 width="480px" height="500px" viewBox="0 0 480 500" enable-background="new 0 0 480 500" xml:space="preserve">
<symbol  id="ethan" viewBox="-122.987 -226.853 245.975 406.721">
	<path fill="#D09F78" d="M68.337,112.47c0-37.224-30.336-67.4-67.755-67.4s-67.755,30.177-67.755,67.4
		c0,37.222,30.336,67.398,67.755,67.398S68.337,149.691,68.337,112.47z"/>
	<path fill="#C2B59C" d="M-15.859-45.673c-0.109,8.484,8.805,21.996,36.526,43.506L11.109-1.63c0,0-28.883-23.781-34.45-42.236
		C-20.799-44.228-18.338-44.939-15.859-45.673z"/>
	<path fill="#C2B59C" d="M56.938-41.156c2.374,0.418,4.769,0.738,7.157,0.883C57.413-22.078,30.19,0.336,30.19,0.336l-9.558-0.537
		C45.727-19.671,55.409-32.589,56.938-41.156z"/>
	<path fill="#EAC19C" d="M-15.259-41.486c-2.128,0.482-4.193,1.326-6.115,2.566c-6.708-13.902-3.558-26.342,29.395-26.207
		c-0.532,2.027,0.735,3.914,2.731,5.287C0.992-59.517-19.631-57.019-15.259-41.486z"/>
	<path fill="#EAC19C" d="M56.604-39.695c4.168-15.377-16.333-17.857-26.056-18.178c1.996-1.373,3.264-3.26,2.731-5.287
		c32.264-0.133,35.959,11.791,29.803,25.338C61.078-38.806,58.877-39.433,56.604-39.695z"/>
	<polygon fill="#8B5F3D" points="35.574,-60.154 2.896,-58.619 4.069,-220.095 6.865,-219.847 6.165,-75.484 31.361,-73.447 
		32.066,-219.847 34.755,-220.029 	"/>
	<path opacity="0.15" fill="#231F20" d="M25.615-223.263c-53.771,0-97.363-0.805-97.363-1.795c0-0.992,43.593-1.795,97.363-1.795
		c53.773,0,97.372,0.803,97.372,1.795C122.987-224.068,79.389-223.263,25.615-223.263z"/>
	<polyline fill="#C2B59C" points="40.755,-10.746 35.083,-66.652 2.202,-67.601 -1.8,-9.228 	"/>
	<path fill="#050305" d="M34.692-219.998c0,0,2.418-3.834,8.245-3.834l0.162-1.191c0,0-7.472-0.592-9.722,2.988l0.151-2.732
		l-2.49,0.262l0.78,4.936L34.692-219.998z"/>
	<path fill="#050305" d="M3.837-219.998c0,0-2.419-3.834-8.245-3.834l-0.163-1.191c0,0,7.473-0.592,9.722,2.988L5-224.767
		l2.49,0.262l-0.78,4.936L3.837-219.998z"/>
	<polygon fill="#231F20" points="2.035,-65.167 35.574,-63.16 35.574,-67.601 2.035,-68.542 	"/>
	<path fill="#EAC19C" d="M28.553-34.505c-35.701-1.213-56.224,33.418-66.3,61.783c-18.785,29.341,0,92.715,0,92.715
		c68.042-22.293,103.252,4.673,103.268,4.684c-4.293-3.29-0.197-29.414,0.355-33.658c1.377-10.577,3.336-20.621,7.446-30.482
		c4.168-9.998,9.821-19.584,9.9-30.745C83.436-0.715,60.879-33.41,28.553-34.505z"/>
	<path fill="#D09F78" d="M34.225,44.291c0,0,19.278-13.018,30.103,6.113C64.327,50.404,51.668,39.838,34.225,44.291z"/>
	<path fill="none" stroke="#D09F78" stroke-width="2.1641" d="M47.586-0.438c0,0-42.861-8.674-50.571,20.784"/>
	<path fill="#D09F78" d="M5.673,24.674c0,0-16.003,13.518-15.442-11.586C-9.77,13.088-9.515,30.295,5.673,24.674z"/>
	<path fill="#EAC19C" d="M68.337,102.43c0-38.037-28.479-68.869-63.605-68.869c-35.131,0-63.608,30.832-63.608,68.869
		s28.478,68.869,63.608,68.869C39.857,171.299,68.337,140.467,68.337,102.43z"/>
	<g>
		<path fill="#D09F78" d="M34.225,168.235c-16.004,1.497-58.167,31.211-87.993-28.872c0,0-8.607-33.781-6.812-52.129
			c1.378,0.309,2.801,0.483,4.261,0.483c3.865,0,7.493-1.16,10.579-3.123c3.846,16.688,2.098,50.742,10.045,62.429
			c13.685,19.844,23.948,7.527,39.003-2.053c5.475-3.42,14.37-8.895,21.896-6.158c8.211,2.738,8.321,14.971,15.738,16.422
			c8.335,1.633,16.14-14.121,22.581-26.485C63.522,128.749,50.228,166.74,34.225,168.235z"/>
	</g>
	<path fill="#EAC19C" d="M-46.166,73.832c0,0-12.954,21.918-31.015,5.208c-22.511-20.846,18.955-33.508,18.955-33.508
		s13.131-4.196,8.711-18.376c-4.432-14.186-4.327-19.336,0.593-20.964c4.911-1.612,14.805,3.241,15.004,11.665
		C-33.062,54.251-46.166,73.832-46.166,73.832z"/>
	<g>
		<path fill="#D09F78" d="M-43.711,48.942c0,0-21.391,44.81-20.056,8.829C-63.767,57.771-60.71,77.968-43.711,48.942z"/>
		<path fill="#D09F78" d="M-43.571,48.829c0,0-14.702,22.073-8.174-6.929C-51.745,41.9-54.086,60.611-43.571,48.829z"/>
	</g>
	<path fill="#D09F78" d="M-33.918,17.857c0,0,3.094,6.584,2.496,13.757c0,0,3.356-12.459-0.829-17.908L-33.918,17.857z"/>
	<path fill="#231F20" d="M-21.374-38.919l-1.331-3.094c0,0,2.917-1.84,6.975-1.709l0.472,2.236
		C-15.259-41.486-18.269-41.187-21.374-38.919z"/>
	<path fill="#231F20" d="M56.379-38.919c0,0,0.036,0.006,0.104,0.018c0.613,0.107,3.792,0.719,6.072,2.195
		c0,0,0.476-0.861,1.008-2.213c0,0-3.588-1.867-6.732-1.67"/>
	<path fill="#BD3C3A" d="M-65.863,99.235c0,0,84.637-9.434,134.2-9.805l4.985-28.896c0,0-79.293-6.685-134.662,24.544
		C-61.34,85.079-64.782,91.533-65.863,99.235z"/>
	<g>
		<path opacity="0.3" fill="#D09F78" d="M70.137,94.329c0,0-15.749-4.358-19.528-16.339c0,0,1.13-27.565,24.238-5.824
			C74.847,72.166,79.869,90.526,70.137,94.329z"/>
		<path fill="none" stroke="#D09F78" stroke-width="0.6163" d="M77.888,91.905c0,0-26.313-3.898-29.81-11.76
			c0,0-3.651-8.018,5.349-9.959"/>
		<path fill="none" stroke="#D09F78" stroke-width="0.6163" d="M54.836,72.965c0,0,1.415-19.297,21.827-6.104"/>
		<path fill="none" stroke="#D09F78" stroke-width="0.6163" d="M54.236,75.345c0,0-1.016,18.88,20.486,7.488"/>
		<path fill="#FFFFFF" stroke="#D09F78" stroke-width="0.6163" d="M71.399,78.65c-1.356,4.713-6.25,7.439-10.981,6.079
			c-4.707-1.349-7.429-6.259-6.078-10.968c1.352-4.712,6.261-7.443,10.987-6.089C70.029,69.024,72.756,73.939,71.399,78.65z"/>
		<path fill="#764E2B" d="M54.34,73.955c-0.587,2.696,1.107,5.355,3.804,5.949c2.7,0.587,5.355-1.107,5.948-3.802
			c0.594-2.702-1.109-5.359-3.8-5.957C57.589,69.556,54.931,71.256,54.34,73.955z"/>
		<path fill="#231F20" d="M54.493,73.295c-0.308,1.39,0.565,2.754,1.947,3.052c1.387,0.308,2.75-0.566,3.058-1.948
			c0.303-1.386-0.569-2.754-1.956-3.061C56.161,71.036,54.797,71.909,54.493,73.295z"/>
		<path fill="#FFFFFF" d="M57.798,75.442c-0.155,0.704,0.286,1.396,0.987,1.55c0.702,0.151,1.396-0.289,1.554-0.99
			c0.149-0.704-0.294-1.396-0.992-1.549C58.642,74.297,57.948,74.739,57.798,75.442z"/>
	</g>
	<g>
		<path opacity="0.3" fill="#D09F78" d="M-7.969,81.167c0,0,21.212,12.702,36.315,8.216c0,0,27.854-20.536-10.972-29.286
			C17.375,60.097-10.846,68.391-7.969,81.167z"/>
		<path fill="none" stroke="#D09F78" stroke-width="0.7731" d="M-1.541,93.213c0,0,33.248-2.785,38.26-12.344
			c0,0,5.203-9.751-5.906-12.904"/>
		<path fill="none" stroke="#D09F78" stroke-width="0.7731" d="M28.829,71.337c0,0-0.24-24.274-26.852-9.388"/>
		<path fill="none" stroke="#D09F78" stroke-width="0.7731" d="M29.388,74.358c0,0-0.237,23.725-26.256,7.747"/>
		<path fill="#FFFFFF" stroke="#D09F78" stroke-width="0.7731" d="M7.628,77.145c1.328,6.002,7.249,9.808,13.27,8.481
			c6.003-1.318,9.802-7.245,8.482-13.25c-1.312-6.006-7.253-9.815-13.268-8.488C10.12,65.196,6.314,71.136,7.628,77.145z"/>
		<path fill="#8B603E" d="M23.397,73.906c0.525,3.422-1.808,6.612-5.231,7.143c-3.426,0.526-6.62-1.808-7.151-5.238
			c-0.517-3.419,1.818-6.615,5.241-7.147C19.678,68.133,22.874,70.482,23.397,73.906z"/>
		<path fill="#231F20" d="M20.565,74.437c0.273,1.751-0.928,3.389-2.678,3.668c-1.762,0.268-3.408-0.935-3.677-2.689
			c-0.272-1.757,0.935-3.403,2.69-3.675C18.663,71.469,20.299,72.676,20.565,74.437z"/>
		<path fill="#FFFFFF" d="M16.261,76.284c0.139,0.894-0.471,1.725-1.364,1.859c-0.892,0.135-1.723-0.473-1.865-1.358
			c-0.131-0.897,0.478-1.729,1.369-1.866C15.292,74.78,16.121,75.398,16.261,76.284z"/>
	</g>
	<path fill="#D09F78" d="M-19.689,113.45l1.926-12.969c0,0,28.248,3.219,46.334-6.644l5.221,12.454
		C33.791,106.292,10.297,121.838-19.689,113.45z"/>
	<path fill="#D09F78" d="M83.034,104.573l-1.82-8.722c0,0-19.336,6.031-32.171,1.636l-3.125,9.325
		C45.918,106.812,60,118.11,83.034,104.573z"/>
	<g opacity="0.32">
		<path fill="#FFFFFF" d="M89.128,82.708c0.11,1.924-1.374,3.426-3.299,3.339l-34.293-1.553c-1.925-0.087-3.343-1.727-3.151-3.644
			l1.22-12.178c0.191-1.917,1.924-3.544,3.85-3.615l31.084-1.143c1.926-0.071,3.592,1.445,3.702,3.369L89.128,82.708z"/>
	</g>
	<g>
		<path fill="none" stroke="#929497" stroke-width="1.1645" stroke-miterlimit="10" d="M89.128,82.708
			c0.11,1.924-1.374,3.426-3.299,3.339l-34.293-1.553c-1.925-0.087-3.343-1.727-3.151-3.644l1.22-12.178
			c0.191-1.917,1.924-3.544,3.85-3.615l31.084-1.143c1.926-0.071,3.592,1.445,3.702,3.369L89.128,82.708z"/>
	</g>
	<g opacity="0.32">
		<path fill="#FFFFFF" d="M-18.973,84.665c-0.146,2.099,1.454,3.753,3.557,3.674l52.14-1.942c2.103-0.079,3.799-1.864,3.769-3.968
			l-0.215-15.195c-0.03-2.104-1.775-3.875-3.879-3.937l-49.944-1.449c-2.104-0.061-3.945,1.607-4.091,3.706L-18.973,84.665z"/>
	</g>
	<g>
		<path fill="none" stroke="#929497" stroke-width="1.5304" stroke-miterlimit="10" d="M-18.973,84.665
			c-0.146,2.099,1.454,3.753,3.557,3.674l52.14-1.942c2.103-0.079,3.799-1.864,3.769-3.968l-0.215-15.195
			c-0.03-2.104-1.775-3.875-3.879-3.937l-49.944-1.449c-2.104-0.061-3.945,1.607-4.091,3.706L-18.973,84.665z"/>
	</g>
	<path fill="none" stroke="#929497" stroke-width="1.1608" stroke-miterlimit="10" d="M40.905,69.747c0,0,3.279,8.974,8.38,1.366"/>
	<polygon fill="#231F20" points="-20.513,73.844 -15.749,74.173 -15.749,85.89 37.936,83.629 37.795,74.358 43.128,74.358 
		43.128,89.431 -21.634,90.462 	"/>
	<polygon fill="#231F20" points="46.577,75.723 50.847,75.723 50.608,83.1 86.391,83.1 86.391,78.162 91.046,78.162 91.046,88.481 
		46.577,88.857 	"/>
	<path fill="#BD3C3A" d="M-60.827,94.329c0,0-21.494,39.526-62.16,2.791C-122.987,97.12-100.736,108.801-60.827,94.329z"/>
	<path fill="#BD3C3A" d="M-63.826,96.324c0,0-28.791,17.767-41.608-21.397C-105.435,74.927-95.276,90.861-63.826,96.324z"/>
</symbol>
<use xlink:href="#ethan"  width="245.975" height="406.721" id="XMLID_1_" x="-122.987" y="-226.853" transform="matrix(1.1967 0 0 -1.1967 230.6748 220.3408)" overflow="visible"/>
<g>
</g>
<g>
</g>
<g>
</g>
<g>
</g>
<g>
</g>
<g>
</g>
<g>
</g>
<g>
</g>
<g>
</g>
<g>
</g>
<g>
</g>
<g>
</g>
</svg>
