<?xml version="1.0" encoding="utf-8"?>
<!-- Generator: Adobe Illustrator 16.0.0, SVG Export Plug-In . SVG Version: 6.00 Build 0)  -->
<!DOCTYPE svg PUBLIC "-//W3C//DTD SVG 1.1//EN" "http://www.w3.org/Graphics/SVG/1.1/DTD/svg11.dtd">
<svg version="1.1" id="Layer_1" xmlns="http://www.w3.org/2000/svg" xmlns:xlink="http://www.w3.org/1999/xlink" x="0px" y="0px"
	 width="480px" height="500px" viewBox="0 0 480 500" enable-background="new 0 0 480 500" xml:space="preserve">
<g>
	<g>
		<path fill="#A97D51" d="M125.987,267.145l-6.792,14.365c0,0,256.542,116.774,272.548,113.65
			C407.757,392.039,125.987,267.145,125.987,267.145z"/>
		<polygon fill="#D1D2D3" points="129.955,267.75 126.305,265.355 118.194,283.69 123.104,284.614 		"/>
		<path fill="#D1D2D3" d="M126.997,268.627c0,0-11.409-10.562-24.249-8.413l-4.678,9.239c0,0,13.482,15.386,24.968,12.057
			L126.997,268.627z"/>
		<path fill="#131313" d="M105.319,259.946c0,0-8.001-37.902-39.219-24.675c-31.209,13.223-33.379-18.152-33.379-18.152
			S27.701,322.621,99.38,271.04L105.319,259.946z"/>
		<path fill="#F7941E" d="M57.179,238.02c-5.079,7.831-9.832,15.913-14.627,23.815c-0.802,1.319-1.595,2.643-2.388,3.96
			c-8.789-20.137-7.443-48.676-7.443-48.676S34.483,242.186,57.179,238.02z"/>
		<path fill="#F7941E" d="M57.372,237.969c1.896,0.735,4.026,0.525,5.914,1.27c4.042,1.78,1.487,2.097-0.97,2.849
			c-7.351,1.962-1.193,6.623,2.064,9.319c8.086,6.387-5.789,3.236-7.776,6.42c-1.479,2.232,0.484,5.228-3.459,5.421
			c-3.825,0.332-5.472-2.917-8.153,1.601c-0.834,1.465-2.337,6.382-3.484,4.163c-0.524-1.018-1.227-2.823-1.36-3.208l0.459-10.91
			c0,0,5.538-5.083,5.998-5.463C47.055,249.053,57.372,237.969,57.372,237.969z"/>
	</g>
	<path fill="#E9C09B" d="M179.337,275.104c0,0-23.125,28.797,11.096,47.646l-0.128-13.667c0,0-18.716-6.892,1.816-33.178"/>
	<path fill="#00AEEF" d="M191.384,255.374c0,0-16.709,20.676-19.446,29.88l12.845,7.521c0,0,2.22-6.307,6.983-10.446
		L191.384,255.374z"/>
	<polygon fill="#231F20" points="193.692,316.15 233.815,314.265 232.386,482.588 228.951,482.273 227.773,335.097 198.858,332.479 
		197.998,482.273 193.697,482.273 	"/>
	<path fill="#231F20" d="M232.482,482.532c0,0,2.962,4.703,10.124,4.703l0.199,1.469c0,0-9.173,0.73-11.941-3.661l0.187,3.348
		l-3.049-0.311l0.948-6.073L232.482,482.532z"/>
	<path fill="#231F20" d="M194.304,482.455c0,0-2.973,4.709-10.135,4.709l-0.188,1.465c0,0,9.167,0.73,11.937-3.667l-0.189,3.354
		l3.059-0.317l-0.962-6.062L194.304,482.455z"/>
	<polygon fill="#00AEEF" points="191.008,328.663 189.384,233.824 239.591,253.608 234.88,328.645 	"/>
	<path fill="#F7941E" d="M9.803,472.085c0,1.497,19.576,2.713,43.716,2.713c24.146,0,43.715-1.216,43.715-2.713
		c0-1.495-19.57-2.71-43.715-2.71C29.378,469.375,9.803,470.59,9.803,472.085z"/>
	<path fill="#F7941E" d="M26.066,464.292c0,0.933,6.677,1.691,14.909,1.691c8.242,0,14.915-0.759,14.915-1.691
		c0-0.938-6.673-1.696-14.915-1.696C32.743,462.596,26.066,463.354,26.066,464.292z"/>
	<path fill="#F7941E" d="M60.637,465.646c0,0.562,3.64,1.021,8.129,1.021s8.134-0.458,8.134-1.021c0-0.56-3.645-1.018-8.134-1.018
		S60.637,465.086,60.637,465.646z"/>
</g>
<path fill="#E9BF9A" d="M344.147,257.553c-0.062-0.06,10.558-19.772,11.479-22.206c3.333-8.806,5.644-19.115,1.306-27.949
	c-4.702-9.57-15.565-15.154-4.502-25.602c15.256-14.41,0-19.762,0-19.762l-2.602-12.695c-3.637-44.92-43.124-80.294-91.301-80.294
	c-50.576,0-91.575,38.983-91.575,87.072c0,24.676,10.798,46.953,28.144,62.795c-3.087,4.751-5.085,9.723-5.713,14.912
	c-6.54,53.934,78.914,111.835,138.2,87.543C386.864,297.077,344.152,257.556,344.147,257.553z"/>
<path fill="#414042" d="M376.561,307.922c5.074,26.628-17.302,50.607-46.561,58.182c-7.825,2.024-16.479,3.418-24.656,3.829
	c-23.111,1.166-50.165-0.532-68.78-13.401c-22.543-15.586-28.332-39.929-34.669-62.574c-18.188-64.987-25.478-81.824,15.707-78.517
	c0.168,14.882-20.164,65.277,13.777,65.818c28.085,0.446-66.595-114.839,106.95-52.409c0,0,9.722,25.581,9.722,25.583
	C348.05,254.432,369.014,268.309,376.561,307.922z"/>
<path fill="#414042" d="M197.381,215.617h20.109c0,0,0.152-19.914,22.624-51.088c0,0-59.356-53.051-11.397-73.149
	c47.956-20.098,94.038,31.74,94.038,31.74l10.631-17.166c0,0-140.58-104.464-174.334,52.531"/>
<path fill="#CD9D78" d="M314.549,211.878c0,0,15.817,22.683,33.844-3.165C348.393,208.713,334.09,220.196,314.549,211.878z"/>
<g>
	<path fill="#E9BF9A" d="M193.502,170.353c-1.343-1.768-2.804-3.404-4.336-4.776c-5.269-4.718-11.536-9.061-18.53-10.632
		c-8.208-1.845-16.216-0.506-23.65,3.418c-41.814,22.066,18.485,44.851,18.485,44.851s19.068,7.504,7.512,24.292
		c-11.561,16.778-13.097,23.177-5.975,26.065c7.135,2.845,22.339-1.741,27.211-11.806c8.912-18.404,13.418-43.437,4.479-62.753
		C197.371,176.14,195.578,173.089,193.502,170.353z"/>
	<g>
		<path fill="#CD9D78" d="M189.203,201.536c0,0-18.58-59.258-28.341-14.458C160.862,187.077,172.259,162.604,189.203,201.536z"/>
		<path fill="#CD9D78" d="M189.384,201.71c0,0-15.638-29.933-15.023,7.137C174.36,208.847,176.864,185.261,189.384,201.71z"/>
	</g>
</g>
<path d="M246.54,232.683c0,0,10.008-10.34,21.217,2.94C267.757,235.623,260.004,226.835,246.54,232.683z"/>
<path d="M256.228,232.61c0,0-28.744,15.715,0.971,31.743c20.071,10.828,56.602,2.653,56.602,2.653S262.088,266.967,256.228,232.61z"
	/>
<path d="M303.523,266.547c-13.314-1.313-24.081-4.607-32.22-9.875c-16.538-10.693-15.835-25.478-15.815-26.112l2.13,0.056
	c-0.012,0.155-0.678,14.747,15.147,24.977c13.549,8.754,34.896,11.834,63.417,9.183l0.275,1.487
	C324.172,267.408,313.182,267.503,303.523,266.547z"/>
<path fill="#F4F5F5" d="M313.8,267.007c0,0-45.876-0.06-56.096-28.785c-3.916,1.849-17.089,9.067-0.271,15.84
	c0,0-6.946,2.235-6.271,6.45c1.68,1.277,3.652,2.551,6.037,3.841C277.27,275.182,313.8,267.007,313.8,267.007z"/>
<path d="M269.736,285.094c0,0,19.432-12.635,63.306-6.203C333.042,278.891,286.062,279.716,269.736,285.094z"/>
<path fill="#414042" d="M329.923,231.264c0,0,28.531-12.94,28.573-5.009c0.038,7.932-15.267,32.78-15.267,32.78L329.923,231.264z"/>
<circle cx="181.863" cy="143.759" r="3.303"/>
<circle cx="203.561" cy="143.759" r="3.303"/>
<circle cx="204.871" cy="163.748" r="3.303"/>
<circle cx="228.521" cy="167.051" r="3.304"/>
<circle cx="194.68" cy="125.29" r="1.993"/>
<circle cx="174.343" cy="133.618" r="1.993"/>
<circle cx="187.371" cy="152.002" r="1.994"/>
<circle cx="223.798" cy="156.116" r="1.994"/>
<circle cx="211.368" cy="232.608" r="1.993"/>
<circle cx="206.864" cy="222.4" r="1.993"/>
<circle cx="221.49" cy="187.925" r="1.992"/>
<circle cx="200.729" cy="238.455" r="1.155"/>
<circle cx="211.368" cy="212.309" r="1.155"/>
<circle cx="222.643" cy="180.426" r="1.155"/>
<circle cx="209.375" cy="194.838" r="1.155"/>
<circle cx="194.679" cy="162.458" r="1.155"/>
<circle cx="214.516" cy="150.009" r="1.154"/>
<circle cx="215.67" cy="164.529" r="1.154"/>
<circle cx="212.523" cy="174.906" r="1.155"/>
<circle cx="204.871" cy="174.906" r="1.155"/>
<circle cx="206.025" cy="131.625" r="1.155"/>
<circle cx="181.863" cy="119.003" r="1.154"/>
<circle cx="216.825" cy="90.647" r="1.155"/>
<circle cx="192.686" cy="133.618" r="1.154"/>
<circle cx="214.516" cy="199.57" r="1.154"/>
<circle cx="170.267" cy="147.062" r="1.155"/>
<circle cx="203.561" cy="99.018" r="3.303"/>
<circle cx="191.532" cy="113.289" r="3.304"/>
<path d="M321.199,306.169c0,0,74.262,0.215,60.213,63.595C381.412,369.764,389.065,315.625,321.199,306.169z"/>
<path d="M317.015,311.924c0,0,67.552,30.853,28.591,82.779C345.605,394.703,374.924,348.554,317.015,311.924z"/>
<path d="M314.319,318.187c0,0,27.932,50.954-20.801,65.295C293.519,383.481,333.498,368.255,314.319,318.187z"/>
<g>
	<path opacity="0.3" fill="#D09F78" d="M349.195,191.407c-0.127-1.547,0.149-3.153,0.612-4.632c1.067-3.406,1.98-4.673,4.284-7.347
		c0.367-0.427,1.173-1.074,1.932-1.645c-5.445-3.003-13.646-6.066-21.946-3.727c0,0-26.978,18.607,9.079,26.62
		c0,0,3.376-1.088,7.316-3.125C349.609,195.571,349.479,194.87,349.195,191.407z"/>
	<path fill="#D09F78" d="M330.78,193.844c-3.212-0.898-5.282-2.467-6.156-4.657c-1.424-3.566,0.846-7.434,0.943-7.596
		c5.127-8.734,35.39-11.218,36.677-11.319l0.058,0.712c-0.311,0.026-31.18,2.553-36.121,10.971
		c-0.022,0.038-2.188,3.736-0.893,6.971c0.788,1.973,2.701,3.396,5.685,4.231L330.78,193.844z"/>
	<path fill="#D09F78" d="M340.85,203.431c-1.107-0.254-2.116-0.669-3.028-1.24c-5.525-3.472-5.308-11.425-5.294-11.764l0.712,0.024
		c-0.001,0.08-0.211,7.886,4.964,11.136c4.19,2.627,10.685,1.656,19.312-2.887l0.331,0.632
		C350.806,203.042,345.108,204.411,340.85,203.431z"/>
	<path fill="#D09F78" d="M332.124,187.679c0.018-0.333,0.522-8.198,6.313-11.234c4.557-2.38,11.007-1.049,19.175,3.96l-0.374,0.608
		c-7.941-4.872-14.154-6.194-18.468-3.935c-5.437,2.848-5.929,10.563-5.933,10.642L332.124,187.679z"/>
	<g>
		<path fill="#FFFFFF" d="M353.008,185.205c-0.997-5.451-6.392-8.916-12.094-7.723c-5.692,1.187-9.493,6.562-8.509,12.018
			c0.987,5.462,6.397,8.933,12.095,7.74C350.172,196.057,353.993,190.671,353.008,185.205z"/>
		<path fill="#D09F78" d="M339.812,197.552L339.812,197.552c-4.003-0.92-7.048-4.056-7.759-7.992
			c-1.017-5.632,2.928-11.208,8.789-12.429c1.606-0.336,3.21-0.325,4.767,0.033c3.991,0.92,7.032,4.049,7.75,7.975
			c1.017,5.644-2.923,11.227-8.785,12.447C342.969,197.922,341.366,197.912,339.812,197.552z M345.448,177.861
			c-1.455-0.335-2.956-0.345-4.463-0.03c-5.485,1.144-9.179,6.348-8.23,11.604c0.66,3.654,3.491,6.567,7.216,7.423
			c1.453,0.335,2.953,0.346,4.456,0.03c5.485-1.143,9.178-6.356,8.228-11.621C351.99,181.624,349.162,178.715,345.448,177.861z"/>
	</g>
	<path fill="#A97D51" d="M332.482,188.021c-0.357-3.114,1.968-6.004,5.198-6.479c3.235-0.474,6.137,1.656,6.493,4.768
		c0.347,3.108-1.979,6.011-5.21,6.486C335.734,193.265,332.83,191.126,332.482,188.021z"/>
	<path fill="#231F20" d="M332.699,187.376c-0.145-1.249,0.791-2.405,2.081-2.603c1.297-0.186,2.464,0.668,2.607,1.913
		c0.137,1.247-0.793,2.411-2.092,2.6C334.004,189.477,332.839,188.62,332.699,187.376z"/>
	<path fill="#FFFFFF" d="M336.234,185.67c-0.077-0.637,0.398-1.223,1.051-1.317c0.665-0.095,1.248,0.334,1.322,0.97
		c0.069,0.634-0.402,1.224-1.057,1.317C336.889,186.735,336.306,186.299,336.234,185.67z"/>
</g>
<g>
	<path opacity="0.3" fill="#D09F78" d="M269.356,174.737c0,0,22.845-16.117,42.466-8.94c0,0,34.397,29.319-18.965,37.454
		C292.857,203.25,263.645,191.235,269.356,174.737z"/>
	<path fill="#D09F78" d="M312.134,194.585l-0.206-1.011c4.617-0.954,7.733-2.926,9.269-5.856c2.343-4.486,0.172-9.789,0.149-9.84
		c-5.161-12.556-48.701-19.094-49.146-19.158l0.151-1.022c1.818,0.266,44.562,6.692,49.941,19.779
		c0.096,0.231,2.382,5.789-0.186,10.712C320.424,191.414,317.069,193.567,312.134,194.585z"/>
	<path fill="#D09F78" d="M287.506,207.009c-4.566-1.058-9.684-3.419-15.32-7.082l0.557-0.868c11.063,7.187,19.988,9.263,26.54,6.177
		c8.546-4.033,10.046-15.692,10.062-15.811l1.018,0.125c-0.062,0.503-1.588,12.346-10.646,16.621
		C296.238,207.81,292.155,208.086,287.506,207.009z"/>
	<path fill="#D09F78" d="M310.527,185.53c0.012-0.108,1.006-10.933-5.762-15.632c-5.618-3.896-14.905-2.647-27.593,3.738
		l-0.459-0.924c13.053-6.567,22.692-7.792,28.637-3.663c7.268,5.049,6.244,16.116,6.199,16.586L310.527,185.53z"/>
	<g>
		<path fill="#FFFFFF" d="M282.252,180.055c2.646-7.747,11.14-12.227,19.029-9.973c7.871,2.241,12.103,10.338,9.464,18.091
			c-2.636,7.771-11.15,12.256-19.033,10.002C283.866,195.941,279.617,187.831,282.252,180.055z"/>
		<path fill="#D09F78" d="M292.34,198.869c-0.257-0.058-0.512-0.125-0.769-0.196c-3.938-1.121-7.128-3.699-8.981-7.253
			c-1.849-3.549-2.141-7.645-0.822-11.533c2.643-7.73,10.938-12.342,18.886-10.5c0.256,0.059,0.512,0.125,0.769,0.198
			c3.953,1.126,7.147,3.705,8.998,7.26c1.84,3.536,2.129,7.619,0.81,11.496C308.601,196.089,300.304,200.714,292.34,198.869z
			 M300.422,170.391c-7.441-1.724-15.213,2.592-17.684,9.829c-1.228,3.619-0.958,7.424,0.761,10.716
			c1.721,3.304,4.687,5.701,8.354,6.742c7.651,2.208,15.868-2.181,18.41-9.672c1.226-3.606,0.958-7.4-0.75-10.683
			c-1.718-3.303-4.691-5.697-8.371-6.745C300.902,170.508,300.663,170.447,300.422,170.391z"/>
	</g>
	<path fill="#A97D51" d="M301.675,185.906c1.209-4.444-1.464-8.824-5.979-9.812c-4.521-0.989-9.146,1.802-10.356,6.245
		c-1.19,4.444,1.479,8.837,5.992,9.829C295.848,193.146,300.479,190.344,301.675,185.906z"/>
	<path fill="#231F20" d="M296.706,185.012c0.544-2-0.662-3.954-2.675-4.407c-2.031-0.435-4.104,0.807-4.644,2.801
		c-0.537,1.998,0.658,3.962,2.685,4.403C294.1,188.253,296.166,186.996,296.706,185.012z"/>
	<path fill="#FFFFFF" d="M298.78,182.492c0.278-1.015-0.335-2.009-1.353-2.231c-1.031-0.227-2.077,0.411-2.355,1.419
		c-0.273,1.012,0.331,2.01,1.355,2.233C297.463,184.135,298.507,183.499,298.78,182.492z"/>
</g>
<path d="M244.414,177.595c0,0,32.862-59.877,81.486,0.218C325.9,177.812,282.532,147.109,244.414,177.595z"/>
<path d="M335.097,177.682c0,0,15.968-26.817,26.78-10.377C372.688,183.745,354.5,164.95,335.097,177.682z"/>
<radialGradient id="SVGID_1_" cx="848.5127" cy="4430.8047" r="29.2378" gradientTransform="matrix(7.4908 0 0 0.0932 -6100.9453 75.65)" gradientUnits="userSpaceOnUse">
	<stop  offset="0" style="stop-color:#010101"/>
	<stop  offset="1" style="stop-color:#FFFFFF;stop-opacity:0"/>
</radialGradient>
<path opacity="0.29" fill="url(#SVGID_1_)" d="M474.075,488.6c0-1.504-98.046-2.724-218.98-2.724
	c-120.953,0-218.985,1.22-218.985,2.724s98.032,2.727,218.985,2.727C376.029,491.326,474.075,490.104,474.075,488.6z"/>
<radialGradient id="SVGID_2_" cx="1976.8359" cy="4430.8047" r="29.2388" gradientTransform="matrix(4.7401 0 0 0.0932 -9128.7227 75.65)" gradientUnits="userSpaceOnUse">
	<stop  offset="0" style="stop-color:#010101"/>
	<stop  offset="1" style="stop-color:#FFFFFF;stop-opacity:0"/>
</radialGradient>
<path opacity="0.29" fill="url(#SVGID_2_)" d="M380.253,488.6c0-1.504-62.049-2.724-138.587-2.724
	c-76.525,0-138.573,1.22-138.573,2.724s62.048,2.727,138.573,2.727C318.204,491.326,380.253,490.104,380.253,488.6z"/>
<radialGradient id="SVGID_3_" cx="1976.8359" cy="4435.1719" r="29.2427" gradientTransform="matrix(4.7401 0 0 0.0932 -9128.7227 75.65)" gradientUnits="userSpaceOnUse">
	<stop  offset="0" style="stop-color:#010101"/>
	<stop  offset="1" style="stop-color:#FFFFFF;stop-opacity:0"/>
</radialGradient>
<path opacity="0.29" fill="url(#SVGID_3_)" d="M380.253,489.009c0-1.507-62.049-2.727-138.587-2.727
	c-76.525,0-138.573,1.22-138.573,2.727c0,1.505,62.048,2.726,138.573,2.726C318.204,491.734,380.253,490.514,380.253,489.009z"/>
<path d="M366.895,70.327h2.973c-6.872-13.743-21.475-21.788-21.475-21.788l7.631,3.046c-10.585-10.937-21.254-15.071-27.1-16.608
	c-0.516-0.303-1.029-0.591-1.544-0.882h5.304c-8.029-8.583-31.845-11.542-31.845-11.542l9.522,0.233
	c-17.028-8.498-36.192-3.954-36.192-3.954c6.438-3.393,19.998-3.166,19.998-3.166c-17.913-3.749-30.079,7.12-30.079,7.12h0.001
	c-0.001,0-0.002,0-0.002,0l0.001,0c0,0-18.145-1.596-28.471,3.567c0,0,11.673-1.807,17.196,0c0,0-14.099-0.774-29.847,8.004
	c0,0,9.293-3.615,16.264-2.84c0,0-16.78,3.615-29.172,18.072c0,0,9.32-6.125,15.502-6.547c0,0-17.536,7.749-25.302,23.328
	l3.303-0.993c0,0-14.787,14.482-19.764,31.618v0c-2.92,5.578-4.411,9.079-4.411,9.079c65.381-61.477,151.505,3.909,151.505,3.909
	c7.878,1.239,7.437,0,7.437,0c8.386-1.532,17.695-13.054,17.695-13.054c-3.223,6.612-5.922,10.255-5.922,10.255
	c9.911-4.686,15.008-17.69,15.008-17.69c0.239,2.612-1.488,9.642-1.488,9.642c7.183-9.608,6.246-20.688,6.246-20.688
	c2.499,1.562,3.435,6.247,3.435,6.247C374.238,77.511,366.895,70.327,366.895,70.327z"/>
<g>
</g>
<g>
</g>
<g>
</g>
<g>
</g>
<g>
</g>
<g>
</g>
<g>
</g>
<g>
</g>
<g>
</g>
<g>
</g>
<g>
</g>
</svg>
