<?xml version="1.0" encoding="utf-8"?>
<!-- Generator: Adobe Illustrator 16.0.0, SVG Export Plug-In . SVG Version: 6.00 Build 0)  -->
<!DOCTYPE svg PUBLIC "-//W3C//DTD SVG 1.1//EN" "http://www.w3.org/Graphics/SVG/1.1/DTD/svg11.dtd">
<svg version="1.1" id="Layer_1" xmlns="http://www.w3.org/2000/svg" xmlns:xlink="http://www.w3.org/1999/xlink" x="0px" y="0px"
	 width="480px" height="500px" viewBox="0 0 480 500" enable-background="new 0 0 480 500" xml:space="preserve">
<g>
	<path fill="#E9C09B" d="M335.538,289.346c0,0-43.021,26.19-95.442,7.284l2.281-6.781c0,0,42.427,14.9,90.72-6.9"/>
	<path fill="#50A283" d="M242.377,289.849c0,0,12.635,4.422,31.941,4.916c-0.432,2.832-0.471,5.731-0.095,8.608
		c-10.614-0.454-22.123-2.415-34.128-6.743L242.377,289.849z"/>
	<path fill="#E9C09B" d="M147.55,357.466c0,0,8.421-49.658,57.063-76.853l3.623,6.168c0,0-39.063,22.274-54.257,73.033"/>
	<path fill="#50A283" d="M208.236,286.781c0,0-11.621,6.644-24.649,20.898c-1.856-2.182-4.021-4.112-6.44-5.715
		c7.303-7.717,16.327-15.125,27.466-21.352L208.236,286.781z"/>
	<path fill="#8E6D3B" d="M214.796,42.466c0,0-35.646-32.75-56.041,10.841c0,0,13.582-15.627,23.482-9.62
		c0,0-28.363,16.324-30.428,33.177c0,0,16.369-4.669,22.804-2.821c0,0-12.4,22.923-3.583,38.564l1.684-6.387
		c0,0-5.675,16.722,11.418,43.146l97.928-10.106c0,0,19.25-32.347,10.405-47.183c0,0,4.302,0.965,5.564,5.848
		c1.267,4.884,2.154-19.269-7.077-23.639c0,0,1.769-8.805,10.28-4.461c0,0-8.395-7.562-13.447-7.749c0,0,1.945-13.633,11.724-4.406
		c0,0-1.157-27.452-35.252-23.866c0,0,1.708-7.195,16.923-8.25c0,0-27.791-10.694-37.762,5.065c0,0-0.133-16.13,3.018-23.27
		c0,0-12.801,14.041-13.155,23.701c0,0-16.062-15.099-32.723-14.098C200.559,16.953,213.889,27.923,214.796,42.466z"/>
	<polygon fill="#414142" points="203.731,323.323 241.644,322.711 238.618,480.891 235.389,480.504 237.257,362.771 208.13,359.505 
		206.185,479.601 203.069,479.712 	"/>
	<polygon fill="#50A283" points="246.197,355.777 249.096,268.905 193.541,268.654 199.692,353.244 	"/>
	<path fill="#09080A" d="M238.716,480.853c0,0,2.651,4.528,9.409,4.735l0.137,1.395c0,0-8.671,0.411-11.147-3.812l0.074,3.161
		l-2.869-0.373l1.078-5.703L238.716,480.853z"/>
	<path fill="#09080A" d="M202.698,479.667c0,0-2.942,4.341-9.699,4.133l-0.227,1.384c0,0,8.639,0.954,11.377-3.112l-0.275,3.163
		l2.894-0.221l-0.727-5.751L202.698,479.667z"/>
	<polygon fill="#FFFFFF" points="246.343,352.726 199.673,349.21 199.692,353.244 246.197,355.777 	"/>
	<path fill="#E9C09B" d="M280.532,181.106c0,0,23.349-37.685,4.91-63.616c0,0-4.384-55.118-88.679-36.953
		c0,0-60.466-7.293-50.201,89.175l16.025,27.448c-21.776,56.048,12.556,78.525,42.559,88.195
		c4.511,6.537,14.161,14.502,34.168,13.214c0.7-1.502,1.562-2.949,2.598-4.312c5.188-6.834,10.649-13.46,15.523-20.526
		c3.736-5.417,9.626-8.534,15.869-9.37c10.927-15.13,20.654-33.688,22.75-49.238C299.196,191.783,280.532,181.106,280.532,181.106z"
		/>
	<path fill="#D09F78" d="M154.984,230.399c0,0,5.588-3.78,6.818-8.626c0,0-0.979,8.798-5.757,12.889L154.984,230.399z"/>
	<path fill="#D09F78" d="M271.293,193.021c0,0-15.549,29.766-37.85,2.726C233.443,195.747,252.391,208.792,271.293,193.021z"/>
	<g>
		<path fill="#CA8C84" d="M215.093,219.198c0,0-14.935,28.011-1.643,40.054c0,0-28.148,1.183-30.911-1.071
			c0,0-3.941-2.415-2.344-12.647c0,0,7.55-32.83,13.509-41.95C193.705,203.583,209.204,218.588,215.093,219.198z"/>
		<path fill="#6D312B" d="M198.901,259.183c0,0-4.147-29.945-15.99-24.784c0,0-7.231,24.518,2.406,24.734L198.901,259.183z"/>
		<path fill="#FFFFFF" d="M233.468,259.169l-1.358-11.805l-51.886,7.085c0,0,0.292,4.925,6.481,5.324L233.468,259.169z"/>
		<path fill="#A38060" d="M206.093,198.486c0,0-17.264-7.425-23.743,10.961C182.35,209.447,189.1,197.008,206.093,198.486z"/>
		<path fill="#FFFFFF" d="M268.146,228.367l0.987,11.491c0,0-51.929,14.397-80.046-25.831l4.619-10.444
			C193.705,203.583,229.49,241.798,268.146,228.367z"/>
		<path fill="none" stroke="#A38060" stroke-width="3.319" d="M230.877,266.951c11.465,2.992,5.91-7.936,5.91-7.936
			s-35.562,1.1-51.47,0.117c-15.919-1,8.388-55.549,8.388-55.549c40.558,35.908,68.916,30.484,86.19,18.434"/>
		<polygon fill="#CA8C84" points="185.131,232.751 184.634,240.502 182.657,240.655 182.621,242.48 189.471,242.487 
			189.282,239.834 186.867,239.549 187.43,234.261 		"/>
	</g>
	<path opacity="0.23" fill="#8E6D3B" d="M280.916,103.357c0,0-34.261,32.906-70.891-9.693c0,0-11.795,21.32-30.89,23.093
		l29.442-28.328l13.516,10.149l41.385,2.376l12.614-5.734L280.916,103.357z"/>
	<path fill="#8E6D3B" d="M292.221,146.998c0,0,0.08-10.875-6.05-26.109c0,0-4.616-20.938-9.235-23.852
		c0,0-20.916,12.685-37.298,10.981c-15.589-1.62-29.612-14.355-29.612-14.355s-26.846,34.945-56.883,22.871l12.264,31.186
		l-6.734,8.663l10.271,43.864l-13.867,1.924c0,0-57.323-79.93,22.422-129.871C177.499,72.301,302.397,54.303,292.221,146.998z"/>
	<path fill="#E9C09B" d="M156.863,170.292c0,0-9.34-21.965-28.178-8.651c-23.489,16.613,13.498,33.474,13.498,33.474
		s11.696,5.507,5.842,18.148c-5.859,12.644-6.391,17.441-2.016,19.556c4.37,2.099,14.156-1.188,15.373-8.999
		C166.642,190.095,156.863,170.292,156.863,170.292z"/>
	<g>
		<path fill="#D09F78" d="M156.101,193.721c0,0-14.395-44.27-17.561-10.666C138.54,183.056,143.847,164.659,156.101,193.721z"/>
		<path fill="#D09F78" d="M156.223,193.852c0,0-10.957-22.327-8.455,5.436C147.768,199.288,147.879,181.604,156.223,193.852z"/>
	</g>
	<path fill="#A9834F" d="M224.965,96.209c0,0,21.066-21.422-3.629-59.137C221.336,37.072,238.37,59.887,224.965,96.209z"/>
	<path fill="#A9834F" d="M241.916,100.262c0,0,31.23-14.336,5.613-45.485C247.529,54.777,265.759,73.822,241.916,100.262z"/>
	<path fill="#A9834F" d="M258.015,97.729c0,0,27.322-4.632,13.888-34.248C271.902,63.48,282.116,82.124,258.015,97.729z"/>
	<path fill="#A9834F" d="M194.516,90.741c0,0-24.607-7.56-38.411,16.994C156.104,107.735,171.219,91.058,194.516,90.741z"/>
	<path fill="#A9834F" d="M158.131,138.369c0,0-5.225,13.632-22.093,4.762C136.038,143.131,150.344,145.906,158.131,138.369z"/>
	<g>
		
			<radialGradient id="SVGID_1_" cx="1317.5449" cy="4360.4062" r="83.7241" gradientTransform="matrix(-1.9291 0 0 0.0671 2764.3281 193.2913)" gradientUnits="userSpaceOnUse">
			<stop  offset="0" style="stop-color:#010101"/>
			<stop  offset="1" style="stop-color:#FFFFFF;stop-opacity:0"/>
		</radialGradient>
		<path opacity="0.29" fill="url(#SVGID_1_)" d="M61.16,485.874c0-3.104,72.308-5.618,161.494-5.618
			c89.196,0,161.494,2.514,161.494,5.618c0,3.102-72.298,5.619-161.494,5.619C133.468,491.493,61.16,488.976,61.16,485.874z"/>
		
			<radialGradient id="SVGID_2_" cx="2712.8799" cy="4372.9414" r="83.7534" gradientTransform="matrix(-1.2207 0 0 0.0671 3544.165 193.2913)" gradientUnits="userSpaceOnUse">
			<stop  offset="0" style="stop-color:#010101"/>
			<stop  offset="1" style="stop-color:#FFFFFF;stop-opacity:0"/>
		</radialGradient>
		<path opacity="0.29" fill="url(#SVGID_2_)" d="M130.353,486.715c0-3.104,45.757-5.621,102.202-5.621
			c56.437,0,102.197,2.518,102.197,5.621c0,3.105-45.761,5.623-102.197,5.623C176.109,492.338,130.353,489.82,130.353,486.715z"/>
	</g>
	<g>
		<path fill="#E9C09B" d="M161.822,354.669c-4.975-4.191-10.692-5.926-12.706-3.854c-2.013,2.072-7,3.274-11.083,2.674
			c-4.083-0.602-7.85,1.004-8.371,3.568s2.646,4.723,7.039,4.797c4.393,0.073,4.621,3.924,0.507,8.557
			c-4.114,4.634-5.868,9.983-3.899,11.891c1.969,1.906,6.8-0.453,10.735-5.242s6.29-4.653,5.233,0.302s-0.229,9.601,1.837,10.321
			c2.067,0.722,5.02-3.858,6.561-10.178l0.317-1.298c1.541-6.319,4.432-9.655,6.423-7.413c1.991,2.241,5.326,2.596,7.41,0.786
			c2.084-1.81-0.281-6.719-5.256-10.91L161.822,354.669z"/>
	</g>
	<g>
		<path fill="#E9C09B" d="M327.561,285.049c-0.815,6.453,0.836,12.195,3.668,12.76c2.833,0.564,6.553,4.099,8.266,7.854
			c1.714,3.754,5.108,6.044,7.545,5.088c2.436-0.956,2.526-4.788,0.202-8.516s0.784-6.012,6.909-5.075s11.569-0.498,12.1-3.187
			c0.531-2.688-4.074-5.463-10.232-6.164s-7.324-2.753-2.59-4.559c4.733-1.805,8.184-5.022,7.666-7.15
			c-0.518-2.127-5.967-2.116-12.109,0.023l-1.262,0.438c-6.143,2.14-10.514,1.526-9.714-1.364s-0.714-5.882-3.366-6.648
			c-2.651-0.767-5.487,3.887-6.303,10.34L327.561,285.049z"/>
	</g>
	<path fill="#8E6D3B" d="M183.445,274.599c0,0,16.235-17.44,28.455-3.855c12.219,13.586,36.774,17.651,47.004-6.616
		c10.229-24.269,22.421-2.85,15.014,5.828C266.51,278.632,233.477,347.582,183.445,274.599z"/>
	<g>
		<path fill="#E6E6E5" stroke="#818181" stroke-width="4.3182" d="M312.223,268.332c-1.848,2.058-1.678,5.224,0.38,7.071
			l61.623,55.339c2.056,1.849,5.224,1.678,7.07-0.38l32.259-35.92c1.848-2.059,1.679-5.223-0.381-7.074l-61.621-55.336
			c-2.057-1.848-5.224-1.679-7.072,0.378L312.223,268.332z"/>
		<path fill="#818181" d="M325.861,266.069c-1.849,2.06-1.678,5.223,0.382,7.071l48.77,43.799c2.057,1.848,5.223,1.678,7.071-0.379
			l4.85-5.401c1.847-2.056,1.676-5.224-0.381-7.07l-48.771-43.799c-2.058-1.849-5.222-1.678-7.07,0.38L325.861,266.069z"/>
		<path fill="#818181" d="M325.861,266.069c-1.849,2.06-1.678,5.223,0.382,7.071l48.77,43.799c2.057,1.848,5.223,1.678,7.071-0.379
			l4.85-5.401c1.847-2.056,1.676-5.224-0.381-7.07l-48.771-43.799c-2.058-1.849-5.222-1.678-7.07,0.38L325.861,266.069z"/>
		<path fill="#676767" d="M330.838,271.838c-1.491,1.659-1.354,4.216,0.307,5.707l38.965,34.99c1.659,1.493,4.216,1.354,5.707-0.306
			l3.975-4.428c1.491-1.66,1.355-4.216-0.305-5.707l-38.966-34.99c-1.66-1.492-4.216-1.355-5.706,0.305L330.838,271.838z"/>
		<circle fill="#ED2224" cx="346.037" cy="247.553" r="4.174"/>
		
			<rect x="310.106" y="229.347" transform="matrix(-0.744 -0.6682 0.6682 -0.744 395.7144 639.4586)" fill="#E6E6E5" stroke="#818181" stroke-width="4.3182" width="20.511" height="29.147"/>
		<polygon fill="#E6E6E5" stroke="#818181" stroke-width="4.3182" stroke-linecap="round" stroke-linejoin="round" points="
			288.205,249.839 303.103,247.79 322.34,226.367 322.192,211.991 		"/>
		
			<rect x="322.535" y="238.932" transform="matrix(-0.7439 -0.6683 0.6683 -0.7439 398.8791 648.0073)" fill="#818181" width="2.16" height="17.271"/>
		
			<rect x="318.519" y="235.325" transform="matrix(-0.7437 -0.6685 0.6685 -0.7437 394.2195 639.0461)" fill="#818181" width="2.16" height="17.273"/>
		
			<rect x="314.365" y="232.078" transform="matrix(-0.7437 -0.6685 0.6685 -0.7437 390.0688 630.9728)" fill="#818181" width="3.239" height="17.274"/>
		<g>
			
				<rect x="346.075" y="265.564" transform="matrix(0.7704 0.6376 -0.6376 0.7704 261.0845 -176.0703)" fill="#919396" width="57.846" height="17.781"/>
			<g>
				<path fill="#FFFFFF" d="M363.878,260.856l-4.423,5.343l-0.988-0.818l1.909-2.306l-2.274-1.882l-1.908,2.306l-0.979-0.812
					l4.421-5.343l0.98,0.812l-1.809,2.186l2.274,1.882l1.809-2.186L363.878,260.856z"/>
				<path fill="#FFFFFF" d="M368.624,264.784l-0.704,0.853l-1.56-1.291l-3.717,4.491l-0.972-0.804l3.716-4.492l-1.518-1.257
					l0.705-0.852L368.624,264.784z"/>
				<path fill="#FFFFFF" d="M373.122,268.507l1.068,0.884l-4.132,5.583l-0.933-0.771l2.845-3.846
					c-0.008-0.007-0.017-0.014-0.017-0.014l-3.791,2.062l-0.738-0.611l1.321-4.051c0,0-0.008-0.007-0.017-0.014l-3.219,3.481
					l-0.933-0.771l4.728-5.09l1.093,0.904l-1.559,4.599c0,0,0.008,0.007,0.016,0.014L373.122,268.507z"/>
				<path fill="#FFFFFF" d="M375.531,270.501l0.979,0.811l-3.717,4.491l2.266,1.875l-0.704,0.852l-3.246-2.687L375.531,270.501z"/>
				<path fill="#FFFFFF" d="M374.14,279.326l7.958-4.609l0.589,0.988l-7.979,4.604L374.14,279.326z"/>
				<path fill="#FFFFFF" d="M382.938,283.48l-0.025,1.062c-0.943,0.06-1.723-0.192-2.422-0.771c-1.454-1.203-1.627-2.876-0.11-4.708
					c1.735-2.097,3.6-1.731,4.741-0.787c0.626,0.519,1.118,1.346,1.007,2.513l-1.118-0.073c0.015-0.705-0.141-1.253-0.622-1.652
					c-0.828-0.685-1.946-0.446-2.95,0.767c-1.018,1.23-1.199,2.365-0.219,3.177C381.67,283.378,382.237,283.51,382.938,283.48z"/>
				<path fill="#FFFFFF" d="M384.177,284.6c0.145,0.445,0.546,1.236,1.1,1.696c0.426,0.353,0.973,0.575,1.473-0.028
					c0.418-0.506,0.086-1.037-0.35-1.655c-0.616-0.876-1.097-1.801-0.245-2.829c0.812-0.98,2.059-0.949,3.111-0.078
					c0.747,0.618,1.15,1.506,1.215,2.277l-1.061,0.219c-0.132-0.691-0.404-1.295-0.846-1.661c-0.361-0.299-0.914-0.499-1.326-0.001
					s-0.072,1.036,0.377,1.721c0.538,0.838,1.051,1.789,0.192,2.825c-0.878,1.062-2.104,1.007-3.262,0.049
					c-0.787-0.651-1.299-1.603-1.406-2.03L384.177,284.6z"/>
				<path fill="#FFFFFF" d="M388.409,288.103c0.146,0.445,0.546,1.237,1.101,1.696c0.426,0.352,0.972,0.575,1.472-0.027
					c0.419-0.506,0.086-1.038-0.35-1.656c-0.616-0.876-1.095-1.801-0.244-2.829c0.812-0.979,2.059-0.949,3.11-0.078
					c0.748,0.618,1.15,1.506,1.215,2.277l-1.061,0.219c-0.132-0.691-0.404-1.295-0.846-1.661c-0.361-0.299-0.914-0.498-1.325,0
					c-0.412,0.498-0.073,1.036,0.377,1.72c0.538,0.838,1.05,1.79,0.191,2.826c-0.877,1.061-2.104,1.006-3.262,0.048
					c-0.787-0.651-1.299-1.603-1.405-2.03L388.409,288.103z"/>
			</g>
		</g>
		<rect x="355.315" y="248.971" opacity="0.5" fill="#FFFFFF" width="7.67" height="3.606"/>
		<rect x="387.21" y="295.665" opacity="0.5" fill="#FFFFFF" width="9.679" height="4.55"/>
	</g>
	<g>
		
			<ellipse transform="matrix(0.9997 0.0248 -0.0248 0.9997 4.3358 -5.1965)" opacity="0.39" fill="#D09F78" cx="211.684" cy="172.217" rx="22.496" ry="15.162"/>
		<path fill="#FFFFFF" d="M234.026,172.16c-0.131,6.375-6.094,11.715-13.331,11.902c-7.22,0.187-12.963-4.836-12.827-11.226
			c0.123-6.386,6.09-11.721,13.307-11.904C228.406,160.743,234.146,165.768,234.026,172.16z"/>
		<path fill="#231F20" d="M232.426,175.05c-0.001,1.413-0.806,2.583-1.792,2.612c-0.985,0.031-1.775-1.096-1.768-2.51
			c0.007-1.414,0.808-2.584,1.793-2.612C231.648,172.512,232.436,173.633,232.426,175.05z"/>
	</g>
	<g>
		<path opacity="0.39" fill="#D09F78" d="M256.576,172.31c0.116,6.299,5.862,11.217,12.834,10.985
			c6.974-0.231,12.531-5.525,12.414-11.824c-0.116-6.297-5.863-11.216-12.835-10.984
			C262.017,160.718,256.459,166.011,256.576,172.31z"/>
		<path fill="#FFFFFF" d="M256.658,171.848c0.073,4.797,3.42,8.813,7.483,8.954c4.053,0.141,7.276-3.638,7.2-8.445
			c-0.069-4.804-3.418-8.819-7.47-8.956C259.813,163.259,256.591,167.039,256.658,171.848z"/>
	</g>
	<path fill="#231F20" d="M264,175.05c0,1.413-0.806,2.583-1.792,2.612c-0.985,0.031-1.774-1.096-1.767-2.51
		c0.006-1.414,0.808-2.584,1.792-2.612C263.223,172.512,264.011,173.633,264,175.05z"/>
	<path fill="#8E6D3B" d="M177.893,157.357c0,0,39.427-63.498,64.023-3.6l-6.112,6.721
		C235.804,160.479,223.099,113.568,177.893,157.357z"/>
	<path fill="#8E6D3B" d="M249.769,153.071v10.326c0,0,20.374-20.333,38.048,2.112C287.816,165.509,282.313,137.215,249.769,153.071z
		"/>
</g>
<g>
</g>
<g>
</g>
<g>
</g>
<g>
</g>
<g>
</g>
<g>
</g>
<g>
</g>
<g>
</g>
<g>
</g>
<g>
</g>
<g>
</g>
</svg>
