<?xml version="1.0" encoding="utf-8"?>
<!-- Generator: Adobe Illustrator 16.0.0, SVG Export Plug-In . SVG Version: 6.00 Build 0)  -->
<!DOCTYPE svg PUBLIC "-//W3C//DTD SVG 1.1//EN" "http://www.w3.org/Graphics/SVG/1.1/DTD/svg11.dtd">
<svg version="1.1" id="Layer_1" xmlns="http://www.w3.org/2000/svg" xmlns:xlink="http://www.w3.org/1999/xlink" x="0px" y="0px"
   width="480px" height="500px" viewBox="0 0 480 500" enable-background="new 0 0 480 500" xml:space="preserve">
<g>
  <g>
    <linearGradient id="SVGID_1_" gradientUnits="userSpaceOnUse" x1="243.5605" y1="360.8037" x2="243.5605" y2="243.5241">
      <stop  offset="0" style="stop-color:#F4EB99"/>
      <stop  offset="1" style="stop-color:#3C2517"/>
    </linearGradient>
    <path fill="url(#SVGID_1_)" d="M381.532,260.008c-6.972-3.874-14.777,4.885-6.501,7.986c-0.104-0.896-1.114-1.579-0.823-3.029
      c7.535-3.166,5.56,3.744,2.362,8.187c-5.702,6.876-9.526,5.939-15.488,2.749c-8.887-4.337-11.361-13.42-14.736-22.284
      l-5.606-21.439c5.764-9.572,11.084-19.45,13.236-31.125c6.94-37.646,25.189-86.582-9.446-129.426
      c-3.148-2.677-6.296-6.248-9.445-9.818l-166.508-3.59c-28.339,37.488-43.534,91.585-30.28,133.107
      c0.6,1.881,1.232,3.692,1.883,5.457l-3.835,15.385c-6.456,3.076-13.743,3.428-19.396-0.681
      c-8.476-5.868-3.978-25.788,5.209-17.914c-3.94-11.047-13.402-3.437-17.887,3.493c-7.364,11.886-2.716,24.942,6.161,33.565
      c13.831,13.049,30.578,11.947,45.183,1.465c2.166,5.716,4.009,11.859,5.243,18.941c2.559,10.444,1.875,21.525,1.597,32.519
      c-6.346,12.129-3.782,22.772,4.021,34.681c9.68,13.784,31.685,21.873,37.727,38.247c4.429,13.534-8.313,27.505-21.63,16.313
      c4.619,24.102,36.761-1.515,35.771-18.402c-0.272-4.795-2.072-8.8-4.639-12.405c29.108,5.245,63.587,2.93,80.45-5.263
      c19.366-9.31,23.193-30.678,25.576-49.365c10.01,8.333,22.391,13.629,32.637,13.166c12.988-0.322,24.942-5.451,31.711-19.024
      C386.951,274.374,388.499,263.875,381.532,260.008z"/>
  </g>
  <path fill="#3C2517" d="M365.011,129.278c0,63.528-52.782,113.69-111.653,113.69c-58.871,0-106.593-51.5-106.593-115.029
    c0-63.53,47.723-115.032,106.593-115.032C312.229,12.907,365.011,65.747,365.011,129.278z"/>
  <path fill="#FFFFFF" d="M297.38,296.777c-0.401-1.389-0.686-2.831-0.826-4.315c-0.064-0.703-0.112-1.399-0.15-2.09
    c-10.77,3.095-22.962,4.046-36.325,1.088l-1.801,8.133c6.239,1.379,12.232,1.995,17.979,1.995c7.488,0,14.541-1.055,21.116-2.834
    C297.378,298.095,297.378,297.436,297.38,296.777z"/>
  <path fill="#F0D0B5" d="M348.341,252.417c-0.262,0.385-20.224,29.349-53.045,38.244c0.723,2.756,0.857,5.684,0.397,8.499
    c36.97-9.194,59.273-41.669,59.559-42.099L348.341,252.417z"/>
  <path fill="#F0D0B5" d="M346.851,260.3c-1.941-2.238-2.004-5.589-0.147-7.45c1.857-1.854,2.993-5.774,2.525-8.703l-0.473-2.886
    c-0.481-2.934,1.036-5.739,3.37-6.244c2.332-0.503,4.312,1.51,4.402,4.469l0.117,3.783c0.092,2.964,1.964,3.749,4.15,1.753
    l7.213-6.586c2.192-2.003,5.428-2.192,7.2-0.423c1.771,1.778,1.365,4.796-0.893,6.71l-7.461,6.306
    c-2.267,1.908-1.752,2.944,1.146,2.278l5.873-1.334c2.886-0.659,5.817,0.336,6.496,2.204c0.687,1.869-1.109,4.011-3.979,4.753
    l-11.628,3.009c-2.866,0.747-3.517,2.822-1.446,4.608c2.076,1.789,2.444,4.824,0.814,6.759c-1.619,1.928-4.547,1.668-6.496-0.573
    L346.851,260.3z"/>
  <path fill="#FFFFFF" d="M185.615,291.033c0.421-1.383,0.727-2.821,0.89-4.304c0.075-0.703,0.132-1.396,0.181-2.087
    c10.723,3.256,22.897,4.389,36.307,1.632l1.679,8.159c-6.259,1.286-12.261,1.812-18.009,1.725
    c-7.488-0.111-14.524-1.273-21.071-3.149C185.599,292.349,185.608,291.69,185.615,291.033z"/>
  <path fill="#F0D0B5" d="M135.325,245.913c0.254,0.389,19.781,29.646,52.464,39.037c-0.765,2.741-0.944,5.669-0.525,8.491
    c-36.827-9.748-58.642-42.555-58.921-42.989L135.325,245.913z"/>
  <path fill="#F0D0B5" d="M141.783,259.468c-1.065,2.765-3.99,4.396-6.507,3.633c-2.507-0.77-6.503,0.072-8.866,1.863l-2.326,1.775
    c-2.362,1.802-5.551,1.781-7.094-0.039c-1.541-1.823-0.696-4.516,1.873-5.989l3.285-1.881c2.571-1.475,2.385-3.498-0.405-4.488
    l-9.205-3.268c-2.8-0.992-4.487-3.759-3.759-6.155c0.737-2.401,3.591-3.461,6.342-2.368l9.073,3.618
    c2.751,1.104,3.421,0.166,1.473-2.078l-3.938-4.557c-1.94-2.239-2.439-5.293-1.111-6.771c1.329-1.487,4.06-0.906,6.067,1.276
    l8.123,8.845c2.008,2.182,4.146,1.783,4.746-0.887c0.604-2.675,3.11-4.426,5.581-3.897c2.467,0.523,3.613,3.229,2.552,6.001
    L141.783,259.468z"/>
  <polygon fill="#A3A5A8" points="254.562,342.569 210.454,340.494 212.043,485.326 215.813,484.988 214.863,363.257 
    248.873,360.511 249.825,484.988 253.456,485.24  "/>
  <path opacity="0.15" fill="#211F1F" d="M239.417,489.394c-87.576,0-158.571,1.03-158.571,2.301c0,1.276,70.995,2.306,158.571,2.306
    c87.583,0,158.592-1.029,158.592-2.306C398.009,490.424,326.999,489.394,239.417,489.394z"/>
  <path fill="#09080A" d="M253.295,485.204c0,0,3.102,4.92,10.578,4.92l0.208,1.528c0,0-9.592,0.754-12.479-3.832l0.199,3.5
    l-3.202-0.331l1.007-6.336L253.295,485.204z"/>
  <path fill="#09080A" d="M212.713,485.204c0,0-3.106,4.92-10.58,4.92l-0.208,1.528c0,0,9.589,0.754,12.468-3.832l-0.187,3.5
    l3.194-0.331l-1.003-6.336L212.713,485.204z"/>
  <polygon fill="#09080A" points="216.505,485.326 217.4,424.356 211.508,424.356 211.887,486.213   "/>
  <polygon fill="#131816" points="253.295,485.204 255.404,425.543 248.6,425.543 249.362,486.213   "/>
  <polygon fill="#3C2517" points="203.429,282.94 207.382,348.617 256.34,350.442 267.21,282.94   "/>
  <polygon fill="#FFFFFF" points="204.647,303.181 263.687,304.825 261.2,320.255 205.674,320.255   "/>
  <polygon fill="#FFFFFF" points="206.265,330.051 259.43,331.26 258.408,343.186 207.054,343.186   "/>
  <g>
    <path fill="#F29120" d="M232.983,332.825c-22.828,0-26.879-46.045-27.04-48.006l-0.206-2.502l58.681,3.737l-0.438,2.4
      C263.648,290.267,255.622,332.825,232.983,332.825z M210.517,286.969c1.556,13.579,7.794,41.518,22.466,41.518
      c9.715,0,16.426-10.867,20.348-19.982c3.158-7.344,5.046-14.748,5.877-18.433L210.517,286.969z"/>
    <circle fill="#F29120" cx="231.151" cy="330.656" r="6.51"/>
    <circle fill="#F29120" cx="220.891" cy="323.186" r="4.324"/>
    <circle fill="#F29120" cx="214.454" cy="313.419" r="4.324"/>
    <circle fill="#F29120" cx="211.508" cy="303.181" r="4.324"/>
    <circle fill="#F29120" cx="244.194" cy="325.728" r="4.324"/>
    <circle fill="#F29120" cx="251.629" cy="316.691" r="4.324"/>
    <circle fill="#F29120" cx="257.521" cy="303.181" r="4.324"/>
  </g>
  <path fill="#F0D0B5" d="M166.932,196.136c0,0-5.599,57.087,32.203,80.527c0,0,6.87,22.634,30.39,22.634
    c23.521,0,30.22,0.646,48.218-22.634c17.995-23.281,30.049-11.018,40.725-50.273l-26.74-18.692L166.932,196.136z"/>
  <path fill="#F0D0B5" d="M328.468,194.248c-6.723,50.632-62.948,99.192-95.958,93.336c-42.444-7.526-72.298-40.814-65.578-91.448
    c6.722-50.646,46.813-87.089,89.547-81.419C299.208,120.39,335.188,143.608,328.468,194.248z"/>
  <path fill="#F0D0B5" d="M325.032,190.813c-6.722,50.63-53.229,99.005-95.96,93.337c-42.731-5.675-72.297-40.816-65.576-91.452
    c6.721-50.645,46.812-87.087,89.547-81.416C295.773,116.954,331.753,140.174,325.032,190.813z"/>
  <path fill="#F0D0B5" d="M334.789,145.224c-6.841,51.552-49.621,88.396-95.547,82.301c-45.921-6.096-77.615-52.826-70.775-104.376
    c6.842-51.546,49.628-88.385,95.552-82.292C309.941,46.955,341.631,93.679,334.789,145.224z"/>
  <path fill="#CD9B78" d="M267.042,200.632c0,0-22.732,39.008-46.152-2.782C220.89,197.851,244.576,224.97,267.042,200.632z"/>
  <path fill="#F0D0B5" d="M324.074,174.175c0,0,9.383-16.322,22.884-4.121c9.173,8.292,4.279,14.959-2.079,19.3
    c-5.305,3.633-11.642,5.647-11.642,5.647s-9.671,3.215-6.279,13.667c3.406,10.452,3.365,14.262-0.259,15.506
    c-3.623,1.238-10.979-2.263-11.192-8.497C314.558,188.772,324.074,174.175,324.074,174.175z"/>
  <g>
    <path fill="#CE9C78" d="M322.472,192.6c0,0,15.436-33.317,14.76-6.701C337.231,185.899,334.798,170.99,322.472,192.6z"/>
    <path fill="#CE9C78" d="M322.362,192.692c0,0,10.684-16.453,6.115,5.053C328.478,197.745,330.053,183.884,322.362,192.692z"/>
  </g>
  <path fill="#CE9C78" d="M319.714,222.629c0,0-5.809-2.442-6.525-6.564c0,0,1.638,9.421,5.171,10.721L319.714,222.629z"/>
  <path fill="#E7BE99" d="M162.964,193.536c-1.797,3.715-4.447,6.978-7.91,9.288c0.325,0.384,0.716,0.734,1.191,1.055
    c3.67,2.467,12.489,1.093,15.643-4.999C168.811,197.25,165.784,195.543,162.964,193.536z"/>
  <path fill="#E7BE99" d="M323.174,214.786c-0.521-0.036-1.033-0.104-1.542-0.185c1.724,2.936,2.617,6.331,2.668,9.778
    c0.886,0.096,1.711,0.032,2.399-0.204c2.797-0.959,3.452-3.466,2.04-9.359C326.921,214.915,325.062,214.904,323.174,214.786z"/>
  <g>
    <g>
      <path fill="#3C2518" d="M146.764,145.22c0.315,0,0.315-0.002,0-0.002S146.449,145.22,146.764,145.22L146.764,145.22z"/>
    </g>
  </g>
  <g>
    <g>
      <path fill="#3C2518" d="M141.807,129.265c-0.156,0.155-0.312,0.311-0.468,0.467c-0.009,0.008,0.438,0.126,0.536,0.027
        c0.156-0.155,0.312-0.311,0.468-0.467C142.352,129.284,141.906,129.166,141.807,129.265L141.807,129.265z"/>
    </g>
  </g>
  <path fill="#F0D0B5" d="M175.776,144.213c0,0-6.023-22.826-26.353-12.471c-13.814,7.036-10.074,16.705-3.794,24.039
    c5.237,6.136,12.246,10.644,12.246,10.644s10.653,7.056,3.129,18.596c-7.545,11.539-8.737,16.165-4.758,18.858
    c3.979,2.678,14.028,0.85,16.326-6.625C182.519,164.997,175.776,144.213,175.776,144.213z"/>
  <g>
    <path fill="#CE9C78" d="M171.685,167.04c0,0-7.783-45.375-15.671-12.938C156.014,154.103,163.837,136.849,171.685,167.04z"/>
    <path fill="#CE9C78" d="M171.79,167.188c0,0-7.549-23.409-9.054,4.118C162.735,171.305,165.366,154.012,171.79,167.188z"/>
  </g>
  <path fill="#CE9C78" d="M162.458,204.868c0,0,4.776-1.486,6.118-4.662c0,0-2.058,5.796-6.033,7.031L162.458,204.868z"/>
  <circle fill="#3C2518" cx="159.744" cy="199.287" r="1.959"/>
  <path fill="#3C2518" d="M327.233,219.514c0-1.085-0.877-1.961-1.959-1.961c-1.083,0-1.959,0.876-1.959,1.961
    c0,1.08,0.876,1.957,1.959,1.957C326.356,221.471,327.233,220.594,327.233,219.514z"/>
  <path fill="#DDB08A" d="M279.429,221.406c0,0,9.621,5.167,9.092,19.781C288.521,241.187,292.969,223.228,279.429,221.406z"/>
  <g>
    <path fill="#CA8C84" d="M191.96,228.729c0,0,19.751-11.45,50.466-1.893c0,0,37.301-5.674,40.935,7.514
      c0,0-24.771,54.557-55.907,40.241C196.304,260.247,191.96,228.729,191.96,228.729z"/>
    <path fill="#FFFFFF" d="M200.174,231.167c0,0,28.566-4.222,75.728,4.362C275.901,235.53,240.812,297.39,200.174,231.167z"/>
  </g>
  <path fill="#DDB08A" d="M184.787,234.962c0,0,4.228-12.913,15.387-12.917C200.174,222.045,186.569,217.054,184.787,234.962z"/>
  <path fill="#3C2517" d="M240.639,152.883c0,0-18.61-34.706-60.916-5.373C179.723,147.51,215.726,133.851,240.639,152.883z"/>
  <path fill="#3C2517" d="M251.628,36.009c-1.569,1.447-79.788,2.054-85.642,94.72c0,0,11.985-22.195,19.605-29.829
    c0,0-2.894,26.962,0,33.292c0,0,16.344-40.198,31.61-54.01c0,0-5.816,34.168-1.091,51.979c0,0,49.902,8.274,68.206-4.223
    c0,0-5.473-25.583-6.486-27.764c-1.018-2.182,1.014,2.181,1.014,2.181s18.358,23.524,16.452,31.837c0,0,6.234-25.659,4.781-29.293
    c0,0,6.179,32.867,6.542,37.517c0,0,20.571-22.67,22.66-31.715c0,0,3.395,48.066,0,57.663c0,0,10.605-16.997,10.196-32.355
    l-5.745-33.822l-3.868-16.098l-21.556-29.169l-41.11-22.328h-23.003c0,0-44.803,8.151-45.53,9.242
    c-0.728,1.091-18.597,23.627-19.114,25.081c-0.515,1.454-7.865,20.348-7.865,20.348s-8.479,21.817-7.835,23.271"/>
  <path fill="none" stroke="#5C4134" stroke-width="2" stroke-miterlimit="10" d="M251.628,27.675c0,0-65.991,8.504-83.161,95.474"/>
  <path fill="none" stroke="#5C4134" stroke-width="2" stroke-miterlimit="10" d="M253.356,34.59c0,0-32.818,23.71-28.685,83.599"/>
  <path fill="none" stroke="#5C4134" stroke-width="2" stroke-miterlimit="10" d="M214.16,66.996c0,0-17.958,15.289-26.371,56.153"/>
  <path fill="none" stroke="#5C4134" stroke-width="2" stroke-miterlimit="10" d="M261.633,27.675c0,0,89.571,23.603,81.76,123.171"
    />
  <path fill="none" stroke="#5C4134" stroke-width="2" stroke-miterlimit="10" d="M264.019,40.858c0,0,46.717,18.627,44.188,96.548"
    />
  <path fill="none" stroke="#5C4134" stroke-width="2" stroke-miterlimit="10" d="M256.34,60.901c0,0,7.158,31.428,0,62.249"/>
  <path fill="#3C2517" d="M262.706,158.539c0,0,17.011-31.323,55.162-4.575C317.868,153.963,285.349,141.431,262.706,158.539z"/>
  <g>
    <path fill="#FFFFFF" d="M312.286,173.729c-0.025-0.604-0.043-1.277-0.07-1.915c-4.583-5.921-22.269-24.835-47.415-1.705
      c0.012,0.04,0.029,0.08,0.04,0.121c0.008,0.028,0.008,0.056,0.017,0.086c2.318,0.933,26.805,10.429,47.449,3.488
      C312.286,173.78,312.299,173.761,312.286,173.729z"/>
    <g>
      <defs>
        <path id="SVGID_2_" d="M313.396,173.469c0,0-19.283-30.489-48.734-3.234C264.662,170.235,291.487,181.499,313.396,173.469z"/>
      </defs>
      <clipPath id="SVGID_3_">
        <use xlink:href="#SVGID_2_"  overflow="visible"/>
      </clipPath>
      <g clip-path="url(#SVGID_3_)">
        <path fill="#875F3D" d="M271.645,156.709c-5.712,0.225-10.384,4.472-11.183,9.803c2.059-0.551,4.371,0.803,4.908,2.407
          c0.642,1.917-0.785,3.504-2.877,4.17c-0.258,0.083-0.518,0.165-0.777,0.246c1.954,3.419,5.782,5.65,10.171,5.485
          c6.313-0.243,11.378-5.407,11.31-11.519C283.143,161.207,277.961,156.452,271.645,156.709z"/>
        <path fill="#0E1E16" d="M265.783,168.562c0.023,2.727,2.335,4.858,5.153,4.737c2.826-0.097,5.082-2.406,5.046-5.144
          c-0.012-2.728-2.331-4.839-5.146-4.729C268.01,163.536,265.751,165.846,265.783,168.562z"/>
        <path fill="#FFFFFF" d="M274.348,167.934c0.008,0.836,0.714,1.465,1.575,1.435c0.857-0.038,1.535-0.731,1.533-1.557
          c-0.011-0.839-0.725-1.49-1.569-1.445C275.025,166.407,274.33,167.091,274.348,167.934z"/>
      </g>
    </g>
    <path fill="none" stroke="#CD9D78" stroke-width="1.6404" d="M313.831,173.664c-6.865-10.103-17.566-14.695-26.784-14.093
      c-8.163,0.533-15.981,4.687-22.246,10.538"/>
    <path fill="none" stroke="#CD9D78" stroke-width="1.6404" d="M310.625,165.278c-10.433-22.162-32.589-14.698-48.062-1.843"/>
    <path fill="none" stroke="#CD9D78" stroke-width="1.6404" d="M313.831,173.664c-14.838,4.297-33.874,2.352-48.048-2.998"/>
  </g>
  <g>
    <path fill="#FFFFFF" d="M187.718,162.423c0,0,22.949-22.625,47.93,3.687C235.648,166.11,207.963,171.914,187.718,162.423z"/>
    <g>
      <defs>
        <path id="SVGID_4_" d="M187.718,162.423c0,0,22.949-22.625,47.93,3.687C235.648,166.11,207.963,171.914,187.718,162.423z"/>
      </defs>
      <clipPath id="SVGID_5_">
        <use xlink:href="#SVGID_4_"  overflow="visible"/>
      </clipPath>
      <g clip-path="url(#SVGID_5_)">
        <path fill="#875F3D" d="M206.509,163.168c-1.037,5.895-6.66,9.837-12.55,8.8c-5.902-1.035-9.843-6.651-8.809-12.555
          c1.042-5.89,6.658-9.835,12.548-8.795C203.617,151.654,207.534,157.278,206.509,163.168z"/>
        <path fill="#0E1E16" d="M200.589,162.136c-0.456,2.631-2.964,4.393-5.597,3.929c-2.637-0.464-4.383-2.975-3.928-5.612
          c0.469-2.63,2.974-4.392,5.604-3.931C199.308,156.992,201.053,159.497,200.589,162.136z"/>
        <path fill="#FFFFFF" d="M201.736,159.767c-0.139,0.808-0.914,1.324-1.732,1.185c-0.783-0.133-1.328-0.899-1.186-1.699
          c0.15-0.796,0.899-1.339,1.708-1.194C201.326,158.195,201.877,158.963,201.736,159.767z"/>
      </g>
    </g>
    <path fill="none" stroke="#CD9D78" stroke-width="1.4864" d="M187.718,162.423c3.988-3.76,9.255-6.436,14.547-7.738
      c13.224-3.255,23.733,3.295,33.481,11.467"/>
    <path fill="none" stroke="#CD9D78" stroke-width="1.4864" d="M170.321,151.577c0,0,10.54,12.91,17.211,10.961
      c0,0,15.134-35.588,51.075-1.769"/>
    <path fill="none" stroke="#CD9D78" stroke-width="1.4864" d="M187.533,162.538c0,0,16.716,9.385,48.115,3.572"/>
  </g>
</g>
<g>
</g>
<g>
</g>
<g>
</g>
<g>
</g>
<g>
</g>
<g>
</g>
</svg>