<svg xmlns="http://www.w3.org/2000/svg" width="325.958" height="418.657" viewBox="0 0 325.958 418.657"><path fill="#414042" d="M265.844 245.534c-17.863 18.973-38.588 28.702-61.696 28.922-20.169.189-36.972-7.066-44.147-10.163-3.56-1.536-4.516-1.949-5.645-1.611l1.24 4.131c-.408.123-.701.064-.713.063.415.085 1.937.741 3.409 1.377 5.319 2.297 15.751 6.801 28.99 9.099 5.243.91 10.928 1.473 16.908 1.417 24.797-.235 46.928-10.8 65.853-31.41-1.521-.277-2.959-.904-4.199-1.825z"/><path fill="#E7BE99" d="M265.384 247.426c-3.583-.739-14.523-11.495-8.745-13.469 4.489-1.37 8.674 8.347 10.074 11.372l.43-.201c1.73-1.233 3.877-2.24 5.807-3.041 3.213-1.192 19.435-5.226 21.653-1.111 3.242 5.423-17.764 6.125-21.159 6.245 5.513-.062 14.946 3.825 16.052 9.83-4.778 4.136-14.658-6.591-17.747-9.877 1.418 2.386 6.709 10.426 1.001 9.842-2.96-.295-4.755-4.398-5.749-6.772"/><path fill="#414042" d="M149.753 267.81c-1.055-.526-2.067-.283-5.837.622-7.599 1.824-25.396 6.099-45.235 2.464-22.708-4.163-41.451-17.272-55.801-38.983-1.039.92-2.327 1.614-3.863 1.98 15.046 22.966 34.829 36.834 58.886 41.245 5.883 1.079 11.581 1.495 16.902 1.495 13.437 0 24.485-2.654 30.119-4.008 1.559-.374 3.171-.762 3.594-.774-.012-.001-.311.007-.692-.184l1.927-3.857z"/><path fill="#E7BE99" d="M42.968 233.795c3.657-.115 16.274-8.842 10.919-11.776-4.189-2.117-9.973 6.741-11.871 9.482l-.389-.272c-1.494-1.51-3.437-2.87-5.202-3.989-2.962-1.723-18.255-8.472-21.145-4.797-4.122 4.789 16.455 9.072 19.779 9.771-5.422-1.003-15.38 1.213-17.497 6.94 4 4.892 15.569-3.988 19.174-6.697-1.805 2.108-8.393 9.125-2.669 9.526 2.967.216 5.437-3.52 6.823-5.69"/><path fill="#1B75BB" d="M172.843 304.542l-31.203-.211 2.569 108.216 3.284.226-.938-92.767 21.4-.529.735 92.149 3.824.692z"/><path fill="#414042" d="M140.01 315.778l-5.327-62.87h39.782l-.695 59.955z"/><path fill="#404041" d="M144.209 412.547s-2.648 4.502-9.379 4.715l-.147 1.383s8.65.424 11.121-3.801l-.069 3.167 2.86-.369-1.077-5.697-3.309.602zM172.212 411.371s2.936 4.352 9.668 4.132l.23 1.376s-8.612.956-11.341-3.097l.265 3.148-2.876-.229.722-5.719 3.332.389z"/><path fill="#E5BC98" d="M134.908 264.934s23.292 18.227 48.912-.856l-6.366-5.789-42.546 6.645z"/><g fill="#fff"><path d="M198.357 346.609c.488.077.978.122 1.466-.209l17.244-11.979-32.762-5.166 12.729 16.632c.356.464.831.644 1.323.722zM200.523 347.439c-.723.462-1.554.755-2.392.621-.846-.13-1.552-.647-2.096-1.31l-1.586-2.219-14.184 9.908 32.894 5.187-10.451-13.785-2.185 1.598zM214.646 358.892l3.75-23.784-14.124 9.958zM182.543 329.454l-3.749 23.78 14.125-9.957z"/></g><g fill="#fff"><path d="M36.934 197.716c.608-.363 1.188-.762 1.422-1.572l8.005-28.97-40.778 24.314 29.236 6.646c.815.185 1.503-.052 2.115-.418zM40.078 196.647c-.372 1.171-1.019 2.254-2.063 2.873-1.049.632-2.3.71-3.506.478l-3.778-.99-6.535 23.889 40.944-24.412-24.122-5.598-.94 3.76zM66.104 196.318l-17.651-29.604-6.423 23.89zM3.826 193.321l17.649 29.598 6.425-23.889z"/></g><g fill="#fff"><path d="M290.065 227.853c.679.202 1.365.358 2.12-.018l26.737-13.73-45.506-13.537 14.91 26.011c.414.725 1.055 1.071 1.739 1.274zM292.98 229.442c-1.114.519-2.348.777-3.511.428-1.175-.344-2.08-1.212-2.726-2.256l-1.83-3.45-22.002 11.37 45.69 13.592-12.217-21.539-3.404 1.855zM310.848 248.368l9.828-33.036-21.927 11.453zM270.876 200.517l-9.825 33.03 21.929-11.452z"/></g><path opacity=".1" fill="#231F20" d="M108.725 235.841s34.792 28.756 61.395 79.965l6.509-3.312-47.127-73.209-12.891-4.326-7.886.882z"/><path fill="#EFC807" d="M192.865 300.148l-14.964 6.939c-8.312-17.338-39.367-78.447-63.724-77.451-7.179.66-8.637 5.929-8.637 5.929l4.948-.418c.438-1.148 1.564-1.094 1.564-1.094s14.141-2.849 59.351 76.046l-11.563 5.362 13.975 25.09 29.794-12.773-10.744-27.63z"/><path fill="#E5BC98" d="M183.827 264.12c4.29-2.576 2.574-8.583 3.432-14.59 3.434-18.021 11.157-33.467 22.31-48.052 18.021-24.028 48.912-48.916 54.919-79.807 6.81-35.015-20.948-75.069-54.11-85.223-34.443-10.547-87.253-5.776-111.152 24.773-11.26 14.394-15.33 32.695-12.086 50.535 1.557 8.564 7.112 12.398 4.716 21.807-2.243 8.813-7.848 16.121-11.861 24.15-12.013 24.028-.859 54.059 15.446 73.796 6.864 8.583 16.302 18.877 25.743 24.888 5.147 2.572 7.149 5.428 13.73 8.579l48.913-.856z"/><path opacity=".6" fill="#fff" d="M87.752 159.11c1.036-1.757 2.202-3.461 3.339-5.16 3.074-4.589 4.983-8.994 6.377-14.334 1.284-4.925 2.08-10.149 2.366-15.236-13.498-51.044 32.172-85.315 33.612-86.383-13.633 4.818-25.746 12.394-34.22 23.223-11.26 14.394-15.33 32.695-12.086 50.535 1.557 8.564 7.112 12.398 4.716 21.807-2.243 8.813-7.848 16.121-11.861 24.15-12.013 24.028-.859 54.059 15.446 73.796 6.864 8.583 16.302 18.877 25.743 24.888 5.147 2.572 7.149 5.428 13.73 8.579l2.042-.038c-14.941-13.696-28.598-28.554-39.192-45.871-3.506-5.73-7.133-11.494-9.324-17.879-3.796-11.074-5.823-22.459-3.834-34.113.495-2.892 1.692-5.489 3.146-7.964z"/><path fill="#E5BC98" d="M183.827 264.12s33.673-21.952 29.927-65.368l-13.683-16.574-16.244 35.908-4.865 43.727 4.865 2.307z"/><path opacity=".6" fill="#fff" d="M127.518 134.614c-.76.024 3.936-.096 3.936-.096l-6.681 44.374s-24.134-24.62-25.236-5.038c0 0 4.945-23.956 23.606.471l4.375-39.711z"/><path stroke="#A87C4F" stroke-width="1.561" stroke-linecap="round" stroke-linejoin="round" stroke-miterlimit="10" d="M127.518 134.614c-2.525 11.715-1.583 26.761-4.375 39.711-2.801-6.414-18.613-18.021-22.867-4.099-3.857 14.007 5.809 16.704 12.202 14.211-2.714 4.262.697 10.257 4.825 12.23 3.906 1.866 8.145.605 10.041-3.339 1.074-2.233 1.366-4.782 1.681-7.208-.176 1.361 4.162 3.417 5.135 3.81 1.862.753 3.937.835 5.867.286 7.071-2.011 8.068-11.029 6.294-16.986-.69-2.326-2.415-5.108-4.572-6.384-3.649-2.155-8.268-2.14-11.016 1.369" fill="none"/><path fill="#fff" d="M94.703 139.734c-.13 5.978 4.41 11.133 10.164 11.511 5.737.361 10.497-4.191 10.631-10.187.142-5.984-4.41-11.142-10.145-11.509-5.745-.365-10.497 4.187-10.65 10.185z"/><path fill="#E6E7E8" d="M103.663 134.004c-3.665-.237-6.921 1.539-8.842 4.409-.061.434-.107.873-.118 1.322-.13 5.978 4.41 11.133 10.164 11.511 3.653.231 6.906-1.54 8.825-4.4.062-.436.106-.877.118-1.33.14-5.987-4.411-11.147-10.147-11.512z"/><path fill="#231F20" d="M108.067 142.715c-.054 1.584.802 2.926 1.904 3.006 1.106.067 2.041-1.154 2.087-2.739.055-1.586-.797-2.932-1.899-3.004-1.102-.07-2.043 1.155-2.092 2.737z"/><path fill="#fff" d="M146.023 142.012c.794 8.495 9.264 15.039 18.942 14.585 9.652-.453 16.828-7.71 16.03-16.221-.782-8.511-9.261-15.051-18.919-14.59-9.664.445-16.833 7.711-16.053 16.226z"/><path fill="#E6E7E8" d="M178.467 144.6c-.781-8.507-9.261-15.049-18.918-14.588-5.282.246-9.809 2.536-12.709 5.944-.711 1.882-1.012 3.928-.817 6.055.794 8.495 9.264 15.039 18.942 14.585 5.275-.247 9.797-2.538 12.694-5.94.71-1.882 1.008-3.929.808-6.056z"/><path fill="#231F20" d="M164.015 143.747c.75 1.739 2.361 2.745 3.586 2.259 1.227-.487 1.599-2.282.839-4.019-.758-1.728-2.367-2.743-3.588-2.261-1.231.495-1.602 2.29-.837 4.021z"/><path fill="#A48974" d="M214.697 208.723s-5.519-4.841-7.276-12.606c0 0-1.78 12.61 5.927 18.709l1.349-6.103zM161.572 231.145c-4.693.954-10.075 1.128-16.241.182-.297-.045-.5-.322-.454-.618.044-.297.322-.5.618-.454 14.68 2.246 26.554-1.627 35.294-11.512 8.702-9.841 10.815-21.835 10.604-23.094-.12-.176-.132-.413-.008-.603.162-.252.499-.323.751-.16 1.007.654-.473 6.3-1.93 10.125-2.847 7.473-10.701 22.491-28.634 26.134zM200.815 186.225s-7.42 18.435-17.505 3.018c0 0 8.624 9.775 17.439-3.4"/><path d="M112.06 248.999l.296.638c2.89 2.553 5.859 4.869 8.83 6.76 5.147 2.572 7.149 5.428 13.73 8.579l.047-.001c1.118.852 23.839 17.679 48.797-.854l.069-.001s7.329-4.782 14.767-14.287c-39.936 11.251-86.536-.834-86.536-.834z"/><path opacity=".15" fill="#5D5D5D" d="M210.38 36.448c-34.443-10.547-87.253-5.776-111.153 24.773-3.813 4.874-6.781 10.204-8.94 15.805 52.39 14.165 144.118 9.5 144.841 9.481-30.263 21.716-8.743 58.697-8.743 58.697l-5.37 20.813s9.756 6.095 9.678 6.711l5.445-2.188c12.918-14.932 24.854-30.881 28.351-48.868 6.811-35.015-20.948-75.07-54.109-85.224z"/><path fill="#E5BC98" d="M234.383 161.22s15.183-10.013 24.682 11.523c11.827 26.86-22.56 15.731-22.56 15.731s-10.93-3.385-11.104 9.464c-.179 12.828-1.527 16.654-5.638 15.429-4.104-1.246-10.362-9.803-8.431-16.23 8.356-27.724 23.051-35.917 23.051-35.917z"/><g fill="#A48974"><path d="M226.384 178.671s27.211-22.963 17.308 3.356c0 0 2.7-16.666-17.308-3.356zM226.257 178.688s16.55-9.237 4.438 9.279c0 0 6.409-12.883-4.438-9.279z"/></g><g fill="#EFC807"><path d="M159.93 12.81l105.367 57.539-5.752 10.532-105.367-57.539zM190.675 36.427l13.843-33.458 78.095 42.643-23.071 35.256z"/><ellipse transform="matrix(.878 .479 -.479 .878 42.714 -113.317)" cx="243.341" cy="27.016" rx="5.445" ry="10.5"/></g><path d="M86.997 130.827s18.688-18.649 34.52.461c0 0-16.092-10.429-34.52-.461zM140.143 127.595s30.877-28.834 52.165 2.312c0 .001-20.504-18.25-52.165-2.312z"/></svg>