<svg xmlns="http://www.w3.org/2000/svg" width="480" height="500" viewBox="0 0 480 500"><path fill="#fff" d="M88.851 111.488c44.385-51.621 96.496-77.432 156.33-77.432 42.331 0 77.11 10.706 104.342 32.116 27.227 21.411 40.842 51.768 40.842 91.07 0 14.473-3.418 27.767-10.256 39.889-6.838 12.126-15.077 22.291-24.729 30.503-9.651 8.212-19.201 15.742-28.651 22.584-9.45 6.846-17.534 13.638-24.252 20.384-6.719 6.746-10.073 13.346-10.073 19.798v33.144h-111.163l-.586-48.102c0-12.319 5.032-24.684 15.105-37.103 10.068-12.415 21.017-22.731 32.85-30.943 11.828-8.212 22.73-17.057 32.703-26.543 9.972-9.482 14.958-17.841 14.958-25.077 0-18.771-14.766-28.157-44.288-28.157-11.93 0-25.032 4.793-39.303 14.372-14.275 9.583-27.277 21.219-39.009 34.903l-64.82-65.406zm76.258 290.661c0-16.425 6.306-31.136 18.918-44.142 12.612-13.002 29.184-19.505 49.715-19.505 20.724 0 37.785 6.21 51.181 18.625 13.391 12.419 20.091 27.423 20.091 45.021 0 17.208-6.599 31.823-19.798 43.849-13.198 12.025-30.356 18.038-51.474 18.038-19.166 0-35.394-6.307-48.688-18.918-13.3-12.611-19.945-26.932-19.945-42.968z" opacity=".3"/></svg>