<?xml version="1.0" encoding="utf-8"?>
<!-- Generator: Adobe Illustrator 17.0.0, SVG Export Plug-In . SVG Version: 6.00 Build 0)  -->
<!DOCTYPE svg PUBLIC "-//W3C//DTD SVG 1.1//EN" "http://www.w3.org/Graphics/SVG/1.1/DTD/svg11.dtd">
<svg version="1.1" id="Layer_1" xmlns="http://www.w3.org/2000/svg" xmlns:xlink="http://www.w3.org/1999/xlink" x="0px" y="0px"
	 width="480px" height="500px" viewBox="0 0 480 500" enable-background="new 0 0 480 500" xml:space="preserve">
<path fill="#26160D" d="M259.602,256.806c-35.478-17.516-61.63,24.339-71.014,51.514c-8.88,29.102-47.977,104.212-86.147,60.617
	c0.051,27.799,32.227,76.051,63.38,73.064c33.586-1.562,49.503-51.045,48.74-77.629c-1.058-31.657-10.961-53.793,11.714-81.348
	c8.844-9.522,41.545-26.304,44.776-17.876"/>
<path fill="#26160D" d="M142.15,253.023c0,0,37.189,62.923,80.617,48.557c67.358-22.284,3.332,0,3.332,0s2.592-46.252,3.855-49.304
	c1.264-3.051-71.122-60.19-71.122-60.19S142.15,253.023,142.15,253.023z"/>
<path fill="#BB1E2D" d="M241.058,277.259c0,0-26.581,21.895-35.571,41.041c0.778,0.334,1.545,0.709,2.293,1.143
	c1.423,0.721,2.849,1.857,4.133,3.149c1.575-9.328,12.078-23.427,39.553-44.749L241.058,277.259L241.058,277.259z M212.352,320.659
	c-2.32-0.525-4.572-1.443-6.665-2.797c-7.305,15.138,6.691,28.54,32.006,28.539c-0.577-2.206,0.802-4.26,2.976-5.757
	C230.041,340.294,207.584,337.575,212.352,320.659L212.352,320.659z"/>
<path opacity="0.4" fill="#BB1E2D" enable-background="new    " d="M306.603,318.304l0.006-0.004l-0.072-0.145l-0.13-0.294
	l-0.012,0.007c-9.183-19.042-35.362-40.61-35.362-40.61l-10.405,0.583c25.642,19.899,36.499,33.506,39.113,42.816
	c0.139,0.493,0.25,0.971,0.343,1.439l0.038,0.197c2.901,15.454-18.425,18.009-28.7,18.347c2.173,1.496,3.553,3.55,2.976,5.757
	C299.469,346.402,313.422,333.26,306.603,318.304L306.603,318.304z"/>
<path fill="#231F20" d="M275.558,353.962l-42.453-1.992l1.529,139.408l3.631-0.327l-0.913-117.169l32.734-2.642l0.915,119.811
	l3.495,0.242L275.558,353.962z"/>
<path opacity="0.15" fill="#211F1F" enable-background="new    " d="M244.046,495.493c-76.172,0-137.929,1.041-137.929,2.331
	c0,1.287,61.756,2.333,137.929,2.333c76.181,0,137.946-1.046,137.946-2.333C381.992,496.533,320.227,495.493,244.046,495.493z"/>
<path fill="#BB1E2D" d="M282.293,289.777l-2.96,73.864h-47.127l-5.199-75.835"/>
<path fill="#885E3C" d="M274.414,491.251c0,0,3.142,4.978,10.712,4.978l0.213,1.549c0,0-9.711,0.766-12.635-3.882l0.201,3.55
	l-3.238-0.338l1.015-6.413L274.414,491.251z M234.33,491.251c0,0-3.143,4.978-10.71,4.978l-0.213,1.549
	c0,0,9.706,0.766,12.629-3.882l-0.192,3.55l3.232-0.338l-1.015-6.413L234.33,491.251z M238.169,491.378l0.906-61.734h-5.97
	l0.389,62.627L238.169,491.378z M274.414,491.251l2.137-60.408h-6.884l0.768,61.428L274.414,491.251z"/>
<path fill="#E6BD98" d="M234.905,303.014c0,0,18.182,56.844,40.653,1.095l-39.466-1.095"/>
<path fill="#CD9B78" d="M248.685,321.241c-0.279-0.078,6.875,0.499,5.648,7.31C254.333,328.551,253.587,322.586,248.685,321.241z
	 M260.369,321.241c0.279-0.078-6.874,0.499-5.647,7.31C254.723,328.551,255.469,322.586,260.369,321.241z"/>
<path opacity="0.6" fill="#BB1E2D" enable-background="new    " d="M353.849,304.802c-1.006-1.202-1.774-2.584-2.258-4.081
	c-7.616,4.901-32.649,16.23-70.92-13.538l-11.904,5.998c0,0,57.236,34.359,85.098,14.533
	C353.749,306.747,353.742,305.77,353.849,304.802L353.849,304.802z"/>
<path opacity="0.6" fill="#E7BE99" enable-background="new    " d="M353.669,304.756c-3.325-3.081-8.023-21.496-0.632-19.884
	c5.637,1.427,3.842,14.409,3.386,18.514l0.585,0.062c2.624-0.197,5.546,0.111,8.106,0.5c4.17,0.797,23.951,6.923,23.664,12.707
	c-0.041,7.828-22.756-4.898-26.431-6.947c5.883,3.47,13.389,13.638,10.712,20.713c-7.715,1.321-11.31-16.385-12.479-21.849
	c-0.027,3.439,0.425,15.353-5.25,11.074c-2.948-2.21-2.22-7.71-1.752-10.866"/>
<path fill="#BB1E2D" d="M346.096,247.949c-0.628,3.484-7.952,35.835-63.551,38.121l-5.213,12.268c0,0,71.041-11.572,75.072-47.776
	C349.822,250.299,347.726,249.336,346.096,247.949L346.096,247.949z"/>
<path fill="#E7BE99" d="M349.624,252.338c-4.528-0.204-20.008-11.23-13.325-14.772c5.225-2.552,12.24,8.519,14.542,11.947
	l0.486-0.331c1.876-1.846,4.306-3.497,6.511-4.852c3.698-2.085,22.757-10.183,26.273-5.582c5.025,6.002-20.537,10.959-24.667,11.766
	c6.733-1.151,19.031,1.764,21.555,8.895c-5.038,5.991-19.218-5.204-23.638-8.621c2.2,2.642,10.24,11.447,3.144,11.846
	c-3.678,0.217-6.675-4.454-8.355-7.164"/>
<ellipse transform="matrix(-0.1749 0.9846 -0.9846 -0.1749 386.3839 -87.4687)" fill="#3C2415" cx="229.841" cy="118.16" rx="102.806" ry="108.861"/>
<path fill="#E6BD98" d="M176.565,221.16c0,0,7.72,81.659,72.943,92.343c0,0,76.072-4.553,78.128-128.038
	c0.108-6.483-0.489,9.494,0,0c0,0,19.52-135.022-103.16-116.208c-122.673,18.803-68.552,122.505-68.552,122.505L176.565,221.16
	L176.565,221.16z M342.879,167.956c-5.944-3.296-10.572-3.228-14.108-1.69c0.072-36.558-10.93-111.328-104.295-97.009
	c-122.673,18.803-68.552,122.505-68.552,122.505l20.641,29.398c0,0,7.72,81.658,72.943,92.343c0,0,56.615-3.401,73.479-83.628
	c3.45,3.064,8.897,3.669,11.545,2.017c3.628-2.267,2.709-6.42-3.635-16.917c-6.327-10.504,3.37-16.44,3.37-16.44
	s6.379-3.79,11.226-9.079C351.309,183.133,354.941,174.65,342.879,167.956L342.879,167.956z M181.486,214.942
	c-0.284,1.545-18.134,47.178,26.335,72.784C252.29,313.332,181.486,214.942,181.486,214.942L181.486,214.942z"/>
<path fill="#26160D" d="M244.369,180.681c0,0-18.496-31.987-57.3-3.217C187.069,177.464,220.429,163.581,244.369,180.681z
	 M323.393,172.98c0,0-22.954-25.466-52.627,8.125C270.765,181.106,298.368,162.075,323.393,172.98z"/>
<path fill="#DACF8C" d="M169.449,89.812"/>
<path fill="#E5B36A" d="M254.943,68.617c-23.035,2.734-70.046,13.501-66.079,44.954c0.691,7.639,7.034,14.233,4.295,21.944
	c-2.974,9.037-15.53,14.319-23.64,17.659c-17.663,7.106-44.244,10.576-55.869-8.575c-13.257-21.491,17.213-46.816,29.55-62.387
	c1.089,1.56,54.94-29.052,56.028-27.492"/>
<path fill="#E6BD98" d="M275.885,87.55c0,0-14.089-30.273-51.083-12.45c-36.995,17.823,19.233,14.779,18.697,14.685
	C242.966,89.69,277.126,87.861,275.885,87.55z"/>
<path fill="#3C2415" d="M295.697,81.265c-28.524,10.178-56.578,18.525-75.257,44.545c-13.506,18.814-17.112,41.515-24.41,63.005
	c-10.01,29.475-31.227,86.876-72.444,61.834c-53.55-32.535-21.697-206.503,61.523-227.063c42.906-10.599,81.307,6.488,104.095,43.39
	C291.956,71.432,294.216,76.241,295.697,81.265z"/>
<path fill="none" stroke="#26160D" stroke-width="2" stroke-linecap="round" stroke-linejoin="round" stroke-miterlimit="10" d="
	M296.782,82.652c0,0-74.016-67.435-149.162,138.152c-21.403,58.556-44.44-7.253-44.44-7.253 M100.953,153.536
	c0,0,22.632,90.12,78.285-40.102c39.533-92.505,115.748-31.348,115.748-31.348s29.771,7.282,43.506,42.65 M205.487,19.242
	c81.304-13.255,90.211,60.519,90.211,60.519c1.065-0.705-81.523-119.137-184.186,31.716"/>
<circle fill="#BB1E2D" cx="331.048" cy="227.503" r="2.213"/>
<path fill="#231F20" d="M271.471,199.134c0,0,10.043-11.831,28.179-7.557c18.124,4.279,21.331-17.395,21.331-17.395
	s1.122,19.251-13.44,21.002c0,0,10.435,3.991,15.146-5.116c0,0-5.147,18.223-32.889,6.257
	C281.222,192.621,271.471,199.134,271.471,199.134L271.471,199.134z M243.941,199.401c0,0-10.043-11.831-28.179-7.557
	c-18.124,4.279-21.331-17.395-21.331-17.395s-1.121,19.251,13.44,21.002c0,0-10.435,3.991-15.146-5.116
	c0,0,5.147,18.223,32.889,6.257C234.191,192.887,243.941,199.401,243.941,199.401L243.941,199.401z"/>
<g>
	<path fill="#CD9C78" d="M278.407,227.503c0,0-17.631,36.176-39.331,1.579C239.075,229.083,259.949,249.709,278.407,227.503z"/>
	<path opacity="0.2" fill="#CD9C78" enable-background="new    " d="M278.407,227.503c0,0-17.592,52.433-39.331,1.579
		C239.075,229.083,259.949,249.709,278.407,227.503z"/>
</g>
<path fill="#CD9B78" d="M237.955,310.711c0,0,23.542,1.046,37.437-6.423C275.392,304.288,259.012,320.144,237.955,310.711z"/>
<path fill="#CD9C78" d="M209.419,255.629c0,0,2.687-13.466,16.391-3.477C225.811,252.151,216.51,245.649,209.419,255.629z
	 M216.3,252.607c0,0-13.727,24.589,14.326,31.716c18.956,4.812,41.474-14.524,41.474-14.524S235.232,285.455,216.3,252.607z
	 M264.578,272.459c-10.046,2.717-19.141,2.673-27.19-0.162c-16.392-5.765-22.248-20.886-22.496-21.531l1.539-0.579
	c0.056,0.15,5.853,15.066,21.522,20.567c13.419,4.711,29.955,1.343,49.144-10l0.84,1.415
	C279.674,267.052,271.876,270.488,264.578,272.459z"/>
<path fill="#F2F3F3" d="M272.1,269.799c0,0-32.713,13.882-52.34-11.977c-2.002,3.062-8.29,14.336,6.62,16.051
	c0,0-3.998,4.362-1.711,8.404c1.748,0.778,3.702,1.467,5.956,2.045C249.581,289.134,272.1,269.799,272.1,269.799z"/>
</svg>
