<?xml version="1.0" encoding="utf-8"?>
<!-- Generator: Adobe Illustrator 16.0.0, SVG Export Plug-In . SVG Version: 6.00 Build 0)  -->
<!DOCTYPE svg PUBLIC "-//W3C//DTD SVG 1.1//EN" "http://www.w3.org/Graphics/SVG/1.1/DTD/svg11.dtd">
<svg version="1.1" id="Layer_1" xmlns="http://www.w3.org/2000/svg" xmlns:xlink="http://www.w3.org/1999/xlink" x="0px" y="0px"
	 width="480px" height="500px" viewBox="0 0 480 500" enable-background="new 0 0 480 500" xml:space="preserve">
<symbol  id="ryan" viewBox="-202.752 -225.827 405.505 451.655">
	
		<radialGradient id="SVGID_1_" cx="194.064" cy="646.6387" r="187.6146" gradientTransform="matrix(1 -0.011 0.011 1 -200.1758 -589.8184)" gradientUnits="userSpaceOnUse">
		<stop  offset="0" style="stop-color:#FFFFFF"/>
		<stop  offset="1" style="stop-color:#A0DDF9"/>
	</radialGradient>
	<path opacity="0.82" fill="url(#SVGID_1_)" d="M-202.752-34.061c0,0,57.705-80.814,194.93-82.32
		c137.225-1.508,210.575,77.868,210.575,77.868S151.661,224.199,3.647,225.82C-144.373,227.446-202.752-34.061-202.752-34.061z"/>
	<g>
		<path fill="#EAC19C" d="M-87.054-92.305c-1.828,2.212-4.849,2.935-6.712,1.605s-5.611-1.662-8.329-0.74l-1.385,0.47
			c-2.718,0.922-5.572,0.101-6.344-1.824s0.898-3.96,3.712-4.522l2.182-0.436c2.813-0.562,3.268-2.471,1.009-4.239l-5.842-4.577
			c-2.259-1.77-3.071-4.663-1.808-6.43c1.266-1.768,4.091-1.696,6.279,0.158l5.67,4.805c2.189,1.854,3.088,1.201,1.997-1.453
			l-1.586-3.859c-1.091-2.654-0.748-5.525,0.763-6.382s3.702,0.587,4.87,3.208l3.818,8.562c1.168,2.621,3.134,3.104,4.368,1.073
			c1.235-2.03,3.785-2.779,5.668-1.666c1.882,1.115,1.927,3.836,0.099,6.048L-87.054-92.305z"/>
	</g>
	<path fill="#8EC641" d="M-89.248-95.5c0,0,31.554,12.188,58.556,33.971l4.271-5.673c0,0-27.542-21.081-59.613-33.256L-89.248-95.5z
		"/>
	<path fill="#EAC19C" d="M-50.187-75.366C-70.884-88.401-89.248-95.5-89.248-95.5l3.213-4.958
		c14.608,5.546,28.264,12.935,38.817,19.342C-48.496-79.38-49.517-77.449-50.187-75.366z"/>
	<g>
		<g>
			<path fill="#EAC19C" d="M59.624-102.434c2.321,1.688,5.426,1.635,6.899-0.117c1.475-1.751,5.021-3.007,7.883-2.791l1.458,0.11
				c2.861,0.216,5.421-1.29,5.689-3.347s-1.856-3.611-4.722-3.455l-2.221,0.121c-2.865,0.155-3.779-1.579-2.033-3.855l4.519-5.887
				c1.747-2.276,1.813-5.281,0.148-6.678s-4.384-0.623-6.042,1.718l-4.295,6.064c-1.658,2.341-2.691,1.932-2.295-0.91l0.574-4.133
				c0.396-2.842-0.652-5.538-2.328-5.991c-1.676-0.452-3.439,1.491-3.918,4.32l-1.564,9.243c-0.479,2.829-2.264,3.786-3.965,2.128
				c-1.701-1.659-4.358-1.75-5.904-0.203c-1.545,1.548-0.91,4.194,1.41,5.882L59.624-102.434z"/>
		</g>
		<path fill="#8EC641" d="M60.952-106.074c0,0-27.523,19.662-48.25,47.482l-5.549-4.43c0,0,21.425-27.276,49.453-47.056
			L60.952-106.074z"/>
		<path fill="#EAC19C" d="M28.136-76.848c16.8-17.779,32.816-29.227,32.816-29.227l-4.346-4.003
			c-12.768,9.011-24.152,19.566-32.777,28.399C25.499-80.314,26.968-78.698,28.136-76.848z"/>
	</g>
	<polygon fill="#4283AF" points="12.564,-121.435 -26.422,-119.603 -25.022,-217.764 -21.687,-217.468 -22.522,-139.726 
		7.538,-137.295 8.379,-217.468 11.587,-217.686 	"/>
	<path opacity="0.15" fill="#231F20" d="M0.68-221.544c-98.215,0-177.837-0.959-177.837-2.142c0-1.185,79.622-2.142,177.837-2.142
		c98.219,0,177.854,0.957,177.854,2.142C178.533-222.503,98.898-221.544,0.68-221.544z"/>
	<polyline fill="#8EC641" points="18.745,-62.489 11.979,-129.188 -27.25,-130.32 -32.024,-60.679 	"/>
	<path fill="#050305" d="M11.513-217.648c0,0,2.885-4.574,9.836-4.574l0.193-1.42c0,0-8.914-0.706-11.598,3.563l0.18-3.26
		l-2.971,0.313l0.932,5.888L11.513-217.648z"/>
	<path fill="#050305" d="M-25.3-217.648c0,0-2.886-4.574-9.837-4.574l-0.194-1.42c0,0,8.915-0.706,11.599,3.563l-0.18-3.26
		l2.971,0.313l-0.931,5.888L-25.3-217.648z"/>
	<path fill="#7FAB40" d="M-31.085-64.473c0,0,22.982-31.027,48.597-10.176l-49.536,16.847L-31.085-64.473z"/>
	<path fill="#A8916D" d="M-70.632,4.61c0,0-26.402-19.736-36.835-4.311c0,0,24.07-27.107,36.865-16.314
		c0,0-1.483-21.27-15.891-25.265c0,0,29.935,3.578,36.593,28.088l-8.02,30.123L-70.632,4.61z"/>
	<path fill="#A8916D" d="M53.411,67.366c0,0,23.834-22.771,36.048-8.713c0,0-27.158-24.013-38.561-11.759
		c0,0-1.088-21.293,12.733-26.993c0,0-29.285,7.155-32.945,32.288l11.587,28.939L53.411,67.366z"/>
	<path fill="#A8916D" d="M-53.336,10.114c0,0-20.476-89.096,68.723-84.598c62.352,3.144,35.685,61.059,35.685,61.059"/>
	<path fill="#EAC19C" d="M-48.056-37.213c14.053-1.97,27.938-4.595,41.893-7.199c3.917-0.73,7.835-1.456,11.767-2.098
		c1.973-0.322,3.944-0.646,5.922-0.933c0.264-0.037,0.483-0.068,0.693-0.099c5.611-0.672,11.221-1.12,16.857-1.398
		c1.789,3.271,4.424,6.042,7.913,7.774c5.699,2.83,11.719,4.77,17.892,5.965C50.141-12.228,42.842,43.57,52,88.242
		c0,0-30.654,75.87-119.194,9.637l9.775-95.583C-57.419,2.296-56.312-17.952-48.056-37.213z"/>
	<polygon fill="#A8916D" points="11.591,-46.352 18.796,-44.914 21.681,-54.278 15.91,-55.004 	"/>
	<path fill="#D09F78" d="M27.452,3.207c0,0-11.168-22.67-31.117-0.738C-3.665,2.469,14.729-10.85,27.452,3.207z"/>
	<path fill="#D09F78" d="M-55.662-14.727c0,0,2.928,2.276,3.242,6.824c0,0,0.97-7.794-1.949-11.044L-55.662-14.727z"/>
	<path fill="#A8916D" d="M-45.051,12.265l0.771-2.156l12.422-34.729c0,0,31.21,30.117,78.388,4.645l4.542,6.552l5.093-28.003
		L-3.665-60.679l-39.734,14.957c0,0-11.987,11.498-12.729,43.741c-0.108,4.708,0.022,9.858,0.466,15.479"/>
	<path fill="#EAC19C" d="M31.287-29.739c0-5.962-11.392-10.794-25.445-10.794s-25.444,4.832-25.444,10.794
		c0,5.961,11.391,10.793,25.444,10.793S31.287-23.778,31.287-29.739z"/>
	<path fill="none" stroke="#D09F78" stroke-width="1.0887" stroke-miterlimit="10" d="M16.813-25.856c0,0-17.78-3.739-30.385,2.463"
		/>
	<path fill="#A8916D" d="M-6.156,144.716c0,0-33.668,20.503-50.008-14.789c-16.341-35.293-30.132,10.355-30.132,10.355
		s-5.132-14.179,3.241-23.744c8.372-9.564-20.564,18.017-20.976-16.822c-0.41-34.84,3.944,7.983,11.929,3.628
		c7.983-4.354-11.38-34.083,9.047-42.097c0,0-17.661-6.532-20.976,0c0,0,13.346-21.666,43.611-29.618c0,0,13.384,17.279,8.27,47.767
		c-0.997,5.952-7.718,23.934,4.379,23.241c9.965-0.57,14.485-10.849,25.631-9.412c22.217,2.862,28.885,28.991,37.526,15.927
		c8.643-13.064,27.389-18.473,28.239-12.34s4.944-34.051,4.429-44.279c0,0,1.676,39.198,8.785,50.812
		c7.108,11.614,1.301,25.866-5.956,21.643c-7.258-4.223-16.692-4.223-19.597,11.745C28.384,152.7,18.094,152.699-6.156,144.716z"/>
	<path fill="#A8916D" d="M-3.665,115.767c0,0,25.291-40.141-27.027-33.375C-30.692,82.392,0.358,81.038-3.665,115.767z"/>
	<path fill="#A8916D" d="M44.849,119.296c0,0-3.355,36.774,30.538,13.595C75.387,132.891,54.331,144.803,44.849,119.296z"/>
	<path fill="#A8916D" d="M53.119,119.296c0,0,34.544-13.057-1.119-33.41C52,85.886,71.917,99.617,53.119,119.296z"/>
	<path fill="#A8916D" d="M-6.156,140.684c0,0-8.113,34.84-49.207,12.339C-55.363,153.022-26.181,166.088-6.156,140.684z"/>
	<path fill="#A8916D" d="M33.97,158.476c0,0-29.397,20.381-44.758-23.88C-10.788,134.596,2.075,163.868,33.97,158.476z"/>
	
		<line fill="none" stroke="#B2846B" stroke-linecap="round" stroke-linejoin="round" stroke-miterlimit="10" x1="-23.478" y1="25.551" x2="11.165" y2="25.449"/>
	<path fill="#B2846B" d="M2.054,25.726c0-3.217-2.49-5.825-5.562-5.825s-5.562,2.608-5.562,5.825"/>
	
		<line fill="none" stroke="#B2846B" stroke-linecap="round" stroke-linejoin="round" stroke-miterlimit="10" x1="21.263" y1="25.551" x2="49.784" y2="25.449"/>
	<path fill="#B2846B" d="M40.673,25.726c0-3.217-2.49-5.825-5.562-5.825s-5.562,2.608-5.562,5.825"/>
	<g opacity="0.29">
		<path fill="#F5F6F6" d="M-48.396,35.912c-0.142,2.195,1.542,3.919,3.74,3.83l52.022-2.104c2.198-0.089,3.974-1.961,3.945-4.161
			l-0.221-16.873c-0.029-2.2-1.852-4.057-4.051-4.126l-49.819-1.567c-2.199-0.069-4.114,1.67-4.255,3.866L-48.396,35.912z"/>
	</g>
	<g>
		<path fill="none" stroke="#1E1C1D" stroke-width="4.1817" stroke-miterlimit="10" d="M-48.396,35.912
			c-0.142,2.195,1.542,3.919,3.74,3.83l52.022-2.104c2.198-0.089,3.974-1.961,3.945-4.161l-0.221-16.873
			c-0.029-2.2-1.852-4.057-4.051-4.126l-49.819-1.567c-2.199-0.069-4.114,1.67-4.255,3.866L-48.396,35.912z"/>
	</g>
	<g opacity="0.29">
		<path fill="#F5F6F6" d="M60.142,33.768c0.107,2.012-1.452,3.576-3.464,3.478l-34.137-1.676c-2.012-0.099-3.507-1.821-3.321-3.826
			l1.251-13.556c0.186-2.006,1.983-3.712,3.996-3.792l30.915-1.233c2.013-0.08,3.746,1.5,3.854,3.512L60.142,33.768z"/>
	</g>
	<g>
		<path fill="none" stroke="#1E1C1D" stroke-width="4.1817" stroke-miterlimit="10" d="M60.142,33.768
			c0.107,2.012-1.452,3.576-3.464,3.478l-34.137-1.676c-2.012-0.099-3.507-1.821-3.321-3.826l1.251-13.556
			c0.186-2.006,1.983-3.712,3.996-3.792l30.915-1.233c2.013-0.08,3.746,1.5,3.854,3.512L60.142,33.768z"/>
	</g>
	<path fill="#A8916D" d="M-44.266,49.593l0.503-7.724c0,0,37.327,13.221,55.655-1.68l2.139,15.227
		C14.031,55.416-17.827,74.995-44.266,49.593z"/>
	<path fill="#A8916D" d="M52.018,49.933l-0.661-7.712c0,0-22.761,12.76-34.897-2.317L15.805,55.07
		C15.805,55.07,36.617,74.972,52.018,49.933z"/>
	<path fill="none" stroke="#1E1C1D" stroke-width="4.1817" stroke-miterlimit="10" d="M11.165,25.221c0,0,5.258,5.895,8.656,0"/>
	<polygon fill="#1E1C1D" points="-48.652,35.461 -64.56,38.035 -62.146,29.499 -47.982,29.499 	"/>
	<path fill="#EAC19C" d="M-62.85,35.812c0,0-12.238,19.227-32.991,7.208C-121.7,28.032-78.047,13.708-78.047,13.708
		s13.812-4.68,7.95-15.914c-5.879-11.227-6.16-15.467-0.995-17.267c5.165-1.79,16.192,1.257,17.055,8.159
		C-50.28,18.497-62.85,35.812-62.85,35.812z"/>
	<g>
		<path fill="#D09F78" d="M-62.146,15.144c0,0-19.55,38.817-20.908,9.144C-83.055,24.287-78.197,40.584-62.146,15.144z"/>
		<path fill="#D09F78" d="M-61.996,15.031c0,0-14.12,19.521-9.354-4.917C-71.35,10.114-72.41,25.705-61.996,15.031z"/>
	</g>
	<path opacity="0.24" fill="#FFFFFF" d="M-202.752-34.061c0,0,57.705-80.814,194.93-82.32
		c137.225-1.508,210.575,77.868,210.575,77.868S151.661,224.199,3.647,225.82C-144.373,227.446-202.752-34.061-202.752-34.061z"/>
</symbol>
<use xlink:href="#ryan"  width="405.505" height="451.655" x="-202.752" y="-225.827" transform="matrix(1.0615 0 0 -1.0615 241.624 251.6934)" overflow="visible"/>
<g>
</g>
<g>
</g>
<g>
</g>
<g>
</g>
<g>
</g>
<g>
</g>
<g>
</g>
<g>
</g>
<g>
</g>
<g>
</g>
<g>
</g>
</svg>
