<?xml version="1.0" encoding="utf-8"?>
<!-- Generator: Adobe Illustrator 16.0.0, SVG Export Plug-In . SVG Version: 6.00 Build 0)  -->
<!DOCTYPE svg PUBLIC "-//W3C//DTD SVG 1.1//EN" "http://www.w3.org/Graphics/SVG/1.1/DTD/svg11.dtd">
<svg version="1.1" id="Layer_1" xmlns="http://www.w3.org/2000/svg" xmlns:xlink="http://www.w3.org/1999/xlink" x="0px" y="0px"
	 width="609.355px" height="299.946px" viewBox="0 0 609.355 299.946" enable-background="new 0 0 609.355 299.946"
	 xml:space="preserve">
<g>
	<radialGradient id="SVGID_1_" cx="304.0781" cy="107.3203" r="231.3496" gradientUnits="userSpaceOnUse">
		<stop  offset="0" style="stop-color:#752104"/>
		<stop  offset="1" style="stop-color:#3D1004"/>
	</radialGradient>
	<rect x="-3.359" y="-4.604" fill="url(#SVGID_1_)" width="614.875" height="223.85"/>
	<rect y="215.923" fill="#BC9F77" width="609.355" height="83.81"/>
	<rect y="277.725" fill="#9C8156" width="609.355" height="22.008"/>
	<rect y="296.494" fill="#7F6846" width="609.355" height="3.452"/>
	<line fill="none" stroke="#9C8156" stroke-miterlimit="10" x1="0" y1="222.478" x2="609.355" y2="222.478"/>
	<line fill="none" stroke="#9C8156" stroke-miterlimit="10" x1="609.355" y1="272.106" x2="0" y2="272.106"/>
	<path fill="none" stroke="#9C8156" stroke-miterlimit="10" d="M287.844,222.478c0.535,0-12.678,49.629-12.678,49.629"/>
	<path fill="none" stroke="#9C8156" stroke-miterlimit="10" d="M267.463,222.478c0.535,0-25.795,49.629-25.795,49.629"/>
	<path fill="none" stroke="#9C8156" stroke-miterlimit="10" d="M241.982,222.478c0.535,0-43.982,49.629-43.982,49.629"/>
	<path fill="none" stroke="#9C8156" stroke-miterlimit="10" d="M211.629,222.478c0.543,0-74.246,50.711-73.275,49.629"/>
	<path fill="none" stroke="#9C8156" stroke-miterlimit="10" d="M174.985,222.478c0.543,0-101.504,50.711-100.534,49.629"/>
	<path fill="none" stroke="#9C8156" stroke-miterlimit="10" d="M134.214,222.478c0.543,0-128.185,50.711-127.214,49.629"/>
	<path fill="none" stroke="#9C8156" stroke-miterlimit="10" d="M81.699,222.478C55,232,27,240-1.17,249.235"/>
	<g>
		<path fill="none" stroke="#9C8156" stroke-miterlimit="10" d="M308.435,222.478c-0.535,0,12.678,49.629,12.678,49.629"/>
		<path fill="none" stroke="#9C8156" stroke-miterlimit="10" d="M328.815,222.478c-0.535,0,25.795,49.629,25.795,49.629"/>
		<path fill="none" stroke="#9C8156" stroke-miterlimit="10" d="M354.296,222.478c-0.535,0,43.982,49.629,43.982,49.629"/>
		<path fill="none" stroke="#9C8156" stroke-miterlimit="10" d="M384.649,222.478c-0.543,0,74.246,50.711,73.275,49.629"/>
		<path fill="none" stroke="#9C8156" stroke-miterlimit="10" d="M421.293,222.478c-0.543,0,101.504,50.711,100.534,49.629"/>
		<path fill="none" stroke="#9C8156" stroke-miterlimit="10" d="M462.064,222.478c-0.543,0,128.185,50.711,127.214,49.629"/>
		<path fill="none" stroke="#9C8156" stroke-miterlimit="10" d="M514.58,222.478C546,234,578,242,610.23,253.323"/>
	</g>
	<path opacity="0.15" d="M500.954-1.279c0,0-13.218,105.294,83.593,126.872l-13.856,128.995h17.101l12.201-167.899L535.19-1.602
		L500.954-1.279z"/>
	<path fill="#E31F26" d="M519.607-1.602c0,0,3.014,105.23,67.561,125.326l-10.67,130.847h32.979V-1.279L519.607-1.602z"/>
	<path opacity="0.1" fill="#1D1C1A" stroke="#636463" stroke-width="0.6448" stroke-miterlimit="10" d="M535.19-1.602
		c0,0,4.022,92.336,56.202,125.941c0,0-45.244-36.001-46.148-125.941H535.19z"/>
	<path opacity="0.1" fill="#1D1C1A" stroke="#636463" stroke-width="0.604" stroke-miterlimit="10" d="M563.292-1.444
		c0,0-1.334,81.545,29.911,125.784c0,0-24.182-50.475-16.704-125.619L563.292-1.444z"/>
	<path opacity="0.1" fill="#1D1C1A" stroke="#636463" stroke-width="0.4826" stroke-miterlimit="10" d="M588.774-1.113
		c0,0-5.903,80.316,11.218,126.075c0,0-12.487-51.726-3.014-126.285L588.774-1.113z"/>
	<path fill="#F2BD38" d="M609.478,108.997c0,0-8.749,14.889-24.931,13.847C584.547,122.844,601.221,132.763,609.478,108.997z"/>
	<polyline opacity="0.1" fill="#1D1C1A" stroke="#636463" stroke-width="0.6989" stroke-miterlimit="10" points="589.214,126.697 
		584.435,254.593 589.119,254.314 589.119,124.831 	"/>
	<polyline opacity="0.1" fill="#1D1C1A" stroke="#636463" stroke-width="0.699" stroke-miterlimit="10" points="595.12,126.743 
		599.028,254.588 603.707,254.174 594.995,124.882 	"/>
	<path opacity="0.15" d="M107.147-1.279c0,0,13.218,105.294-83.593,126.872L37.41,254.588H20.309L8.108,86.688l64.802-88.29
		L107.147-1.279z"/>
	<path fill="#E31F26" d="M88.494-1.602c0,0-3.014,105.23-67.561,125.326l10.67,130.847H-1.377V-1.279L88.494-1.602z"/>
	<path opacity="0.1" fill="#1D1C1A" stroke="#636463" stroke-width="0.6448" stroke-miterlimit="10" d="M72.911-1.602
		c0,0-4.022,92.336-56.202,125.941c0,0,45.244-36.001,46.148-125.941H72.911z"/>
	<path opacity="0.1" fill="#1D1C1A" stroke="#636463" stroke-width="0.604" stroke-miterlimit="10" d="M44.81-1.444
		c0,0,1.334,81.545-29.911,125.784c0,0,24.182-50.475,16.704-125.619L44.81-1.444z"/>
	<path opacity="0.1" fill="#1D1C1A" stroke="#636463" stroke-width="0.4826" stroke-miterlimit="10" d="M19.327-1.113
		c0,0,5.903,80.316-11.218,126.075c0,0,12.487-51.726,3.014-126.285L19.327-1.113z"/>
	<path fill="#F2BD38" d="M-1.377,108.997c0,0,8.749,14.889,24.931,13.847C23.554,122.844,6.88,132.763-1.377,108.997z"/>
	<polyline opacity="0.1" fill="#1D1C1A" stroke="#636463" stroke-width="0.6989" stroke-miterlimit="10" points="18.887,126.697 
		23.666,254.593 18.982,254.314 18.982,124.831 	"/>
	<polyline opacity="0.1" fill="#1D1C1A" stroke="#636463" stroke-width="0.699" stroke-miterlimit="10" points="12.981,126.743 
		9.073,254.588 4.394,254.174 13.106,124.882 	"/>
	<path opacity="0.1" fill="#FFFFFF" d="M379.137,249.542c0.147-0.078,0.247-0.156,0.247-0.235c0-0.166-0.335-0.329-0.97-0.488
		L36.794-92.926l182.588,341.718c-0.706,0.168-1.09,0.34-1.09,0.515c0,1.737,36.062,3.146,80.546,3.146
		c40.284,0,73.658-1.155,79.603-2.663h0.943L379.137,249.542z"/>
	<path opacity="0.1" fill="#FFFFFF" d="M379.137,249.542c0.147-0.078,0.247-0.156,0.247-0.235c0-0.166-0.335-0.329-0.97-0.488
		L127.961-109.999l91.42,358.791c-0.706,0.168-1.09,0.34-1.09,0.515c0,1.737,36.062,3.146,80.546,3.146
		c40.284,0,73.658-1.155,79.603-2.663h0.943L379.137,249.542z"/>
	<path opacity="0.1" fill="#FFFFFF" d="M198.196,249.579c-0.096,0.058-0.155,0.115-0.172,0.173l-0.037,0.037H198
		c0,1.737,35.485,3.146,79.258,3.146c43.772,0,79.257-1.408,79.257-3.146l182.04-342.715L198.196,249.579z"/>
	<path opacity="0.1" fill="#FFFFFF" d="M198.196,249.579c-0.096,0.058-0.155,0.115-0.172,0.173l-0.037,0.037H198
		c0,1.737,35.485,3.146,79.258,3.146c43.772,0,79.257-1.408,79.257-3.146L468.24-109.999L198.196,249.579z"/>
</g>
</svg>
