<?xml version="1.0" encoding="utf-8"?>
<!-- Generator: Adobe Illustrator 21.1.0, SVG Export Plug-In . SVG Version: 6.00 Build 0)  -->
<!DOCTYPE svg PUBLIC "-//W3C//DTD SVG 1.1//EN" "http://www.w3.org/Graphics/SVG/1.1/DTD/svg11.dtd">
<svg version="1.1" id="logo" xmlns="http://www.w3.org/2000/svg" xmlns:xlink="http://www.w3.org/1999/xlink" x="0px" y="0px"
	 viewBox="0 0 592.5 135.1" style="enable-background:new 0 0 592.5 135.1;" xml:space="preserve">
<style type="text/css">
	.st0{fill:#FFFFFF;}
</style>
<g>
	<path class="st0" d="M288.1,1.5h-39.2c-1.2,0-2.2,1-2.2,2.2v127.2c0,1.2,1,2.2,2.2,2.2h39.2c36.4,0,65.8-29.5,65.8-65.8v0v0
		C353.9,30.9,324.5,1.5,288.1,1.5L288.1,1.5z"/>
	<path class="st0" d="M1.9,133h42.9c1,0,1.9-0.8,1.9-1.9l0,0V87.8c0-1,0.8-1.9,1.9-1.9l0,0h15.3c1,0,1.9-0.8,1.9-1.9l0,0V40.7
		c0-1,0.8-1.9,1.9-1.9l0,0h38.9c1,0,1.9-0.8,1.9-1.9l0,0V3.4c0-1-0.8-1.9-1.9-1.9c0,0,0,0,0,0H1.9C0.8,1.6,0,2.4,0,3.4v0v127.7
		C0,132.2,0.8,133,1.9,133z"/>
	<path class="st0" d="M122.6,1.7v129.6c0,1,0.8,1.9,1.9,1.9l0,0H229c1,0,1.9-0.8,1.9-1.9l0,0V97.8c0-1-0.8-1.9-1.9-1.9l0,0h-38.9
		c-1,0-1.9-0.8-1.9-1.9l0,0V50.7c0-1-0.8-1.9-1.9-1.9l0,0h-15.3c-1,0-1.9-0.8-1.9-1.9l0,0v-6.2c0-1,0.8-1.9,1.9-1.9l0,0H229
		c1,0,1.9-0.8,1.9-1.9l0,0V3.6c0-1-0.8-1.9-1.9-1.9L122.6,1.5L122.6,1.7z"/>
	<g>
		<path class="st0" d="M435.8,59.8l42.6-41.6c0.8-0.8,0.8-2.1-0.1-2.8c-25.4-20.5-62.3-20.5-87.7,0c-0.9,0.7-0.9,2-0.1,2.8
			l42.6,41.6C433.8,60.6,435.1,60.6,435.8,59.8z"/>
		<path class="st0" d="M384,24.5c-0.8-0.8-2.2-0.7-2.9,0.1c-22.4,26.5-20.9,65.8,4.5,90.6c25.4,24.8,65.6,26.3,92.7,4.4
			c0.9-0.7,0.9-2,0.1-2.8L384,24.5z"/>
	</g>
</g>
<g>
	<path class="st0" d="M553.5,59.7l22.2-22.2c0.9-0.9,0.8-2.3-0.3-3.1c-13.9-9.9-32.7-9.9-46.6,0c-1,0.7-1.1,2.2-0.3,3.1l22.2,22.2
		C551.5,60.5,552.7,60.5,553.5,59.7z"/>
	<path class="st0" d="M559.9,68.9l22.2,22.2c0.9,0.9,2.3,0.8,3.1-0.3c9.9-13.9,9.9-32.7,0-46.6c-0.7-1-2.2-1.1-3.1-0.3l-22.2,22.2
		C559.1,66.9,559.1,68.2,559.9,68.9z"/>
	<path class="st0" d="M544.3,66.1l-22.2-22.2c-0.9-0.9-2.3-0.8-3.1,0.3c-9.9,13.9-9.9,32.7,0,46.6c0.7,1,2.2,1.1,3.1,0.3l22.2-22.2
		C545,68.2,545,66.9,544.3,66.1z"/>
	<path class="st0" d="M550.7,75.4l-22.2,22.2c-0.9,0.9-0.8,2.3,0.3,3.1c13.9,9.9,32.7,9.9,46.6,0c1-0.7,1.1-2.2,0.3-3.1l-22.2-22.2
		C552.7,74.6,551.5,74.6,550.7,75.4z"/>
</g>
</svg>
