<?xml version="1.0" encoding="utf-8"?>
<!-- Generator: Adobe Illustrator 23.0.1, SVG Export Plug-In . SVG Version: 6.00 Build 0)  -->
<svg version="1.1" id="Layer_1" xmlns="http://www.w3.org/2000/svg" xmlns:xlink="http://www.w3.org/1999/xlink" x="0px" y="0px"
	 viewBox="0 0 539.1048 131.4263" style="enable-background:new 0 0 539.1048 131.4263;" xml:space="preserve">
<style type="text/css">
	.st0{fill:#FFFFFF;}
	.st1{fill:#FF0000;}
</style>
<path class="st0" d="M231,1v5.8833c0,0.5522-0.4478,1-1,1H124.5v3.8828H230c0.5522,0,1,0.4478,1,1v5.8833c0,0.5522-0.4478,1-1,1
	H124.5v3.8828H230c0.5522,0,1,0.4478,1,1v5.8833c0,0.5522-0.4478,1-1,1H124.5v3.8828H230c0.5522,0,1,0.4478,1,1s-0.4478,1-1,1
	h-60.8999v4.8828c0,0.5522-0.4478,1-1,1H124.5v3.8833h62.8506c0.5522,0,1,0.4478,1,1v5.8828c0,0.5522-0.4478,1-1,1H124.5v3.8833
	h62.8506c0.5522,0,1,0.4478,1,1v5.8828c0,0.5527-0.4478,1-1,1H124.5v3.8828h62.8506c0.5522,0,1,0.4473,1,1v5.8828
	c0,0.5527-0.4478,1-1,1H124.5v3.8838h62.8506c0.5522,0,1,0.4473,1,1v5.8828c0,0.5527-0.4478,1-1,1H124.5v3.8828H230
	c0.5522,0,1,0.4473,1,1v5.8828c0,0.5527-0.4478,1-1,1H124.5v3.8828H230c0.5522,0,1,0.4473,1,1v5.8838c0,0.5527-0.4478,1-1,1H124.5
	v3.8828H230c0.5522,0,1,0.4473,1,1v5.8828c0,0.5527-0.4478,1-1,1H124.5v3.8828H230c0.5522,0,1,0.4473,1,1s-0.4478,1-1,1H123.5
	c-0.5522,0-1-0.4473-1-1v-5.8828c0-0.5527,0.4478-1,1-1H229v-3.8828H123.5c-0.5522,0-1-0.4473-1-1v-5.8828c0-0.5527,0.4478-1,1-1
	H229v-3.8838H123.5c-0.5522,0-1-0.4473-1-1v-5.8828c0-0.5527,0.4478-1,1-1H229v-3.8828H123.5c-0.5522,0-1-0.4473-1-1v-5.8828
	c0-0.5527,0.4478-1,1-1h62.8506v-3.8828H123.5c-0.5522,0-1-0.4473-1-1V77.479c0-0.5527,0.4478-1,1-1h62.8506v-3.8828H123.5
	c-0.5522,0-1-0.4473-1-1v-5.8828c0-0.5522,0.4478-1,1-1h62.8506v-3.8828H123.5c-0.5522,0-1-0.4478-1-1v-5.8833
	c0-0.5522,0.4478-1,1-1h62.8506v-3.8828H123.5c-0.5522,0-1-0.4478-1-1v-5.8833c0-0.5522,0.4478-1,1-1h43.6001v-3.8828H123.5
	c-0.5522,0-1-0.4478-1-1v-5.8828c0-0.5522,0.4478-1,1-1H229v-3.8833H123.5c-0.5522,0-1-0.4478-1-1v-5.8828c0-0.5522,0.4478-1,1-1
	H229v-3.8833H123.5c-0.5522,0-1-0.4478-1-1V6.8833c0-0.5522,0.4478-1,1-1H229V2H123.5c-0.5522,0-1-0.4478-1-1s0.4478-1,1-1H230
	C230.5522,0,231,0.4477,231,1z M352.9004,64.7133H248.7002v-3.8828h103.9482c0.2871,0,0.5605-0.1235,0.75-0.3389
	c0.1904-0.2158,0.2783-0.5024,0.2422-0.7871l-0.748-5.8833c-0.0635-0.4995-0.4883-0.874-0.9922-0.874H248.7002v-3.8828h101.916
	c0.3242,0,0.6289-0.1572,0.8164-0.4219s0.2344-0.6035,0.127-0.9097l-2.0674-5.8833c-0.1406-0.4004-0.5186-0.6685-0.9434-0.6685
	h-99.8486v-3.8828h97.2529c0.3584,0,0.6885-0.1914,0.8672-0.502c0.1787-0.3101,0.1768-0.6924-0.0029-1.0015l-3.4287-5.8828
	c-0.1797-0.3076-0.5088-0.4966-0.8643-0.4966h-93.8242v-3.8833h89.6895c0.3936,0,0.75-0.2305,0.9111-0.5889
	c0.1621-0.3584,0.0986-0.7783-0.1611-1.0732l-5.1953-5.8828c-0.1904-0.2148-0.4629-0.3379-0.75-0.3379h-84.4941v-3.8833h77.4004
	c0.4492,0,0.8428-0.2993,0.9629-0.7319c0.1211-0.4326-0.0615-0.8921-0.4463-1.1245l-9.75-5.8828
	c-0.1562-0.0938-0.335-0.1436-0.5166-0.1436h-67.6504V2h50.0996c0.5527,0,1-0.4478,1-1s-0.4473-1-1-1h-51.0996
	c-0.5527,0-1,0.4478-1,1v5.8833c0,0.5522,0.4473,1,1,1h68.3721l6.4355,3.8828h-74.8076c-0.5527,0-1,0.4478-1,1v5.8833
	c0,0.5522,0.4473,1,1,1h85.043l3.4297,3.8828h-88.4727c-0.5527,0-1,0.4478-1,1v5.8833c0,0.5522,0.4473,1,1,1h94.25l2.2627,3.8828
	h-96.5127c-0.5527,0-1,0.4478-1,1v5.8828c0,0.5522,0.4473,1,1,1h100.1396l1.3652,3.8833H247.7002c-0.5527,0-1,0.4478-1,1v5.8828
	c0,0.5522,0.4473,1,1,1h103.3193l0.4941,3.8833H247.7002c-0.5527,0-1,0.4478-1,1v5.8828c0,0.5527,0.4473,1,1,1h104.1562
	l-0.166,3.8828H247.7002c-0.5527,0-1,0.4473-1,1v5.8828c0,0.5527,0.4473,1,1,1h102.958l-0.8477,3.8838H247.7002
	c-0.5527,0-1,0.4473-1,1v5.8828c0,0.5527,0.4473,1,1,1h99.2461l-1.5957,3.8828h-97.6504c-0.5527,0-1,0.4473-1,1v5.8828
	c0,0.5527,0.4473,1,1,1h92.8232l-2.5068,3.8828h-90.3164c-0.5527,0-1,0.4473-1,1v5.8838c0,0.5527,0.4473,1,1,1h82.5957
	l-4.4141,3.8828h-78.1816c-0.5527,0-1,0.4473-1,1v5.8828c0,0.5527,0.4473,1,1,1h62.707l-11.2744,3.8828h-51.4326
	c-0.5527,0-1,0.4473-1,1s0.4473,1,1,1h51.5996c0.1104,0,0.2207-0.0186,0.3252-0.0547l17.082-5.8828
	c0.4619-0.1592,0.7422-0.6289,0.6611-1.1104s-0.498-0.835-0.9863-0.835h-67.6816v-3.8828h77.5586
	c0.2432,0,0.4775-0.0889,0.6602-0.249l6.6875-5.8828c0.3125-0.2754,0.4219-0.7148,0.2754-1.1035
	c-0.1465-0.3896-0.5195-0.6475-0.9355-0.6475h-84.2461v-3.8838h89.8613c0.3398,0,0.6562-0.1719,0.8398-0.458l3.7979-5.8828
	c0.1992-0.3076,0.2139-0.6992,0.0381-1.0205c-0.1748-0.3213-0.5117-0.5215-0.8779-0.5215h-93.6592v-3.8828h97.3203
	c0.4053,0,0.7705-0.2451,0.9248-0.6201l2.418-5.8828c0.127-0.3086,0.0918-0.6592-0.0938-0.9365s-0.4971-0.4434-0.8311-0.4434
	h-99.7383v-3.8828h101.916c0.4697,0,0.877-0.3271,0.9766-0.7871l1.2842-5.8838c0.0654-0.2949-0.0078-0.6045-0.1973-0.8398
	c-0.1904-0.2363-0.4766-0.373-0.7793-0.373H248.7002v-3.8828h103.9482c0.5352,0,0.9766-0.4219,0.999-0.957l0.252-5.8828
	c0.0117-0.2725-0.0879-0.5381-0.2773-0.7349C353.4336,64.8247,353.1729,64.7133,352.9004,64.7133z M393.0479,13.7661h81.7256
	l-0.2939,3.8833h-80.9912c-0.4062,0-0.7725,0.2461-0.9258,0.623c-0.1533,0.3765-0.0635,0.8086,0.2275,1.0928l6.0273,5.8828
	c0.1865,0.1821,0.4375,0.2842,0.6982,0.2842h67.4805l-3.9971,3.8833h-57.4668c-0.4062,0-0.7725,0.2461-0.9258,0.6226
	s-0.0635,0.8081,0.2266,1.0923l6.0176,5.8828c0.1865,0.1831,0.4375,0.2852,0.6992,0.2852h43.375l-4.0332,3.8828h-33.3037
	c-0.4062,0-0.7725,0.2461-0.9258,0.623c-0.1533,0.3765-0.0635,0.8086,0.2275,1.0928l6.0273,5.8833
	c0.1865,0.1821,0.4375,0.2842,0.6982,0.2842h19.2607l-4.0205,3.8828h-9.168c-0.5527,0-1,0.4478-1,1s0.4473,1,1,1h9.5723
	c0.2588,0,0.5078-0.1006,0.6943-0.2808l6.0908-5.8828c0.2939-0.2832,0.3857-0.7158,0.2324-1.0938
	c-0.1523-0.3779-0.5195-0.6255-0.9268-0.6255h-21.3281l-3.9785-3.8833h31.251c0.2588,0,0.5068-0.1001,0.6934-0.2798l6.1104-5.8828
	c0.2939-0.2827,0.3867-0.7158,0.2344-1.0942s-0.5195-0.626-0.9277-0.626H411.957l-3.9717-3.8828h55.4199
	c0.2598,0,0.5098-0.1016,0.6973-0.2827l6.0547-5.8833c0.292-0.2837,0.3828-0.7163,0.2295-1.0933
	c-0.1533-0.3774-0.5195-0.624-0.9268-0.624h-69.5371l-3.9785-3.8828h79.4629c0.5234,0,0.958-0.4033,0.9971-0.9248l0.4443-5.8833
	c0.0215-0.2773-0.0742-0.5513-0.2637-0.7554c-0.1895-0.2036-0.4551-0.3198-0.7334-0.3198h-79.4033l6.0312-3.8828h64.2285
	c0.4805,0,0.8926-0.3413,0.9824-0.8125c0.0898-0.4717-0.168-0.9404-0.6143-1.1172l-14.8623-5.8833
	C452.0967,0.0239,451.9717,0,451.8457,0h-34.6055c-0.5527,0-1,0.4478-1,1s0.4473,1,1,1h34.415l9.8096,3.8833h-59.2793
	c-0.1924,0-0.3799,0.0552-0.541,0.1592l-9.1377,5.8828c-0.373,0.2402-0.5439,0.6973-0.418,1.123
	C392.2139,13.4736,392.6045,13.7661,393.0479,13.7661z M475.7744,112.4878c-0.1279-0.4219-0.5166-0.71-0.957-0.71h-88.6689
	l-3.4521-3.8838h86.1582c0.4082,0,0.7754-0.248,0.9277-0.626c0.1523-0.3789,0.0596-0.8115-0.2344-1.0947l-6.1104-5.8828
	c-0.1865-0.1787-0.4346-0.2793-0.6934-0.2793h-85.7607l-2.167-3.8828h81.9287c0.4053,0,0.7705-0.2451,0.9248-0.6201
	s0.0664-0.8057-0.2217-1.0908l-5.9453-5.8828c-0.1865-0.1855-0.4395-0.2891-0.7031-0.2891h-79.4902l-1.2139-3.8828h74.5938
	c0.4062,0,0.7725-0.2461,0.9258-0.6221s0.0645-0.8076-0.2256-1.0918l-6-5.8838c-0.1865-0.1836-0.4385-0.2861-0.7002-0.2861h-70.4521
	l-0.5059-3.8828h64.958c0.4062,0,0.7725-0.2461,0.9258-0.6221s0.0645-0.8076-0.2256-1.0918l-6-5.8828
	c-0.1875-0.1836-0.4385-0.2861-0.7002-0.2861h-59.2939l0.1572-3.8828h53.082c0.4062,0,0.7715-0.2456,0.9258-0.6211
	c0.1533-0.376,0.0645-0.8076-0.2246-1.0923l-5.9863-5.8833c-0.1875-0.1836-0.4385-0.2866-0.7012-0.2866h-45.9482l0.915-3.8828
	h39.0166c0.4062,0,0.7725-0.2461,0.9258-0.6226s0.0645-0.8081-0.2266-1.0923l-6.0166-5.8833
	c-0.1865-0.1826-0.4375-0.2852-0.6992-0.2852h-30.2744l1.708-3.8828h22.5488c0.4062,0,0.7725-0.2461,0.9258-0.6226
	s0.0645-0.8081-0.2266-1.0923l-6.0166-5.8828c-0.1865-0.1831-0.4375-0.2852-0.6992-0.2852h-11.8887l2.7607-3.8833h3.1113
	c0.5527,0,1-0.4478,1-1s-0.4473-1-1-1h-3.627c-0.3232,0-0.627,0.1567-0.8154,0.4204l-4.1836,5.8833
	c-0.2168,0.3052-0.2451,0.7056-0.0732,1.0381s0.5146,0.5415,0.8887,0.5415h13.4199l3.9707,3.8828h-20.748
	c-0.3965,0-0.7559,0.2344-0.915,0.5972l-2.5879,5.8828c-0.1367,0.3096-0.1074,0.6665,0.0771,0.9492
	c0.1855,0.2832,0.5,0.4536,0.8379,0.4536h31.3994l3.9707,3.8833h-37.3555c-0.4639,0-0.8672,0.3193-0.9736,0.7705l-1.3857,5.8828
	c-0.0693,0.2979,0,0.6108,0.1895,0.8501c0.1895,0.2397,0.4785,0.3794,0.7842,0.3794h46.8018l3.9512,3.8833h-51.5977
	c-0.5361,0-0.9775,0.4233-0.999,0.9595l-0.2383,5.8833c-0.0107,0.2715,0.0889,0.5361,0.2773,0.7324
	c0.1895,0.1963,0.4492,0.3076,0.7217,0.3076h59.9268l3.96,3.8828h-63.6484c-0.2881,0-0.5615,0.124-0.751,0.3398
	c-0.1904,0.2168-0.2773,0.5039-0.2402,0.7891l0.7666,5.8828c0.0645,0.498,0.4893,0.8711,0.9912,0.8711h70.9219l3.96,3.8838h-73.5059
	c-0.3184,0-0.6172,0.1514-0.8057,0.4072c-0.1885,0.2568-0.2441,0.5879-0.1484,0.8916l1.8389,5.8828
	c0.1299,0.417,0.5166,0.7012,0.9541,0.7012h79.8145l3.9238,3.8828h-81.1992c-0.3545,0-0.6826,0.1875-0.8623,0.4941
	c-0.1797,0.3057-0.1836,0.6836-0.0107,0.9932l3.2832,5.8828c0.1768,0.3164,0.5107,0.5127,0.873,0.5127h85.9443l4.0332,3.8828
	h-85.9043c-0.3936,0-0.751,0.2314-0.9121,0.5898c-0.1611,0.3594-0.0967,0.7803,0.165,1.0742l5.2295,5.8838
	c0.1895,0.2139,0.4609,0.3359,0.7471,0.3359h88.376l1.1768,3.8828h-82.9922c-0.4414,0-0.8301,0.2891-0.957,0.7109
	c-0.1279,0.4219,0.0361,0.8779,0.4033,1.1221l8.8516,5.8828c0.1641,0.1084,0.3564,0.167,0.5537,0.167h61.832l-9.0459,3.8828H414.873
	c-0.5527,0-1,0.4473-1,1s0.4473,1,1,1h39.2295c0.1357,0,0.2695-0.0273,0.3945-0.0811l13.7061-5.8828
	c0.4365-0.1875,0.6807-0.6553,0.585-1.1201s-0.5049-0.7988-0.9795-0.7988h-66.3955l-5.8418-3.8828h81.0283
	c0.3164,0,0.6143-0.1504,0.8027-0.4043c0.1895-0.2539,0.2461-0.583,0.1543-0.8857L475.7744,112.4878z M107.5,2
	c0.5522,0,1-0.4478,1-1s-0.4478-1-1-1H1C0.4478,0,0,0.4477,0,1v5.8833c0,0.5522,0.4478,1,1,1h105.5v3.8828H1c-0.5522,0-1,0.4478-1,1
	v5.8833c0,0.5522,0.4478,1,1,1h105.5v3.8828H1c-0.5522,0-1,0.4478-1,1v5.8833c0,0.5522,0.4478,1,1,1h105.5v3.8828H1
	c-0.5522,0-1,0.4478-1,1v5.8828c0,0.5522,0.4478,1,1,1h62.8462v3.8833H1c-0.5522,0-1,0.4478-1,1v5.8828c0,0.5522,0.4478,1,1,1
	h62.8462v3.8833H1c-0.5522,0-1,0.4478-1,1v5.8828c0,0.5527,0.4478,1,1,1h62.8462v3.8828H1c-0.5522,0-1,0.4473-1,1v5.8828
	c0,0.5527,0.4478,1,1,1h62.8462v3.8838H1c-0.5522,0-1,0.4473-1,1v5.8828c0,0.5527,0.4478,1,1,1h43.6904v3.8828H1
	c-0.5522,0-1,0.4473-1,1v5.8828c0,0.5527,0.4478,1,1,1h43.6904v3.8828H1c-0.5522,0-1,0.4473-1,1v5.8838c0,0.5527,0.4478,1,1,1
	h43.6904v3.8828H1c-0.5522,0-1,0.4473-1,1v5.8828c0,0.5527,0.4478,1,1,1h43.6904v3.8828H1c-0.5522,0-1,0.4473-1,1s0.4478,1,1,1
	h44.6904c0.5522,0,1-0.4473,1-1v-5.8828c0-0.5527-0.4478-1-1-1H2v-3.8828h43.6904c0.5522,0,1-0.4473,1-1v-5.8828
	c0-0.5527-0.4478-1-1-1H2v-3.8838h43.6904c0.5522,0,1-0.4473,1-1v-5.8828c0-0.5527-0.4478-1-1-1H2v-3.8828h43.6904
	c0.5522,0,1-0.4473,1-1v-5.8828c0-0.5527-0.4478-1-1-1H2v-3.8828h62.8462c0.5522,0,1-0.4473,1-1V77.479c0-0.5527-0.4478-1-1-1H2
	v-3.8828h62.8462c0.5522,0,1-0.4473,1-1v-5.8828c0-0.5522-0.4478-1-1-1H2v-3.8828h62.8462c0.5522,0,1-0.4478,1-1v-5.8833
	c0-0.5522-0.4478-1-1-1H2v-3.8828h62.8462c0.5522,0,1-0.4478,1-1v-5.8833c0-0.5522-0.4478-1-1-1H2v-3.8828h105.5
	c0.5522,0,1-0.4478,1-1v-5.8828c0-0.5522-0.4478-1-1-1H2v-3.8833h105.5c0.5522,0,1-0.4478,1-1v-5.8828c0-0.5522-0.4478-1-1-1H2
	v-3.8833h105.5c0.5522,0,1-0.4478,1-1V6.8833c0-0.5522-0.4478-1-1-1H2V2H107.5z"/>
<path class="st1" d="M539.1045,65.6928c0.0107,15.5366-12.6201,28.187-28.1562,28.1978c-0.0068,0-0.0137,0-0.0205,0
	c-15.5283,0-28.167-12.627-28.1777-28.1572c-0.0107-15.5366,12.6201-28.186,28.1562-28.1978c0.0068,0,0.0137,0,0.0205,0
	C526.4551,37.5356,539.0938,50.162,539.1045,65.6928z M537.1045,65.6938c-0.0107-14.4268-11.7529-26.1582-26.1777-26.1582
	c-0.0068,0-0.0117,0-0.0186,0c-14.4346,0.0107-26.1689,11.7627-26.1582,26.1968c0.0107,14.4268,11.7529,26.1582,26.1777,26.1582
	c0.0068,0,0.0117,0,0.0186,0C525.3809,91.8798,537.1152,80.1288,537.1045,65.6938z M533.2383,65.6967
	c0.0049,5.9595-2.3125,11.564-6.5234,15.7817c-4.2109,4.2168-9.8115,6.541-15.7715,6.5459c-0.0049,0-0.0098,0-0.0146,0
	c-1.5742,0-3.1455-0.165-4.6709-0.4893c-0.4619-0.0986-0.792-0.5068-0.792-0.9785V56.5951l-3.8398,0.0024v27.7764
	c0,0.3545-0.1875,0.6816-0.4922,0.8613c-0.3047,0.1816-0.6816,0.1846-0.9922,0.0137c-7.1035-3.9307-11.5195-11.4102-11.5254-19.52
	c-0.0049-5.959,2.3125-11.5635,6.5234-15.7808c4.2109-4.2168,9.8115-6.542,15.7715-6.5464c0.0049,0,0.0098,0,0.0146,0
	c1.5742,0,3.1455,0.1646,4.6709,0.4897c0.4619,0.0981,0.792,0.5059,0.792,0.978V74.831l3.8398-0.002V47.0526
	c0-0.354,0.1875-0.6816,0.4922-0.8613s0.6816-0.1841,0.9922-0.0137C528.8164,50.1073,533.2324,57.5868,533.2383,65.6967z
	 M531.2383,65.6986c-0.0049-6.8013-3.417-13.1152-9.0098-16.8652V75.828c0,0.5518-0.4473,1-0.999,1l-5.8398,0.0039
	c-0.001,0-0.001,0-0.001,0c-0.2646,0-0.5195-0.1055-0.707-0.293s-0.293-0.4414-0.293-0.707V45.6957
	c-1.1387-0.1953-2.2998-0.2939-3.4629-0.2939c-0.0049,0-0.0088,0-0.0127,0c-5.4258,0.0039-10.5254,2.1206-14.3584,5.9595
	c-3.834,3.8394-5.9424,8.9414-5.9385,14.3662c0.0049,6.8008,3.417,13.1143,9.0098,16.8652V55.5985c0-0.5518,0.4473-0.9995,0.999-1
	l5.8398-0.0044h0.001c0.2646,0,0.5195,0.1055,0.707,0.2925c0.1875,0.1875,0.293,0.4424,0.293,0.7075v30.1362
	c1.1426,0.1963,2.2783,0.2705,3.4756,0.2939c5.4258-0.0039,10.5254-2.1201,14.3584-5.959
	C529.1338,76.2255,531.2422,71.1239,531.2383,65.6986z"/>
</svg>
