<?xml version="1.0" encoding="utf-8"?>
<!-- Generator: Adobe Illustrator 22.0.0, SVG Export Plug-In . SVG Version: 6.00 Build 0)  -->
<!DOCTYPE svg PUBLIC "-//W3C//DTD SVG 1.1//EN" "http://www.w3.org/Graphics/SVG/1.1/DTD/svg11.dtd">
<svg version="1.1" xmlns="http://www.w3.org/2000/svg" xmlns:xlink="http://www.w3.org/1999/xlink" x="0px" y="0px"
	 viewBox="0 0 600.7 427.3" style="enable-background:new 0 0 600.7 427.3;" xml:space="preserve">
<style type="text/css">
	.st0{fill:#172628;}
	.st1{fill:none;stroke:#FF0000;stroke-width:2;stroke-linejoin:round;stroke-miterlimit:10;}
	.st2{fill:#FFFFFF;}
	.st3{fill:#FF0000;}
</style>
<g id="Layer_3">
	<rect class="st0" width="600.7" height="427.3"/>
</g>
<g id="Layer_5">
	<polygon class="st1" points="306.2,91.2 239.5,91.2 239.5,157.8 	"/>
	<polygon class="st1" points="272.1,217.8 308.6,217.8 308.6,181.3 	"/>
	<polygon class="st1" points="212.9,328.3 185.2,328.3 185.2,355.9 	"/>
</g>
<g id="logo">
	<g>
		<path class="st2" d="M148.2,194.7h42.9c1,0,1.9-0.8,1.9-1.9l0,0v-43.3c0-1,0.8-1.9,1.9-1.9l0,0h15.3c1,0,1.9-0.8,1.9-1.9l0,0
			v-43.3c0-1,0.8-1.9,1.9-1.9l0,0h38.9c1,0,1.9-0.8,1.9-1.9l0,0V65.1c0-1-0.8-1.9-1.9-1.9l0,0H148.2c-1.1,0.1-1.9,0.9-1.9,1.9l0,0
			v127.7C146.3,193.9,147.1,194.7,148.2,194.7z"/>
		<path class="st2" d="M268.9,63.4V193c0,1,0.8,1.9,1.9,1.9l0,0h104.5c1,0,1.9-0.8,1.9-1.9l0,0v-33.5c0-1-0.8-1.9-1.9-1.9l0,0h-38.9
			c-1,0-1.9-0.8-1.9-1.9l0,0v-43.3c0-1-0.8-1.9-1.9-1.9l0,0h-15.3c-1,0-1.9-0.8-1.9-1.9l0,0v-6.2c0-1,0.8-1.9,1.9-1.9l0,0h58
			c1,0,1.9-0.8,1.9-1.9l0,0V65.3c0-1-0.8-1.9-1.9-1.9l-106.4-0.2V63.4z"/>
		<path class="st2" d="M187.7,209.5h-39.2c-1.2,0-2.2,1-2.2,2.2v127.2c0,1.2,1,2.2,2.2,2.2h39.2c36.4,0,65.8-29.5,65.8-65.8l0,0l0,0
			C253.5,238.9,224.1,209.5,187.7,209.5L187.7,209.5z"/>
		<g>
			<path class="st2" d="M335.4,267.8l42.6-41.6c0.8-0.8,0.8-2.1-0.1-2.8c-25.4-20.5-62.3-20.5-87.7,0c-0.9,0.7-0.9,2-0.1,2.8
				l42.6,41.6C333.4,268.6,334.7,268.6,335.4,267.8z"/>
			<path class="st2" d="M283.6,232.5c-0.8-0.8-2.2-0.7-2.9,0.1c-22.4,26.5-20.9,65.8,4.5,90.6s65.6,26.3,92.7,4.4
				c0.9-0.7,0.9-2,0.1-2.8L283.6,232.5z"/>
		</g>
		<g>
			<g>
				<path class="st3" d="M435.8,170c8,0,15.7,2.4,22.1,7c0,0,0.1,0,0.1,0.1c0,0,0,0,0,0l-22.2,22.2l-22.1-22.1c0,0,0-0.1,0-0.1
					C420.1,172.4,427.8,170,435.8,170 M435.8,168c-8.2,0-16.3,2.5-23.3,7.4c-1,0.7-1.1,2.2-0.3,3.1l22.2,22.2
					c0.4,0.4,0.9,0.6,1.4,0.6c0.5,0,1-0.2,1.4-0.6l22.2-22.2c0.9-0.9,0.8-2.3-0.3-3.1C452.1,170.4,443.9,168,435.8,168L435.8,168z"
					/>
			</g>
			<g>
				<path class="st3" d="M467.2,186.4C467.2,186.4,467.2,186.4,467.2,186.4C467.2,186.4,467.2,186.4,467.2,186.4
					c9.5,13.2,9.5,31,0,44.3c0,0-0.1,0.1-0.1,0.1c0,0,0,0,0,0L445,208.5L467.2,186.4C467.1,186.4,467.2,186.4,467.2,186.4
					 M467.2,184.4c-0.5,0-1,0.2-1.4,0.5l-22.2,22.2c-0.8,0.8-0.8,2.1,0,2.8l22.2,22.2c0.4,0.4,0.9,0.6,1.4,0.6
					c0.6,0,1.2-0.3,1.7-0.9c9.9-13.9,9.9-32.7,0-46.6C468.5,184.6,467.8,184.4,467.2,184.4L467.2,184.4z"/>
			</g>
			<g>
				<path class="st3" d="M404.4,186.3L404.4,186.3l22.1,22.1c0,0,0,0.1,0,0.1l-22.1,22.1c0,0-0.1,0-0.1,0c0,0,0,0,0,0c0,0,0,0,0,0
					C394.9,217.4,394.9,199.6,404.4,186.3C404.3,186.3,404.3,186.3,404.4,186.3 M404.3,184.3c-0.6,0-1.2,0.3-1.7,0.9
					c-9.9,13.9-9.9,32.7,0,46.6c0.4,0.6,1,0.8,1.7,0.8c0.5,0,1-0.2,1.4-0.5l22.2-22.2c0.7-0.7,0.7-2,0-2.8l-22.2-22.2
					C405.4,184.5,404.9,184.3,404.3,184.3L404.3,184.3z"/>
			</g>
			<g>
				<path class="st3" d="M435.8,217.8l22.1,22.1c0,0,0,0.1,0,0.1c-6.5,4.6-14.1,7.1-22.1,7.1s-15.7-2.4-22.1-7c0,0-0.1,0-0.1-0.1
					c0,0,0,0,0,0L435.8,217.8 M435.8,215.8c-0.5,0-1,0.2-1.4,0.6l-22.2,22.2c-0.9,0.9-0.8,2.3,0.3,3.1c7,4.9,15.1,7.4,23.3,7.4
					s16.3-2.5,23.3-7.4c1-0.7,1.1-2.2,0.3-3.1l-22.2-22.2C436.8,216,436.3,215.8,435.8,215.8L435.8,215.8z"/>
			</g>
		</g>
	</g>
</g>
<g id="Layer_4">
	<polygon class="st1" points="302.2,165.7 390.8,165.7 390.8,77 	"/>
	<polygon class="st1" points="253,226.5 253,178.8 205.3,178.8 	"/>
	<polygon class="st1" points="284.2,78.7 311.9,78.7 311.9,51 	"/>
	<polygon class="st1" points="189.9,257.8 162.2,257.8 162.2,285.4 	"/>
	<polygon class="st1" points="131.5,159 131.5,247.7 220.2,247.7 	"/>
	<polygon class="st1" points="218.7,77.2 169,77.2 169,126.8 	"/>
	<polygon class="st1" points="327.7,294.2 261,294.2 261,360.8 	"/>
	<polygon class="st1" points="372.2,281.8 372.2,232.2 322.5,232.2 	"/>
</g>
<g id="Layer_6">
	<path class="st2" d="M148.2,194.7h42.9c1,0,1.9-0.8,1.9-1.9l0,0l-46.7-44.3v44.3C146.3,193.9,147.1,194.7,148.2,194.7z"/>
	<polyline class="st1" points="288.5,217.8 308.6,217.8 308.6,201 	"/>
	<path class="st2" d="M317.3,100.5L317.3,100.5h58c1,0,1.9-0.8,1.9-1.9l0,0V65.3c0-1-0.8-1.9-1.9-1.9"/>
</g>
</svg>
