<?xml version="1.0" encoding="utf-8"?>
<!-- Generator: Adobe Illustrator 22.0.0, SVG Export Plug-In . SVG Version: 6.00 Build 0)  -->
<!DOCTYPE svg PUBLIC "-//W3C//DTD SVG 1.1//EN" "http://www.w3.org/Graphics/SVG/1.1/DTD/svg11.dtd">
<svg version="1.1" xmlns="http://www.w3.org/2000/svg" xmlns:xlink="http://www.w3.org/1999/xlink" x="0px" y="0px"
	 viewBox="0 0 592.5 135.1" style="enable-background:new 0 0 592.5 135.1;" xml:space="preserve">
<style type="text/css">
	.st0{opacity:0.43;}
	.st1{fill:#57D4FF;}
	.st2{fill:none;stroke:#FF0000;stroke-linejoin:bevel;stroke-miterlimit:10;}
</style>
<g id="logo">
	<g class="st0">
		<path class="st1" d="M288.1,1.5h-39.2c-1.2,0-2.2,1-2.2,2.2v127.2c0,1.2,1,2.2,2.2,2.2h39.2c36.4,0,65.8-29.5,65.8-65.8l0,0l0,0
			C353.9,30.9,324.5,1.5,288.1,1.5L288.1,1.5z"/>
		<path class="st1" d="M1.9,133h42.9c1,0,1.9-0.8,1.9-1.9l0,0V87.8c0-1,0.8-1.9,1.9-1.9l0,0h15.3c1,0,1.9-0.8,1.9-1.9l0,0V40.7
			c0-1,0.8-1.9,1.9-1.9l0,0h38.9c1,0,1.9-0.8,1.9-1.9l0,0V3.4c0-1-0.8-1.9-1.9-1.9l0,0H1.9C0.8,1.6,0,2.4,0,3.4l0,0v127.7
			C0,132.2,0.8,133,1.9,133z"/>
		<path class="st1" d="M122.6,1.7v129.6c0,1,0.8,1.9,1.9,1.9l0,0H229c1,0,1.9-0.8,1.9-1.9l0,0V97.8c0-1-0.8-1.9-1.9-1.9l0,0h-38.9
			c-1,0-1.9-0.8-1.9-1.9l0,0V50.7c0-1-0.8-1.9-1.9-1.9l0,0H171c-1,0-1.9-0.8-1.9-1.9l0,0v-6.2c0-1,0.8-1.9,1.9-1.9l0,0h58
			c1,0,1.9-0.8,1.9-1.9l0,0V3.6c0-1-0.8-1.9-1.9-1.9L122.6,1.5V1.7z"/>
		<g>
			<path class="st1" d="M435.8,59.8l42.6-41.6c0.8-0.8,0.8-2.1-0.1-2.8c-25.4-20.5-62.3-20.5-87.7,0c-0.9,0.7-0.9,2-0.1,2.8
				l42.6,41.6C433.8,60.6,435.1,60.6,435.8,59.8z"/>
			<path class="st1" d="M384,24.5c-0.8-0.8-2.2-0.7-2.9,0.1c-22.4,26.5-20.9,65.8,4.5,90.6s65.6,26.3,92.7,4.4
				c0.9-0.7,0.9-2,0.1-2.8L384,24.5z"/>
		</g>
	</g>
	<g class="st0">
		<path class="st1" d="M553.5,59.7l22.2-22.2c0.9-0.9,0.8-2.3-0.3-3.1c-13.9-9.9-32.7-9.9-46.6,0c-1,0.7-1.1,2.2-0.3,3.1l22.2,22.2
			C551.5,60.5,552.7,60.5,553.5,59.7z"/>
		<path class="st1" d="M559.9,68.9l22.2,22.2c0.9,0.9,2.3,0.8,3.1-0.3c9.9-13.9,9.9-32.7,0-46.6c-0.7-1-2.2-1.1-3.1-0.3l-22.2,22.2
			C559.1,66.9,559.1,68.2,559.9,68.9z"/>
		<path class="st1" d="M544.3,66.1l-22.2-22.2c-0.9-0.9-2.3-0.8-3.1,0.3c-9.9,13.9-9.9,32.7,0,46.6c0.7,1,2.2,1.1,3.1,0.3l22.2-22.2
			C545,68.2,545,66.9,544.3,66.1z"/>
		<path class="st1" d="M550.7,75.4l-22.2,22.2c-0.9,0.9-0.8,2.3,0.3,3.1c13.9,9.9,32.7,9.9,46.6,0c1-0.7,1.1-2.2,0.3-3.1l-22.2-22.2
			C552.7,74.6,551.5,74.6,550.7,75.4z"/>
	</g>
</g>
<g id="Layer_2">
	<g>
		<polygon class="st2" points="-0.1,19.7 18.1,19.7 18.1,1.5 		"/>
		<polygon class="st2" points="18,19.7 36.2,19.7 36.2,1.5 		"/>
		<polygon class="st2" points="36.1,19.7 54.3,19.7 54.3,1.5 		"/>
		<polygon class="st2" points="54.2,19.7 72.3,19.7 72.3,1.5 		"/>
		<polygon class="st2" points="72.3,19.7 90.4,19.7 90.4,1.5 		"/>
		<polygon class="st2" points="90.4,19.7 108.5,19.7 108.5,1.5 		"/>
	</g>
	<polygon class="st2" points="246.4,17.9 262.9,17.9 262.9,1.5 	"/>
	<polygon class="st2" points="262.8,17.9 279.2,17.9 279.2,1.5 	"/>
	<polygon class="st2" points="279.2,17.9 295.6,17.9 295.6,1.5 	"/>
	<polygon class="st2" points="246.4,34.4 262.9,34.4 262.9,17.9 	"/>
	<polygon class="st2" points="262.8,34.4 279.2,34.4 279.2,17.9 	"/>
	<polygon class="st2" points="279.2,34.4 295.6,34.4 295.6,17.9 	"/>
	<g>
		<polygon class="st2" points="312,26.1 320.2,26.1 320.2,17.9 		"/>
		<polygon class="st2" points="320.2,26.1 328.4,26.1 328.4,17.9 		"/>
		<polygon class="st2" points="312,34.3 320.2,34.3 320.2,26.1 		"/>
		<polygon class="st2" points="320.2,34.3 328.4,34.3 328.4,26.1 		"/>
	</g>
	<g>
		<polygon class="st2" points="328.4,26.1 336.6,26.1 336.6,17.9 		"/>
		<polygon class="st2" points="336.6,26.1 344.7,26.1 344.7,17.9 		"/>
		<polygon class="st2" points="328.4,34.3 336.6,34.3 336.6,26.1 		"/>
		<polygon class="st2" points="336.6,34.3 344.7,34.3 344.7,26.1 		"/>
	</g>
	<g>
		<polygon class="st2" points="328.4,42.6 336.6,42.6 336.6,34.4 		"/>
		<polygon class="st2" points="336.6,42.6 344.7,42.6 344.7,34.4 		"/>
		<polygon class="st2" points="328.4,50.8 336.6,50.8 336.6,42.6 		"/>
		<polygon class="st2" points="336.6,50.8 344.7,50.8 344.7,42.6 		"/>
	</g>
	<g>
		<polygon class="st2" points="344.8,42.6 353,42.6 353,34.4 		"/>
		<polygon class="st2" points="353,42.6 361.2,42.6 361.2,34.4 		"/>
		<polygon class="st2" points="344.8,50.8 353,50.8 353,42.6 		"/>
		<polygon class="st2" points="353,50.8 361.2,50.8 361.2,42.6 		"/>
	</g>
	<g>
		<polygon class="st2" points="344.8,59 353,59 353,50.8 		"/>
		<polygon class="st2" points="353,59 361.2,59 361.2,50.8 		"/>
		<polygon class="st2" points="344.8,67.2 353,67.2 353,59 		"/>
		<polygon class="st2" points="353,67.2 361.2,67.2 361.2,59 		"/>
	</g>
	<g>
		<polygon class="st2" points="344.8,75.4 353,75.4 353,67.2 		"/>
		<polygon class="st2" points="353,75.4 361.2,75.4 361.2,67.2 		"/>
		<polygon class="st2" points="344.8,83.6 353,83.6 353,75.4 		"/>
		<polygon class="st2" points="353,83.6 361.2,83.6 361.2,75.4 		"/>
	</g>
	<g>
		<polygon class="st2" points="328.3,75.4 336.5,75.4 336.5,67.2 		"/>
		<polygon class="st2" points="336.5,75.4 344.6,75.4 344.6,67.2 		"/>
		<polygon class="st2" points="328.3,83.6 336.5,83.6 336.5,75.4 		"/>
		<polygon class="st2" points="336.5,83.6 344.6,83.6 344.6,75.4 		"/>
	</g>
	<g>
		<polygon class="st2" points="344.8,91.8 353,91.8 353,83.6 		"/>
		<polygon class="st2" points="353,91.8 361.2,91.8 361.2,83.6 		"/>
		<polygon class="st2" points="344.8,100 353,100 353,91.8 		"/>
		<polygon class="st2" points="353,100 361.2,100 361.2,91.8 		"/>
	</g>
	<g>
		<polygon class="st2" points="328.3,91.8 336.5,91.8 336.5,83.6 		"/>
		<polygon class="st2" points="336.5,91.8 344.6,91.8 344.6,83.6 		"/>
		<polygon class="st2" points="328.3,100 336.5,100 336.5,91.8 		"/>
		<polygon class="st2" points="336.5,100 344.6,100 344.6,91.8 		"/>
	</g>
	<g>
		<polygon class="st2" points="344.8,108.2 353,108.2 353,100 		"/>
		<polygon class="st2" points="353,108.2 361.2,108.2 361.2,100 		"/>
		<polygon class="st2" points="344.8,116.4 353,116.4 353,108.2 		"/>
		<polygon class="st2" points="353,116.4 361.2,116.4 361.2,108.2 		"/>
	</g>
	<g>
		<polygon class="st2" points="328.3,108.2 336.5,108.2 336.5,100 		"/>
		<polygon class="st2" points="336.5,108.2 344.6,108.2 344.6,100 		"/>
		<polygon class="st2" points="328.3,116.4 336.5,116.4 336.5,108.2 		"/>
		<polygon class="st2" points="336.5,116.4 344.6,116.4 344.6,108.2 		"/>
	</g>
	<polygon class="st2" points="295.5,34.4 312,34.4 312,17.9 	"/>
	<polygon class="st2" points="246.4,50.8 262.9,50.8 262.9,34.3 	"/>
	<polygon class="st2" points="262.8,50.8 279.2,50.8 279.2,34.3 	"/>
	<polygon class="st2" points="279.2,50.8 295.6,50.8 295.6,34.3 	"/>
	<polygon class="st2" points="295.5,50.8 312,50.8 312,34.3 	"/>
	<polygon class="st2" points="311.9,50.8 328.4,50.8 328.4,34.3 	"/>
	<line class="st2" x1="328.3" y1="50.8" x2="344.8" y2="50.8"/>
	<polygon class="st2" points="246.4,67.2 262.9,67.2 262.9,50.7 	"/>
	<polygon class="st2" points="262.8,67.2 279.2,67.2 279.2,50.7 	"/>
	<polygon class="st2" points="279.2,67.2 295.6,67.2 295.6,50.7 	"/>
	<polygon class="st2" points="295.5,67.2 312,67.2 312,50.7 	"/>
	<polygon class="st2" points="311.9,67.2 328.4,67.2 328.4,50.7 	"/>
	<polygon class="st2" points="328.3,67.2 344.8,67.2 344.8,50.7 	"/>
	<polygon class="st2" points="246.4,83.6 262.9,83.6 262.9,67.1 	"/>
	<polygon class="st2" points="262.8,83.6 279.2,83.6 279.2,67.1 	"/>
	<polygon class="st2" points="279.2,83.6 295.6,83.6 295.6,67.1 	"/>
	<polygon class="st2" points="295.5,83.6 312,83.6 312,67.1 	"/>
	<polygon class="st2" points="311.9,83.6 328.4,83.6 328.4,67.1 	"/>
	<polygon class="st2" points="246.4,100 262.9,100 262.9,83.5 	"/>
	<polygon class="st2" points="262.8,100 279.2,100 279.2,83.5 	"/>
	<polygon class="st2" points="279.2,100 295.6,100 295.6,83.5 	"/>
	<polygon class="st2" points="295.5,100 312,100 312,83.5 	"/>
	<polygon class="st2" points="311.9,100 328.4,100 328.4,83.5 	"/>
	<polygon class="st2" points="246.4,116.4 262.9,116.4 262.9,99.9 	"/>
	<polygon class="st2" points="262.8,116.4 279.2,116.4 279.2,99.9 	"/>
	<polygon class="st2" points="279.2,116.4 295.6,116.4 295.6,99.9 	"/>
	<polygon class="st2" points="295.5,116.4 312,116.4 312,99.9 	"/>
	<polygon class="st2" points="246.4,132.8 262.9,132.8 262.9,116.3 	"/>
	<polygon class="st2" points="262.8,132.8 279.2,132.8 279.2,116.3 	"/>
	<polygon class="st2" points="279.2,132.8 295.6,132.8 295.6,116.3 	"/>
	<g>
		<polygon class="st2" points="-0.1,38.2 18.1,38.2 18.1,20 		"/>
		<polygon class="st2" points="18,38.2 36.2,38.2 36.2,20 		"/>
		<polygon class="st2" points="36.1,38.2 54.3,38.2 54.3,20 		"/>
		<polygon class="st2" points="54.2,38.2 72.3,38.2 72.3,20 		"/>
		<polygon class="st2" points="72.3,38.2 90.4,38.2 90.4,20 		"/>
		<polygon class="st2" points="90.4,38.2 108.5,38.2 108.5,20 		"/>
	</g>
	<g>
		<polygon class="st2" points="-0.1,101.3 15.5,101.3 15.5,85.7 		"/>
		<polygon class="st2" points="15.4,101.3 31,101.3 31,85.7 		"/>
		<polygon class="st2" points="30.9,101.3 46.5,101.3 46.5,85.7 		"/>
	</g>
	<g>
		<polygon class="st2" points="-0.1,117.2 15.5,117.2 15.5,101.7 		"/>
		<polygon class="st2" points="15.4,117.2 31,117.2 31,101.7 		"/>
		<polygon class="st2" points="30.9,117.2 46.5,117.2 46.5,101.7 		"/>
	</g>
	<g>
		<polygon class="st2" points="-0.1,133.2 15.5,133.2 15.5,117.6 		"/>
		<polygon class="st2" points="15.4,133.2 31,133.2 31,117.6 		"/>
		<polygon class="st2" points="30.9,133.2 46.5,133.2 46.5,117.6 		"/>
	</g>
	<g>
		<polygon class="st2" points="-0.1,55 16.4,55 16.4,38.6 		"/>
		<polygon class="st2" points="16.3,55 32.8,55 32.8,38.6 		"/>
		<polygon class="st2" points="32.7,55 49.2,55 49.2,38.6 		"/>
		<polygon class="st2" points="49.1,55 65.6,55 65.6,38.6 		"/>
	</g>
	<g>
		<polygon class="st2" points="-0.1,71.9 16.4,71.9 16.4,55.4 		"/>
		<polygon class="st2" points="16.3,71.9 32.8,71.9 32.8,55.4 		"/>
		<polygon class="st2" points="32.7,71.9 49.2,71.9 49.2,55.4 		"/>
		<polygon class="st2" points="49.1,71.9 65.6,71.9 65.6,55.4 		"/>
	</g>
	<g>
		<polygon class="st2" points="-0.1,85.4 13,85.4 13,72.2 		"/>
		<polygon class="st2" points="13,85.4 26.1,85.4 26.1,72.2 		"/>
		<polygon class="st2" points="26.1,85.4 39.2,85.4 39.2,72.2 		"/>
		<polygon class="st2" points="39.1,85.4 52.2,85.4 52.2,72.2 		"/>
		<polygon class="st2" points="52.3,85.4 65.4,85.4 65.4,72.2 		"/>
	</g>
	<polygon class="st2" points="158.8,19.7 176.9,19.7 176.9,1.5 	"/>
	<polygon class="st2" points="176.9,19.7 195,19.7 195,1.5 	"/>
	<polygon class="st2" points="195,19.7 213.1,19.7 213.1,1.5 	"/>
	<polygon class="st2" points="213,19.7 231.2,19.7 231.2,1.5 	"/>
	<g>
		<polygon class="st2" points="140.9,10.5 149.9,10.5 149.9,1.5 		"/>
		<polygon class="st2" points="149.8,10.5 158.9,10.5 158.9,1.5 		"/>
		<polygon class="st2" points="140.9,19.7 149.9,19.7 149.9,10.7 		"/>
		<polygon class="st2" points="149.8,19.7 158.9,19.7 158.9,10.7 		"/>
	</g>
	<g>
		<polygon class="st2" points="140.9,29 149.9,29 149.9,20 		"/>
		<polygon class="st2" points="149.8,29 158.9,29 158.9,20 		"/>
		<polygon class="st2" points="140.9,38.1 149.9,38.1 149.9,29.1 		"/>
		<polygon class="st2" points="149.8,38.1 158.9,38.1 158.9,29.1 		"/>
	</g>
	<g>
		<polygon class="st2" points="122.9,10.5 131.9,10.5 131.9,1.5 		"/>
		<polygon class="st2" points="131.8,10.5 140.9,10.5 140.9,1.5 		"/>
		<polygon class="st2" points="122.9,19.7 131.9,19.7 131.9,10.7 		"/>
		<polygon class="st2" points="131.8,19.7 140.9,19.7 140.9,10.7 		"/>
	</g>
	<g>
		<polygon class="st2" points="122.9,29 131.9,29 131.9,20 		"/>
		<polygon class="st2" points="131.8,29 140.9,29 140.9,20 		"/>
		<polygon class="st2" points="122.9,38.1 131.9,38.1 131.9,29.1 		"/>
		<polygon class="st2" points="131.8,38.1 140.9,38.1 140.9,29.1 		"/>
	</g>
	<polygon class="st2" points="158.8,38.1 176.9,38.1 176.9,19.9 	"/>
	<polygon class="st2" points="176.9,38.1 195,38.1 195,19.9 	"/>
	<polygon class="st2" points="195,38.1 213.1,38.1 213.1,19.9 	"/>
	<polygon class="st2" points="213,38.1 231.2,38.1 231.2,19.9 	"/>
	<g>
		<polygon class="st2" points="122.6,114.5 140.8,114.5 140.8,96.3 		"/>
		<polygon class="st2" points="140.7,114.5 158.9,114.5 158.9,96.3 		"/>
		<polygon class="st2" points="158.8,114.5 176.9,114.5 176.9,96.3 		"/>
		<polygon class="st2" points="176.9,114.5 195,114.5 195,96.3 		"/>
		<polygon class="st2" points="195,114.5 213.1,114.5 213.1,96.3 		"/>
		<polygon class="st2" points="213,114.5 231.2,114.5 231.2,96.3 		"/>
	</g>
	<g>
		<polygon class="st2" points="122.6,133 140.8,133 140.8,114.8 		"/>
		<polygon class="st2" points="140.7,133 158.9,133 158.9,114.8 		"/>
		<polygon class="st2" points="158.8,133 176.9,133 176.9,114.8 		"/>
		<polygon class="st2" points="176.9,133 195,133 195,114.8 		"/>
		<polygon class="st2" points="195,133 213.1,133 213.1,114.8 		"/>
		<polygon class="st2" points="213,133 231.2,133 231.2,114.8 		"/>
	</g>
	<g>
		<polygon class="st2" points="122.6,49.2 133.4,49.2 133.4,38.4 		"/>
		<polygon class="st2" points="133.4,49.2 144.2,49.2 144.2,38.4 		"/>
		<polygon class="st2" points="144.1,49.2 154.9,49.2 154.9,38.4 		"/>
		<polygon class="st2" points="154.9,49.2 165.7,49.2 165.7,38.4 		"/>
	</g>
	<g>
		<polygon class="st2" points="122.6,65.9 139.1,65.9 139.1,49.5 		"/>
		<polygon class="st2" points="139,65.9 155.5,65.9 155.5,49.5 		"/>
		<polygon class="st2" points="155.4,65.9 171.9,65.9 171.9,49.5 		"/>
		<polygon class="st2" points="171.8,65.9 188.2,65.9 188.2,49.5 		"/>
	</g>
	<g>
		<polygon class="st2" points="122.6,82.7 139.1,82.7 139.1,66.2 		"/>
		<polygon class="st2" points="139,82.7 155.5,82.7 155.5,66.2 		"/>
		<polygon class="st2" points="155.4,82.7 171.9,82.7 171.9,66.2 		"/>
		<polygon class="st2" points="171.8,82.7 188.2,82.7 188.2,66.2 		"/>
	</g>
	<g>
		<polygon class="st2" points="122.6,96.1 135.7,96.1 135.7,82.9 		"/>
		<polygon class="st2" points="135.7,96.1 148.8,96.1 148.8,82.9 		"/>
		<polygon class="st2" points="148.7,96.1 161.9,96.1 161.9,82.9 		"/>
		<polygon class="st2" points="161.8,96.1 174.9,96.1 174.9,82.9 		"/>
		<polygon class="st2" points="175,96.1 188.1,96.1 188.1,82.9 		"/>
	</g>
</g>
</svg>
