<?xml version="1.0" encoding="utf-8"?>
<!-- Generator: Adobe Illustrator 16.0.0, SVG Export Plug-In . SVG Version: 6.00 Build 0)  -->
<!DOCTYPE svg PUBLIC "-//W3C//DTD SVG 1.1//EN" "http://www.w3.org/Graphics/SVG/1.1/DTD/svg11.dtd">
<svg version="1.1" id="Layer_1" xmlns="http://www.w3.org/2000/svg" xmlns:xlink="http://www.w3.org/1999/xlink" x="0px" y="0px"
	 width="480px" height="500px" viewBox="0 0 480 500" enable-background="new 0 0 480 500" xml:space="preserve">
<path fill="#E0B069" d="M153.002,125.524c0,0-7.656-14.217,1.72-22.437l3.99,11.218l-2.581,11.218l-3.981,0.421"/>
<path fill="#E0B069" d="M124.842,182.6c0,0-25.546,28.862,14.217,44.256l-3.175-27.877L124.842,182.6z"/>
<ellipse fill="#CA9D69" cx="266.662" cy="105.351" rx="92.083" ry="86.961"/>
<g>
	<path fill="#CA9D69" d="M259.576,42.452c-24.335-19.466-84.11-0.893-99.48,26.432c-7.401,13.093-4.555,28.464-5.692,43.264
		c-1.139,16.509-7.401,30.172-16.509,43.834c-7.401,12.523-16.509,25.617-13.663,40.987c2.847,14.231,14.231,26.186,19.924,39.848
		c10.817,23.341-3.415,66.604,21.632,81.406c22.201,13.094,59.773,7.399,84.821,5.124c22.771-1.708,46.112-15.371,66.035-25.617
		c10.817-5.693,23.341-12.524,27.325-25.049c3.985-11.954,0-25.617,1.707-37.572c3.416-32.448,37.572-53.51,37.002-85.39
		c-0.567-27.894-23.339-64.896-45.54-80.836c-24.479-17.647-60.912-25.048-90.515-27.324c-2.846,0-7.665,2.112-9.943,2.112"/>
</g>
<g>
	<path fill="#CA9D69" d="M346.435,226.856c-6.243,17.066-9.017,35.304-4.762,53.185c3.454,14.51,14.944,26.356,15.968,41.471
		c0.763,11.264-4.624,21.189-12.041,29.298c-12.349,13.499-32.71,23.254-50.751,15.495c-4.962-2.133-9.258-5.471-13.542-8.697
		c-3.971-2.992-7.122-6.876-11.562-9.253c6.787,0.68,14.977,3.177,20.998-1.639c6.658-5.448,5.448-13.923-2.422-16.95
		c-12.712-4.843-33.294,7.869-45.401,10.896c-26.03,7.264-82.773-9.714-96.091-36.954c-6.659-13.316-0.225-27.969,4.618-41.893
		c3.027-9.079,19.438-4.086,24.281-12.561c0.605-1.815,3.025-5.448,0.605-1.815"/>
</g>
<path fill="none" stroke="#98714A" stroke-width="3" stroke-linecap="round" stroke-linejoin="round" stroke-miterlimit="10" d="
	M310.662,189.313c-12.378,14.513-22.195,42.685-17.499,61.893c2.624,10.738,7.637,20.749,15.516,28.582
	c8.575,8.524,20.175,14.734,26.246,25.493c5.877,10.417,7.288,22.542,2.201,33.617c-4.792,10.441-19.614,20.689-30.509,12.615
	c-3.89-2.885-8.337-11.87-4.207-16.058c5.593-5.671,19.499,5.532,12.521,8.801"/>
<path fill="none" stroke="#98714A" stroke-width="3" stroke-linecap="round" stroke-linejoin="round" stroke-miterlimit="10" d="
	M269.26,241.815c13.615,9.219,23.666,21.326,25.184,38.376c0.7,7.866-2.595,14.889-7.443,20.876
	c-4.394,5.427-12.311,10.99-12.62,18.635c-0.386,9.526,12.474,8.532,13.66,0.226"/>
<g>
	<path fill="#E1EDC2" d="M217.931,231.551c0,0-26.043,21.439-34.853,40.2c0.759,0.323,1.51,0.689,2.244,1.116
		c1.397,0.704,2.792,1.819,4.05,3.088c1.542-9.141,11.839-22.953,38.749-43.837L217.931,231.551z"/>
	<path fill="#E1EDC2" d="M189.801,274.06c-2.27-0.517-4.478-1.415-6.524-2.741c-7.154,14.834,6.552,27.955,31.355,27.951
		c-0.568-2.155,0.786-4.167,2.912-5.635C207.136,293.291,185.134,290.625,189.801,274.06z"/>
	<path fill="#E1EDC2" d="M243.496,233.689c0,0,27.465,19.586,37.554,37.686c-0.735,0.38-1.461,0.797-2.162,1.27
		c-1.338,0.809-2.658,2.014-3.823,3.36c-2.171-9.009-13.396-22.073-41.697-41.038L243.496,233.689z"/>
	<path fill="#E1EDC2" d="M274.504,274.146c2.233-0.673,4.364-1.722,6.322-3.184c8.162,14.298-4.597,28.341-29.344,30.06
		c0.413-2.193-1.075-4.11-3.3-5.422C258.549,294.536,280.312,290.351,274.504,274.146z"/>
	<polygon fill="#231F20" points="251.729,306.684 210.141,304.733 211.635,484.973 215.192,484.656 214.296,326.193 
		246.366,323.604 247.265,484.656 250.69,484.89 	"/>
	<path opacity="0.15" fill="#211F1F" d="M237.447,488.804c-82.581,0-149.528,0.974-149.528,2.169
		c0,1.208,66.947,2.176,149.528,2.176c82.591,0,149.554-0.968,149.554-2.176C387.001,489.777,320.038,488.804,237.447,488.804z"/>
	<polyline fill="#E1EDC2" points="258.326,243.812 255.427,316.16 209.256,316.16 204.161,241.874 	"/>
	<path fill="#09080A" d="M250.533,484.857c0,0,2.931,4.635,9.979,4.635l0.195,1.443c0,0-9.044,0.713-11.766-3.61l0.186,3.301
		l-3.018-0.315l0.948-5.977L250.533,484.857z"/>
	<path fill="#09080A" d="M212.271,484.857c0,0-2.928,4.635-9.977,4.635l-0.199,1.443c0,0,9.042,0.713,11.76-3.61l-0.181,3.301
		l3.012-0.315l-0.945-5.977L212.271,484.857z"/>
	<polygon fill="#09080A" points="215.845,484.973 216.687,427.486 211.131,427.486 211.491,485.811 	"/>
	<polygon fill="#131816" points="250.533,484.857 252.523,428.606 246.109,428.606 246.827,485.811 	"/>
	<path fill="#EAC19C" d="M211.899,256.778c0,0,17.814,55.675,39.83,1.068l-38.669-1.068"/>
</g>
<path fill="#EAC19C" d="M300.652,212.065c0,0-28.174,50.733-79.236,53.114c0,0-108.081-63.754-46.111-118.257
	c0,0,3.753-115.387,103.176-81.525c99.416,33.852,38.952,112.228,38.952,112.228L300.652,212.065z"/>
<path fill="#603A17" d="M184.048,110.374c-0.854,1.015-1.761,1.984-2.711,2.907c10.057-0.019,27.615,2.006,38.6,14.956
	C219.88,128.038,212.871,103.911,184.048,110.374z"/>
<g>
	<path fill="#FFFFFF" d="M187.097,147.336c0,0,5.993,21.408,25.479,7.538c0,0-11.125-14.439-25.55-7.784"/>
	<g>
		<defs>
			<path id="SVGID_1_" d="M187.097,147.336c0,0,5.993,21.408,25.479,7.538c0,0-11.125-14.439-25.55-7.784"/>
		</defs>
		<clipPath id="SVGID_2_">
			<use xlink:href="#SVGID_1_"  overflow="visible"/>
		</clipPath>
		<path clip-path="url(#SVGID_2_)" fill="#029247" d="M208.321,146.768c3.188,0.787,5.1,4.092,4.271,7.377
			c-0.826,3.287-4.084,5.306-7.272,4.52c-3.191-0.798-5.103-4.104-4.275-7.384C201.872,147.997,205.129,145.971,208.321,146.768z"/>
		<path clip-path="url(#SVGID_2_)" fill="#221F1F" d="M207.588,149.779c1.561,0.387,2.497,2.006,2.094,3.617
			c-0.405,1.61-2.002,2.599-3.563,2.213c-1.566-0.385-2.502-2.009-2.096-3.617C204.429,150.384,206.021,149.391,207.588,149.779z"/>
		<path clip-path="url(#SVGID_2_)" fill="#FFFFFF" d="M204.115,151.538c0.622,0.153,0.997,0.805,0.839,1.455
			c-0.167,0.644-0.806,1.041-1.437,0.885c-0.621-0.154-1-0.804-0.836-1.45C202.838,151.778,203.482,151.38,204.115,151.538z"/>
	</g>
	<path fill="#221F1F" d="M212.576,154.874c-0.208-0.197-0.302-0.992-0.464-1.262c-0.553-0.962-1.292-1.858-2.021-2.713
		c-2.823-3.308-6.448-5.42-11.266-6.281c-1.954-0.347-3.951-0.532-5.947-0.652c-2.556-0.16-5.155,0.021-7.703-0.234
		c-2.456-0.239-4.718-1.052-6.634-2.316c-0.956-0.632-1.941-1.408-2.622-2.267c-0.662-0.822-1.126-1.842-1.336-2.828
		c0,0-0.437,7.466,8.782,10.819c0,0-2.674,0.813-7.333-1.557c0,0,1.532,2.242,6.249,4.029c1.39,0.531,2.851,1.126,3.768,2.182
		c1.303,1.494,2.046,3.309,3.451,4.763c1.259,1.297,2.875,2.357,4.785,2.889c1.045,0.292,2.256,0.494,3.378,0.502
		c0.858,0.008,1.725-0.04,2.577-0.142c0.671-0.076,1.421-0.323,2.083-0.354c0,0-12.152,0.444-13.484-12.071
		C188.84,147.38,199.244,142.649,212.576,154.874z"/>
	<path opacity="0.2" fill="#010101" d="M187.909,148.917c0,0,10.191-2.978,24.667,5.958l-5.147-4.515l-7.391-3.514l-7.308-1.423
		l-3.175,0.688L187.909,148.917z"/>
</g>
<path fill="#D09F78" d="M205.113,182.6c0,0,10.737,25.274,33.751,6.523C238.865,189.123,219.681,196.689,205.113,182.6z"/>
<path opacity="0.37" fill="#D09F78" d="M205.113,182.669c0,0,11.535,38.646,33.749,6.522
	C238.862,189.192,219.681,196.759,205.113,182.669z"/>
<path fill="#603A17" d="M248.488,130.589c0,0,20.151-23.908,48.217,5.813C296.705,136.402,270.97,119.891,248.488,130.589z"/>
<path fill="#231F20" d="M242.826,163.221c0,0,10.468-10.76,27.692-5.447c17.208,5.315,21.722-15.391,21.722-15.391
	s-0.177,18.652-14.344,19.389c0,0,9.809,4.535,14.949-3.946c0,0-6.157,17.249-32.15,3.885
	C252.661,157.575,242.826,163.221,242.826,163.221z"/>
<path fill="#CD9B78" d="M212.948,259.692c0,0,21.489,12.702,38.364-1.856C251.312,257.836,233.558,279.881,212.948,259.692z"/>
<path fill="#DACF8D" d="M321.278,90.68"/>
<path fill="#CE9C78" d="M272.573,216.657c0,0-2.291-10.292-12.788-11.209C259.785,205.448,273.237,202.716,272.573,216.657z"/>
<g>
	<path fill="#E4856D" d="M263.378,212.619c0,0-22.444-2.903-31.486,7.625c0,0-16.158-8.41-27.318,0.074
		C204.574,220.318,233.251,266.822,263.378,212.619z"/>
	<path fill="#ED9888" d="M263.378,212.619c0.321-0.249-0.4,0.714-0.601,1.065c-29.906,52.524-58.204,6.634-58.204,6.634
		S233.849,235.807,263.378,212.619z"/>
</g>
<g>
	<path fill="#CA9D69" d="M253.191,60.347c18.786,5.693,56.358,21.632,48.39,47.249c-1.708,6.262-7.972,10.816-6.832,17.647
		c1.138,7.97,10.814,14.232,17.077,18.217c13.663,8.54,35.295,15.37,47.819,1.139c14.231-15.94-7.4-41.557-15.37-56.358
		c-1.14,1.139-41.467-32.349-42.604-31.211"/>
</g>
<g>
	<g>
		<path opacity="0.4" fill="#FFFFFF" d="M234.499,155.585c-1.342,12.905,12.188,24.889,30.229,26.765
			c18.041,1.875,33.753-7.066,35.104-19.977c1.344-12.905-12.191-24.887-30.23-26.77
			C251.552,133.735,235.841,142.679,234.499,155.585z"/>
		<path fill="#231F20" d="M233.659,153.486c1.485-14.234,15.307-21.729,36.069-19.575c10.104,1.049,18.145,3.964,23.601,8.297
			c5.85,4.651,8.719,10.936,7.949,18.305c-1.624,15.56-18.101,26.643-36.748,24.701C245.891,183.276,232.041,169.04,233.659,153.486
			z M238.046,153.938c-1.387,13.274,10.689,25.435,26.917,27.128c16.229,1.686,30.55-7.735,31.933-21.008
			c1.828-17.556-20.659-21.278-27.596-21.994C262.43,137.345,239.871,136.382,238.046,153.938z"/>
		<path fill="#231F20" d="M290.039,141.685c0,0,12.155-0.11,15.277,3.233c3.125,3.33,0.874,13.779-4.381,14.328
			C300.936,159.245,295.673,143.091,290.039,141.685z"/>
	</g>
	<g>
		<path opacity="0.4" fill="#FFFFFF" d="M166.315,147.121c-1.395,13.398,9.682,25.532,24.737,27.1
			c15.05,1.559,28.393-8.033,29.789-21.433c1.396-13.397-9.675-25.53-24.731-27.096
			C181.052,124.129,167.715,133.722,166.315,147.121z"/>
		<path fill="#231F20" d="M190.631,175.755c-15.596-1.622-26.992-15.473-25.384-30.884c0.756-7.292,4.288-12.856,9.95-16.269
			c5.269-3.178,12.389-4.5,20.853-3.617c17.378,1.806,27.266,11.674,25.796,25.768C220.242,166.163,206.242,177.377,190.631,175.755
			z M195.62,129.089c-5.804-0.604-24.894-1.219-26.71,16.165c-1.364,13.144,8.573,24.979,22.154,26.394
			c13.584,1.415,25.75-8.126,27.116-21.273C219.991,132.988,201.369,129.691,195.62,129.089z"/>
		<path fill="#231F20" d="M177.99,128.706c0,0-9.929-2.391-13.108,0.262c-3.186,2.646-3.31,13.218,0.89,14.74
			C165.771,143.708,173.112,129.02,177.99,128.706z"/>
	</g>
	<path fill="#231F20" d="M235.99,156.282c0,0-9.072-9.501-18.488-0.084l2.071-7.433c0,0,10.779-3.765,17.146,3.621L235.99,156.282z"
		/>
	<path fill="#231F20" d="M306.354,146.801l34.455,7.783c0,0,0.606-11.501,1.979-12.9l-41.116,2.707L306.354,146.801z"/>
</g>
<path fill="#EAC19C" d="M326.361,152.71c0,0,12.254-14.105,23.073,0.354c7.35,9.827,1.312,15.387-5.709,18.4
	c-5.861,2.526-12.418,3.277-12.418,3.277s-10.03,1.285-8.723,12.113c1.322,10.829,0.556,14.533-3.214,15.05
	c-3.764,0.515-10.259-4.297-9.277-10.41C314.307,165.11,326.361,152.71,326.361,152.71z"/>
<g>
	<path fill="#CE9C78" d="M321.283,170.35c0,0,21.394-29.502,15.655-3.709C336.938,166.641,337.412,151.654,321.283,170.35z"/>
	<path fill="#CE9C78" d="M321.159,170.419c0,0,13.545-13.986,4.989,6.087C326.148,176.507,330.328,163.307,321.159,170.419z"/>
</g>
<circle fill="#3C2518" cx="318.874" cy="197.093" r="1.945"/>
<g>
	<path fill="#CA9D69" d="M269.229,59.206c-26.186,4.555-54.65,18.217-55.788,47.819c-0.57,13.662-2.846,21.063-12.524,31.31
		c-10.247,9.678-22.202,19.355-23.909,34.156c-1.708,12.524,7.401,21.632,7.401,33.018c0.57,11.955-10.816,23.34-21.632,27.325
		c-19.925,7.399-26.187-12.524-25.049-28.464c1.708-26.755,2.278-50.289,13.095-73.059c9.677-19.355,23.908-36.241,37.571-54.457
		c24.478-32.448,55.788-43.264,92.791-26.755"/>
</g>
<g>
	<path fill="#E0B069" d="M260.827,62.131c1.355,2.26-4.065-1.808-5.423-2.26c-9.941-3.163-19.884-3.163-29.374,1.356
		c-17.173,7.683-22.144,18.981-19.885,36.154c2.26,18.979-4.067,26.21-18.98,37.057c-17.625,13.106-29.826,31.183-21.24,52.875
		c3.615,9.491,12.653,19.885,11.297,30.279c-0.904,7.23-7.682,13.106-12.653,18.077c8.586-14.913-5.423-28.018-9.491-42.028
		c-6.327-20.336-2.26-47.452,10.847-64.172c7.23-9.49,18.076-15.817,24.854-25.76c5.876-9.039,4.52-17.173,3.164-27.567
		c-1.808-18.528,11.297-30.73,29.827-32.086c7.683-0.452,42.481,10.846,38.412,19.884"/>
</g>
<g>
	<path fill="none" stroke="#98714A" stroke-width="3" stroke-linecap="round" stroke-linejoin="round" stroke-miterlimit="10" d="
		M261.242,61.485c-5.163-8.174-30.543-3.011-37.856-0.86c-12.475,3.872-24.949,13.766-31.402,25.38
		c-6.023,10.755-5.163,22.37-4.302,33.984c0.431,14.197-7.313,19.358-17.637,27.961c-10.754,9.034-22.8,22.8-21.509,37.856
		c0.861,10.324,9.464,18.927,13.766,27.96c4.301,7.744,9.033,13.767,5.592,23.23c-3.872,9.465-10.755,18.068-16.347,26.671
		c-14.212,21.863-5.907,48.564,15.257,61.633c5.751,3.552,12.395,6.876,18.845,8.937c8.814,2.816,17.894,4.736,26.927,6.689"/>
	<path fill="none" stroke="#98714A" stroke-width="3" stroke-linecap="round" stroke-linejoin="round" stroke-miterlimit="10" d="
		M261.876,62.065c0.396-10.263-18.156-15.789-25.262-17.369c-12.235-2.368-28.42-1.185-36.314,9.474
		c-5.921,7.499-3.553,18.157-10.657,24.867c-9.868,9.474-24.473,12.237-33.946,22.894c-9.079,10.263-5.921,19.341-1.184,31.184
		c6.71,17.367-7.106,24.473-18.553,36.314c-10.263,10.658-29.604,33.552-14.21,47.367c9.869,9.079,30.394,13.816,33.947,29.209
		c1.407,5.628-0.735,13.957-4.15,17.663"/>
	<path fill="none" stroke="#FECF0C" stroke-width="6" stroke-linecap="round" stroke-linejoin="round" stroke-miterlimit="10" d="
		M262.869,61.447c-9.108-13.093-25.617-17.079-39.849-10.247c-11.386,4.554-20.493,15.371-23.34,27.325
		c-2.846,11.955,2.277,22.771,1.139,34.726c-3.416,26.186-34.156,27.894-45.542,50.095c-10.815,21.633-7.97,51.234,9.678,68.312
		c8.54,8.541,20.494,19.356,19.925,33.019c-1.139,12.524-12.525,21.062-21.063,29.603"/>
</g>
<g>
	<path fill="#E0B069" d="M261.301,60.598c15.054-11.393,28.887-19.937,48.01-12.207c20.75,8.952,40.688,24.82,53.708,43.129
		c11.799,16.275,22.784,38.246,23.599,58.997c0.813,23.599-14.647,38.653-28.074,55.742c-13.021,16.682-8.952,35.805-17.09,54.114
		c-10.985,24.006-32.549,3.255-33.363-15.055c-1.626-30.108,30.109-45.162,47.604-63.878c18.717-20.344,9.358-36.619-12.612-47.198
		c-8.952-4.476-18.717-8.545-24.819-16.682c-6.917-8.951-8.952-20.344-11.799-30.922c-4.883-16.682-12.614-38.653-34.178-34.177
		c-3.256,0.813-6.917,2.44-10.173,3.662L261.301,60.598z"/>
</g>
<path fill="none" stroke="#98714A" stroke-width="3" stroke-linecap="round" stroke-linejoin="round" stroke-miterlimit="10" d="
	M281.05,47.909c0,0,35.072-15.174,76.663,36.739"/>
<path fill="none" stroke="#FECF0C" stroke-width="6" stroke-linecap="round" stroke-linejoin="round" stroke-miterlimit="10" d="
	M260.592,63.759c9.678-28.464,42.126-9.678,47.25,10.248c2.846,11.384,1.707,22.77,3.983,34.155
	c3.417,16.509,15.371,18.786,29.603,21.062c31.31,5.693,29.602,40.987,9.679,59.773c-18.787,17.647-48.389,35.864-40.419,66.605
	c3.416,13.093,16.509,27.894,27.325,11.953c11.953-16.508-11.387-15.938-10.248-5.122"/>
<path fill="#EAC19C" d="M232.937,73.016c0,0,16.227-23.133,44.405-2.799c28.18,20.333-18.214,9.462-17.754,9.462
	C260.046,79.679,231.857,73.09,232.937,73.016z"/>
<g>
</g>
<g>
</g>
<g>
</g>
<g>
</g>
<g>
</g>
<g>
</g>
</svg>
