<?xml version="1.0" encoding="utf-8"?>
<!-- Generator: Adobe Illustrator 16.0.0, SVG Export Plug-In . SVG Version: 6.00 Build 0)  -->
<!DOCTYPE svg PUBLIC "-//W3C//DTD SVG 1.1//EN" "http://www.w3.org/Graphics/SVG/1.1/DTD/svg11.dtd">
<svg version="1.1" id="Layer_1" xmlns="http://www.w3.org/2000/svg" xmlns:xlink="http://www.w3.org/1999/xlink" x="0px" y="0px"
	 width="480px" height="500px" viewBox="0 0 480 500" enable-background="new 0 0 480 500" xml:space="preserve">
<g>
	<path fill="#E9C09B" d="M228.741,306.661c-3.293,0-6.66-0.153-10.101-0.46c-13.991-1.251-29.214-5.042-45.246-11.269
		c-27.124-10.533-46.99-24.246-47.823-24.825l5.053-7.271c0,0.001,0,0.001,0.001,0.001l0,0c0.258,0.178,20.006,13.781,46.144,23.908
		c23.709,9.185,57.725,17.333,85.123,3.988l3.877,7.96C254.891,303.992,242.47,306.661,228.741,306.661z"/>
	<path fill="#808184" d="M261.893,290.734c-14.488,7.057-30.825,8.101-46.511,6.162c0.726,2.182,1.125,4.502,1.125,6.901
		c0,0.736-0.039,1.463-0.111,2.182c0.751,0.08,1.5,0.154,2.245,0.222c3.441,0.307,6.807,0.46,10.101,0.46
		c13.729,0,26.149-2.669,37.028-7.967L261.893,290.734z"/>
	<path fill="#808184" d="M317.999,274.913l-6.803,2.192c0.559,3.306,4.894,10.935,8.594,15.985
		c3.929,5.368,9.858,11.825,16.687,13.828c0.238-3.629,1.086-7.017,2.395-9.918c-10.731-1.717-20.296-20.614-21.034-22.776
		C317.843,274.237,317.927,274.491,317.999,274.913z"/>
	<path fill="#E9C09B" d="M340.79,297.126c-1.344,0.055-2.677-0.188-3.983-0.659c-0.567,3.495-1.711,6.676-3.277,9.296
		c1.714,0.838,3.5,1.428,5.34,1.665c5.773,0.741,11.11-2.01,15.862-8.176c5.174-6.713,9.676-17.656,13.382-32.524l-6.593-3.912
		C355.931,285.25,348.955,296.794,340.79,297.126z"/>
	<polygon fill="#414142" points="269.464,318.037 308.955,317.398 305.804,482.17 302.44,481.767 304.386,359.129 274.046,355.726 
		272.02,480.824 268.774,480.941 	"/>
	<path fill="#09080A" d="M268.389,480.895c0,0-3.065,4.521-10.104,4.305l-0.236,1.441c0,0,8.999,0.994,11.851-3.242l-0.286,3.295
		l3.014-0.229l-0.757-5.99L268.389,480.895z"/>
	<polygon fill="#FFFFFF" points="313.852,348.664 265.236,345.002 265.256,349.205 313.699,351.842 	"/>
	<g>
		
			<radialGradient id="SVGID_1_" cx="1283.0625" cy="4382.5625" r="87.2104" gradientTransform="matrix(-1.9291 0 0 0.0671 2764.3281 193.2913)" gradientUnits="userSpaceOnUse">
			<stop  offset="0" style="stop-color:#010101"/>
			<stop  offset="1" style="stop-color:#FFFFFF;stop-opacity:0"/>
		</radialGradient>
		<path opacity="0.29" fill="url(#SVGID_1_)" d="M120.952,487.36c0-3.233,75.321-5.852,168.223-5.852
			c92.913,0,168.223,2.618,168.223,5.852c0,3.231-75.31,5.854-168.223,5.854C196.272,493.214,120.952,490.592,120.952,487.36z"/>
		
			<radialGradient id="SVGID_2_" cx="2658.0488" cy="4395.6172" r="87.2456" gradientTransform="matrix(-1.2207 0 0 0.0671 3544.165 193.2913)" gradientUnits="userSpaceOnUse">
			<stop  offset="0" style="stop-color:#010101"/>
			<stop  offset="1" style="stop-color:#FFFFFF;stop-opacity:0"/>
		</radialGradient>
		<path opacity="0.29" fill="url(#SVGID_2_)" d="M193.027,488.235c0-3.231,47.663-5.854,106.461-5.854
			c58.788,0,106.455,2.623,106.455,5.854c0,3.236-47.667,5.858-106.455,5.858C240.69,494.094,193.027,491.472,193.027,488.235z"/>
	</g>
	<polygon fill="#808184" points="313.699,351.842 316.719,261.351 258.849,261.089 265.256,349.205 	"/>
	<path fill="#09080A" d="M305.906,482.13c0,0,2.762,4.716,9.801,4.933l0.143,1.452c0,0-9.031,0.429-11.611-3.971l0.076,3.293
		l-2.988-0.389l1.124-5.939L305.906,482.13z"/>
	<g id="ethan">
		<path d="M190.592,71.912c0,0,19.84-68.872,64.801-51.685c0,0,71.139-40.957,79.532,9.598c0,0,101.354,51.595,49.796,111.616
			c0,0,36.406,51.859-46.635,72.345c0,0,28.046,47.403,6.487,56.654c-21.559,9.249-49.605-68.204-49.605-68.204L190.592,71.912z"/>
		<ellipse cx="271.214" cy="128.786" rx="98.317" ry="99.368"/>
		<path fill="#E9BF9A" d="M236.533,303.501c47.056,1.599,74.105-44.046,87.387-81.434c24.76-38.673,0-122.204,0-122.204
			c-89.684,29.383-136.092-6.159-136.113-6.173c5.659,4.336,0.261,38.77-0.468,44.364c-1.814,13.941,2.174,27.424-3.243,40.423
			c-5.493,13.178-6.404,26.796-6.509,41.507C177.306,260.191,193.925,302.058,236.533,303.501z"/>
		<path fill="none" stroke="#CD9D78" stroke-width="5.4769" d="M211.446,258.599c0,0,56.493,11.433,66.656-27.395"/>
		<path fill="#E9BF9A" d="M184.095,123.012c0,50.136,37.538,90.774,83.835,90.774c46.306,0,83.841-40.638,83.841-90.774
			c0-50.135-37.535-90.773-83.841-90.773C221.633,32.239,184.095,72.877,184.095,123.012z"/>
		<path fill="#CD9D78" d="M318.873,234.484c0,0-4.078-8.678-3.289-18.133c0,0-4.425,16.421,1.093,23.604L318.873,234.484z"/>
		<path fill="#231F20" d="M310.484,111.258l-6.772,22.252c0,0-42.909-13.781-73.861-1.637l-4.47-23.4
			C225.381,108.472,266.386,87.888,310.484,111.258z"/>
		<path fill="#231F20" d="M143.456,117.198l3.808,16.312c0,0,35.309-10.206,59.184-1.364l5.271-17.176
			C211.717,114.97,185.185,93.229,143.456,117.198z"/>
		<g>
			<path fill="#231F20" d="M230.561,225.321c0.848-14.787-15.911-25.799-25.896-23.979c-14.768,2.503-24.786,18.68-38.196,25.089
				c-11.808,6.023-27.023,9.458-36.609-2.578c-3.327-4.019-7.387-9.038-6.243-15.194c0.703-3.129,3.089-9.092,6.574-7.111
				c1.573,0.893,1.279,3.753,1.148,5.507c-0.07,0.942-0.144,1.993-0.584,2.813c1.632-3.327,3.819-7.635,1.178-10.971
				c-3.176-4.011-8.487-3.648-12.034-0.307c-2.441,2.3-4.381,5.463-5.691,8.826c-2.387,6.125-3.584,13.132-3.057,19.827
				c0.148,1.883,0.409,3.807,0.801,5.634c3.126,13.646,11.065,27.36,21.827,33.223c12.459,6.79,27.207,4.843,39.96-0.572
				c7.397-3.142,14.642-7.416,21.465-12.125c2.6-1.795,5.184-3.623,7.779-5.43c2.9-2.018,5.463-4.733,8.813-5.542
				c6.806-1.523,11.764,1.633,18.028-4.23c2.5-2.25,8.754-14.812,1.975-13.765"/>
		</g>
		<path fill="#231F20" d="M211.446,270.191c0,0,30.978-5.801,43.946,4.778c0,0-10.381,24.229-24.473,23.206
			C216.829,297.151,211.446,270.191,211.446,270.191z"/>
		<polyline points="304.355,147.155 351.771,145.562 347.418,163.794 303.292,161.226 304.355,147.155 		"/>
		<path fill="#E9BF9A" d="M335.017,160.706c0,0,17.075-28.89,40.878-6.865c29.672,27.476-24.982,44.166-24.982,44.166
			s-17.308,5.53-11.481,24.22c5.842,18.697,5.703,25.485-0.782,27.631c-6.472,2.126-19.513-4.272-19.775-15.375
			C317.744,186.515,335.017,160.706,335.017,160.706z"/>
		<g>
			<path fill="#CD9D78" d="M331.781,193.511c0,0,28.193-59.061,26.435-11.637C358.216,181.874,354.187,155.254,331.781,193.511z"/>
			<path fill="#CD9D78" d="M331.597,193.661c0,0,19.379-29.094,10.772,9.132C342.369,202.793,345.456,178.131,331.597,193.661z"/>
		</g>
		<g>
			<path fill="#231F20" d="M187.47,222.849c0.848-14.786,29.408-23.199,45.173-19.902c23.342,4.688,37.013,22.222,57.593,30.581
				c18.062,7.736,41.986,13.415,59.181,2.915c5.942-3.487,13.213-7.857,12.296-14.13c-0.662-3.208-3.604-9.477-9.495-8.034
				c-2.659,0.651-2.616,3.529-2.667,5.288c-0.027,0.944-0.066,1.998,0.519,2.876c-2.124-3.542-4.993-8.141-0.253-11.052
				c5.699-3.502,14.174-2.35,19.371,1.493c3.577,2.646,6.221,6.072,7.823,9.601c2.916,6.429,3.793,13.555,1.944,20.114
				c-0.519,1.845-1.225,3.713-2.128,5.466c-7.059,13.062-21.857,25.472-40.017,29.677c-21.024,4.87-44.417,0.736-64.092-6.539
				c-11.408-4.22-22.405-9.541-32.659-15.229c-3.908-2.168-7.783-4.367-11.682-6.546c-4.356-2.434-8.066-5.51-13.325-6.812
				c-10.704-2.527-19.136-0.14-28.322-6.888c-3.679-2.604-11.846-15.994-1.115-13.942"/>
		</g>
		<path fill="#CD9D78" d="M243.752,193.997c0,0-29.39,28.398-53.16-2.58C190.592,191.417,215.146,206.691,243.752,193.997z"/>
		<path d="M184.095,105.988c0,0,25.351-67.001,61.618-65.088c36.267,1.913,58.676,3.827,58.676,3.827s5.019,20.879,30.536,31.576
			c0,0-10.526,34.925,9.648,61.717l-28.184,42.581l15.207,1.47l32.193-53.286l-12.02-42.435l-19.989-31.098
			c0,0-56.502-63.891-136.877,10.874L184.095,105.988z"/>
	</g>
	<g>
		<g>
			<path fill-rule="evenodd" clip-rule="evenodd" fill="#FFFFFF" d="M147.526,144.817c-1.971,13.907,2.854,26.455,3.538,40.438
				c13.108,4.352,31.131,10.259,44.514,0c10.149-7.779,6.483-23.301,12.385-35.507c5.348-1.811,8.975-1.632,15.04-0.986
				c5.056,10.8,6.027,26.156,12.384,35.506c16.796,7.289,46.325,8.793,64.577,0.986c1.602-13.009,4.153-24.959,4.425-39.452
				c-12.606-6.052-25.729-9.753-40.694-9.863c-15.902-0.117-32.348,6.002-47.769,5.918c-15.144-0.083-18.96-3.348-34.172-3.348
				C166.443,138.51,160.931,140.021,147.526,144.817z"/>
			<path fill-rule="evenodd" clip-rule="evenodd" d="M182.095,136.227c15.211,0,18.687,5.549,33.831,5.632
				c15.421,0.084,31.867-6.035,47.769-5.918c14.966,0.11,28.088,3.812,40.694,9.863c-0.271,14.493-2.823,26.443-4.425,39.452
				c-18.252,7.807-47.78,6.302-64.577-0.986c-6.357-9.351-7.328-24.707-12.384-35.506c-6.064-0.646-9.691-0.825-15.04,0.986
				c-5.902,12.206-2.235,27.728-12.385,35.507c-13.383,10.259-31.406,4.352-44.514,0c-1.798-14.43-3.797-25.755-3.538-40.438
				C160.931,140.021,166.785,136.227,182.095,136.227z M230.079,146.79c1.026,13.322,4.463,23.956,8.847,33.535
				c14.615,6.917,42.373,8.189,57.5,0.986c1.405-10.699,1.672-21.041,0-31.562C282.448,139.164,247.2,139.279,230.079,146.79z
				 M154.603,149.749c-1.516,9.54-1.489,24.231,0.885,32.549c16.593,5.153,24.604,5.651,38.322-2.959
				c3.75-9.627,7.758-18.967,7.961-32.549C184.679,138.878,168.743,139.644,154.603,149.749z"/>
			<path fill-rule="evenodd" clip-rule="evenodd" fill="#FFFFFF" d="M230.079,146.79c1.026,13.322,4.463,23.956,8.847,33.535
				c14.615,6.917,42.373,8.189,57.5,0.986c1.405-10.699,1.672-21.041,0-31.562C282.448,139.164,247.2,139.279,230.079,146.79z"/>
			<path fill-rule="evenodd" clip-rule="evenodd" fill="#FFFFFF" d="M154.603,149.749c-1.516,9.54-0.67,23.311,0.885,32.549
				c16.593,5.153,26.73,5.95,40.449-2.661c3.75-9.627,5.632-19.266,5.835-32.848C184.679,138.878,168.743,139.644,154.603,149.749z"
				/>
		</g>
	</g>
	<path fill="#E9C09B" d="M360.548,266.549c0,0-15.855-12.046-2.254-16.285c13.604-4.239,8.594,10.825,8.594,10.825
		s5.132-5.08,7.536-9.052c0,0,22.134,1.646-7.484,19.169"/>
	<path fill="#E9C09B" d="M132.166,267.161c0,0,16.62-10.969,3.328-16.1c-13.292-5.13-9.291,10.232-9.291,10.232
		s-4.785-5.409-6.92-9.531c0,0-22.102-1.101,6.29,18.345"/>
	<g>
		<path fill="#010101" d="M85.002,217.768l-49.071,22.647l49.43,23.727l-7.549,16.176l-65.787-32.353v-14.021l65.787-32.175
			L85.002,217.768z"/>
	</g>
	<g>
		<path fill="#010101" d="M403.073,201.769l65.788,32.175v14.021l-65.788,32.353l-7.548-16.176l49.429-23.727l-49.07-22.647
			L403.073,201.769z"/>
	</g>
</g>
<g>
</g>
<g>
</g>
<g>
</g>
<g>
</g>
<g>
</g>
<g>
</g>
<g>
</g>
<g>
</g>
<g>
</g>
<g>
</g>
<g>
</g>
</svg>
