<?xml version="1.0" encoding="utf-8"?>
<!-- Generator: Adobe Illustrator 16.0.0, SVG Export Plug-In . SVG Version: 6.00 Build 0)  -->
<!DOCTYPE svg PUBLIC "-//W3C//DTD SVG 1.1//EN" "http://www.w3.org/Graphics/SVG/1.1/DTD/svg11.dtd">
<svg version="1.1" id="Layer_1" xmlns="http://www.w3.org/2000/svg" xmlns:xlink="http://www.w3.org/1999/xlink" x="0px" y="0px"
	 width="442px" height="550px" viewBox="0 0 442 550" enable-background="new 0 0 442 550" xml:space="preserve">
<path fill="#9EDAF1" d="M265.95,545.812c-94.056,0-170.297-26.68-170.297-59.598s76.241-59.604,170.297-59.604
	c94.058,0,170.3,26.686,170.3,59.604S360.008,545.812,265.95,545.812z"/>
<path fill="#7FBCE7" d="M196.18,461.421c-7.872,0-7.83,5.707-1.619,5.707c6.212,0,17.347,5.239,17.347,11.652
	c0,2.804-2.208,31.727-4.69,63.391c2.921,0.376,5.88,0.723,8.874,1.043c1.244-30.389,2.333-58.609,2.333-64.358
	C218.425,468.836,208.677,461.421,196.18,461.421z M335.721,461.421c-12.496,0-22.243,7.415-22.243,17.435
	c0,5.806-3.206,34.518-6.849,65.24c2.894-0.247,5.756-0.521,8.588-0.82c2.519-32.094,4.776-61.657,4.776-64.495
	c0-6.413,11.134-11.652,17.347-11.652C343.552,467.128,343.593,461.421,335.721,461.421z M301.866,472.15
	c-12.497,0-22.244,7.414-22.244,17.434c0,4.995-2.134,28.544-4.814,56.148c2.713-0.049,5.409-0.122,8.088-0.214
	c1.788-29.112,3.242-53.541,3.242-56.009c0-6.413,11.134-11.652,17.347-11.652C309.696,477.857,309.735,472.15,301.866,472.15z
	 M229.452,472.15c-7.872,0-7.831,5.707-1.619,5.707s17.347,5.239,17.347,11.652c0,2.457-1.952,26.7-4.358,55.655
	c2.809,0.146,5.639,0.266,8.491,0.363c1.328-27.517,2.383-50.963,2.383-55.944C251.695,479.564,241.948,472.15,229.452,472.15z"/>
<path fill="#010101" d="M337.34,460.174c-6.213,0-17.347-5.24-17.347-11.652c0-6.413-11.542-151.725-11.542-151.725h-0.039
	c0.21-4.182-2.27-40.146-54.006-40.146c-51.733,0-54.214,35.964-54.003,40.146h-0.039v25.353c0,0,11.544,119.959,11.544,126.372
	c0,6.412-11.134,11.652-17.347,11.652c-6.211,0-6.253,5.706,1.619,5.706c12.497,0,22.245-7.414,22.245-17.434
	c0-12.346-5.016-108.76-5.823-124.204l19.95,3.412c2.659,26.438,12.628,125.93,12.628,131.488c0,6.412-11.135,11.652-17.347,11.652
	s-6.253,5.706,1.619,5.706c12.496,0,22.243-7.415,22.243-17.435c0-11.396-5.521-102.752-7.188-130.11l20.825,1.446
	c3.553,28.987,14.29,117.462,14.29,128.664c0,10.02,9.747,17.435,22.244,17.435c7.869,0,7.83-5.706,1.618-5.706
	c-6.213,0-17.347-5.24-17.347-11.652c0-5.412-6.986-99.938-9.166-129.291l21.21-3.063c3.219,21.36,15.296,109.864,15.296,121.658
	c0,10.02,9.747,17.434,22.243,17.434C343.593,465.88,343.552,460.174,337.34,460.174z"/>
<path fill="#010101" d="M204.79,322.814c0,0-56.924,1.895-93.331-36.028c-5.195-5.411-17.436-5.387-23.414-3.407
	c-6.032,1.999-7.922,13.081,3.432,9.903c4.572-1.279,13.31-5.229,17.377-0.885c8.816,9.418,28.114,38.417,95.936,45.097"/>
<path fill="#C4E5D9" d="M94.203,284.33c-1.432,0.096-2.555,0.725-2.509,1.403c0.046,0.681,1.244,1.152,2.675,1.056
	s2.555-0.726,2.509-1.404C96.833,284.705,95.635,284.232,94.203,284.33z M102.733,284.827c-1.135-0.237-2.145,0.007-2.258,0.544
	c-0.113,0.539,0.716,1.167,1.85,1.405c1.135,0.236,2.145-0.007,2.258-0.545C104.695,285.692,103.867,285.065,102.733,284.827z
	 M109.798,287.389c-0.946-0.439-1.881-0.431-2.09,0.018c-0.209,0.45,0.39,1.168,1.335,1.608c0.947,0.438,1.882,0.43,2.09-0.02
	C111.343,288.546,110.744,287.827,109.798,287.389z M112.862,291.857c-0.316,0.383,0.081,1.229,0.883,1.895
	c0.805,0.665,1.711,0.894,2.027,0.512c0.316-0.383-0.081-1.228-0.884-1.892C114.084,291.705,113.178,291.477,112.862,291.857z
	 M120.412,296.731c-1.169-0.787-2.418-0.975-2.792-0.424c-0.375,0.559,0.271,1.643,1.438,2.431c1.169,0.787,2.418,0.977,2.791,0.421
	C122.223,298.606,121.578,297.521,120.412,296.731z M126.768,301.568c-1.234-0.833-2.553-1.03-2.948-0.448
	c-0.396,0.586,0.286,1.733,1.518,2.564c1.235,0.833,2.553,1.031,2.947,0.445C128.681,303.545,128,302.398,126.768,301.568z
	 M133.855,305.995c-1.555-0.726-3.091-0.713-3.437,0.021c-0.345,0.739,0.637,1.921,2.189,2.648c1.555,0.724,3.092,0.713,3.436-0.025
	C136.389,307.902,135.408,306.719,133.855,305.995z M141.918,310.295c-1.592-0.641-3.126-0.546-3.431,0.206
	c-0.304,0.758,0.74,1.885,2.329,2.525c1.593,0.641,3.126,0.545,3.43-0.21C144.552,312.062,143.507,310.933,141.918,310.295z
	 M150.036,314.361c-1.658-0.445-3.169-0.167-3.382,0.614c-0.213,0.788,0.958,1.783,2.613,2.229c1.658,0.445,3.167,0.169,3.38-0.617
	C152.86,315.805,151.689,314.807,150.036,314.361z M159.241,317.6c-1.692-0.277-3.168,0.15-3.302,0.95
	c-0.131,0.807,1.132,1.679,2.825,1.957c1.692,0.277,3.168-0.148,3.302-0.953C162.197,318.752,160.932,317.877,159.241,317.6z
	 M168.594,320.484c-1.694-0.276-3.168,0.151-3.303,0.951c-0.132,0.806,1.133,1.678,2.824,1.955c1.694,0.278,3.169-0.149,3.3-0.951
	C171.549,321.638,170.285,320.762,168.594,320.484z M178.122,322.6c-1.694-0.278-3.169,0.15-3.304,0.951
	c-0.131,0.806,1.134,1.678,2.824,1.954c1.694,0.279,3.169-0.148,3.301-0.95C181.078,323.753,179.813,322.877,178.122,322.6z
	 M187.919,324.112c-1.709-0.152-3.148,0.384-3.224,1.191c-0.071,0.813,1.254,1.589,2.96,1.741c1.709,0.153,3.15-0.381,3.222-1.191
	C190.953,325.044,189.625,324.265,187.919,324.112z M197.569,325.44c-1.716,0.026-3.092,0.709-3.083,1.52
	c0.015,0.817,1.412,1.452,3.126,1.423c1.716-0.024,3.094-0.707,3.081-1.521C200.682,326.049,199.282,325.411,197.569,325.44z"/>
<path fill="#A8AAAD" d="M240.937,260.899l-1.603-0.039c-0.604,24.426,21.576,39.416,21.8,39.564l0.886-1.337
	C261.803,298.942,240.353,284.45,240.937,260.899z M277.189,267.266l-1.565-0.349c-3.683,16.468,4.868,22.622,5.234,22.875
	l0.916-1.315C281.446,288.245,273.756,282.62,277.189,267.266z"/>
<polygon fill="#A8AAAD" points="279.789,285.146 257.049,300.362 275.73,328.276 276.355,328.402 299.097,313.185 280.417,285.27 
	"/>
<rect x="264.079" y="289.917" transform="matrix(0.831 -0.5562 0.5562 0.831 -123.6648 206.3075)" fill="#F2F2F2" width="27.359" height="33.589"/>
<polygon fill="#373636" points="272.058,322.788 290.241,300.766 283.913,291.31 265.728,313.332 "/>
<g>
	<path fill="#B7202A" d="M262.546,302.024c-0.573-0.856-0.398-1.828,0.423-2.378c0.971-0.65,1.812-0.37,2.409,0.521
		c0.6,0.896,0.467,1.777-0.429,2.377C264.121,303.1,263.209,303.016,262.546,302.024z M264.387,300.831
		c-0.32-0.479-0.708-0.775-1.014-0.572c-0.243,0.159-0.178,0.618,0.151,1.11c0.348,0.519,0.754,0.723,1.008,0.553
		C264.781,301.756,264.716,301.323,264.387,300.831z"/>
	<path fill="#B7202A" d="M267.135,299.406c-0.135-0.187-0.345-0.372-0.527-0.25c-0.233,0.156-0.182,0.483-0.009,0.741
		c0.172,0.258,0.464,0.359,0.72,0.194c0.214-0.136,0.294-0.316,0.328-0.547l0.62,0.171c-0.051,0.327-0.272,0.769-0.7,1.054
		c-0.582,0.391-1.326,0.377-1.799-0.328c-0.469-0.702-0.21-1.327,0.297-1.667c0.27-0.18,0.526-0.14,0.646-0.106l-0.06-0.235
		l0.468-0.312l0.599,0.896L267.135,299.406z"/>
	<path fill="#B7202A" d="M267.567,297.819l-0.244-0.364l0.572-0.722l0.401,0.599l0.377-0.252l0.344,0.516l-0.376,0.252l0.472,0.705
		c0.09,0.134,0.185,0.336,0.339,0.233c0.052-0.035,0.15-0.153,0.205-0.235l0.339,0.507c-0.087,0.127-0.337,0.336-0.428,0.396
		c-0.596,0.398-0.833,0.087-1.185-0.413l-0.471-0.705l-0.215,0.144l-0.345-0.516L267.567,297.819z"/>
	<path fill="#B7202A" d="M269.514,297.941c-0.439-0.665-0.15-1.393,0.396-1.758c0.632-0.411,1.348-0.346,1.803,0.309
		c0.447,0.652,0.212,1.355-0.39,1.759C270.755,298.63,269.975,298.648,269.514,297.941z M270.899,297.036
		c-0.198-0.298-0.455-0.458-0.645-0.338c-0.155,0.104-0.119,0.413,0.073,0.703c0.219,0.325,0.488,0.454,0.654,0.343
		C271.153,297.629,271.099,297.334,270.899,297.036z"/>
	<path fill="#B7202A" d="M273.193,295.352c-0.136-0.185-0.346-0.371-0.528-0.249c-0.233,0.157-0.181,0.483-0.009,0.741
		s0.464,0.36,0.721,0.194c0.213-0.136,0.293-0.317,0.328-0.547l0.619,0.171c-0.051,0.326-0.272,0.769-0.7,1.055
		c-0.582,0.39-1.325,0.376-1.798-0.33c-0.469-0.7-0.211-1.327,0.296-1.667c0.271-0.18,0.526-0.14,0.647-0.105l-0.061-0.235
		l0.468-0.312l0.599,0.896L273.193,295.352z"/>
	<path fill="#B7202A" d="M273.605,294.02c0.096-0.2,0.312-0.615,0.676-0.859c0.476-0.317,1.193-0.539,1.62,0.098l0.518,0.773
		l0.237-0.159l0.34,0.507l-0.848,0.567l-0.215-0.114c-0.012,0.3-0.223,0.517-0.365,0.611c-0.376,0.252-0.917,0.32-1.224-0.139
		c-0.3-0.448-0.112-0.981,0.336-1.281c0.234-0.156,0.449-0.134,0.486-0.123l-0.094-0.139c-0.119-0.179-0.311-0.114-0.524,0.029
		c-0.233,0.156-0.373,0.395-0.469,0.577L273.605,294.02z M275.471,294.356c-0.024-0.013-0.144-0.071-0.31,0.04
		c-0.159,0.106-0.173,0.241-0.09,0.363c0.074,0.112,0.216,0.127,0.334,0.047c0.12-0.079,0.171-0.217,0.167-0.3L275.471,294.356z"/>
	<path fill="#B7202A" d="M275.924,292.227l-0.243-0.363l0.572-0.722l0.4,0.598l0.377-0.252l0.345,0.516l-0.376,0.253l0.472,0.704
		c0.09,0.134,0.185,0.336,0.339,0.233c0.051-0.035,0.15-0.153,0.204-0.235l0.34,0.507c-0.087,0.127-0.338,0.336-0.429,0.396
		c-0.595,0.397-0.832,0.086-1.184-0.414l-0.472-0.704l-0.214,0.143l-0.345-0.516L275.924,292.227z"/>
</g>
<g>
	<path fill="#B7202A" d="M277.937,319.267l0.467,0.697l-0.559,0.374l-0.188-0.28l-0.477,0.318l0.367,0.549l0.6-0.402l0.28,0.421
		l-0.599,0.401l0.268,0.4l0.321-0.215l0.281,0.42l-1.174,0.785l-0.281-0.42l0.196-0.131l-0.916-1.369l-0.195,0.131l-0.279-0.417
		L277.937,319.267z"/>
	<path fill="#B7202A" d="M279.537,321.39l-0.278-0.413l0.14-0.093l-0.505-0.754l-0.135,0.091l-0.274-0.412l0.593-0.396l0.229,0.138
		c-0.02-0.207-0.023-0.391,0.301-0.608l0.381,0.568c-0.284,0.19-0.397,0.37-0.212,0.647l0.219,0.325l0.157-0.105l0.277,0.414
		L279.537,321.39z"/>
	<path fill="#B7202A" d="M280.266,319.75c-0.35-0.529-0.119-1.108,0.315-1.398c0.503-0.328,1.073-0.275,1.435,0.245
		c0.356,0.521,0.17,1.079-0.311,1.401C281.255,320.299,280.632,320.312,280.266,319.75z M281.369,319.03
		c-0.159-0.237-0.363-0.365-0.514-0.269c-0.123,0.082-0.095,0.328,0.059,0.559c0.174,0.258,0.389,0.362,0.521,0.273
		C281.571,319.503,281.527,319.267,281.369,319.03z"/>
	<path fill="#B7202A" d="M282.651,319.305l-0.276-0.413l0.132-0.089l-0.504-0.754l-0.133,0.089l-0.273-0.41l0.671-0.45l0.204,0.146
		c0.008-0.22,0.083-0.422,0.282-0.555c0.489-0.327,0.813-0.019,1.035,0.312l0.353,0.527l0.148-0.1l0.277,0.414l-0.796,0.531
		l-0.576-0.861c-0.072-0.106-0.187-0.301-0.373-0.176c-0.161,0.107-0.093,0.292-0.002,0.428l0.299,0.448l0.228-0.152l0.277,0.413
		L282.651,319.305z"/>
	<path fill="#AFADAD" d="M283.774,316.27l-0.194-0.291l0.456-0.576l0.319,0.479l0.3-0.201l0.274,0.411l-0.3,0.199l0.375,0.562
		c0.072,0.107,0.147,0.268,0.271,0.185c0.042-0.027,0.12-0.121,0.163-0.188l0.27,0.405c-0.068,0.101-0.269,0.266-0.341,0.314
		c-0.474,0.316-0.662,0.069-0.942-0.328l-0.375-0.562l-0.171,0.114l-0.274-0.411L283.774,316.27z"/>
	<path fill="#AFADAD" d="M286.177,315.552l0.28,0.419l-0.915,0.613l-0.28-0.419L286.177,315.552z"/>
	<path fill="#AFADAD" d="M287.48,312.88l0.467,0.697l-0.547,0.365l-0.188-0.28L286.708,314l0.291,0.436l0.599-0.401l0.281,0.419
		l-0.599,0.401l0.344,0.515l0.505-0.338l-0.196-0.294l0.546-0.365l0.478,0.714l-1.902,1.273l-0.281-0.42l0.198-0.133l-0.916-1.369
		l-0.199,0.133l-0.278-0.417L287.48,312.88z"/>
	<path fill="#AFADAD" d="M289.112,314.981l-0.277-0.413l0.133-0.089l-0.504-0.754l-0.134,0.089l-0.274-0.41l0.673-0.451l0.204,0.147
		c0.008-0.22,0.082-0.422,0.281-0.555c0.489-0.327,0.814-0.019,1.036,0.312l0.353,0.527l0.147-0.1l0.277,0.413l-0.795,0.532
		l-0.577-0.861c-0.071-0.106-0.187-0.3-0.373-0.176c-0.16,0.107-0.093,0.292-0.002,0.428l0.3,0.448l0.227-0.152l0.277,0.413
		L289.112,314.981z"/>
	<path fill="#AFADAD" d="M290.779,311.032l-0.274-0.41l0.786-0.525l1.31,1.956l0.15-0.102l0.276,0.411l-0.739,0.493l-0.132-0.08
		c-0.016,0.065-0.082,0.265-0.301,0.411c-0.444,0.298-0.995,0.096-1.289-0.343c-0.329-0.493-0.195-1.035,0.193-1.295
		c0.224-0.15,0.393-0.145,0.479-0.146l-0.314-0.467L290.779,311.032z M291.731,312.624c0.123-0.082,0.133-0.312-0.046-0.553
		c-0.144-0.214-0.361-0.306-0.481-0.226c-0.133,0.088-0.12,0.303,0.04,0.543C291.371,312.578,291.593,312.718,291.731,312.624z"/>
</g>
<g>
	<path fill="#373636" d="M267.446,302.998c-0.028-0.017-0.052-0.042-0.075-0.076l-0.261-0.391l-0.118,0.078l-0.059-0.09l0.116-0.078
		l-0.103-0.153l0.074-0.106l0.129,0.192l0.193-0.129l0.061,0.09l-0.193,0.129l0.251,0.376c0.014,0.021,0.026,0.033,0.042,0.043
		c0.027,0.014,0.059,0.008,0.097-0.018c0.037-0.025,0.071-0.074,0.093-0.117l0.051,0.105c-0.02,0.04-0.052,0.088-0.109,0.126
		C267.567,303.024,267.504,303.029,267.446,302.998z"/>
	<path fill="#373636" d="M267.204,301.812l-0.061-0.089l0.203-0.136l0.379,0.566c0.015-0.11,0.06-0.222,0.149-0.282
		c0.074-0.05,0.145-0.06,0.205-0.038c0.053,0.018,0.1,0.059,0.139,0.116l0.227,0.34l0.103-0.067l0.06,0.089l-0.303,0.202
		l-0.06-0.089l0.099-0.066l-0.214-0.319c-0.03-0.046-0.061-0.07-0.094-0.08c-0.039-0.013-0.082-0.004-0.124,0.025
		c-0.078,0.053-0.119,0.149-0.133,0.249l0.232,0.348l0.099-0.066l0.059,0.089l-0.301,0.202l-0.06-0.089l0.101-0.067l-0.604-0.903
		L267.204,301.812z"/>
	<path fill="#373636" d="M268.605,301.898c0.108,0.13,0.245,0.137,0.381,0.045c0.084-0.056,0.13-0.126,0.176-0.219l0.058,0.106
		c-0.038,0.083-0.106,0.159-0.186,0.212c-0.201,0.135-0.425,0.091-0.553-0.1c-0.118-0.177-0.104-0.408,0.089-0.537
		c0.188-0.125,0.383-0.052,0.486,0.105c0.017,0.023,0.028,0.044,0.034,0.062L268.605,301.898z M268.553,301.816l0.386-0.258
		c-0.081-0.106-0.196-0.14-0.315-0.06C268.526,301.563,268.488,301.687,268.553,301.816z"/>
	<path fill="#373636" d="M269.535,301.234c-0.118-0.178-0.09-0.414,0.105-0.544c0.195-0.131,0.423-0.068,0.543,0.11
		c0.119,0.179,0.09,0.413-0.105,0.544C269.881,301.476,269.656,301.415,269.535,301.234z M270.076,300.872
		c-0.093-0.139-0.248-0.179-0.376-0.093c-0.129,0.086-0.151,0.245-0.059,0.384c0.095,0.141,0.248,0.178,0.376,0.092
		C270.146,301.169,270.171,301.013,270.076,300.872z"/>
	<path fill="#373636" d="M270.373,300.387c0.012-0.109,0.061-0.228,0.15-0.287c0.082-0.055,0.157-0.06,0.222-0.031
		c0.045,0.023,0.084,0.061,0.119,0.112l0.227,0.339l0.102-0.067l0.06,0.089l-0.303,0.202l-0.059-0.089l0.099-0.066l-0.213-0.318
		c-0.023-0.034-0.046-0.06-0.073-0.073c-0.043-0.025-0.09-0.02-0.142,0.015c-0.078,0.052-0.118,0.149-0.133,0.249l0.232,0.348
		l0.099-0.066l0.06,0.089l-0.302,0.202l-0.059-0.089l0.101-0.067l-0.302-0.45l-0.101,0.066l-0.061-0.09l0.198-0.133L270.373,300.387
		z"/>
	<path fill="#373636" d="M271.252,300.129c0.107,0.128,0.245,0.135,0.381,0.044c0.084-0.057,0.13-0.126,0.175-0.218l0.058,0.105
		c-0.038,0.083-0.105,0.158-0.186,0.212c-0.201,0.135-0.424,0.092-0.554-0.101c-0.117-0.175-0.102-0.407,0.09-0.535
		c0.188-0.127,0.382-0.053,0.487,0.104c0.016,0.024,0.027,0.044,0.033,0.063L271.252,300.129z M271.198,300.046l0.387-0.258
		c-0.083-0.105-0.197-0.141-0.317-0.06C271.172,299.792,271.133,299.916,271.198,300.046z"/>
	<path fill="#373636" d="M272.28,299.608c-0.077-0.114-0.026-0.259,0.114-0.353c0.068-0.046,0.162-0.083,0.202-0.092l-0.059-0.086
		c-0.023-0.037-0.054-0.061-0.087-0.071c-0.05-0.013-0.107-0.001-0.171,0.042c-0.051,0.033-0.068,0.064-0.08,0.092
		c0.011,0.007,0.024,0.019,0.034,0.031c0.023,0.037,0.017,0.083-0.024,0.109c-0.038,0.026-0.084,0.014-0.11-0.024
		c-0.048-0.072-0.015-0.202,0.137-0.304c0.093-0.062,0.18-0.079,0.252-0.061c0.056,0.014,0.102,0.05,0.138,0.104l0.229,0.343
		l0.102-0.068l0.06,0.089l-0.196,0.133l-0.053-0.08c-0.019,0.085-0.072,0.182-0.158,0.238
		C272.488,299.731,272.353,299.718,272.28,299.608z M272.712,299.336l-0.071-0.105c-0.057,0.019-0.126,0.047-0.187,0.088
		c-0.101,0.067-0.119,0.148-0.075,0.214c0.04,0.062,0.116,0.074,0.202,0.017C272.656,299.499,272.695,299.416,272.712,299.336z"/>
	<path fill="#373636" d="M272.968,298.65c0.013-0.109,0.062-0.228,0.151-0.287c0.081-0.055,0.156-0.061,0.221-0.031
		c0.044,0.022,0.085,0.06,0.12,0.111l0.227,0.34l0.101-0.067l0.06,0.089l-0.302,0.202l-0.06-0.089l0.1-0.067l-0.213-0.318
		c-0.023-0.034-0.046-0.06-0.073-0.072c-0.043-0.026-0.091-0.021-0.143,0.014c-0.077,0.053-0.117,0.15-0.132,0.25l0.232,0.348
		l0.099-0.066l0.06,0.089l-0.302,0.202l-0.06-0.089l0.101-0.068l-0.301-0.45l-0.102,0.067l-0.061-0.09l0.198-0.133L272.968,298.65z"
		/>
	<path fill="#373636" d="M273.728,298.435c-0.118-0.179-0.099-0.414,0.091-0.54c0.079-0.053,0.166-0.068,0.246-0.055l-0.286-0.427
		l-0.118,0.078l-0.06-0.089l0.22-0.147l0.665,0.993l0.103-0.067l0.06,0.089l-0.201,0.135l-0.06-0.089
		c-0.015,0.095-0.051,0.18-0.145,0.242C274.076,298.669,273.856,298.626,273.728,298.435z M274.328,298.234l-0.206-0.309
		c-0.075-0.009-0.155-0.002-0.238,0.054c-0.124,0.083-0.143,0.244-0.05,0.383c0.092,0.142,0.244,0.176,0.363,0.096
		C274.278,298.403,274.313,298.321,274.328,298.234z"/>
	<path fill="#373636" d="M274.872,297.663c-0.119-0.178-0.09-0.414,0.105-0.544c0.194-0.131,0.423-0.068,0.542,0.11
		s0.091,0.413-0.104,0.544C275.218,297.904,274.992,297.844,274.872,297.663z M275.413,297.301c-0.094-0.14-0.247-0.18-0.377-0.094
		c-0.128,0.086-0.151,0.245-0.058,0.385c0.095,0.14,0.247,0.178,0.377,0.092C275.483,297.598,275.507,297.44,275.413,297.301z"/>
	<path fill="#373636" d="M275.71,296.815c0.013-0.109,0.061-0.228,0.151-0.287c0.08-0.055,0.155-0.06,0.221-0.031
		c0.044,0.023,0.084,0.06,0.119,0.111l0.228,0.34l0.101-0.067l0.059,0.089l-0.301,0.202l-0.06-0.089l0.099-0.066l-0.214-0.318
		c-0.022-0.034-0.046-0.06-0.072-0.073c-0.043-0.026-0.09-0.021-0.142,0.014c-0.078,0.053-0.118,0.15-0.133,0.25l0.232,0.348
		l0.1-0.066l0.059,0.089l-0.301,0.202l-0.06-0.089l0.101-0.067l-0.303-0.451l-0.1,0.067l-0.061-0.09l0.198-0.133L275.71,296.815z"/>
	<path fill="#373636" d="M276.602,296.832l0.106-0.07l-0.604-0.904l-0.106,0.07l-0.061-0.089l0.209-0.14l0.665,0.993l0.105-0.07
		l0.06,0.089l-0.314,0.21L276.602,296.832z"/>
	<path fill="#373636" d="M277.365,296.878c-0.06,0.039-0.132,0.038-0.165-0.01c-0.027-0.04-0.015-0.083,0.021-0.106
		c0.035-0.024,0.075-0.013,0.104,0.01c0.018-0.024,0.027-0.061,0.027-0.122c0-0.031-0.006-0.072-0.013-0.119l-0.014-0.104
		l-0.574-0.347l-0.086,0.059l-0.062-0.09l0.295-0.197l0.059,0.087l-0.099,0.067c0,0,0.449,0.285,0.447,0.286l-0.09-0.526
		l-0.104,0.069l-0.06-0.087l0.29-0.194l0.061,0.091l-0.086,0.057l0.131,0.839c0.006,0.044,0.01,0.085,0.009,0.124
		C277.455,296.763,277.429,296.836,277.365,296.878z"/>
</g>
<g>
	<path fill="#CDCCCC" d="M279.29,323.763c-0.032-0.049-0.081-0.132-0.103-0.186l-0.004,0.001c0.035,0.143-0.014,0.283-0.134,0.364
		c-0.183,0.122-0.359,0.05-0.504-0.167c-0.18-0.268-0.124-0.505,0.099-0.653c0.049-0.033,0.098-0.063,0.16-0.095l-0.231-0.347
		l0.078-0.052l0.722,1.079L279.29,323.763z M278.853,323.1c-0.065,0.023-0.123,0.055-0.176,0.091
		c-0.17,0.113-0.212,0.286-0.053,0.523c0.119,0.18,0.257,0.249,0.393,0.158c0.167-0.112,0.112-0.358,0.023-0.491L278.853,323.1z"/>
	<path fill="#CDCCCC" d="M280.146,322.603l-0.507,0.339c0.156,0.255,0.318,0.292,0.494,0.174c0.072-0.049,0.137-0.112,0.179-0.181
		l0.063,0.056c-0.05,0.073-0.122,0.146-0.214,0.207c-0.212,0.143-0.406,0.099-0.578-0.157c-0.146-0.22-0.139-0.46,0.058-0.593
		c0.198-0.132,0.369-0.049,0.473,0.105C280.119,322.562,280.129,322.577,280.146,322.603z M279.676,322.512
		c-0.114,0.076-0.142,0.214-0.073,0.361l0.415-0.277C279.936,322.465,279.801,322.429,279.676,322.512z"/>
	<path fill="#CDCCCC" d="M280.995,322.641c-0.057,0.037-0.125,0.073-0.178,0.091l-0.039-0.089c0.059-0.014,0.131-0.047,0.187-0.085
		c0.116-0.076,0.164-0.187,0.104-0.275c-0.134-0.2-0.434,0.184-0.611-0.082c-0.08-0.119-0.042-0.271,0.136-0.39
		c0.047-0.031,0.109-0.063,0.161-0.082l0.034,0.077c-0.056,0.016-0.115,0.042-0.167,0.076c-0.121,0.082-0.146,0.174-0.092,0.255
		c0.136,0.201,0.437-0.18,0.609,0.078C281.223,322.339,281.183,322.515,280.995,322.641z"/>
	<path fill="#CDCCCC" d="M281.183,321.171c-0.033,0.021-0.077,0.014-0.1-0.021c-0.021-0.032-0.013-0.076,0.02-0.099
		c0.033-0.021,0.076-0.014,0.099,0.02C281.224,321.104,281.215,321.148,281.183,321.171z M281.755,322.113l-0.491-0.734l0.078-0.053
		l0.492,0.735L281.755,322.113z"/>
	<path fill="#CDCCCC" d="M282.846,321.939c-0.182,0.122-0.357,0.123-0.451-0.017c-0.063-0.095-0.051-0.207-0.007-0.299
		c-0.059,0.014-0.114-0.01-0.146-0.057c-0.031-0.048-0.031-0.109-0.001-0.168c-0.096,0.005-0.18-0.036-0.246-0.134
		c-0.097-0.145-0.07-0.346,0.119-0.472c0.033-0.023,0.058-0.033,0.097-0.049l0.249-0.167l0.042,0.062l-0.144,0.096
		c0.076,0.005,0.149,0.047,0.199,0.122c0.099,0.146,0.082,0.336-0.123,0.474c-0.038,0.026-0.071,0.041-0.109,0.051
		c-0.028,0.045-0.029,0.088-0.01,0.119c0.032,0.047,0.09,0.033,0.185-0.025l0.158-0.098c0.164-0.102,0.301-0.078,0.383,0.046
		C283.145,321.578,283.063,321.794,282.846,321.939z M282.15,320.86c-0.134,0.09-0.153,0.229-0.077,0.341
		c0.082,0.124,0.203,0.146,0.333,0.059c0.127-0.086,0.159-0.211,0.076-0.335C282.4,320.802,282.277,320.775,282.15,320.86z
		 M282.686,321.468l-0.162,0.1c-0.017,0.012-0.037,0.025-0.053,0.032c-0.041,0.097-0.049,0.188-0.002,0.258
		c0.071,0.105,0.215,0.097,0.348,0.008c0.177-0.119,0.223-0.267,0.149-0.375C282.906,321.401,282.812,321.39,282.686,321.468z"/>
	<path fill="#CDCCCC" d="M283.876,320.694l-0.319-0.478c-0.087-0.13-0.173-0.182-0.296-0.1c-0.146,0.098-0.153,0.305-0.024,0.498
		l0.234,0.351l-0.077,0.052l-0.492-0.735l0.08-0.053c0.038,0.055,0.083,0.133,0.106,0.186h0.004c-0.036-0.143,0.01-0.282,0.142-0.37
		c0.17-0.114,0.292-0.046,0.38,0.087l0.342,0.511L283.876,320.694z"/>
	<path fill="#CDCCCC" d="M285.283,319.765c-0.147,0.099-0.352,0.148-0.546-0.142c-0.164-0.244-0.147-0.482,0.071-0.629
		c0.077-0.052,0.155-0.085,0.224-0.099l0.023,0.078c-0.064,0.014-0.149,0.045-0.222,0.093c-0.154,0.104-0.15,0.298-0.027,0.482
		c0.109,0.163,0.251,0.271,0.449,0.138c0.072-0.049,0.131-0.108,0.17-0.173l0.061,0.052
		C285.44,319.638,285.365,319.711,285.283,319.765z"/>
	<path fill="#CDCCCC" d="M286.16,319.184c-0.191,0.129-0.396,0.088-0.568-0.169c-0.135-0.202-0.134-0.46,0.086-0.607
		c0.166-0.109,0.378-0.12,0.562,0.156C286.384,318.776,286.376,319.039,286.16,319.184z M285.71,318.479
		c-0.127,0.085-0.185,0.262-0.041,0.477c0.136,0.202,0.307,0.257,0.464,0.151c0.126-0.084,0.18-0.258,0.029-0.483
		C286.033,318.431,285.871,318.37,285.71,318.479z"/>
	<path fill="#CDCCCC" d="M287.432,318.315l-0.32-0.479c-0.087-0.13-0.173-0.182-0.295-0.099c-0.146,0.097-0.154,0.305-0.025,0.498
		l0.234,0.35l-0.077,0.053l-0.492-0.734l0.081-0.055c0.037,0.056,0.083,0.133,0.105,0.186h0.004c-0.036-0.143,0.01-0.282,0.142-0.37
		c0.171-0.113,0.292-0.044,0.38,0.088l0.342,0.51L287.432,318.315z"/>
	<path fill="#CDCCCC" d="M287.786,316.623c-0.047,0.017-0.094,0.038-0.136,0.066c-0.125,0.084-0.129,0.196-0.023,0.355l0.035,0.052
		l0.235-0.156l0.042,0.061l-0.235,0.158l0.449,0.673l-0.078,0.052l-0.45-0.672l-0.174,0.116l-0.042-0.062l0.174-0.117l-0.031-0.049
		c-0.14-0.206-0.098-0.372,0.068-0.482c0.043-0.028,0.085-0.05,0.13-0.067L287.786,316.623z"/>
	<path fill="#CDCCCC" d="M288.996,316.68l-0.506,0.339c0.156,0.255,0.317,0.291,0.494,0.174c0.071-0.049,0.136-0.112,0.178-0.181
		l0.062,0.056c-0.049,0.073-0.12,0.146-0.212,0.207c-0.212,0.143-0.407,0.098-0.579-0.158c-0.146-0.219-0.139-0.459,0.059-0.592
		c0.197-0.132,0.369-0.049,0.473,0.105C288.971,316.639,288.98,316.654,288.996,316.68z M288.525,316.589
		c-0.113,0.076-0.141,0.214-0.071,0.361l0.415-0.277C288.786,316.542,288.652,316.506,288.525,316.589z"/>
	<path fill="#CDCCCC" d="M289.616,315.886c-0.191,0.089-0.179,0.282-0.002,0.547l0.194,0.291l-0.078,0.053l-0.492-0.734l0.082-0.055
		c0.036,0.054,0.082,0.135,0.114,0.213l0.004-0.001c-0.049-0.131-0.05-0.302,0.129-0.393L289.616,315.886z"/>
	<path fill="#CDCCCC" d="M290.704,315.536l-0.505,0.339c0.154,0.256,0.316,0.292,0.492,0.174c0.073-0.049,0.137-0.112,0.179-0.181
		l0.063,0.056c-0.05,0.074-0.121,0.146-0.212,0.208c-0.214,0.143-0.408,0.099-0.58-0.158c-0.146-0.22-0.138-0.46,0.059-0.592
		c0.198-0.133,0.37-0.049,0.473,0.104C290.679,315.495,290.688,315.511,290.704,315.536z M290.234,315.445
		c-0.114,0.077-0.142,0.215-0.072,0.362l0.416-0.277C290.494,315.398,290.359,315.362,290.234,315.445z"/>
	<path fill="#CDCCCC" d="M291.922,315.31l-0.319-0.478c-0.087-0.13-0.172-0.182-0.296-0.1c-0.146,0.098-0.154,0.305-0.023,0.498
		l0.234,0.35l-0.079,0.053l-0.491-0.734l0.081-0.055c0.037,0.056,0.083,0.133,0.106,0.187l0.004-0.001
		c-0.036-0.143,0.01-0.282,0.141-0.37c0.17-0.114,0.293-0.044,0.381,0.088l0.34,0.51L291.922,315.31z"/>
	<path fill="#CDCCCC" d="M292.772,314.753c-0.148,0.1-0.353,0.149-0.547-0.141c-0.164-0.245-0.147-0.483,0.071-0.63
		c0.076-0.051,0.155-0.085,0.223-0.098l0.025,0.078c-0.066,0.014-0.15,0.045-0.222,0.093c-0.154,0.104-0.15,0.298-0.027,0.482
		c0.109,0.162,0.25,0.271,0.448,0.138c0.072-0.049,0.131-0.108,0.17-0.174l0.061,0.052
		C292.929,314.627,292.853,314.699,292.772,314.753z"/>
	<path fill="#CDCCCC" d="M293.667,313.554l-0.505,0.338c0.155,0.256,0.316,0.292,0.492,0.175c0.073-0.049,0.137-0.112,0.179-0.182
		l0.063,0.057c-0.049,0.073-0.121,0.146-0.212,0.207c-0.214,0.143-0.408,0.099-0.579-0.158c-0.146-0.219-0.139-0.46,0.058-0.591
		c0.198-0.133,0.37-0.05,0.473,0.104C293.642,313.512,293.651,313.527,293.667,313.554z M293.197,313.463
		c-0.114,0.077-0.141,0.214-0.072,0.362l0.416-0.278C293.457,313.416,293.322,313.379,293.197,313.463z"/>
</g>
<g>
	<path fill="#FFFFFF" d="M270.688,315.545l0.152-0.186l-0.99-1.291l-0.174,0.209l-0.162-0.209l0.457-0.557
		c0.121-0.147,0.236-0.247,0.356-0.297c0.166-0.071,0.348-0.05,0.488,0.065c0.22,0.182,0.229,0.486,0.08,0.733
		c0.183-0.127,0.42-0.143,0.583-0.009c0.136,0.113,0.205,0.256,0.209,0.416c0.003,0.132-0.039,0.278-0.123,0.426
		c-0.042,0.08-0.102,0.164-0.169,0.246l-0.547,0.664L270.688,315.545z M270.569,314.218c0.228-0.276,0.265-0.532,0.08-0.685
		c-0.077-0.063-0.182-0.083-0.282-0.029c-0.067,0.035-0.144,0.098-0.228,0.198l-0.111,0.136l0.411,0.538L270.569,314.218z
		 M271.227,314.9c0.051-0.062,0.09-0.125,0.12-0.181c0.05-0.096,0.068-0.179,0.061-0.26c-0.009-0.09-0.052-0.168-0.132-0.233
		c-0.146-0.119-0.355-0.064-0.545,0.165l-0.143,0.172l0.44,0.579L271.227,314.9z"/>
	<path fill="#FFFFFF" d="M271.849,313.596l0.038,0.03c0.16,0.132,0.372,0.091,0.531-0.103c0.093-0.112,0.154-0.237,0.191-0.43
		l0.168,0.209c-0.036,0.156-0.092,0.264-0.216,0.414c-0.209,0.255-0.563,0.357-0.854,0.117c-0.359-0.297-0.433-0.804-0.172-1.12
		c0.213-0.259,0.502-0.307,0.751-0.102c0.066,0.055,0.13,0.128,0.189,0.222L271.849,313.596z M271.719,313.438l0.455-0.553
		c-0.021-0.034-0.05-0.066-0.079-0.091c-0.11-0.091-0.254-0.085-0.38,0.068S271.597,313.242,271.719,313.438z"/>
	<path fill="#FFFFFF" d="M272.945,312.805c-0.033-0.027-0.066-0.067-0.1-0.106l-1.062-1.389l-0.164,0.2l-0.146-0.198l0.338-0.409
		l1.209,1.575c0.034,0.045,0.068,0.085,0.093,0.105c0.052,0.042,0.098,0.042,0.132,0c0.041-0.049,0.041-0.123-0.053-0.287
		l0.111-0.065c0.16,0.239,0.146,0.401,0.04,0.529C273.226,312.906,273.075,312.911,272.945,312.805z"/>
	<path fill="#FFFFFF" d="M273.25,311.919c-0.325-0.268-0.423-0.774-0.136-1.123c0.253-0.306,0.614-0.297,0.868-0.089
		c0.323,0.267,0.422,0.774,0.135,1.122C273.864,312.136,273.503,312.127,273.25,311.919z M273.802,310.923
		c-0.185-0.15-0.387-0.119-0.513,0.034c-0.171,0.207-0.109,0.539,0.139,0.745c0.187,0.152,0.391,0.121,0.517-0.031
		C274.115,311.463,274.05,311.128,273.802,310.923z"/>
	<path fill="#FFFFFF" d="M273.945,310.198l-0.151,0.186l-0.145-0.197l0.269-0.326l0.949,0.574c-0.05-0.358-0.146-0.67-0.273-0.847
		c-0.064,0.039-0.152,0.05-0.227-0.012c-0.082-0.067-0.094-0.187-0.025-0.271c0.077-0.094,0.206-0.104,0.324-0.006
		c0.224,0.186,0.389,0.71,0.448,1.338l-0.116,0.142L273.945,310.198z"/>
	<path fill="#FFFFFF" d="M275.395,309.289l0.038,0.032c0.159,0.131,0.372,0.091,0.531-0.103c0.093-0.113,0.153-0.237,0.19-0.43
		l0.169,0.208c-0.036,0.156-0.092,0.265-0.216,0.415c-0.21,0.254-0.564,0.356-0.855,0.116c-0.36-0.296-0.432-0.804-0.172-1.119
		c0.214-0.259,0.503-0.307,0.751-0.103c0.067,0.056,0.131,0.128,0.189,0.222L275.395,309.289z M275.264,309.133l0.456-0.554
		c-0.022-0.034-0.05-0.065-0.08-0.091c-0.109-0.091-0.253-0.084-0.379,0.069C275.134,308.711,275.143,308.937,275.264,309.133z"/>
	<path fill="#FFFFFF" d="M276.046,307.237c0.13-0.158,0.347-0.186,0.508-0.12l-0.636-0.827l-0.163,0.198l-0.147-0.195l0.338-0.41
		l1.208,1.584c0.038,0.048,0.069,0.086,0.094,0.106c0.048,0.038,0.092,0.041,0.127-0.001c0.034-0.042,0.035-0.119-0.058-0.283
		l0.113-0.068c0.159,0.239,0.138,0.412,0.042,0.528c-0.105,0.128-0.258,0.136-0.388,0.028l-0.01-0.008
		c0.056,0.194,0.051,0.406-0.081,0.567c-0.176,0.212-0.472,0.229-0.729,0.018C275.896,308.052,275.795,307.54,276.046,307.237z
		 M276.727,307.335c-0.159-0.132-0.335-0.131-0.467,0.029c-0.17,0.208-0.074,0.549,0.166,0.744c0.152,0.128,0.331,0.137,0.452-0.011
		C277.053,307.885,276.964,307.53,276.727,307.335z"/>
	<path fill="#FFFFFF" d="M278.002,306.662l0.155-0.188l-0.944-1.349l-0.174,0.212l-0.164-0.209l0.325-0.396l1.259,0.565l-0.424-1.58
		l0.34-0.412l0.162,0.212l-0.154,0.188l1.035,1.238l0.177-0.215l0.164,0.209l-0.517,0.627l-0.164-0.209l0.159-0.192l-0.85-1.026
		l0.392,1.507l-0.029,0.034l-1.2-0.524l0.788,1.102l0.181-0.22l0.162,0.211l-0.515,0.625L278.002,306.662z"/>
	<path fill="#FFFFFF" d="M279.591,304.315c-0.363-0.3-0.472-0.812-0.217-1.12c0.132-0.16,0.348-0.186,0.514-0.111l-0.181-0.264
		l0.167-0.203l0.604,0.812c0.033,0.049,0.066,0.089,0.092,0.109c0.047,0.038,0.093,0.039,0.127-0.003
		c0.032-0.04,0.036-0.12-0.06-0.28l0.114-0.069c0.159,0.239,0.14,0.409,0.042,0.528c-0.104,0.126-0.256,0.134-0.384,0.027
		l-0.012-0.01c0.05,0.194,0.049,0.41-0.083,0.569C280.141,304.515,279.851,304.529,279.591,304.315z M280.047,303.299
		c-0.158-0.131-0.326-0.136-0.461,0.026c-0.171,0.208-0.075,0.548,0.166,0.744c0.155,0.13,0.326,0.142,0.448-0.007
		C280.38,303.846,280.278,303.49,280.047,303.299z"/>
	<path fill="#FFFFFF" d="M281.055,303.127c-0.076,0.007-0.146-0.006-0.197-0.05c-0.078-0.064-0.093-0.168-0.033-0.239
		c0.057-0.069,0.152-0.073,0.217-0.021c0.024,0.021,0.043,0.053,0.049,0.081c0.017-0.002,0.035-0.008,0.059-0.017
		c0.065-0.029,0.142-0.087,0.205-0.163c0.091-0.111,0.124-0.242,0.038-0.312c-0.09-0.074-0.221-0.004-0.37,0.071
		c-0.189,0.094-0.381,0.176-0.552,0.035c-0.17-0.14-0.198-0.407,0.02-0.672c0.12-0.146,0.269-0.229,0.397-0.24
		c0.071-0.007,0.14,0.012,0.188,0.052c0.081,0.066,0.089,0.169,0.034,0.235c-0.056,0.066-0.154,0.076-0.219,0.023
		c-0.021-0.018-0.035-0.037-0.05-0.079c-0.012,0.004-0.027,0.008-0.051,0.021c-0.045,0.025-0.099,0.068-0.144,0.123
		c-0.089,0.109-0.115,0.231-0.038,0.295c0.081,0.067,0.215,0,0.373-0.077c0.188-0.091,0.383-0.166,0.547-0.03
		c0.211,0.173,0.187,0.439-0.021,0.69C281.373,303.018,281.201,303.115,281.055,303.127z"/>
	<path fill="#FFFFFF" d="M281.57,301.814c-0.338-0.278-0.399-0.802-0.121-1.14c0.193-0.235,0.464-0.272,0.62-0.144
		c0.091,0.074,0.12,0.194,0.048,0.284c-0.056,0.066-0.156,0.083-0.234,0.018c-0.033-0.026-0.058-0.076-0.057-0.121
		c-0.069,0.001-0.135,0.042-0.198,0.118c-0.159,0.192-0.161,0.534,0.109,0.758c0.186,0.152,0.405,0.126,0.554-0.054
		c0.103-0.123,0.157-0.29,0.162-0.469l0.192,0.169c-0.01,0.164-0.073,0.328-0.19,0.469
		C282.224,301.984,281.867,302.059,281.57,301.814z"/>
	<path fill="#FFFFFF" d="M282.536,300.643c-0.325-0.268-0.423-0.773-0.136-1.122c0.252-0.306,0.614-0.299,0.868-0.089
		c0.323,0.266,0.421,0.773,0.134,1.121C283.15,300.859,282.788,300.851,282.536,300.643z M283.087,299.646
		c-0.184-0.149-0.387-0.118-0.512,0.035c-0.171,0.206-0.11,0.539,0.14,0.744c0.186,0.153,0.39,0.121,0.515-0.031
		C283.4,300.188,283.336,299.853,283.087,299.646z"/>
	<path fill="#FFFFFF" d="M283.506,298.59l0.435,0.585c0.027,0.04,0.059,0.074,0.081,0.092c0.06,0.049,0.12,0.042,0.16-0.008
		c0.047-0.058,0.065-0.13,0.081-0.29l0.167,0.009c0.007,0.238-0.051,0.384-0.137,0.488c-0.107,0.13-0.268,0.174-0.418,0.049
		c-0.037-0.029-0.073-0.071-0.113-0.122l-0.435-0.586l-0.159,0.192l-0.148-0.192l0.161-0.195l-0.191-0.261l0.114-0.304l0.256,0.348
		l0.27-0.326l0.143,0.198L283.506,298.59z"/>
	<path fill="#FFFFFF" d="M278.297,311.103c-0.005,0.17-0.064,0.356-0.19,0.51c-0.229,0.278-0.599,0.323-0.91,0.066
		c-0.402-0.331-0.522-0.957-0.18-1.373c0.128-0.155,0.3-0.248,0.432-0.265c0.069-0.009,0.144-0.002,0.205,0.048
		c0.071,0.06,0.072,0.143,0.032,0.192c-0.045,0.055-0.104,0.061-0.15,0.023c-0.033-0.028-0.049-0.079-0.037-0.136
		c-0.021-0.002-0.047-0.001-0.074,0.005c-0.093,0.023-0.211,0.091-0.315,0.218c-0.312,0.38-0.144,0.907,0.178,1.172
		c0.238,0.196,0.534,0.205,0.741-0.047c0.123-0.15,0.187-0.334,0.186-0.522l-0.224-0.297l-0.297,0.362l-0.074-0.1l0.383-0.466
		l0.474,0.624l-0.084,0.103L278.297,311.103z"/>
	<path fill="#FFFFFF" d="M277.883,309.693c-0.045-0.037-0.054-0.104-0.017-0.149c0.035-0.044,0.104-0.048,0.148-0.012
		c0.046,0.038,0.054,0.105,0.019,0.148C277.995,309.727,277.929,309.731,277.883,309.693z M278.668,310.633
		c-0.021-0.018-0.052-0.056-0.071-0.086l-0.384-0.551l-0.131,0.159l-0.069-0.094l0.213-0.26l0.46,0.657
		c0.02,0.03,0.05,0.062,0.063,0.075c0.038,0.031,0.084,0.027,0.111-0.007c0.034-0.041,0.023-0.104-0.034-0.213l0.066-0.043
		c0.082,0.131,0.101,0.241,0.029,0.327C278.853,310.684,278.748,310.698,278.668,310.633z"/>
	<path fill="#FFFFFF" d="M278.72,309.38l0.406,0.544c0.02,0.025,0.038,0.047,0.061,0.065c0.025,0.022,0.076,0.026,0.113-0.018
		c0.035-0.043,0.049-0.118,0.062-0.238l0.093,0.007c-0.008,0.148-0.024,0.25-0.085,0.324c-0.073,0.089-0.18,0.103-0.255,0.04
		c-0.023-0.02-0.047-0.048-0.074-0.082l-0.4-0.544l-0.116,0.14l-0.067-0.095l0.113-0.138l-0.155-0.21l0.057-0.131l0.179,0.242
		l0.203-0.245l0.068,0.095L278.72,309.38z"/>
	<path fill="#FFFFFF" d="M279.568,309.598l0.13-0.157l-0.854-1.113l-0.146,0.176l-0.075-0.101l0.362-0.441l0.077,0.101l-0.13,0.157
		l0.373,0.486l0.598-0.725l-0.375-0.484l-0.146,0.176l-0.076-0.1l0.363-0.441l0.076,0.101l-0.129,0.157l0.854,1.113l0.146-0.176
		l0.075,0.101l-0.362,0.44l-0.077-0.101l0.131-0.156l-0.401-0.527l-0.597,0.725l0.401,0.524l0.146-0.176l0.076,0.102l-0.363,0.44
		L279.568,309.598z"/>
	<path fill="#FFFFFF" d="M280.357,307.213l0.404,0.56c0.021,0.03,0.051,0.063,0.085,0.093c0.064,0.052,0.155,0.042,0.223-0.04
		c0.097-0.117,0.096-0.373-0.079-0.609l-0.301-0.405l0.081-0.099l0.473,0.64c0.024,0.033,0.05,0.063,0.064,0.076
		c0.038,0.031,0.083,0.026,0.111-0.007c0.034-0.042,0.023-0.105-0.035-0.212l0.067-0.045c0.081,0.131,0.101,0.241,0.028,0.328
		c-0.066,0.082-0.162,0.095-0.247,0.026c-0.018-0.016-0.038-0.037-0.06-0.065c0.06,0.165,0.069,0.336-0.031,0.458
		c-0.104,0.126-0.256,0.152-0.373,0.057c-0.04-0.033-0.069-0.073-0.095-0.105l-0.329-0.456l-0.124,0.151l-0.069-0.095
		L280.357,307.213z"/>
	<path fill="#FFFFFF" d="M280.672,305.804l-0.124,0.151l-0.069-0.092l0.205-0.25l0.6,0.787c-0.037-0.14-0.037-0.299,0.065-0.423
		c0.143-0.173,0.384-0.199,0.589-0.031c0.278,0.229,0.32,0.61,0.141,0.828c-0.115,0.14-0.281,0.175-0.425,0.104l0.148,0.199
		l-0.08,0.099L280.672,305.804z M281.86,306.062c-0.156-0.129-0.323-0.131-0.436,0.006c-0.155,0.188-0.054,0.524,0.132,0.676
		c0.138,0.114,0.31,0.106,0.431-0.041C282.142,306.516,282.059,306.224,281.86,306.062z"/>
</g>
<path fill="#F2F2F2" d="M244.057,279.057c-0.253,0.047-0.509,0.094-0.752,0.14c4.688,10.035,12.286,16.913,15.856,19.753
	l0.692-0.464C256.45,295.836,248.768,289.093,244.057,279.057z M275.76,278.171c-0.282-0.045-0.563-0.088-0.847-0.13
	c0.478,3.773,1.714,6.517,2.939,8.399l0.687-0.457C277.402,284.226,276.248,281.667,275.76,278.171z"/>
<polygon opacity="0.1" fill="#F2F2F2" points="275.73,328.276 257.049,300.362 279.789,285.146 "/>
<path fill="#FEE7AD" d="M137.001,264.288c0,0,0.978-8.845-25.293,0.221l1.265,5.603l10.653,2.811
	C123.625,272.923,137.466,270.721,137.001,264.288z"/>
<path opacity="0.1" fill="#69AEE0" d="M109.436,254.309c-16.179,2.683-28.973,6.808-28.573,9.211l22.576,83.078
	c0.282,1.7,9.794,1.54,21.245-0.359c11.451-1.898,20.515-4.817,20.233-6.519l-5.46-85.917
	C139.057,251.399,125.616,251.625,109.436,254.309z"/>
<path opacity="0.1" fill="#69AEE0" d="M136.428,256.384l5.841,80.61c0.253,1.525-7.875,4.144-18.149,5.848
	s-18.807,1.848-19.06,0.322l-20.5-78.179c-2.243-0.249-3.577-0.735-3.697-1.466l22.576,83.078c0.282,1.7,9.794,1.54,21.245-0.359
	c11.451-1.898,20.515-4.817,20.233-6.519l-5.46-85.917C139.576,254.532,138.471,255.423,136.428,256.384z"/>
<path fill="#EDD8A2" d="M105.06,343.164c0.253,1.525,8.787,1.382,19.06-0.322s18.402-4.322,18.149-5.848l-5.268-72.706
	c-1.866,6.955-24.185,1.424-30.159-1.7c-11.649-6.093-24.692-4.074-22.282,2.397L105.06,343.164z"/>
<path opacity="0.1" fill="#010101" d="M138.225,305.427c-0.387,0-0.702,0.315-0.702,0.702c0,0.388,0.315,0.701,0.702,0.701
	c0.388,0,0.703-0.313,0.703-0.701C138.928,305.742,138.613,305.427,138.225,305.427z M138.069,306.176
	c-0.138,0-0.251-0.112-0.251-0.254c0-0.139,0.114-0.251,0.251-0.251c0.139,0,0.25,0.112,0.25,0.251
	C138.32,306.063,138.208,306.176,138.069,306.176z"/>
<path opacity="0.1" fill="#010101" d="M134.696,308.979c-0.307,0-0.557,0.249-0.557,0.559c0,0.307,0.25,0.556,0.557,0.556
	c0.309,0,0.557-0.249,0.557-0.556C135.253,309.229,135.005,308.979,134.696,308.979z M134.573,309.571
	c-0.109,0-0.199-0.088-0.199-0.197s0.089-0.198,0.199-0.198c0.11,0,0.199,0.089,0.199,0.198S134.683,309.571,134.573,309.571z"/>
<path opacity="0.1" fill="#010101" d="M107.089,304.67c-0.392,0-0.708,0.316-0.708,0.708c0,0.391,0.317,0.706,0.708,0.706
	c0.392,0,0.708-0.315,0.708-0.706C107.798,304.986,107.481,304.67,107.089,304.67z M106.932,305.423
	c-0.14,0-0.253-0.113-0.253-0.254c0-0.139,0.113-0.251,0.253-0.251s0.253,0.112,0.253,0.251
	C107.185,305.31,107.072,305.423,106.932,305.423z"/>
<path opacity="0.1" fill="#010101" d="M100.412,271.86c-0.589,0-1.064,0.477-1.064,1.063s0.475,1.062,1.064,1.062
	c0.587,0,1.062-0.475,1.062-1.062S100.999,271.86,100.412,271.86z M100.175,272.991c-0.21,0-0.38-0.168-0.38-0.381
	c0-0.208,0.17-0.378,0.38-0.378c0.21,0,0.379,0.17,0.379,0.378C100.554,272.823,100.385,272.991,100.175,272.991z"/>
<path opacity="0.1" fill="#010101" d="M86.146,258.706c-0.588,0-1.064,0.476-1.064,1.063c0,0.587,0.476,1.062,1.064,1.062
	c0.587,0,1.062-0.474,1.062-1.062C87.208,259.182,86.733,258.706,86.146,258.706z M85.91,259.836c-0.21,0-0.38-0.167-0.38-0.38
	c0-0.208,0.17-0.379,0.38-0.379c0.209,0,0.379,0.17,0.379,0.379C86.289,259.669,86.119,259.836,85.91,259.836z"/>
<path opacity="0.1" fill="#010101" d="M95.873,277.377c-0.668,0-1.209,0.54-1.209,1.209c0,0.67,0.541,1.209,1.209,1.209
	c0.667,0,1.21-0.539,1.21-1.209C97.083,277.917,96.54,277.377,95.873,277.377z M95.605,278.664c-0.239,0-0.432-0.192-0.432-0.432
	c0-0.238,0.193-0.435,0.432-0.435c0.238,0,0.431,0.196,0.431,0.435C96.036,278.472,95.843,278.664,95.605,278.664z"/>
<path opacity="0.1" fill="#010101" d="M130.123,299.276c-0.694,0-1.256,0.56-1.256,1.256c0,0.693,0.562,1.257,1.256,1.257
	c0.693,0,1.254-0.563,1.254-1.257C131.377,299.836,130.816,299.276,130.123,299.276z M129.844,300.615
	c-0.25,0-0.449-0.202-0.449-0.45c0-0.246,0.199-0.45,0.449-0.45c0.247,0,0.448,0.204,0.448,0.45
	C130.292,300.413,130.091,300.615,129.844,300.615z"/>
<path opacity="0.1" fill="#010101" d="M111.544,308.122c-0.475,0-0.859,0.382-0.859,0.857c0,0.475,0.384,0.86,0.859,0.86
	s0.859-0.386,0.859-0.86C112.403,308.504,112.019,308.122,111.544,308.122z M111.354,309.036c-0.17,0-0.308-0.136-0.308-0.308
	c0-0.17,0.138-0.308,0.308-0.308c0.169,0,0.305,0.138,0.305,0.308C111.659,308.9,111.523,309.036,111.354,309.036z"/>
<path opacity="0.1" fill="#010101" d="M130.252,278.628c-0.475,0-0.859,0.382-0.859,0.857c0,0.475,0.384,0.86,0.859,0.86
	s0.859-0.386,0.859-0.86C131.111,279.01,130.728,278.628,130.252,278.628z M130.062,279.543c-0.17,0-0.309-0.137-0.309-0.308
	s0.138-0.309,0.309-0.309c0.169,0,0.305,0.138,0.305,0.309S130.231,279.543,130.062,279.543z"/>
<path opacity="0.1" fill="#010101" d="M121.027,307.469c-0.509,0-0.922,0.412-0.922,0.922s0.413,0.924,0.922,0.924
	s0.922-0.414,0.922-0.924S121.536,307.469,121.027,307.469z M120.822,308.45c-0.183,0-0.331-0.147-0.331-0.33
	c0-0.18,0.147-0.329,0.331-0.329c0.182,0,0.329,0.149,0.329,0.329C121.151,308.303,121.004,308.45,120.822,308.45z"/>
<path opacity="0.1" fill="#010101" d="M125.605,308.996c-0.379,0-0.688,0.308-0.688,0.688c0,0.38,0.308,0.687,0.688,0.687
	c0.381,0,0.688-0.307,0.688-0.687C126.292,309.304,125.986,308.996,125.605,308.996z M125.453,309.728
	c-0.137,0-0.247-0.109-0.247-0.244c0-0.136,0.109-0.246,0.247-0.246c0.135,0,0.244,0.11,0.244,0.246
	C125.697,309.618,125.588,309.728,125.453,309.728z"/>
<path opacity="0.1" fill="#010101" d="M108.878,285.796c-0.5,0-0.905,0.405-0.905,0.907c0,0.499,0.405,0.904,0.905,0.904
	s0.904-0.405,0.904-0.904C109.782,286.201,109.378,285.796,108.878,285.796z M108.677,286.762c-0.178,0-0.322-0.146-0.322-0.324
	c0-0.179,0.144-0.324,0.322-0.324c0.179,0,0.323,0.146,0.323,0.324C109,286.615,108.855,286.762,108.677,286.762z"/>
<path opacity="0.1" fill="#010101" d="M100.41,298.497c-0.806,0-1.459,0.652-1.459,1.462c0,0.807,0.653,1.458,1.459,1.458
	c0.807,0,1.46-0.651,1.46-1.458C101.87,299.149,101.216,298.497,100.41,298.497z M100.086,300.052c-0.288,0-0.521-0.232-0.521-0.521
	c0-0.288,0.234-0.521,0.521-0.521c0.287,0,0.521,0.233,0.521,0.521C100.607,299.819,100.373,300.052,100.086,300.052z"/>
<path opacity="0.1" fill="#010101" d="M129.75,309.68c-0.276,0-0.5,0.224-0.5,0.502c0,0.277,0.224,0.502,0.5,0.502
	c0.278,0,0.501-0.225,0.501-0.502C130.251,309.903,130.028,309.68,129.75,309.68z M129.64,310.214c-0.099,0-0.179-0.082-0.179-0.18
	c0-0.1,0.08-0.18,0.179-0.18c0.099,0,0.179,0.08,0.179,0.18C129.818,310.132,129.738,310.214,129.64,310.214z"/>
<path opacity="0.1" fill="#010101" d="M134.499,313.006c-0.344,0-0.62,0.277-0.62,0.62c0,0.345,0.276,0.622,0.62,0.622
	s0.62-0.277,0.62-0.622C135.119,313.283,134.843,313.006,134.499,313.006z M134.361,313.665c-0.122,0-0.221-0.097-0.221-0.221
	c0-0.122,0.099-0.222,0.221-0.222c0.124,0,0.223,0.1,0.223,0.222C134.583,313.568,134.485,313.665,134.361,313.665z"/>
<path opacity="0.1" fill="#010101" d="M135.118,314.817c-0.278,0-0.504,0.225-0.504,0.504c0,0.277,0.226,0.504,0.504,0.504
	c0.279,0,0.506-0.227,0.506-0.504C135.624,315.042,135.397,314.817,135.118,314.817z M135.006,315.353
	c-0.099,0-0.18-0.079-0.18-0.18s0.082-0.18,0.18-0.18c0.1,0,0.182,0.079,0.182,0.18S135.106,315.353,135.006,315.353z"/>
<path opacity="0.1" fill="#010101" d="M124.506,303.284c-0.395,0-0.714,0.32-0.714,0.716c0,0.394,0.319,0.714,0.714,0.714
	c0.396,0,0.715-0.32,0.715-0.714C125.221,303.604,124.902,303.284,124.506,303.284z M124.348,304.045
	c-0.142,0-0.256-0.114-0.256-0.256c0-0.141,0.114-0.254,0.256-0.254s0.256,0.113,0.256,0.254
	C124.604,303.931,124.489,304.045,124.348,304.045z"/>
<path opacity="0.1" fill="#010101" d="M102.74,288.837c-1.288,0-2.33,1.039-2.33,2.33c0,1.286,1.042,2.327,2.33,2.327
	c1.288,0,2.33-1.041,2.33-2.327C105.07,289.876,104.028,288.837,102.74,288.837z M102.223,291.315c-0.459,0-0.833-0.37-0.833-0.832
	c0-0.46,0.374-0.832,0.833-0.832c0.46,0,0.833,0.372,0.833,0.832C103.055,290.945,102.683,291.315,102.223,291.315z"/>
<path opacity="0.1" fill="#010101" d="M106.24,265.184c-1.287,0-2.33,1.041-2.33,2.33c0,1.287,1.042,2.328,2.33,2.328
	c1.288,0,2.33-1.041,2.33-2.328C108.57,266.225,107.527,265.184,106.24,265.184z M105.723,267.662c-0.46,0-0.833-0.37-0.833-0.832
	c0-0.46,0.373-0.833,0.833-0.833s0.833,0.373,0.833,0.833C106.555,267.292,106.183,267.662,105.723,267.662z"/>
<path opacity="0.1" fill="#010101" d="M118.3,310.103c-0.606,0-1.097,0.49-1.097,1.096c0,0.607,0.491,1.097,1.097,1.097
	s1.097-0.489,1.097-1.097C119.397,310.593,118.907,310.103,118.3,310.103z M118.057,311.269c-0.216,0-0.391-0.176-0.391-0.391
	c0-0.216,0.175-0.391,0.391-0.391c0.217,0,0.392,0.175,0.392,0.391C118.449,311.093,118.273,311.269,118.057,311.269z"/>
<path opacity="0.1" fill="#010101" d="M119.611,303.179c-0.352,0-0.636,0.283-0.636,0.638c0,0.351,0.285,0.636,0.636,0.636
	s0.637-0.285,0.637-0.636C120.249,303.462,119.963,303.179,119.611,303.179z M119.47,303.858c-0.125,0-0.227-0.104-0.227-0.229
	c0-0.124,0.102-0.227,0.227-0.227s0.228,0.103,0.228,0.227C119.697,303.755,119.595,303.858,119.47,303.858z"/>
<path opacity="0.1" fill="#010101" d="M104.914,314.329c-0.451,0-0.814,0.364-0.814,0.816c0,0.45,0.364,0.814,0.814,0.814
	c0.451,0,0.816-0.364,0.816-0.814C105.73,314.693,105.365,314.329,104.914,314.329z M104.734,315.198
	c-0.162,0-0.293-0.129-0.293-0.291s0.131-0.292,0.293-0.292c0.16,0,0.291,0.13,0.291,0.292S104.894,315.198,104.734,315.198z"/>
<path opacity="0.1" fill="#010101" d="M105.518,310.204c-0.399,0-0.723,0.324-0.723,0.723c0,0.399,0.324,0.722,0.723,0.722
	c0.399,0,0.722-0.322,0.722-0.722C106.24,310.528,105.917,310.204,105.518,310.204z M105.357,310.972
	c-0.143,0-0.258-0.113-0.258-0.258c0-0.143,0.116-0.259,0.258-0.259s0.257,0.116,0.257,0.259
	C105.614,310.858,105.5,310.972,105.357,310.972z"/>
<path opacity="0.1" fill="#010101" d="M102.22,276.715c-1.167,0-2.112,0.942-2.112,2.109s0.944,2.11,2.112,2.11
	c1.165,0,2.109-0.943,2.109-2.11S103.385,276.715,102.22,276.715z M101.75,278.961c-0.417,0-0.754-0.336-0.754-0.756
	c0-0.417,0.337-0.752,0.754-0.752c0.417,0,0.754,0.335,0.754,0.752C102.504,278.625,102.167,278.961,101.75,278.961z"/>
<path opacity="0.1" fill="#010101" d="M141.018,319.723l-0.867-11.953c-10.031-5.091-19.953-11.882-28.692-20.983
	c-4.857-5.06-15.872-5.366-22.17-3.767l2.655,10.123c4.676-1.394,12.974-4.95,16.91-0.745
	C113.862,297.748,122.268,309.417,141.018,319.723z"/>
<path fill="#EDD8A2" d="M126.768,301.568c-1.234-0.833-2.553-1.03-2.948-0.448c-0.396,0.586,0.286,1.733,1.518,2.564
	c1.235,0.833,2.553,1.031,2.947,0.445C128.681,303.545,128,302.398,126.768,301.568z M112.862,291.857
	c-0.316,0.383,0.081,1.229,0.883,1.895c0.805,0.665,1.711,0.894,2.027,0.512c0.316-0.383-0.081-1.228-0.884-1.892
	C114.084,291.705,113.178,291.477,112.862,291.857z M120.412,296.731c-1.169-0.787-2.418-0.975-2.792-0.424
	c-0.375,0.559,0.271,1.643,1.438,2.431c1.169,0.787,2.418,0.977,2.791,0.421C122.223,298.606,121.578,297.521,120.412,296.731z
	 M109.798,287.389c-0.946-0.439-1.881-0.431-2.09,0.018c-0.209,0.45,0.39,1.168,1.335,1.608c0.947,0.438,1.882,0.43,2.09-0.02
	C111.343,288.546,110.744,287.827,109.798,287.389z M102.733,284.827c-1.135-0.237-2.145,0.007-2.258,0.544
	c-0.113,0.539,0.716,1.167,1.85,1.405c1.135,0.236,2.145-0.007,2.258-0.545C104.695,285.692,103.867,285.065,102.733,284.827z
	 M94.203,284.33c-1.432,0.096-2.555,0.725-2.509,1.403c0.046,0.681,1.244,1.152,2.675,1.056s2.555-0.726,2.509-1.404
	C96.833,284.705,95.635,284.232,94.203,284.33z M140.306,309.892c-0.908-0.082-1.622,0.125-1.818,0.609
	c-0.285,0.709,0.618,1.737,2.034,2.392L140.306,309.892z M133.855,305.995c-1.555-0.726-3.091-0.713-3.437,0.021
	c-0.345,0.739,0.637,1.921,2.189,2.648c1.555,0.724,3.092,0.713,3.436-0.025C136.389,307.902,135.408,306.719,133.855,305.995z"/>
<path opacity="0.1" fill="#010101" d="M116.838,291.194c-0.335,0-0.606,0.274-0.606,0.61c0,0.334,0.271,0.604,0.606,0.604
	c0.335,0,0.606-0.271,0.606-0.604C117.444,291.469,117.173,291.194,116.838,291.194z M116.703,291.844
	c-0.119,0-0.215-0.099-0.215-0.219s0.096-0.214,0.215-0.214c0.12,0,0.216,0.094,0.216,0.214S116.822,291.844,116.703,291.844z"/>
<path opacity="0.1" fill="#010101" d="M104.099,272.923c-0.226,0-0.408,0.183-0.408,0.406c0,0.228,0.182,0.409,0.408,0.409
	c0.225,0,0.408-0.182,0.408-0.409C104.507,273.105,104.324,272.923,104.099,272.923z M104.008,273.357
	c-0.081,0-0.146-0.066-0.146-0.145c0-0.083,0.065-0.146,0.146-0.146c0.08,0,0.146,0.063,0.146,0.146
	C104.154,273.291,104.088,273.357,104.008,273.357z"/>
<path opacity="0.1" fill="#010101" d="M135.208,291.165c-0.427,0-0.772,0.347-0.772,0.773s0.346,0.773,0.772,0.773
	s0.772-0.347,0.772-0.773S135.635,291.165,135.208,291.165z M135.037,291.99c-0.153,0-0.276-0.124-0.276-0.277
	c0-0.152,0.123-0.275,0.276-0.275c0.151,0,0.276,0.123,0.276,0.275C135.313,291.866,135.188,291.99,135.037,291.99z"/>
<path opacity="0.1" fill="#010101" d="M111.805,271.743c-0.38,0-0.688,0.31-0.688,0.687c0,0.381,0.307,0.69,0.688,0.69
	c0.38,0,0.687-0.31,0.687-0.69C112.491,272.053,112.185,271.743,111.805,271.743z M111.652,272.476
	c-0.137,0-0.246-0.109-0.246-0.245c0-0.137,0.109-0.243,0.246-0.243c0.135,0,0.246,0.106,0.246,0.243
	C111.898,272.366,111.788,272.476,111.652,272.476z"/>
<path opacity="0.1" fill="#010101" d="M125.981,295.199c-0.349,0-0.632,0.282-0.632,0.632c0,0.349,0.283,0.63,0.632,0.63
	c0.348,0,0.629-0.281,0.629-0.63C126.61,295.481,126.329,295.199,125.981,295.199z M125.841,295.871
	c-0.126,0-0.226-0.099-0.226-0.225s0.099-0.227,0.226-0.227c0.124,0,0.225,0.101,0.225,0.227S125.964,295.871,125.841,295.871z"/>
<path opacity="0.1" fill="#010101" d="M91.475,270.398c-0.372,0-0.674,0.302-0.674,0.673c0,0.373,0.302,0.672,0.674,0.672
	s0.672-0.299,0.672-0.672C92.147,270.701,91.847,270.398,91.475,270.398z M91.325,271.115c-0.133,0-0.24-0.107-0.24-0.239
	c0-0.136,0.107-0.244,0.24-0.244s0.241,0.107,0.241,0.244C91.566,271.008,91.458,271.115,91.325,271.115z"/>
<path opacity="0.1" fill="#010101" d="M130.067,290.703c-0.384,0-0.694,0.312-0.694,0.697c0,0.384,0.311,0.691,0.694,0.691
	s0.694-0.308,0.694-0.691C130.761,291.015,130.451,290.703,130.067,290.703z M129.914,291.443c-0.138,0-0.249-0.111-0.249-0.249
	c0-0.136,0.111-0.249,0.249-0.249c0.136,0,0.247,0.113,0.247,0.249C130.161,291.332,130.05,291.443,129.914,291.443z"/>
<path opacity="0.1" fill="#010101" d="M117.675,297.796c-0.217,0-0.393,0.178-0.393,0.396c0,0.22,0.176,0.395,0.393,0.395
	c0.218,0,0.394-0.175,0.394-0.395C118.069,297.974,117.893,297.796,117.675,297.796z M117.587,298.218
	c-0.078,0-0.14-0.064-0.14-0.143c0-0.077,0.062-0.141,0.14-0.141c0.079,0,0.142,0.063,0.142,0.141
	C117.729,298.153,117.666,298.218,117.587,298.218z"/>
<path opacity="0.1" fill="#010101" d="M107.241,322.521c-0.338,0-0.613,0.275-0.613,0.615c0,0.341,0.275,0.613,0.613,0.613
	c0.339,0,0.614-0.272,0.614-0.613C107.854,322.796,107.58,322.521,107.241,322.521z M107.105,323.176
	c-0.121,0-0.219-0.097-0.219-0.219s0.099-0.22,0.219-0.22s0.219,0.098,0.219,0.22S107.226,323.176,107.105,323.176z"/>
<path opacity="0.1" fill="#010101" d="M103.691,317.989c-0.338,0-0.614,0.275-0.614,0.615c0,0.342,0.275,0.614,0.614,0.614
	c0.339,0,0.614-0.272,0.614-0.614C104.305,318.265,104.03,317.989,103.691,317.989z M103.555,318.646
	c-0.121,0-0.219-0.098-0.219-0.22c0-0.121,0.099-0.219,0.219-0.219s0.22,0.098,0.22,0.219
	C103.774,318.548,103.675,318.646,103.555,318.646z"/>
<path opacity="0.1" fill="#010101" d="M137.813,318.603c-0.245,0-0.442,0.199-0.442,0.444c0,0.244,0.197,0.44,0.442,0.44
	c0.243,0,0.44-0.196,0.44-0.44C138.254,318.802,138.057,318.603,137.813,318.603z M137.715,319.076c-0.087,0-0.158-0.072-0.158-0.16
	s0.07-0.158,0.158-0.158s0.158,0.07,0.158,0.158S137.802,319.076,137.715,319.076z"/>
<path opacity="0.1" fill="#010101" d="M134.532,328.951c-0.418,0-0.756,0.337-0.756,0.755c0,0.42,0.338,0.756,0.756,0.756
	s0.757-0.336,0.757-0.756C135.289,329.288,134.95,328.951,134.532,328.951z M134.363,329.755c-0.147,0-0.27-0.12-0.27-0.27
	c0-0.148,0.122-0.271,0.27-0.271c0.151,0,0.271,0.123,0.271,0.271C134.635,329.635,134.514,329.755,134.363,329.755z"/>
<path opacity="0.1" fill="#010101" d="M115.232,298.815c-1.054,0.033-1.882,0.917-1.849,1.97c0.032,1.054,0.913,1.88,1.968,1.848
	c1.053-0.032,1.88-0.913,1.848-1.966C117.166,299.612,116.286,298.783,115.232,298.815z M114.872,300.863
	c-0.377,0.011-0.691-0.285-0.704-0.663c-0.012-0.377,0.283-0.691,0.661-0.703c0.376-0.011,0.692,0.282,0.704,0.661
	C115.545,300.535,115.249,300.852,114.872,300.863z"/>
<path opacity="0.1" fill="#010101" d="M128.136,270.523c-1.054,0.032-1.882,0.915-1.849,1.97c0.032,1.054,0.913,1.88,1.968,1.848
	c1.053-0.034,1.88-0.913,1.848-1.966C130.069,271.32,129.189,270.49,128.136,270.523z M127.775,272.57
	c-0.377,0.013-0.692-0.285-0.704-0.663c-0.012-0.378,0.283-0.69,0.661-0.702c0.376-0.012,0.692,0.281,0.704,0.66
	C128.448,272.243,128.152,272.56,127.775,272.57z"/>
<path opacity="0.1" fill="#010101" d="M132.301,271.211c-1.054,0.033-1.882,0.916-1.849,1.971c0.033,1.053,0.914,1.879,1.968,1.846
	c1.054-0.032,1.88-0.912,1.847-1.965C134.234,272.008,133.354,271.178,132.301,271.211z M131.94,273.259
	c-0.377,0.012-0.691-0.285-0.704-0.663c-0.012-0.378,0.283-0.691,0.662-0.703c0.376-0.012,0.692,0.282,0.704,0.661
	C132.613,272.931,132.316,273.247,131.94,273.259z"/>
<path opacity="0.1" fill="#010101" d="M123.663,316.14c-0.513,0-0.928,0.414-0.928,0.925c0,0.512,0.415,0.927,0.928,0.927
	c0.513,0,0.926-0.415,0.926-0.927C124.589,316.554,124.175,316.14,123.663,316.14z M123.456,317.126
	c-0.183,0-0.332-0.149-0.332-0.331c0-0.186,0.149-0.332,0.332-0.332s0.332,0.146,0.332,0.332
	C123.788,316.977,123.639,317.126,123.456,317.126z"/>
<path opacity="0.1" fill="#010101" d="M110.315,315.837c-0.678,0-1.226,0.548-1.226,1.228c0,0.677,0.548,1.229,1.226,1.229
	c0.679,0,1.229-0.552,1.229-1.229C111.544,316.385,110.994,315.837,110.315,315.837z M110.043,317.143
	c-0.241,0-0.438-0.194-0.438-0.438c0-0.241,0.197-0.438,0.438-0.438c0.243,0,0.44,0.197,0.44,0.438
	C110.483,316.948,110.286,317.143,110.043,317.143z"/>
<path opacity="0.1" fill="#010101" d="M122.314,271.694c-0.678,0-1.227,0.549-1.227,1.228c0,0.678,0.549,1.229,1.227,1.229
	c0.678,0,1.228-0.552,1.228-1.229C123.542,272.243,122.993,271.694,122.314,271.694z M122.042,273.001
	c-0.241,0-0.438-0.194-0.438-0.438c0-0.241,0.197-0.438,0.438-0.438c0.243,0,0.44,0.197,0.44,0.438
	C122.482,272.807,122.285,273.001,122.042,273.001z"/>
<path opacity="0.1" fill="#010101" d="M119.291,319.685c-0.547,0-0.99,0.443-0.99,0.989c0,0.548,0.443,0.991,0.99,0.991
	c0.547,0,0.989-0.443,0.989-0.991C120.28,320.128,119.837,319.685,119.291,319.685z M119.07,320.74c-0.196,0-0.354-0.16-0.354-0.354
	c0-0.197,0.158-0.354,0.354-0.354s0.354,0.157,0.354,0.354C119.424,320.58,119.266,320.74,119.07,320.74z"/>
<path opacity="0.1" fill="#010101" d="M114.511,319.691c-0.379,0-0.686,0.307-0.686,0.687c0,0.378,0.307,0.687,0.686,0.687
	s0.687-0.309,0.687-0.687C115.197,319.998,114.89,319.691,114.511,319.691z M114.359,320.422c-0.135,0-0.245-0.109-0.245-0.245
	s0.11-0.244,0.245-0.244c0.136,0,0.245,0.108,0.245,0.244S114.495,320.422,114.359,320.422z"/>
<path opacity="0.1" fill="#010101" d="M122.315,334.165c-0.509,0-0.923,0.413-0.923,0.923c0,0.512,0.414,0.923,0.923,0.923
	c0.509,0,0.922-0.411,0.922-0.923C123.237,334.578,122.824,334.165,122.315,334.165z M122.11,335.147
	c-0.183,0-0.331-0.148-0.331-0.328c0-0.184,0.147-0.331,0.331-0.331c0.181,0,0.329,0.147,0.329,0.331
	C122.439,334.999,122.292,335.147,122.11,335.147z"/>
<path opacity="0.1" fill="#010101" d="M128.624,328.784c-0.509,0-0.922,0.413-0.922,0.922c0,0.512,0.413,0.924,0.922,0.924
	s0.922-0.412,0.922-0.924C129.546,329.197,129.133,328.784,128.624,328.784z M128.419,329.768c-0.182,0-0.33-0.149-0.33-0.329
	c0-0.183,0.148-0.33,0.33-0.33c0.182,0,0.329,0.147,0.329,0.33C128.748,329.618,128.601,329.768,128.419,329.768z"/>
<path opacity="0.1" fill="#010101" d="M125.606,325.894c-0.527,0-0.952,0.426-0.952,0.952c0,0.525,0.425,0.951,0.952,0.951
	c0.524,0,0.95-0.426,0.95-0.951C126.556,326.319,126.13,325.894,125.606,325.894z M125.394,326.906c-0.188,0-0.34-0.152-0.34-0.341
	c0-0.188,0.152-0.338,0.34-0.338c0.188,0,0.34,0.15,0.34,0.338C125.733,326.754,125.582,326.906,125.394,326.906z"/>
<path opacity="0.1" fill="#010101" d="M133.067,323.758c-0.39,0-0.707,0.317-0.707,0.71c0,0.39,0.317,0.706,0.707,0.706
	c0.392,0,0.708-0.316,0.708-0.706C133.775,324.075,133.459,323.758,133.067,323.758z M132.911,324.511
	c-0.139,0-0.252-0.111-0.252-0.249c0-0.143,0.113-0.255,0.252-0.255c0.14,0,0.253,0.112,0.253,0.255
	C133.164,324.399,133.051,324.511,132.911,324.511z"/>
<path opacity="0.1" fill="#010101" d="M111.805,322.935c-0.266,0-0.48,0.216-0.48,0.481c0,0.264,0.214,0.479,0.48,0.479
	c0.265,0,0.479-0.216,0.479-0.479C112.284,323.15,112.069,322.935,111.805,322.935z M111.698,323.447
	c-0.094,0-0.17-0.078-0.17-0.171c0-0.096,0.077-0.174,0.17-0.174c0.095,0,0.171,0.078,0.171,0.174
	C111.87,323.369,111.793,323.447,111.698,323.447z"/>
<path opacity="0.1" fill="#010101" d="M120.28,327.317c-0.265,0-0.479,0.216-0.479,0.48s0.215,0.479,0.479,0.479
	s0.479-0.214,0.479-0.479S120.545,327.317,120.28,327.317z M120.174,327.829c-0.094,0-0.171-0.078-0.171-0.17
	c0-0.096,0.077-0.175,0.171-0.175c0.095,0,0.171,0.079,0.171,0.175C120.346,327.751,120.269,327.829,120.174,327.829z"/>
<path opacity="0.1" fill="#010101" d="M98.952,307.145c-0.266,0-0.48,0.216-0.48,0.481c0,0.264,0.215,0.479,0.48,0.479
	c0.265,0,0.479-0.215,0.479-0.479C99.43,307.36,99.216,307.145,98.952,307.145z M98.845,307.656c-0.094,0-0.17-0.077-0.17-0.17
	c0-0.096,0.077-0.175,0.17-0.175c0.095,0,0.171,0.079,0.171,0.175C99.016,307.579,98.939,307.656,98.845,307.656z"/>
<path opacity="0.1" fill="#010101" d="M109.862,298.563c-0.543,0-0.984,0.44-0.984,0.983c0,0.547,0.441,0.985,0.984,0.985
	c0.545,0,0.986-0.438,0.986-0.985C110.848,299.004,110.407,298.563,109.862,298.563z M109.644,299.611
	c-0.195,0-0.352-0.157-0.352-0.351c0-0.195,0.156-0.354,0.352-0.354c0.195,0,0.352,0.159,0.352,0.354
	C109.996,299.454,109.838,299.611,109.644,299.611z"/>
<path opacity="0.1" fill="#010101" d="M122.188,297.891c-0.178,0-0.32,0.145-0.32,0.319c0,0.179,0.143,0.321,0.32,0.321
	c0.177,0,0.321-0.143,0.321-0.321C122.509,298.035,122.364,297.891,122.188,297.891z M122.116,298.231
	c-0.063,0-0.115-0.051-0.115-0.113c0-0.064,0.052-0.115,0.115-0.115s0.115,0.051,0.115,0.115
	C122.231,298.181,122.18,298.231,122.116,298.231z"/>
<path opacity="0.1" fill="#010101" d="M122.314,289.089c-0.27,0-0.487,0.218-0.487,0.487s0.217,0.488,0.487,0.488
	c0.269,0,0.487-0.219,0.487-0.488S122.583,289.089,122.314,289.089z M122.206,289.605c-0.096,0-0.174-0.077-0.174-0.173
	c0-0.094,0.079-0.173,0.174-0.173c0.096,0,0.174,0.079,0.174,0.173C122.38,289.528,122.302,289.605,122.206,289.605z"/>
<path opacity="0.1" fill="#010101" d="M136.585,297.014c-0.549,0-0.994,0.446-0.994,0.994c0,0.552,0.444,0.994,0.994,0.994
	c0.549,0,0.994-0.442,0.994-0.994C137.579,297.46,137.134,297.014,136.585,297.014z M136.364,298.074
	c-0.195,0-0.354-0.158-0.354-0.356c0-0.196,0.159-0.354,0.354-0.354c0.197,0,0.356,0.158,0.356,0.354
	C136.721,297.916,136.561,298.074,136.364,298.074z"/>
<path opacity="0.1" fill="#010101" d="M108.877,332.599c-0.38,0-0.69,0.311-0.69,0.691c0,0.382,0.31,0.688,0.69,0.688
	c0.381,0,0.689-0.307,0.689-0.688C109.566,332.909,109.258,332.599,108.877,332.599z M108.725,333.335
	c-0.137,0-0.247-0.109-0.247-0.249c0-0.133,0.11-0.246,0.247-0.246c0.135,0,0.246,0.113,0.246,0.246
	C108.971,333.226,108.86,333.335,108.725,333.335z"/>
<path opacity="0.1" fill="#010101" d="M115.99,322.499c-0.352,0-0.635,0.285-0.635,0.637c0,0.351,0.283,0.635,0.635,0.635
	s0.636-0.284,0.636-0.635C116.626,322.784,116.342,322.499,115.99,322.499z M115.849,323.176c-0.126,0-0.228-0.102-0.228-0.225
	c0-0.128,0.102-0.23,0.228-0.23c0.126,0,0.227,0.103,0.227,0.23C116.076,323.074,115.976,323.176,115.849,323.176z"/>
<path opacity="0.1" fill="#010101" d="M119.689,337.597c-0.398,0-0.721,0.323-0.721,0.722s0.323,0.723,0.721,0.723
	s0.722-0.324,0.722-0.723S120.087,337.597,119.689,337.597z M119.528,338.367c-0.143,0-0.258-0.115-0.258-0.259
	c0-0.145,0.115-0.258,0.258-0.258c0.142,0,0.258,0.113,0.258,0.258C119.787,338.252,119.67,338.367,119.528,338.367z"/>
<path opacity="0.1" fill="#010101" d="M113.825,337.597c-0.398,0-0.721,0.323-0.721,0.722s0.323,0.723,0.721,0.723
	s0.721-0.324,0.721-0.723S114.224,337.597,113.825,337.597z M113.665,338.367c-0.143,0-0.257-0.115-0.257-0.259
	c0-0.145,0.115-0.258,0.257-0.258s0.258,0.113,0.258,0.258C113.923,338.252,113.807,338.367,113.665,338.367z"/>
<path opacity="0.1" fill="#010101" d="M131.937,332.219c-0.457,0-0.826,0.371-0.826,0.827c0,0.455,0.369,0.822,0.826,0.822
	c0.456,0,0.825-0.367,0.825-0.822C132.762,332.59,132.393,332.219,131.937,332.219z M131.753,333.099
	c-0.164,0-0.295-0.131-0.295-0.294c0-0.164,0.131-0.297,0.295-0.297c0.163,0,0.295,0.133,0.295,0.297
	C132.048,332.968,131.916,333.099,131.753,333.099z"/>
<path opacity="0.1" fill="#010101" d="M133.776,335.927c-0.457,0-0.826,0.37-0.826,0.826c0,0.455,0.369,0.823,0.826,0.823
	c0.456,0,0.825-0.368,0.825-0.823C134.602,336.297,134.232,335.927,133.776,335.927z M133.593,336.806
	c-0.164,0-0.295-0.131-0.295-0.294c0-0.164,0.131-0.297,0.295-0.297c0.163,0,0.295,0.133,0.295,0.297
	C133.888,336.675,133.755,336.806,133.593,336.806z"/>
<path opacity="0.1" fill="#010101" d="M114.511,330.213c-0.465,0-0.843,0.379-0.843,0.844s0.378,0.843,0.843,0.843
	c0.466,0,0.845-0.378,0.845-0.843S114.977,330.213,114.511,330.213z M114.324,331.11c-0.166,0-0.301-0.131-0.301-0.3
	c0-0.168,0.135-0.301,0.301-0.301c0.167,0,0.302,0.133,0.302,0.301C114.626,330.979,114.491,331.11,114.324,331.11z"/>
<path opacity="0.1" fill="#010101" d="M118.299,326.002c-0.465,0-0.843,0.379-0.843,0.844s0.378,0.843,0.843,0.843
	c0.467,0,0.845-0.378,0.845-0.843S118.766,326.002,118.299,326.002z M118.112,326.899c-0.166,0-0.301-0.132-0.301-0.3
	s0.135-0.303,0.301-0.303c0.167,0,0.302,0.135,0.302,0.303S118.279,326.899,118.112,326.899z"/>
<path opacity="0.1" fill="#010101" d="M104.098,304.534c-0.465,0-0.843,0.379-0.843,0.844c0,0.466,0.378,0.844,0.843,0.844
	c0.467,0,0.845-0.378,0.845-0.844C104.943,304.913,104.565,304.534,104.098,304.534z M103.911,305.432
	c-0.166,0-0.301-0.131-0.301-0.298c0-0.17,0.135-0.303,0.301-0.303c0.167,0,0.302,0.133,0.302,0.303
	C104.213,305.301,104.078,305.432,103.911,305.432z"/>
<path opacity="0.1" fill="#010101" d="M129.373,318.737c-0.414,0-0.75,0.334-0.75,0.748s0.335,0.75,0.75,0.75s0.75-0.336,0.75-0.75
	S129.787,318.737,129.373,318.737z M129.206,319.534c-0.148,0-0.267-0.12-0.267-0.269c0-0.149,0.119-0.268,0.267-0.268
	c0.148,0,0.268,0.118,0.268,0.268C129.474,319.414,129.354,319.534,129.206,319.534z"/>
<path fill="#FFFFFF" d="M113.09,275.799c-7.634,1.215-12.837,8.389-11.621,16.025c1.216,7.632,8.391,12.835,16.023,11.62
	c7.634-1.218,12.837-8.389,11.622-16.024C127.897,279.785,120.724,274.583,113.09,275.799z"/>
<path fill="#242424" d="M128.199,287.565c-1.135-7.13-7.834-11.988-14.964-10.853c-7.129,1.135-11.988,7.835-10.852,14.966
	c1.135,7.126,7.835,11.986,14.963,10.851C124.477,301.395,129.335,294.695,128.199,287.565z M116.14,295.949l0.318-0.05l0.729,4.576
	c-0.055,0.01-0.106,0.026-0.162,0.034c-0.052,0.01-0.104,0.01-0.155,0.018L116.14,295.949z M117.768,295.829
	c0.511,0.282,0.576,1.152,0.576,1.152l0.489,3.071c-0.124,0.041-0.248,0.081-0.374,0.119L117.768,295.829z M115.186,300.635
	l-0.488-3.061c0,0-0.23-0.909,0.173-1.306l0.695,4.364C115.438,300.637,115.312,300.637,115.186,300.635z M119.98,299.594
	l-0.568-3.563c-0.191-1.19-0.795-1.739-1.338-1.994c2.635-0.704,5.349-2.121,4.611-6.757c-0.207-1.296-0.838-2.28-1.729-2.991
	c0.074-0.319,0.289-1.59-0.616-3.122c0,0-1.048-0.162-3.071,1.737c-0.989-0.113-2.026-0.085-3.035,0.073
	c-1.007,0.164-2.002,0.457-2.908,0.872c-2.513-1.176-3.458-0.697-3.458-0.697c-0.386,1.738,0.213,2.879,0.383,3.159
	c-0.625,0.953-0.919,2.085-0.713,3.381c0.738,4.637,3.764,5.148,6.489,4.999c-0.341,0.319-0.657,0.817-0.695,1.575
	c-0.475,0.335-2.016,1.207-3.274-0.327c0,0-0.713-0.919-1.778-0.825c0,0-1.027,0.15,0.029,0.649c0,0,0.738,0.213,1.407,1.348
	c0,0,0.953,1.966,3.813,0.821l0.419,2.627c-4.756-0.585-8.754-4.235-9.544-9.202c-0.958-6.015,3.14-11.667,9.154-12.625
	c6.015-0.957,11.666,3.142,12.623,9.157C126.971,292.852,124.312,297.561,119.98,299.594z"/>
<path opacity="0.1" fill="#010101" d="M88.932,286.25c-0.643,0.146-1.204,0.367-1.724,0.62l1.901,6.995
	c8.714,0,13.574-2.663,12.957-5.392C101.449,285.745,97.297,284.359,88.932,286.25z"/>
<path opacity="0.1" fill="#69AEE0" d="M109.436,254.309c-16.179,2.683-28.973,6.808-28.573,9.211
	c0.398,2.404,13.838,2.177,30.017-0.506c16.18-2.684,28.974-6.807,28.576-9.211C139.057,251.399,125.616,251.625,109.436,254.309z
	 M110.709,261.984c-14.425,2.392-26.368,2.844-26.672,1.009c-0.305-1.835,11.145-5.263,25.57-7.655
	c14.426-2.393,26.369-2.844,26.672-1.01C136.583,256.164,125.135,259.591,110.709,261.984z"/>
<path fill="#EDD8A2" d="M74.116,257.838c-1.246,0.535-2.688-0.091-3.201-1.347c-0.513-1.255,0.091-2.689,1.346-3.203
	c1.256-0.511,5.527-1.046,7.517,0.795C76.283,254.707,76.759,256.703,74.116,257.838z"/>
<path fill="#EDD8A2" d="M75.875,264.967c-0.731,0.545-1.774,0.363-2.305-0.379c-0.532-0.741-0.363-1.772,0.38-2.305
	c0.74-0.531,3.45-1.552,5.04-0.658C76.801,262.58,77.426,263.81,75.875,264.967z"/>
<path fill="#EDD8A2" d="M66.356,264.658c-1.028,0.766-2.493,0.509-3.241-0.533c-0.747-1.042-0.508-2.492,0.534-3.239
	c1.041-0.749,4.849-2.181,7.083-0.926C67.657,261.301,68.536,263.032,66.356,264.658z"/>
<path opacity="0.1" fill="#274254" d="M117.368,261.824c-2.248,0.482-3.702,0.727-3.702,0.727l13.798,83.196
	c10.1-1.882,17.711-4.467,17.453-6.027l-5.46-85.917C139.798,255.873,130.341,259.222,117.368,261.824z"/>
<path fill="#010101" d="M100.335,286.136c0.617,2.729-2.534,5.769-10.899,7.659c-4.79,1.084-6.156-1.197-6.774-3.928
	c-0.617-2.729,1.119-5.182,4.54-5.955C95.567,282.021,99.718,283.407,100.335,286.136z"/>
<path fill="#FFFFFF" d="M136.279,254.328c0.054,0.325-0.277,0.701-0.909,1.11c1.058-0.556,1.63-1.062,1.56-1.483
	c-0.304-1.834-12.246-1.383-26.672,1.01c-11.875,1.97-21.717,4.639-24.661,6.545c3.561-1.871,12.888-4.329,24.01-6.173
	C124.033,252.945,135.976,252.494,136.279,254.328z M111.531,262.641c-16.179,2.683-29.618,2.91-30.017,0.507
	c-0.089-0.534,0.503-1.153,1.605-1.821c-1.537,0.811-2.362,1.562-2.257,2.193c0.398,2.404,13.838,2.177,30.017-0.506
	c12.593-2.088,23.102-5.046,26.969-7.389C133.533,257.902,123.462,260.662,111.531,262.641z"/>
<path fill="#EDD8A2" d="M84.037,262.993L84.037,262.993L84.037,262.993c0.048,0.113,0.117,0.219,0.193,0.319
	c1.465,1.312,10.852,1,22.611-0.724c-1.922-0.374-5.86-5.53-13.369-6.764c-11.459-1.884-18.145,3.306-13.914,4.321
	C83.784,261.159,84.036,262.987,84.037,262.993z"/>
<path fill="#010101" d="M128.199,287.565c-0.987-6.2-6.182-10.677-12.208-10.994l0.345,2.084c4.887,0.463,9.038,4.159,9.844,9.233
	c0.791,4.963-1.868,9.672-6.2,11.705l-0.568-3.563c-0.071-0.439-0.209-0.768-0.368-1.05l1.121,6.76
	C125.702,299.519,129.178,293.708,128.199,287.565z M122.685,287.279c-0.207-1.296-0.838-2.28-1.729-2.991
	c0.074-0.319,0.289-1.59-0.616-3.122c0,0-1.048-0.162-3.071,1.737c-0.076-0.009-0.154-0.004-0.229-0.01l1.808,10.905
	C121.208,293.016,123.349,291.46,122.685,287.279z"/>
<path opacity="0.1" fill="#274254" d="M142.275,336.835c0.271,1.593-7.844,4.307-18.119,6.058
	c-10.276,1.752-18.824,1.879-19.094,0.286c-0.271-1.59,7.839-4.303,18.115-6.054C133.454,335.369,142.006,335.24,142.275,336.835z"
	/>
<path opacity="0.1" fill="#FFFFFF" d="M123.057,336.291c-10.275,1.75-18.332,4.781-17.995,6.762
	c0.001,0.013,0.012,0.022,0.015,0.034c0.042-1.604,8.019-4.244,18.101-5.962c10.235-1.747,18.753-1.883,19.088-0.307
	c0-0.036,0.016-0.072,0.01-0.108C141.938,334.724,133.333,334.535,123.057,336.291z"/>
<path opacity="0.1" fill="#010101" d="M94.64,259.741c-0.589,0-1.063,0.476-1.063,1.063c0,0.587,0.475,1.062,1.063,1.062
	c0.587,0,1.062-0.475,1.062-1.062C95.702,260.217,95.227,259.741,94.64,259.741z M94.403,260.871c-0.21,0-0.38-0.167-0.38-0.38
	c0-0.208,0.169-0.379,0.38-0.379c0.209,0,0.379,0.17,0.379,0.379C94.782,260.704,94.613,260.871,94.403,260.871z"/>
<path opacity="0.1" fill="#010101" d="M88.954,259.213c-0.668,0-1.209,0.54-1.209,1.208c0,0.67,0.541,1.208,1.209,1.208
	c0.668,0,1.21-0.539,1.21-1.208C90.164,259.753,89.622,259.213,88.954,259.213z M88.686,260.5c-0.239,0-0.432-0.193-0.432-0.432
	c0-0.238,0.193-0.434,0.432-0.434c0.238,0,0.431,0.196,0.431,0.434C89.117,260.307,88.924,260.5,88.686,260.5z"/>
<path opacity="0.1" fill="#010101" d="M85.704,258.279c-0.372,0-0.674,0.302-0.674,0.672c0,0.374,0.302,0.673,0.674,0.673
	s0.672-0.299,0.672-0.673C86.376,258.581,86.076,258.279,85.704,258.279z M85.554,258.995c-0.133,0-0.24-0.107-0.24-0.239
	c0-0.136,0.107-0.243,0.24-0.243c0.132,0,0.241,0.107,0.241,0.243C85.795,258.888,85.687,258.995,85.554,258.995z"/>
<path opacity="0.1" fill="#010101" d="M89.628,257.357c-0.372,0-0.674,0.302-0.674,0.672c0,0.374,0.302,0.673,0.674,0.673
	s0.672-0.299,0.672-0.673C90.301,257.66,90,257.357,89.628,257.357z M89.479,258.074c-0.133,0-0.24-0.107-0.24-0.238
	c0-0.137,0.107-0.244,0.24-0.244c0.132,0,0.241,0.107,0.241,0.244C89.72,257.967,89.611,258.074,89.479,258.074z"/>
<path fill="#010101" d="M403.726,245.358c-19.525-6.348-39.227-11.194-59.78-12.581c-2.015-0.136-2.002,2.991,0,3.126
	c20.297,1.37,39.677,6.204,58.951,12.469C404.818,248.998,405.634,245.979,403.726,245.358L403.726,245.358z"/>
<path fill="#010101" d="M405.851,233.493c-19.972-4.8-39.966-8.114-60.582-7.881c-2.015,0.022-2.017,3.149,0,3.126
	c20.323-0.229,40.059,3.037,59.751,7.769C406.979,236.978,407.811,233.963,405.851,233.493L405.851,233.493z"/>
<path fill="#010101" d="M237.364,272.156c0,0,47.807,7.078,74.9-2.763c26.384-9.583,61.356-26.251,69.98-97.098
	c6-49.281-14.831-81.938-36.91-100.613c-19.785-16.735-45.513-33.292-80.783-38.794c-35.271-5.502-65.108-7.692-100.221,10.907
	c-30.156,15.972-58.446,35.719-65.27,99.186c-3.995,37.141,10.719,63.051,19.263,74.247
	C129.526,231.905,161.63,260.341,237.364,272.156z"/>
<path fill="#F4CBB4" d="M265.569,263.601c20.534,1.986,53.038-2.939,69.859-18.502c24.604-22.763,26.818-44.616,28.515-54.285
	c3.289-18.769-2.564-48.365-19.919-51.743c-21.955-4.273-23.689-1.593-54.913-6.465c-33.873-5.284-50.726-20.27-74.169-18.753
	c-21.333,1.38-49.331,20.812-53.586,49.889c-5.699,38.92,15.837,60.567,28.147,71.114
	C210.029,252.439,238.244,260.958,265.569,263.601z"/>
<path opacity="0.15" fill="#010101" d="M282.018,257.172c0,0,7.414-1.102,8.816-7.214
	C290.834,249.958,291.837,257.573,282.018,257.172z"/>
<path fill="#FFFFFF" d="M243.508,181.377c-3.04,19.485-15.9,33.661-28.725,31.66c-12.822-2-20.753-19.42-17.712-38.904
	c3.038-19.488,15.896-33.663,28.724-31.662C238.617,144.471,246.548,161.889,243.508,181.377z"/>
<ellipse transform="matrix(0.9881 0.1541 -0.1541 0.9881 30.4008 -30.694)" fill="#AE5D53" cx="213.18" cy="180.741" rx="16.438" ry="23.634"/>
<path fill="#FFFFFF" d="M349.758,193.166c-3.041,19.484-15.109,33.784-26.956,31.936c-11.847-1.849-17.833-19.145-14.793-38.629
	c3.042-19.488,13.955-33.786,25.802-31.938C345.655,156.383,352.799,173.678,349.758,193.166z"/>
<path fill="#853B37" d="M241.717,224.41c3.66,19.417,23.398,32.743,41.332,26.419c3.275-1.154,3.022-4.02,5.601-7.21
	c3.291-4.069,10.836-10.866,14.564-13.662c-6.907,1.836-16.951,4.149-30.433,3.307C263.35,232.672,252.625,229.477,241.717,224.41z"
	/>
<path fill="#AE5D53" d="M332.984,195.433c-1.818,11.654-9.36,20.15-16.848,18.984c-7.488-1.17-12.083-11.561-10.266-23.215
	c1.817-11.65,9.361-20.149,16.848-18.981C330.209,173.389,334.804,183.782,332.984,195.433z"/>
<path fill="#AE5D53" d="M283.759,215.372c-0.531,3.399-3.775,5.713-7.249,5.169c-3.473-0.541-5.434-3.541-4.905-6.94
	c0.531-3.398,3.353-5.903,6.824-5.361C281.901,208.783,284.287,211.976,283.759,215.372z"/>
<path fill="#010101" d="M163.019,16.109c-14.998-6.746-35.438-10.896-38.591-8.8c-4.879,3.25-8.183,21.309-7.346,43.245
	c0.339,8.966,4.531,38.261,9.707,39.708c16.905,4.728,80.759-39.372,70.507-50.395C186.333,28.076,173.503,20.826,163.019,16.109z"
	/>
<path fill="#010101" d="M363.459,51.809c16.384,2.103,34.456,13.167,36.05,16.253c2.465,4.782-8.974,22.593-15.288,31.233
	c-4.861,6.652-20.067,27.463-31.814,29.291c-15.923,2.479-44.852-70.774-31.71-75.046C334.753,48.972,354.922,50.712,363.459,51.809
	z"/>
<path fill="#010101" d="M6.63,210.675c41.872-7.633,83.949-12.3,126.566-9.198c2.013,0.146,1.999-2.981,0-3.126
	c-42.902-3.123-85.252,1.626-127.398,9.309C3.817,208.021,4.659,211.034,6.63,210.675L6.63,210.675z"/>
<path fill="#010101" d="M4.496,190.257c42.326-4.324,84.668-5.75,126.901,0.687c1.972,0.301,2.819-2.71,0.832-3.013
	c-42.533-6.483-85.099-5.156-127.733-0.8C2.511,187.333,2.492,190.462,4.496,190.257L4.496,190.257z"/>
<path fill="#F4CBB4" d="M191.937,196.989c19.352,15.739,36.311,16.887,49.576,14.538c-2.728,8.52-11.435,20.409-25.729,19.023
	C193.167,228.358,193.07,199.508,191.937,196.989z"/>
<path opacity="0.15" fill="#010101" d="M250.928,172.258c-32.224-10.893-47.052,13.354-59.35,7.518
	c-0.177-10.127,17.13-36.465,33.873-34.175C252.673,149.326,239.878,151.808,250.928,172.258z"/>
<path fill="#F4CBB4" d="M250.928,172.258c-34.761-15.67-48.473,11.829-59.35,7.518c-0.177-10.127,15.521-47.173,32.264-44.882
	C251.062,138.619,257.033,151.794,250.928,172.258z"/>
<path fill="#F4CBB4" d="M302.287,206.45c22.936,7.912,36.522,3.5,48.528-2.527c-2.726,8.52-13.867,26.771-28.164,25.385
	C300.037,227.115,303.325,210.4,302.287,206.45z"/>
<path fill="#F4CBB4" d="M353.747,197.359c-13.207,1.142-26.579,1.533-53.473-15.491c-0.174-10.128,12.172-40.599,28.913-38.308
	C356.407,147.285,359.849,176.896,353.747,197.359z"/>
<path fill="#FFFFFF" d="M303.214,229.957c-0.81,2.459-13.74,9.568-15.709,10.877c-8.223,3.741-19.575,3.143-28.51,0.565
	c-10.221-2.947-16.949-12.031-17.278-16.989c10.765,4.57,18.244,7.288,29.939,8.55C281.742,234.05,296.923,231.212,303.214,229.957z
	"/>
<path fill="#FFFFFF" d="M284.327,244.79c-5.183,1.645-8.199,1.942-14.193,1.611c-5.982-0.331-12.902-1.376-19.949-4.996
	c8.087,8.957,20.415,13.414,32.094,9.668C284.172,249.516,284.638,245.657,284.327,244.79z"/>
<path opacity="0.2" fill="#010101" d="M164.675,136.017c7.892-4.232,24.382-14.042,41.118-16.548
	c25.951-3.886,58.39,15.514,85.624,18.617c38.369,4.372,52.697,1.458,66.055,10.686c7.37,5.093,11.866,13.559,16.027,20.156
	c4.404,6.984,12.048-28.248-10.313-39.629c-22.366-11.383-57.812-6.054-78.238-14.255c-20.42-8.2-77.11-23.378-87.718-11.672
	C186.621,115.079,164.675,136.017,164.675,136.017z"/>
<path fill="#B59585" d="M191.578,179.776c10.877,4.312,24.589-23.188,59.35-7.518C220.287,151.806,201.571,181.304,191.578,179.776z
	"/>
<path opacity="0.15" fill="#010101" d="M353.747,197.359c-13.187,1.14-26.538,1.529-53.345-15.414
	C318.62,201.444,344.002,201.978,353.747,197.359z"/>
<path fill="#B59585" d="M300.274,181.868c0,0,26.276,19.977,53.473,15.491C353.747,197.359,328.152,197.16,300.274,181.868z"/>
<path opacity="0.05" fill="#010101" d="M303.214,229.957c-6.291,1.255-21.472,4.093-31.558,3.003
	c-11.695-1.263-19.175-3.98-29.939-8.55C241.717,224.41,267.768,243.942,303.214,229.957z"/>
<path opacity="0.15" fill="#010101" d="M234.62,227.419c0,0-1.391-8.141,10.521-9.531
	C245.142,217.888,231.343,215.407,234.62,227.419z"/>
</svg>
