<?xml version="1.0" encoding="utf-8"?>
<!-- Generator: Adobe Illustrator 16.0.0, SVG Export Plug-In . SVG Version: 6.00 Build 0)  -->
<!DOCTYPE svg PUBLIC "-//W3C//DTD SVG 1.1//EN" "http://www.w3.org/Graphics/SVG/1.1/DTD/svg11.dtd">
<svg version="1.1" id="Layer_1" xmlns="http://www.w3.org/2000/svg" xmlns:xlink="http://www.w3.org/1999/xlink" x="0px" y="0px"
	 width="480px" height="500px" viewBox="0 0 480 500" enable-background="new 0 0 480 500" xml:space="preserve">
<g>
	<g>
		<path d="M162.399,125.949c-20.345-7.398-5.547-70.287,14.798-71.212c1.848-32.368,41.616-38.841,63.812-43.467
			c24.97-5.547,47.164,2.777,70.285,12.024c10.172,3.699,24.045,4.625,22.195,20.345c24.046,6.474,42.542,94.331,14.798,98.956"/>
	</g>
	<g>
		<path fill="#A97D51" d="M154.817,262.854l-9.117,14.979c0,0,267.961,157.588,285.88,156.003
			C449.498,432.249,154.817,262.854,154.817,262.854z"/>
		<polygon fill="#D1D2D3" points="159.091,263.974 155.371,260.928 144.356,280.109 149.646,281.688 		"/>
		<path fill="#D1D2D3" d="M155.752,264.595c0,0-11.308-12.895-25.637-12.015l-6.19,9.594c0,0,13.026,18.43,25.995,16.101
			L155.752,264.595z"/>
		<path fill="#131313" d="M132.974,252.585c0,0-4.428-42.496-40.183-31.575c-35.75,10.915-34.514-23.75-34.514-23.75
			s-17.652,115.146,66.907,66.808L132.974,252.585z"/>
		<path fill="#2AA6DD" d="M82.688,222.997c-6.465,8.005-12.612,16.319-18.784,24.436c-1.031,1.356-2.055,2.717-3.075,4.072
			c-7.317-23.101-2.552-54.245-2.552-54.245S57.317,224.957,82.688,222.997z"/>
		<path fill="#2AA6DD" d="M82.909,222.963c1.995,1.03,4.351,1.038,6.342,2.068c4.228,2.427,1.389,2.479-1.394,3.016
			c-8.282,1.312-2.072,7.126,1.188,10.459c8.139,7.933-6.717,2.884-9.264,6.144c-1.876,2.287-0.074,5.799-4.425,5.549
			c-4.222-0.07-5.661-3.824-9.125,0.822c-1.085,1.508-3.298,6.731-4.295,4.167c-0.457-1.175-1.016-3.242-1.13-3.683l1.77-11.908
			c0,0,6.652-4.942,7.201-5.304C70.321,233.931,82.909,222.963,82.909,222.963z"/>
	</g>
	<path opacity="0.15" fill="#211F1F" d="M249.314,490.163c-84.467,0-152.943,0.993-152.943,2.219c0,1.23,68.476,2.225,152.943,2.225
		c84.474,0,152.961-0.994,152.961-2.225C402.275,491.156,333.788,490.163,249.314,490.163z"/>
	<path fill="#5B5C5D" d="M220.146,307.886c0.002-0.774,0.091-1.539,0.246-2.296h0.005c2.623-12.78,25.791-23.266,28.426-24.034
		c-0.019,0.008-0.33,0.093-0.838,0.158l-2.273-8.272c-3.994,0.495-13.373,5.294-19.625,9.465
		c-5.669,3.782-12.356,9.27-15.912,15.822c0-0.001-0.008-0.002-0.008-0.002c-0.058,0.109-0.115,0.217-0.171,0.328
		c-0.052,0.098-0.105,0.192-0.155,0.288c-0.202,0.404-0.395,0.814-0.578,1.229c-0.03,0.07-0.062,0.146-0.093,0.22
		c-0.188,0.444-0.362,0.89-0.515,1.341c-0.008,0.024-0.022,0.042-0.026,0.062h0.003c-0.323,0.933-0.572,1.882-0.738,2.846
		c-1.189,6.887,1.825,13.433,8.972,19.457c7.779,6.557,20.669,12.529,38.31,17.756l5.034-7.703
		C233.597,326.671,220.117,317.698,220.146,307.886z"/>
	<path fill="#5B5C5D" d="M335.87,307.886c-0.002-0.774-0.094-1.539-0.248-2.296h-0.004c-2.624-12.78-25.792-23.266-28.425-24.034
		c0.019,0.008,0.328,0.093,0.835,0.158l2.275-8.272c3.994,0.495,13.373,5.294,19.624,9.465c5.67,3.782,12.355,9.27,15.913,15.822
		c0-0.001,0.006-0.002,0.006-0.002c0.059,0.109,0.117,0.217,0.175,0.328c0.05,0.098,0.104,0.192,0.153,0.288
		c0.201,0.404,0.396,0.814,0.578,1.229c0.029,0.07,0.063,0.146,0.094,0.22c0.186,0.444,0.361,0.89,0.517,1.341
		c0.005,0.024,0.02,0.042,0.023,0.062h-0.003c0.321,0.933,0.573,1.882,0.738,2.846c1.191,6.887-1.825,13.433-8.972,19.457
		c-7.778,6.557-20.668,12.529-38.312,17.756l-5.033-7.703C322.42,326.671,335.897,317.698,335.87,307.886z"/>
	<polygon fill="#424242" points="257.7,321.324 303.703,320.582 300.032,486.376 296.116,485.901 298.378,369.191 263.038,365.226 
		260.676,484.809 256.896,484.943 	"/>
	<polygon fill="#231F20" points="309.228,360.703 312.741,255.296 245.336,254.989 252.801,357.628 	"/>
	<path fill="#0B0A0C" d="M300.15,486.328c0,0,3.218,5.493,11.414,5.745l0.165,1.692c0,0-10.519,0.499-13.521-4.625l0.085,3.834
		l-3.48-0.449l1.31-6.922L300.15,486.328z"/>
	<path fill="#0B0A0C" d="M256.447,484.886c0,0-3.572,5.268-11.77,5.017l-0.275,1.678c0,0,10.481,1.157,13.804-3.774l-0.332,3.837
		l3.514-0.269l-0.887-6.976L256.447,484.886z"/>
	<polygon fill="#231F20" stroke="#FFFFFF" stroke-width="0.4227" stroke-miterlimit="10" points="258.408,312.427 259.186,314.332 
		261.113,307.458 255.277,311.128 257.366,311.638 255.056,314.771 256.078,315.554 	"/>
	<polygon fill="#5A5A5D" points="299.061,284.694 292.672,386.164 322.091,387.858 312.668,282.691 	"/>
	<polygon fill="#414141" points="298.626,285.305 310.302,297.148 305.801,300.437 312.015,303.383 294.868,352.76 	"/>
	<g>
		<g>
			<defs>
				<polygon id="SVGID_1_" points="244.457,256.276 238.065,387.858 267.485,384.812 261.113,253.779 				"/>
			</defs>
			<defs>
				<polygon id="SVGID_2_" points="262.409,285.738 252.436,294.32 257.133,298.612 252.436,302.1 265.584,353.331 				"/>
			</defs>
			<use xlink:href="#SVGID_1_"  overflow="visible" fill="#5A5A5D"/>
			<use xlink:href="#SVGID_2_"  overflow="visible" fill="#414141"/>
			<clipPath id="SVGID_3_">
				<use xlink:href="#SVGID_1_"  overflow="visible"/>
			</clipPath>
			<clipPath id="SVGID_4_" clip-path="url(#SVGID_3_)">
				<use xlink:href="#SVGID_2_"  overflow="visible"/>
			</clipPath>
		</g>
	</g>
	<path d="M355.601,198.925c0,52.33-37.018,94.755-82.69,94.755c-45.669,0-82.695-42.426-82.695-94.755
		c0-52.333,37.026-94.758,82.695-94.758C318.583,104.167,355.601,146.593,355.601,198.925z"/>
	<path d="M166.198,106.562c-0.653,52.456,42.707,81.659,95.389,81.659c52.674,0,95.385-36.556,95.385-81.659
		c0-45.09-42.711-81.655-95.385-81.655C208.905,24.906,166.765,61.474,166.198,106.562z"/>
	<path fill="#E6BD98" d="M197.287,208.588c0,0,13.99,62.529,67.653,81.07c0,0,125.349,3.854,83.783-154.994
		c0,0,34.877-92.882-81.772-88.249c-116.643,4.63-76.661,120.461-76.661,120.461L197.287,208.588z"/>
	<path d="M259.494,205.481c12.007-4.899,26.032-5.519,39.284-1.887c14.272,3.91,30.476,11.542,35.02,27.558
		c7.93,27.941-20.272,56.573-44.59,61.256c-12.931,2.49-28.077,1.459-39.08-6.36c-3.153-2.24-6.406-5.027-8.877-7.996
		c-8.209-9.856-14.062-20.836-11.872-34.035C232.63,224.43,244.488,211.609,259.494,205.481z"/>
	<path fill="#E6BD98" d="M249.896,237.721c0.693-1.856,1.552-3.615,2.535-5.201c7.253-11.733,24.244-15.757,36.562-13.415
		c27.298,5.176,32.335,20.715,30.808,33.074c-0.973,7.842-7.425,13.01-13.884,16.63c-4.785,2.676-12.062,4.566-14.745-2.073
		c-0.604-1.488-0.605-3.071-0.122-4.593c0.38-1.175,1.092-3.393,2.113-4.135c0.715-0.522,7.414-0.796,7.42-1.041
		c0-0.005,0.216-12.998,0.216-12.998l-28.685-1.425l-0.729,13.293c3.131,0.663,8.03,0.666,10.639,2.511
		c2.735,1.922,2.249,8.167-0.471,10.021c-3.399,2.319-8.496,1.114-12.246,0.57c-4.745-0.688-9.402-1.71-13.54-4.265
		C246.88,259.189,246.345,247.165,249.896,237.721z"/>
	<path fill="#CD9B78" d="M321.92,187.871c0,0-15.811,27.974-36.434,0.784C285.486,188.654,304.143,201.684,321.92,187.871z"/>
	<path d="M229.379,244.017c-26.19-21.35-39.164-159.184-39.164-159.184L161.36,116.9c0.391,13.865,1.569,26.625,3.358,38.391
		c0.959,0.784,1.884,1.618,2.765,2.5c7.068,7.068,11.089,16.769,11.089,26.768v0.843c0,4.944-0.986,9.812-2.834,14.328
		c25.559,71.082,75.896,87.025,75.896,87.025L229.379,244.017z"/>
	<path d="M329.967,251.956c0,0,18.415-15.441,23.774-28.174c0,0-7.104,73.642-84.703,70.007l54.226-28.426L329.967,251.956z"/>
	<path fill="#E6BD98" d="M259.89,234.562c0,0,1.751,3.295,6.179,3.192l-0.62-3.089l-1.957-1.028L259.89,234.562z"/>
	
		<path fill="none" stroke="#CD9B78" stroke-width="2.0765" stroke-linecap="round" stroke-linejoin="round" stroke-miterlimit="10" d="
		M309.846,237.322c0,0-30.541,8.371-52.789-5.313"/>
	<polygon fill="#414141" points="244.556,349.359 255.515,336.023 256.942,337.452 246.224,350.554 	"/>
	<polygon fill="#414141" points="313.573,348.935 305.366,333.752 307.231,332.968 315.308,347.843 	"/>
	<g>
		<g opacity="0.4">
			<path fill-rule="evenodd" clip-rule="evenodd" fill="#FFFFFF" d="M283.875,142.556c2.466,0.41,4.154,2.764,3.752,5.231
				l-6.906,30.534c-0.805,2.366-3.46,4.745-5.9,5.283l-50.226,0.886c-2.469-0.391-4.632-2.748-4.808-5.243l0.049-27.938
				c0.147-2.496,2.256-5.021,4.686-5.61L283.875,142.556z"/>
		</g>
		<g opacity="0.4">
			<path fill-rule="evenodd" clip-rule="evenodd" fill="#FFFFFF" d="M361.803,145.038c2.313,0.953,4.255,3.776,4.319,6.275
				l-0.611,29.098c-0.227,2.491-2.397,5.032-4.819,5.646l-32.949-2.648c-2.342-0.874-4.767-3.57-5.389-5.992l-4.517-29.585
				c-0.194-2.493,1.629-5.021,4.058-5.621L361.803,145.038z"/>
		</g>
		<g>
			<path fill-rule="evenodd" clip-rule="evenodd" d="M369.234,138.927c2.229,1.132,3.933,4.102,3.787,6.599l-2.79,38.375
				c-0.322,2.48-2.498,5.227-4.838,6.107c0,0-27.649,3.779-41.541-1.599c-10.121-3.919-12.42-37.104-12.42-37.104
				c-0.177-2.494-2.325-4.95-4.773-5.458l-6.495-0.673c-2.488,0.243-4.932,2.443-5.425,4.896l-10.696,32.783
				c-0.63,2.418-3.144,4.831-5.588,5.36l-57.496,0.872c-2.472-0.372-4.791-2.699-5.151-5.174l-3.472-37.241
				c-0.233-2.49,1.456-5.337,3.75-6.331c0,0,21.374-4.397,36.768-4.524c16.362-0.138,34.204,1.801,50.067,1.701
				c15.58-0.096,19.823-3.194,35.474-3.194C354.141,134.321,369.234,138.927,369.234,138.927z M224.522,145.698
				c-2.431,0.59-4.54,3.114-4.687,5.61l-0.047,27.938c0.173,2.495,2.337,4.852,4.806,5.243l50.226-0.886
				c2.441-0.538,5.096-2.917,5.9-5.283l6.906-30.534c0.402-2.467-1.286-4.821-3.752-5.231L224.522,145.698z M321.895,142.211
				c-2.429,0.6-4.089,3.109-3.69,5.578l5.932,29.401c0.846,2.354,3.418,5.08,5.718,6.058l30.847,2.842
				c2.417-0.633,4.585-3.188,4.811-5.679l0.74-29.102c-0.135-2.497-2.135-5.318-4.448-6.271L321.895,142.211z"/>
		</g>
	</g>
	<g>
		<path d="M193.034,205.656c-4.369,2.426-10.191,3.398-13.589,7.766c-4.368,6.309-0.485,10.191,6.794,9.707
			c-1.456,7.765-4.368,18.442,9.222,15.044c-2.427,6.309-3.883,25.724,7.764,16.016c-0.484,3.396-3.397,9.708-2.425,13.104
			c1.941,5.824,8.734,5.34,13.103,1.457c2.426,9.22,3.883,26.208,18.442,16.501c1.942,7.279,8.736,16.986,15.532,6.309
			c2.912,4.37,12.133,13.591,14.561,2.427c3.881,8.251,12.618,12.135,18.927,3.884c5.339,4.854,13.59,9.706,15.53-2.427
			c6.31,9.221,14.077,3.398,15.53-6.31c6.312,9.224,18.444,0,18.93-9.221c9.223,2.426,16.018-9.222,10.678-16.502
			c7.766,1.455,8.736-13.105,6.796-18.444c11.163,3.883,11.221-22.158,4.912-21.186c-3.397,11.648-8.312,19.247-17.048,28.468
			c-8.25,8.735-17.955,15.529-28.634,21.84c-24.752,15.045-53.873,7.278-74.257-11.649c-11.164-10.678-18.443-26.693-24.751-40.282"
			/>
	</g>
	<path fill="#E6BD98" d="M178.071,134.782c0,0-16.171-28.002-39.507-7.109c-29.095,26.057,23.645,42.803,23.645,42.803
		s16.694,5.521,10.809,23.439c-5.888,17.9-5.841,24.428,0.414,26.582c6.25,2.118,18.963-3.859,19.357-14.54
		C194.474,159.826,178.071,134.782,178.071,134.782z"/>
	<g>
		<path fill="#CD9B78" d="M180.805,166.381c0,0-26.587-57.157-25.474-11.521C155.331,154.86,159.565,129.314,180.805,166.381z"/>
		<path fill="#CD9B78" d="M180.978,166.534c0,0-18.407-28.232-10.562,8.647C170.415,175.182,167.737,151.424,180.978,166.534z"/>
	</g>
	<path fill-rule="evenodd" clip-rule="evenodd" d="M207.64,116.811l1.895,12.722c0,0,32.089-15.55,78.153-4.598v-17.346
		C287.688,107.589,235.351,94.914,207.64,116.811z"/>
	<path fill-rule="evenodd" clip-rule="evenodd" d="M318.234,113.035l-0.868,12.744c0,0,21.51-12.332,47.174,2.829l2.718-17.13
		C367.258,111.478,338.137,94.024,318.234,113.035z"/>
	<polygon fill-rule="evenodd" clip-rule="evenodd" points="217.06,142.556 191.596,132.787 191.596,151.783 217.06,154.309 	"/>
	<ellipse fill-rule="evenodd" clip-rule="evenodd" cx="256.896" cy="158.738" rx="3.663" ry="6.954"/>
	<ellipse fill-rule="evenodd" clip-rule="evenodd" cx="331.499" cy="158.738" rx="3.663" ry="6.954"/>
</g>
<g>
</g>
<g>
</g>
<g>
</g>
<g>
</g>
<g>
</g>
<g>
</g>
</svg>
