<svg xmlns="http://www.w3.org/2000/svg" xmlns:xlink="http://www.w3.org/1999/xlink" width="325.958" height="418.657" viewBox="0 0 325.958 418.657"><path fill="#231F20" d="M132.23 207.295s-2.716 12.428-14.81 11.281c0 0 13.15 19.579 27.417 7.538l-12.607-18.819zM248.631 200.395s7.101 25.348 28.224 28.483c0 0-17.85-1.108-23.593-6.899 0 0 3.42 30.455 18.019 35.206 0 0-32.56-2.858-38.442-26.218l15.792-30.572zM140.109 81.01c12.379-18.532 28.511-37.806 48.817-47.869 22.08-10.942 38.458 1.186 55.011 14.997 18.093 15.095 34.981 31.761 46.844 52.336 5.685 9.859 6.966 22.277 4.781 33.481-2.466 12.649-10.185 18.854-16.185 29.212-.025.042-12.434 21.708-16.573 41.051-2.11-1.209-4.622-1.758-6.823-1.406-4.667.747-7.493 4.362-8.352 8.781-.724 3.717-1.834 7.332-3.141 10.89-1.354-2.142-3.709-3.684-6.206-4.356 1.108-3.48 2.49-7.17 4.195-11.092l-103.974 2.765 5.227-8.25c-24.702 3.25-28.516-28.225-27.929-45.948.876-26.484 9.616-52.586 24.308-74.592zM140.576 81.592c12.379-18.532 28.511-37.806 48.816-47.869 22.08-10.942 38.458 1.186 55.011 14.997 18.093 15.096 34.981 31.761 46.844 52.336 5.685 9.859 6.966 22.277 4.781 33.481-2.466 12.649-10.185 18.854-16.185 29.212-.025.042-12.434 21.708-16.573 41.051-2.11-1.209-4.622-1.758-6.823-1.406-4.667.747-7.493 4.363-8.352 8.781-.724 3.717-1.834 7.332-3.141 10.89-1.354-2.142-3.709-3.684-6.206-4.356 1.108-3.48 2.489-7.17 4.195-11.092l-103.974 2.765 5.227-8.25c-24.702 3.25-28.516-28.225-27.929-45.948.877-26.483 9.617-52.585 24.309-74.592z"/><path fill="#1B75B8" d="M231.188 260.227c-4.433-6.153-12.997-11.409-17.03-13.397l1.66-3.388-1.658 3.39 3.318-6.778c1.743.856 12.736 6.463 19.241 14.947-2.103 1.359-3.951 3.171-5.531 5.226zM125.277 255.061c.362-1.257.62-2.565.749-3.912.059-.636.1-1.266.135-1.893 9.761 2.805 20.809 3.666 32.922.984l1.631 7.372c-5.654 1.252-11.086 1.809-16.294 1.809-6.787 0-13.178-.956-19.138-2.571l-.005-1.789z"/><path fill="#fff" d="M233.969 268.006c.149-2.819-1.142-5.652-3.165-8.298 2.205-1.302 4.089-3.106 5.48-5.253 3.233 4.037 5.494 8.755 5.222 13.943-.541 10.252-10.359 18.725-30.013 25.905l-2.592-7.087c16.04-5.858 24.71-12.502 25.068-19.21zM79.092 214.859c.237.348 18.328 26.596 48.073 34.659-.655 2.495-.778 5.153-.36 7.704-33.504-8.334-53.717-37.765-53.977-38.153l6.264-4.21z"/><path fill="#231F20" d="M180.95 279.175l31.789-.513-2.536 132.615-2.71-.324 1.566-98.702-24.414-2.744-1.634 100.688-2.61.097z"/><path fill="#1B75B8" d="M216.562 306.387l2.427-72.834-46.58-.212 5.159 70.919z"/><path fill="#070507" d="M210.281 411.249s2.226 3.795 7.892 3.965l.114 1.174s-7.269.343-9.346-3.198l.063 2.649-2.406-.312.905-4.779 2.778.501zM180.089 410.256s-2.469 3.636-8.131 3.463l-.19 1.16s7.242.797 9.533-2.61l-.227 2.652 2.427-.187-.609-4.82-2.803.342z"/><path opacity=".1" stroke="#A27F5F" stroke-width=".606" d="M73.131 416.579c0 1.149 43.684 2.077 97.566 2.077 53.897 0 97.579-.928 97.579-2.077 0-1.143-43.682-2.077-97.579-2.077-53.882 0-97.566.934-97.566 2.077z"/><path fill="#E7BE99" d="M133.832 223.186c2.253 6.283 5.118 12.346 8.584 18.052 3.822 6.293 8.539 13.809 15.793 16.496 14.195 5.26 37.849 2.311 52.218-3.786 1.286-.546 2.498-1.117 3.623-1.71 18.865-9.938 50.534-39.248 46.019-62.643-.883-4.625 2.748-13.282 3.533-17.914 3.576-21.256 11.79-52.708-1.001-72.341-11.192-17.18-37.642-21.082-56.206-22.83-3.662-.351-46.531-3.014-47.557 1.653-1.847 8.408-10.102 39.178-12.746 47.369-5.551 17.201-16.664 32.845-18.164 51.212-1.212 14.834.404 29.934 5.09 44.077.261.792.533 1.581.814 2.365z"/><path fill="#CE9C78" d="M257.223 208.348s-7.954-8.197-5.463-15.786c0 0-2.948 13.606 3.223 20.316l2.24-4.53"/><path fill="#231F20" d="M203.868 71.398s43.338 66.685 35.668 122.318c0 0 22.228-73.448-35.668-122.318z"/><path fill="#fff" d="M136.289 153.209c-.467 5.612 3.503 10.721 8.891 11.408 5.373.67 10.11-3.334 10.582-8.964.478-5.618-3.503-10.729-8.873-11.405-5.381-.675-10.11 3.33-10.6 8.961z"/><path fill="#E6E7E8" d="M145.043 148.338c-3.432-.434-6.596 1.048-8.567 3.634-.082.405-.151.814-.187 1.236-.467 5.612 3.503 10.721 8.891 11.408 3.421.428 6.581-1.049 8.551-3.628.083-.407.15-.818.187-1.243.477-5.619-3.504-10.733-8.875-11.407z"/><path fill="#231F20" d="M148.68 156.782c-.142 1.486.585 2.797 1.616 2.935 1.036.127 1.985-.967 2.12-2.455.143-1.488-.58-2.803-1.612-2.934-1.031-.128-1.986.969-2.124 2.454z"/><path fill="#fff" d="M183.249 160.354c.256 8.032 7.842 14.673 16.966 14.805 9.101.131 16.265-6.278 16.006-14.325-.244-8.047-7.838-14.684-16.944-14.808-9.111-.139-16.27 6.278-16.028 14.328z"/><path fill="#E6E7E8" d="M213.601 164.66c-.244-8.043-7.838-14.682-16.943-14.806-4.98-.074-9.368 1.818-12.291 4.855-.777 1.728-1.178 3.635-1.117 5.645.256 8.032 7.842 14.673 16.966 14.805 4.974.072 9.357-1.821 12.276-4.852.775-1.729 1.173-3.636 1.109-5.647z"/><path fill="#231F20" d="M200.063 163.023c.604 1.678 2.061 2.717 3.24 2.331 1.182-.387 1.635-2.053 1.021-3.73-.613-1.669-2.067-2.716-3.242-2.333-1.186.395-1.638 2.062-1.019 3.732zM255.456 188.267c.061-.557.713-79.9-48.105-111.69-48.818-31.79-1.917-.132-.958-.066.958.066-69.199 43.418-78.254 121.131l-6.947-13.337s6.269-40.572 7.851-41.854c1.583-1.282 6.407-34.236 6.407-34.236s21.511-37.296 22.803-38.595c1.293-1.299 6.587-6.842 10.504-6.411 3.916.431 24.559-3.782 27.447-3.825 2.887-.042 25.844 3.926 28.824 3.174 2.98-.753 24.985 12.12 27.477 12.394s17.069 10.888 18.152 11.367l10.105 21.292-5.947 29.806-3.72 17.304-15.639 33.546z"/><path fill="#E7BE99" d="M263.444 166.419s10.255-17.388 28.986-7.358c23.344 12.5-14.882 26.474-14.882 26.474s-12.09 4.552-6.565 14.321c5.54 9.767 5.916 13.515 1.393 15.258-4.525 1.74-15.306-3.752-16.283-9.837-4.203-26.279 7.351-38.858 7.351-38.858z"/><g fill="#CE9C78"><path d="M263.429 184.735s16.159-34.939 18.235-8.719c.001 0-4.774-14.282-18.235 8.719zM263.301 184.841s11.919-17.701 8.426 4.076c.001 0 .475-13.83-8.426-4.076z"/></g><path fill="#CD9C78" d="M181.863 147.341c.285 0 .285-.063 0-.063s-.285.063 0 .063z"/><path fill="#231F20" d="M180.535 140.841l.398 8.1s21.763-7.783 37.199 5.043l3.29-15.15c-.001.001-18.12-11.289-40.887 2.007zM159.505 145.662l-.696 8.08s-21.461-8.581-37.36 3.667l-2.728-15.261c-.001-.001 18.523-10.614 40.784 3.514z"/><path fill="#CE9C78" d="M211.853 190.081s-1.992 17.25 16.078 5.976c0 0-14.758 7.263-16.078-5.976z"/><path fill="#fff" d="M174.445 225.87c-10.948-2.031 9.328 18.956 13.23 1.428 5.259 10.552 16.699 6.487 12.718-5.239 2.01 3.697 7.062 5.5 11.044 3.574 5.915-3.216 3.237-9.903-.2-14.021 7.296 6.81 11.544-6.517 4.832-10.052.001 0-17.52 28.783-41.624 24.31z"/><path fill="#CE9C78" d="M177.081 226.472c-4.314-.475-7.6-1.59-9.112-2.184-1.179-.462-.846-.65-.567-1.504l.75.539-.86-.321.413-.819c.112.055 11.299 5.425 24.133.865 9.883-3.51 17.949-11.92 23.974-24.998.212-.459.758-.661 1.218-.45.46.213.662.758.449 1.219-11.953 25.945-29.471 28.856-40.398 27.653z"/><path fill="#231F20" d="M144.935 245.27c3.378 5.179 7.529 10.337 13.274 12.465 14.195 5.26 37.849 2.311 52.218-3.786 1.287-.546 2.499-1.117 3.622-1.71 7.766-4.091 17.698-11.468 26.386-20.361-38.592 23.705-80.428 16.987-95.5 13.392zM170.703 234.988l11.844 3.249-11.844 7.339z"/><path fill="#fff" d="M34.187 171.435l-1.308 9.021 14.915 10.725-1.407 2.89-4.716.943-3.194 4.957-.602 4.598-1.2.339-2.167 9.168-2.499 6.576 2.908 6.674 17.446 12.173 7.194-.216 5.162 2.414 5.872-1.101 8.751 6.294 2.357-4.93.014-6.403 6.939-2.381 10.575-17.779-2.162-2.936-.762-2.998-2.597-15.013-4.972-8.196-2.286-13.581-5.082-3.036-6.837 1.087-4.332 4.97 2.949 4.796-3.522 7.829-27.099-21.491z"/><path fill="#231F20" d="M39.518 168.618l-6.306 8.766-4.367-3.141 6.306-8.766zM48.352 193.269l-13.281 18.461-4.368-3.143 13.281-18.461zM105.051 215.761l-15.772 21.928-4.365-3.14 15.772-21.928zM79.955 250.642l6.179-8.593-4.364-3.141-6.184 8.592zM78.286 170.114l-6.226 8.655-4.365-3.14 6.226-8.655zM42.664 164.25l39.38 28.325-3.14 4.366-39.38-28.325zM28.862 174.247l30.652 22.047-3.142 4.368-30.652-22.047zM37.61 200.506l12.431 8.944-3.143 4.368-12.431-8.944zM35.056 211.724l8.801 6.328-3.14 4.366-8.801-6.328zM33.164 223.624l21.93 15.776-3.143 4.368-21.93-15.776zM55.667 219.92l17.528 12.604-3.14 4.366-17.528-12.604zM66.902 241.251l-8.776-6.309-3.141 4.365 8.774 6.315zM61.843 211.309l17.526 12.61-3.142 4.367-17.526-12.61zM80.52 231.397l4.382 3.15-3.14 4.368-4.382-3.15zM78.733 243.137l-8.694-6.251-3.137 4.365 8.688 6.253zM68.167 202.514l17.525 12.609-3.142 4.367-17.525-12.609zM81.354 165.686l8.763 6.305-3.142 4.367-8.763-6.305zM87.029 176.396l4.382 3.149-3.139 4.368-4.382-3.149zM93.819 194.435l4.38 3.151-3.141 4.367-4.38-3.151zM95.068 201.938l4.382 3.153-3.141 4.365-4.382-3.153zM100.69 212.617l-4.387-3.154-3.139 4.369 4.38 3.149zM88.265 183.917l8.642 6.216-3.14 4.365-8.642-6.216zM31.905 216.083l4.398 3.166-3.142 4.366-4.398-3.166zM72.101 178.797l4.4 3.164-3.14 4.367-4.4-3.164z"/><defs><path id="a" d="M144.935 245.27c3.378 5.179 7.529 10.337 13.274 12.465 14.195 5.26 37.849 2.311 52.218-3.786 1.287-.546 2.499-1.117 3.622-1.71 7.766-4.091 17.698-11.468 26.386-20.361-38.592 23.705-80.428 16.987-95.5 13.392z"/></defs><clipPath id="b"><use xlink:href="#a" overflow="visible"/></clipPath><path clip-path="url(#b)" stroke="#7F7F7F" stroke-miterlimit="10" d="M161.35 262.888l-3.012-18.177s13.496 1.283 12.648 1.393l.906 16.236 12.755 3.113-3.808-19.39 13.973-3.528 2.937 18.109 14.598-2.617-6.028-16.282" fill="none"/><path stroke="#7F7F7F" stroke-linecap="round" stroke-linejoin="round" stroke-miterlimit="10" d="M115.401 172.297c26.035-102.778 92.837-130.007 92.837-130.007s-43.356 55.745-62.522 101.04M289.132 148.334c-21.026-72.859-80.894-106.044-80.894-106.044s49.691 51.515 57.935 122.993M156.488 59.403c24.143-17.183 51.75-17.113 51.75-17.113s26.491-.233 50.312 18.751" fill="none"/><path fill="#231F20" d="M160.757 191.577c-2.195-.962-5.317 1.204-6.702 2.757-2.545 2.854-2.298 6.775-3.463 10.199-1.31 3.852-4.247 6.219-8.385 6.522-4.262.312-8.054-2.683-11.002-5.5-.838 4.062 5.289 9.253 8.056 11.291 4.511 3.322 12.753 6.563 18.259 4.27 6.92-2.88 13.121-10.649 13.354-18.143-.828 2.254 4.307 5.17 6.005 6.175 4.334 2.567 10.161 2.74 15.081 2.948 8.443.357 13.662-3.555 18.034-10.587 2.382-3.831 4.575-10.509 2.493-14.965-2.828 3.39-3.506 7.258-8.31 8.786-6.092 1.938-10.855-1.275-16.106-3.992-3.049-1.577-7.135-2.984-10.488-1.566-2.157.912-3.404 3.303-5.505 4.117-1.087.421-3.292.227-3.925.227l-7.396-2.539z"/><g fill="#CD9C78"><path d="M187.542 179.983s-18.249 34.298-38.001.177c0 0 19.433 20.614 38.001-.177z"/><path opacity=".2" d="M187.542 179.983s-18.768 49.984-38.001.177c0 0 19.433 20.614 38.001-.177z"/></g></svg>