<svg xmlns="http://www.w3.org/2000/svg" width="325.958" height="418.657" viewBox="0 0 325.958 418.657"><path fill="#26160D" d="M175.45 222.219c-28.639-14.139-49.749 19.647-57.324 41.583-7.168 23.492-38.728 84.122-69.54 48.931.041 22.44 26.014 61.39 51.162 58.979 27.111-1.261 39.96-41.205 39.344-62.664-.854-25.554-8.848-43.423 9.456-65.666 7.139-7.686 33.536-21.233 36.144-14.43"/><path fill="#26160D" d="M80.64 219.165s30.02 50.793 65.076 39.196c54.373-17.988 2.69 0 2.69 0s2.092-37.336 3.112-39.799c1.02-2.463-57.411-48.587-57.411-48.587l-13.467 49.19z"/><path fill="#BB1E2D" d="M160.481 238.729s-21.457 17.674-28.714 33.129c.628.27 1.247.572 1.851.923 1.149.582 2.3 1.499 3.336 2.542 1.271-7.53 9.75-18.911 31.928-36.122l-8.401-.472zM137.309 273.762c-1.873-.424-3.691-1.165-5.38-2.258-5.897 12.22 5.401 23.038 25.836 23.037-.466-1.781.647-3.439 2.402-4.647-8.579-.282-26.707-2.477-22.858-16.132z"/><path opacity=".4" fill="#BB1E2D" d="M213.39 271.861l.005-.003-.058-.117-.105-.237-.01.006c-7.413-15.371-28.545-32.781-28.545-32.781l-8.399.471c20.699 16.063 29.463 27.047 31.573 34.562.112.398.202.784.277 1.162l.031.159c2.342 12.475-14.873 14.537-23.167 14.81 1.754 1.208 2.868 2.866 2.402 4.647 20.238.003 31.501-10.606 25.996-22.679z"/><path fill="#231F20" d="M188.33 300.645l-34.269-1.608 1.234 112.533 2.931-.264-.737-94.581 26.424-2.133.739 96.714 2.821.195z"/><path opacity=".15" fill="#211F1F" d="M162.893 414.892c-61.488 0-111.339.84-111.339 1.882 0 1.039 49.851 1.883 111.339 1.883 61.495 0 111.353-.844 111.353-1.883 0-1.042-49.858-1.882-111.353-1.882z"/><path fill="#BB1E2D" d="M193.767 248.834l-2.389 59.625h-38.042l-4.197-61.216"/><path fill="#885E3C" d="M187.407 411.468s2.536 4.018 8.647 4.018l.172 1.25s-7.839.618-10.199-3.134l.162 2.866-2.614-.273.819-5.177 3.013.45zM155.05 411.468s-2.537 4.018-8.645 4.018l-.172 1.25s7.835.618 10.194-3.134l-.155 2.866 2.609-.273-.819-5.177-3.012.45zM158.149 411.57l.731-49.833h-4.819l.314 50.554zM187.407 411.468l1.725-48.763h-5.557l.62 49.586z"/><path fill="#E6BD98" d="M155.514 259.519s14.677 45.886 32.816.884l-31.858-.884"/><path fill="#CD9B78" d="M166.638 274.232c-.225-.063 5.55.403 4.559 5.901 0 0-.602-4.815-4.559-5.901zM176.069 274.232c.225-.063-5.549.403-4.558 5.901.001 0 .603-4.815 4.558-5.901z"/><path opacity=".6" fill="#BB1E2D" d="M251.528 260.962c-.812-.97-1.432-2.086-1.823-3.294-6.148 3.956-26.355 13.101-57.248-10.928l-9.609 4.842s46.202 27.735 68.693 11.731c-.093-.781-.099-1.569-.013-2.351z"/><path fill="#E7BE99" d="M251.383 260.925c-2.684-2.487-6.476-17.352-.51-16.051 4.55 1.152 3.101 11.631 2.733 14.945l.472.05c2.118-.159 4.477.09 6.543.404 3.366.643 19.334 5.588 19.102 10.257-.033 6.319-18.369-3.954-21.336-5.608 4.749 2.801 10.808 11.009 8.647 16.72-6.228 1.066-9.13-13.226-10.073-17.637-.022 2.776.343 12.393-4.238 8.939-2.38-1.784-1.792-6.224-1.414-8.771" opacity=".6"/><path fill="#BB1E2D" d="M245.27 215.069c-.507 2.812-6.419 28.927-51.3 30.772l-4.208 9.903s57.346-9.341 60.6-38.566c-2.084-.212-3.776-.989-5.092-2.109z"/><path fill="#E7BE99" d="M248.118 218.612c-3.655-.165-16.151-9.065-10.756-11.924 4.218-2.06 9.88 6.877 11.739 9.644l.392-.267c1.514-1.49 3.476-2.823 5.256-3.917 2.985-1.683 18.37-8.22 21.208-4.506 4.056 4.845-16.578 8.846-19.912 9.498 5.435-.929 15.362 1.424 17.4 7.18-4.067 4.836-15.513-4.201-19.081-6.959 1.776 2.133 8.266 9.24 2.538 9.562-2.969.175-5.388-3.595-6.744-5.783"/><ellipse transform="matrix(-.985 -.175 .175 -.985 281.364 245.485)" fill="#3C2415" cx="151.517" cy="110.324" rx="87.838" ry="82.952"/><path fill="#E6BD98" d="M108.421 193.445s6.232 65.917 58.881 74.541c0 0 61.407-3.675 63.067-103.355.087-5.233-.395 7.664 0 0 0 0 15.757-108.993-83.273-93.806-99.024 15.178-55.337 98.889-55.337 98.889l16.662 23.731zM242.673 150.497c-4.798-2.661-8.534-2.606-11.388-1.364.058-29.51-8.823-89.866-84.189-78.308-99.024 15.178-55.337 98.889-55.337 98.889l16.662 23.731s6.232 65.916 58.881 74.541c0 0 45.701-2.745 59.314-67.506 2.785 2.473 7.182 2.962 9.319 1.628 2.929-1.83 2.187-5.182-2.934-13.656-5.107-8.479 2.72-13.271 2.72-13.271s5.149-3.059 9.062-7.329c4.695-5.104 7.627-11.951-2.11-17.355zM112.393 188.425c-.229 1.247-14.638 38.083 21.258 58.753 35.897 20.67-21.258-58.753-21.258-58.753z"/><path fill="#26160D" d="M163.154 160.769s-14.93-25.821-46.254-2.597c0 0 26.929-11.206 46.254 2.597zM226.944 154.553s-18.529-20.557-42.482 6.559c-.001 0 22.281-15.362 42.482-6.559z"/><path fill="#DACF8C" d="M102.677 87.418"/><path fill="#E5B36A" d="M171.689 70.309c-18.594 2.207-56.543 10.898-53.34 36.288.558 6.166 5.678 11.489 3.467 17.714-2.401 7.295-12.536 11.559-19.083 14.255-14.258 5.736-35.715 8.537-45.099-6.922-10.701-17.348 13.895-37.791 23.853-50.36.879 1.259 44.349-23.451 45.227-22.192"/><path fill="#E6BD98" d="M188.594 85.592s-11.373-24.437-41.235-10.05c-29.863 14.387 15.525 11.93 15.093 11.854-.431-.077 27.144-1.553 26.142-1.804z"/><path fill="#3C2415" d="M204.587 80.518c-23.025 8.216-45.671 14.954-60.749 35.958-10.902 15.187-13.813 33.512-19.704 50.859-8.08 23.793-25.207 70.128-58.478 49.914-43.227-26.263-17.514-166.694 49.663-183.29 34.635-8.556 65.633 5.237 84.028 35.025 2.22 3.597 4.044 7.479 5.24 11.534z"/><path stroke="#26160D" stroke-width="2" stroke-linecap="round" stroke-linejoin="round" stroke-miterlimit="10" d="M205.463 81.638s-59.747-54.435-120.407 111.519c-17.277 47.268-35.873-5.855-35.873-5.855M47.385 138.857s18.269 72.747 63.193-32.371c31.912-74.672 93.434-25.305 93.434-25.305s24.032 5.878 35.119 34.428M131.767 30.452c65.63-10.7 72.82 48.852 72.82 48.852.86-.569-65.807-96.17-148.679 25.602" fill="none"/><circle fill="#BB1E2D" cx="233.123" cy="198.565" r="1.786"/><path fill="#231F20" d="M185.031 175.665s8.107-9.55 22.747-6.1c14.63 3.454 17.219-14.042 17.219-14.042s.906 15.54-10.849 16.953c0 0 8.423 3.222 12.226-4.13 0 0-4.155 14.71-26.549 5.051-6.923-2.99-14.794 2.268-14.794 2.268zM162.808 175.88s-8.107-9.55-22.747-6.1c-14.63 3.454-17.219-14.042-17.219-14.042s-.905 15.54 10.849 16.953c0 0-8.423 3.222-12.226-4.13 0 0 4.155 14.71 26.549 5.051 6.924-2.99 14.794 2.268 14.794 2.268z"/><g fill="#CD9C78"><path d="M190.63 198.565s-14.232 29.202-31.749 1.275c-.001 0 16.849 16.65 31.749-1.275z"/><path opacity=".2" d="M190.63 198.565s-14.201 42.325-31.749 1.275c-.001 0 16.849 16.65 31.749-1.275z"/></g><path fill="#CD9B78" d="M157.976 265.732s19.004.844 30.22-5.185c0 0-13.222 12.8-30.22 5.185z"/><path fill="#CD9C78" d="M134.941 221.269s2.169-10.87 13.231-2.807c.001-.001-7.507-5.249-13.231 2.807zM140.496 218.829s-11.081 19.849 11.564 25.602c15.302 3.884 33.479-11.724 33.479-11.724s-29.761 12.638-45.043-13.878zM179.467 234.854c-8.109 2.193-15.451 2.158-21.948-.131-13.232-4.654-17.959-16.86-18.159-17.38l1.242-.467c.045.121 4.725 12.162 17.373 16.602 10.832 3.803 24.18 1.084 39.67-8.072l.678 1.142c-6.67 3.942-12.965 6.715-18.856 8.306z"/><path fill="#F2F3F3" d="M185.539 232.707s-26.407 11.206-42.25-9.668c-1.616 2.472-6.692 11.572 5.344 12.957 0 0-3.227 3.521-1.381 6.784 1.411.628 2.988 1.184 4.808 1.651 15.301 3.884 33.479-11.724 33.479-11.724z"/></svg>