<?xml version="1.0" encoding="utf-8"?>
<!-- Generator: Adobe Illustrator 16.0.0, SVG Export Plug-In . SVG Version: 6.00 Build 0)  -->
<!DOCTYPE svg PUBLIC "-//W3C//DTD SVG 1.1//EN" "http://www.w3.org/Graphics/SVG/1.1/DTD/svg11.dtd">
<svg version="1.1" id="Layer_1" xmlns="http://www.w3.org/2000/svg" xmlns:xlink="http://www.w3.org/1999/xlink" x="0px" y="0px"
   width="480px" height="500px" viewBox="0 0 480 500" enable-background="new 0 0 480 500" xml:space="preserve">
<g>
  <path fill="#D3D3D3" d="M120.333,485.109c-0.044,6.053,52.799,11.337,118.061,11.812c65.229,0.476,118.162-4.048,118.207-10.104
    c0.045-6.044-52.804-11.332-118.065-11.804C173.297,474.538,120.364,479.053,120.333,485.109z"/>
  <rect x="223.272" y="45.716" fill="#595A5C" width="35.673" height="6.907"/>
  <polygon fill="#414142" points="223.272,52.623 223.272,45.716 258.945,45.716 258.984,46.824 224.113,46.824 224.113,52.818   "/>
  <path fill="#818181" d="M178.505,385.301c-21.588,0-39.137-17.554-39.137-39.128V48.834c0-21.579,17.549-39.128,39.137-39.128
    h125.141c21.587,0,39.146,17.549,39.146,39.128v297.339c0,21.574-17.56,39.128-39.146,39.128H178.505z"/>
  <polygon fill="#818181" points="197.233,355.414 285.109,351.278 281.97,475.717 274.439,475.027 275.08,390.22 208.551,391.154 
    206.661,475.027 197.255,475.027   "/>
  <path fill="#818181" d="M282.196,475.597c0,0,6.479,10.309,22.156,10.309l0.437,3.212c0,0-20.09,1.601-26.147-8.02l0.405,7.334
    l-6.689-0.68l2.1-13.308L282.196,475.597z"/>
  <path fill="#818181" d="M198.567,473.786c0,0-6.494,10.31-22.179,10.31l-0.418,3.211c0,0,20.067,1.601,26.142-8.023l-0.418,7.339
    l6.693-0.689l-2.09-13.279L198.567,473.786z"/>
  <path fill="#010101" d="M331.277,346.173c0,15.245-12.368,27.618-27.632,27.618H178.505c-15.268,0-27.632-12.373-27.632-27.618
    V48.834c0-15.255,12.364-27.623,27.632-27.623h125.141c15.264,0,27.632,12.368,27.632,27.623V346.173z"/>
  <linearGradient id="SVGID_1_" gradientUnits="userSpaceOnUse" x1="240.1196" y1="363.0371" x2="240.1196" y2="331.3936">
    <stop  offset="0" style="stop-color:#414142"/>
    <stop  offset="0.5276" style="stop-color:#231F20"/>
  </linearGradient>
  <path fill="url(#SVGID_1_)" d="M255.943,347.213c0-8.742-7.076-15.819-15.824-15.819c-8.739,0-15.824,7.077-15.824,15.819
    c0,8.735,7.085,15.824,15.824,15.824C248.867,363.037,255.943,355.948,255.943,347.213z"/>
  <g opacity="0.48">
    <path fill="none" stroke="#818385" stroke-width="0.2527" d="M249.271,353.473c0,0.278-0.227,0.506-0.505,0.506h-17.291
      c-0.278,0-0.505-0.228-0.505-0.506V340.95c0-0.278,0.228-0.506,0.505-0.506h17.291c0.278,0,0.505,0.228,0.505,0.506V353.473z"/>
  </g>
  <g>
    <defs>
      <rect id="SVGID_2_" x="157.197" y="73.757" width="166.168" height="245.768"/>
    </defs>
    <clipPath id="SVGID_3_">
      <use xlink:href="#SVGID_2_"  overflow="visible"/>
    </clipPath>
    <g clip-path="url(#SVGID_3_)">
      <path fill="#F5ED9B" d="M166.212,56.879c0,0-112.919,105.314-29.504,271.842c0,0-7.725,29.14-18.025,10.83
        c0,0-0.502,22.485,14.925,21.642c0,0-26.178,103.027,79.292,82.16c61.641-12.186,55.771-25.759,55.771-25.759
        s37.455-38.919,40.031-49.735c0,0,13.382,31.639,20.608-2.499c0,0,13.187,16.478,9.575-10.167
        c-3.603-26.645-24.154-82.69-9.734-133.483C415.894,67.21,241.897-5.567,166.212,56.879z"/>
      <g>
        <path fill="#F5ED9B" d="M324.531,215.482c-4.999,5.822-10.826,26.649-9.158,35.797c1.677,13.328,14.988,25.826,29.153,22.485
          c11.656-2.499,15.806-23.309,2.485-19.154c9.171-9.153,15.833,1.667,17.479,9.997c2.513,14.147-8.308,24.973-21.646,29.976
          c-20.805,7.494-38.296,0-49.112-15.828"/>
      </g>
      <path fill="#DBD08D" d="M311.211,235.122c0,0-2.98,171.166-54.352,159.87l-16.541-83.883l9.642-41.392L311.211,235.122z"/>
      <g>
        <path fill="#F5ED9B" d="M114.302,336.949c-0.008,13.636,0.783,26.483-5.123,41.36c-3.887,10.306-6.72,15.673-13.489,14.525
          c-3.985-1.286-7.734-6.693-0.614-11.741c0.685,1.263,0.084,3.166,0.271,4.287c5.795-12.812-3.292-13.662-7.779-1.472
          c-4.496,12.199,0.022,22.046,4.572,26.666c9.722,7.343,21.067-0.52,31.758-14.911c21.904-28.584,43.54-115.428,16.54-122.059
          c0,0-16.211,15.031-29.793,9.668L114.302,336.949z"/>
      </g>
      <path fill="#DBD08D" d="M225.091,276.7l-59.127-64.034c0,0-24.701,21.455-54.147,39.626
        c3.459,23.593,11.207,49.104,24.892,76.428c0,0-7.725,29.14-18.025,10.83c0,0-0.502,22.485,14.925,21.642
        c0,0-7.458,67.644,72.488,59.799c11.136-21.894,24.603-23.442,24.603-23.442L225.091,276.7z"/>
      <path fill="none" stroke="#C1B373" stroke-width="0.5485" d="M193.679,258.114c0,0-18.479,40.743-58.577,53.48"/>
      <path fill="none" stroke="#C1B373" stroke-width="0.5485" d="M206.403,265.755c0,0-21.646,81.494-66.222,97.407"/>
      <path fill="none" stroke="#C1B373" stroke-width="0.5485" d="M221.048,271.483c0,0-23.553,121.597-66.848,129.873"/>
      <path fill="none" stroke="#C1B373" stroke-width="0.5485" d="M294.275,249.197c0,0-2.789,79.422-22.521,111.888"/>
      <path fill="none" stroke="#C1B373" stroke-width="0.5485" d="M271.98,269.571c0,0,7.641,41.388-12.729,82.13"/>
      <path fill="#F0D0B4" d="M309.2,182.482c0.454-3.833,0.743-7.716,0.823-11.669c1.165-54.014-33.263-98.492-76.883-99.355
        c-43.629-0.854-79.937,42.242-81.103,96.255c-0.271,12.924-2.593,24.678,0.845,36.037c-0.555,3.028,10.198,6.715,10.141,9.851
        c-0.845,39.013,40.76,71.599,87.129,72.51c10.771,0.219,66.377-30.273,67.209-69.276
        C317.628,204.435,314.732,192.724,309.2,182.482z"/>
      <path opacity="0.3" fill="#DEB18A" d="M254.836,75.545c0,0,3.504,110.317-93.707,96.433
        C161.129,171.978,264.877,84.577,254.836,75.545z"/>
      <path fill="#DEB18A" d="M293.599,204.239c0,0,11.79,5.257,12.422,22.53C306.021,226.769,309.708,205.208,293.599,204.239z"/>
      <path fill="none" stroke="#DEB18A" stroke-width="0.3168" d="M262.071,160.966c0,0-6.569,5.754,1.668,13.974"/>
      <g>
        <path fill="#E3A3A1" d="M199.763,220.339c0,0,20.583-14.054,54.788-6.106c0,0,40.164-9.158,45.177,4.918
          c0,0-22.615,61.382-57.661,48.272C207.013,254.304,199.763,220.339,199.763,220.339z"/>
        <path fill="#FFFFFF" d="M208.898,222.331c0,0,30.767-6.876,82.806-1.299C291.704,221.032,258.438,291.189,208.898,222.331z"/>
      </g>
      <path fill="#DEB18A" d="M189.241,227.899c0,0,3.86-15.588,17.011-16.566C206.252,211.333,189.778,206.627,189.241,227.899z"/>
      <path fill="#F0D0B4" d="M174.698,195.704c0,0,48.068-22.192,70.251-1.237C244.949,194.467,205.509,212.96,174.698,195.704z"/>
      <path fill="#DEB18A" d="M272.141,185.845c0,0-2.148,26.867-34.388,15.05C237.753,200.895,262.471,203.043,272.141,185.845z"/>
      <path opacity="0.28" fill="#BF202E" d="M272.406,172.275c0,0,17.776-14.921,34.593,2.917
        C306.999,175.193,289.614,134.557,272.406,172.275z"/>
      <path fill="#231F20" d="M272.305,172.026c0,0,9.789-9.966,25.786-4.941c15.992,5.021,20.28-14.227,20.28-14.227
        s-0.249,17.354-13.427,17.976c0,0,9.1,4.265,13.92-3.606c0,0-5.804,16.015-29.918,3.473
        C281.479,166.814,272.305,172.026,272.305,172.026z"/>
      <path fill="#231F20" d="M272.238,161.619c0,0,22.499-36.553,37.064-13.212C309.303,148.407,297.285,131.168,272.238,161.619z"/>
      <path opacity="0.28" fill="#BF202E" d="M237.268,171.199c0,0-26.306-15.566-51.163,3.051
        C186.105,174.25,211.811,131.866,237.268,171.199z"/>
      <path fill="#231F20" d="M237.397,170.941c0,0-14.472-10.407-38.124-5.164c-23.665,5.252-30.006-14.823-30.006-14.823
        s0.387,18.092,19.871,18.737c0,0-13.471,4.452-20.605-3.749c0,0,8.593,16.695,44.261,3.611
        C223.833,165.506,237.397,170.941,237.397,170.941z"/>
      <path fill="#231F20" d="M240.119,154.077c0,0-36.656-34.899-55.859-8.678C184.26,145.399,200.284,125.867,240.119,154.077z"/>
      <g>
        <path fill="#F5ED9B" d="M121.36,245.458c-10.816,6.658-20.813,14.156-34.138,12.484c-9.157-0.832-14.151-2.491-14.987-13.316
          c0-6.667,3.335-14.988,9.157-6.667c-0.836,1.659-2.491,1.659-3.327,2.5c11.661,2.495,9.989-11.657-0.841-12.493
          c-10.816-0.833-17.478,10.82-19.982,19.987c-3.331,18.323,5.827,31.634,19.982,40.792
          c28.316,19.154,102.779,9.396,101.116-34.734c0,0-16.095-17.189-15.316-40.409L121.36,245.458z"/>
      </g>
      <path opacity="0.28" fill="#BF202E" d="M241.333,159.903c0,0-13.155-19.417-41.049-10.162l-10.932,9.241l12.444,2.211
        L241.333,159.903z"/>
      <path fill="#FFFFFF" d="M192.896,164.866c-4.145,13.022,10.94,25.168,24.438,25.168c13.502,0,24.438-11.279,24.438-25.168
        c0-1.744-0.179-3.452-0.512-5.08c0,0-28.45-8.925-44.456-1.529l-3.225,4.812C193.581,163.069,193.199,163.888,192.896,164.866z"
        />
      <path fill="#28A8E0" d="M200.893,170.238c0,7.806,6.324,14.13,14.107,14.13c7.809,0,14.129-6.324,14.129-14.13
        c0-7.796-6.32-14.116-14.129-14.116C207.217,156.123,200.893,162.442,200.893,170.238z"/>
      <path fill="#44C1F0" d="M202.672,170.238c0,6.813,5.528,12.333,12.328,12.333c6.813,0,12.337-5.52,12.337-12.333
        c0-6.809-5.524-12.319-12.337-12.319C208.2,157.919,202.672,163.43,202.672,170.238z"/>
      <path fill="#231F20" d="M207.461,170.047c-0.098,4.163,3.198,7.631,7.352,7.734c4.162,0.107,7.631-3.18,7.743-7.342
        c0.102-4.159-3.189-7.632-7.356-7.734C211.042,162.594,207.573,165.889,207.461,170.047z"/>
      <path fill="#F0D0B4" d="M190.361,189.518c0,0,38.35-18.239,54.472,1.877C244.833,191.395,213.354,206.623,190.361,189.518z"/>
      <path fill="#231F20" d="M193.581,163.069c0,0-7.863,12.417,9.718,23.526C203.299,186.596,191.096,177.959,193.581,163.069z"/>
      <path fill="#231F20" d="M182.37,165.266c0,0,2.767,5.916,10.42,5.377c0,0,0.022-7.165,1.09-8.597
        C193.879,162.047,185.287,167.236,182.37,165.266z"/>
      <path fill="#231F20" d="M192.79,170.644c0,0-6.551,2.646-9.762,1.401c0,0,3.412,3.985,8.321,2.988c0,0-1.485,2.74-4.052,2.74
        c0,0,4.483,1.748,6.823-0.747L192.79,170.644z"/>
      <path fill="#231F20" d="M241.333,159.903c0,0-20.347-10.611-42.37-4.915c-22.042,5.706-21.067-16.82-21.067-16.82
        s-1.699,23.108,18.501,20.377c0,0-12.542,4.843-19.178-4.078c0,0,1.406,15.993,15.953,8.125
        C209.107,153.979,241.333,159.903,241.333,159.903z"/>
      <path fill="#FFFFFF" d="M204.931,170.101c0-1.454,1.174-2.619,2.624-2.619c1.454,0,2.619,1.165,2.619,2.619
        c0,1.446-1.165,2.62-2.619,2.62C206.105,172.72,204.931,171.546,204.931,170.101z"/>
      <path fill="#F5ED9B" d="M255.867,70.475c0,0-56.549,113.101-96.344,147.658l-25.146-32.466
        C134.378,185.667,158.473,34.864,255.867,70.475z"/>
      <path fill="none" stroke="#DBD08D" stroke-width="0.5485" d="M120.604,216.745C208.636,152.76,252.367,73.641,252.367,73.641
        s-83.753,93.342-131.839,104.571"/>
      <polygon fill="#F0D0B4" points="222.089,278.715 215.587,320.427 270.744,320.889 254.52,281.961      "/>
      <path fill="#DEB18A" d="M220.933,281.184c0,0,18.822,5.471,35.455,3.722c0,0-21.672,6.564-35.668,1.749L220.933,281.184z"/>
    </g>
  </g>
</g>
</svg>