<svg id="Layer_1" data-name="Layer 1" xmlns="http://www.w3.org/2000/svg" viewBox="0 0 478.922 165.93">
  <defs>
    <style>
      .cls-1 {
        fill: #fff;
      }
    </style>
  </defs>
  <title>logo with subtitle</title>
  <g>
    <path class="cls-1" d="M387.464,20.284l48.045,40.439a1.967,1.967,0,0,0,2.91.255l40.26-33.352h0a1.966,1.966,0,0,0,.394-2.731h0A57.862,57.862,0,0,0,431.359.737,65.193,65.193,0,0,0,387.351,17.42a0.248,0.248,0,0,0-.062.081,1.935,1.935,0,0,0,.188,2.767Z" transform="translate(-0.533 -0.737)"/>
    <path class="cls-1" d="M478.742,108.62l0,0-97.315-81.56a1.968,1.968,0,0,0-2.956.271c-8.056,11-12.588,24.611-12.588,40.542,0,39.681,27.738,67.483,65.473,67.483,19.39,0,35.946-8.914,47.58-24,0.014-.016.026-0.034,0.04-0.051l0.022-.028h0A1.965,1.965,0,0,0,478.742,108.62Z" transform="translate(-0.533 -0.737)"/>
    <path class="cls-1" d="M288.614,1.778H249.423a2.232,2.232,0,0,0-2.232,2.232V131.226a2.232,2.232,0,0,0,2.232,2.232h39.192a65.837,65.837,0,0,0,65.837-65.837V67.615A65.837,65.837,0,0,0,288.614,1.778Z" transform="translate(-0.533 -0.737)"/>
    <path class="cls-1" d="M2.393,133.458H45.3a1.86,1.86,0,0,0,1.86-1.86V88.209a1.86,1.86,0,0,1,1.86-1.86H64.3a1.86,1.86,0,0,0,1.86-1.86V41.1a1.86,1.86,0,0,1,1.86-1.86h38.947a1.86,1.86,0,0,0,1.86-1.86V3.862A1.86,1.86,0,0,0,106.963,2H2.393a1.86,1.86,0,0,0-1.86,1.86V131.6A1.86,1.86,0,0,0,2.393,133.458Z" transform="translate(-0.533 -0.737)"/>
    <path class="cls-1" d="M123.118,2V131.6a1.86,1.86,0,0,0,1.86,1.86h104.57a1.86,1.86,0,0,0,1.86-1.86V98.08a1.86,1.86,0,0,0-1.86-1.86H190.6a1.86,1.86,0,0,1-1.86-1.86V50.971a1.86,1.86,0,0,0-1.86-1.86H171.6a1.86,1.86,0,0,1-1.86-1.86V41.1a1.86,1.86,0,0,1,1.86-1.86h57.946a1.86,1.86,0,0,0,1.86-1.86V3.859A1.86,1.86,0,0,0,229.552,2l-106.434-.22V2Z" transform="translate(-0.533 -0.737)"/>
  </g>
  <g>
    <path class="cls-1" d="M1.542,152.009h9.227v2.3H4.086v3.755h6.3v2.3h-6.3V166.3H1.542V152.009Z" transform="translate(-0.533 -0.737)"/>
    <path class="cls-1" d="M18.4,152.009h4.966a10.1,10.1,0,0,1,1.989.192,5.1,5.1,0,0,1,1.706.656,3.446,3.446,0,0,1,1.191,1.252,4.031,4.031,0,0,1,.444,2,3.983,3.983,0,0,1-.858,2.6,3.681,3.681,0,0,1-2.453,1.272l3.8,6.319H26.112L22.8,160.246H20.944V166.3H18.4V152.009Zm4.522,6.057q0.545,0,1.09-.05a3.333,3.333,0,0,0,1-.243,1.693,1.693,0,0,0,.737-0.586,1.86,1.86,0,0,0,.283-1.1,1.757,1.757,0,0,0-.263-1.009,1.637,1.637,0,0,0-.686-0.576,3.187,3.187,0,0,0-.939-0.252,8.541,8.541,0,0,0-1-.06h-2.2v3.876h1.978Z" transform="translate(-0.533 -0.737)"/>
    <path class="cls-1" d="M35.62,159.217a8.276,8.276,0,0,1,.565-3.12A7.011,7.011,0,0,1,37.75,153.7a6.869,6.869,0,0,1,2.382-1.524,8.369,8.369,0,0,1,3.038-.534,8.487,8.487,0,0,1,3.069.494,6.711,6.711,0,0,1,2.4,1.5,6.946,6.946,0,0,1,1.574,2.383,8.194,8.194,0,0,1,.565,3.109,7.928,7.928,0,0,1-.565,3.048,6.982,6.982,0,0,1-1.574,2.362,7.193,7.193,0,0,1-2.4,1.545,8.515,8.515,0,0,1-3.069.576,8.348,8.348,0,0,1-3.038-.535,6.813,6.813,0,0,1-3.947-3.866A7.928,7.928,0,0,1,35.62,159.217Zm2.665-.162a6.141,6.141,0,0,0,.353,2.119,4.976,4.976,0,0,0,1,1.676,4.644,4.644,0,0,0,1.545,1.11,4.831,4.831,0,0,0,2.009.4,4.9,4.9,0,0,0,2.019-.4,4.62,4.62,0,0,0,1.555-1.11,4.985,4.985,0,0,0,1-1.676,6.153,6.153,0,0,0,.353-2.119,5.584,5.584,0,0,0-.353-2,4.949,4.949,0,0,0-1-1.625,4.555,4.555,0,0,0-1.555-1.09,5.012,5.012,0,0,0-2.019-.394,4.94,4.94,0,0,0-2.009.394,4.578,4.578,0,0,0-1.545,1.09,4.94,4.94,0,0,0-1,1.625A5.574,5.574,0,0,0,38.285,159.055Z" transform="translate(-0.533 -0.737)"/>
    <path class="cls-1" d="M58.474,152.009h3.371l6.925,10.62h0.04v-10.62h2.544V166.3h-3.23L61.059,155.34h-0.04V166.3H58.474V152.009Z" transform="translate(-0.533 -0.737)"/>
    <path class="cls-1" d="M82.741,154.311H78.36v-2.3H89.666v2.3H85.285V166.3H82.741V154.311Z" transform="translate(-0.533 -0.737)"/>
    <path class="cls-1" d="M98.146,162.366H93.159v-2.059h4.987v2.059Z" transform="translate(-0.533 -0.737)"/>
    <path class="cls-1" d="M105.7,152.009h9.469v2.3H108.24v3.512H114.8v2.3H108.24V164h7.288v2.3H105.7V152.009Z" transform="translate(-0.533 -0.737)"/>
    <path class="cls-1" d="M123.3,152.009h3.371l6.925,10.62h0.04v-10.62h2.544V166.3h-3.23l-7.066-10.963h-0.04V166.3H123.3V152.009Z" transform="translate(-0.533 -0.737)"/>
    <path class="cls-1" d="M144.64,152.009h5.633a8.637,8.637,0,0,1,2.725.434,6.631,6.631,0,0,1,2.322,1.323A6.463,6.463,0,0,1,156.935,156a7.62,7.62,0,0,1,.606,3.159,6.635,6.635,0,0,1-2.493,5.4,7.681,7.681,0,0,1-2.443,1.313,8.556,8.556,0,0,1-2.635.434h-5.33V152.009ZM149.082,164a9.026,9.026,0,0,0,2.251-.272,5.369,5.369,0,0,0,1.847-.848,4.019,4.019,0,0,0,1.242-1.494,4.994,4.994,0,0,0,.454-2.231,5.548,5.548,0,0,0-.4-2.221,3.86,3.86,0,0,0-1.12-1.5,4.674,4.674,0,0,0-1.7-.849,8.012,8.012,0,0,0-2.15-.272h-2.322V164h1.9Z" transform="translate(-0.533 -0.737)"/>
    <path class="cls-1" d="M176.479,152.009h5.633a8.637,8.637,0,0,1,2.725.434,6.631,6.631,0,0,1,2.322,1.323A6.463,6.463,0,0,1,188.774,156a7.62,7.62,0,0,1,.606,3.159,6.635,6.635,0,0,1-2.493,5.4,7.681,7.681,0,0,1-2.443,1.313,8.556,8.556,0,0,1-2.635.434h-5.33V152.009ZM180.92,164a9.026,9.026,0,0,0,2.251-.272,5.369,5.369,0,0,0,1.847-.848,4.019,4.019,0,0,0,1.242-1.494,4.994,4.994,0,0,0,.454-2.231,5.548,5.548,0,0,0-.4-2.221,3.86,3.86,0,0,0-1.12-1.5,4.674,4.674,0,0,0-1.7-.849,8.012,8.012,0,0,0-2.15-.272h-2.322V164h1.9Z" transform="translate(-0.533 -0.737)"/>
    <path class="cls-1" d="M197.071,152.009h9.469v2.3h-6.925v3.512h6.561v2.3h-6.561V164H206.9v2.3h-9.832V152.009Z" transform="translate(-0.533 -0.737)"/>
    <path class="cls-1" d="M221.681,155.078a2.347,2.347,0,0,0-1.08-.858,3.763,3.763,0,0,0-1.423-.273,3.569,3.569,0,0,0-.858.1,2.321,2.321,0,0,0-.747.322,1.693,1.693,0,0,0-.535.576,1.661,1.661,0,0,0-.2.838,1.309,1.309,0,0,0,.5,1.11,4.935,4.935,0,0,0,1.251.666q0.747,0.284,1.635.545a6.678,6.678,0,0,1,1.635.727,4.058,4.058,0,0,1,1.251,1.232,3.661,3.661,0,0,1,.5,2.039,4.487,4.487,0,0,1-.424,2.009,4.093,4.093,0,0,1-1.141,1.423,4.939,4.939,0,0,1-1.666.848,6.975,6.975,0,0,1-2,.283,7.506,7.506,0,0,1-2.564-.445,4.933,4.933,0,0,1-2.12-1.493l1.918-1.858a3.214,3.214,0,0,0,1.221,1.1,3.432,3.432,0,0,0,1.6.393,3.363,3.363,0,0,0,.889-0.121,2.753,2.753,0,0,0,.807-0.364,1.883,1.883,0,0,0,.586-0.615,1.651,1.651,0,0,0,.222-0.859,1.491,1.491,0,0,0-.5-1.211,4.449,4.449,0,0,0-1.251-.717q-0.747-.293-1.635-0.556a6.868,6.868,0,0,1-1.635-.717,3.973,3.973,0,0,1-1.251-1.212,3.607,3.607,0,0,1-.5-2.029,3.852,3.852,0,0,1,.454-1.917,4.16,4.16,0,0,1,1.191-1.343,5.184,5.184,0,0,1,1.686-.8,7.215,7.215,0,0,1,1.938-.262,7.073,7.073,0,0,1,2.191.343,5.071,5.071,0,0,1,1.908,1.131Z" transform="translate(-0.533 -0.737)"/>
    <path class="cls-1" d="M231.473,152.009h2.544V166.3h-2.544V152.009Z" transform="translate(-0.533 -0.737)"/>
    <path class="cls-1" d="M255.115,165.253a12.351,12.351,0,0,1-5.916,1.414,8.35,8.35,0,0,1-3.038-.535,6.809,6.809,0,0,1-3.947-3.866,7.928,7.928,0,0,1-.565-3.048,8.276,8.276,0,0,1,.565-3.12,7.01,7.01,0,0,1,1.564-2.393,6.88,6.88,0,0,1,2.383-1.524,8.371,8.371,0,0,1,3.038-.534,11.553,11.553,0,0,1,3.069.393,6.326,6.326,0,0,1,2.564,1.4l-1.878,1.9a4.715,4.715,0,0,0-1.665-1.029,5.9,5.9,0,0,0-2.069-.364,4.941,4.941,0,0,0-2.009.394,4.578,4.578,0,0,0-1.545,1.09,4.949,4.949,0,0,0-1,1.625,5.574,5.574,0,0,0-.353,2,6.141,6.141,0,0,0,.353,2.119,4.985,4.985,0,0,0,1,1.676,4.644,4.644,0,0,0,1.545,1.11,4.831,4.831,0,0,0,2.009.4,8.864,8.864,0,0,0,1.827-.181,5.172,5.172,0,0,0,1.524-.566v-3.371h-2.927v-2.3h5.471v7.309Z" transform="translate(-0.533 -0.737)"/>
    <path class="cls-1" d="M263.392,152.009h3.371l6.925,10.62h0.04v-10.62h2.543V166.3h-3.23l-7.066-10.963h-0.04V166.3h-2.543V152.009Z" transform="translate(-0.533 -0.737)"/>
    <path class="cls-1" d="M305.789,155.361a4.25,4.25,0,0,0-1.524-1.131,4.121,4.121,0,0,0-1.484-.283,4.941,4.941,0,0,0-2.009.394,4.578,4.578,0,0,0-1.545,1.09,4.949,4.949,0,0,0-1,1.625,5.574,5.574,0,0,0-.353,2,6.141,6.141,0,0,0,.353,2.119,4.985,4.985,0,0,0,1,1.676,4.644,4.644,0,0,0,1.545,1.11,4.831,4.831,0,0,0,2.009.4,3.689,3.689,0,0,0,1.686-.414,4.606,4.606,0,0,0,1.524-1.322l2.1,1.493a5.714,5.714,0,0,1-2.362,1.938,7.358,7.358,0,0,1-2.968.606,8.35,8.35,0,0,1-3.038-.535,6.809,6.809,0,0,1-3.947-3.866,7.937,7.937,0,0,1-.565-3.048,8.286,8.286,0,0,1,.565-3.12,7.01,7.01,0,0,1,1.564-2.393,6.88,6.88,0,0,1,2.383-1.524,8.371,8.371,0,0,1,3.038-.534,6.967,6.967,0,0,1,2.7.515,6.29,6.29,0,0,1,2.312,1.746Z" transform="translate(-0.533 -0.737)"/>
    <path class="cls-1" d="M314.309,159.217a8.286,8.286,0,0,1,.565-3.12,7.01,7.01,0,0,1,1.564-2.393,6.88,6.88,0,0,1,2.383-1.524,8.371,8.371,0,0,1,3.038-.534,8.489,8.489,0,0,1,3.069.494,6.709,6.709,0,0,1,2.4,1.5,6.955,6.955,0,0,1,1.575,2.383,8.2,8.2,0,0,1,.565,3.109,7.937,7.937,0,0,1-.565,3.048,6.992,6.992,0,0,1-1.575,2.362,7.191,7.191,0,0,1-2.4,1.545,8.517,8.517,0,0,1-3.069.576,8.35,8.35,0,0,1-3.038-.535,6.809,6.809,0,0,1-3.947-3.866A7.937,7.937,0,0,1,314.309,159.217Zm2.665-.162a6.141,6.141,0,0,0,.353,2.119,4.985,4.985,0,0,0,1,1.676,4.644,4.644,0,0,0,1.545,1.11,4.831,4.831,0,0,0,2.009.4,4.907,4.907,0,0,0,2.019-.4,4.624,4.624,0,0,0,1.555-1.11,5,5,0,0,0,1-1.676,6.142,6.142,0,0,0,.354-2.119,5.574,5.574,0,0,0-.354-2,4.963,4.963,0,0,0-1-1.625,4.56,4.56,0,0,0-1.555-1.09,5.018,5.018,0,0,0-2.019-.394,4.941,4.941,0,0,0-2.009.394,4.578,4.578,0,0,0-1.545,1.09,4.949,4.949,0,0,0-1,1.625A5.574,5.574,0,0,0,316.973,159.055Z" transform="translate(-0.533 -0.737)"/>
    <path class="cls-1" d="M337.163,152.009h3.371l6.925,10.62h0.04v-10.62h2.543V166.3h-3.23l-7.066-10.963h-0.04V166.3h-2.543V152.009Z" transform="translate(-0.533 -0.737)"/>
    <path class="cls-1" d="M358.5,152.009h9.226v2.3h-6.683v3.755h6.3v2.3h-6.3V166.3H358.5V152.009Z" transform="translate(-0.533 -0.737)"/>
    <path class="cls-1" d="M375.359,152.009h9.469v2.3H377.9v3.512h6.561v2.3H377.9V164h7.289v2.3h-9.832V152.009Z" transform="translate(-0.533 -0.737)"/>
    <path class="cls-1" d="M392.964,152.009h4.966a10.092,10.092,0,0,1,1.988.192,5.1,5.1,0,0,1,1.706.656,3.442,3.442,0,0,1,1.191,1.252,4.036,4.036,0,0,1,.445,2,3.983,3.983,0,0,1-.859,2.6,3.679,3.679,0,0,1-2.453,1.272l3.8,6.319h-3.069l-3.31-6.057h-1.858V166.3h-2.543V152.009Zm4.522,6.057q0.546,0,1.09-.05a3.333,3.333,0,0,0,1-.243,1.7,1.7,0,0,0,.737-0.586,1.861,1.861,0,0,0,.282-1.1,1.761,1.761,0,0,0-.262-1.009,1.631,1.631,0,0,0-.686-0.576,3.182,3.182,0,0,0-.939-0.252,8.537,8.537,0,0,0-1-.06h-2.2v3.876h1.978Z" transform="translate(-0.533 -0.737)"/>
    <path class="cls-1" d="M410.951,152.009h9.469v2.3h-6.925v3.512h6.561v2.3h-6.561V164h7.289v2.3h-9.832V152.009Z" transform="translate(-0.533 -0.737)"/>
    <path class="cls-1" d="M428.557,152.009h3.371l6.925,10.62h0.04v-10.62h2.543V166.3h-3.23l-7.066-10.963H431.1V166.3h-2.543V152.009Z" transform="translate(-0.533 -0.737)"/>
    <path class="cls-1" d="M459.708,155.361a4.25,4.25,0,0,0-1.524-1.131,4.121,4.121,0,0,0-1.484-.283,4.941,4.941,0,0,0-2.009.394,4.578,4.578,0,0,0-1.545,1.09,4.949,4.949,0,0,0-1,1.625,5.574,5.574,0,0,0-.353,2,6.141,6.141,0,0,0,.353,2.119,4.985,4.985,0,0,0,1,1.676,4.644,4.644,0,0,0,1.545,1.11,4.831,4.831,0,0,0,2.009.4,3.689,3.689,0,0,0,1.686-.414,4.606,4.606,0,0,0,1.524-1.322l2.1,1.493a5.714,5.714,0,0,1-2.362,1.938,7.358,7.358,0,0,1-2.968.606,8.35,8.35,0,0,1-3.038-.535,6.809,6.809,0,0,1-3.947-3.866,7.937,7.937,0,0,1-.565-3.048,8.286,8.286,0,0,1,.565-3.12,7.01,7.01,0,0,1,1.564-2.393,6.88,6.88,0,0,1,2.383-1.524,8.371,8.371,0,0,1,3.038-.534,6.967,6.967,0,0,1,2.7.515,6.29,6.29,0,0,1,2.312,1.746Z" transform="translate(-0.533 -0.737)"/>
    <path class="cls-1" d="M469,152.009h9.469v2.3h-6.925v3.512H478.1v2.3h-6.561V164h7.289v2.3H469V152.009Z" transform="translate(-0.533 -0.737)"/>
  </g>
</svg>
