<svg id="Layer_2" data-name="Layer 2" xmlns="http://www.w3.org/2000/svg" viewBox="0 0 360.932 366.043"><defs><style>.cls-1{fill:none;}.cls-2{fill:#8251a1;}</style></defs><title>Halftone-Gradient-Large-Screen-2-way</title><path class="cls-1" d="M238.727,0a8.371,8.371,0,0,1-.88,1.113h0.8C238.656,0.747,238.678.378,238.727,0Z"/><path class="cls-2" d="M291.566,286.574a8.678,8.678,0,0,1-5.253,11.016,9.282,9.282,0,0,1-5.406.281,7.607,7.607,0,0,1,4.671,4.562,8.171,8.171,0,0,1-.957,7.362,8.266,8.266,0,0,1-4.053,3.144A7.938,7.938,0,0,1,270.44,307.8a7.842,7.842,0,0,1,4.766-10,8.427,8.427,0,0,1,4.838-.207,8.433,8.433,0,0,1-5.125-5.123,8.942,8.942,0,0,1,.9-8,9.129,9.129,0,0,1,4.6-3.527A8.783,8.783,0,0,1,291.566,286.574ZM103.607,239.639a4.77,4.77,0,0,1,2.873-6.025c2.177-.771,4.867.833,5.639,3.01,0.8,2.272-.309,5.117-2.487,5.888A4.707,4.707,0,0,1,103.607,239.639Zm0.186,18.256c-1.8.638-3.989-.719-4.627-2.52a3.72,3.72,0,1,1,7-2.481A3.912,3.912,0,0,1,103.794,257.9ZM93.492,123a5.182,5.182,0,0,1,6.438,3.141,5.284,5.284,0,0,1-2.889,6.879A5.378,5.378,0,0,1,90,129.663,5.3,5.3,0,0,1,93.492,123Zm-5.5-15.525a5.326,5.326,0,0,1-7.046-3.36,5.227,5.227,0,0,1,3.527-6.575,5.1,5.1,0,0,1,6.408,3.056A5.227,5.227,0,0,1,87.993,107.478Zm11.041,4.4a5.324,5.324,0,0,1,10.02-3.549A5.319,5.319,0,1,1,99.034,111.874ZM203.37,168.952a7.437,7.437,0,0,1-4.962-14.007A7.43,7.43,0,0,1,203.37,168.952Zm4.054,11.443a7.678,7.678,0,0,1,9.484,4.523A7.48,7.48,0,1,1,207.424,180.4ZM153.477,164.58a6.638,6.638,0,0,1,4.121-8.493,6.82,6.82,0,0,1,8.463,4.036,6.553,6.553,0,0,1-4.039,8.454A6.4,6.4,0,0,1,153.477,164.58Zm2.706,19.379a5.959,5.959,0,0,1-7.429-3.543,6.041,6.041,0,0,1,3.509-7.524,5.8,5.8,0,0,1,7.566,3.6A5.726,5.726,0,0,1,156.183,183.959Zm10.43-2.422a6.68,6.68,0,0,1,4.461,12.593A6.68,6.68,0,1,1,166.613,181.537Zm4.66-9.1a6.917,6.917,0,0,1,4-8.557,6.664,6.664,0,0,1,8.581,4.1,6.574,6.574,0,0,1-4.124,8.484A6.818,6.818,0,0,1,171.273,172.439Zm4.818-15.869a7.088,7.088,0,0,1,4.656-9.107,7,7,0,0,1,8.974,4.279,7.088,7.088,0,0,1-4.146,9.351A7.17,7.17,0,0,1,176.09,156.57Zm13.672,16.343a7.081,7.081,0,0,1,9.007,4.374,7.233,7.233,0,1,1-13.63,4.828A7.168,7.168,0,0,1,189.762,172.913Zm4.593-29.412c-3.78,1.339-7.92-1.035-9.226-4.72a7.346,7.346,0,0,1,4.231-9.381,7.678,7.678,0,0,1,9.484,4.523A7.775,7.775,0,0,1,194.355,143.5Zm-9.049-25.545a7.353,7.353,0,0,1-9.192-4.626,7,7,0,0,1,4.364-9,7.332,7.332,0,0,1,9.351,4.146A7.685,7.685,0,0,1,185.306,117.957Zm-4.6,8.335a7.094,7.094,0,0,1-4.146,9.351,7.175,7.175,0,0,1-9.484-4.523,7.1,7.1,0,0,1,4.623-9.2A7.012,7.012,0,0,1,180.705,126.291Zm-5.9,16.146a6.656,6.656,0,0,1-4.091,8.578,6.908,6.908,0,0,1-8.493-4.121,6.82,6.82,0,0,1,4.036-8.463A6.576,6.576,0,0,1,174.808,142.437Zm-13.139-16.967a6.818,6.818,0,0,1-8.46-4.026,6.91,6.91,0,0,1,4-8.558,6.658,6.658,0,0,1,8.581,4.1A6.574,6.574,0,0,1,161.669,125.471Zm-4.623,9.2a6.553,6.553,0,0,1-4.039,8.454,6.4,6.4,0,0,1-8.545-4,6.66,6.66,0,0,1,4.087-8.588A6.84,6.84,0,0,1,157.046,134.672Zm-6.265,16.276a5.749,5.749,0,0,1-3.613,7.56,5.87,5.87,0,0,1-3.92-11.066A5.721,5.721,0,0,1,150.781,150.948Zm-8.756,17.689a5.785,5.785,0,0,1-3.509,7.523,5.638,5.638,0,0,1-7.557-3.6,5.867,5.867,0,0,1,3.6-7.557A6.048,6.048,0,0,1,142.025,168.637Zm-12.558-18.021a5.559,5.559,0,0,1-7.523-3.509,5.809,5.809,0,0,1,3.6-7.566,5.981,5.981,0,0,1,7.466,3.646A5.7,5.7,0,0,1,129.467,150.616Zm-2.345,8.713a5.319,5.319,0,0,1-10.02,3.549A5.323,5.323,0,0,1,127.121,159.329Zm2.136,22.562a5.12,5.12,0,1,1-3.107,6.532A5.3,5.3,0,0,1,129.257,181.891Zm9.049,25.545a5.07,5.07,0,1,1-3.141,6.438A5.227,5.227,0,0,1,138.306,207.435Zm1.7-9.334a5.807,5.807,0,0,1,3.6-7.557,5.87,5.87,0,0,1,3.92,11.066A5.785,5.785,0,0,1,140.007,198.1Zm12.652,17.988a5.959,5.959,0,0,1,7.429,3.543,6.048,6.048,0,0,1-3.509,7.524,5.867,5.867,0,0,1-7.557-3.6A5.785,5.785,0,0,1,152.659,216.089Zm5.11-10.223a5.959,5.959,0,0,1,3.543-7.429,5.87,5.87,0,1,1,3.92,11.066A5.979,5.979,0,0,1,157.769,205.867Zm12.558,18.021a5.587,5.587,0,0,1,7.566,3.6,5.8,5.8,0,0,1-3.613,7.56,6.041,6.041,0,0,1-7.463-3.637A5.785,5.785,0,0,1,170.327,223.888Zm1.214-8.312a6.636,6.636,0,0,1,4.124-8.484,6.475,6.475,0,0,1,8.083,4.16c1.172,3.309-.307,7.249-3.625,8.424A6.728,6.728,0,0,1,171.541,215.575Zm8.747-17.686a6.818,6.818,0,0,1,4.039-8.454,6.67,6.67,0,1,1,4.454,12.574A6.838,6.838,0,0,1,180.288,197.89Zm13.088,17.091a6.347,6.347,0,0,1,8.545,4,6.582,6.582,0,0,1-4.121,8.493,6.827,6.827,0,0,1-8.463-4.036A6.552,6.552,0,0,1,193.376,214.981Zm0.779-7.416a7.233,7.233,0,1,1,13.63-4.828A7.233,7.233,0,1,1,194.154,207.565Zm13.538,15.966c3.686-1.306,7.835,1.065,9.141,4.751a7.233,7.233,0,1,1-13.63,4.828A7.5,7.5,0,0,1,207.692,223.531Zm4.163-8.073a7.48,7.48,0,0,1,14.1-5,7.332,7.332,0,0,1-4.656,9.107C217.521,220.909,213.165,219.153,211.856,215.458Zm18.633-.32a7.84,7.84,0,1,1,5.229,14.761A7.83,7.83,0,1,1,230.488,215.138Zm-3.82-10.783a7.83,7.83,0,1,1-5.229-14.761A7.84,7.84,0,1,1,226.668,204.354Zm-8.882-25.073c-4.072,1.442-8.686-1.071-10.129-5.143a7.922,7.922,0,0,1,4.733-10.089,8.012,8.012,0,0,1,10.405,4.727A8.261,8.261,0,0,1,217.787,179.281ZM209.115,153.6a8.261,8.261,0,0,1-10.506-5.01,7.932,7.932,0,0,1,5.143-10.129,7.836,7.836,0,0,1,9.995,4.766C215.19,147.3,213.187,152.16,209.115,153.6Zm-9.015-25.45a8.081,8.081,0,1,1-5.4-15.233A8.084,8.084,0,0,1,200.1,128.152Zm-9.049-25.545a8.025,8.025,0,0,1-10.509-5.019,7.93,7.93,0,0,1,5.147-10.119,7.833,7.833,0,0,1,9.992,4.757A7.94,7.94,0,0,1,191.051,102.608ZM176.254,92.4a7.1,7.1,0,0,1-9.192-4.626,7,7,0,0,1,4.367-8.994,7.33,7.33,0,0,1,9.348,4.136A7.407,7.407,0,0,1,176.254,92.4Zm-4.6,8.335a7.088,7.088,0,0,1-4.146,9.351,7.17,7.17,0,0,1-9.484-4.523,7.08,7.08,0,0,1,4.66-9.1A6.987,6.987,0,0,1,171.653,100.737Zm-13.161-16.1a7.251,7.251,0,0,1-9.518-4.617,7.08,7.08,0,0,1,4.66-9.1,6.987,6.987,0,0,1,8.971,4.27C164.047,79.265,162.178,83.332,158.492,84.638Zm-1.752,6.795a6.428,6.428,0,0,1-4.087,8.588,6.641,6.641,0,0,1-8.5-4.13,6.818,6.818,0,0,1,4.039-8.454A6.574,6.574,0,0,1,156.741,91.432Zm-8.747,17.686a6.555,6.555,0,0,1-4.036,8.463,6.48,6.48,0,1,1-4.324-12.207A6.559,6.559,0,0,1,147.994,109.118Zm-6.228,16.38a5.726,5.726,0,0,1-3.646,7.466,5.959,5.959,0,0,1-7.429-3.543,6.05,6.05,0,0,1,3.506-7.533A5.809,5.809,0,0,1,141.766,125.5ZM129.1,107.513a5.787,5.787,0,0,1-7.466-3.646,5.959,5.959,0,0,1,3.543-7.429,5.726,5.726,0,0,1,7.533,3.506A5.59,5.59,0,0,1,129.1,107.513Zm-5.147,10.119a6.145,6.145,0,0,1-3.372,7.91c-3.309,1.172-6.518-.672-7.694-3.99a5.873,5.873,0,0,1,3.6-7.557A6.055,6.055,0,0,1,123.957,117.632ZM111.536,100c-3.309,1.172-6.485-.578-7.694-3.99a5.785,5.785,0,0,1,3.637-7.463,5.959,5.959,0,0,1,7.429,3.543A6.08,6.08,0,0,1,111.536,100Zm-0.343,30.9a5.236,5.236,0,0,1,6.913,2.983,5.316,5.316,0,1,1-10.02,3.549A5.194,5.194,0,0,1,111.193,130.9Zm0.363,43.1a5.191,5.191,0,0,1,6.442,3.15,5.29,5.29,0,0,1-2.889,6.879,5.383,5.383,0,0,1-7.046-3.36A5.3,5.3,0,0,1,111.556,174Zm9.049,25.545a5.123,5.123,0,0,1,6.441,3.15,4.852,4.852,0,0,1-3.056,6.408c-3.026,1.072-5.841.043-6.879-2.889A5.243,5.243,0,0,1,120.6,199.543Zm3.577,41.964a4.537,4.537,0,0,1,6.025,2.873,4.524,4.524,0,0,1-8.521,3.018A4.517,4.517,0,0,1,124.182,241.507Zm1.945-9.844a5.3,5.3,0,0,1,3.494-6.669,5.121,5.121,0,0,1,3.419,9.652A5.305,5.305,0,0,1,126.126,231.663Zm12.546,18.885a5.065,5.065,0,0,1,3.382,9.549A5.084,5.084,0,1,1,138.672,250.547Zm5.542-11.129a5.319,5.319,0,1,1,10.02-3.549A5.319,5.319,0,0,1,144.214,239.418Zm12.022,18.635a5.3,5.3,0,0,1,7.013,3.266A5.316,5.316,0,1,1,156.236,258.053Zm1.835-8.957a5.807,5.807,0,0,1,3.6-7.557,5.87,5.87,0,0,1,3.92,11.066A5.779,5.779,0,0,1,158.071,249.1Zm12.652,17.988a5.961,5.961,0,0,1,7.433,3.552,6.039,6.039,0,0,1-3.513,7.514,5.858,5.858,0,0,1-7.554-3.594A5.787,5.787,0,0,1,170.723,267.085Zm5.11-10.223a5.7,5.7,0,0,1,3.543-7.429c3.412-1.209,6.361.2,7.533,3.506a5.744,5.744,0,0,1-3.613,7.56A5.972,5.972,0,0,1,175.833,256.862Zm4.757-15.742a6.72,6.72,0,0,1,4.091-8.578c3.318-1.175,6.944.946,8.116,4.254a6.484,6.484,0,0,1-3.659,8.33A6.645,6.645,0,0,1,180.59,241.12Zm13.139,16.967a6.477,6.477,0,0,1,8.086,4.169c1.172,3.309-.311,7.239-3.629,8.415a6.72,6.72,0,0,1-8.578-4.091A6.638,6.638,0,0,1,193.729,258.087Zm4.623-9.2a6.675,6.675,0,0,1,12.584-4.458A6.675,6.675,0,1,1,198.352,248.885Zm13.088,17.091a6.573,6.573,0,0,1,8.545,4A6.675,6.675,0,0,1,207.4,274.43,6.552,6.552,0,0,1,211.44,265.976Zm0.782-7.406a7.233,7.233,0,1,1,9.481,4.513A7.407,7.407,0,0,1,212.222,258.57Zm8.649-17.662a7.48,7.48,0,0,1,14.1-5A7.489,7.489,0,0,1,220.871,240.908Zm13.666,16.027a7.414,7.414,0,0,1,9.484,4.523,7.332,7.332,0,0,1-4.656,9.107c-3.78,1.339-8.136-.417-9.445-4.112A7.442,7.442,0,0,1,234.537,256.935Zm8.615,24.319A7.082,7.082,0,0,1,252.5,285.4a7.279,7.279,0,1,1-13.715,4.858A7,7,0,0,1,243.151,281.254Zm14.259,8.688a7.931,7.931,0,0,1,10.129,5.143,7.836,7.836,0,0,1-4.766,10,7.932,7.932,0,0,1-10.372-4.633A8.016,8.016,0,0,1,257.41,289.942Zm-3.653-10.312A7.931,7.931,0,0,1,243.385,275a7.836,7.836,0,0,1,4.766-10,7.931,7.931,0,0,1,10.372,4.633A7.836,7.836,0,0,1,253.757,279.63Zm-9.025-24.28a7.833,7.833,0,0,1-9.992-4.757c-1.442-4.072.561-8.93,4.633-10.372a8.261,8.261,0,0,1,10.506,5.01A7.93,7.93,0,0,1,244.732,255.349Zm-9.887-48.036c-1.439-4.063.57-8.933,4.633-10.372a7.459,7.459,0,0,1,4.979.04,8.519,8.519,0,0,1,5.15,5.1A7.83,7.83,0,0,1,234.846,207.314Zm0.98-20.684a7.928,7.928,0,0,1-10.028-4.86c-1.442-4.072.57-8.933,4.633-10.372a7.459,7.459,0,0,1,4.979.04,8.488,8.488,0,0,1,5.15,5.1,7.99,7.99,0,0,1-.852,7.028A7.663,7.663,0,0,1,235.826,186.63Zm-9.049-25.545a7.83,7.83,0,1,1-5.229-14.761A7.83,7.83,0,0,1,226.777,161.085Zm-9.049-25.545a7.83,7.83,0,1,1-5.229-14.761A7.83,7.83,0,0,1,217.728,135.54Zm-8.882-25.073c-4.063,1.439-8.69-1.081-10.129-5.143a7.83,7.83,0,1,1,14.761-5.229,8.519,8.519,0,0,1-.789,7.207A7.459,7.459,0,0,1,208.847,110.467Zm-9.052-25.554a7.938,7.938,0,0,1-10.129-5.143,7.83,7.83,0,0,1,14.761-5.229,8.248,8.248,0,0,1-.752,7.311A7.6,7.6,0,0,1,199.795,84.913Zm-9.015-25.45a7.938,7.938,0,0,1-10.129-5.143,7.83,7.83,0,0,1,14.761-5.229,8.248,8.248,0,0,1-.752,7.311A7.6,7.6,0,0,1,190.779,59.462Zm-4.148,7.219a8.036,8.036,0,1,1-15.138,5.362,7.93,7.93,0,0,1,5.147-10.119A7.834,7.834,0,0,1,186.632,66.681Zm-19.393.271a7.277,7.277,0,0,1-4.858-13.715A7.277,7.277,0,1,1,167.239,66.952ZM158.19,41.407A7.1,7.1,0,0,1,149,36.781a7,7,0,0,1,4.367-8.995,7.33,7.33,0,0,1,9.348,4.136A7.407,7.407,0,0,1,158.19,41.407Zm-4.464,8.721a6.987,6.987,0,0,1-4.283,8.964,7.08,7.08,0,0,1-9.348-4.136,7.17,7.17,0,0,1,4.523-9.484A7.088,7.088,0,0,1,153.726,50.128Zm-6,15.854a6.349,6.349,0,0,1-4.121,8.493,6.555,6.555,0,0,1-8.463-4.036,6.908,6.908,0,0,1,4.006-8.548A6.656,6.656,0,0,1,147.725,65.982Zm-8.78,17.591a6.578,6.578,0,0,1-4,8.557,6.428,6.428,0,0,1-8.582-4.1c-1.172-3.309.572-6.8,4.258-8.107A6.476,6.476,0,0,1,138.945,83.573ZM125.894,66.586c-3.686,1.306-7.239-.311-8.411-3.619a6.484,6.484,0,0,1,4.087-8.588,6.641,6.641,0,0,1,8.5,4.13A6.476,6.476,0,0,1,125.894,66.586Zm-2.2,7.907c1.175,3.318-.231,6.267-3.643,7.475a5.7,5.7,0,0,1-7.433-3.552,6.048,6.048,0,0,1,3.509-7.524A5.807,5.807,0,0,1,123.7,74.493ZM111.17,56.886a6.136,6.136,0,0,1-7.6-4.014,5.959,5.959,0,0,1,3.543-7.429,5.727,5.727,0,0,1,7.533,3.506C115.825,52.266,114.582,55.677,111.17,56.886Zm-5.14,10.138a5.959,5.959,0,0,1-3.543,7.429,5.785,5.785,0,0,1-7.524-3.509c-1.175-3.318.158-6.771,3.467-7.943A6.145,6.145,0,0,1,106.03,67.024Zm-5.991,15.85a5.316,5.316,0,1,1-10.02,3.549A5.319,5.319,0,0,1,100.039,82.874ZM87.63,64.376a5.361,5.361,0,0,1-6.66-3.5,5.319,5.319,0,0,1,10.02-3.549A5.383,5.383,0,0,1,87.63,64.376ZM82,75.535a5.189,5.189,0,0,1-3.026,6.493,5.3,5.3,0,0,1-6.909-2.974A5.386,5.386,0,0,1,75.425,72,5.293,5.293,0,0,1,82,75.535ZM69.929,56.483A5.243,5.243,0,0,1,63.016,53.5a5.3,5.3,0,0,1,3.393-6.952,5.2,5.2,0,0,1,6.542,3.433A5.123,5.123,0,0,1,69.929,56.483ZM66.963,65.84a4.524,4.524,0,1,1-8.521,3.018A4.524,4.524,0,0,1,66.963,65.84ZM70.12,88.889a4.4,4.4,0,0,1,5.892,2.5A4.524,4.524,0,1,1,67.49,94.4,4.353,4.353,0,0,1,70.12,88.889Zm9.019,25.46a4.519,4.519,0,1,1-2.633,5.505A4.454,4.454,0,0,1,79.139,114.349Zm9.049,25.545a4.4,4.4,0,0,1,5.892,2.5,4.524,4.524,0,1,1-8.521,3.018A4.353,4.353,0,0,1,88.187,139.894Zm8.882,25.073a4.777,4.777,0,0,1,6.025,2.873,4.524,4.524,0,1,1-8.521,3.018C93.8,168.681,94.892,165.738,97.069,164.967Zm1.978-9.75a5.243,5.243,0,0,1,3.494-6.669,5.123,5.123,0,0,1,6.441,3.15,5.2,5.2,0,0,1-2.922,6.785A5.3,5.3,0,0,1,99.047,155.217Zm7.071,35.295a4.713,4.713,0,0,1,6.025,2.873,4.777,4.777,0,0,1-2.873,6.025c-2.177.771-4.877-.829-5.648-3.007C102.817,194.132,103.94,191.283,106.118,190.512Zm9.049,25.545a4.457,4.457,0,0,1,5.992,2.779A4.521,4.521,0,1,1,115.167,216.056Zm0.363,43.1c2.177-.771,4.837.748,5.639,3.01,0.771,2.177-.309,5.117-2.487,5.888a4.77,4.77,0,0,1-6.025-2.873A4.713,4.713,0,0,1,115.529,259.159Zm9.019,25.46a4.509,4.509,0,0,1,5.639,3.01,4.343,4.343,0,0,1-2.624,5.5,4.388,4.388,0,0,1-5.888-2.487A4.531,4.531,0,0,1,124.548,284.619Zm8.686-17.558a4.45,4.45,0,0,1,5.988,2.769A4.521,4.521,0,1,1,133.234,267.061Zm9.015,25.45a4.534,4.534,0,0,1,6.022,2.864,4.524,4.524,0,0,1-8.521,3.018A4.514,4.514,0,0,1,142.249,292.511Zm1.945-9.844c-1.042-2.941.465-5.607,3.49-6.679a4.938,4.938,0,0,1,6.445,3.159,5.121,5.121,0,0,1-3.026,6.493A5.241,5.241,0,0,1,144.194,282.667ZM156.332,300.4a5.191,5.191,0,0,1,6.441,3.15,5.1,5.1,0,0,1-3.056,6.408,5.227,5.227,0,0,1-6.879-2.889A5.3,5.3,0,0,1,156.332,300.4Zm5.946-9.989a5.319,5.319,0,1,1,10.02-3.549A5.319,5.319,0,0,1,162.278,290.413Zm11.622,17.5a5.227,5.227,0,0,1,6.879,2.889,5.319,5.319,0,1,1-10.02,3.549A5.182,5.182,0,0,1,173.9,307.917Zm1.835-8.957a5.867,5.867,0,0,1,3.6-7.557,6.048,6.048,0,0,1,7.463,3.637,5.959,5.959,0,0,1-3.543,7.429A5.785,5.785,0,0,1,175.734,298.961Zm9.147-16.554a5.785,5.785,0,0,1,3.509-7.523,5.587,5.587,0,0,1,7.566,3.6,5.809,5.809,0,0,1-3.61,7.57A6.05,6.05,0,0,1,184.882,282.406Zm12.024,16.513a6.08,6.08,0,0,1,7.91,3.372,6.175,6.175,0,0,1-3.857,8.071,6.077,6.077,0,0,1-7.6-4.014A5.959,5.959,0,0,1,196.906,298.919Zm1.348-7.935a6.636,6.636,0,0,1,4.124-8.484,6.62,6.62,0,1,1,4.421,12.48A6.636,6.636,0,0,1,198.253,290.984Zm13.139,16.967a6.552,6.552,0,0,1,8.46,4.026,6.91,6.91,0,0,1-4,8.558,6.722,6.722,0,0,1-8.582-4.1A6.4,6.4,0,0,1,211.392,307.951Zm4.489-9.579a6.484,6.484,0,0,1,4.169-8.086c3.78-1.339,7.243.32,8.415,3.629a6.375,6.375,0,0,1-4.087,8.588A6.578,6.578,0,0,1,215.882,298.372Zm4.985-15.4a7.233,7.233,0,1,1,13.63-4.828,6.989,6.989,0,0,1-4.279,8.974A7.082,7.082,0,0,1,220.866,282.974Zm13.541,15.975a7.085,7.085,0,0,1,9.1,4.647,6.989,6.989,0,0,1-4.279,8.974,7.082,7.082,0,0,1-9.351-4.146A7.167,7.167,0,0,1,234.408,298.949Zm9.015,25.45c3.686-1.306,7.7.678,9.137,4.741a6.989,6.989,0,0,1-4.279,8.974,7.082,7.082,0,0,1-9.351-4.146A7.249,7.249,0,0,1,243.423,324.4Zm4.413-8.6a7,7,0,0,1,4.364-9,7.082,7.082,0,0,1,9.351,4.146A7.277,7.277,0,1,1,247.836,315.8Zm18.623-.316a7.931,7.931,0,0,1,10.129,5.143,7.836,7.836,0,0,1-4.766,9.995,7.931,7.931,0,0,1-10.372-4.633A8.016,8.016,0,0,1,266.459,315.486ZM279.525,257.1a8.324,8.324,0,0,1,3.07,9.415,9.08,9.08,0,0,1-5.674,5.755,8.373,8.373,0,0,1-4.486.305,7.648,7.648,0,0,1,4.094,4.31,8.18,8.18,0,0,1-.984,7.4,8.3,8.3,0,0,1-4.025,3.1,8.032,8.032,0,0,1-5.362-15.138,8.245,8.245,0,0,1,4.362-.293,8.623,8.623,0,0,1-4.615-4.943,9.324,9.324,0,0,1,.042-5.871,9.482,9.482,0,0,1-3.038,1.936,7.851,7.851,0,0,1-10-4.776,7.944,7.944,0,0,1,4.633-10.372,7.6,7.6,0,0,1,5.305.062,8.3,8.3,0,0,1,4.823,5.081,6.14,6.14,0,0,1,.058,4.987A13.755,13.755,0,0,1,271.157,256,9.051,9.051,0,0,1,279.525,257.1Zm-5.619-20.384a8.789,8.789,0,0,1-5.63,11.15,8.587,8.587,0,0,1-5.419.095,8.636,8.636,0,0,1-.347-16.374A8.791,8.791,0,0,1,273.906,236.719Zm-9.019-25.46a8.46,8.46,0,0,1-.613,6.985,9.173,9.173,0,0,1-5.014,4.174,8.586,8.586,0,0,1-5.324.125,8.332,8.332,0,0,1,4.686,4.992,7.99,7.99,0,0,1-.852,7.028,7.663,7.663,0,0,1-3.88,3.061,8.084,8.084,0,0,1-5.4-15.233,7.459,7.459,0,0,1,4.739-.1,8.633,8.633,0,0,1,.261-16.154A8.782,8.782,0,0,1,264.887,211.259Zm-9.049-25.545a8.42,8.42,0,0,1-.078,5.831,9.12,9.12,0,0,1-5.553,5.319,8.63,8.63,0,0,1-5.763-16.269A8.783,8.783,0,0,1,255.839,185.715Zm-9.015-25.45a8.414,8.414,0,0,1-.091,5.793,9.119,9.119,0,0,1-5.539,5.357,8.507,8.507,0,0,1-5.757-.051,8.612,8.612,0,0,1-.006-16.219A8.783,8.783,0,0,1,246.823,160.264Zm-9.049-25.545a8.394,8.394,0,0,1-.081,5.821,9.1,9.1,0,0,1-5.549,5.329,8.63,8.63,0,0,1-5.763-16.269A8.783,8.783,0,0,1,237.775,134.72Zm-9.015-25.45a8.176,8.176,0,0,1-.6,7.023,9.38,9.38,0,0,1-5.064,4.032,8.844,8.844,0,0,1-5.592.146,8.336,8.336,0,0,1-5.391-5.3,8.675,8.675,0,0,1,5.253-11.016A8.782,8.782,0,0,1,228.759,109.269Zm-9.052-25.554a9.12,9.12,0,0,1,.167,5.744,8.917,8.917,0,0,1-5.661,5.793,8.42,8.42,0,0,1-5.429.067,9.1,9.1,0,0,1-5.724-5.706A8.684,8.684,0,0,1,208.318,78.6,8.781,8.781,0,0,1,219.707,83.715ZM210.659,58.17a9.112,9.112,0,0,1,.164,5.734,8.9,8.9,0,0,1-5.657,5.8,8.42,8.42,0,0,1-5.429.067,9.116,9.116,0,0,1-5.724-5.706A8.686,8.686,0,0,1,199.3,53.145,8.772,8.772,0,0,1,210.659,58.17ZM201.78,33.106a8.394,8.394,0,0,1-.081,5.821,9.12,9.12,0,0,1-5.553,5.319A8.671,8.671,0,0,1,185.134,39a9.1,9.1,0,0,1,.856-8.037A8.42,8.42,0,0,1,190.25,27.6,8.868,8.868,0,0,1,201.78,33.106ZM176.368,18.779a8.416,8.416,0,0,1,4.457-.3,8.651,8.651,0,0,1-4.743-5.035,8.51,8.51,0,0,1,.946-7.751,8.731,8.731,0,0,1,4.307-3.266c4.826-1.71,9.717.388,11.393,5.12a8.4,8.4,0,0,1-.078,5.831A9.12,9.12,0,0,1,187.1,18.7a8.556,8.556,0,0,1-4.6.3,7.623,7.623,0,0,1,4.245,4.406,8.148,8.148,0,0,1-.988,7.394,8.241,8.241,0,0,1-4.022,3.111A7.938,7.938,0,0,1,171.6,28.774,7.842,7.842,0,0,1,176.368,18.779Zm1.385,22.838a7.834,7.834,0,0,1-4.769,9.986,7.93,7.93,0,0,1-10.369-4.623,8.025,8.025,0,0,1,5.006-10.515A7.94,7.94,0,0,1,177.753,41.617Zm-19.181-30.7A7.932,7.932,0,0,1,168.7,16.063a7.836,7.836,0,0,1-4.766,10,7.931,7.931,0,0,1-10.372-4.633A8.016,8.016,0,0,1,158.573,10.92ZM144.317,2.242a7.492,7.492,0,0,1,9.515,4.608,7.332,7.332,0,0,1-4.656,9.107,7,7,0,0,1-9.059-4.249A7.183,7.183,0,0,1,144.317,2.242ZM135.57,19.928a7.085,7.085,0,0,1,9.1,4.647,7.074,7.074,0,0,1-4.246,9.068A7.277,7.277,0,1,1,135.57,19.928Zm3.107,20.51a6.428,6.428,0,0,1-4.087,8.588,6.641,6.641,0,0,1-8.5-4.13,6.476,6.476,0,0,1,4.173-8.077C134.045,35.479,137.5,37.129,138.677,40.437Zm-17.46-29.164a6.42,6.42,0,0,1,8.578,4.091c1.172,3.309-.474,6.777-4.254,8.116a6.484,6.484,0,0,1-8.33-3.659A6.632,6.632,0,0,1,121.217,11.273Zm-0.2,21.682a6.91,6.91,0,0,1-4,8.558,6.722,6.722,0,0,1-8.581-4.1,6.4,6.4,0,0,1,4.124-8.484A6.553,6.553,0,0,1,121.015,32.955ZM103.506,3.384c3.318-1.175,6.944.946,8.116,4.254a6.484,6.484,0,0,1-3.659,8.33,6.645,6.645,0,0,1-8.548-4.006A6.72,6.72,0,0,1,103.506,3.384ZM98.068,19.9c3.412-1.209,6.495.574,7.7,3.977a5.727,5.727,0,0,1-3.646,7.466A5.959,5.959,0,0,1,94.692,27.8,6.077,6.077,0,0,1,98.068,19.9ZM96.978,41.47A5.981,5.981,0,0,1,93.472,49a5.809,5.809,0,0,1-7.56-3.613,5.559,5.559,0,0,1,3.637-7.463A5.7,5.7,0,0,1,96.978,41.47ZM80.5,12.382a6.048,6.048,0,0,1,7.463,3.637,5.968,5.968,0,0,1-3.539,7.439A5.793,5.793,0,0,1,76.9,19.939,5.867,5.867,0,0,1,80.5,12.382Zm1.608,19.874a5.323,5.323,0,0,1-10.02,3.549A5.319,5.319,0,1,1,82.108,32.256ZM66.417,4.492A5.375,5.375,0,0,1,73.46,7.842a5.319,5.319,0,0,1-10.02,3.549A5.352,5.352,0,0,1,66.417,4.492ZM57.494,21.38a4.935,4.935,0,0,1,6.441,3.15,5.191,5.191,0,0,1-3.022,6.5A5.3,5.3,0,0,1,54,28.05C52.962,25.118,54.469,22.452,57.494,21.38ZM52.056,37.894a4.524,4.524,0,1,1,3.018,8.521A4.524,4.524,0,0,1,52.056,37.894Zm-8.645-24.4A4.52,4.52,0,1,1,46.427,22,4.519,4.519,0,0,1,43.411,13.49ZM25.71,5.6a4.5,4.5,0,0,1,5.635,3,4.519,4.519,0,0,1-8.512,3.015A4.523,4.523,0,0,1,25.71,5.6Zm8.334,43.684a3.483,3.483,0,0,1-2.137,4.481,3.721,3.721,0,1,1-2.481-7C31.322,46.087,33.24,47.01,34.045,49.281ZM5.215,22.013A4.3,4.3,0,0,1,.221,19.623,3.965,3.965,0,0,1,7.7,16.975,4.312,4.312,0,0,1,5.215,22.013Zm8.648,24.414a3.987,3.987,0,0,1-4.995-2.389,3.684,3.684,0,0,1,2.38-4.991,3.934,3.934,0,0,1,5.095,2.343A4.312,4.312,0,0,1,13.863,46.426Zm9.015,25.45a4.214,4.214,0,0,1-4.995-2.389,3.965,3.965,0,0,1,7.475-2.648A4.23,4.23,0,0,1,22.878,71.877Zm0.385-42.519a3.721,3.721,0,1,1-2.481-7c1.895-.671,3.809.242,4.614,2.514A3.491,3.491,0,0,1,23.264,29.358Zm8.53,67.686a3.72,3.72,0,1,1-2.481-7,3.936,3.936,0,0,1,5.1,2.353C35.045,94.185,33.688,96.373,31.794,97.044ZM31.482,36.027a4.519,4.519,0,1,1,8.512-3.015A4.519,4.519,0,0,1,31.482,36.027ZM42.926,74.355c0.8,2.272-.1,4.2-2,4.867a3.721,3.721,0,1,1-2.481-7A3.483,3.483,0,0,1,42.926,74.355Zm-2.084,48.234a3.773,3.773,0,0,1-5.028-2.484,3.664,3.664,0,0,1,2.514-4.614c1.895-.671,4.327.175,4.961,1.966A4.03,4.03,0,0,1,40.842,122.589ZM40.5,61.477a4.52,4.52,0,1,1,8.512-3.015,4.345,4.345,0,0,1-2.62,5.511A4.39,4.39,0,0,1,40.5,61.477ZM51.975,99.9a3.721,3.721,0,1,1-7,2.481A3.72,3.72,0,1,1,51.975,99.9Zm-2.118,48.14a3.746,3.746,0,0,1-4.995-2.39,3.6,3.6,0,0,1,2.514-4.614c1.895-.671,4.293.081,4.961,1.966A4.009,4.009,0,0,1,49.858,148.039ZM49.549,87.031a4.52,4.52,0,1,1,8.512-3.015A4.52,4.52,0,0,1,49.549,87.031ZM60.99,125.35a3.721,3.721,0,1,1-7,2.481c-0.638-1.8.212-4.223,2.012-4.861A3.9,3.9,0,0,1,60.99,125.35Zm-2.084,48.234a3.743,3.743,0,0,1-4.991-2.38,4.008,4.008,0,0,1,2.343-5.095,4.323,4.323,0,0,1,5.132,2.447A4.007,4.007,0,0,1,58.906,173.584ZM58.428,112.1a4.52,4.52,0,1,1,6.025,2.873A4.442,4.442,0,0,1,58.428,112.1ZM70.043,150.9a3.72,3.72,0,1,1-7,2.481A3.721,3.721,0,1,1,70.043,150.9Zm-2.121,48.13a3.684,3.684,0,0,1-4.991-2.38,3.978,3.978,0,0,1,2.38-4.991,4.3,4.3,0,0,1,5.095,2.343A3.934,3.934,0,0,1,67.921,199.035ZM67.476,137.64a4.52,4.52,0,0,1,8.512-3.015A4.52,4.52,0,1,1,67.476,137.64Zm11.582,38.715a3.72,3.72,0,1,1-7,2.481c-0.638-1.8.209-4.233,2.009-4.87A3.912,3.912,0,0,1,79.058,176.355Zm-2.084,48.234a3.746,3.746,0,0,1-4.995-2.389,3.914,3.914,0,0,1,2.38-4.991,4.221,4.221,0,0,1,5.095,2.343A4.009,4.009,0,0,1,76.973,224.589Zm-0.445-61.395a4.39,4.39,0,0,1,3.007-5.648,4.345,4.345,0,0,1,5.505,2.633A4.516,4.516,0,1,1,76.528,163.194ZM88.106,201.9a3.9,3.9,0,0,1-2.38,4.991c-1.8.638-3.986-.71-4.624-2.51A3.721,3.721,0,1,1,88.106,201.9Zm-2.118,48.14a3.922,3.922,0,0,1-4.995-2.389,3.978,3.978,0,0,1,2.38-4.991A4.3,4.3,0,0,1,88.469,245,4.23,4.23,0,0,1,85.989,250.039Zm-0.445-61.395a4.519,4.519,0,0,1,8.512-3.015A4.519,4.519,0,1,1,85.543,188.644ZM97.122,227.35a3.72,3.72,0,1,1-7,2.481A3.721,3.721,0,1,1,97.122,227.35Zm-2.084,48.234a3.987,3.987,0,0,1-4.995-2.39,3.914,3.914,0,0,1,2.38-4.991,4.221,4.221,0,0,1,5.095,2.343A4.312,4.312,0,0,1,95.037,275.584Zm-0.445-61.395a4.39,4.39,0,0,1,3.007-5.648,4.345,4.345,0,0,1,5.505,2.633A4.516,4.516,0,1,1,94.592,214.189Zm9.461,86.845a3.92,3.92,0,0,1-4.991-2.38,3.746,3.746,0,0,1,2.377-5,4.009,4.009,0,0,1,5.1,2.353A4.229,4.229,0,0,1,104.053,301.034Zm8.648,24.414a4.3,4.3,0,0,1-4.995-2.389,3.914,3.914,0,0,1,2.38-4.991,4.221,4.221,0,0,1,5.095,2.343A4.312,4.312,0,0,1,112.7,325.448Zm0.142-42.008c-1.8.638-3.989-.719-4.66-2.614a3.72,3.72,0,1,1,7-2.481A3.935,3.935,0,0,1,112.842,283.44Zm8.74,67.082a3.855,3.855,0,0,1-4.861-2.012,3.965,3.965,0,0,1,7.475-2.648C124.868,347.756,123.477,349.85,121.582,350.521Zm0.142-42.008a3.5,3.5,0,0,1-4.493-2.143,3.72,3.72,0,1,1,7-2.481C124.906,305.784,124,307.708,121.724,308.513Zm9.025,24.28a3.775,3.775,0,0,1-5.037-2.48,3.661,3.661,0,0,1,2.523-4.617,3.483,3.483,0,0,1,4.481,2.137C133.52,330.1,132.644,332.122,130.749,332.793Zm-0.43-17.745a4.761,4.761,0,0,1,2.876-6.016c2.177-.771,4.864.823,5.635,3A4.519,4.519,0,0,1,130.319,315.048Zm9.442,43.186a3.74,3.74,0,0,1-5-2.377,3.6,3.6,0,0,1,2.523-4.617,3.422,3.422,0,0,1,4.481,2.137A3.592,3.592,0,0,1,139.761,358.234Zm5.465-15.24a4.646,4.646,0,0,1-5.892-2.5,4.665,4.665,0,1,1,8.795-3.115A4.611,4.611,0,0,1,145.226,342.995Zm9.03-17.786a4.537,4.537,0,0,1-6.025-2.873,4.44,4.44,0,0,1,3.04-5.554,4.269,4.269,0,0,1,5.481,2.535A4.4,4.4,0,0,1,154.256,325.209Zm9.049,25.545a4.594,4.594,0,0,1-6.025-2.873,4.517,4.517,0,0,1,3.007-5.648,4.353,4.353,0,0,1,5.515,2.63A4.454,4.454,0,0,1,163.3,350.754Zm5.462-15.249a4.956,4.956,0,0,1-6.536-3.117c-1.038-2.931-.043-5.841,2.983-6.913A5.29,5.29,0,0,1,171.789,329,5.191,5.191,0,0,1,168.766,335.5Zm9.015,25.45a4.877,4.877,0,0,1-6.5-3.022c-1.072-3.026-.043-5.841,2.983-6.913a5.227,5.227,0,0,1,6.575,3.527A5.1,5.1,0,0,1,177.782,360.955Zm8.686-17.558a5.361,5.361,0,0,1-6.66-3.5,5.319,5.319,0,0,1,10.02-3.549A5.383,5.383,0,0,1,186.468,343.4Zm-1.718-18.986a5.638,5.638,0,0,1,3.6-7.557,5.785,5.785,0,0,1,7.463,3.637,6.041,6.041,0,0,1-3.509,7.524A5.861,5.861,0,0,1,184.75,324.411Zm16.576,29.063a5.787,5.787,0,0,1-7.527-3.519c-1.205-3.4.161-6.762,3.47-7.934a6.077,6.077,0,0,1,7.6,4.014A5.961,5.961,0,0,1,201.325,353.475Zm1.086-21.581a6.048,6.048,0,0,1,3.509-7.524,6.075,6.075,0,1,1,4.054,11.443A6.05,6.05,0,0,1,202.412,331.893Zm16.478,29.087a5.7,5.7,0,0,1-7.429-3.543,5.979,5.979,0,0,1,3.509-7.524,5.749,5.749,0,0,1,7.566,3.6C223.708,356.823,222.3,359.772,218.889,360.981Zm5.842-15.373c-3.686,1.306-7.239-.311-8.415-3.629a6.481,6.481,0,0,1,4.091-8.578,6.638,6.638,0,0,1,8.493,4.121A6.477,6.477,0,0,1,224.732,345.608Zm0.2-21.691a6.476,6.476,0,0,1,4.173-8.077c3.78-1.339,7.239.311,8.411,3.619a6.354,6.354,0,0,1-4.121,8.493A6.561,6.561,0,0,1,224.93,323.917Zm17.512,29.58a6.555,6.555,0,0,1-8.463-4.036,6.838,6.838,0,0,1,4.006-8.548A6.6,6.6,0,0,1,246.563,345,6.349,6.349,0,0,1,242.442,353.5ZM257.3,363.565a7.17,7.17,0,0,1-9.484-4.523,7.08,7.08,0,0,1,4.66-9.1,6.987,6.987,0,0,1,8.97,4.27A7.088,7.088,0,0,1,257.3,363.565Zm8.78-17.591a7.159,7.159,0,0,1-9.192-4.626,7.023,7.023,0,0,1,4.334-9.089,7.1,7.1,0,0,1,9.381,4.231A7.227,7.227,0,0,1,266.077,345.974Zm14.76,10.1a8.032,8.032,0,1,1-5.362-15.138,7.842,7.842,0,0,1,9.995,4.766A7.931,7.931,0,0,1,280.837,356.075Zm-1.349-22.734a7.935,7.935,0,0,1,4.733-10.089,8.2,8.2,0,0,1,4.445-.27,8.47,8.47,0,0,1-4.7-4.966,8.931,8.931,0,0,1,.938-8.045,9.111,9.111,0,0,1,4.559-3.482,8.789,8.789,0,0,1,11.15,5.63,8.694,8.694,0,0,1-5.25,11.026,9.356,9.356,0,0,1-5.1.351,7.722,7.722,0,0,1,4.357,4.483,8.32,8.32,0,0,1-5.01,10.506A8,8,0,0,1,279.488,333.341Zm30.2,9.576a8.481,8.481,0,0,1-5.309,5.678,9.1,9.1,0,0,1-5.534.22,7.7,7.7,0,0,1,4.8,4.623,8.389,8.389,0,0,1-1.028,7.281,8.082,8.082,0,0,1-3.985,3.215c-4.063,1.439-8.686-1.071-10.125-5.134a7.851,7.851,0,0,1,4.763-10,8.412,8.412,0,0,1,4.969-.169,8.987,8.987,0,0,1-5.389-5.539,8.524,8.524,0,0,1,.99-7.6,9.288,9.288,0,0,1,4.64-3.553,8.7,8.7,0,0,1,11.016,5.253A9.294,9.294,0,0,1,309.689,342.916Z"/><path class="cls-2" d="M288.666,322.982a8.929,8.929,0,0,0,1.6.514A8.316,8.316,0,0,0,288.666,322.982Z"/><path class="cls-2" d="M180.825,18.484a8.757,8.757,0,0,0,1.648.52A8.318,8.318,0,0,0,180.825,18.484Z"/><path class="cls-2" d="M272.435,272.578a9.145,9.145,0,0,0-1.916-.616A8.254,8.254,0,0,0,272.435,272.578Z"/><path class="cls-2" d="M210.837,286.526a6.818,6.818,0,0,0-8.46-4.026,6.621,6.621,0,1,0,4.421,12.48A6.818,6.818,0,0,0,210.837,286.526Z"/><path class="cls-2" d="M183.258,302.47a5.959,5.959,0,0,0,3.543-7.429,6.048,6.048,0,0,0-7.463-3.637,5.867,5.867,0,0,0-3.6,7.557A5.785,5.785,0,0,0,183.258,302.47Z"/><path class="cls-2" d="M159.718,309.96a5.1,5.1,0,0,0,3.056-6.408,5.191,5.191,0,0,0-6.441-3.15,5.3,5.3,0,0,0-3.494,6.669A5.227,5.227,0,0,0,159.718,309.96Z"/><path class="cls-2" d="M138.831,312.033c-0.771-2.177-3.458-3.772-5.635-3a4.761,4.761,0,0,0-2.876,6.016A4.519,4.519,0,0,0,138.831,312.033Z"/><path class="cls-2" d="M110.086,318.067a3.914,3.914,0,0,0-2.38,4.991,3.965,3.965,0,0,0,7.475-2.648A4.221,4.221,0,0,0,110.086,318.067Z"/><path class="cls-2" d="M266.157,272.256a8.032,8.032,0,0,0,5.362,15.138,8.3,8.3,0,0,0,4.025-3.1,8.18,8.18,0,0,0,.984-7.4,7.648,7.648,0,0,0-4.094-4.31,8.254,8.254,0,0,1-1.916-.616A8.245,8.245,0,0,0,266.157,272.256Z"/><path class="cls-2" d="M248.013,294.979A7.251,7.251,0,0,0,252.5,285.4a7.082,7.082,0,0,0-9.351-4.146,7,7,0,0,0-4.364,9A7.186,7.186,0,0,0,248.013,294.979Z"/><path class="cls-2" d="M224.378,302.5a6.375,6.375,0,0,0,4.087-8.588c-1.172-3.309-4.635-4.968-8.415-3.629a6.484,6.484,0,0,0-4.169,8.086A6.578,6.578,0,0,0,224.378,302.5Z"/><path class="cls-2" d="M200.959,310.363a6.175,6.175,0,0,0,3.857-8.071,6.08,6.08,0,0,0-7.91-3.372,5.959,5.959,0,0,0-3.543,7.429A6.077,6.077,0,0,0,200.959,310.363Z"/><path class="cls-2" d="M177.419,317.853a5.326,5.326,0,0,0,3.36-7.046,5.323,5.323,0,0,0-10.02,3.549A5.3,5.3,0,0,0,177.419,317.853Z"/><path class="cls-2" d="M156.752,319.317a4.269,4.269,0,0,0-5.481-2.535,4.44,4.44,0,0,0-3.04,5.554,4.537,4.537,0,0,0,6.025,2.873A4.4,4.4,0,0,0,156.752,319.317Z"/><path class="cls-2" d="M128.235,325.7a3.661,3.661,0,0,0-2.523,4.617,3.775,3.775,0,0,0,5.037,2.48c1.895-.671,2.771-2.69,1.966-4.961A3.483,3.483,0,0,0,128.235,325.7Z"/><path class="cls-2" d="M280.416,280.944a9.129,9.129,0,0,0-4.6,3.527,8.942,8.942,0,0,0-.9,8,8.433,8.433,0,0,0,5.125,5.123,8.427,8.427,0,0,0-4.838.207,7.842,7.842,0,0,0-4.766,10,7.938,7.938,0,0,0,10.129,5.143,8.266,8.266,0,0,0,4.053-3.144,8.171,8.171,0,0,0,.957-7.362,7.607,7.607,0,0,0-4.671-4.562,9.282,9.282,0,0,0,5.406-.281,8.678,8.678,0,0,0,5.253-11.016A8.783,8.783,0,0,0,280.416,280.944Z"/><path class="cls-2" d="M262.773,305.08a7.836,7.836,0,0,0,4.766-10,7.931,7.931,0,0,0-10.129-5.143,8.016,8.016,0,0,0-5.01,10.506A7.932,7.932,0,0,0,262.773,305.08Z"/><path class="cls-2" d="M239.233,312.57a6.989,6.989,0,0,0,4.279-8.974,7.085,7.085,0,0,0-9.1-4.647,7.167,7.167,0,0,0-4.526,9.475A7.082,7.082,0,0,0,239.233,312.57Z"/><path class="cls-2" d="M215.85,320.534a6.91,6.91,0,0,0,4-8.558,6.552,6.552,0,0,0-8.46-4.026,6.4,6.4,0,0,0-4.124,8.484A6.722,6.722,0,0,0,215.85,320.534Z"/><path class="cls-2" d="M195.816,320.491a5.785,5.785,0,0,0-7.463-3.637,5.638,5.638,0,0,0-3.6,7.557,5.861,5.861,0,0,0,7.557,3.6A6.041,6.041,0,0,0,195.816,320.491Z"/><path class="cls-2" d="M171.789,329a5.29,5.29,0,0,0-6.575-3.527c-3.026,1.072-4.021,3.981-2.983,6.913a4.956,4.956,0,0,0,6.536,3.117A5.191,5.191,0,0,0,171.789,329Z"/><path class="cls-2" d="M142.208,334.473a4.78,4.78,0,0,0-2.873,6.025,4.679,4.679,0,0,0,8.795-3.115A4.753,4.753,0,0,0,142.208,334.473Z"/><path class="cls-2" d="M119.1,343.518a3.978,3.978,0,0,0-2.38,4.991,3.855,3.855,0,0,0,4.861,2.012c1.895-.671,3.285-2.766,2.614-4.66A4,4,0,0,0,119.1,343.518Z"/><path class="cls-2" d="M257.028,320.429a7.17,7.17,0,0,0,4.523-9.484A7.082,7.082,0,0,0,252.2,306.8a7,7,0,0,0-4.364,9A7.1,7.1,0,0,0,257.028,320.429Z"/><path class="cls-2" d="M237.514,319.459c-1.172-3.309-4.631-4.958-8.411-3.619a6.476,6.476,0,0,0-4.173,8.077,6.561,6.561,0,0,0,8.463,4.036A6.354,6.354,0,0,0,237.514,319.459Z"/><path class="cls-2" d="M213.864,327.836a6.16,6.16,0,0,0-7.943-3.467,6.075,6.075,0,0,0,4.054,11.443A6.153,6.153,0,0,0,213.864,327.836Z"/><path class="cls-2" d="M182.915,333.368a5.27,5.27,0,0,0-3.107,6.532,5.319,5.319,0,1,0,10.02-3.549A5.3,5.3,0,0,0,182.915,333.368Z"/><path class="cls-2" d="M160.286,342.232a4.517,4.517,0,0,0-3.007,5.648,4.594,4.594,0,0,0,6.025,2.873,4.454,4.454,0,0,0,2.5-5.892A4.353,4.353,0,0,0,160.286,342.232Z"/><path class="cls-2" d="M137.284,351.24a3.6,3.6,0,0,0-2.523,4.617,3.74,3.74,0,0,0,5,2.377,3.592,3.592,0,0,0,2-4.858A3.422,3.422,0,0,0,137.284,351.24Z"/><path class="cls-2" d="M295.365,323.144a8.694,8.694,0,0,0,5.25-11.026,8.789,8.789,0,0,0-11.15-5.63,9.111,9.111,0,0,0-4.559,3.482,8.931,8.931,0,0,0-.938,8.045,8.47,8.47,0,0,0,4.7,4.966,8.316,8.316,0,0,1,1.6.514A9.356,9.356,0,0,0,295.365,323.144Z"/><path class="cls-2" d="M271.821,330.625a7.836,7.836,0,0,0,4.766-9.995,7.931,7.931,0,0,0-10.129-5.143,8.016,8.016,0,0,0-5.01,10.506A7.931,7.931,0,0,0,271.821,330.625Z"/><path class="cls-2" d="M248.281,338.115a6.989,6.989,0,0,0,4.279-8.974c-1.439-4.063-5.452-6.047-9.137-4.741a7.249,7.249,0,0,0-4.493,9.569A7.082,7.082,0,0,0,248.281,338.115Z"/><path class="cls-2" d="M220.408,333.4a6.481,6.481,0,0,0-4.091,8.578c1.175,3.318,4.729,4.934,8.415,3.629a6.477,6.477,0,0,0,4.169-8.086A6.638,6.638,0,0,0,220.408,333.4Z"/><path class="cls-2" d="M197.268,342.022c-3.309,1.172-4.675,4.531-3.47,7.934a5.787,5.787,0,0,0,7.527,3.519,5.961,5.961,0,0,0,3.539-7.439A6.077,6.077,0,0,0,197.268,342.022Z"/><path class="cls-2" d="M174.262,351.02c-3.026,1.072-4.055,3.887-2.983,6.913a4.877,4.877,0,0,0,6.5,3.022,5.1,5.1,0,0,0,3.056-6.408A5.227,5.227,0,0,0,174.262,351.02Z"/><path class="cls-2" d="M157.178,362.928a4.665,4.665,0,1,0-8.795,3.115h8.541A4.1,4.1,0,0,0,157.178,362.928Z"/><path class="cls-2" d="M293.632,335.354a8.238,8.238,0,0,0,.994-7.375,7.722,7.722,0,0,0-4.357-4.483,8.929,8.929,0,0,1-1.6-.514,8.2,8.2,0,0,0-4.445.27,8.084,8.084,0,0,0,5.4,15.233A8.192,8.192,0,0,0,293.632,335.354Z"/><path class="cls-2" d="M270.6,336.489a7.1,7.1,0,0,0-9.381-4.231,7.023,7.023,0,0,0-4.334,9.089A7.277,7.277,0,1,0,270.6,336.489Z"/><path class="cls-2" d="M237.985,340.913a6.838,6.838,0,0,0-4.006,8.548,6.555,6.555,0,0,0,8.463,4.036A6.349,6.349,0,0,0,246.563,345,6.6,6.6,0,0,0,237.985,340.913Z"/><path class="cls-2" d="M214.97,349.915a5.979,5.979,0,0,0-3.509,7.524,5.7,5.7,0,0,0,7.429,3.543c3.412-1.209,4.818-4.157,3.646-7.466A5.749,5.749,0,0,0,214.97,349.915Z"/><path class="cls-2" d="M198.876,361.9a5.319,5.319,0,0,0-10.02,3.549,5.719,5.719,0,0,0,.279.6h9.582A5.364,5.364,0,0,0,198.876,361.9Z"/><path class="cls-2" d="M298.48,331.939a9.288,9.288,0,0,0-4.64,3.553,8.524,8.524,0,0,0-.99,7.6,8.987,8.987,0,0,0,5.389,5.539,8.412,8.412,0,0,0-4.969.169,7.851,7.851,0,0,0-4.763,10c1.439,4.063,6.063,6.573,10.125,5.134a8.082,8.082,0,0,0,3.985-3.215,8.389,8.389,0,0,0,1.028-7.281,7.7,7.7,0,0,0-4.8-4.623,9.1,9.1,0,0,0,5.534-.22,8.481,8.481,0,0,0,5.309-5.678,9.294,9.294,0,0,0-.192-5.724A8.7,8.7,0,0,0,298.48,331.939Z"/><path class="cls-2" d="M275.474,340.937a8.032,8.032,0,1,0,9.995,4.766A7.842,7.842,0,0,0,275.474,340.937Z"/><path class="cls-2" d="M252.472,349.944a7.08,7.08,0,0,0-4.66,9.1,7.17,7.17,0,0,0,9.484,4.523,7.088,7.088,0,0,0,4.146-9.351A6.987,6.987,0,0,0,252.472,349.944Z"/><path class="cls-2" d="M237.783,362.595a6.476,6.476,0,0,0-8.326-3.649,6.379,6.379,0,0,0-4.517,7.1h13.15A6.8,6.8,0,0,0,237.783,362.595Z"/><path class="cls-2" d="M279.618,361.949a7.082,7.082,0,0,0-9.351-4.146,7,7,0,0,0-4.586,8.24h14.27A7.7,7.7,0,0,0,279.618,361.949Z"/><path class="cls-2" d="M318.548,362.746a8.7,8.7,0,0,0-11.02-5.263,9.3,9.3,0,0,0-4.569,3.454,8.639,8.639,0,0,0-1.524,5.106h17.659A9.482,9.482,0,0,0,318.548,362.746Z"/><path class="cls-2" d="M342.14,361.211a9.49,9.49,0,0,0,.068-6.846,9.306,9.306,0,0,0-12.05-5.746,9.594,9.594,0,0,0-2.664,1.793,7.748,7.748,0,0,0-.189-5.354,8.707,8.707,0,0,0-2.583-3.668,6.417,6.417,0,0,0,2.688-.528,9.357,9.357,0,0,0,5.691-5.167,9.484,9.484,0,0,0,.055-6.883c-1.71-4.826-6.71-7.2-11.913-5.36a8.624,8.624,0,0,0-2.8,1.415,7.509,7.509,0,0,0-.159-5.269,8.427,8.427,0,0,0-2.58-3.659,8.4,8.4,0,0,0,2.655-.622,9.5,9.5,0,0,0,5.881-5.5,8.73,8.73,0,0,0,.032-6.08A9.066,9.066,0,0,0,312.227,298a8.624,8.624,0,0,0-2.8,1.415,7.128,7.128,0,0,0-.192-5.364,6.474,6.474,0,0,0-2.449-3.291c0.763-.271,1.937-0.251,2.691-0.518a9.3,9.3,0,0,0,5.638-5.318,9.5,9.5,0,0,0,.108-6.732,9.066,9.066,0,0,0-12.047-5.737,8.621,8.621,0,0,0-2.8,1.416c0.773-1.441.479-3.469-.058-4.987a7.953,7.953,0,0,0-2.583-3.668c0.763-.27,1.937-0.251,2.691-0.518a9.3,9.3,0,0,0,5.78-11.956,9.539,9.539,0,0,0-4.364-5.191,9.333,9.333,0,0,0-7.683-.546,4.682,4.682,0,0,0-2.034,1.145,11.207,11.207,0,0,0-.421-3.585,7.684,7.684,0,0,0-2.58-3.659c0.764-.27,1.934-0.261,2.688-0.528a9.3,9.3,0,0,0,5.638-5.318,9.491,9.491,0,0,0,.112-6.723,9.3,9.3,0,0,0-12.05-5.746,8.623,8.623,0,0,0-2.8,1.415c0.773-1.441.479-3.469-.058-4.987a7.919,7.919,0,0,0-2.58-3.659c0.764-.27,1.934-0.261,2.688-0.528a9.385,9.385,0,1,0-6.267-17.693,9.593,9.593,0,0,0-2.664,1.793,7.949,7.949,0,0,0-.192-5.364,7.661,7.661,0,0,0-2.58-3.659,6.416,6.416,0,0,0,2.688-.528,9.3,9.3,0,0,0,5.638-5.318,9.5,9.5,0,0,0,.108-6.732,9.3,9.3,0,0,0-12.047-5.737,9.594,9.594,0,0,0-2.664,1.793,7.605,7.605,0,0,0-.192-5.364,7.953,7.953,0,0,0-2.583-3.668,6.415,6.415,0,0,0,2.688-.528,9.385,9.385,0,1,0-6.267-17.693,9.625,9.625,0,0,0-2.661,1.8,7.95,7.95,0,0,0-.192-5.364A7.694,7.694,0,0,0,253,138.907a6.415,6.415,0,0,0,2.688-.528,9.328,9.328,0,0,0,5.641-5.308,9.5,9.5,0,0,0,.108-6.733,8.829,8.829,0,0,0-14.711-3.944,7.792,7.792,0,0,0-.192-5.364,7.929,7.929,0,0,0-2.583-3.668,6.417,6.417,0,0,0,2.688-.528,9.418,9.418,0,1,0-8.928-15.891,7.968,7.968,0,0,0-.192-5.364,7.694,7.694,0,0,0-2.583-3.668,6.417,6.417,0,0,0,2.688-.528,9.357,9.357,0,0,0,5.691-5.167,9.484,9.484,0,0,0,.055-6.883c-1.706-4.817-6.71-7.2-11.913-5.36a8.427,8.427,0,0,0-2.795,1.425,7.8,7.8,0,0,0-.2-5.373,8.992,8.992,0,0,0-2.58-3.659,6.416,6.416,0,0,0,2.688-.528,9.356,9.356,0,0,0,5.691-5.167,9.483,9.483,0,0,0,.055-6.883c-1.676-4.732-6.677-7.109-11.88-5.266a8.624,8.624,0,0,0-2.8,1.415,7.932,7.932,0,0,0-.192-5.364,8.488,8.488,0,0,0-2.583-3.668,6.274,6.274,0,0,0,2.691-.518,9.448,9.448,0,0,0,5.875-5.518,8.86,8.86,0,0,0,.008-6.146,9.068,9.068,0,0,0-12.05-5.746,8.621,8.621,0,0,0-2.8,1.416,7.114,7.114,0,0,0-.192-5.364,6.636,6.636,0,0,0-2.446-3.282c0.764-.27,1.934-0.261,2.688-0.528a9.26,9.26,0,0,0,6.212-10.108h-18.7a9.77,9.77,0,0,0,.542,4.325,10.316,10.316,0,0,0,3,3.945c-0.763.27-1.557,0.127-2.311,0.394a8.674,8.674,0,0,0-5.461,6,8.5,8.5,0,0,0,.2,5.022,8.791,8.791,0,0,0,11.159,5.627,6.957,6.957,0,0,0,2.278-1.656,9.539,9.539,0,0,0,.189,6.224,11.118,11.118,0,0,0,3,3.935,4.739,4.739,0,0,0-2.311.394,8.674,8.674,0,0,0-5.461,6A8.594,8.594,0,0,0,214.2,51.592a6.35,6.35,0,0,0,2.411-1.279,8.953,8.953,0,0,0,.019,5.743,10.47,10.47,0,0,0,3.133,4.322,4.739,4.739,0,0,0-2.311.394,8.679,8.679,0,0,0-5.348,5.6,8.551,8.551,0,0,0,.086,5.423,8.707,8.707,0,0,0,11.029,5.259,6.207,6.207,0,0,0,2.408-1.288,9.241,9.241,0,0,0,.052,5.838,10.873,10.873,0,0,0,3.136,4.331,4.637,4.637,0,0,0-2.314.385,8.635,8.635,0,1,0,5.766,16.279,6.348,6.348,0,0,0,2.411-1.279,8.977,8.977,0,0,0,.052,5.838,10.445,10.445,0,0,0,3.1,4.228,4.638,4.638,0,0,0-2.314.385,8.707,8.707,0,0,0-5.639,6.814,8.558,8.558,0,0,0,.379,4.215,8.705,8.705,0,0,0,11.026,5.25,6.347,6.347,0,0,0,2.411-1.279,9.448,9.448,0,0,0,.052,5.838,10.833,10.833,0,0,0,3.133,4.322,4.637,4.637,0,0,0-2.314.385,8.635,8.635,0,1,0,5.766,16.279,6.348,6.348,0,0,0,2.411-1.279,9.219,9.219,0,0,0,.052,5.838,10.445,10.445,0,0,0,3.1,4.228,4.74,4.74,0,0,0-2.311.394,8.687,8.687,0,0,0-5.335,5.635,8.545,8.545,0,0,0,.072,5.385,8.7,8.7,0,0,0,11.026,5.25,6.348,6.348,0,0,0,2.411-1.279,9.448,9.448,0,0,0,.052,5.838,8.207,8.207,0,0,0,3,3.945l-2.177.771a8.7,8.7,0,0,0-5.352,5.588,8.6,8.6,0,0,0,.089,5.432,8.707,8.707,0,0,0,11.029,5.259,6.207,6.207,0,0,0,2.408-1.288,9.218,9.218,0,0,0,.052,5.838,8.465,8.465,0,0,0,3,3.945l-2.177.771a8.4,8.4,0,0,0-5.3,10.925,8.7,8.7,0,0,0,11.026,5.25c0.754-.267,1.691-0.917,2.445-1.184a8.959,8.959,0,0,0,.022,5.753,9.291,9.291,0,0,0,3,3.936c-0.763.27-1.557,0.127-2.311,0.394a8.8,8.8,0,0,0-5.129,11.4,8.7,8.7,0,0,0,11.029,5.259,3.214,3.214,0,0,0,1.654-1.021,7.736,7.736,0,0,0,.406,4.439,8.971,8.971,0,0,0,2.966,3.851c-0.764.27-1.524,0.221-2.278,0.489A8.567,8.567,0,0,0,283.878,269a9.117,9.117,0,0,0,.166,5.649,8.7,8.7,0,0,0,11.026,5.25,6.958,6.958,0,0,0,2.278-1.656,9.742,9.742,0,0,0,.186,6.215,10.7,10.7,0,0,0,3,3.945c-0.763.27-1.557,0.127-2.311,0.394a8.69,8.69,0,0,0-5.464,5.988,8.529,8.529,0,0,0,.2,5.031,8.8,8.8,0,0,0,11.163,5.636,6.979,6.979,0,0,0,2.275-1.665,9.53,9.53,0,0,0,.186,6.215,11.114,11.114,0,0,0,3,3.945,4.74,4.74,0,0,0-2.311.394,8.689,8.689,0,0,0-5.464,5.988,8.529,8.529,0,0,0,.2,5.031A8.424,8.424,0,0,0,313,330.519a8.307,8.307,0,0,0,2.445-1.184,8.931,8.931,0,0,0,.019,5.743A10.8,10.8,0,0,0,318.6,339.4a4.74,4.74,0,0,0-2.311.394,8.635,8.635,0,1,0,5.766,16.279,6.208,6.208,0,0,0,2.408-1.288,9.247,9.247,0,0,0,.055,5.847,11.218,11.218,0,0,0,3.133,4.322,4.638,4.638,0,0,0-2.314.385,8.416,8.416,0,0,0-1.473.7h13.482A9.183,9.183,0,0,0,342.14,361.211Z"/><path class="cls-2" d="M14.348,4.19a3.494,3.494,0,0,0,2.2-3.077H9.167a4.587,4.587,0,0,0,.178.691A3.925,3.925,0,0,0,14.348,4.19Z"/><path class="cls-2" d="M45.353,3.636a5.3,5.3,0,0,0,6.913,2.983,5.187,5.187,0,0,0,3.258-5.506H45.061A5.712,5.712,0,0,0,45.353,3.636Z"/><path class="cls-2" d="M28.725,14.109A4.412,4.412,0,0,0,31.346,8.6a4.519,4.519,0,1,0-8.512,3.015A4.449,4.449,0,0,0,28.725,14.109Z"/><path class="cls-2" d="M2.6,14.632a3.978,3.978,0,0,0-2.38,4.991,4.3,4.3,0,0,0,4.995,2.389A4.312,4.312,0,0,0,7.7,16.975,4,4,0,0,0,2.6,14.632Z"/><path class="cls-2" d="M172.715,8.467a8.426,8.426,0,0,0,4.032-3.083,8.184,8.184,0,0,0,1.509-4.271H162.214A8.9,8.9,0,0,0,162.72,3.7,7.842,7.842,0,0,0,172.715,8.467Z"/><path class="cls-2" d="M93.477,6.937a5.69,5.69,0,0,0,3.957-5.824H85.667a6.632,6.632,0,0,0,.378,2.272A5.968,5.968,0,0,0,93.477,6.937Z"/><path class="cls-2" d="M69.967,14.512A5.3,5.3,0,0,0,73.46,7.842a5.319,5.319,0,1,0-10.02,3.549A5.263,5.263,0,0,0,69.967,14.512Z"/><path class="cls-2" d="M46.427,22a4.519,4.519,0,1,0-5.515-2.63A4.455,4.455,0,0,0,46.427,22Z"/><path class="cls-2" d="M20.783,22.354a3.721,3.721,0,1,0,2.481,7,3.491,3.491,0,0,0,2.133-4.49C24.592,22.6,22.677,21.683,20.783,22.354Z"/><path class="cls-2" d="M122.029,3.952A7.082,7.082,0,0,0,131.38,8.1a6.981,6.981,0,0,0,4.677-6.985H121.613A7.437,7.437,0,0,0,122.029,3.952Z"/><path class="cls-2" d="M107.964,15.968a6.484,6.484,0,0,0,3.659-8.33c-1.172-3.309-4.8-5.429-8.116-4.254a6.72,6.72,0,0,0-4.091,8.578A6.645,6.645,0,0,0,107.964,15.968Z"/><path class="cls-2" d="M84.424,23.458a5.968,5.968,0,0,0,3.539-7.439A6.048,6.048,0,0,0,80.5,12.382a5.867,5.867,0,0,0-3.6,7.557A5.793,5.793,0,0,0,84.424,23.458Z"/><path class="cls-2" d="M60.914,31.033a5.191,5.191,0,0,0,3.022-6.5,4.935,4.935,0,0,0-6.441-3.15C54.469,22.452,52.962,25.118,54,28.05A5.3,5.3,0,0,0,60.914,31.033Z"/><path class="cls-2" d="M39.994,33.011a4.519,4.519,0,1,0-2.62,5.511A4.439,4.439,0,0,0,39.994,33.011Z"/><path class="cls-2" d="M11.249,39.046a3.684,3.684,0,0,0-2.38,4.991,3.987,3.987,0,0,0,4.995,2.389,4.312,4.312,0,0,0,2.48-5.037A3.934,3.934,0,0,0,11.249,39.046Z"/><path class="cls-2" d="M149.175,15.957a7.332,7.332,0,0,0,4.656-9.107,7.492,7.492,0,0,0-9.515-4.608,7.183,7.183,0,0,0-4.2,9.466A7,7,0,0,0,149.175,15.957Z"/><path class="cls-2" d="M125.541,23.48c3.78-1.339,5.426-4.808,4.254-8.116a6.42,6.42,0,0,0-8.578-4.091,6.632,6.632,0,0,0-4.006,8.548A6.484,6.484,0,0,0,125.541,23.48Z"/><path class="cls-2" d="M102.121,31.341a5.727,5.727,0,0,0,3.646-7.466c-1.205-3.4-4.288-5.186-7.7-3.977a6.077,6.077,0,0,0-3.376,7.9A5.959,5.959,0,0,0,102.121,31.341Z"/><path class="cls-2" d="M72.088,35.805a5.323,5.323,0,0,0,10.02-3.549A5.319,5.319,0,1,0,72.088,35.805Z"/><path class="cls-2" d="M49.56,43.786a4.524,4.524,0,0,0,8.521-3.018A4.524,4.524,0,1,0,49.56,43.786Z"/><path class="cls-2" d="M27.041,51.762a3.661,3.661,0,0,0,4.867,2,3.483,3.483,0,0,0,2.137-4.481c-0.8-2.272-2.723-3.194-4.617-2.523A3.7,3.7,0,0,0,27.041,51.762Z"/><path class="cls-2" d="M181.731,33.917a8.241,8.241,0,0,0,4.022-3.111,8.148,8.148,0,0,0,.988-7.394,7.623,7.623,0,0,0-4.245-4.406,8.556,8.556,0,0,0,4.6-.3,9.12,9.12,0,0,0,5.553-5.319,8.4,8.4,0,0,0,.078-5.831c-1.676-4.732-6.567-6.829-11.393-5.12A8.731,8.731,0,0,0,177.028,5.7a8.51,8.51,0,0,0-.946,7.751,8.651,8.651,0,0,0,4.743,5.035,8.318,8.318,0,0,1,1.648.52,8.757,8.757,0,0,1-1.648-.52,8.416,8.416,0,0,0-4.457.3,7.842,7.842,0,0,0-4.766,10A7.938,7.938,0,0,0,181.731,33.917Z"/><path class="cls-2" d="M153.563,21.426a7.931,7.931,0,0,0,10.372,4.633,7.836,7.836,0,0,0,4.766-10,7.932,7.932,0,0,0-10.129-5.143A8.016,8.016,0,0,0,153.563,21.426Z"/><path class="cls-2" d="M140.428,33.643a7.074,7.074,0,0,0,4.246-9.068,7.085,7.085,0,0,0-9.1-4.647A7.277,7.277,0,1,0,140.428,33.643Z"/><path class="cls-2" d="M108.431,37.413a6.722,6.722,0,0,0,8.581,4.1,6.91,6.91,0,0,0,4-8.558,6.553,6.553,0,0,0-8.46-4.026A6.4,6.4,0,0,0,108.431,37.413Z"/><path class="cls-2" d="M85.912,45.39A5.809,5.809,0,0,0,93.472,49a5.981,5.981,0,0,0,3.506-7.533,5.7,5.7,0,0,0-7.429-3.543A5.559,5.559,0,0,0,85.912,45.39Z"/><path class="cls-2" d="M66.41,46.548A5.3,5.3,0,0,0,63.016,53.5a5.243,5.243,0,0,0,6.913,2.983,5.123,5.123,0,0,0,3.022-6.5A5.2,5.2,0,0,0,66.41,46.548Z"/><path class="cls-2" d="M49.009,58.462A4.52,4.52,0,1,0,40.5,61.477a4.39,4.39,0,0,0,5.892,2.5A4.345,4.345,0,0,0,49.009,58.462Z"/><path class="cls-2" d="M20.264,64.5a3.985,3.985,0,0,0-2.38,4.991,4.214,4.214,0,0,0,4.995,2.389,4.23,4.23,0,0,0,2.48-5.037A4.007,4.007,0,0,0,20.264,64.5Z"/><path class="cls-2" d="M162.713,31.923a7.33,7.33,0,0,0-9.348-4.136A7,7,0,0,0,149,36.781a7.1,7.1,0,0,0,9.192,4.626A7.407,7.407,0,0,0,162.713,31.923Z"/><path class="cls-2" d="M126.093,44.895a6.641,6.641,0,0,0,8.5,4.13,6.428,6.428,0,0,0,4.087-8.588c-1.172-3.309-4.631-4.958-8.411-3.619A6.476,6.476,0,0,0,126.093,44.895Z"/><path class="cls-2" d="M107.117,45.443a5.959,5.959,0,0,0-3.543,7.429,6.136,6.136,0,0,0,7.6,4.014c3.412-1.209,4.655-4.619,3.479-7.937A5.727,5.727,0,0,0,107.117,45.443Z"/><path class="cls-2" d="M84.077,54.346a5.27,5.27,0,0,0-3.107,6.532,5.319,5.319,0,1,0,10.02-3.549A5.305,5.305,0,0,0,84.077,54.346Z"/><path class="cls-2" d="M58.442,68.859a4.524,4.524,0,1,0,2.63-5.515A4.455,4.455,0,0,0,58.442,68.859Z"/><path class="cls-2" d="M35.923,76.836a3.7,3.7,0,0,0,5,2.386c1.895-.671,2.8-2.6,2-4.867a3.483,3.483,0,0,0-4.481-2.137A3.661,3.661,0,0,0,35.923,76.836Z"/><path class="cls-2" d="M190.25,27.6a8.42,8.42,0,0,0-4.261,3.366A9.1,9.1,0,0,0,185.134,39a8.671,8.671,0,0,0,11.013,5.244,9.12,9.12,0,0,0,5.553-5.319,8.394,8.394,0,0,0,.081-5.821A8.868,8.868,0,0,0,190.25,27.6Z"/><path class="cls-2" d="M162.615,46.98A7.93,7.93,0,0,0,172.984,51.6a7.834,7.834,0,0,0,4.769-9.986,7.94,7.94,0,0,0-10.132-5.153A8.025,8.025,0,0,0,162.615,46.98Z"/><path class="cls-2" d="M144.619,45.472a7.17,7.17,0,0,0-4.523,9.484,7.08,7.08,0,0,0,9.348,4.136,6.987,6.987,0,0,0,4.283-8.964A7.088,7.088,0,0,0,144.619,45.472Z"/><path class="cls-2" d="M121.57,54.379a6.484,6.484,0,0,0-4.087,8.588c1.172,3.309,4.726,4.925,8.411,3.619a6.476,6.476,0,0,0,4.173-8.077A6.641,6.641,0,0,0,121.57,54.379Z"/><path class="cls-2" d="M98.431,63c-3.309,1.172-4.642,4.625-3.467,7.943a5.785,5.785,0,0,0,7.524,3.509,5.959,5.959,0,0,0,3.543-7.429A6.145,6.145,0,0,0,98.431,63Z"/><path class="cls-2" d="M75.425,72a5.386,5.386,0,0,0-3.357,7.056,5.3,5.3,0,0,0,6.909,2.974A5.189,5.189,0,0,0,82,75.535,5.293,5.293,0,0,0,75.425,72Z"/><path class="cls-2" d="M58.061,84.016a4.52,4.52,0,1,0-2.624,5.5A4.442,4.442,0,0,0,58.061,84.016Z"/><path class="cls-2" d="M29.313,90.041a3.72,3.72,0,1,0,2.481,7c1.895-.671,3.252-2.86,2.617-4.651A3.936,3.936,0,0,0,29.313,90.041Z"/><path class="cls-2" d="M194.66,56.4a8.248,8.248,0,0,0,.752-7.311,7.83,7.83,0,1,0-14.761,5.229,7.938,7.938,0,0,0,10.129,5.143A7.6,7.6,0,0,0,194.66,56.4Z"/><path class="cls-2" d="M162.381,53.237a7.277,7.277,0,0,0,4.858,13.715A7.277,7.277,0,1,0,162.381,53.237Z"/><path class="cls-2" d="M135.142,70.44a6.555,6.555,0,0,0,8.463,4.036,6.349,6.349,0,0,0,4.121-8.493,6.656,6.656,0,0,0-8.578-4.091A6.908,6.908,0,0,0,135.142,70.44Z"/><path class="cls-2" d="M112.623,78.417a5.7,5.7,0,0,0,7.433,3.552c3.412-1.209,4.818-4.157,3.643-7.475a5.807,5.807,0,0,0-7.566-3.6A6.048,6.048,0,0,0,112.623,78.417Z"/><path class="cls-2" d="M90.019,86.423a5.319,5.319,0,1,0,3.107-6.532A5.2,5.2,0,0,0,90.019,86.423Z"/><path class="cls-2" d="M73.139,97.41a4.537,4.537,0,0,0,2.873-6.025A4.524,4.524,0,0,0,67.49,94.4,4.517,4.517,0,0,0,73.139,97.41Z"/><path class="cls-2" d="M44.972,102.38a3.721,3.721,0,1,0,7-2.481A3.72,3.72,0,1,0,44.972,102.38Z"/><path class="cls-2" d="M194.961,56.591a8.53,8.53,0,0,0-.948,7.476,9.116,9.116,0,0,0,5.724,5.706,8.42,8.42,0,0,0,5.429-.067,8.9,8.9,0,0,0,5.657-5.8,9.112,9.112,0,0,0-.164-5.734,8.772,8.772,0,0,0-11.36-5.025A8.6,8.6,0,0,0,194.961,56.591Z"/><path class="cls-2" d="M176.64,61.925a7.93,7.93,0,0,0-5.147,10.119,8.036,8.036,0,1,0,15.138-5.362A7.834,7.834,0,0,0,176.64,61.925Z"/><path class="cls-2" d="M153.634,70.923a7.08,7.08,0,0,0-4.66,9.1,7.251,7.251,0,0,0,9.518,4.617c3.686-1.306,5.555-5.373,4.112-9.445A6.987,6.987,0,0,0,153.634,70.923Z"/><path class="cls-2" d="M130.619,79.924c-3.686,1.306-5.43,4.8-4.258,8.107a6.428,6.428,0,0,0,8.582,4.1,6.578,6.578,0,0,0,4-8.557A6.476,6.476,0,0,0,130.619,79.924Z"/><path class="cls-2" d="M107.479,88.545a5.785,5.785,0,0,0-3.637,7.463c1.209,3.412,4.385,5.162,7.694,3.99a6.08,6.08,0,0,0,3.372-7.91A5.959,5.959,0,0,0,107.479,88.545Z"/><path class="cls-2" d="M84.473,97.543a5.227,5.227,0,0,0-3.527,6.575,5.326,5.326,0,0,0,7.046,3.36,5.227,5.227,0,0,0,2.889-6.879A5.1,5.1,0,0,0,84.473,97.543Z"/><path class="cls-2" d="M66.939,109.08a4.52,4.52,0,0,0-8.512,3.015A4.52,4.52,0,1,0,66.939,109.08Z"/><path class="cls-2" d="M38.328,115.491a3.664,3.664,0,0,0-2.514,4.614,3.773,3.773,0,0,0,5.028,2.484,4.03,4.03,0,0,0,2.447-5.132C42.655,115.667,40.223,114.82,38.328,115.491Z"/><path class="cls-2" d="M203.675,81.851a8.248,8.248,0,0,0,.752-7.311,7.83,7.83,0,0,0-14.761,5.229,7.938,7.938,0,0,0,10.129,5.143A7.6,7.6,0,0,0,203.675,81.851Z"/><path class="cls-2" d="M171.43,78.782a7,7,0,0,0-4.367,8.994,7.1,7.1,0,0,0,9.192,4.626,7.407,7.407,0,0,0,4.523-9.485A7.33,7.33,0,0,0,171.43,78.782Z"/><path class="cls-2" d="M144.157,95.89a6.641,6.641,0,0,0,8.5,4.13,6.428,6.428,0,0,0,4.087-8.588,6.574,6.574,0,0,0-8.545-4A6.818,6.818,0,0,0,144.157,95.89Z"/><path class="cls-2" d="M125.181,96.438a5.959,5.959,0,0,0-3.543,7.429,5.787,5.787,0,0,0,7.466,3.646,5.59,5.59,0,0,0,3.61-7.57A5.726,5.726,0,0,0,125.181,96.438Z"/><path class="cls-2" d="M105.694,115.371a5.32,5.32,0,0,0,3.36-7.046,5.324,5.324,0,0,0-10.02,3.549A5.291,5.291,0,0,0,105.694,115.371Z"/><path class="cls-2" d="M82.154,122.861a4.52,4.52,0,1,0-3.015-8.512A4.519,4.519,0,0,0,82.154,122.861Z"/><path class="cls-2" d="M53.987,127.831a3.721,3.721,0,1,0,7-2.481A3.9,3.9,0,0,0,56,122.97C54.2,123.608,53.349,126.031,53.987,127.831Z"/><path class="cls-2" d="M203.979,82.051a8.631,8.631,0,0,0-.918,7.56,9.1,9.1,0,0,0,5.724,5.706,8.42,8.42,0,0,0,5.429-.067,8.917,8.917,0,0,0,5.661-5.793,9.12,9.12,0,0,0-.167-5.744,8.781,8.781,0,0,0-11.39-5.11A8.6,8.6,0,0,0,203.979,82.051Z"/><path class="cls-2" d="M185.689,87.469a7.93,7.93,0,0,0-5.147,10.119,8.025,8.025,0,0,0,10.509,5.019,7.94,7.94,0,0,0,4.629-10.382A7.833,7.833,0,0,0,185.689,87.469Z"/><path class="cls-2" d="M162.683,96.467a7.08,7.08,0,0,0-4.66,9.1,7.17,7.17,0,0,0,9.484,4.523,7.088,7.088,0,0,0,4.146-9.351A6.987,6.987,0,0,0,162.683,96.467Z"/><path class="cls-2" d="M139.634,105.375a6.48,6.48,0,1,0,4.324,12.207A6.477,6.477,0,1,0,139.634,105.375Z"/><path class="cls-2" d="M116.495,114a5.873,5.873,0,0,0-3.6,7.557c1.175,3.318,4.385,5.162,7.694,3.99a6.145,6.145,0,0,0,3.372-7.91A6.055,6.055,0,0,0,116.495,114Z"/><path class="cls-2" d="M97.041,133.023a5.284,5.284,0,0,0,2.889-6.879A5.182,5.182,0,0,0,93.492,123a5.3,5.3,0,0,0-3.5,6.66A5.378,5.378,0,0,0,97.041,133.023Z"/><path class="cls-2" d="M75.988,134.625a4.52,4.52,0,0,0-8.512,3.015A4.52,4.52,0,1,0,75.988,134.625Z"/><path class="cls-2" d="M47.377,141.036a3.6,3.6,0,0,0-2.514,4.614,3.746,3.746,0,0,0,4.995,2.39A4.009,4.009,0,0,0,52.338,143C51.67,141.117,49.271,140.365,47.377,141.036Z"/><path class="cls-2" d="M212.69,107.3a8.519,8.519,0,0,0,.789-7.207,7.83,7.83,0,1,0-14.761,5.229c1.439,4.063,6.066,6.582,10.129,5.143A7.459,7.459,0,0,0,212.69,107.3Z"/><path class="cls-2" d="M189.829,108.472a7.332,7.332,0,0,0-9.351-4.146,7,7,0,0,0-4.364,9,7.353,7.353,0,0,0,9.192,4.626A7.685,7.685,0,0,0,189.829,108.472Z"/><path class="cls-2" d="M157.211,112.887a6.91,6.91,0,0,0-4,8.558,6.818,6.818,0,0,0,8.46,4.026,6.574,6.574,0,0,0,4.124-8.484A6.658,6.658,0,0,0,157.211,112.887Z"/><path class="cls-2" d="M130.69,129.421a5.959,5.959,0,0,0,7.429,3.543,5.726,5.726,0,0,0,3.646-7.466,5.809,5.809,0,0,0-7.57-3.61A6.05,6.05,0,0,0,130.69,129.421Z"/><path class="cls-2" d="M114.713,140.831a5.3,5.3,0,0,0,3.393-6.952A5.316,5.316,0,1,0,114.713,140.831Z"/><path class="cls-2" d="M91.2,148.405a4.534,4.534,0,0,0,2.876-6.016,4.524,4.524,0,0,0-8.521,3.018A4.514,4.514,0,0,0,91.2,148.405Z"/><path class="cls-2" d="M63.039,153.385a3.72,3.72,0,1,0,7-2.481A3.721,3.721,0,1,0,63.039,153.385Z"/><path class="cls-2" d="M213.068,107.529a8.656,8.656,0,0,0-.955,7.637,8.336,8.336,0,0,0,5.391,5.3,8.844,8.844,0,0,0,5.592-.146,9.38,9.38,0,0,0,5.064-4.032,8.176,8.176,0,0,0,.6-7.023,8.782,8.782,0,0,0-11.393-5.12A8.621,8.621,0,0,0,213.068,107.529Z"/><path class="cls-2" d="M194.7,112.92a8.084,8.084,0,1,0,10.028,4.86A7.922,7.922,0,0,0,194.7,112.92Z"/><path class="cls-2" d="M171.7,121.918a7.1,7.1,0,0,0-4.623,9.2,7.175,7.175,0,0,0,9.484,4.523,7.094,7.094,0,0,0,4.146-9.351A7.012,7.012,0,0,0,171.7,121.918Z"/><path class="cls-2" d="M148.549,130.542a6.66,6.66,0,0,0-4.087,8.588,6.4,6.4,0,0,0,8.545,4,6.553,6.553,0,0,0,4.039-8.454A6.84,6.84,0,0,0,148.549,130.542Z"/><path class="cls-2" d="M125.543,139.54a5.809,5.809,0,0,0-3.6,7.566,5.559,5.559,0,0,0,7.523,3.509,5.7,5.7,0,0,0,3.543-7.429A5.981,5.981,0,0,0,125.543,139.54Z"/><path class="cls-2" d="M106.06,158.483a5.2,5.2,0,0,0,2.922-6.785,5.123,5.123,0,0,0-6.441-3.15,5.243,5.243,0,0,0-3.494,6.669A5.3,5.3,0,0,0,106.06,158.483Z"/><path class="cls-2" d="M85.04,160.179a4.345,4.345,0,0,0-5.505-2.633,4.39,4.39,0,0,0-3.007,5.648A4.516,4.516,0,1,0,85.04,160.179Z"/><path class="cls-2" d="M56.258,166.109a4.008,4.008,0,0,0-2.343,5.095,3.743,3.743,0,0,0,4.991,2.38,4.007,4.007,0,0,0,2.484-5.028A4.323,4.323,0,0,0,56.258,166.109Z"/><path class="cls-2" d="M221.619,132.507a7.823,7.823,0,1,0-3.891,3.033A7.826,7.826,0,0,0,221.619,132.507Z"/><path class="cls-2" d="M198.844,133.923a7.678,7.678,0,0,0-9.484-4.523,7.346,7.346,0,0,0-4.231,9.381c1.306,3.686,5.446,6.059,9.226,4.72A7.775,7.775,0,0,0,198.844,133.923Z"/><path class="cls-2" d="M162.224,146.895a6.908,6.908,0,0,0,8.493,4.121,6.656,6.656,0,0,0,4.091-8.578,6.576,6.576,0,0,0-8.548-4.006A6.82,6.82,0,0,0,162.224,146.895Z"/><path class="cls-2" d="M139.705,154.872a5.979,5.979,0,0,0,7.463,3.637,5.87,5.87,0,1,0-3.92-11.066A5.952,5.952,0,0,0,139.705,154.872Z"/><path class="cls-2" d="M117.1,162.878a5.323,5.323,0,1,0,3.141-6.438A5.2,5.2,0,0,0,117.1,162.878Z"/><path class="cls-2" d="M100.218,173.856a4.7,4.7,0,0,0,2.877-6.016,4.777,4.777,0,0,0-6.025-2.873c-2.177.771-3.267,3.714-2.5,5.892A4.71,4.71,0,0,0,100.218,173.856Z"/><path class="cls-2" d="M72.054,178.836a3.72,3.72,0,1,0,7-2.481,3.912,3.912,0,0,0-4.995-2.39C72.263,174.6,71.416,177.035,72.054,178.836Z"/><path class="cls-2" d="M222.1,132.95a8.632,8.632,0,0,0,10.04,12.919,9.1,9.1,0,0,0,5.549-5.329,8.394,8.394,0,0,0,.081-5.821,8.783,8.783,0,0,0-11.393-5.12A8.6,8.6,0,0,0,222.1,132.95Z"/><path class="cls-2" d="M203.753,138.464a7.932,7.932,0,0,0-5.143,10.129,8.261,8.261,0,0,0,10.506,5.01c4.072-1.442,6.075-6.3,4.633-10.372A7.836,7.836,0,0,0,203.753,138.464Z"/><path class="cls-2" d="M189.721,151.742a7,7,0,0,0-8.974-4.279,7.088,7.088,0,0,0-4.656,9.107,7.17,7.17,0,0,0,9.484,4.523A7.088,7.088,0,0,0,189.721,151.742Z"/><path class="cls-2" d="M166.061,160.123a6.82,6.82,0,0,0-8.463-4.036,6.638,6.638,0,0,0-4.121,8.493,6.4,6.4,0,0,0,8.545,4A6.553,6.553,0,0,0,166.061,160.123Z"/><path class="cls-2" d="M134.562,165a5.867,5.867,0,0,0-3.6,7.557,5.638,5.638,0,0,0,7.557,3.6,5.785,5.785,0,0,0,3.509-7.523A6.048,6.048,0,0,0,134.562,165Z"/><path class="cls-2" d="M108.062,180.667a5.383,5.383,0,0,0,7.046,3.36A5.29,5.29,0,0,0,118,177.148a5.191,5.191,0,0,0-6.442-3.15A5.3,5.3,0,0,0,108.062,180.667Z"/><path class="cls-2" d="M94.055,185.629a4.519,4.519,0,0,0-8.512,3.015A4.519,4.519,0,1,0,94.055,185.629Z"/><path class="cls-2" d="M65.31,191.663a3.978,3.978,0,0,0-2.38,4.991,3.684,3.684,0,0,0,4.991,2.38,3.934,3.934,0,0,0,2.484-5.028A4.3,4.3,0,0,0,65.31,191.663Z"/><path class="cls-2" d="M230.668,158.052a7.823,7.823,0,1,0-3.891,3.033A7.826,7.826,0,0,0,230.668,158.052Z"/><path class="cls-2" d="M207.893,159.467a7.678,7.678,0,0,0-9.484-4.523,7.437,7.437,0,0,0,4.962,14.007A7.685,7.685,0,0,0,207.893,159.467Z"/><path class="cls-2" d="M179.733,176.466a6.574,6.574,0,0,0,4.124-8.484,6.664,6.664,0,0,0-8.581-4.1,6.917,6.917,0,0,0-4,8.557A6.818,6.818,0,0,0,179.733,176.466Z"/><path class="cls-2" d="M152.263,172.893a6.041,6.041,0,0,0-3.509,7.524,5.959,5.959,0,0,0,7.429,3.543,5.726,5.726,0,0,0,3.646-7.466A5.8,5.8,0,0,0,152.263,172.893Z"/><path class="cls-2" d="M132.676,191.543a5.12,5.12,0,1,0-6.526-3.12A5.3,5.3,0,0,0,132.676,191.543Z"/><path class="cls-2" d="M109.27,199.41a4.777,4.777,0,0,0,2.873-6.025,4.713,4.713,0,0,0-6.025-2.873c-2.177.771-3.3,3.62-2.5,5.892C104.393,198.581,107.092,200.181,109.27,199.41Z"/><path class="cls-2" d="M81.1,204.38c0.638,1.8,2.823,3.148,4.624,2.51a3.9,3.9,0,0,0,2.38-4.991A3.721,3.721,0,1,0,81.1,204.38Z"/><path class="cls-2" d="M231.153,158.495a8.54,8.54,0,0,0,4.283,12.869,8.507,8.507,0,0,0,5.757.051,9.119,9.119,0,0,0,5.539-5.357,8.414,8.414,0,0,0,.091-5.793,8.783,8.783,0,0,0-11.393-5.12A8.6,8.6,0,0,0,231.153,158.495Z"/><path class="cls-2" d="M212.391,164.048a7.922,7.922,0,0,0-4.733,10.089c1.442,4.072,6.057,6.586,10.129,5.143a8.261,8.261,0,0,0,5.01-10.506A8.012,8.012,0,0,0,212.391,164.048Z"/><path class="cls-2" d="M194.624,186.637a7.339,7.339,0,0,0,4.146-9.351,7.081,7.081,0,0,0-9.007-4.374,7.168,7.168,0,0,0-4.623,9.2A7.407,7.407,0,0,0,194.624,186.637Z"/><path class="cls-2" d="M171.074,194.131a6.68,6.68,0,0,0-4.461-12.593A6.68,6.68,0,1,0,171.074,194.131Z"/><path class="cls-2" d="M147.531,201.611a5.87,5.87,0,0,0-3.92-11.066A5.87,5.87,0,1,0,147.531,201.611Z"/><path class="cls-2" d="M123.991,209.1a4.852,4.852,0,0,0,3.056-6.408,5.123,5.123,0,0,0-6.441-3.15,5.243,5.243,0,0,0-3.494,6.669C118.149,209.144,120.965,210.173,123.991,209.1Z"/><path class="cls-2" d="M103.1,211.174a4.345,4.345,0,0,0-5.505-2.633,4.39,4.39,0,0,0-3.007,5.648A4.516,4.516,0,1,0,103.1,211.174Z"/><path class="cls-2" d="M74.359,217.208a3.914,3.914,0,0,0-2.38,4.991,3.746,3.746,0,0,0,4.995,2.389,4.009,4.009,0,0,0,2.48-5.037A4.221,4.221,0,0,0,74.359,217.208Z"/><path class="cls-2" d="M239.706,183.568a7.99,7.99,0,0,0,.852-7.028,8.488,8.488,0,0,0-5.15-5.1,7.459,7.459,0,0,0-4.979-.04c-4.063,1.439-6.075,6.3-4.633,10.372a7.928,7.928,0,0,0,10.028,4.86A7.663,7.663,0,0,0,239.706,183.568Z"/><path class="cls-2" d="M202.807,189.913a7.48,7.48,0,1,0,14.1-5A7.48,7.48,0,0,0,202.807,189.913Z"/><path class="cls-2" d="M188.781,202.01a6.67,6.67,0,1,0-4.454-12.574A6.67,6.67,0,0,0,188.781,202.01Z"/><path class="cls-2" d="M165.232,209.5a5.87,5.87,0,1,0-3.92-11.066A5.87,5.87,0,0,0,165.232,209.5Z"/><path class="cls-2" d="M141.692,216.993a5.088,5.088,0,1,0-3.386-9.558A5.07,5.07,0,1,0,141.692,216.993Z"/><path class="cls-2" d="M118.152,224.483a4.4,4.4,0,0,0,3.007-5.648,4.521,4.521,0,1,0-8.521,3.018A4.353,4.353,0,0,0,118.152,224.483Z"/><path class="cls-2" d="M90.118,229.831a3.72,3.72,0,1,0,7-2.481A3.721,3.721,0,1,0,90.118,229.831Z"/><path class="cls-2" d="M240.169,183.945a8.631,8.631,0,0,0,10.04,12.919,9.12,9.12,0,0,0,5.553-5.319,8.42,8.42,0,0,0,.078-5.831,8.783,8.783,0,0,0-11.393-5.12A8.6,8.6,0,0,0,240.169,183.945Z"/><path class="cls-2" d="M221.44,189.593a7.83,7.83,0,1,0,5.229,14.761A7.84,7.84,0,1,0,221.44,189.593Z"/><path class="cls-2" d="M207.785,202.737a7.233,7.233,0,1,0-4.146,9.351A7.345,7.345,0,0,0,207.785,202.737Z"/><path class="cls-2" d="M183.748,211.251a6.475,6.475,0,0,0-8.083-4.16,6.636,6.636,0,0,0-4.124,8.484,6.728,6.728,0,0,0,8.581,4.1C183.441,218.5,184.92,214.56,183.748,211.251Z"/><path class="cls-2" d="M156.579,227.156a6.048,6.048,0,0,0,3.509-7.524,5.959,5.959,0,0,0-7.429-3.543,5.785,5.785,0,0,0-3.637,7.463A5.867,5.867,0,0,0,156.579,227.156Z"/><path class="cls-2" d="M133.039,234.646a5.121,5.121,0,0,0-3.419-9.652A5.135,5.135,0,1,0,133.039,234.646Z"/><path class="cls-2" d="M109.633,242.513c2.177-.771,3.291-3.617,2.487-5.888-0.771-2.177-3.461-3.781-5.639-3.01a4.77,4.77,0,0,0-2.873,6.025A4.707,4.707,0,0,0,109.633,242.513Z"/><path class="cls-2" d="M83.374,242.659a3.978,3.978,0,0,0-2.38,4.991,3.922,3.922,0,0,0,4.995,2.389A4.23,4.23,0,0,0,88.469,245,4.3,4.3,0,0,0,83.374,242.659Z"/><path class="cls-2" d="M248.731,209.047a7.812,7.812,0,0,0,.876-6.962,8.519,8.519,0,0,0-5.15-5.1,7.459,7.459,0,0,0-4.979-.04c-4.063,1.439-6.072,6.309-4.633,10.372A7.823,7.823,0,0,0,248.731,209.047Z"/><path class="cls-2" d="M221.3,219.57a7.332,7.332,0,0,0,4.656-9.107,7.48,7.48,0,0,0-14.1,5C213.165,219.153,217.521,220.909,221.3,219.57Z"/><path class="cls-2" d="M197.8,227.47a6.582,6.582,0,0,0,4.121-8.493,6.347,6.347,0,0,0-8.545-4,6.552,6.552,0,0,0-4.039,8.454A6.827,6.827,0,0,0,197.8,227.47Z"/><path class="cls-2" d="M174.28,235.048a5.8,5.8,0,0,0,3.613-7.56,5.587,5.587,0,0,0-7.566-3.6,5.785,5.785,0,0,0-3.509,7.523A6.041,6.041,0,0,0,174.28,235.048Z"/><path class="cls-2" d="M150.74,242.538a5.3,5.3,0,0,0,3.494-6.669,5.319,5.319,0,1,0-10.02,3.549A5.27,5.27,0,0,0,150.74,242.538Z"/><path class="cls-2" d="M121.686,247.4a4.524,4.524,0,0,0,8.521-3.018A4.524,4.524,0,1,0,121.686,247.4Z"/><path class="cls-2" d="M101.179,250.514a3.6,3.6,0,0,0-2.012,4.861c0.638,1.8,2.827,3.157,4.627,2.52a3.912,3.912,0,0,0,2.377-5A3.63,3.63,0,0,0,101.179,250.514Z"/><path class="cls-2" d="M249.217,209.49a8.581,8.581,0,0,0,4.016,12.8,7.459,7.459,0,0,0-4.739.1,8.084,8.084,0,0,0,5.4,15.233,7.663,7.663,0,0,0,3.88-3.061,7.99,7.99,0,0,0,.852-7.028,8.332,8.332,0,0,0-4.686-4.992,8.586,8.586,0,0,0,5.324-.125,9.173,9.173,0,0,0,5.014-4.174,8.46,8.46,0,0,0,.613-6.985,8.782,8.782,0,0,0-11.393-5.12A8.6,8.6,0,0,0,249.217,209.49Z"/><path class="cls-2" d="M235.717,229.9a7.84,7.84,0,1,0-5.229-14.761A7.83,7.83,0,1,0,235.717,229.9Z"/><path class="cls-2" d="M212.688,237.632a7.339,7.339,0,0,0,4.146-9.351c-1.306-3.686-5.455-6.056-9.141-4.751a7.5,7.5,0,0,0-4.489,9.579A7.407,7.407,0,0,0,212.688,237.632Z"/><path class="cls-2" d="M192.8,236.8c-1.172-3.308-4.8-5.429-8.116-4.254a6.72,6.72,0,0,0-4.091,8.578,6.645,6.645,0,0,0,8.548,4.006A6.484,6.484,0,0,0,192.8,236.8Z"/><path class="cls-2" d="M165.595,252.606a5.87,5.87,0,0,0-3.92-11.066A5.87,5.87,0,1,0,165.595,252.606Z"/><path class="cls-2" d="M142.054,260.1a5.065,5.065,0,0,0-3.382-9.549A5.084,5.084,0,1,0,142.054,260.1Z"/><path class="cls-2" d="M118.681,268.057c2.177-.771,3.258-3.711,2.487-5.888-0.8-2.262-3.461-3.781-5.639-3.01a4.713,4.713,0,0,0-2.873,6.025A4.77,4.77,0,0,0,118.681,268.057Z"/><path class="cls-2" d="M92.423,268.2a3.914,3.914,0,0,0-2.38,4.991,3.987,3.987,0,0,0,4.995,2.39,4.312,4.312,0,0,0,2.48-5.037A4.221,4.221,0,0,0,92.423,268.2Z"/><path class="cls-2" d="M230.35,245.115a7.282,7.282,0,1,0-4.862-13.724A7.284,7.284,0,1,0,230.35,245.115Z"/><path class="cls-2" d="M206.849,253.015a6.856,6.856,0,0,0,4.087-8.588,6.675,6.675,0,0,0-12.584,4.458A6.84,6.84,0,0,0,206.849,253.015Z"/><path class="cls-2" d="M183.3,260.5a5.744,5.744,0,0,0,3.613-7.56c-1.172-3.309-4.121-4.715-7.533-3.506a5.7,5.7,0,0,0-3.543,7.429A5.972,5.972,0,0,0,183.3,260.5Z"/><path class="cls-2" d="M159.756,267.989a5.243,5.243,0,0,0,3.494-6.669,5.316,5.316,0,1,0-10.02,3.549A5.2,5.2,0,0,0,159.756,267.989Z"/><path class="cls-2" d="M136.216,275.478a4.4,4.4,0,0,0,3.007-5.648,4.521,4.521,0,1,0-8.521,3.018A4.353,4.353,0,0,0,136.216,275.478Z"/><path class="cls-2" d="M110.195,275.965a3.659,3.659,0,0,0-2.013,4.861c0.671,1.895,2.86,3.252,4.66,2.614a3.935,3.935,0,0,0,2.343-5.095A3.679,3.679,0,0,0,110.195,275.965Z"/><path class="cls-2" d="M258.233,234.94a8.593,8.593,0,0,0,4.624,13.023,8.587,8.587,0,0,0,5.419-.095,8.644,8.644,0,1,0-5.766-16.279A8.6,8.6,0,0,0,258.233,234.94Z"/><path class="cls-2" d="M239.373,240.221c-4.072,1.442-6.075,6.3-4.633,10.372a7.833,7.833,0,0,0,9.992,4.757,7.93,7.93,0,0,0,5.147-10.119A8.261,8.261,0,0,0,239.373,240.221Z"/><path class="cls-2" d="M225.852,253.741a7.233,7.233,0,1,0-4.149,9.341A7.339,7.339,0,0,0,225.852,253.741Z"/><path class="cls-2" d="M198.187,270.67c3.318-1.175,4.8-5.106,3.629-8.415a6.477,6.477,0,0,0-8.086-4.169,6.638,6.638,0,0,0-4.121,8.493A6.72,6.72,0,0,0,198.187,270.67Z"/><path class="cls-2" d="M174.643,278.151a6.039,6.039,0,0,0,3.513-7.514,5.961,5.961,0,0,0-7.433-3.552,5.787,5.787,0,0,0-3.634,7.472A5.858,5.858,0,0,0,174.643,278.151Z"/><path class="cls-2" d="M151.1,285.641a5.121,5.121,0,0,0,3.026-6.493,4.938,4.938,0,0,0-6.445-3.159c-3.026,1.072-4.532,3.738-3.49,6.679A5.241,5.241,0,0,0,151.1,285.641Z"/><path class="cls-2" d="M127.563,293.131a4.343,4.343,0,0,0,2.624-5.5,4.52,4.52,0,1,0-8.512,3.015A4.388,4.388,0,0,0,127.563,293.131Z"/><path class="cls-2" d="M101.438,293.654a3.746,3.746,0,0,0-2.377,5,3.92,3.92,0,0,0,4.991,2.38,4.229,4.229,0,0,0,2.484-5.028A4.009,4.009,0,0,0,101.438,293.654Z"/><path class="cls-2" d="M267.73,258.067a6.14,6.14,0,0,0-.058-4.987A8.3,8.3,0,0,0,262.848,248a7.6,7.6,0,0,0-5.305-.062,7.944,7.944,0,0,0-4.633,10.372,7.851,7.851,0,0,0,10,4.776,9.482,9.482,0,0,0,3.038-1.936,9.324,9.324,0,0,0-.042,5.871,8.623,8.623,0,0,0,4.615,4.943,9.145,9.145,0,0,1,1.916.616,8.373,8.373,0,0,0,4.486-.305,9.08,9.08,0,0,0,5.674-5.755,8.324,8.324,0,0,0-3.07-9.415,9.051,9.051,0,0,0-8.367-1.1A13.755,13.755,0,0,0,267.73,258.067Z"/><path class="cls-2" d="M239.365,270.565a7.332,7.332,0,0,0,4.656-9.107,7.48,7.48,0,0,0-14.1,5C231.229,270.148,235.585,271.9,239.365,270.565Z"/><path class="cls-2" d="M215.864,278.465a6.837,6.837,0,0,0,4.121-8.493A6.675,6.675,0,0,0,207.4,274.43,6.82,6.82,0,0,0,215.864,278.465Z"/><path class="cls-2" d="M192.348,286.053a5.809,5.809,0,0,0,3.61-7.57,5.587,5.587,0,0,0-7.566-3.6,5.785,5.785,0,0,0-3.509,7.523A6.05,6.05,0,0,0,192.348,286.053Z"/><path class="cls-2" d="M168.8,293.533a5.3,5.3,0,0,0,3.494-6.669,5.319,5.319,0,1,0-10.02,3.549A5.27,5.27,0,0,0,168.8,293.533Z"/><path class="cls-2" d="M145.264,301.023a4.455,4.455,0,0,0,3.007-5.648,4.524,4.524,0,1,0-8.521,3.018A4.421,4.421,0,0,0,145.264,301.023Z"/><path class="cls-2" d="M119.243,301.509a3.659,3.659,0,0,0-2.012,4.861,3.5,3.5,0,0,0,4.493,2.143c2.272-.8,3.181-2.729,2.51-4.624A3.679,3.679,0,0,0,119.243,301.509Z"/><path class="cls-2" d="M248.152,265a7.836,7.836,0,0,0-4.766,10,7.931,7.931,0,0,0,10.372,4.633,7.836,7.836,0,0,0,4.766-10A7.931,7.931,0,0,0,248.152,265Z"/><path class="cls-2" d="M234.5,278.146a7.233,7.233,0,1,0-13.63,4.828,7.082,7.082,0,0,0,9.351,4.146A6.989,6.989,0,0,0,234.5,278.146Z"/><path class="cls-2" d="M360.38,362.091a7.631,7.631,0,0,0-1.829-2.768l1.423-.5c0.343-.121.657-0.246,0.957-0.373v-35.63a8.119,8.119,0,0,0-3.17,2.711,10.719,10.719,0,0,0-.578-5.227,9.037,9.037,0,0,0-3.695-4.441,12.523,12.523,0,0,0,6.6-.31l0.377-.134a11.868,11.868,0,0,0,.418,3.576c0.018,0.05.036,0.1,0.054,0.149V279.4a12.111,12.111,0,0,0-2.687.588l-0.66.234a7.141,7.141,0,0,0-.379-3.165c-0.267-.754-0.817-1.408-1.054-2.077l0.283-.1a13.193,13.193,0,0,0,3.8-2.193,10.823,10.823,0,0,0,.379,3.165c0.1,0.283.21,0.539,0.322,0.784V179.37l-0.671-1.9a5.974,5.974,0,0,0-1.315-2.515c0.764-.27,1.278-0.018,1.937-0.251a4.151,4.151,0,0,0,.049.687V135.612c-0.048.016-.1,0.031-0.143,0.047l-0.538-1.518-0.367-1.037,1.048-.371V1.113H259l-0.256.091c0-.027,0-0.063.008-0.091H238.642a10.036,10.036,0,0,0,.517,3.73,9.571,9.571,0,0,0,3.871,4.909,10.812,10.812,0,0,0-6.625.225l-1.423.5a10.876,10.876,0,0,0-.555-3.962,9.47,9.47,0,0,0-1.792-2.664l1.423-.5a9.024,9.024,0,0,0,3.789-2.238h-15.2l-0.123.043a9.627,9.627,0,0,0-5.755,5.465,8.732,8.732,0,0,0-.128,6.2,9.306,9.306,0,0,0,12.05,5.746l1.131-.4a16.544,16.544,0,0,0,.822,4.716A6.931,6.931,0,0,0,232.7,26.3a1.47,1.47,0,0,0-1.265.024,9.554,9.554,0,0,0-5.75,12.041,9.283,9.283,0,0,0,12.017,5.652l1.131-.4a14.843,14.843,0,0,0,.822,4.716,7.422,7.422,0,0,0,2.06,3.418,1.8,1.8,0,0,0-1.231.118,9.494,9.494,0,0,0-5.679,5.682,9.156,9.156,0,0,0-.1,6.264,9.556,9.556,0,0,0,12.05,5.746l1.131-.4a13.84,13.84,0,0,0,.685,4.33c0.538,1.518.908,2.564,2.063,3.428l-1.131.4a9.47,9.47,0,0,0-5.675,5.692,9.364,9.364,0,0,0-.071,6.359A9.554,9.554,0,0,0,255.8,95.107l1.131-.4a13.254,13.254,0,0,0,.688,4.339,6.445,6.445,0,0,0,2.06,3.418l-1.131.4a9.462,9.462,0,0,0-5.509,5.262,9.19,9.19,0,0,0-.27,6.694,9.554,9.554,0,0,0,12.047,5.737l1.131-.4a13.849,13.849,0,0,0,.688,4.339c0.538,1.518.9,2.554,2.06,3.418l-1.131.4a9.47,9.47,0,0,0-5.675,5.692,9.364,9.364,0,0,0-.071,6.359,9.554,9.554,0,0,0,12.047,5.737l1.131-.4a13.358,13.358,0,0,0,.688,4.339,6.492,6.492,0,0,0,2.063,3.428l-1.131.4a9.485,9.485,0,0,0-5.682,5.673,9.183,9.183,0,0,0-.1,6.274,9.554,9.554,0,0,0,12.047,5.737l1.131-.4a14.487,14.487,0,0,0,.688,4.339c0.538,1.518.9,2.555,2.063,3.428l-1.131.4a9.438,9.438,0,0,0-5.675,5.692,9.316,9.316,0,0,0-.074,6.349,9.562,9.562,0,0,0,12.05,5.746,1.447,1.447,0,0,0,.994-0.787,18.732,18.732,0,0,0,.822,4.716,6.477,6.477,0,0,0,2.063,3.428l-1.131.4A9.484,9.484,0,0,0,289,210.537a9.183,9.183,0,0,0-.1,6.274,9.562,9.562,0,0,0,12.05,5.746,1.47,1.47,0,0,0,1-.778,20.2,20.2,0,0,0,.822,4.716,6.771,6.771,0,0,0,2.06,3.419l-1.131.4A9.435,9.435,0,0,0,310,248.1a0.942,0.942,0,0,0,.631-0.4,11.058,11.058,0,0,0,.784,3.2,7.129,7.129,0,0,0,2.063,3.428l-1.131.4a9.5,9.5,0,0,0-5.739,5.513,9.146,9.146,0,0,0,11.869,11.794l1.131-.4a19.521,19.521,0,0,0,.822,4.716,6.947,6.947,0,0,0,2.063,3.428l-1.131.4a9.627,9.627,0,0,0-5.755,5.465,8.732,8.732,0,0,0-.128,6.2,9.3,9.3,0,0,0,12.047,5.737l1.131-.4a16.061,16.061,0,0,0,.822,4.716,7.112,7.112,0,0,0,2.063,3.428,1.47,1.47,0,0,0-1.265.024,9.434,9.434,0,0,0-5.506,5.271,9.305,9.305,0,0,0,11.773,12.422l1.131-.4a14.827,14.827,0,0,0,.819,4.707,5.548,5.548,0,0,0,1.929,3.051l-1.131.4a9.561,9.561,0,0,0-5.746,12.05,9.56,9.56,0,0,0,12.047,5.737l1.131-.4a13.792,13.792,0,0,0,.688,4.339,6.461,6.461,0,0,0,2.06,3.419l-1.131.4a9.6,9.6,0,0,0-6.239,9.7h18.831A11.865,11.865,0,0,0,360.38,362.091ZM349.23,254.541l-0.66.234a7.611,7.611,0,0,0-.412-3.259c-0.234-.66-0.784-1.314-1.054-2.077l0.283-.1a13.192,13.192,0,0,0,3.8-2.193,18.242,18.242,0,0,0,.379,3.165,20.506,20.506,0,0,0,2.1,3.838A8.235,8.235,0,0,0,349.23,254.541ZM348.3,295.227a9.587,9.587,0,0,0-3.862-4.913,11.8,11.8,0,0,0,6.628-.216l0.377-.134a10.82,10.82,0,0,0,.552,3.953,9.8,9.8,0,0,0,1.419,2.807,8.967,8.967,0,0,0-4.669,3.351A10.618,10.618,0,0,0,348.3,295.227Zm6.257-56.311a7.511,7.511,0,0,0-.284-3.2,6.172,6.172,0,0,0-1.282-2.421,7.107,7.107,0,0,0,3.165-.379,3.656,3.656,0,0,0,.294,2.028,4.9,4.9,0,0,0,1.148,2.044A11.084,11.084,0,0,0,354.558,238.916Zm1.6-48.38,0.771,2.177,0.938,2.649a6.854,6.854,0,0,0-2.782.561l-0.8-2.272-0.634-1.791A6.7,6.7,0,0,0,356.156,190.536Zm-4.193-83.386,0.4,1.141,0.638,1.8c-0.377.134-.891-0.119-1.268,0.014l-0.5-1.414-0.4-1.141Zm-0.1,42.1a6.16,6.16,0,0,0,.489,2.278,4.7,4.7,0,0,0,.954,1.794,1.84,1.84,0,0,0-1.29.881l-0.8-2.272a6.394,6.394,0,0,0-1.282-2.421C350.694,149.239,351.2,149.483,351.864,149.249Zm-5.95,65.262a6.793,6.793,0,0,0-.284-3.2,11.873,11.873,0,0,0-2.063-3.428,11.085,11.085,0,0,0,3.576-.418,8.387,8.387,0,0,0,.665,3.075,5.073,5.073,0,0,0,1.178,2.129C347.978,213.451,346.941,213.818,345.914,214.511Zm-6.661,55.17a9.808,9.808,0,0,0-3.862-4.912,11.8,11.8,0,0,0,6.628-.216l0.377-.134a11.3,11.3,0,0,0,.551,3.953,9.2,9.2,0,0,0,1.419,2.807,8.966,8.966,0,0,0-4.669,3.351A10.3,10.3,0,0,0,339.253,269.682Zm-9.015-25.45a11.249,11.249,0,0,0-2.06-3.418,10.776,10.776,0,0,0,5.227-.578,6.172,6.172,0,0,0,.528,2.688,8.6,8.6,0,0,0,1.415,2.8,9.522,9.522,0,0,0-4.7,3.266A9.944,9.944,0,0,0,330.237,244.231Zm1.329-39.554a1.117,1.117,0,0,0-.523.62,11.829,11.829,0,0,0-.415-3.269c-0.234-.66-0.917-1.691-1.188-2.454l0.283-.1a8.092,8.092,0,0,0,3.8-2.193,15.575,15.575,0,0,0,.512,3.542,18.828,18.828,0,0,0,2,3.556A7.512,7.512,0,0,0,331.567,204.677Zm6.926,20.451,0.283-.1a8.005,8.005,0,0,0,3.792-2.2,14.567,14.567,0,0,0,.512,3.542c0.271,0.763.915,1.384,1.148,2.044a16.323,16.323,0,0,0-3.88,1.056l-0.283.1-0.671-1.895Zm8.614-60.138,0.8,2.272,0.9,2.555a6.853,6.853,0,0,0-2.782.561l-0.771-2.177-0.671-1.895A6.853,6.853,0,0,0,347.107,164.991ZM342.947,81.7l0.371,1.046,0.668,1.885c-0.377.134-.888-0.11-1.265,0.024l-0.534-1.508L341.816,82.1Zm-0.132,42a6.684,6.684,0,0,0,.522,2.372,4.5,4.5,0,0,0,.921,1.7,1.839,1.839,0,0,0-1.29.881L342.2,126.48a6.854,6.854,0,0,0-1.315-2.515C341.645,123.695,342.155,123.938,342.815,123.7ZM336.9,189.061a7.558,7.558,0,0,0-.288-3.208,10.82,10.82,0,0,0-2.06-3.418,10.9,10.9,0,0,0,3.542-.512,8.86,8.86,0,0,0,.695,3.159,4.9,4.9,0,0,0,1.148,2.044C338.929,187.907,337.892,188.274,336.9,189.061Zm1.194-49.521,0.771,2.177,0.938,2.649a6.853,6.853,0,0,0-2.782.561l-0.8-2.272-0.638-1.8A6.854,6.854,0,0,0,338.092,139.54ZM333.9,56.155l0.4,1.141,0.634,1.791a1.47,1.47,0,0,1-1.265.024l-0.5-1.414-0.4-1.141Zm-0.1,42.1a5.86,5.86,0,0,0,.489,2.278,3.874,3.874,0,0,0,.954,1.794,10.774,10.774,0,0,0-1.29.881l-0.8-2.272a6.371,6.371,0,0,0-1.282-2.421C332.63,98.244,333.14,98.488,333.8,98.254Zm-5.954,65.253a6.758,6.758,0,0,0-.284-3.2,13.621,13.621,0,0,0-2.06-3.418,11.085,11.085,0,0,0,3.576-.418,8.333,8.333,0,0,0,.661,3.065,5.093,5.093,0,0,0,1.182,2.138C329.881,162.362,328.844,162.729,327.846,163.507Zm-6.254,56.32A9.324,9.324,0,0,0,317.761,215a12.523,12.523,0,0,0,6.6-.31,13.077,13.077,0,0,0,.932,3.829,8.1,8.1,0,0,0,1.415,2.8,8.966,8.966,0,0,0-4.669,3.351A10.3,10.3,0,0,0,321.593,219.827Zm-9.019-25.46a9.609,9.609,0,0,0-3.862-4.912,9.15,9.15,0,0,0,6.628-.216,12.694,12.694,0,0,0,.928,3.819,8.649,8.649,0,0,0,1.419,2.807,12.715,12.715,0,0,0-4.669,3.351A9.467,9.467,0,0,0,312.574,194.367Zm-9.049-25.545A10.193,10.193,0,0,0,299.7,164a10.028,10.028,0,0,0,6.729.067,10.54,10.54,0,0,0,.795,3.442,7.124,7.124,0,0,0,1.415,2.8,12.723,12.723,0,0,0-4.666,3.361A9.2,9.2,0,0,0,303.525,168.823Zm1.062-40.308-0.66.234a8.749,8.749,0,0,0-.379-3.165c-0.267-.754-0.82-1.417-1.088-2.172l0.283-.1a15.136,15.136,0,0,0,3.826-2.108,8.467,8.467,0,0,0,.382,3.175,15.137,15.137,0,0,0,1.965,3.452A13.192,13.192,0,0,0,304.587,128.515Zm9.049,25.545-0.66.234a9.277,9.277,0,0,0-.412-3.26c-0.234-.66-0.787-1.323-1.054-2.077l0.283-.1a8.486,8.486,0,0,0,3.662-2.57,15.579,15.579,0,0,0,.512,3.542,16.862,16.862,0,0,0,1.965,3.452C316.662,152.988,315.154,153.522,313.636,154.059Zm9.019,25.46-0.66.234a8.8,8.8,0,0,0-.382-3.175c-0.267-.754-0.954-1.794-1.188-2.454l0.283-.1a8.092,8.092,0,0,0,3.8-2.193,13.667,13.667,0,0,0,.512,3.542,17.95,17.95,0,0,0,1.969,3.461C325.681,178.447,324.172,178.982,322.655,179.519ZM329.043,114l0.8,2.272,0.9,2.555a6.853,6.853,0,0,0-2.782.561l-0.771-2.177-0.671-1.895A6.853,6.853,0,0,0,329.043,114ZM324.884,30.7l0.367,1.037,0.671,1.895-1.131.4-0.671-1.895-0.367-1.037Zm-0.132,42a6.659,6.659,0,0,0,.522,2.372,3.684,3.684,0,0,0,.921,1.7,10.989,10.989,0,0,0-1.293.872l-0.768-2.168a6.853,6.853,0,0,0-1.315-2.515A3.492,3.492,0,0,0,324.751,72.709Zm-5.787,65.724a11.8,11.8,0,0,0-.418-3.576,12.907,12.907,0,0,0-2.06-3.418,14.471,14.471,0,0,0,3.542-.512,8.833,8.833,0,0,0,.695,3.159,7.664,7.664,0,0,0,1.282,2.421A5.663,5.663,0,0,0,318.965,138.433Zm1.063-49.888,0.771,2.177,0.938,2.649a6.853,6.853,0,0,0-2.782.561l-0.8-2.272-0.638-1.8A6.855,6.855,0,0,0,320.028,88.545ZM315.835,5.16l0.4,1.131,0.638,1.8-1.131.4-0.638-1.8L314.7,5.56Zm-0.1,42.1a5.833,5.833,0,0,0,.485,2.268,3.855,3.855,0,0,0,.954,1.794,13.729,13.729,0,0,0-1.323.787l-0.771-2.177A7.133,7.133,0,0,0,313.8,47.51,3.421,3.421,0,0,0,315.736,47.259Zm-5.82,65.63a10.556,10.556,0,0,0-.418-3.576,13.551,13.551,0,0,0-2.06-3.419,11.362,11.362,0,0,0,3.576-.418,9.408,9.408,0,0,0,.661,3.065,6.173,6.173,0,0,0,1.282,2.421A11.086,11.086,0,0,0,309.916,112.889ZM310.979,63l0.8,2.272,0.9,2.545c-0.754.267-2.028,0.294-2.782,0.561l-0.768-2.168L308.6,64.693A7.462,7.462,0,0,0,310.979,63Zm-4.3-41.3a6.423,6.423,0,0,0,.489,2.278,3.855,3.855,0,0,0,.954,1.794,2.578,2.578,0,0,1-1.29.881l-0.8-2.272-0.9-2.554A1.839,1.839,0,0,0,306.684,21.7Zm-4.59,16.213,0.638,1.8,0.938,2.649c-0.754.267-2.028,0.294-2.782,0.561l-0.8-2.272-0.5-1.414C300.336,38.975,301.34,38.185,302.094,37.918Zm0,42.391a6.853,6.853,0,0,0,.561,2.782,5.749,5.749,0,0,0,1.282,2.421,11.084,11.084,0,0,0-3.041,1.926,11.87,11.87,0,0,0-.418-3.576,14.346,14.346,0,0,0-2.1-3.522C299.785,80.694,300.821,80.327,302.1,80.309Zm-4.2,18.524a13.692,13.692,0,0,0,1.965,3.452,13.349,13.349,0,0,0-4.3.779l-0.66.234a9.325,9.325,0,0,0-.412-3.259c-0.237-.669-0.787-1.323-1.054-2.077l0.283-.1a15.225,15.225,0,0,0,3.792-2.2A9.549,9.549,0,0,0,297.9,98.833Zm-3.393,44.539a11.638,11.638,0,0,0-3.862-4.912,9.488,9.488,0,0,0,6.729.067l0.377-.134a5.96,5.96,0,0,0,.451,3.67,7.591,7.591,0,0,0,1.416,2.8,14.166,14.166,0,0,0-4.7,3.266A7.909,7.909,0,0,0,294.51,143.372Zm-1.465-131,0.671,1.895,0.9,2.555c-0.754.267-2.028,0.294-2.782,0.561l-0.771-2.177L290.534,13.7C291.288,13.431,292.291,12.64,293.045,12.373Zm0.035,42.476a6.194,6.194,0,0,0,.528,2.688,5.392,5.392,0,0,0,1.285,2.43,11.085,11.085,0,0,0-3.041,1.926,11.2,11.2,0,0,0-.421-3.585,13.621,13.621,0,0,0-2.06-3.418C290.773,55.253,291.809,54.886,293.08,54.849Zm-4.192,18.533a15.217,15.217,0,0,0,1.965,3.452,13.191,13.191,0,0,0-4.33.685l-0.66.234a8.8,8.8,0,0,0-.379-3.165c-0.27-.763-0.82-1.417-1.088-2.172l0.283-.1a20.318,20.318,0,0,0,3.826-2.108A8.467,8.467,0,0,0,288.888,73.383Zm-3.427,44.445a11.949,11.949,0,0,0-3.862-4.912,9.586,9.586,0,0,0,6.759.152l0.377-.134a5.707,5.707,0,0,0,.421,3.585,7.124,7.124,0,0,0,1.415,2.8,12.715,12.715,0,0,0-4.669,3.351A8.194,8.194,0,0,0,285.461,117.828ZM284.032,29.3a6.646,6.646,0,0,0,.528,2.688,6.017,6.017,0,0,0,1.319,2.525,10.82,10.82,0,0,0-3.041,1.926,11.8,11.8,0,0,0-.455-3.679,18.056,18.056,0,0,0-2.06-3.418C281.721,29.7,282.757,29.332,284.032,29.3Zm-4.2,18.524A13.767,13.767,0,0,0,281.8,51.29a13.349,13.349,0,0,0-4.3.779l-0.66.234a7.659,7.659,0,0,0-.415-3.269c-0.267-.754-0.784-1.314-1.051-2.068l0.283-.1a15.582,15.582,0,0,0,3.792-2.2A9.546,9.546,0,0,0,279.836,47.829Zm-3.39,44.549a9.069,9.069,0,0,0-3.728-4.535,11.694,11.694,0,0,0,6.592-.319l0.377-.134a6,6,0,0,0,.455,3.679,7.613,7.613,0,0,0,1.415,2.8,9.887,9.887,0,0,0-4.565,3.643A10.35,10.35,0,0,0,276.446,92.377Zm-1.43-88.523a7.149,7.149,0,0,0,.665,3.075,4.682,4.682,0,0,0,1.145,2.034,10.838,10.838,0,0,0-3.038,1.935,9,9,0,0,0-.284-3.2,10.83,10.83,0,0,0-2.063-3.428A11.084,11.084,0,0,0,275.016,3.854Zm-8.4,17.458a16.79,16.79,0,0,0,3.829-2.1,10.824,10.824,0,0,0,.379,3.165,15.218,15.218,0,0,0,1.969,3.461,13.178,13.178,0,0,0-4.333.676l-0.66.234a7.459,7.459,0,0,0-.379-3.165c-0.267-.754-0.817-1.408-1.088-2.172Zm3.681,40.76,0.377-.134a5.692,5.692,0,0,0,.418,3.576,7.4,7.4,0,0,0,1.419,2.807,9.293,9.293,0,0,0-4.532,3.738,10.788,10.788,0,0,0-.582-5.236,9.347,9.347,0,0,0-3.728-4.535A11.717,11.717,0,0,0,270.294,62.072Zm-9.049-25.545,0.377-.134a5.825,5.825,0,0,0,.418,3.576,11.194,11.194,0,0,0,1.586,3.279,9.589,9.589,0,0,0-4.7,3.257,10.444,10.444,0,0,0-.578-5.227,9.06,9.06,0,0,0-3.695-4.441A12.522,12.522,0,0,0,261.246,36.527Zm-9.015-25.45,0.377-.134c-0.387,1.3.017,2.445,0.555,3.962a9.467,9.467,0,0,0,1.416,2.8,8.966,8.966,0,0,0-4.669,3.351,10.612,10.612,0,0,0-.442-4.84,9.6,9.6,0,0,0-3.865-4.922A11.716,11.716,0,0,0,252.23,11.077Zm-6.776,24.446-1.423.5a11.876,11.876,0,0,0-.555-3.962,8.417,8.417,0,0,0-1.793-2.664l1.423-.5a8.239,8.239,0,0,0,4.669-3.351,10.186,10.186,0,0,0,.432,4.844,9.33,9.33,0,0,0,3.841,4.824A11.445,11.445,0,0,0,245.454,35.523Zm9.015,25.45-1.423.5a10.876,10.876,0,0,0-.555-3.962,7.553,7.553,0,0,0-1.792-2.664l1.423-.5A8.967,8.967,0,0,0,256.791,51a10.5,10.5,0,0,0,.432,4.844,9.623,9.623,0,0,0,3.875,4.919A10.747,10.747,0,0,0,254.469,60.973Zm9.049,25.545-1.423.5a11.868,11.868,0,0,0-.551-3.953,6.8,6.8,0,0,0-1.8-2.674l1.423-.5a8.966,8.966,0,0,0,4.669-3.351,10.194,10.194,0,0,0,.435,4.853,9.323,9.323,0,0,0,3.838,4.815A11.444,11.444,0,0,0,263.518,86.518Zm9.015,25.45-1.423.5a10.818,10.818,0,0,0-.551-3.953,7.558,7.558,0,0,0-1.8-2.674l1.423-.5a12.715,12.715,0,0,0,4.669-3.351,9.345,9.345,0,0,0,.436,4.853,9.593,9.593,0,0,0,3.871,4.909A10.747,10.747,0,0,0,272.533,111.968Zm8.915,25.168c-0.387.137-.913,0.748-1.29,0.881a11.813,11.813,0,0,0-.552-3.953,6.8,6.8,0,0,0-1.8-2.674l1.423-.5a12.714,12.714,0,0,0,4.669-3.351,9.111,9.111,0,0,0,.435,4.853,10.229,10.229,0,0,0,3.838,4.815A9.227,9.227,0,0,0,281.448,137.136ZM290.5,162.68c-0.386.137-.946,0.653-1.323,0.787a12.968,12.968,0,0,0-.551-3.953,11.8,11.8,0,0,0-1.926-3.041,2.745,2.745,0,0,0,1.557-.127,14.167,14.167,0,0,0,4.7-3.266,7.835,7.835,0,0,0,.4,4.759,11.655,11.655,0,0,0,3.871,4.909A8.821,8.821,0,0,0,290.5,162.68Zm9.015,25.45a2.119,2.119,0,0,0-1.286.891,13.686,13.686,0,0,0-.555-3.962,10.559,10.559,0,0,0-1.926-3.041,2.745,2.745,0,0,0,1.557-.127,12.589,12.589,0,0,0,4.666-3.361,8.173,8.173,0,0,0,.435,4.853,11.937,11.937,0,0,0,3.871,4.909A8.9,8.9,0,0,0,299.512,188.131Zm9.052,25.554a2.159,2.159,0,0,0-1.29.881,14.349,14.349,0,0,0-.588-4.056,11.8,11.8,0,0,0-1.926-3.041,2.746,2.746,0,0,0,1.557-.127,9.887,9.887,0,0,0,4.565-3.643,10.271,10.271,0,0,0,.536,5.136,9.13,9.13,0,0,0,3.741,4.542A10.694,10.694,0,0,0,308.564,213.685Zm8.611,24.31a1.286,1.286,0,0,0-.913.748c-0.367-1.037-.257-1.924-0.528-2.688a11.146,11.146,0,0,0-1.926-3.041,7.9,7.9,0,0,1,1.557-.127,9.347,9.347,0,0,0,4.535-3.728,10.6,10.6,0,0,0,.566,5.221,13.372,13.372,0,0,0,2.072,3.424A10.711,10.711,0,0,0,317.175,237.995Zm9.052,25.554-1.423.5a11.955,11.955,0,0,0-.588-4.056,12.889,12.889,0,0,0-1.792-2.664l1.423-.5a8.726,8.726,0,0,0,4.7-3.266,9.87,9.87,0,0,0,.4,4.759,9.571,9.571,0,0,0,3.871,4.909A10.76,10.76,0,0,0,326.227,263.549Zm9.012,25.441-1.423.5a11.251,11.251,0,0,0-.551-3.953,8.415,8.415,0,0,0-1.793-2.664l1.423-.5a8.19,8.19,0,0,0,4.666-3.361,10.255,10.255,0,0,0,.435,4.853,9.793,9.793,0,0,0,3.871,4.909A10.817,10.817,0,0,0,335.239,288.99Zm9.052,25.554-1.423.5a11.872,11.872,0,0,0-.555-3.962,9.47,9.47,0,0,0-1.826-2.759l1.423-.5a8.726,8.726,0,0,0,4.7-3.266,9.956,9.956,0,0,0,.435,4.853,9.5,9.5,0,0,0,3.838,4.815A10.76,10.76,0,0,0,344.291,314.544Zm9.015,25.45-1.423.5a11.349,11.349,0,0,0-.552-3.953,7.126,7.126,0,0,0-1.8-2.674l1.423-.5a8.239,8.239,0,0,0,4.669-3.351,10.193,10.193,0,0,0,.435,4.853,9.786,9.786,0,0,0,3.868,4.9A10.811,10.811,0,0,0,353.307,339.995Z"/></svg>