<?xml version="1.0" encoding="utf-8"?>
<!-- Generator: Adobe Illustrator 16.0.0, SVG Export Plug-In . SVG Version: 6.00 Build 0)  -->
<!DOCTYPE svg PUBLIC "-//W3C//DTD SVG 1.1//EN" "http://www.w3.org/Graphics/SVG/1.1/DTD/svg11.dtd">
<svg version="1.1" id="Layer_1" xmlns="http://www.w3.org/2000/svg" xmlns:xlink="http://www.w3.org/1999/xlink" x="0px" y="0px"
	 width="480px" height="400px" viewBox="0 0 480 400" enable-background="new 0 0 480 400" xml:space="preserve">
<g>
	<path fill="#F5F5F5" d="M88.285,139.936c0.468,0.288,1.151,0.528,1.871,0.528c1.067,0,1.691-0.563,1.691-1.379
		c0-0.755-0.432-1.187-1.523-1.607c-1.319-0.468-2.135-1.151-2.135-2.291c0-1.259,1.043-2.195,2.615-2.195
		c0.828,0,1.427,0.192,1.787,0.396l-0.288,0.852c-0.264-0.144-0.803-0.384-1.535-0.384c-1.103,0-1.523,0.66-1.523,1.211
		c0,0.755,0.492,1.127,1.607,1.559c1.368,0.528,2.063,1.188,2.063,2.375c0,1.248-0.923,2.327-2.831,2.327
		c-0.779,0-1.631-0.228-2.062-0.516L88.285,139.936z"/>
	<path fill="#F5F5F5" d="M99.633,138.257c0,2.146-1.487,3.082-2.89,3.082c-1.571,0-2.783-1.151-2.783-2.986
		c0-1.943,1.271-3.082,2.878-3.082C98.506,135.271,99.633,136.481,99.633,138.257z M95.028,138.316c0,1.271,0.732,2.231,1.763,2.231
		c1.007,0,1.763-0.947,1.763-2.255c0-0.983-0.492-2.23-1.739-2.23C95.568,136.062,95.028,137.213,95.028,138.316z"/>
	<path fill="#F5F5F5" d="M100.968,137.213c0-0.684-0.012-1.271-0.048-1.811h0.923l0.036,1.139h0.048
		c0.264-0.779,0.899-1.271,1.607-1.271c0.12,0,0.204,0.012,0.3,0.036v0.996c-0.108-0.024-0.216-0.036-0.36-0.036
		c-0.744,0-1.271,0.564-1.416,1.355c-0.024,0.144-0.048,0.312-0.048,0.492v3.094h-1.043V137.213z"/>
	<path fill="#F5F5F5" d="M104.94,137.213c0-0.684-0.012-1.271-0.048-1.811h0.923l0.036,1.139h0.048
		c0.264-0.779,0.899-1.271,1.607-1.271c0.12,0,0.204,0.012,0.3,0.036v0.996c-0.108-0.024-0.216-0.036-0.359-0.036
		c-0.744,0-1.271,0.564-1.416,1.355c-0.024,0.144-0.048,0.312-0.048,0.492v3.094h-1.043V137.213z"/>
	<path fill="#F5F5F5" d="M109.548,135.402l1.271,3.43c0.132,0.384,0.276,0.839,0.372,1.187h0.024
		c0.108-0.348,0.228-0.792,0.372-1.211l1.151-3.406h1.115l-1.583,4.138c-0.756,1.991-1.271,3.01-1.991,3.634
		c-0.516,0.456-1.031,0.636-1.295,0.684l-0.264-0.887c0.264-0.084,0.612-0.252,0.924-0.516c0.288-0.228,0.647-0.635,0.887-1.175
		c0.048-0.108,0.084-0.192,0.084-0.251c0-0.06-0.024-0.144-0.072-0.276l-2.147-5.349H109.548z"/>
	<path fill="#F5F5F5" d="M114.612,140.595c0-0.432,0.3-0.744,0.708-0.744c0.432,0,0.708,0.312,0.708,0.744
		c0,0.42-0.276,0.744-0.708,0.744C114.9,141.339,114.612,141.015,114.612,140.595z M114.912,138.88l-0.168-5.757h1.151l-0.168,5.757
		H114.912z"/>
	<path fill="#F5F5F5" d="M88.429,155.607v-8.083h1.139l2.591,4.09c0.6,0.947,1.067,1.799,1.451,2.626l0.024-0.012
		c-0.096-1.079-0.12-2.062-0.12-3.322v-3.382h0.983v8.083h-1.055l-2.567-4.102c-0.563-0.9-1.103-1.823-1.511-2.699l-0.036,0.012
		c0.06,1.019,0.084,1.991,0.084,3.334v3.454H88.429z"/>
	<path fill="#F5F5F5" d="M96.325,155.607v-8.083h1.139l2.591,4.09c0.6,0.947,1.067,1.799,1.451,2.626l0.024-0.012
		c-0.096-1.079-0.12-2.062-0.12-3.322v-3.382h0.983v8.083h-1.055l-2.566-4.102c-0.564-0.9-1.104-1.823-1.511-2.699l-0.036,0.012
		c0.06,1.019,0.084,1.991,0.084,3.334v3.454H96.325z"/>
	<path fill="#F5F5F5" d="M109.437,152.657c0,2.146-1.487,3.082-2.89,3.082c-1.571,0-2.783-1.151-2.783-2.986
		c0-1.943,1.271-3.082,2.878-3.082C108.31,149.67,109.437,150.881,109.437,152.657z M104.832,152.716
		c0,1.271,0.732,2.231,1.763,2.231c1.007,0,1.763-0.947,1.763-2.255c0-0.983-0.492-2.23-1.739-2.23
		C105.372,150.462,104.832,151.613,104.832,152.716z"/>
	<path fill="#F5F5F5" d="M113.208,154.335c0.468,0.288,1.151,0.528,1.871,0.528c1.067,0,1.691-0.563,1.691-1.379
		c0-0.755-0.432-1.187-1.523-1.607c-1.319-0.468-2.135-1.151-2.135-2.291c0-1.259,1.043-2.195,2.614-2.195
		c0.828,0,1.427,0.192,1.787,0.396l-0.288,0.852c-0.264-0.144-0.803-0.384-1.535-0.384c-1.103,0-1.523,0.66-1.523,1.211
		c0,0.755,0.492,1.127,1.607,1.559c1.367,0.528,2.063,1.188,2.063,2.375c0,1.247-0.923,2.327-2.831,2.327
		c-0.779,0-1.631-0.228-2.062-0.516L113.208,154.335z"/>
	<path fill="#F5F5F5" d="M119.232,147.092h1.056v8.515h-1.056V147.092z"/>
	<path fill="#F5F5F5" d="M123.239,148.171c0.012,0.36-0.252,0.648-0.671,0.648c-0.372,0-0.636-0.288-0.636-0.648
		c0-0.372,0.276-0.66,0.66-0.66C122.987,147.511,123.239,147.799,123.239,148.171z M122.064,155.607v-5.805h1.056v5.805H122.064z"/>
	<path fill="#F5F5F5" d="M129.885,147.092v7.016c0,0.516,0.012,1.103,0.048,1.499h-0.947l-0.048-1.007h-0.024
		c-0.324,0.647-1.032,1.139-1.979,1.139c-1.403,0-2.483-1.187-2.483-2.95c-0.012-1.931,1.188-3.118,2.603-3.118
		c0.888,0,1.487,0.419,1.751,0.887h0.024v-3.466H129.885z M128.83,152.165c0-0.132-0.012-0.312-0.048-0.444
		c-0.156-0.672-0.731-1.224-1.523-1.224c-1.091,0-1.739,0.959-1.739,2.243c0,1.175,0.576,2.146,1.715,2.146
		c0.708,0,1.355-0.468,1.547-1.259c0.036-0.144,0.048-0.288,0.048-0.456V152.165z"/>
	<path fill="#F5F5F5" d="M132.228,152.896c0.024,1.427,0.935,2.015,1.991,2.015c0.755,0,1.211-0.132,1.607-0.3l0.18,0.756
		c-0.372,0.168-1.007,0.36-1.931,0.36c-1.787,0-2.854-1.175-2.854-2.927c0-1.751,1.032-3.13,2.723-3.13
		c1.895,0,2.399,1.667,2.399,2.734c0,0.216-0.024,0.384-0.036,0.492H132.228z M135.322,152.141c0.012-0.671-0.276-1.715-1.463-1.715
		c-1.067,0-1.535,0.983-1.619,1.715H135.322z"/>
	<path fill="#F5F5F5" d="M137.508,154.527c0.312,0.204,0.864,0.42,1.392,0.42c0.768,0,1.127-0.384,1.127-0.863
		c0-0.504-0.3-0.78-1.079-1.067c-1.043-0.372-1.535-0.948-1.535-1.644c0-0.935,0.755-1.703,2.003-1.703
		c0.587,0,1.104,0.167,1.427,0.359l-0.264,0.768c-0.228-0.144-0.647-0.335-1.187-0.335c-0.624,0-0.972,0.36-0.972,0.792
		c0,0.479,0.348,0.695,1.104,0.983c1.007,0.384,1.523,0.888,1.523,1.751c0,1.02-0.792,1.739-2.171,1.739
		c-0.635,0-1.223-0.156-1.631-0.396L137.508,154.527z"/>
</g>
<rect x="-9.035" y="-60.172" fill="#F5F5F5" stroke="#000000" stroke-miterlimit="10" width="497.242" height="516.551"/>
<g>
	<path fill="#D1D3D4" d="M121.066,155.915h13.578c0,6.132,6.132,7.154,9.197,7.3c2.555,0,6.205-0.584,6.205-3.65
		c0-5.694-28.031-3.285-28.031-21.899c0-10.804,10.22-15.695,17.374-15.695c6.132,0,12.336,1.971,15.256,7.446l0.73-6.132h12.556
		v18.322h-13.213c0-5.402-4.234-8.468-9.344-8.468c-2.117,0-5.037,1.314-5.037,3.869c0,7.519,28.907,5.767,28.907,22.921
		c0,11.388-10.657,15.476-19.344,15.476c-7.373,0-12.483-3.431-15.256-6.716l-0.803,5.621h-12.775V155.915z"/>
	<path fill="#D1D3D4" d="M171.874,155.915c0.073-12.19,9.928-18.979,20.002-18.979c11.533,0.146,20.074,7.081,20.293,19.271
		c0.146,12.118-8.833,19.053-19.928,19.053C181.802,175.26,171.729,168.836,171.874,155.915z M197.205,156.207
		c0-5.475-1.898-9.709-5.329-9.782c-2.847,0-5.037,4.234-5.037,9.563c0,5.985,2.336,9.928,5.402,9.928
		C195.38,165.916,197.205,161.682,197.205,156.207z"/>
	<path fill="#D1D3D4" d="M214.797,174.311v-9.562h3.212v-17.447h-3.139v-9.49h13.724l2.189,4.672
		c1.898-3.504,3.797-6.497,11.315-6.497v13.14c-6.57,0-10.293,1.679-10.293,8.103v7.519h3.649v9.562H214.797z"/>
	<path fill="#D1D3D4" d="M245.019,174.311v-9.562h3.212v-17.447h-3.139v-9.49h13.723l2.19,4.672
		c1.897-3.504,3.796-6.497,11.314-6.497v13.14c-6.569,0-10.292,1.679-10.292,8.103v7.519h3.649v9.562H245.019z"/>
	<path fill="#D1D3D4" d="M299.767,147.082v-9.271h18.542v9.052h-3.504l-13.87,33.725c-2.117,4.526-5.11,10.366-15.694,10.292
		c-3.796-0.219-6.643-1.752-8.833-3.649l5.475-8.614c1.241,1.095,2.701,2.19,4.234,2.482c2.263,0.438,3.941-1.679,4.672-3.869
		l1.021-3.066l-14.234-27.009h-2.993v-9.344h22.483v9.271h-3.431l4.745,11.388l4.745-11.388H299.767z"/>
	<path fill="#D1D3D4" d="M329.77,159.127c5.183,0,8.687,3.577,8.687,7.738c0,4.088-3.358,7.519-8.687,7.519
		c-4.745,0-8.322-3.723-8.322-7.519C321.447,163.215,324.514,159.127,329.77,159.127z M321.739,123.285h17.446v13.869l-3.869,18.396
		h-9.635l-3.942-18.396V123.285z"/>
	<path fill="#D1D3D4" d="M154.045,204.549v27.361h-10.321l-12.241-18.289v12.098h3.696v6.191h-14.737v-6.191h2.832v-21.17h-2.784
		v-6.193h13.777l11.761,17.617v-11.424h-3.264v-6.193h14.449v6.193H154.045z"/>
	<path fill="#D1D3D4" d="M158.937,219.813c0.048-8.017,6.529-12.481,13.153-12.481c7.584,0.097,13.201,4.656,13.345,12.674
		c0.096,7.969-5.809,12.529-13.105,12.529C165.466,232.535,158.841,228.311,158.937,219.813z M175.595,220.006
		c0-3.601-1.248-6.385-3.504-6.433c-1.872,0-3.312,2.784-3.312,6.288c0,3.937,1.536,6.529,3.552,6.529
		C174.395,226.391,175.595,223.605,175.595,220.006z"/>
	<path fill="#D1D3D4" d="M199.161,219.813h8.929c0,4.032,4.032,4.704,6.049,4.801c1.68,0,4.08-0.384,4.08-2.4
		c0-3.744-18.434-2.16-18.434-14.401c0-7.104,6.721-10.321,11.425-10.321c4.032,0,8.113,1.296,10.033,4.897l0.479-4.033h8.257
		v12.048h-8.688c0-3.552-2.784-5.568-6.145-5.568c-1.393,0-3.312,0.864-3.312,2.545c0,4.944,19.01,3.792,19.01,15.072
		c0,7.489-7.009,10.178-12.721,10.178c-4.849,0-8.209-2.256-10.033-4.416l-0.528,3.695h-8.4V219.813z"/>
	<path fill="#D1D3D4" d="M233.241,231.91v-6.288h2.064V202.1h-2.017v-6.192h11.137v29.714h2.833v6.288H233.241z"/>
	<path fill="#D1D3D4" d="M249.176,231.91v-6.288h2.016v-11.474h-2.016v-6.24h11.137v17.714h2.305v6.288H249.176z M255.704,196.003
		c3.312,0,5.28,2.688,5.28,4.896c0,2.64-1.872,4.848-5.28,4.848c-3.024,0-5.185-2.544-5.185-4.848
		C250.52,198.692,252.344,196.003,255.704,196.003z"/>
	<path fill="#D1D3D4" d="M279.272,202.148v-6.241h11.953v29.762h2.305v6.24h-11.233l-0.816-1.775
		c-0.624,0.576-2.735,2.208-6.048,2.208c-6.769,0-11.137-6.001-11.137-12.673c0-7.488,5.232-12.241,11.137-12.241
		c3.408,0,5.137,1.248,6.048,1.824v-7.104H279.272z M278.072,225.574c1.873,0,3.601-2.353,3.408-6.145
		c0-3.265-1.632-5.761-3.456-5.761c-2.016,0-3.408,2.353-3.408,6.001C274.616,222.55,275.961,225.574,278.072,225.574z"/>
	<path fill="#D1D3D4" d="M319.544,228.598c-3.552,3.072-7.393,4.178-12.385,4.178c-5.952,0-12.673-3.793-12.673-13.01
		c0-7.873,5.664-12.529,12.913-12.529c5.712,0,10.081,2.928,11.473,6.961c0.576,1.68,1.104,5.377,0.096,8.112h-15.121
		c0.288,1.296,0.912,3.937,4.944,3.937c1.633,0,4.129-0.145,6.721-2.305L319.544,228.598z M311.239,217.558
		c-0.048-1.824-0.479-3.841-3.552-3.841c-2.929,0-3.601,2.641-3.696,3.841H311.239z"/>
	<path fill="#D1D3D4" d="M320.981,223.27h6.433c0,2.545,3.648,3.217,5.089,3.217c0.96,0,2.112-0.288,2.112-1.633
		c0-1.439-3.601-1.68-7.057-2.88c-3.265-1.151-6.385-3.168-6.385-7.681c0-4.896,5.04-6.961,8.448-6.961
		c3.265,0,6.145,1.681,7.153,3.744l0.384-3.168h5.904v8.641h-6.24c0-2.016-2.496-3.648-4.896-3.648
		c-1.008,0-1.872,0.529-1.872,1.729c0,1.344,2.832,1.92,5.904,2.977c3.648,1.248,7.729,2.641,7.729,7.681
		c0,4.513-4.272,7.2-8.929,7.2c-3.456,0-6.192-1.68-7.345-3.504l-0.432,2.928h-6.001V223.27z"/>
</g>
<g>
</g>
<g>
</g>
<g>
</g>
<g>
</g>
<g>
</g>
<g>
</g>
</svg>
