<svg width="109" height="109" viewBox="0 0 109 109" fill="none" xmlns="http://www.w3.org/2000/svg">
<circle cx="54.5" cy="54.5" r="54.5" fill="white"/>
<path fill-rule="evenodd" clip-rule="evenodd" d="M54.5 79.6578C54.2247 79.7115 53.9392 79.7291 53.6497 79.7076C44.7089 79.0382 36.2462 74.1663 31.4246 65.9271C26.6028 57.6879 26.5573 48.0216 30.4404 40.0482C31.0042 38.8906 32.2263 38.1945 33.5244 38.2917C36.8562 38.5411 40.1216 39.3741 43.157 40.7476C45.4474 36.3417 48.836 32.5833 52.9664 29.8238C54.0442 29.1037 55.4542 29.1037 56.532 29.8238C60.6063 32.5458 63.9586 36.2399 66.2474 40.5684C69.1676 39.3015 72.2913 38.53 75.4758 38.2917C76.774 38.1945 77.9959 38.8906 78.5595 40.0482C82.4427 48.0216 82.3972 57.6879 77.5757 65.9271C72.7538 74.1663 64.2912 79.0382 55.3503 79.7076C55.0608 79.7291 54.7753 79.7115 54.5 79.6578ZM61.0506 74.6634C66.4101 72.8653 71.1503 69.216 74.2001 64.0047C78.2598 57.0676 78.3921 48.9563 75.2625 42.1689C72.6929 42.4149 70.1775 43.0633 67.8181 44.087C68.969 47.2107 69.5969 50.5822 69.5969 54.0982C69.5969 62.1118 66.3354 69.3742 61.0506 74.6634ZM62.7967 42.3563C60.8847 38.7351 58.1146 35.6233 54.7492 33.282C51.3116 35.6734 48.4952 38.8687 46.5798 42.5897C49.6283 44.5129 52.3365 47.0428 54.5 50.1255C56.7524 46.9165 59.5948 44.3065 62.7967 42.3563ZM56.7081 53.8547C58.6667 50.5592 61.3042 47.8961 64.3461 45.9399C65.2241 48.5012 65.6996 51.245 65.6996 54.0982C65.6996 60.6854 63.1648 66.6892 58.9977 71.2117C60.1253 65.4989 59.4432 59.4144 56.7081 53.8547ZM52.2918 53.8547C50.4217 50.7073 47.9316 48.1369 45.0618 46.2081C44.2417 48.6924 43.7987 51.3443 43.7987 54.0982C43.7987 60.3476 46.0801 66.072 49.8724 70.5045C48.9347 64.999 49.6694 59.1857 52.2918 53.8547ZM54.5 73.0909C55.9633 68.501 56.0233 63.4935 54.5 58.7466C52.9767 63.4935 53.0371 68.501 54.5 73.0909ZM34.7999 64.0047C37.9883 69.4529 43.0242 73.1934 48.6836 74.8968C43.2599 69.5889 39.9012 62.2307 39.9012 54.0982C39.9012 50.6535 40.5038 47.3478 41.6108 44.2778C39.128 43.1436 36.4635 42.4298 33.7375 42.1689C30.6081 48.9563 30.7403 57.0676 34.7999 64.0047Z" fill="#EF898B"/>
</svg>
