<svg width="20" height="20" viewBox="0 0 20 20" fill="none" xmlns="http://www.w3.org/2000/svg">
<path fill-rule="evenodd" clip-rule="evenodd" d="M6 0H14C17.3137 0 20 2.68629 20 6V14C20 17.3137 17.3137 20 14 20H6C2.68629 20 0 17.3137 0 14V6C0 2.68629 2.68629 0 6 0ZM16 3C16.5 3 17 3.5 17 4C17 4.5 16.5 5 16 5C15.5 5 15 4.5 15 4C15 3.5 15.5 3 16 3ZM15 10C15 7.2425 12.7575 5 10 5C7.2425 5 5 7.2425 5 10C5 12.7575 7.2425 15 10 15C12.7575 15 15 12.7575 15 10ZM10 7C8.34315 7 7 8.34315 7 10C7 11.6569 8.34315 13 10 13C11.6569 13 13 11.6569 13 10C13 8.34315 11.6569 7 10 7Z" fill="white"/>
</svg>
