<svg width="20" height="20" viewBox="0 0 20 20" fill="none" xmlns="http://www.w3.org/2000/svg">
<path fill-rule="evenodd" clip-rule="evenodd" d="M18 0H2C0.89543 0 0 0.89543 0 2V18C0 19.1046 0.89543 20 2 20H18C19.1046 20 20 19.1046 20 18V2C20 0.89543 19.1046 0 18 0ZM4 4.56404C4 5.42749 4.70032 6.12899 5.56637 6.12899C6.4297 6.12899 7.13184 5.42749 7.13184 4.56404C7.13184 3.7015 6.4297 3 5.56637 3C4.70123 3 4 3.70059 4 4.56404ZM4.25044 16H6.93695V7.36366H4.25044V16ZM17 16H14.3153V11.8001C14.3153 10.7984 14.2971 9.51001 12.9192 9.51001C11.5213 9.51001 11.3064 10.6009 11.3064 11.7273V16H8.62172V7.36366H11.1989V8.54374H11.2354C11.5942 7.86499 12.4703 7.14894 13.7771 7.14894C16.4973 7.14894 17 8.93771 17 11.2633V16Z" fill="white"/>
</svg>
