<svg width="104" height="30" viewBox="0 0 104 30" fill="none" xmlns="http://www.w3.org/2000/svg">
<path fill-rule="evenodd" clip-rule="evenodd" d="M20.9479 29.9141L34.2876 16.457L20.9479 3L16.6556 7.33012C14.9731 6.25353 12.9732 5.62942 10.8275 5.62942C4.84762 5.62941 -5.93359e-05 10.4771 -5.98587e-05 16.457C-6.03815e-05 22.4369 4.84762 27.2846 10.8275 27.2846C12.9732 27.2846 14.9731 26.6605 16.6556 25.5839L20.9479 29.9141ZM16.6556 25.5839C19.6621 23.6601 21.6552 20.2913 21.6552 16.457C21.6552 12.6228 19.6622 9.25398 16.6556 7.33012L7.60826 16.457L16.6556 25.5839Z" fill="#00FFD1"/>
<path d="M44.7043 24V10.488H46.6963V22.272H53.7763V24H44.7043ZM56.7223 13.104C56.2903 13.12 56.0023 13.016 55.8583 12.792C55.7143 12.568 55.6423 12.288 55.6423 11.952C55.6423 11.664 55.7143 11.408 55.8583 11.184C56.0023 10.96 56.2903 10.848 56.7223 10.848C57.1383 10.848 57.4183 10.96 57.5623 11.184C57.7223 11.408 57.8023 11.664 57.8023 11.952C57.8023 12.288 57.7223 12.568 57.5623 12.792C57.4183 13 57.1383 13.104 56.7223 13.104ZM55.7143 24V14.184H57.7063V24H55.7143ZM63.9315 24.24C63.1955 24.24 62.4995 24.08 61.8435 23.76C61.2035 23.44 60.6835 23.016 60.2835 22.488C59.8995 21.944 59.7075 21.36 59.7075 20.736H61.5795C61.5795 20.768 61.5875 20.888 61.6035 21.096C61.6195 21.304 61.6915 21.536 61.8195 21.792C61.9475 22.048 62.1715 22.272 62.4915 22.464C62.8275 22.656 63.2995 22.752 63.9075 22.752C64.5795 22.752 65.1235 22.632 65.5395 22.392C65.9555 22.152 66.1635 21.816 66.1635 21.384C66.1635 20.984 66.0115 20.672 65.7075 20.448C65.4035 20.224 65.0115 20.048 64.5315 19.92C64.0515 19.776 63.5395 19.64 62.9955 19.512C62.4675 19.384 61.9635 19.216 61.4835 19.008C61.0195 18.784 60.6355 18.488 60.3315 18.12C60.0435 17.736 59.9075 17.224 59.9235 16.584C59.9235 15.72 60.2835 15.056 61.0035 14.592C61.7395 14.112 62.6675 13.872 63.7875 13.872C64.5075 13.872 65.1955 13.992 65.8515 14.232C66.5075 14.456 67.0435 14.824 67.4595 15.336C67.8915 15.848 68.0995 16.536 68.0835 17.4H66.2355C66.2515 16.856 66.1235 16.448 65.8515 16.176C65.5955 15.888 65.2755 15.696 64.8915 15.6C64.5075 15.488 64.1475 15.432 63.8115 15.432C63.1715 15.432 62.6675 15.552 62.2995 15.792C61.9315 16.016 61.7475 16.32 61.7475 16.704C61.7475 17.12 61.8995 17.44 62.2035 17.664C62.5075 17.872 62.8995 18.048 63.3795 18.192C63.8595 18.32 64.3635 18.448 64.8915 18.576C65.4355 18.704 65.9475 18.872 66.4275 19.08C66.9075 19.288 67.2995 19.584 67.6035 19.968C67.9235 20.352 68.0835 20.864 68.0835 21.504C68.0835 22.448 67.6915 23.144 66.9075 23.592C66.1235 24.024 65.1315 24.24 63.9315 24.24ZM75.4558 24.24C74.8478 24.24 74.3278 24.144 73.8958 23.952C73.4638 23.744 73.1118 23.504 72.8398 23.232C72.5678 22.96 72.3678 22.712 72.2398 22.488C72.1118 22.248 72.0318 22.096 71.9998 22.032H71.9518L71.6398 24H69.9118V10.488H71.9518L71.9758 16.488H72.0238C72.0398 16.424 72.1038 16.272 72.2158 16.032C72.3438 15.792 72.5358 15.528 72.7918 15.24C73.0478 14.952 73.3918 14.704 73.8238 14.496C74.2558 14.288 74.7998 14.184 75.4558 14.184C76.8798 14.184 77.9278 14.656 78.5998 15.6C79.2878 16.544 79.6318 17.76 79.6318 19.248C79.6318 20.72 79.2878 21.92 78.5998 22.848C77.9278 23.776 76.8798 24.24 75.4558 24.24ZM74.8798 22.512C75.5838 22.512 76.1358 22.36 76.5358 22.056C76.9518 21.736 77.2398 21.328 77.3998 20.832C77.5758 20.32 77.6638 19.784 77.6638 19.224C77.6638 18.68 77.5678 18.16 77.3758 17.664C77.1998 17.168 76.8958 16.768 76.4638 16.464C76.0478 16.144 75.4878 15.984 74.7838 15.984C73.8558 15.984 73.1598 16.288 72.6958 16.896C72.2318 17.488 71.9998 18.264 71.9998 19.224C71.9998 20.216 72.2398 21.016 72.7198 21.624C73.2158 22.216 73.9358 22.512 74.8798 22.512ZM85.9282 24.24C84.2962 24.24 83.0802 23.768 82.2802 22.824C81.4802 21.88 81.0802 20.68 81.0802 19.224C81.0642 17.752 81.4642 16.544 82.2802 15.6C83.0962 14.656 84.3122 14.176 85.9282 14.16C87.4962 14.16 88.6882 14.624 89.5042 15.552C90.3202 16.48 90.7282 17.704 90.7282 19.224C90.7282 20.168 90.5522 21.024 90.2002 21.792C89.8642 22.544 89.3362 23.144 88.6162 23.592C87.9122 24.024 87.0162 24.24 85.9282 24.24ZM85.9282 22.536C86.6962 22.536 87.2802 22.368 87.6802 22.032C88.0962 21.696 88.3842 21.272 88.5442 20.76C88.7042 20.232 88.7842 19.696 88.7842 19.152C88.7842 18.608 88.7042 18.08 88.5442 17.568C88.3842 17.04 88.0962 16.608 87.6802 16.272C87.2802 15.92 86.6962 15.744 85.9282 15.744C85.1442 15.744 84.5442 15.92 84.1282 16.272C83.7122 16.608 83.4242 17.04 83.2642 17.568C83.1042 18.08 83.0242 18.608 83.0242 19.152C83.0242 19.696 83.1042 20.232 83.2642 20.76C83.4242 21.272 83.7122 21.696 84.1282 22.032C84.5442 22.368 85.1442 22.536 85.9282 22.536ZM92.5485 24V14.208H94.2525L94.5885 16.464H94.6365C94.6525 16.4 94.7165 16.248 94.8285 16.008C94.9405 15.768 95.1245 15.512 95.3805 15.24C95.6365 14.952 95.9805 14.704 96.4125 14.496C96.8445 14.288 97.3885 14.184 98.0445 14.184C98.9085 14.184 99.5805 14.352 100.06 14.688C100.54 15.008 100.892 15.432 101.116 15.96C101.34 16.472 101.476 17.016 101.524 17.592C101.588 18.168 101.62 18.704 101.62 19.2V24H99.6765V19.176C99.6765 18.568 99.6125 18.024 99.4845 17.544C99.3565 17.048 99.1165 16.664 98.7645 16.392C98.4285 16.104 97.9325 15.96 97.2765 15.96C96.6045 15.96 96.0685 16.12 95.6685 16.44C95.2685 16.76 94.9885 17.176 94.8285 17.688C94.6685 18.2 94.5885 18.744 94.5885 19.32V24H92.5485Z" fill="#00FFD1"/>
</svg>
