<svg width="123" height="35" viewBox="0 0 123 35" fill="none" xmlns="http://www.w3.org/2000/svg">
<path d="M57.9737 21.1209V33.541H62.009V20.3138C62.009 18.6399 61.6503 17.1603 60.9329 15.8749C60.2155 14.5896 59.2291 13.5882 57.9737 12.8708C56.7481 12.1534 55.3282 11.7947 53.7141 11.7947C52.0999 11.7947 50.6502 12.1683 49.3648 12.9156C48.3966 13.456 47.5895 14.1491 46.9436 14.9947V1.52686H42.9082V33.541H46.9436V21.1209C46.9436 20.0448 47.1827 19.0883 47.661 18.2513C48.1393 17.4143 48.7969 16.7567 49.6339 16.2784C50.4708 15.8002 51.4274 15.561 52.5035 15.561C54.1176 15.561 55.4329 16.0842 56.4492 17.1304C57.4655 18.1766 57.9737 19.5068 57.9737 21.1209Z" fill="black"/>
<path d="M69.0867 32.8235C70.4917 33.6007 72.0759 33.9893 73.8395 33.9893C75.633 33.9893 77.2024 33.6007 78.5475 32.8235C79.9225 32.0165 80.9986 30.9105 81.7758 29.5056C82.553 28.1006 82.9416 26.4715 82.9416 24.6183V12.2431H78.9062V24.4389C78.9062 26.2025 78.4578 27.5925 77.5611 28.6088C76.6643 29.5952 75.4238 30.0884 73.8395 30.0884C72.7933 30.0884 71.8816 29.8643 71.1044 29.4159C70.3273 28.9675 69.7294 28.3248 69.3109 27.4879C68.9223 26.621 68.728 25.6047 68.728 24.4389V12.2431H64.6927V24.6183C64.6927 26.4715 65.0812 28.1006 65.8584 29.5056C66.6356 30.9105 67.7117 32.0165 69.0867 32.8235Z" fill="black"/>
<path fill-rule="evenodd" clip-rule="evenodd" d="M95.9725 33.9893C93.8502 33.9893 91.9371 33.5111 90.2333 32.5545C88.5295 31.5681 87.1843 30.2379 86.1979 28.564C85.2115 26.89 84.7183 24.9919 84.7183 22.8696C84.7183 20.7772 85.1965 18.894 86.1531 17.22C87.1395 15.5461 88.4547 14.2309 90.0988 13.2743C91.7727 12.2879 93.641 11.7947 95.7035 11.7947C97.6764 11.7947 99.4101 12.2431 100.905 13.1398C102.429 14.0366 103.61 15.2771 104.447 16.8613C105.314 18.4456 105.747 20.2391 105.747 22.2419C105.747 22.5408 105.732 22.8696 105.702 23.2283C105.672 23.5571 105.613 23.9457 105.523 24.3941H88.8439C88.9858 25.2235 89.2397 25.9857 89.6056 26.6808C90.2034 27.7868 91.0553 28.6536 92.1613 29.2814C93.2673 29.8792 94.5377 30.1781 95.9725 30.1781C97.1682 30.1781 98.2593 29.9689 99.2457 29.5504C100.262 29.1319 101.129 28.5042 101.846 27.6672L104.447 30.3126C103.431 31.5083 102.175 32.42 100.68 33.0477C99.2158 33.6755 97.6465 33.9893 95.9725 33.9893ZM89.5607 18.9239C89.2257 19.5587 88.9895 20.2612 88.8521 21.0312H101.814C101.704 20.1497 101.475 19.3726 101.129 18.6997C100.621 17.6834 99.9033 16.9062 98.9767 16.3681C98.05 15.8002 96.9291 15.5162 95.6138 15.5162C94.2388 15.5162 93.0282 15.8151 91.982 16.413C90.9358 17.0108 90.1287 17.8478 89.5607 18.9239Z" fill="black"/>
<path d="M108.354 32.1958C109.25 32.7638 110.222 33.2121 111.268 33.541C112.344 33.8399 113.48 33.9893 114.676 33.9893C117.067 33.9893 118.965 33.4064 120.37 32.2407C121.805 31.0749 122.522 29.4906 122.522 27.4879C122.522 26.1726 122.238 25.1115 121.67 24.3044C121.132 23.4973 120.43 22.8546 119.563 22.3764C118.696 21.8981 117.785 21.5245 116.828 21.2554C115.871 20.9565 114.945 20.6725 114.048 20.4035C113.181 20.1345 112.479 19.8057 111.941 19.4171C111.403 19.0285 111.134 18.4755 111.134 17.7581C111.134 17.0407 111.433 16.4877 112.03 16.0991C112.658 15.6806 113.555 15.4714 114.721 15.4714C115.827 15.4714 116.813 15.6806 117.68 16.0991C118.577 16.5176 119.324 17.1154 119.922 17.8926L122.522 15.292C121.685 14.1262 120.609 13.2594 119.294 12.6914C118.009 12.0936 116.529 11.7947 114.855 11.7947C113.271 11.7947 111.911 12.0488 110.775 12.5569C109.669 13.0651 108.802 13.7974 108.174 14.754C107.547 15.6806 107.233 16.7866 107.233 18.072C107.233 19.3573 107.502 20.3886 108.04 21.1658C108.608 21.9429 109.325 22.5557 110.192 23.0041C111.059 23.4525 111.971 23.8261 112.927 24.125C113.914 24.3941 114.84 24.678 115.707 24.977C116.574 25.246 117.276 25.6047 117.814 26.0531C118.382 26.4715 118.666 27.0694 118.666 27.8466C118.666 28.6238 118.323 29.2365 117.635 29.6849C116.948 30.1034 115.976 30.3126 114.721 30.3126C113.465 30.3126 112.329 30.0884 111.313 29.6401C110.297 29.1618 109.4 28.4444 108.623 27.4879L106.022 30.0884C106.68 30.8955 107.457 31.598 108.354 32.1958Z" fill="black"/>
<path d="M118.745 5.09198V5.8866H117.788V8.30415H116.88V5.8866H115.924V5.09198H118.745Z" fill="black"/>
<path d="M122.473 5.04382V8.3186H121.565V6.72937L120.9 7.47583H120.628L119.963 6.72937V8.3186H119.055V5.04382H119.375L120.764 6.44042L122.153 5.04382H122.473Z" fill="black"/>
<path d="M4.208 10.3184C5.46465 14.3477 9.74974 16.5954 13.779 15.3387C17.8083 14.0821 27.3516 7.52163 26.095 3.49236C24.8383 -0.536921 13.2576 -0.509217 9.22829 0.747431C5.19901 2.00408 2.95135 6.28917 4.208 10.3184Z" fill="black"/>
<path d="M1.77374 32.4126C4.13872 34.7776 7.97269 34.7776 10.3377 32.4126C12.7027 30.0476 16.9844 21.9315 14.6198 19.5665C12.2549 17.2017 4.13872 21.4837 1.77374 23.8484C-0.591245 26.2134 -0.591245 30.0476 1.77374 32.4126Z" fill="black"/>
<path d="M24.4034 34.7378C28.4803 35.8301 32.6709 33.4108 33.7634 29.3338C34.8555 25.2569 34.4143 13.6847 30.3374 12.5922C26.2605 11.4999 20.0922 21.301 18.9997 25.378C17.9071 29.4547 20.3264 33.6452 24.4034 34.7378Z" fill="black"/>
</svg>
