<svg width="137" height="35" viewBox="0 0 137 35" fill="none" xmlns="http://www.w3.org/2000/svg">
<path d="M46.6109 27.1667C47.9916 27.8473 49.6445 28.1876 51.5697 28.1876C53.592 28.1876 55.3325 27.8084 56.7909 27.05C58.2494 26.2916 59.3967 25.2804 60.2329 24.0164C61.0691 22.7525 61.5844 21.3621 61.7788 19.8453H57.6077C57.3743 21.2648 56.7034 22.3733 55.595 23.1705C54.506 23.9484 53.1642 24.3373 51.5697 24.3373C50.4807 24.3373 49.5181 24.1526 48.6819 23.7831C47.8652 23.4136 47.1748 22.8983 46.6109 22.2371C46.047 21.5565 45.6192 20.769 45.3275 19.8744C45.0552 18.9799 44.9191 18.0076 44.9191 16.9575C44.9191 15.8685 45.0552 14.8768 45.3275 13.9823C45.6192 13.0878 46.0373 12.3099 46.5817 11.6487C47.1262 10.9876 47.8068 10.482 48.6236 10.132C49.4403 9.76248 50.3737 9.57774 51.4238 9.57774C52.4545 9.57774 53.3781 9.75276 54.1949 10.1028C55.0116 10.4334 55.6825 10.939 56.2075 11.6196C56.752 12.2807 57.1021 13.0975 57.2576 14.0698H61.4288C61.2538 12.3974 60.7385 10.939 59.8829 9.69442C59.0272 8.43042 57.8799 7.45812 56.4409 6.77751C55.0213 6.07745 53.349 5.72742 51.4238 5.72742C49.5764 5.72742 47.9721 6.04828 46.6109 6.69C45.2691 7.31227 44.1607 8.14845 43.2856 9.19854C42.4106 10.2486 41.7591 11.4154 41.3313 12.6988C40.9229 13.9823 40.7188 15.2852 40.7188 16.6075V17.2492C40.7188 18.4354 40.9229 19.6702 41.3313 20.9537C41.7397 22.2371 42.3717 23.4233 43.2273 24.5123C44.1024 25.6013 45.2302 26.4861 46.6109 27.1667Z" fill="black"/>
<path fill-rule="evenodd" clip-rule="evenodd" d="M72.5956 25.7083C72.796 25.3684 72.9613 24.9933 73.0914 24.5832V27.6334H76.3V17.8034C76.3 16.3255 76.0181 15.1296 75.4541 14.2156C74.9096 13.3017 74.0929 12.6308 73.0039 12.203C71.9344 11.7751 70.5829 11.5612 68.9494 11.5612C68.4244 11.5612 67.8605 11.571 67.2576 11.5904C66.6742 11.5904 66.1006 11.6099 65.5366 11.6487C64.9727 11.6876 64.4671 11.7265 64.0199 11.7654V15.2074C64.5643 15.1685 65.1769 15.1393 65.8575 15.1199C66.5576 15.081 67.2479 15.0518 67.9285 15.0324C68.6091 15.0129 69.1925 15.0032 69.6787 15.0032C70.6121 15.0032 71.3024 15.2268 71.7497 15.6741C72.1969 16.1213 72.4206 16.802 72.4206 17.7159V17.8618H69.1828C67.7827 17.8618 66.5576 18.0465 65.5075 18.416C64.4768 18.7855 63.6698 19.3397 63.0864 20.0786C62.5225 20.8176 62.2405 21.7704 62.2405 22.9372C62.2405 24.0067 62.4739 24.9207 62.9406 25.6791C63.4267 26.4375 64.0976 27.0209 64.9533 27.4292C65.8283 27.8376 66.8395 28.0418 67.9868 28.0418C69.0953 28.0418 70.0287 27.8473 70.7871 27.4584C71.5649 27.05 72.1678 26.4667 72.5956 25.7083ZM71.8663 23.8123C72.1969 23.3067 72.3817 22.6261 72.4206 21.7704V20.2828H69.1244C68.191 20.2828 67.4715 20.5162 66.9659 20.9829C66.4798 21.4301 66.2367 22.0135 66.2367 22.733C66.2367 23.4525 66.4798 24.0359 66.9659 24.4832C67.4715 24.9304 68.191 25.154 69.1244 25.154C69.6884 25.154 70.2037 25.0568 70.6704 24.8624C71.1566 24.6484 71.5552 24.2984 71.8663 23.8123Z" fill="black"/>
<path d="M86.2143 28.1876C84.8337 28.1876 83.6377 27.9543 82.6265 27.4876C81.6348 27.0209 80.7986 26.3986 80.118 25.6207C79.4568 24.8429 78.961 23.9678 78.6304 22.9955C78.2998 22.0232 78.1345 21.0315 78.1345 20.0203V19.4661C78.1345 18.3965 78.2998 17.3756 78.6304 16.4033C78.9804 15.4116 79.4957 14.5365 80.1763 13.7781C80.857 13.0002 81.6931 12.3877 82.6849 11.9404C83.6961 11.4737 84.8628 11.2404 86.1852 11.2404C87.5658 11.2404 88.8007 11.5126 89.8897 12.0571C90.9786 12.5822 91.844 13.3211 92.4857 14.274C93.1469 15.2268 93.5163 16.3352 93.5941 17.5992H89.6563C89.5591 16.7825 89.209 16.1019 88.6062 15.5574C88.0228 15.0129 87.2158 14.7407 86.1852 14.7407C85.2907 14.7407 84.542 14.9546 83.9392 15.3824C83.3558 15.8102 82.9182 16.4033 82.6265 17.1617C82.3349 17.9007 82.189 18.7563 82.189 19.7286C82.189 20.662 82.3251 21.5079 82.5974 22.2663C82.8891 23.0247 83.3266 23.6178 83.91 24.0456C84.5128 24.4734 85.2809 24.6873 86.2143 24.6873C86.9144 24.6873 87.5172 24.5609 88.0228 24.3081C88.5284 24.0553 88.9271 23.7053 89.2188 23.2581C89.5299 22.8108 89.7244 22.3052 89.8021 21.7413H93.74C93.6622 23.0247 93.283 24.1526 92.6024 25.1249C91.9412 26.0777 91.0564 26.8264 89.948 27.3709C88.859 27.9154 87.6145 28.1876 86.2143 28.1876Z" fill="black"/>
<path d="M98.7965 27.2834C99.7493 27.6529 100.955 27.8376 102.413 27.8376H104.689V24.3665H102.209C101.431 24.3665 100.829 24.1623 100.401 23.7539C99.9924 23.3261 99.7882 22.7233 99.7882 21.9454L99.8026 14.7698H104.689V11.7946H99.8085L99.8174 7.33172H96.0254L96.0163 11.7946H93.4877V14.7698H96.0103L95.9963 21.6829C95.9963 23.2192 96.2296 24.4443 96.6963 25.3582C97.163 26.2527 97.8631 26.8945 98.7965 27.2834Z" fill="black"/>
<path d="M112.029 28.1293C110.202 28.1293 108.782 27.5265 107.771 26.3208C106.779 25.1151 106.283 23.3261 106.283 20.9537V11.7654H110.338V21.3037C110.338 22.276 110.61 23.0539 111.154 23.6372C111.699 24.2012 112.438 24.4832 113.371 24.4832C114.305 24.4832 115.063 24.1817 115.646 23.5789C116.249 22.9761 116.551 22.1593 116.551 21.1287V11.7654H120.605V27.6334H117.397V23.945C117.315 24.2806 117.218 24.5961 117.105 24.8915C116.697 25.9611 116.084 26.7681 115.267 27.3126C114.45 27.857 113.43 28.1293 112.204 28.1293H112.029Z" fill="black"/>
<path d="M124.417 26.7583C125.661 27.6723 127.373 28.1293 129.551 28.1293C130.951 28.1293 132.166 27.9154 133.197 27.4876C134.227 27.0598 135.025 26.4667 135.589 25.7083C136.172 24.9304 136.464 24.0164 136.464 22.9664C136.464 21.5468 135.929 20.4189 134.859 19.5827C133.809 18.7466 132.351 18.2312 130.484 18.0368L129.084 17.8909C128.228 17.7937 127.606 17.609 127.217 17.3367C126.848 17.0645 126.663 16.6756 126.663 16.17C126.663 15.6449 126.896 15.2171 127.363 14.8865C127.83 14.5559 128.491 14.3906 129.346 14.3906C130.299 14.3906 131.028 14.5851 131.534 14.974C132.04 15.3629 132.312 15.8296 132.351 16.3741H135.997C135.939 14.7212 135.307 13.467 134.101 12.6113C132.895 11.7557 131.32 11.3279 129.375 11.3279C128.131 11.3279 127.023 11.5223 126.05 11.9113C125.097 12.2807 124.349 12.835 123.804 13.5739C123.26 14.3129 122.987 15.2268 122.987 16.3158C122.987 17.677 123.464 18.766 124.417 19.5827C125.37 20.3995 126.731 20.9051 128.5 21.0995L129.901 21.2454C130.951 21.3426 131.69 21.5468 132.117 21.8579C132.565 22.1691 132.788 22.5872 132.788 23.1122C132.788 23.715 132.497 24.1915 131.913 24.5415C131.349 24.8915 130.581 25.0665 129.609 25.0665C128.442 25.0665 127.586 24.8429 127.042 24.3956C126.497 23.9484 126.196 23.4525 126.138 22.908H122.492C122.55 24.5415 123.192 25.8249 124.417 26.7583Z" fill="black"/>
<path fill-rule="evenodd" clip-rule="evenodd" d="M17.7295 0C8.06451 0 0.229492 7.83502 0.229492 17.5C0.229492 27.165 8.06451 35 17.7295 35C27.3945 35 35.2295 27.165 35.2295 17.5C35.2295 7.83502 27.3945 0 17.7295 0ZM4.15358 17.5C4.15358 10.0022 10.2317 3.92408 17.7295 3.92408C25.2273 3.92408 31.3054 10.0022 31.3054 17.5C31.3054 24.3426 26.243 30.0029 19.6593 30.9398V27.9452L23.1438 26.6589C25.1576 25.9155 26.495 23.9961 26.495 21.8495V15.9533C26.495 14.8697 25.6166 13.9912 24.5329 13.9912C23.4493 13.9912 22.5709 14.8697 22.5709 15.9533V21.8495C22.5709 22.353 22.2572 22.8032 21.7848 22.9776L19.6593 23.7623V8.23178C19.6593 7.14818 18.7809 6.26974 17.6972 6.26974C16.6136 6.26974 15.7352 7.14818 15.7352 8.23178V16.6503L13.6732 15.8891C13.2008 15.7147 12.8871 15.2645 12.8871 14.7609V12.2192C12.8871 11.1356 12.0086 10.2571 10.925 10.2571C9.84143 10.2571 8.963 11.1356 8.963 12.2192V14.7609C8.963 16.9076 10.3004 18.8269 12.3142 19.5703L15.7352 20.8332V30.9305C9.18291 29.9659 4.15358 24.3203 4.15358 17.5Z" fill="black"/>
</svg>
