<svg width="173" height="34" viewBox="0 0 173 34" fill="none" xmlns="http://www.w3.org/2000/svg">
<path d="M21.536 3.74074H9.56566V0H21.536C25.6679 0 29.0175 3.34957 29.0175 7.48147V19.4518H25.2767V7.48147C25.2767 5.41552 23.602 3.74074 21.536 3.74074Z" fill="black"/>
<path d="M8.06936 24.6889H20.0397V28.4296H8.06936C3.93746 28.4296 0.58789 25.08 0.587891 20.9481L0.587891 8.97776H4.32863L4.32863 20.9481C4.32863 23.0141 6.00341 24.6889 8.06936 24.6889Z" fill="black"/>
<path fill-rule="evenodd" clip-rule="evenodd" d="M22.2842 14.2148C22.2842 18.3467 18.9346 21.6963 14.8027 21.6963C10.6708 21.6963 7.32121 18.3467 7.32121 14.2148C7.32121 10.0829 10.6708 6.73332 14.8027 6.73332C18.9346 6.73332 22.2842 10.0829 22.2842 14.2148ZM18.5434 14.2148C18.5434 16.2807 16.8686 17.9555 14.8027 17.9555C12.7367 17.9555 11.0619 16.2807 11.0619 14.2148C11.0619 12.1488 12.7367 10.4741 14.8027 10.4741C16.8686 10.4741 18.5434 12.1488 18.5434 14.2148Z" fill="black"/>
<path d="M44.9808 26.0472C43.5639 26.0472 42.2887 25.8043 41.1552 25.3186C40.0217 24.8125 39.131 24.1041 38.4833 23.1932C37.8356 22.2823 37.5117 21.2197 37.5117 20.0052H41.2159C41.2969 20.916 41.6511 21.665 42.2786 22.252C42.9263 22.839 43.8271 23.1325 44.9808 23.1325C46.1751 23.1325 47.1062 22.8491 47.7741 22.2823C48.4421 21.6953 48.7761 20.9464 48.7761 20.0355C48.7761 19.3271 48.5636 18.7502 48.1385 18.3049C47.7337 17.8596 47.2175 17.5155 46.59 17.2726C45.9828 17.0297 45.1326 16.7665 44.0396 16.4832C42.6632 16.1188 41.5398 15.7545 40.6694 15.3901C39.8192 15.0055 39.0906 14.4185 38.4833 13.6291C37.8761 12.8397 37.5724 11.7871 37.5724 10.4714C37.5724 9.25696 37.8761 8.19428 38.4833 7.28342C39.0906 6.37255 39.9407 5.67422 41.0337 5.18843C42.1268 4.70263 43.3919 4.45974 44.829 4.45974C46.8734 4.45974 48.5433 4.97589 49.8388 6.00821C51.1545 7.02028 51.8831 8.41694 52.0248 10.1982H48.1992C48.1385 9.42901 47.7741 8.77117 47.1062 8.22465C46.4382 7.67813 45.5577 7.40487 44.4647 7.40487C43.4728 7.40487 42.6632 7.65789 42.0357 8.16392C41.4082 8.66996 41.0945 9.39865 41.0945 10.35C41.0945 10.9977 41.2867 11.5341 41.6713 11.9592C42.0762 12.364 42.5822 12.6879 43.1894 12.9308C43.7967 13.1737 44.6266 13.4368 45.6791 13.7202C47.0758 14.1048 48.2093 14.4894 49.0797 14.874C49.9703 15.2586 50.7193 15.8557 51.3265 16.6653C51.954 17.4547 52.2677 18.5174 52.2677 19.8534C52.2677 20.9262 51.9742 21.9382 51.3872 22.8896C50.8205 23.8409 49.9805 24.6101 48.8672 25.1971C47.7741 25.7639 46.4787 26.0472 44.9808 26.0472Z" fill="black"/>
<path d="M63.2745 8.83189C64.5902 8.83189 65.7642 9.10515 66.7965 9.65167C67.8491 10.1982 68.6688 11.0078 69.2558 12.0806C69.8428 13.1534 70.1363 14.4489 70.1363 15.967V25.8347H66.7054V16.4832C66.7054 14.9853 66.331 13.8416 65.582 13.0522C64.8331 12.2426 63.8109 11.8377 62.5154 11.8377C61.22 11.8377 60.1877 12.2426 59.4185 13.0522C58.6696 13.8416 58.2951 14.9853 58.2951 16.4832V25.8347H54.8338V9.10515H58.2951V11.018C58.8619 10.3298 59.5804 9.79336 60.4508 9.40877C61.3414 9.02419 62.2827 8.83189 63.2745 8.83189Z" fill="black"/>
<path d="M71.8796 17.394C71.8796 15.714 72.2237 14.2262 72.9119 12.9308C73.6203 11.6353 74.5717 10.6334 75.7659 9.92493C76.9804 9.19624 78.3163 8.83189 79.7737 8.83189C81.0894 8.83189 82.2331 9.09503 83.2047 9.62131C84.1965 10.1273 84.9859 10.7649 85.5729 11.5341V9.10515H89.0646V25.8347H85.5729V23.345C84.9859 24.1344 84.1864 24.7923 83.1743 25.3186C82.1622 25.8448 81.0085 26.108 79.713 26.108C78.2759 26.108 76.9602 25.7436 75.7659 25.0149C74.5717 24.266 73.6203 23.2337 72.9119 21.918C72.2237 20.5821 71.8796 19.0741 71.8796 17.394ZM85.5729 17.4547C85.5729 16.301 85.33 15.299 84.8442 14.4489C84.3787 13.5988 83.7613 12.951 82.9921 12.5057C82.2229 12.0604 81.393 11.8377 80.5024 11.8377C79.6118 11.8377 78.7819 12.0604 78.0127 12.5057C77.2435 12.9308 76.6161 13.5684 76.1303 14.4185C75.6647 15.2484 75.4319 16.2403 75.4319 17.394C75.4319 18.5478 75.6647 19.5599 76.1303 20.4302C76.6161 21.3006 77.2435 21.9686 78.0127 22.4341C78.8021 22.8795 79.632 23.1021 80.5024 23.1021C81.393 23.1021 82.2229 22.8795 82.9921 22.4341C83.7613 21.9888 84.3787 21.3411 84.8442 20.491C85.33 19.6206 85.5729 18.6085 85.5729 17.4547Z" fill="black"/>
<path d="M95.554 11.5645C96.141 10.7953 96.9405 10.1476 97.9526 9.62131C98.9647 9.09503 100.108 8.83189 101.384 8.83189C102.841 8.83189 104.167 9.19624 105.361 9.92493C106.575 10.6334 107.527 11.6353 108.215 12.9308C108.903 14.2262 109.247 15.714 109.247 17.394C109.247 19.0741 108.903 20.5821 108.215 21.918C107.527 23.2337 106.575 24.266 105.361 25.0149C104.167 25.7436 102.841 26.108 101.384 26.108C100.108 26.108 98.9748 25.8549 97.983 25.3489C96.9911 24.8226 96.1815 24.1749 95.554 23.4057V33.7896H92.0927V9.10515H95.554V11.5645ZM105.725 17.394C105.725 16.2403 105.482 15.2484 104.997 14.4185C104.531 13.5684 103.904 12.9308 103.114 12.5057C102.345 12.0604 101.515 11.8377 100.624 11.8377C99.7541 11.8377 98.9242 12.0604 98.1348 12.5057C97.3656 12.951 96.7381 13.5988 96.2523 14.4489C95.7868 15.299 95.554 16.301 95.554 17.4547C95.554 18.6085 95.7868 19.6206 96.2523 20.491C96.7381 21.3411 97.3656 21.9888 98.1348 22.4341C98.9242 22.8795 99.7541 23.1021 100.624 23.1021C101.515 23.1021 102.345 22.8795 103.114 22.4341C103.904 21.9686 104.531 21.3006 104.997 20.4302C105.482 19.5599 105.725 18.5478 105.725 17.394Z" fill="black"/>
<path d="M118.105 26.0472C116.688 26.0472 115.413 25.8043 114.279 25.3186C113.146 24.8125 112.255 24.1041 111.608 23.1932C110.96 22.2823 110.636 21.2197 110.636 20.0052H114.34C114.421 20.916 114.775 21.665 115.403 22.252C116.051 22.839 116.951 23.1325 118.105 23.1325C119.299 23.1325 120.23 22.8491 120.898 22.2823C121.566 21.6953 121.9 20.9464 121.9 20.0355C121.9 19.3271 121.688 18.7502 121.263 18.3049C120.858 17.8596 120.342 17.5155 119.714 17.2726C119.107 17.0297 118.257 16.7665 117.164 16.4832C115.787 16.1188 114.664 15.7545 113.794 15.3901C112.943 15.0055 112.215 14.4185 111.608 13.6291C111 12.8397 110.697 11.7871 110.697 10.4714C110.697 9.25696 111 8.19428 111.608 7.28342C112.215 6.37255 113.065 5.67422 114.158 5.18843C115.251 4.70263 116.516 4.45974 117.953 4.45974C119.998 4.45974 121.668 4.97589 122.963 6.00821C124.279 7.02028 125.007 8.41694 125.149 10.1982H121.323C121.263 9.42901 120.898 8.77117 120.23 8.22465C119.562 7.67813 118.682 7.40487 117.589 7.40487C116.597 7.40487 115.787 7.65789 115.16 8.16392C114.532 8.66996 114.219 9.39865 114.219 10.35C114.219 10.9977 114.411 11.5341 114.796 11.9592C115.2 12.364 115.706 12.6879 116.314 12.9308C116.921 13.1737 117.751 13.4368 118.803 13.7202C120.2 14.1048 121.334 14.4894 122.204 14.874C123.095 15.2586 123.843 15.8557 124.451 16.6653C125.078 17.4547 125.392 18.5174 125.392 19.8534C125.392 20.9262 125.098 21.9382 124.511 22.8896C123.945 23.8409 123.105 24.6101 121.991 25.1971C120.898 25.7639 119.603 26.0472 118.105 26.0472Z" fill="black"/>
<path d="M136.611 8.83189C137.886 8.83189 139.02 9.10515 140.012 9.65167C141.024 10.1982 141.813 11.0078 142.38 12.0806C142.967 13.1534 143.261 14.4489 143.261 15.967V25.8347H139.83V16.4832C139.83 14.9853 139.455 13.8416 138.706 13.0522C137.957 12.2426 136.935 11.8377 135.64 11.8377C134.344 11.8377 133.312 12.2426 132.543 13.0522C131.794 13.8416 131.419 14.9853 131.419 16.4832V25.8347H127.958V3.3667H131.419V11.0483C132.006 10.3399 132.745 9.79336 133.636 9.40877C134.547 9.02419 135.538 8.83189 136.611 8.83189Z" fill="black"/>
<path d="M153.414 26.108C151.835 26.108 150.408 25.7537 149.133 25.0453C147.858 24.3166 146.856 23.3045 146.127 22.0091C145.398 20.6934 145.034 19.1753 145.034 17.4547C145.034 15.7545 145.409 14.2465 146.158 12.9308C146.906 11.6151 147.929 10.603 149.224 9.89457C150.52 9.18612 151.967 8.83189 153.566 8.83189C155.165 8.83189 156.612 9.18612 157.908 9.89457C159.203 10.603 160.225 11.6151 160.974 12.9308C161.723 14.2465 162.098 15.7545 162.098 17.4547C162.098 19.155 161.713 20.663 160.944 21.9787C160.175 23.2944 159.122 24.3166 157.786 25.0453C156.471 25.7537 155.013 26.108 153.414 26.108ZM153.414 23.1021C154.305 23.1021 155.135 22.8896 155.904 22.4645C156.693 22.0394 157.331 21.4018 157.817 20.5517C158.302 19.7015 158.545 18.6692 158.545 17.4547C158.545 16.2403 158.313 15.2181 157.847 14.3882C157.381 13.538 156.764 12.9004 155.995 12.4754C155.226 12.0503 154.396 11.8377 153.505 11.8377C152.615 11.8377 151.785 12.0503 151.015 12.4754C150.267 12.9004 149.669 13.538 149.224 14.3882C148.779 15.2181 148.556 16.2403 148.556 17.4547C148.556 19.2562 149.012 20.6529 149.922 21.6447C150.854 22.6163 152.017 23.1021 153.414 23.1021Z" fill="black"/>
<path d="M168.039 11.9288V21.1893C168.039 21.8168 168.181 22.2722 168.464 22.5556C168.768 22.8187 169.274 22.9503 169.983 22.9503H172.108V25.8347H169.375C167.817 25.8347 166.623 25.4704 165.793 24.7417C164.963 24.013 164.548 22.8289 164.548 21.1893V11.9288H162.574V9.10515H164.548V4.94553H168.039V9.10515H172.108V11.9288H168.039Z" fill="black"/>
</svg>
