<svg width="133" height="30" viewBox="0 0 133 30" fill="none" xmlns="http://www.w3.org/2000/svg">
<path d="M35.8008 24.0356L37.2829 23.6714V8.13921L35.8008 7.77517V7.41113H42.4696C44.9723 7.41113 46.8084 7.80753 47.9773 8.60031C49.163 9.37694 49.7556 10.3962 49.7556 11.6583C49.7556 12.5319 49.5003 13.2356 48.99 13.7697C48.4797 14.3037 47.8293 14.7 47.0387 14.9587C46.1991 15.25 45.2934 15.4038 44.3219 15.42V15.5412C45.524 15.5897 46.5696 15.7678 47.4588 16.0753C48.3643 16.3665 49.1134 16.8195 49.7062 17.4343C50.3155 18.0492 50.6202 18.8338 50.6202 19.7884C50.6202 21.2283 50.0191 22.361 48.817 23.1861C47.6151 23.9949 45.6638 24.3996 42.9634 24.3996H35.8008V24.0356ZM42.4696 15.1772C43.013 15.1772 43.5151 15.0317 43.9761 14.7404C44.4537 14.433 44.8324 14.0124 45.1124 13.4784C45.4088 12.9282 45.5569 12.3217 45.5569 11.6583C45.5569 10.9463 45.4088 10.3153 45.1124 9.76524C44.8324 9.21514 44.4537 8.78638 43.9761 8.47898C43.5151 8.17157 43.013 8.01786 42.4696 8.01786H41.3582V15.1772H42.4696ZM42.9634 23.7928C43.9843 23.7928 44.816 23.4369 45.4582 22.725C46.1004 22.0132 46.4212 21.0343 46.4212 19.7884C46.4212 18.5425 46.1004 17.5637 45.4582 16.8518C44.816 16.1399 43.9843 15.784 42.9634 15.784H41.3582V23.7928H42.9634Z" fill="black"/>
<path d="M51.1094 24.0356L52.5914 23.6714V8.13921L51.1094 7.77517V7.41113H54.3203C55.8022 7.41113 56.5431 8.13921 56.5431 9.59535V23.6714L58.0252 24.0356V24.3996H51.1094V24.0356Z" fill="black"/>
<path d="M64.8108 24.7632C62.769 24.7632 61.1635 24.1968 59.9945 23.0644C58.8418 21.9155 58.2656 20.3382 58.2656 18.3319C58.2656 16.3256 58.8418 14.7562 59.9945 13.6237C61.1635 12.4748 62.769 11.9004 64.8108 11.9004C66.8525 11.9004 68.4496 12.4748 69.6023 13.6237C70.7713 14.7562 71.3559 16.3256 71.3559 18.3319C71.3559 20.3382 70.7713 21.9155 69.6023 23.0644C68.4496 24.1968 66.8525 24.7632 64.8108 24.7632ZM64.8108 24.2777C65.4694 24.2777 66.0209 23.8247 66.4656 22.9186C66.9266 22.0127 67.1572 20.4837 67.1572 18.3319C67.1572 16.1799 66.9266 14.6511 66.4656 13.745C66.0209 12.8388 65.4694 12.3859 64.8108 12.3859C64.1521 12.3859 63.5922 12.8388 63.1312 13.745C62.6865 14.6511 62.4643 16.1799 62.4643 18.3319C62.4643 20.4837 62.6865 22.0127 63.1312 22.9186C63.5922 23.8247 64.1521 24.2777 64.8108 24.2777Z" fill="black"/>
<path d="M77.9113 24.7632C76.8904 24.7632 75.9765 24.5447 75.1697 24.1079C74.7746 23.8975 74.4535 23.6709 74.2064 23.4284C73.9429 23.7843 73.6549 24.0594 73.3421 24.2534C73.1938 24.3504 73.0292 24.4396 72.848 24.5204H72.2305V20.3947H73.2184C73.4326 21.0743 73.7455 21.7053 74.1571 22.2876C75.0298 23.5335 76.1165 24.1564 77.4174 24.1564C78.1089 24.1564 78.6275 23.9945 78.9733 23.6709C79.3355 23.3311 79.5168 22.8459 79.5168 22.2148C79.5168 21.681 79.2697 21.236 78.7758 20.88C78.2982 20.5079 77.5408 20.055 76.5035 19.521C75.6142 19.0842 74.8897 18.6959 74.3301 18.3562C73.7866 18.0002 73.3174 17.5632 72.922 17.0456C72.5433 16.5116 72.3541 15.8886 72.3541 15.1768C72.3541 14.206 72.7739 13.4214 73.6136 12.8227C74.4699 12.2078 75.779 11.9004 77.5408 11.9004C78.4134 11.9004 79.2203 12.127 79.9613 12.5799C80.3235 12.7903 80.6364 13.0088 80.8999 13.2352C81.1138 12.9439 81.402 12.6691 81.7642 12.4102C82.0442 12.2482 82.2089 12.1593 82.2583 12.1431H82.8758V16.2688H81.8878C81.6408 15.5731 81.3362 14.9502 80.9739 14.4002C80.1507 13.1382 79.171 12.5072 78.0347 12.5072C77.5902 12.5072 77.2115 12.6691 76.8986 12.9927C76.5857 13.3163 76.4294 13.7207 76.4294 14.206C76.4294 14.8208 76.6927 15.3387 77.2197 15.7593C77.7467 16.1637 78.5452 16.6328 79.6155 17.1669C80.4883 17.6036 81.1798 17.9921 81.6902 18.3319C82.2172 18.6555 82.6617 19.0599 83.0239 19.5452C83.4026 20.0307 83.5921 20.5968 83.5921 21.244C83.5921 23.5901 81.6984 24.7632 77.9113 24.7632Z" fill="black"/>
<path d="M90.0128 24.7632C88.9919 24.7632 88.078 24.5447 87.2713 24.1079C86.8759 23.8975 86.555 23.6709 86.308 23.4284C86.0445 23.7843 85.7563 24.0594 85.4434 24.2534C85.2953 24.3504 85.1305 24.4396 84.9495 24.5204H84.332V20.3947H85.32C85.5341 21.0743 85.8468 21.7053 86.2586 22.2876C87.1312 23.5335 88.2179 24.1564 89.5187 24.1564C90.2103 24.1564 90.7291 23.9945 91.0748 23.6709C91.4371 23.3311 91.6181 22.8459 91.6181 22.2148C91.6181 21.681 91.3713 21.236 90.8772 20.88C90.3997 20.5079 89.6424 20.055 88.605 19.521C87.7158 19.0842 86.9913 18.6959 86.4314 18.3562C85.8882 18.0002 85.4187 17.5632 85.0236 17.0456C84.6449 16.5116 84.4554 15.8886 84.4554 15.1768C84.4554 14.206 84.8755 13.4214 85.7152 12.8227C86.5715 12.2078 87.8803 11.9004 89.6424 11.9004C90.5149 11.9004 91.3217 12.127 92.0628 12.5799C92.4251 12.7903 92.7379 13.0088 93.0012 13.2352C93.2153 12.9439 93.5035 12.6691 93.8658 12.4102C94.1457 12.2482 94.3103 12.1593 94.3596 12.1431H94.9772V16.2688H93.9892C93.7424 15.5731 93.4377 14.9502 93.0755 14.4002C92.2521 13.1382 91.2723 12.5072 90.1362 12.5072C89.6917 12.5072 89.313 12.6691 89.0002 12.9927C88.6873 13.3163 88.5308 13.7207 88.5308 14.206C88.5308 14.8208 88.7943 15.3387 89.3213 15.7593C89.848 16.1637 90.6468 16.6328 91.717 17.1669C92.5896 17.6036 93.2812 17.9921 93.7917 18.3319C94.3185 18.6555 94.7632 19.0599 95.1255 19.5452C95.5042 20.0307 95.6934 20.5968 95.6934 21.244C95.6934 23.5901 93.7999 24.7632 90.0128 24.7632Z" fill="black"/>
<path d="M102.858 24.7632C100.816 24.7632 99.2106 24.1968 98.0414 23.0644C96.8889 21.9155 96.3125 20.3382 96.3125 18.3319C96.3125 16.3256 96.8889 14.7562 98.0414 13.6237C99.2106 12.4748 100.816 11.9004 102.858 11.9004C104.899 11.9004 106.497 12.4748 107.649 13.6237C108.818 14.7562 109.403 16.3256 109.403 18.3319C109.403 20.3382 108.818 21.9155 107.649 23.0644C106.497 24.1968 104.899 24.7632 102.858 24.7632ZM102.858 24.2777C103.516 24.2777 104.068 23.8247 104.512 22.9186C104.974 22.0127 105.204 20.4837 105.204 18.3319C105.204 16.1799 104.974 14.6511 104.512 13.745C104.068 12.8388 103.516 12.3859 102.858 12.3859C102.199 12.3859 101.639 12.8388 101.178 13.745C100.734 14.6511 100.511 16.1799 100.511 18.3319C100.511 20.4837 100.734 22.0127 101.178 22.9186C101.639 23.8247 102.199 24.2777 102.858 24.2777Z" fill="black"/>
<path d="M110.152 24.0351L111.634 23.6709V12.9927L110.152 12.6287V12.2644H112.375C113.347 12.2644 114.112 12.5718 114.672 13.1867C114.886 13.4294 115.067 13.7288 115.216 14.0847C115.462 13.6318 115.726 13.2675 116.006 12.9927C116.747 12.2644 117.595 11.9004 118.55 11.9004C119.505 11.9004 120.345 12.1108 121.069 12.5314C121.794 12.9359 122.353 13.4941 122.749 14.206C122.996 13.7369 123.259 13.3567 123.539 13.0654C124.296 12.2889 125.145 11.9004 126.083 11.9004C126.956 11.9004 127.738 12.0785 128.429 12.4344C129.137 12.7903 129.681 13.2756 130.059 13.8905C130.455 14.5053 130.652 15.1768 130.652 15.9048V23.6709L132.134 24.0351V24.3992H128.923C127.441 24.3992 126.7 23.6709 126.7 22.2148V15.9048C126.7 14.8532 126.536 14.0686 126.207 13.5507C125.877 13.0169 125.507 12.7499 125.095 12.7499C124.618 12.7499 124.132 13.0735 123.638 13.7207C123.44 14.0281 123.267 14.3517 123.119 14.6915V23.6709L124.601 24.0351V24.3992H117.685V24.0351L119.167 23.6709V15.9048C119.167 14.8532 119.003 14.0686 118.673 13.5507C118.344 13.0169 117.974 12.7499 117.562 12.7499C117.084 12.7499 116.599 13.0735 116.105 13.7207C115.907 14.0281 115.734 14.3517 115.586 14.6915V23.6709L117.068 24.0351V24.3992H110.152V24.0351Z" fill="black"/>
<path fill-rule="evenodd" clip-rule="evenodd" d="M15.697 29.033C15.5377 29.0639 15.3725 29.074 15.205 29.0617C10.0314 28.6759 5.13441 25.868 2.34434 21.1193C-0.445782 16.3707 -0.472133 10.7996 1.77486 6.20407C2.10108 5.53689 2.80825 5.13571 3.55939 5.19172C5.48737 5.33546 7.37693 5.81558 9.13337 6.60717C10.4587 4.06789 12.4195 1.9017 14.8096 0.311296C15.4333 -0.103765 16.2492 -0.103765 16.8728 0.311296C19.2305 1.88012 21.1703 4.00919 22.4947 6.50393C24.1845 5.77376 25.992 5.32908 27.8347 5.19172C28.5859 5.13571 29.293 5.53689 29.6192 6.20407C31.8662 10.7996 31.8399 16.3707 29.0499 21.1193C26.2596 25.868 21.3627 28.6759 16.1891 29.0617C16.0215 29.074 15.8563 29.0639 15.697 29.033ZM19.4876 26.1545C22.5888 25.1181 25.3318 23.0149 27.0965 20.0113C29.4457 16.0132 29.5223 11.3382 27.7113 7.42637C26.2244 7.56814 24.7689 7.94184 23.4036 8.53185C24.0695 10.3322 24.4329 12.2753 24.4329 14.3018C24.4329 18.9204 22.5456 23.106 19.4876 26.1545ZM20.4979 7.53439C19.3916 5.44729 17.7886 3.65379 15.8412 2.30439C13.852 3.68269 12.2223 5.52432 11.114 7.6689C12.878 8.77733 14.4451 10.2354 15.697 12.0121C17.0004 10.1626 18.6452 8.65835 20.4979 7.53439ZM16.9748 14.1614C18.1081 12.2621 19.6343 10.7272 21.3945 9.59975C21.9025 11.076 22.1777 12.6573 22.1777 14.3018C22.1777 18.0983 20.7109 21.5586 18.2996 24.1651C18.9521 20.8725 18.5574 17.3657 16.9748 14.1614ZM14.4192 14.1614C13.3371 12.3474 11.8962 10.866 10.2356 9.75431C9.76103 11.1862 9.50465 12.7146 9.50465 14.3018C9.50465 17.9036 10.8248 21.2029 13.0192 23.7575C12.4767 20.5844 12.9017 17.2339 14.4192 14.1614ZM15.697 25.2482C16.5437 22.6028 16.5785 19.7167 15.697 16.9808C14.8155 19.7167 14.8505 22.6028 15.697 25.2482ZM4.29748 20.0113C6.14248 23.1514 9.05653 25.3072 12.3313 26.289C9.19288 23.2298 7.24936 18.9889 7.24936 14.3018C7.24936 12.3164 7.59809 10.4112 8.23861 8.64182C6.80192 7.98812 5.26011 7.57674 3.68271 7.42637C1.87186 11.3382 1.94835 16.0132 4.29748 20.0113Z" fill="black"/>
</svg>
