<svg width="167" height="35" viewBox="0 0 167 35" fill="none" xmlns="http://www.w3.org/2000/svg">
<path d="M0.462891 23.3565L12.2975 18.0892L19.1093 22.0397L20.4855 35L12.0911 34.9307L13.3296 25.9209L11.8847 25.0892L4.79768 30.6337L0.462891 23.3565Z" fill="black"/>
<path d="M19.8672 21.4846L30.3257 29.1776L34.4541 21.7618L26.0597 18.3658V16.7025L34.4541 13.2371L30.3257 5.89062L19.8672 13.5837V21.4846Z" fill="black"/>
<path d="M19.1093 12.9603L20.4855 0L12.0911 0.138611L13.3296 9.14847L11.8847 9.98015L4.72887 4.43562L0.462891 11.6435L12.2975 16.9108L19.1093 12.9603Z" fill="black"/>
<path d="M62.4586 15.9468V28.0888H66.9761V12.6149H60.397V15.9468H62.4586Z" fill="black"/>
<path d="M62.3172 10.4407C62.7315 10.8736 63.3621 11.09 64.2092 11.09C65.0564 11.09 65.6775 10.8736 66.0726 10.4407C66.4869 9.98874 66.6938 9.424 66.6938 8.74648C66.6938 8.04988 66.4869 7.48513 66.0726 7.05225C65.6775 6.6005 65.0564 6.37451 64.2092 6.37451C63.3621 6.37451 62.7315 6.6005 62.3172 7.05225C61.9221 7.48513 61.7243 8.04988 61.7243 8.74648C61.7243 9.424 61.9221 9.98874 62.3172 10.4407Z" fill="black"/>
<path d="M46.7308 27.7498C48.0108 28.3334 49.5827 28.6253 51.4461 28.6253C53.1967 28.6253 54.7027 28.3523 55.9641 27.8064C57.2254 27.2605 58.1949 26.498 58.8724 25.5192C59.569 24.5214 59.9173 23.3637 59.9173 22.0459C59.9173 20.766 59.5881 19.6835 58.9292 18.7987C58.289 17.8952 57.395 17.1892 56.2464 16.6811C55.0983 16.1539 53.771 15.8244 52.265 15.6928L50.684 15.5516C49.7428 15.4761 49.0648 15.2222 48.6506 14.7891C48.2368 14.3562 48.0295 13.8478 48.0295 13.2644C48.0295 12.8125 48.1427 12.3985 48.3682 12.022C48.5942 11.6266 48.933 11.316 49.3849 11.09C49.8556 10.8643 50.4298 10.7513 51.1074 10.7513C51.8226 10.7513 52.4155 10.8829 52.8862 11.1466C52.9898 11.2024 53.0881 11.2619 53.1808 11.3251L53.2031 11.3408C53.2377 11.3647 53.2718 11.3895 53.3045 11.4145C53.5905 11.633 53.8183 11.8919 53.9875 12.1913C54.2321 12.6056 54.3549 13.0666 54.3549 13.575H58.8724C58.8724 12.2195 58.5618 11.043 57.9407 10.0454C57.3195 9.02886 56.4256 8.24767 55.2584 7.70157C54.1098 7.13683 52.7261 6.85445 51.1074 6.85445C49.5636 6.85445 48.2272 7.11818 47.0978 7.64519C45.9683 8.15355 45.0834 8.88767 44.4436 9.84755C43.8221 10.8077 43.5115 11.9467 43.5115 13.2644C43.5115 15.0903 44.1235 16.5586 45.3471 17.6694C46.5708 18.78 48.2086 19.42 50.2602 19.5894L51.8135 19.7306C53.0744 19.8436 53.9875 20.0978 54.5522 20.4929C55.117 20.8694 55.3993 21.3871 55.3993 22.0459C55.3993 22.3488 55.3498 22.6327 55.2506 22.8981C55.177 23.095 55.076 23.2816 54.9478 23.4578C54.6463 23.8532 54.2039 24.1637 53.6205 24.3897C53.0371 24.6155 52.3123 24.7285 51.4461 24.7285C50.4862 24.7285 49.705 24.5968 49.1026 24.3331C48.5001 24.0507 48.0486 23.6838 47.7471 23.232C47.4647 22.7801 47.3237 22.2908 47.3237 21.7636H42.834C42.834 23.1002 43.1632 24.2861 43.8221 25.3214C44.4809 26.3381 45.4508 27.1475 46.7308 27.7498Z" fill="black"/>
<path d="M77.0565 28.2863C75.4941 28.2863 74.2328 28.0981 73.2729 27.7216C72.3126 27.3262 71.6069 26.6769 71.1549 25.7734C70.722 24.8508 70.5056 23.6085 70.5056 22.0459V15.9186H68.162V12.6149H70.5056V8.43592H74.7129V12.6149H79.2309V15.9186H74.7129V22.2156C74.7129 22.9497 74.9012 23.5144 75.2777 23.9096C75.6728 24.2861 76.228 24.4743 76.9437 24.4743H79.2309V28.2863H77.0565Z" fill="black"/>
<path fill-rule="evenodd" clip-rule="evenodd" d="M84.6706 27.9476C85.6868 28.3993 86.854 28.6253 88.1718 28.6253C89.4704 28.6253 90.619 28.3993 91.6166 27.9476C92.6143 27.4958 93.4427 26.8651 94.1016 26.0558C94.7605 25.2462 95.2029 24.3238 95.4284 23.2884H91.2779C91.0896 23.7591 90.7318 24.1544 90.2048 24.4743C89.6778 24.7944 88.9998 24.9545 88.1718 24.9545C87.6589 24.9545 87.2001 24.8938 86.7963 24.7724C86.4889 24.6801 86.2134 24.5525 85.9692 24.3897C85.4044 24.0132 84.9902 23.486 84.7269 22.8085C84.6537 22.6155 84.591 22.4136 84.5382 22.2033C84.4846 21.9902 84.4414 21.7686 84.4086 21.5378H95.7108V20.013C95.7108 18.6011 95.4098 17.3022 94.8073 16.1164C94.2048 14.9114 93.3295 13.942 92.1814 13.2078C91.0519 12.4548 89.6587 12.0783 88.0022 12.0783C86.7408 12.0783 85.6113 12.3043 84.6137 12.7561C83.6352 13.189 82.8163 13.7819 82.1574 14.5349C81.4985 15.2879 80.9902 16.1445 80.6323 17.1047C80.2936 18.0457 80.1244 19.034 80.1244 20.0693V20.6341C80.1244 21.6319 80.2936 22.6107 80.6323 23.5708C80.9902 24.512 81.4985 25.3685 82.1574 26.1403C82.8349 26.8933 83.6725 27.4958 84.6706 27.9476ZM84.4864 18.7457C84.4991 18.6859 84.5123 18.627 84.5269 18.569C84.566 18.4094 84.611 18.2564 84.6624 18.1102C84.6915 18.027 84.7224 17.9459 84.7551 17.867C85.0375 17.1704 85.4517 16.6434 85.9974 16.2857C86.2015 16.1521 86.4225 16.0434 86.6603 15.9597C87.0596 15.8194 87.507 15.7492 88.0022 15.7492C88.7743 15.7492 89.414 15.9281 89.9224 16.2857C90.4494 16.6245 90.845 17.1233 91.1083 17.7822C91.1296 17.8354 91.1501 17.8895 91.1697 17.9443C91.2006 18.0316 91.2297 18.1212 91.2565 18.213C91.2965 18.3496 91.3315 18.4911 91.362 18.6372C91.3843 18.745 91.4038 18.8553 91.4207 18.9683H84.4432C84.4564 18.8928 84.4709 18.8187 84.4864 18.7457Z" fill="black"/>
<path d="M97.5751 28.0888V12.6149H101.161V16.5122C101.21 16.2805 101.265 16.0582 101.328 15.8449C101.381 15.6653 101.438 15.492 101.5 15.3256C101.896 14.2714 102.489 13.4809 103.279 12.9536C104.07 12.4078 105.039 12.135 106.188 12.135H106.385C107.552 12.135 108.522 12.4078 109.294 12.9536C110.084 13.4809 110.677 14.2714 111.073 15.3256L111.104 15.4052L111.13 15.4779C111.148 15.4266 111.167 15.3759 111.185 15.3256C111.6 14.2714 112.202 13.4809 112.993 12.9536C113.783 12.4078 114.753 12.135 115.901 12.135H116.099C117.266 12.135 118.245 12.4078 119.035 12.9536C119.845 13.4809 120.457 14.2714 120.871 15.3256C121.285 16.3799 121.492 17.6976 121.492 19.2788V28.0888H116.974V19.0247C116.974 18.1775 116.748 17.4905 116.296 16.9635C115.863 16.4362 115.242 16.1727 114.433 16.1727C113.623 16.1727 112.983 16.4458 112.513 16.9917C112.042 17.5187 111.806 18.2246 111.806 19.1095V28.0888H107.26V19.0247C107.26 18.1775 107.035 17.4905 106.583 16.9635C106.15 16.4362 105.538 16.1727 104.748 16.1727C103.919 16.1727 103.27 16.4458 102.799 16.9917C102.329 17.5187 102.093 18.2246 102.093 19.1095V28.0888H97.5751Z" fill="black"/>
<path fill-rule="evenodd" clip-rule="evenodd" d="M133.561 25.1073V28.0888H137.146V18.6011C137.146 17.1704 136.864 16.0034 136.299 15.0996C135.734 14.1773 134.906 13.4902 133.815 13.0385C132.742 12.5867 131.414 12.3607 129.833 12.3607C129.49 12.3607 129.133 12.3644 128.76 12.3719C128.539 12.3764 128.313 12.3821 128.082 12.3889C127.461 12.4078 126.859 12.436 126.275 12.4737L125.83 12.5037C125.6 12.5196 125.385 12.5353 125.183 12.5512C125.031 12.5631 124.887 12.5749 124.751 12.5867V16.3987C125.334 16.361 125.983 16.3232 126.699 16.2857C126.899 16.2753 127.097 16.2655 127.294 16.2564C127.578 16.2432 127.859 16.2319 128.136 16.2218C128.355 16.2139 128.573 16.2068 128.788 16.2009C129.466 16.1821 130.012 16.1727 130.426 16.1727C131.254 16.1727 131.857 16.3703 132.233 16.7657C132.61 17.161 132.798 17.754 132.798 18.5447V18.6011H130.002C128.628 18.6011 127.414 18.78 126.36 19.1376C125.306 19.4764 124.487 20.013 123.903 20.7471C123.32 21.4626 123.028 22.3849 123.028 23.5144C123.028 24.5498 123.263 25.444 123.734 26.197C124.204 26.9311 124.854 27.4958 125.682 27.891C126.529 28.2863 127.508 28.4841 128.619 28.4841C129.692 28.4841 130.595 28.2863 131.33 27.891C132.083 27.4958 132.666 26.9311 133.08 26.197C133.153 26.0733 133.221 25.9448 133.285 25.8116C133.374 25.6229 133.454 25.4246 133.525 25.2168L133.561 25.1073ZM132.798 22.3567V21.1143H129.974C129.184 21.1143 128.572 21.3118 128.139 21.7072C127.725 22.0837 127.517 22.6014 127.517 23.2602C127.517 23.5703 127.569 23.8523 127.673 24.1062C127.776 24.3609 127.932 24.5871 128.139 24.7851C128.572 25.1616 129.184 25.3498 129.974 25.3498C130.125 25.3498 130.27 25.3423 130.411 25.3276C130.525 25.3155 130.637 25.2985 130.745 25.2764C130.952 25.2343 131.147 25.1741 131.33 25.0957C131.744 24.9074 132.083 24.5968 132.346 24.1637C132.61 23.7309 132.76 23.1284 132.798 22.3567Z" fill="black"/>
<path d="M139.85 28.0888V12.6149H143.436V17.7224C143.608 16.2644 144.041 15.0887 144.735 14.1961C145.677 13.0103 147.032 12.4173 148.801 12.4173H149.394V16.3139H148.265C147.023 16.3139 146.062 16.6527 145.385 17.3304C144.707 17.9893 144.368 18.9494 144.368 20.2105V28.0888H139.85Z" fill="black"/>
<path d="M155.124 20.8601H156.62L161.505 28.0888H166.588L160.394 19.2111L165.486 12.6149H160.743L155.124 19.9725V7.47581H150.606V28.0888H155.124V20.8601Z" fill="black"/>
</svg>
