<svg width="130" height="35" viewBox="0 0 130 35" fill="none" xmlns="http://www.w3.org/2000/svg">
<path d="M73.071 26.6473V5.85291H76.8387V26.6473H73.071Z" fill="black"/>
<path d="M41.1777 6.42813L49.1446 26.6473H52.2508L60.304 6.42813H56.1336L50.7447 20.6239L45.4056 6.42813H41.1777Z" fill="black"/>
<path fill-rule="evenodd" clip-rule="evenodd" d="M60.8666 25.9858C61.9979 26.6185 63.2634 26.9349 64.6631 26.9349C66.0628 26.9349 67.3187 26.6185 68.4308 25.9858C69.5621 25.3339 70.4537 24.4614 71.1056 23.3685C71.7575 22.2564 72.0835 21.0197 72.0835 19.6583C72.0835 18.2969 71.7575 17.0794 71.1056 16.0056C70.4537 14.9127 69.5621 14.0499 68.4308 13.4171C67.3187 12.7652 66.0532 12.4392 64.6343 12.4392C63.2538 12.4392 61.9979 12.7652 60.8666 13.4171C59.7353 14.0499 58.8437 14.9127 58.1918 16.0056C57.5399 17.0794 57.2139 18.2969 57.2139 19.6583C57.2139 21.0197 57.5399 22.2564 58.1918 23.3685C58.8629 24.4614 59.7545 25.3339 60.8666 25.9858ZM66.5038 22.9658C65.9669 23.2726 65.3438 23.426 64.6343 23.426C63.944 23.426 63.3305 23.2726 62.7936 22.9658C62.2567 22.6399 61.8349 22.1989 61.5281 21.6428C61.2213 21.0676 61.0679 20.4157 61.0679 19.6871C61.0679 18.9584 61.2213 18.3161 61.5281 17.7601C61.8349 17.204 62.2567 16.7726 62.7936 16.4658C63.3305 16.1398 63.944 15.9769 64.6343 15.9769C65.3438 15.9769 65.9669 16.1398 66.5038 16.4658C67.0407 16.7726 67.4625 17.204 67.7693 17.7601C68.0761 18.3161 68.2295 18.9584 68.2295 19.6871C68.2295 20.4157 68.0761 21.0676 67.7693 21.6428C67.4817 22.1989 67.0599 22.6399 66.5038 22.9658Z" fill="black"/>
<path d="M81.385 26.1583C82.3438 26.676 83.4367 26.9349 84.6638 26.9349C85.891 26.9349 86.9743 26.6856 87.9138 26.1871C88.8726 25.6694 89.6108 24.9504 90.1285 24.03C90.6653 23.1097 90.9338 22.0359 90.9338 20.8088V12.7556H87.1661V20.7225C87.1661 21.5853 86.9455 22.2564 86.5046 22.7358C86.0635 23.2151 85.45 23.4548 84.6638 23.4548C84.1461 23.4548 83.6955 23.3493 83.312 23.1384C82.9286 22.9275 82.641 22.6207 82.4492 22.2181C82.2575 21.7962 82.1616 21.2977 82.1616 20.7225V12.7556H78.3651V20.8088C78.3651 22.0167 78.6336 23.0809 79.1704 24.0012C79.7073 24.9216 80.4455 25.6406 81.385 26.1583Z" fill="black"/>
<path d="M92.4961 26.6473V12.7556H96.2638V13.9609C96.6009 13.6318 96.9843 13.3547 97.4143 13.1295C98.2196 12.6885 99.1304 12.468 100.147 12.468C101.105 12.468 101.978 12.6885 102.764 13.1295C103.423 13.483 103.967 13.9644 104.397 14.5738C104.862 13.9807 105.429 13.5089 106.1 13.1583C106.944 12.6981 107.883 12.468 108.919 12.468C109.954 12.468 110.884 12.6885 111.709 13.1295C112.533 13.5513 113.185 14.1649 113.664 14.9702C114.144 15.7755 114.383 16.7342 114.383 17.8463V26.6473H110.616V18.4503C110.616 17.645 110.357 17.0219 109.839 16.5808C109.341 16.1207 108.717 15.8906 107.97 15.8906C107.49 15.8906 107.04 15.996 106.618 16.207C106.215 16.3987 105.899 16.6863 105.669 17.0698C105.439 17.4533 105.324 17.9135 105.324 18.4503V26.6473H101.556V18.4503C101.556 17.645 101.297 17.0219 100.779 16.5808C100.281 16.1207 99.6576 15.8906 98.9099 15.8906C98.4113 15.8906 97.9607 15.996 97.5581 16.207C97.1554 16.3987 96.839 16.6863 96.609 17.0698C96.3789 17.4533 96.2638 17.9135 96.2638 18.4503V26.6473H92.4961Z" fill="black"/>
<path fill-rule="evenodd" clip-rule="evenodd" d="M118.761 26.0145C119.892 26.6281 121.186 26.9349 122.643 26.9349C123.775 26.9349 124.82 26.7336 125.778 26.3309C126.756 25.9283 127.581 25.3339 128.252 24.5477L126.037 22.3331C125.615 22.8125 125.117 23.1768 124.542 23.426C123.966 23.6561 123.324 23.7712 122.615 23.7712C121.828 23.7712 121.138 23.6082 120.544 23.2822C119.949 22.9371 119.489 22.4577 119.163 21.8442C119.041 21.5913 118.942 21.3216 118.869 21.0351L129.028 21.0101C129.105 20.6841 129.153 20.3965 129.172 20.1472C129.21 19.8788 129.23 19.62 129.23 19.3707C129.23 18.0477 128.932 16.8685 128.338 15.8331C127.763 14.7785 126.957 13.954 125.922 13.3596C124.906 12.746 123.727 12.4392 122.384 12.4392C121.023 12.4392 119.786 12.7652 118.674 13.4171C117.562 14.0499 116.68 14.9127 116.028 16.0056C115.395 17.0794 115.079 18.3065 115.079 19.6871C115.079 21.0868 115.405 22.3331 116.057 23.426C116.728 24.5189 117.629 25.3818 118.761 26.0145ZM118.872 18.2158C118.94 17.9616 119.027 17.7233 119.134 17.5012C119.441 16.8876 119.873 16.4179 120.429 16.0919C120.985 15.7468 121.637 15.5742 122.384 15.5742C123.094 15.5742 123.688 15.7276 124.168 16.0344C124.666 16.322 125.04 16.7438 125.289 17.2999C125.419 17.5676 125.521 17.8664 125.597 18.1963L118.872 18.2158Z" fill="black"/>
<path fill-rule="evenodd" clip-rule="evenodd" d="M18.0215 35C27.6865 35 35.5215 27.165 35.5215 17.5C35.5215 7.83502 27.6865 0 18.0215 0C8.3565 0 0.521484 7.83502 0.521484 17.5C0.521484 27.165 8.3565 35 18.0215 35ZM25.2688 6.78869C25.4766 6.96434 25.5962 7.22254 25.5962 7.49456L25.5958 11.0105L25.5962 11.2418L25.5958 11.2695V23.0388C25.5958 25.0828 23.9388 26.7397 21.8948 26.7397C19.8509 26.7397 18.1939 25.0828 18.1939 23.0388C18.1939 20.9948 19.8509 19.3377 21.8948 19.3377C22.569 19.3377 23.2009 19.518 23.7453 19.8329V12.334L14.4926 13.8764V24.8893C14.4926 26.9333 12.8357 28.5902 10.7917 28.5902C8.74773 28.5902 7.09082 26.9333 7.09082 24.8893C7.09082 22.8453 8.74773 21.1881 10.7917 21.1881C11.4659 21.1881 12.0981 21.3685 12.6422 21.6834L12.6426 13.0923L12.6422 12.8609L12.6426 12.8333V9.34501C12.6426 8.89287 12.9695 8.50679 13.4159 8.43239L24.5187 6.58193C24.787 6.53721 25.0615 6.61284 25.2688 6.78869Z" fill="black"/>
</svg>
