<svg width="20" height="20" viewBox="0 0 20 20" fill="none" xmlns="http://www.w3.org/2000/svg">
<path d="M7.50246 2.25722C7.19873 1.4979 6.46332 1 5.64551 1H2.89474C1.8483 1 1 1.8481 1 2.89453C1 11.7892 8.2108 19 17.1055 19C18.1519 19 19 18.1516 19 17.1052L19.0005 14.354C19.0005 13.5361 18.5027 12.8009 17.7434 12.4971L15.1069 11.4429C14.4249 11.1701 13.6483 11.2929 13.0839 11.7632L12.4035 12.3307C11.6089 12.9929 10.4396 12.9402 9.7082 12.2088L7.79222 10.2911C7.06079 9.5596 7.00673 8.3913 7.66895 7.59668L8.2363 6.9163C8.7066 6.35195 8.8305 5.57516 8.5577 4.89309L7.50246 2.25722Z" stroke="black" stroke-width="2" stroke-linecap="round" stroke-linejoin="round"/>
</svg>
