<svg width="281" height="134" viewBox="0 0 281 134" fill="none" xmlns="http://www.w3.org/2000/svg">
<path d="M99.6048 68.2236L8 119.115V17.332L99.6048 68.2236Z" fill="black" stroke="black" stroke-width="14.7354" stroke-linecap="round" stroke-linejoin="round"/>
<path d="M247.109 8C255.206 15.5508 261.67 24.6806 266.103 34.8261C270.535 44.9717 272.842 55.9182 272.88 66.9897C272.919 78.0612 270.689 89.0224 266.328 99.1992C261.966 109.375 255.566 118.55 247.521 126.157M225 31.7089C229.859 36.2394 233.737 41.7173 236.396 47.8046C239.056 53.8921 240.44 60.4599 240.463 67.1023C240.486 73.7456 239.148 80.3223 236.531 86.4282C233.914 92.5341 230.074 98.0386 225.247 102.603" stroke="black" stroke-width="14.7354" stroke-linecap="round" stroke-linejoin="round"/>
<path d="M163.71 8C171.807 15.5508 178.271 24.6806 182.703 34.8261C187.135 44.9717 189.443 55.9182 189.481 66.9897C189.52 78.0612 187.289 89.0224 182.928 99.1992C178.567 109.375 172.167 118.55 164.122 126.157M141.601 31.7089C146.459 36.2394 150.337 41.7173 152.997 47.8046C155.656 53.8921 157.04 60.4599 157.064 67.1023C157.087 73.7456 155.749 80.3223 153.132 86.4282C150.515 92.5341 146.675 98.0386 141.848 102.603" stroke="black" stroke-width="14.7354" stroke-linecap="round" stroke-linejoin="round"/>
</svg>
