<svg width="353" height="353" viewBox="0 0 353 353" fill="none" xmlns="http://www.w3.org/2000/svg">
<g clip-path="url(#clip0_1_8)">
<path d="M10.2693 174.727L10.1504 176.191L0.215302 175.385L0.53045 171.503C0.619265 170.409 0.958607 169.583 1.54848 169.027C2.13836 168.471 2.97446 168.237 4.0568 168.325C5.03325 168.404 5.76675 168.778 6.25731 169.445C6.74882 170.101 6.95159 170.958 6.86564 172.017L6.66939 174.435L10.2693 174.727ZM1.73376 171.778L1.55183 174.019L5.55765 174.344L5.73957 172.103C5.79687 171.397 5.67705 170.831 5.38012 170.404C5.08414 169.966 4.60086 169.719 3.93028 169.665C3.23617 169.609 2.71406 169.767 2.36395 170.142C2.00208 170.515 1.79201 171.06 1.73376 171.778Z" fill="black"/>
<path d="M10.1086 166.5L10.844 160.918L12.0376 161.075L11.1125 168.096L1.23013 166.794L2.13208 159.949L3.3959 160.115L2.6836 165.521L5.68518 165.917L6.24022 161.704L7.45139 161.864L6.89635 166.077L10.1086 166.5Z" fill="black"/>
<path d="M11.9009 160.694L2.71689 155.575L3.16223 153.19L13.588 151.661L13.2987 153.21L10.1993 153.604L9.43863 157.677L12.1869 159.162L11.9009 160.694ZM3.55357 154.47L8.36149 157.079L8.97911 153.772L3.55357 154.47Z" fill="black"/>
<path d="M14.0107 150.495L4.3421 148.071L4.69946 146.646L9.49082 147.847L5.8749 141.957L6.3399 140.103L6.52881 140.15L9.32951 145.069L15.8712 142.273L16.0601 142.321L15.6468 143.969L10.0457 146.362L11.1395 148.26L14.368 149.07L14.0107 150.495Z" fill="black"/>
<path d="M15.9593 139.237L17.6365 133.863L18.7857 134.221L16.676 140.982L7.1608 138.012L9.21776 131.421L10.4346 131.801L8.81015 137.006L11.7002 137.908L12.966 133.852L14.1322 134.216L12.8664 138.272L15.9593 139.237Z" fill="black"/>
<path d="M19.4614 131.813L10.1289 128.311L11.3542 125.046C11.8021 123.852 12.3472 123.004 12.9897 122.502C13.6253 121.984 14.4514 121.915 15.4681 122.297C16.1753 122.562 16.6981 122.966 17.0365 123.509C17.379 124.041 17.4155 124.666 17.146 125.385C17.3077 124.954 17.5219 124.669 17.7885 124.529C18.0552 124.39 18.3467 124.335 18.663 124.366C18.9683 124.392 19.2743 124.45 19.581 124.54C19.8876 124.63 20.1708 124.698 20.4305 124.745C20.6902 124.792 20.9002 124.77 21.0605 124.679C21.2097 124.584 21.2836 124.353 21.2823 123.987L22.1111 124.298C22.1857 124.502 22.1974 124.74 22.1462 125.011C22.1103 125.275 22.0025 125.511 21.8228 125.721C21.6543 125.935 21.4097 126.083 21.0892 126.165C20.7618 126.231 20.3494 126.171 19.8521 125.984C19.2664 125.764 18.7954 125.625 18.439 125.567C18.0826 125.509 17.7814 125.573 17.5355 125.758C17.2895 125.943 17.0581 126.291 16.8411 126.802C16.613 127.309 16.3456 128.022 16.0387 128.94L19.9839 130.421L19.4614 131.813ZM15.011 128.555L15.7325 126.632C15.944 126.068 16.085 125.592 16.1555 125.202C16.215 124.809 16.1674 124.482 16.0127 124.222C15.8622 123.951 15.5604 123.731 15.1073 123.561C14.5879 123.366 14.1707 123.335 13.8557 123.469C13.5407 123.603 13.2747 123.875 13.0577 124.286C12.8339 124.681 12.6079 125.182 12.3798 125.79L11.7952 127.348L15.011 128.555Z" fill="black"/>
<path d="M20.4097 112.584C20.2178 113.002 19.988 113.234 19.7202 113.28C19.4524 113.326 19.1736 113.283 18.8839 113.15C18.6157 113.027 18.4117 112.849 18.2718 112.616C18.1319 112.383 18.1579 112.058 18.3498 111.639C18.5417 111.221 18.769 110.994 19.0319 110.959C19.2997 110.913 19.5678 110.951 19.836 111.074C20.1257 111.207 20.3404 111.39 20.4803 111.623C20.6251 111.845 20.6016 112.165 20.4097 112.584Z" fill="black"/>
<path d="M30.6363 97.825C30.2909 98.4567 29.8612 99.0087 29.3473 99.4811C28.8231 99.9477 28.2415 100.249 27.6027 100.384C26.9592 100.502 26.2825 100.375 25.5726 99.9999L26.2862 98.695C26.3276 98.7177 26.4552 98.7673 26.6689 98.8438C26.878 98.9043 27.1389 98.9192 27.4517 98.8884C27.7598 98.8417 28.0929 98.6875 28.4512 98.426C28.8094 98.1645 29.1613 97.7179 29.5067 97.0862C29.7842 96.5788 29.9297 96.1404 29.9433 95.7712C29.9625 95.3915 29.9049 95.091 29.7704 94.8695C29.6416 94.6376 29.5024 94.474 29.3527 94.3787C29.0317 94.2032 28.7161 94.1652 28.4061 94.2647C28.1018 94.3539 27.7992 94.5382 27.4984 94.8176C27.1872 95.0914 26.8718 95.41 26.5521 95.7732C26.2277 96.1205 25.8981 96.4649 25.5633 96.8065C25.2182 97.1424 24.8538 97.4275 24.4702 97.6616C24.0922 97.8854 23.694 98.0107 23.2758 98.0376C22.8528 98.0485 22.4013 97.9025 21.9212 97.5996C21.2236 97.1778 20.8484 96.5354 20.7956 95.6725C20.7485 94.7992 21.0053 93.8499 21.5659 92.8247C21.8943 92.224 22.3089 91.7243 22.8095 91.3254C23.3101 90.9265 23.8629 90.6907 24.4677 90.6178C25.0725 90.545 25.7012 90.6869 26.3536 91.0437L25.6656 92.302C25.3031 92.1038 24.9707 92.0229 24.6682 92.0593C24.3555 92.09 24.0718 92.1905 23.8173 92.3608C23.5628 92.531 23.344 92.7342 23.161 92.9705C22.9677 93.2011 22.8144 93.4199 22.7011 93.6271C22.3783 94.2173 22.2209 94.7635 22.2288 95.2656C22.2425 95.7574 22.4357 96.1052 22.8085 96.309C23.1342 96.5006 23.4521 96.5466 23.7621 96.4471C24.0721 96.3476 24.3775 96.1581 24.6783 95.8786C24.9791 95.5992 25.2866 95.283 25.6006 94.9301C25.9203 94.5668 26.2476 94.2144 26.5823 93.8728C26.9228 93.5208 27.282 93.2329 27.66 93.0092C28.0333 92.7693 28.4366 92.6468 28.8699 92.6416C29.2985 92.6204 29.7557 92.7561 30.2415 93.0486C30.7112 93.3458 31.0372 93.7461 31.2194 94.2493C31.3969 94.7365 31.4373 95.29 31.3406 95.9097C31.2335 96.5238 30.9987 97.1622 30.6363 97.825Z" fill="black"/>
<path d="M33.9544 91.7098L33.1792 92.9582L24.711 87.7002L26.7656 84.3912C27.3446 83.4586 28.0235 82.8798 28.8023 82.6548C29.5811 82.4298 30.4318 82.6037 31.3543 83.1765C32.1866 83.6933 32.6684 84.3606 32.7997 85.1784C32.9372 85.9863 32.7258 86.8414 32.1654 87.7439L30.8859 89.8046L33.9544 91.7098ZM27.71 85.186L26.524 87.0962L29.9383 89.2162L31.1244 87.306C31.498 86.7043 31.6502 86.1458 31.5811 85.6306C31.5183 85.1053 31.2011 84.6652 30.6295 84.3103C30.0379 83.943 29.5008 83.8457 29.0184 84.0185C28.526 84.1851 28.0898 84.5743 27.71 85.186Z" fill="black"/>
<path d="M37.5596 83.8858L40.7709 79.2613L41.7598 79.948L37.7204 85.765L29.533 80.0796L33.4714 74.408L34.5184 75.1351L31.4081 79.6142L33.8949 81.341L36.3185 77.8508L37.3219 78.5476L34.8983 82.0378L37.5596 83.8858Z" fill="black"/>
<path d="M41.789 79.1033L35.9813 70.3383L37.4718 68.4247L47.4354 71.854L46.4671 73.0971L43.533 72.0237L40.9873 75.2921L42.7464 77.8741L41.789 79.1033ZM37.2317 69.7413L40.3047 74.2668L42.3718 71.6129L37.2317 69.7413Z" fill="black"/>
<path d="M49.0052 70.9389L41.5112 64.3664L42.4802 63.2616L46.1939 66.5186L45.6672 59.6277L46.928 58.1902L47.0744 58.3186L47.3194 63.9733L54.4157 64.4745L54.5621 64.6029L53.4414 65.8807L47.366 65.4507L47.4717 67.6393L49.9742 69.8341L49.0052 70.9389Z" fill="black"/>
<path d="M55.1755 61.2464L59.1276 57.2365L59.9851 58.0816L55.0139 63.1255L47.9146 56.1286L52.7615 51.2108L53.6694 52.1056L49.8416 55.9894L51.9979 58.1146L54.9806 55.0882L55.8506 55.9458L52.868 58.9721L55.1755 61.2464Z" fill="black"/>
<path d="M61.4656 56.742L54.758 49.3687L57.338 47.0217C58.2809 46.1639 59.1529 45.6578 59.954 45.5035C60.7558 45.3325 61.5221 45.6486 62.2528 46.4519C62.7612 47.0107 63.0421 47.6088 63.0955 48.2464C63.1576 48.876 62.9049 49.4489 62.3374 49.9652C62.6779 49.6554 62.9986 49.4993 63.2996 49.4968C63.6005 49.4943 63.8847 49.5788 64.1524 49.7502C64.412 49.9129 64.6579 50.1041 64.8898 50.324C65.1217 50.5438 65.3425 50.7339 65.5521 50.8942C65.7618 51.0545 65.9587 51.1307 66.1429 51.1227C66.3192 51.1059 66.4902 50.9344 66.656 50.608L67.2517 51.2628C67.2248 51.4788 67.1268 51.6956 66.9578 51.9132C66.8054 52.1316 66.6014 52.2932 66.3458 52.3981C66.0981 52.5117 65.8131 52.5317 65.4907 52.458C65.1692 52.3676 64.8296 52.1259 64.4722 51.733C64.0513 51.2703 63.6954 50.9318 63.4048 50.7175C63.1141 50.5032 62.8171 50.4223 62.5139 50.4748C62.2106 50.5274 61.8458 50.7315 61.4196 51.0874C60.9854 51.4345 60.4223 51.9468 59.7301 52.6243L62.5657 55.7412L61.4656 56.742ZM58.9915 51.8123L60.5107 50.4303C60.9559 50.0252 61.2988 49.6654 61.5393 49.3509C61.7718 49.0277 61.8785 48.7152 61.8593 48.4135C61.8489 48.1039 61.6808 47.7701 61.3552 47.4121C60.9819 47.0018 60.6245 46.7843 60.2831 46.7598C59.9417 46.7353 59.5809 46.8561 59.2007 47.1223C58.8212 47.3717 58.3914 47.7148 57.9112 48.1517L56.6801 49.2716L58.9915 51.8123Z" fill="black"/>
<path d="M70.3279 44.2369C69.9668 44.5224 69.6565 44.6248 69.3971 44.5441C69.1376 44.4633 68.9091 44.2979 68.7114 44.048C68.5284 43.8165 68.4275 43.5652 68.4088 43.2941C68.3901 43.023 68.5613 42.7447 68.9224 42.4592C69.2834 42.1737 69.5891 42.075 69.8393 42.1631C70.0987 42.2438 70.32 42.4 70.503 42.6314C70.7007 42.8814 70.8088 43.1419 70.8276 43.413C70.8556 43.6768 70.689 43.9514 70.3279 44.2369Z" fill="black"/>
<path d="M82.9535 39.4088C82.3576 39.8129 81.7232 40.1077 81.0503 40.2932C80.3708 40.4688 79.716 40.4708 79.0861 40.299C78.4593 40.1109 77.9158 39.688 77.4555 39.0304L78.6863 38.1956C78.7128 38.2346 78.8036 38.337 78.9588 38.5027C79.1172 38.6521 79.3425 38.7845 79.6348 38.9C79.9302 38.9991 80.297 39.0142 80.7351 38.9453C81.1732 38.8763 81.6902 38.6397 82.2861 38.2356C82.7647 37.9109 83.0944 37.5875 83.2752 37.2652C83.4657 36.9363 83.5518 36.6426 83.5333 36.3842C83.5247 36.119 83.4755 35.9099 83.3859 35.7568C83.1805 35.454 82.9172 35.276 82.596 35.2229C82.2845 35.1632 81.9311 35.1889 81.5359 35.3001C81.134 35.4015 80.7079 35.5408 80.2576 35.7179C79.8103 35.8786 79.3598 36.0344 78.906 36.1854C78.4455 36.3265 77.9911 36.4137 77.5429 36.4467C77.1044 36.4731 76.693 36.4027 76.3087 36.2356C75.9275 36.052 75.5925 35.7158 75.3038 35.2271C74.8759 34.5332 74.8356 33.7904 75.1829 32.9986C75.5399 32.2003 76.2019 31.4731 77.169 30.8172C77.7355 30.433 78.3326 30.1777 78.9601 30.0516C79.5877 29.9255 80.1871 29.9682 80.7584 30.1797C81.3298 30.3912 81.8241 30.8046 82.2415 31.42L81.0547 32.225C80.8228 31.8831 80.564 31.6593 80.2783 31.5536C79.9861 31.438 79.6878 31.3979 79.3837 31.433C79.0795 31.4682 78.792 31.549 78.5213 31.6756C78.244 31.7924 78.0076 31.9171 77.8123 32.0496C77.2555 32.4272 76.8659 32.8412 76.6436 33.2914C76.4311 33.7351 76.4441 34.1328 76.6826 34.4844C76.8849 34.8036 77.1466 34.9898 77.4679 35.0429C77.7891 35.096 78.1474 35.0669 78.5426 34.9557C78.9378 34.8445 79.3557 34.7037 79.7963 34.5332C80.2467 34.3561 80.6988 34.1921 81.1526 34.0412C81.6162 33.8836 82.0673 33.7916 82.5058 33.7652C82.9474 33.7224 83.3621 33.7976 83.7499 33.991C84.1409 34.1679 84.4857 34.4974 84.7841 34.9796C85.0662 35.4585 85.1734 35.9635 85.1056 36.4944C85.041 37.0089 84.8241 37.5197 84.4549 38.0268C84.0791 38.5241 83.5786 38.9848 82.9535 39.4088Z" fill="black"/>
<path d="M89.1422 35.2044L87.8825 35.9611L82.7496 27.4165L86.0885 25.4107C87.0295 24.8455 87.8978 24.6406 88.6934 24.796C89.489 24.9515 90.1664 25.4946 90.7256 26.4255C91.23 27.2653 91.354 28.0789 91.0973 28.8665C90.8507 29.648 90.2722 30.3122 89.3615 30.8593L87.2823 32.1083L89.1422 35.2044ZM86.5658 26.5491L84.6384 27.707L86.7079 31.1521L88.6354 29.9943C89.2425 29.6296 89.6329 29.2023 89.8068 28.7123C89.9907 28.2163 89.9094 27.6799 89.563 27.1032C89.2044 26.5062 88.771 26.1745 88.2629 26.108C87.7487 26.0313 87.183 26.1784 86.5658 26.5491Z" fill="black"/>
<path d="M95.817 30.7271L100.786 28.0808L101.352 29.1435L95.1014 32.4722L90.4163 23.674L96.5109 20.4286L97.1101 21.5537L92.2969 24.1168L93.7199 26.7891L97.4704 24.7919L98.0446 25.8701L94.2941 27.8673L95.817 30.7271Z" fill="black"/>
<path d="M101.705 28.2154L100.514 17.7686L102.711 16.7411L110.029 24.3231L108.601 24.9905L106.475 22.7012L102.722 24.4561L103.116 27.5554L101.705 28.2154ZM101.899 17.805L102.58 23.2326L105.627 21.8076L101.899 17.805Z" fill="black"/>
<path d="M110.95 24.1785L107.274 14.9133L108.64 14.3714L110.462 18.9629L113.133 12.5889L114.91 11.8837L114.982 12.0647L112.623 17.21L118.712 20.8895L118.784 21.0706L117.204 21.6974L111.992 18.5463L111.089 20.5427L112.316 23.6366L110.95 24.1785Z" fill="black"/>
<path d="M121.499 19.1987L126.848 17.4405L127.224 18.5843L120.496 20.7958L117.383 11.3264L123.943 9.17023L124.341 10.3812L119.161 12.0841L120.106 14.9602L124.143 13.6333L124.524 14.7938L120.488 16.1207L121.499 19.1987Z" fill="black"/>
<path d="M128.751 18.0844L126.144 8.46362L129.511 7.55134C130.741 7.21792 131.748 7.16519 132.531 7.39317C133.323 7.60667 133.861 8.23746 134.145 9.28555C134.342 10.0147 134.319 10.6751 134.076 11.2668C133.844 11.8555 133.358 12.2502 132.618 12.4508C133.062 12.3304 133.419 12.3377 133.688 12.4727C133.957 12.6078 134.171 12.8126 134.331 13.0871C134.488 13.3503 134.62 13.6327 134.726 13.9341C134.832 14.2355 134.942 14.5053 135.055 14.7436C135.169 14.9819 135.309 15.1395 135.477 15.2164C135.641 15.2818 135.872 15.2072 136.168 14.9923L136.4 15.8467C136.277 16.0267 136.091 16.1749 135.841 16.2915C135.606 16.4164 135.351 16.4672 135.076 16.444C134.803 16.4322 134.541 16.3199 134.287 16.1073C134.042 15.8802 133.85 15.5103 133.712 14.9977C133.548 14.3939 133.386 13.9304 133.225 13.6071C133.064 13.2839 132.836 13.0765 132.542 12.9849C132.249 12.8933 131.831 12.9087 131.289 13.031C130.744 13.1419 130.01 13.341 129.085 13.6284L130.187 17.6954L128.751 18.0844ZM128.798 12.5689L130.78 12.0317C131.361 11.8743 131.83 11.7104 132.188 11.5402C132.542 11.3586 132.779 11.1291 132.9 10.8519C133.032 10.5716 133.034 10.1979 132.908 9.73077C132.763 9.19533 132.544 8.83886 132.251 8.66137C131.959 8.48387 131.582 8.42685 131.123 8.49029C130.671 8.53925 130.132 8.64863 129.506 8.81843L127.899 9.25373L128.798 12.5689Z" fill="black"/>
<path d="M142.95 10.8957C142.498 10.9837 142.176 10.9323 141.982 10.7415C141.789 10.5507 141.661 10.2989 141.601 9.98606C141.544 9.69642 141.57 9.42687 141.678 9.17742C141.785 8.92797 142.065 8.75926 142.517 8.67128C142.969 8.58331 143.286 8.63585 143.468 8.82891C143.661 9.01971 143.786 9.25993 143.842 9.54958C143.903 9.86239 143.88 10.1435 143.772 10.393C143.676 10.6402 143.402 10.8078 142.95 10.8957Z" fill="black"/>
<path d="M156.178 12.4876C155.464 12.5734 154.765 12.5444 154.082 12.4005C153.397 12.2449 152.814 11.9463 152.334 11.5047C151.863 11.0501 151.574 10.425 151.466 9.6295L152.943 9.45224C152.949 9.49911 152.982 9.63177 153.044 9.85022C153.117 10.0555 153.256 10.2765 153.463 10.5133C153.68 10.7368 153.999 10.9185 154.42 11.0582C154.841 11.1978 155.409 11.2248 156.123 11.1389C156.698 11.07 157.139 10.9338 157.447 10.7303C157.768 10.5255 157.979 10.304 158.081 10.0658C158.195 9.82631 158.247 9.61794 158.238 9.44075C158.194 9.07746 158.042 8.79855 157.781 8.60402C157.531 8.40809 157.205 8.26888 156.803 8.1864C156.4 8.09219 155.957 8.02049 155.476 7.97129C155.005 7.90897 154.533 7.84079 154.06 7.76674C153.586 7.68098 153.143 7.54998 152.729 7.37374C152.327 7.1961 151.994 6.94486 151.729 6.62001C151.475 6.28204 151.331 5.82969 151.299 5.26296C151.237 4.45012 151.542 3.77157 152.214 3.2273C152.897 2.68163 153.819 2.33915 154.979 2.19988C155.659 2.11828 156.306 2.16536 156.922 2.34112C157.537 2.51688 158.05 2.82976 158.461 3.27976C158.872 3.72975 159.121 4.3239 159.21 5.0622L157.786 5.23313C157.737 4.82296 157.61 4.50538 157.404 4.28038C157.198 4.04367 156.951 3.87117 156.665 3.7629C156.378 3.65463 156.086 3.59464 155.787 3.58293C155.487 3.55951 155.22 3.56186 154.985 3.59C154.317 3.67019 153.781 3.85936 153.377 4.15751C152.985 4.45426 152.814 4.81358 152.865 5.23546C152.898 5.61188 153.045 5.89735 153.306 6.09188C153.568 6.2864 153.899 6.42491 154.301 6.50739C154.704 6.58988 155.14 6.65642 155.609 6.70703C156.091 6.75623 156.568 6.81785 157.04 6.89189C157.524 6.96453 157.967 7.08967 158.369 7.26731C158.781 7.43183 159.115 7.68893 159.371 8.03862C159.637 8.37518 159.793 8.82613 159.837 9.39146C159.868 9.94647 159.731 10.4443 159.428 10.885C159.134 11.3125 158.707 11.6669 158.146 11.9482C157.584 12.2177 156.928 12.3975 156.178 12.4876Z" fill="black"/>
<path d="M162.876 11.7893L161.41 11.8856L160.756 1.93927L164.643 1.68399C165.738 1.61204 166.604 1.82724 167.24 2.32956C167.877 2.83189 168.23 3.62484 168.302 4.7084C168.366 5.68596 168.104 6.46613 167.515 7.04891C166.938 7.63091 166.12 7.95673 165.06 8.02635L162.639 8.18532L162.876 11.7893ZM164.546 2.9146L162.303 3.06196L162.566 7.07231L164.81 6.92495C165.516 6.87853 166.059 6.67729 166.438 6.3212C166.829 5.96435 167.002 5.45025 166.958 4.77892C166.912 4.08403 166.679 3.59073 166.257 3.29903C165.835 2.99555 165.265 2.86741 164.546 2.9146Z" fill="black"/>
<path d="M178.823 11.0031L182.589 1.18631L185.013 1.28924L188.003 11.3931L186.429 11.3262L185.6 8.31391L181.461 8.13809L180.38 11.0693L178.823 11.0031ZM183.801 1.85801L181.9 6.98716L185.261 7.12992L183.801 1.85801Z" fill="black"/>
<path d="M189.09 11.0838L190.088 1.16602L191.55 1.31309L191.055 6.22793L196.359 1.79681L198.261 1.98817L198.242 2.18195L193.781 5.66576L197.495 11.7334L197.475 11.9272L195.784 11.7571L192.606 6.56179L190.885 7.91906L190.552 11.2308L189.09 11.0838Z" fill="black"/>
<path d="M200.181 12.0062L205.741 12.8912L205.551 14.0802L198.558 12.9669L200.125 3.12302L206.944 4.20846L206.743 5.46736L201.358 4.61014L200.882 7.60002L205.078 8.26798L204.886 9.47443L200.69 8.80647L200.181 12.0062Z" fill="black"/>
<path d="M206.754 13.8814L208.845 4.13541L212.255 4.8672C213.502 5.13466 214.421 5.54917 215.012 6.11074C215.618 6.66325 215.807 7.47036 215.579 8.53209C215.421 9.27068 215.098 9.84723 214.611 10.2618C214.135 10.6788 213.522 10.8068 212.772 10.6458C213.222 10.7424 213.535 10.9123 213.713 11.1555C213.89 11.3988 213.987 11.6791 214.003 11.9965C214.022 12.3023 214.009 12.6135 213.966 12.9301C213.922 13.2466 213.896 13.5368 213.887 13.8006C213.879 14.0644 213.932 14.2688 214.046 14.414C214.162 14.5475 214.401 14.5868 214.763 14.5316L214.577 15.3972C214.386 15.501 214.152 15.5475 213.877 15.5367C213.611 15.5399 213.361 15.4681 213.127 15.3213C212.89 15.1861 212.708 14.9659 212.58 14.6608C212.466 14.3467 212.465 13.93 212.577 13.4107C212.708 12.799 212.776 12.3127 212.781 11.9516C212.786 11.5905 212.679 11.302 212.46 11.0859C212.241 10.8699 211.862 10.6921 211.325 10.5526C210.79 10.4016 210.046 10.2419 209.092 10.0734L208.208 14.1934L206.754 13.8814ZM209.322 9.00017L211.33 9.43107C211.919 9.55737 212.411 9.62676 212.807 9.63924C213.205 9.64018 213.521 9.54506 213.755 9.35387C214.001 9.16516 214.175 8.83423 214.276 8.36107C214.392 7.81866 214.361 7.40152 214.182 7.10964C214.004 6.81776 213.695 6.59468 213.258 6.4404C212.834 6.27705 212.305 6.12727 211.67 5.99107L210.043 5.64188L209.322 9.00017Z" fill="black"/>
<path d="M222.505 14.6802C222.063 14.5514 221.799 14.3578 221.715 14.0996C221.63 13.8414 221.633 13.5593 221.722 13.2533C221.804 12.97 221.951 12.7422 222.161 12.5698C222.371 12.3974 222.697 12.3757 223.139 12.5045C223.581 12.6333 223.838 12.8251 223.911 13.0801C223.996 13.3383 223.997 13.6091 223.914 13.8924C223.825 14.1983 223.676 14.4375 223.466 14.6098C223.267 14.7855 222.946 14.809 222.505 14.6802Z" fill="black"/>
<path d="M232.861 21.8952C232.186 21.6448 231.578 21.2996 231.036 20.8594C230.498 20.4082 230.117 19.8763 229.891 19.2637C229.68 18.6442 229.708 17.9561 229.976 17.1995L231.371 17.7168C231.354 17.761 231.324 17.8944 231.279 18.117C231.249 18.3326 231.272 18.593 231.348 18.898C231.439 19.1961 231.64 19.5034 231.95 19.8201C232.261 20.1367 232.754 20.4202 233.429 20.6706C233.971 20.8718 234.426 20.9523 234.793 20.9124C235.171 20.8765 235.46 20.776 235.66 20.6109C235.871 20.4499 236.013 20.2884 236.085 20.1265C236.213 19.7835 236.205 19.4658 236.061 19.1734C235.929 18.8852 235.703 18.6124 235.383 18.3552C235.067 18.087 234.706 17.8209 234.3 17.5571C233.91 17.2864 233.521 17.0101 233.135 16.7283C232.753 16.4354 232.418 16.1161 232.131 15.7703C231.854 15.4287 231.673 15.0529 231.586 14.6429C231.514 14.226 231.593 13.7581 231.823 13.2392C232.14 12.4879 232.721 12.0237 233.567 11.8467C234.424 11.6737 235.401 11.7904 236.496 12.1968C237.138 12.4349 237.693 12.7728 238.16 13.2104C238.627 13.6481 238.94 14.1609 239.1 14.7488C239.26 15.3367 239.21 15.9793 238.951 16.6765L237.607 16.1777C237.75 15.7904 237.782 15.4497 237.703 15.1558C237.627 14.8507 237.486 14.5846 237.281 14.3574C237.076 14.1302 236.843 13.9431 236.583 13.7963C236.327 13.6383 236.088 13.5183 235.867 13.4362C235.236 13.2022 234.673 13.1254 234.177 13.2059C233.693 13.2906 233.376 13.5321 233.229 13.9304C233.086 14.2805 233.087 14.6017 233.23 14.894C233.373 15.1864 233.605 15.4612 233.925 15.7184C234.245 15.9755 234.602 16.234 234.997 16.4937C235.403 16.7575 235.799 17.0303 236.185 17.3121C236.583 17.5981 236.919 17.9118 237.196 18.2535C237.487 18.5881 237.666 18.9695 237.734 19.3975C237.817 19.8185 237.749 20.2905 237.53 20.8135C237.304 21.3213 236.955 21.7018 236.484 21.9549C236.027 22.201 235.485 22.3211 234.858 22.315C234.235 22.2979 233.569 22.158 232.861 21.8952Z" fill="black"/>
<path d="M240.749 23.6445L239.402 23.0569L243.387 13.9206L246.957 15.478C247.963 15.9169 248.634 16.5055 248.969 17.2439C249.303 17.9822 249.253 18.849 248.819 19.8444C248.428 20.7423 247.836 21.3151 247.046 21.5626C246.266 21.8148 245.39 21.7286 244.416 21.3038L242.193 20.334L240.749 23.6445ZM246.307 16.5269L244.246 15.6279L242.639 19.3116L244.7 20.2107C245.349 20.4938 245.923 20.5642 246.423 20.4217C246.934 20.284 247.324 19.9068 247.593 19.2901C247.871 18.6518 247.89 18.1064 247.65 17.6538C247.414 17.1905 246.967 16.8148 246.307 16.5269Z" fill="black"/>
<path d="M248.362 26.286L253.399 28.8027L252.861 29.8796L246.526 26.714L250.981 17.7975L257.158 20.8839L256.588 22.0242L251.71 19.5867L250.357 22.2949L254.158 24.1943L253.612 25.2871L249.811 23.3877L248.362 26.286Z" fill="black"/>
<path d="M254.058 30.9782L261.906 23.9816L264.013 25.1844L262.037 35.5348L260.669 34.7534L261.313 31.6964L257.716 29.6419L255.411 31.7508L254.058 30.9782ZM262.675 25.1343L258.633 28.8204L261.555 30.4885L262.675 25.1343Z" fill="black"/>
<path d="M263.243 36.1644L268.686 27.8139L269.917 28.6164L267.219 32.7545L273.966 31.2558L275.568 32.2999L275.461 32.4631L269.899 33.5076L270.409 40.6032L270.303 40.7664L268.879 39.8382L268.443 33.7633L266.291 34.1784L264.474 36.9668L263.243 36.1644Z" fill="black"/>
<path d="M273.805 41.2421L278.334 44.5872L277.618 45.5556L271.922 41.3479L277.844 33.3302L283.398 37.4327L282.641 38.458L278.255 35.2181L276.456 37.6533L279.874 40.1779L279.148 41.1606L275.73 38.636L273.805 41.2421Z" fill="black"/>
<path d="M278.282 45.9265L284.606 38.2213L287.302 40.434C288.287 41.2427 288.914 42.0322 289.183 42.8024C289.469 43.571 289.267 44.3751 288.578 45.2145C288.099 45.7984 287.547 46.163 286.924 46.3082C286.31 46.4609 285.707 46.2939 285.114 45.8072C285.47 46.0992 285.671 46.3939 285.717 46.6913C285.763 46.9887 285.72 47.2822 285.59 47.5718C285.466 47.8523 285.313 48.1233 285.129 48.3846C284.945 48.6459 284.789 48.8919 284.66 49.1226C284.532 49.3533 284.485 49.5592 284.52 49.7402C284.562 49.9122 284.757 50.0566 285.104 50.1734L284.542 50.8577C284.324 50.8623 284.096 50.7968 283.856 50.6611C283.618 50.542 283.428 50.3635 283.287 50.1258C283.139 49.8972 283.078 49.6181 283.104 49.2884C283.147 48.9571 283.337 48.5862 283.674 48.1756C284.071 47.692 284.354 47.2909 284.524 46.9723C284.694 46.6536 284.731 46.3481 284.635 46.0556C284.539 45.7631 284.284 45.4318 283.871 45.0616C283.464 44.6823 282.876 44.1994 282.105 43.6127L279.432 46.87L278.282 45.9265ZM282.801 42.7642L284.389 44.0671C284.854 44.449 285.26 44.7361 285.606 44.9285C285.96 45.1117 286.284 45.172 286.58 45.1093C286.885 45.0541 287.191 44.8395 287.498 44.4654C287.85 44.0366 288.013 43.6515 287.988 43.3101C287.963 42.9688 287.791 42.6293 287.472 42.2916C287.171 41.9523 286.769 41.5768 286.267 41.1649L284.98 40.1091L282.801 42.7642Z" fill="black"/>
<path d="M292.41 54.4208C292.076 54.1037 291.931 53.811 291.974 53.5427C292.018 53.2745 292.149 53.0248 292.369 52.7938C292.572 52.5799 292.806 52.4446 293.072 52.3877C293.338 52.3308 293.638 52.461 293.971 52.7781C294.305 53.0952 294.446 53.3838 294.394 53.644C294.351 53.9122 294.227 54.1533 294.024 54.3672C293.805 54.5982 293.562 54.7421 293.296 54.799C293.039 54.864 292.744 54.7379 292.41 54.4208Z" fill="black"/>
<path d="M297.834 65.3541C297.347 64.8233 296.963 64.2385 296.682 63.5997C296.41 62.9529 296.313 62.3054 296.391 61.6572C296.486 61.0097 296.826 60.4105 297.409 59.8595L298.414 60.956C298.379 60.9879 298.291 61.0926 298.15 61.2703C298.025 61.4486 297.927 61.6908 297.855 61.9967C297.8 62.3034 297.838 62.6685 297.97 63.0919C298.102 63.5154 298.411 63.9925 298.898 64.5234C299.288 64.9498 299.656 65.229 300.001 65.361C300.354 65.5017 300.658 65.5442 300.911 65.4884C301.172 65.4413 301.371 65.3623 301.51 65.2514C301.78 65.0042 301.917 64.7178 301.923 64.3922C301.937 64.0754 301.86 63.7295 301.693 63.3546C301.534 62.9718 301.334 62.5704 301.094 62.1506C300.87 61.7314 300.65 61.3083 300.435 60.8812C300.228 60.4462 300.076 60.0093 299.978 59.5706C299.888 59.1406 299.898 58.7234 300.008 58.3188C300.134 57.915 300.418 57.5347 300.86 57.178C301.484 56.6539 302.213 56.5061 303.047 56.7346C303.889 56.9719 304.704 57.5212 305.494 58.3827C305.956 58.8874 306.295 59.4411 306.511 60.0436C306.727 60.6462 306.772 61.2455 306.646 61.8415C306.52 62.4374 306.183 62.9866 305.634 63.489L304.665 62.4317C304.97 62.1526 305.154 61.8641 305.217 61.5661C305.289 61.2601 305.285 60.9592 305.206 60.6634C305.127 60.3675 305.005 60.0949 304.841 59.8454C304.685 59.588 304.527 59.3723 304.368 59.1982C303.913 58.7022 303.447 58.377 302.969 58.2225C302.5 58.0766 302.108 58.1473 301.795 58.4344C301.508 58.6808 301.362 58.9669 301.356 59.2924C301.35 59.618 301.431 59.9682 301.599 60.3431C301.766 60.7179 301.966 61.111 302.199 61.5221C302.44 61.942 302.668 62.3654 302.883 62.7925C303.106 63.2283 303.263 63.6612 303.352 64.0912C303.459 64.5219 303.445 64.9432 303.31 65.355C303.192 65.7675 302.916 66.1565 302.482 66.5218C302.049 66.8705 301.565 67.0499 301.03 67.06C300.512 67.0708 299.975 66.9304 299.419 66.6388C298.873 66.3393 298.344 65.9111 297.834 65.3541Z" fill="black"/>
<path d="M302.655 69.839L301.723 68.7031L309.428 62.3795L311.899 65.3904C312.595 66.239 312.924 67.0681 312.887 67.8779C312.849 68.6876 312.41 69.437 311.571 70.1259C310.814 70.7474 310.027 70.9885 309.21 70.8494C308.401 70.7194 307.659 70.2438 306.986 69.4227L305.447 67.5477L302.655 69.839ZM310.842 66.0286L309.416 64.2905L306.309 66.8401L307.735 68.5782C308.185 69.1257 308.664 69.4497 309.174 69.5502C309.692 69.6599 310.211 69.5013 310.731 69.0745C311.269 68.6327 311.534 68.1556 311.526 67.6432C311.527 67.1234 311.299 66.5851 310.842 66.0286Z" fill="black"/>
<path d="M308.941 76.465L312.286 80.9937L311.317 81.709L307.11 76.0125L315.127 70.0903L319.23 75.6443L318.204 76.4017L314.965 72.0154L312.529 73.8142L315.054 77.232L314.071 77.9579L311.547 74.54L308.941 76.465Z" fill="black"/>
<path d="M312.141 81.6986L322.309 79.0215L323.641 81.0486L317.187 89.378L316.322 88.0611L318.283 85.6288L316.008 82.1664L312.997 83.0007L312.141 81.6986ZM322.472 80.3975L317.198 81.8502L319.045 84.6616L322.472 80.3975Z" fill="black"/>
<path d="M318.222 90.9487L326.86 85.974L327.593 87.2474L323.313 89.7127L330.005 91.4358L330.96 93.0928L330.791 93.19L325.359 91.5987L322.597 98.1544L322.428 98.2516L321.58 96.7788L323.946 91.1665L321.84 90.5609L318.955 92.2221L318.222 90.9487Z" fill="black"/>
<path d="M325.136 100.374L327.652 105.41L326.575 105.948L323.41 99.6133L332.326 95.1578L335.413 101.334L334.273 101.904L331.835 97.0262L329.127 98.3795L331.026 102.181L329.933 102.727L328.034 98.9256L325.136 100.374Z" fill="black"/>
<path d="M326.994 107.876L336.145 103.924L337.527 107.126C338.033 108.297 338.228 109.286 338.114 110.093C338.016 110.907 337.468 111.53 336.471 111.96C335.778 112.26 335.121 112.331 334.5 112.175C333.885 112.029 333.425 111.604 333.121 110.9C333.303 111.322 333.347 111.676 333.251 111.962C333.156 112.247 332.984 112.489 332.735 112.686C332.497 112.879 332.236 113.05 331.953 113.198C331.67 113.346 331.418 113.493 331.199 113.639C330.979 113.785 330.843 113.947 330.791 114.124C330.749 114.296 330.856 114.513 331.111 114.776L330.298 115.127C330.103 115.031 329.929 114.868 329.779 114.638C329.621 114.423 329.535 114.177 329.518 113.902C329.491 113.63 329.565 113.354 329.739 113.073C329.929 112.799 330.268 112.556 330.756 112.345C331.33 112.097 331.766 111.871 332.063 111.665C332.36 111.46 332.533 111.205 332.581 110.901C332.63 110.597 332.555 110.186 332.357 109.667C332.17 109.144 331.868 108.445 331.452 107.571L327.583 109.241L326.994 107.876ZM332.459 107.135L333.274 109.021C333.512 109.574 333.741 110.015 333.961 110.344C334.191 110.669 334.452 110.871 334.743 110.951C335.04 111.042 335.41 110.991 335.854 110.799C336.364 110.579 336.685 110.312 336.819 109.997C336.953 109.682 336.956 109.302 336.828 108.856C336.715 108.416 336.53 107.898 336.273 107.302L335.613 105.774L332.459 107.135Z" fill="black"/>
<path d="M336.043 120.642C335.891 120.208 335.896 119.881 336.057 119.662C336.218 119.443 336.449 119.281 336.75 119.176C337.028 119.078 337.299 119.065 337.561 119.136C337.823 119.207 338.03 119.459 338.182 119.894C338.334 120.328 338.328 120.65 338.163 120.857C338.002 121.076 337.782 121.234 337.504 121.332C337.203 121.437 336.921 121.454 336.659 121.383C336.4 121.324 336.195 121.077 336.043 120.642Z" fill="black"/>
<path d="M335.818 133.379C335.63 132.684 335.558 131.988 335.601 131.292C335.656 130.592 335.867 129.972 336.235 129.432C336.617 128.901 337.193 128.524 337.965 128.303L338.354 129.739C338.308 129.751 338.182 129.804 337.975 129.896C337.782 129.997 337.583 130.167 337.379 130.406C337.189 130.653 337.056 130.995 336.978 131.432C336.901 131.869 336.957 132.435 337.145 133.13C337.296 133.688 337.495 134.105 337.741 134.381C337.99 134.668 338.239 134.845 338.49 134.911C338.743 134.989 338.957 135.011 339.131 134.976C339.484 134.88 339.738 134.689 339.893 134.403C340.051 134.128 340.141 133.785 340.165 133.375C340.2 132.962 340.207 132.514 340.186 132.03C340.179 131.555 340.178 131.079 340.183 130.6C340.2 130.119 340.265 129.661 340.38 129.226C340.497 128.803 340.698 128.437 340.981 128.128C341.278 127.827 341.705 127.62 342.261 127.506C343.057 127.327 343.772 127.53 344.408 128.116C345.047 128.714 345.519 129.576 345.824 130.704C346.003 131.365 346.051 132.012 345.966 132.647C345.881 133.281 345.645 133.834 345.26 134.306C344.874 134.777 344.322 135.11 343.604 135.305L343.229 133.92C343.628 133.812 343.924 133.641 344.117 133.405C344.321 133.166 344.456 132.897 344.522 132.598C344.587 132.299 344.604 132.001 344.573 131.704C344.553 131.403 344.512 131.139 344.45 130.911C344.274 130.262 344.009 129.759 343.656 129.402C343.305 129.057 342.925 128.94 342.515 129.051C342.147 129.139 341.886 129.326 341.731 129.612C341.577 129.899 341.488 130.247 341.464 130.657C341.441 131.067 341.438 131.508 341.456 131.98C341.477 132.463 341.485 132.944 341.48 133.422C341.478 133.912 341.418 134.368 341.301 134.792C341.198 135.223 340.991 135.591 340.682 135.895C340.388 136.207 339.964 136.426 339.411 136.551C338.866 136.662 338.354 136.599 337.874 136.362C337.409 136.134 336.996 135.762 336.637 135.248C336.289 134.731 336.016 134.108 335.818 133.379Z" fill="black"/>
<path d="M338.046 140.165L337.738 138.728L347.484 136.637L348.301 140.445C348.531 141.519 348.444 142.406 348.039 143.109C347.635 143.811 346.902 144.277 345.84 144.504C344.882 144.71 344.072 144.564 343.41 144.066C342.75 143.58 342.309 142.818 342.086 141.779L341.577 139.407L338.046 140.165ZM347.069 140.529L346.598 138.33L342.668 139.173L343.14 141.372C343.288 142.064 343.566 142.572 343.974 142.895C344.383 143.23 344.917 143.326 345.575 143.185C346.256 143.039 346.71 142.736 346.938 142.277C347.176 141.815 347.22 141.232 347.069 140.529Z" fill="black"/>
<path d="M340.917 149.037L341.802 154.597L340.613 154.786L339.5 147.792L349.344 146.225L350.429 153.044L349.17 153.245L348.313 147.859L345.323 148.335L345.991 152.532L344.785 152.724L344.117 148.527L340.917 149.037Z" fill="black"/>
<path d="M340.247 155.199L350.509 157.491L350.761 159.904L341.202 164.338L341.038 162.771L343.897 161.511L343.467 157.39L340.409 156.748L340.247 155.199ZM350.021 158.788L344.669 157.656L345.019 161.002L350.021 158.788Z" fill="black"/>
<path d="M341.207 165.475L351.164 165.014L351.232 166.482L346.297 166.71L351.455 171.31L351.544 173.22L351.349 173.229L347.251 169.325L341.791 173.884L341.597 173.893L341.518 172.196L346.193 168.292L344.599 166.789L341.275 166.943L341.207 165.475Z" fill="black"/>
<path d="M343.276 177.342L343.189 182.971L341.985 182.952L342.095 175.871L352.061 176.025L351.955 182.929L350.68 182.91L350.764 177.457L347.737 177.411L347.671 181.659L346.45 181.64L346.516 177.392L343.276 177.342Z" fill="black"/>
<path d="M342.065 185.055L352.009 185.747L351.767 189.227C351.678 190.498 351.398 191.467 350.926 192.132C350.465 192.81 349.692 193.111 348.609 193.036C347.856 192.983 347.239 192.745 346.76 192.321C346.28 191.909 346.066 191.321 346.12 190.555C346.088 191.014 345.964 191.349 345.748 191.559C345.532 191.769 345.268 191.904 344.957 191.965C344.656 192.027 344.347 192.059 344.027 192.06C343.708 192.062 343.417 192.077 343.154 192.106C342.892 192.135 342.697 192.216 342.569 192.349C342.454 192.483 342.449 192.725 342.554 193.076L341.671 193.015C341.541 192.84 341.462 192.615 341.434 192.341C341.393 192.078 341.429 191.82 341.541 191.568C341.642 191.315 341.834 191.103 342.118 190.934C342.413 190.777 342.825 190.717 343.355 190.753C343.979 190.797 344.47 190.796 344.828 190.749C345.186 190.703 345.457 190.557 345.64 190.309C345.823 190.061 345.945 189.662 346.007 189.11C346.081 188.559 346.134 187.799 346.166 186.831L341.962 186.539L342.065 185.055ZM347.261 186.908L347.118 188.956C347.076 189.557 347.077 190.054 347.121 190.447C347.176 190.842 347.315 191.141 347.538 191.346C347.759 191.563 348.111 191.688 348.594 191.721C349.147 191.76 349.556 191.67 349.82 191.452C350.083 191.233 350.261 190.897 350.351 190.441C350.453 189.999 350.527 189.454 350.572 188.806L350.687 187.146L347.261 186.908Z" fill="black"/>
<path d="M344.341 200.387C344.405 199.931 344.559 199.642 344.802 199.521C345.045 199.4 345.325 199.362 345.64 199.406C345.933 199.447 346.179 199.559 346.38 199.742C346.581 199.925 346.65 200.244 346.586 200.7C346.522 201.156 346.37 201.439 346.128 201.548C345.885 201.669 345.617 201.709 345.325 201.668C345.009 201.624 344.751 201.51 344.55 201.328C344.347 201.156 344.278 200.843 344.341 200.387Z" fill="black"/>
<path d="M338.221 212.329C338.372 211.625 338.626 210.973 338.984 210.374C339.354 209.777 339.825 209.323 340.399 209.012C340.982 208.714 341.667 208.644 342.454 208.801L342.142 210.255C342.096 210.245 341.96 210.234 341.733 210.222C341.515 210.223 341.261 210.283 340.97 210.402C340.688 210.535 340.413 210.777 340.144 211.13C339.875 211.483 339.665 212.011 339.514 212.715C339.393 213.281 339.378 213.742 339.47 214.1C339.56 214.469 339.701 214.741 339.893 214.915C340.082 215.101 340.263 215.218 340.433 215.266C340.791 215.343 341.104 215.29 341.373 215.106C341.639 214.934 341.877 214.671 342.086 214.317C342.306 213.966 342.517 213.571 342.72 213.132C342.932 212.706 343.15 212.282 343.373 211.859C343.609 211.439 343.877 211.062 344.178 210.728C344.476 210.406 344.822 210.172 345.215 210.027C345.618 209.896 346.092 209.908 346.639 210.061C347.427 210.267 347.97 210.775 348.267 211.587C348.561 212.411 348.585 213.394 348.34 214.537C348.196 215.206 347.941 215.803 347.575 216.328C347.209 216.853 346.746 217.237 346.188 217.479C345.629 217.721 344.985 217.764 344.258 217.608L344.559 216.206C344.963 216.293 345.305 216.276 345.584 216.154C345.875 216.036 346.119 215.859 346.314 215.623C346.51 215.387 346.661 215.13 346.769 214.852C346.889 214.575 346.974 214.322 347.023 214.091C347.164 213.433 347.16 212.865 347.009 212.386C346.856 211.918 346.571 211.64 346.156 211.551C345.789 211.46 345.471 211.507 345.202 211.69C344.934 211.874 344.695 212.143 344.486 212.496C344.277 212.85 344.073 213.241 343.873 213.669C343.67 214.108 343.456 214.539 343.233 214.962C343.007 215.396 342.745 215.774 342.446 216.097C342.157 216.433 341.805 216.665 341.391 216.794C340.986 216.936 340.509 216.937 339.96 216.795C339.425 216.644 338.999 216.353 338.681 215.923C338.372 215.506 338.175 214.987 338.091 214.365C338.019 213.746 338.062 213.068 338.221 212.329Z" fill="black"/>
<path d="M337.007 219.118L337.391 217.7L347.012 220.307L345.993 224.067C345.706 225.126 345.222 225.875 344.54 226.314C343.859 226.753 342.994 226.831 341.946 226.547C341 226.291 340.347 225.79 339.987 225.044C339.623 224.309 339.581 223.43 339.858 222.404L340.493 220.063L337.007 219.118ZM344.86 223.576L345.449 221.406L341.569 220.355L340.981 222.525C340.796 223.209 340.81 223.787 341.024 224.261C341.235 224.746 341.666 225.077 342.315 225.253C342.987 225.435 343.529 225.374 343.942 225.07C344.366 224.769 344.672 224.271 344.86 223.576Z" fill="black"/>
<path d="M335.296 227.524L333.538 232.872L332.395 232.496L334.606 225.769L344.075 228.881L341.919 235.441L340.708 235.043L342.411 229.862L339.535 228.917L338.208 232.954L337.047 232.572L338.374 228.536L335.296 227.524Z" fill="black"/>
<path d="M332.126 233.194L340.183 239.951L339.297 242.209L328.769 241.748L329.345 240.281L332.463 240.478L333.977 236.621L331.557 234.645L332.126 233.194ZM339.153 240.878L334.922 237.411L333.693 240.542L339.153 240.878Z" fill="black"/>
<path d="M327.974 243.39L337.019 247.578L336.401 248.912L331.919 246.836L334.37 253.298L333.567 255.033L333.39 254.951L331.558 249.596L324.609 251.119L324.432 251.037L325.147 249.495L331.096 248.192L330.377 246.122L327.356 244.723L327.974 243.39Z" fill="black"/>
<path d="M324.952 253.858L322.306 258.827L321.243 258.261L324.572 252.011L333.37 256.696L330.125 262.79L328.999 262.191L331.563 257.378L328.89 255.955L326.893 259.705L325.815 259.131L327.812 255.381L324.952 253.858Z" fill="black"/>
<path d="M319.928 260.251L328.454 265.416L326.647 268.399C325.986 269.489 325.294 270.222 324.57 270.598C323.85 270.989 323.025 270.904 322.096 270.341C321.45 269.95 321.011 269.456 320.779 268.86C320.54 268.274 320.62 267.653 321.017 266.997C320.779 267.39 320.516 267.631 320.228 267.719C319.94 267.807 319.643 267.807 319.338 267.718C319.043 267.636 318.753 267.523 318.468 267.378C318.183 267.233 317.918 267.113 317.671 267.019C317.424 266.925 317.214 266.908 317.04 266.968C316.875 267.034 316.76 267.247 316.694 267.607L315.937 267.148C315.901 266.934 315.934 266.698 316.034 266.441C316.118 266.189 316.268 265.976 316.483 265.803C316.688 265.623 316.956 265.523 317.286 265.502C317.62 265.498 318.014 265.633 318.468 265.908C319.003 266.232 319.441 266.456 319.78 266.578C320.12 266.701 320.427 266.695 320.703 266.558C320.979 266.422 321.271 266.122 321.578 265.66C321.896 265.204 322.291 264.553 322.762 263.706L319.158 261.523L319.928 260.251ZM323.701 264.275L322.637 266.032C322.325 266.547 322.098 266.989 321.957 267.359C321.826 267.735 321.812 268.065 321.916 268.349C322.014 268.642 322.27 268.915 322.684 269.166C323.159 269.453 323.563 269.56 323.897 269.486C324.232 269.413 324.543 269.195 324.832 268.831C325.125 268.484 325.44 268.033 325.776 267.478L326.638 266.055L323.701 264.275Z" fill="black"/>
<path d="M314.714 274.994C314.981 274.619 315.25 274.434 315.522 274.439C315.794 274.444 316.059 274.538 316.319 274.723C316.56 274.894 316.727 275.107 316.821 275.362C316.915 275.617 316.828 275.932 316.561 276.307C316.295 276.682 316.029 276.863 315.764 276.848C315.492 276.843 315.236 276.755 314.996 276.585C314.736 276.4 314.559 276.18 314.465 275.925C314.365 275.68 314.448 275.369 314.714 274.994Z" fill="black"/>
<path d="M303.599 281.986C304.056 281.43 304.581 280.967 305.173 280.598C305.775 280.237 306.403 280.05 307.055 280.036C307.71 280.038 308.351 280.29 308.979 280.79L308.035 281.939C307.999 281.909 307.883 281.837 307.687 281.722C307.493 281.624 307.239 281.561 306.926 281.533C306.615 281.522 306.259 281.611 305.858 281.802C305.457 281.992 305.029 282.365 304.572 282.922C304.205 283.369 303.981 283.773 303.899 284.133C303.809 284.502 303.81 284.809 303.901 285.051C303.985 285.303 304.091 285.49 304.22 285.611C304.503 285.843 304.806 285.939 305.129 285.899C305.445 285.868 305.777 285.743 306.124 285.524C306.481 285.313 306.85 285.058 307.231 284.761C307.615 284.48 308.002 284.203 308.395 283.929C308.796 283.663 309.207 283.451 309.628 283.292C310.041 283.142 310.455 283.093 310.871 283.144C311.289 283.212 311.705 283.44 312.121 283.827C312.728 284.371 312.977 285.071 312.869 285.929C312.753 286.796 312.324 287.681 311.583 288.584C311.149 289.113 310.649 289.528 310.083 289.827C309.517 290.125 308.93 290.255 308.322 290.214C307.714 290.173 307.123 289.917 306.548 289.445L307.458 288.336C307.777 288.599 308.089 288.74 308.393 288.76C308.706 288.788 309.003 288.742 309.285 288.622C309.566 288.502 309.819 288.343 310.043 288.145C310.276 287.954 310.467 287.767 310.617 287.585C311.043 287.065 311.3 286.558 311.385 286.063C311.463 285.577 311.338 285.199 311.009 284.93C310.725 284.681 310.421 284.577 310.098 284.617C309.775 284.657 309.44 284.787 309.092 285.005C308.745 285.224 308.384 285.478 308.01 285.766C307.628 286.064 307.241 286.349 306.849 286.623C306.449 286.905 306.042 287.121 305.629 287.271C305.218 287.437 304.799 287.483 304.372 287.407C303.947 287.349 303.523 287.13 303.1 286.753C302.694 286.374 302.448 285.92 302.362 285.391C302.278 284.88 302.341 284.328 302.551 283.737C302.771 283.154 303.12 282.57 303.599 281.986Z" fill="black"/>
<path d="M299.781 287.474L300.774 286.39L308.123 293.125L305.491 295.996C304.75 296.806 303.975 297.249 303.168 297.326C302.362 297.403 301.558 297.075 300.757 296.341C300.035 295.679 299.685 294.934 299.707 294.106C299.722 293.287 300.088 292.485 300.805 291.702L302.444 289.914L299.781 287.474ZM304.71 295.041L306.229 293.383L303.266 290.668L301.747 292.325C301.269 292.847 301.016 293.368 300.988 293.887C300.953 294.415 301.183 294.906 301.679 295.361C302.193 295.831 302.702 296.026 303.208 295.946C303.723 295.873 304.224 295.571 304.71 295.041Z" fill="black"/>
<path d="M294.18 294.565L290.17 298.517L289.325 297.659L294.369 292.688L301.366 299.788L296.448 304.634L295.553 303.727L299.437 299.899L297.312 297.742L294.286 300.725L293.428 299.855L296.455 296.872L294.18 294.565Z" fill="black"/>
<path d="M289.529 298.548L293.621 308.233L291.803 309.839L282.642 304.632L283.823 303.588L286.509 305.184L289.614 302.441L288.361 299.579L289.529 298.548ZM292.282 308.59L290.096 303.575L287.575 305.802L292.282 308.59Z" fill="black"/>
<path d="M281.286 305.67L287.439 313.511L286.283 314.418L283.234 310.532L282.481 317.402L280.977 318.583L280.856 318.43L281.658 312.827L274.776 311.026L274.656 310.872L275.993 309.823L281.885 311.366L282.184 309.195L280.13 306.577L281.286 305.67Z" fill="black"/>
<path d="M272.976 313.5L268.352 316.712L267.665 315.723L273.482 311.683L279.168 319.871L273.496 323.809L272.769 322.762L277.248 319.652L275.521 317.165L272.031 319.589L271.334 318.585L274.824 316.161L272.976 313.5Z" fill="black"/>
<path d="M266.142 316.174L271.368 324.661L268.399 326.49C267.313 327.159 266.363 327.495 265.547 327.498C264.727 327.518 264.033 327.065 263.463 326.14C263.067 325.497 262.902 324.857 262.967 324.221C263.023 323.591 263.377 323.074 264.03 322.672C263.638 322.914 263.294 323.008 262.998 322.954C262.702 322.901 262.438 322.765 262.207 322.547C261.982 322.34 261.776 322.106 261.589 321.847C261.401 321.588 261.22 321.36 261.043 321.164C260.867 320.968 260.687 320.856 260.505 320.83C260.329 320.814 260.129 320.951 259.905 321.241L259.441 320.487C259.508 320.28 259.644 320.085 259.85 319.903C260.041 319.716 260.271 319.595 260.542 319.539C260.806 319.473 261.09 319.507 261.393 319.639C261.692 319.787 261.981 320.087 262.26 320.54C262.588 321.072 262.875 321.471 263.121 321.735C263.367 322 263.644 322.134 263.951 322.139C264.259 322.143 264.655 322.01 265.14 321.739C265.631 321.479 266.279 321.079 267.085 320.542L264.875 316.954L266.142 316.174ZM267.66 321.476L265.912 322.553C265.399 322.869 264.996 323.159 264.701 323.424C264.413 323.698 264.25 323.985 264.213 324.285C264.166 324.592 264.269 324.951 264.523 325.363C264.814 325.835 265.125 326.115 265.456 326.202C265.787 326.29 266.164 326.238 266.587 326.047C267.006 325.872 267.492 325.614 268.044 325.274L269.462 324.401L267.66 321.476Z" fill="black"/>
<path d="M254.789 327.024C255.197 326.81 255.521 326.767 255.76 326.895C256 327.023 256.194 327.228 256.342 327.51C256.479 327.772 256.531 328.037 256.499 328.307C256.467 328.577 256.247 328.818 255.839 329.032C255.431 329.245 255.112 329.285 254.883 329.152C254.643 329.025 254.455 328.83 254.318 328.569C254.17 328.286 254.112 328.01 254.145 327.74C254.166 327.476 254.381 327.237 254.789 327.024Z" fill="black"/>
<path d="M241.597 329.244C242.257 328.956 242.934 328.782 243.63 328.724C244.33 328.676 244.974 328.794 245.562 329.079C246.143 329.379 246.6 329.894 246.932 330.625L245.568 331.22C245.55 331.176 245.479 331.059 245.357 330.868C245.229 330.692 245.032 330.52 244.765 330.353C244.493 330.201 244.135 330.119 243.692 330.107C243.249 330.094 242.697 330.232 242.037 330.519C241.507 330.751 241.124 331.008 240.887 331.292C240.639 331.58 240.501 331.853 240.471 332.11C240.431 332.373 240.441 332.587 240.501 332.754C240.647 333.09 240.873 333.313 241.179 333.424C241.475 333.54 241.827 333.579 242.236 333.543C242.649 333.517 243.094 333.458 243.569 333.367C244.038 333.291 244.51 333.22 244.983 333.155C245.462 333.101 245.925 333.099 246.371 333.149C246.807 333.203 247.199 333.348 247.546 333.583C247.887 333.833 248.154 334.225 248.348 334.759C248.642 335.519 248.545 336.257 248.058 336.971C247.561 337.691 246.776 338.284 245.705 338.751C245.078 339.025 244.444 339.166 243.804 339.175C243.164 339.184 242.583 339.032 242.06 338.719C241.537 338.406 241.127 337.909 240.83 337.227L242.144 336.654C242.309 337.033 242.523 337.3 242.784 337.456C243.05 337.624 243.336 337.718 243.641 337.739C243.947 337.76 244.244 337.734 244.534 337.659C244.828 337.595 245.083 337.516 245.299 337.422C245.916 337.153 246.375 336.817 246.676 336.415C246.966 336.018 247.027 335.625 246.857 335.236C246.717 334.885 246.493 334.654 246.187 334.542C245.881 334.431 245.524 334.394 245.115 334.431C244.706 334.468 244.269 334.529 243.805 334.616C243.33 334.707 242.855 334.786 242.381 334.851C241.897 334.92 241.436 334.928 241.001 334.873C240.559 334.834 240.165 334.684 239.819 334.423C239.467 334.177 239.189 333.79 238.984 333.261C238.794 332.739 238.782 332.223 238.946 331.713C239.104 331.22 239.411 330.757 239.867 330.327C240.328 329.907 240.904 329.546 241.597 329.244Z" fill="black"/>
<path d="M235.706 331.986L237.084 331.474L240.551 340.82L236.899 342.175C235.869 342.556 234.978 342.597 234.225 342.298C233.472 341.998 232.906 341.339 232.529 340.321C232.188 339.403 232.217 338.58 232.614 337.853C233.001 337.131 233.692 336.585 234.688 336.215L236.962 335.372L235.706 331.986ZM236.64 340.968L238.748 340.186L237.35 336.418L235.242 337.2C234.578 337.446 234.115 337.794 233.854 338.243C233.582 338.697 233.562 339.239 233.796 339.87C234.039 340.523 234.403 340.929 234.89 341.088C235.382 341.258 235.965 341.218 236.64 340.968Z" fill="black"/>
<path d="M227.936 335.691L222.562 337.369L222.203 336.219L228.963 334.11L231.933 343.625L225.341 345.682L224.962 344.465L230.167 342.841L229.265 339.95L225.209 341.216L224.845 340.05L228.901 338.784L227.936 335.691Z" fill="black"/>
<path d="M221.492 336.634L220.71 347.119L218.36 347.718L212.588 338.902L214.115 338.513L215.775 341.159L219.79 340.137L219.982 337.018L221.492 336.634ZM219.356 346.824L219.701 341.365L216.441 342.195L219.356 346.824Z" fill="black"/>
<path d="M211.265 339.618L213.133 349.409L211.689 349.684L210.764 344.832L206.941 350.59L205.063 350.948L205.027 350.757L208.311 346.147L203.023 341.388L202.987 341.197L204.656 340.878L209.183 344.953L210.445 343.163L209.822 339.893L211.265 339.618Z" fill="black"/>
<path d="M199.483 342.677L193.901 343.412L193.744 342.219L200.765 341.294L202.067 351.176L195.221 352.078L195.055 350.814L200.461 350.102L200.066 347.1L195.853 347.655L195.694 346.444L199.906 345.889L199.483 342.677Z" fill="black"/>
<path d="M192.566 342.146L193.334 352.084L189.856 352.353C188.585 352.451 187.586 352.315 186.859 351.945C186.121 351.588 185.711 350.868 185.627 349.785C185.569 349.032 185.714 348.388 186.063 347.852C186.401 347.316 186.952 347.019 187.717 346.96C187.258 346.996 186.909 346.922 186.67 346.739C186.431 346.556 186.258 346.315 186.152 346.016C186.047 345.728 185.971 345.426 185.922 345.11C185.874 344.794 185.817 344.509 185.75 344.253C185.683 343.998 185.574 343.817 185.424 343.71C185.274 343.615 185.034 343.646 184.703 343.801L184.634 342.919C184.788 342.765 184.999 342.654 185.266 342.586C185.52 342.507 185.78 342.505 186.046 342.579C186.312 342.641 186.549 342.8 186.758 343.057C186.957 343.325 187.076 343.725 187.117 344.254C187.165 344.878 187.238 345.363 187.336 345.711C187.434 346.059 187.619 346.305 187.891 346.45C188.162 346.594 188.575 346.657 189.13 346.638C189.686 346.63 190.445 346.572 191.408 346.462L191.083 342.261L192.566 342.146ZM191.492 347.556L189.444 347.715C188.844 347.761 188.353 347.834 187.97 347.935C187.588 348.047 187.312 348.229 187.142 348.479C186.96 348.729 186.888 349.096 186.925 349.579C186.968 350.132 187.116 350.523 187.371 350.752C187.625 350.98 187.984 351.107 188.448 351.13C188.9 351.166 189.45 351.159 190.098 351.109L191.757 350.981L191.492 347.556Z" fill="black"/>
<path d="M176.719 346.435C177.179 346.432 177.487 346.541 177.642 346.764C177.797 346.987 177.876 347.258 177.879 347.577C177.881 347.872 177.806 348.132 177.654 348.358C177.503 348.583 177.197 348.698 176.736 348.701C176.276 348.705 175.974 348.595 175.831 348.372C175.676 348.149 175.597 347.89 175.595 347.595C175.592 347.276 175.667 347.004 175.819 346.778C175.959 346.553 176.259 346.439 176.719 346.435Z" fill="black"/>
<path d="M164.196 342.493C164.915 342.541 165.596 342.698 166.241 342.965C166.885 343.244 167.403 343.644 167.795 344.167C168.174 344.7 168.343 345.368 168.302 346.17L166.818 346.072C166.821 346.025 166.812 345.889 166.792 345.662C166.758 345.447 166.662 345.204 166.502 344.934C166.33 344.674 166.05 344.437 165.662 344.222C165.274 344.007 164.721 343.876 164.002 343.829C163.425 343.791 162.966 343.844 162.625 343.987C162.273 344.13 162.025 344.308 161.881 344.524C161.724 344.738 161.635 344.933 161.611 345.109C161.587 345.474 161.686 345.777 161.907 346.016C162.116 346.254 162.41 346.451 162.791 346.606C163.17 346.773 163.592 346.925 164.056 347.062C164.507 347.21 164.959 347.364 165.41 347.523C165.86 347.695 166.272 347.905 166.646 348.155C167.008 348.403 167.289 348.711 167.49 349.079C167.678 349.458 167.736 349.93 167.663 350.493C167.574 351.303 167.15 351.914 166.389 352.325C165.617 352.736 164.648 352.903 163.482 352.826C162.799 352.781 162.171 352.616 161.598 352.33C161.026 352.044 160.579 351.642 160.258 351.124C159.937 350.606 159.801 349.976 159.85 349.234L161.281 349.328C161.254 349.74 161.321 350.076 161.481 350.335C161.641 350.606 161.851 350.821 162.113 350.98C162.375 351.139 162.651 351.252 162.942 351.318C163.233 351.396 163.496 351.443 163.732 351.459C164.403 351.503 164.965 351.415 165.417 351.197C165.857 350.977 166.091 350.655 166.119 350.231C166.155 349.855 166.063 349.548 165.842 349.308C165.621 349.069 165.321 348.872 164.941 348.717C164.561 348.562 164.144 348.416 163.692 348.28C163.228 348.143 162.77 347.995 162.32 347.835C161.857 347.674 161.445 347.47 161.082 347.221C160.708 346.984 160.427 346.67 160.239 346.279C160.04 345.899 159.97 345.427 160.031 344.863C160.102 344.312 160.328 343.848 160.708 343.471C161.075 343.105 161.56 342.835 162.163 342.661C162.765 342.5 163.442 342.444 164.196 342.493Z" fill="black"/>
<path d="M157.498 341.804L158.957 341.98L157.769 351.876L153.901 351.412C152.812 351.281 152 350.91 151.467 350.3C150.934 349.689 150.732 348.844 150.862 347.766C150.979 346.793 151.38 346.075 152.066 345.61C152.74 345.144 153.604 344.975 154.659 345.101L157.067 345.391L157.498 341.804ZM154.223 350.22L156.455 350.488L156.934 346.498L154.702 346.23C153.999 346.146 153.428 346.243 152.99 346.524C152.541 346.803 152.276 347.276 152.196 347.944C152.113 348.636 152.252 349.163 152.612 349.528C152.971 349.904 153.508 350.134 154.223 350.22Z" fill="black"/>
<path d="M148.285 341.995L142.739 341.025L142.946 339.839L149.922 341.059L148.205 350.878L141.403 349.688L141.623 348.432L146.994 349.372L147.516 346.39L143.33 345.657L143.541 344.454L147.726 345.186L148.285 341.995Z" fill="black"/>
<path d="M142.506 339.337L137.006 348.298L134.642 347.753L133.552 337.272L135.088 337.626L135.351 340.74L139.388 341.67L140.988 338.987L142.506 339.337ZM135.938 347.416L138.746 342.722L135.468 341.966L135.938 347.416Z" fill="black"/>
<path d="M132.308 337.218L129.483 346.777L128.073 346.361L129.473 341.624L123.438 344.991L121.604 344.449L121.66 344.262L126.691 341.669L124.171 335.016L124.226 334.83L125.856 335.311L128.013 341.007L129.955 339.994L130.899 336.802L132.308 337.218Z" fill="black"/>
<path d="M121.002 335.257L115.702 333.359L116.108 332.225L122.775 334.613L119.414 343.997L112.913 341.669L113.343 340.469L118.477 342.308L119.498 339.457L115.497 338.025L115.909 336.875L119.91 338.307L121.002 335.257Z" fill="black"/>
<path d="M114.592 330.861L110.709 340.041L107.497 338.682C106.323 338.186 105.498 337.606 105.022 336.944C104.531 336.287 104.497 335.459 104.92 334.459C105.214 333.763 105.639 333.257 106.196 332.942C106.741 332.621 107.367 332.611 108.074 332.91C107.65 332.73 107.374 332.504 107.245 332.232C107.117 331.96 107.075 331.667 107.118 331.352C107.157 331.048 107.228 330.745 107.33 330.442C107.432 330.139 107.512 329.859 107.57 329.601C107.628 329.344 107.614 329.133 107.53 328.969C107.441 328.816 107.213 328.733 106.848 328.719L107.192 327.904C107.4 327.838 107.638 327.836 107.906 327.898C108.168 327.945 108.4 328.062 108.603 328.25C108.81 328.428 108.947 328.678 109.016 329.002C109.068 329.332 108.991 329.741 108.784 330.23C108.541 330.806 108.382 331.271 108.31 331.625C108.237 331.979 108.288 332.282 108.463 332.536C108.638 332.789 108.976 333.035 109.478 333.272C109.975 333.521 110.676 333.818 111.581 334.162L113.223 330.281L114.592 330.861ZM111.153 335.173L109.262 334.373C108.708 334.139 108.237 333.978 107.851 333.892C107.46 333.816 107.131 333.85 106.866 333.994C106.589 334.133 106.356 334.426 106.168 334.871C105.952 335.382 105.904 335.798 106.025 336.118C106.146 336.438 106.407 336.715 106.808 336.949C107.193 337.189 107.685 337.435 108.283 337.688L109.815 338.337L111.153 335.173Z" fill="black"/>
<path d="M99.2339 327.858C99.6441 328.067 99.8668 328.306 99.9018 328.575C99.9368 328.845 99.882 329.121 99.7375 329.405C99.6036 329.668 99.4175 329.865 99.179 329.995C98.9405 330.126 98.6162 330.086 98.2059 329.877C97.7957 329.669 97.5783 329.432 97.5538 329.168C97.5188 328.899 97.5682 328.632 97.702 328.369C97.8466 328.085 98.0381 327.878 98.2766 327.748C98.5046 327.612 98.8237 327.649 99.2339 327.858Z" fill="black"/>
<path d="M89.706 318.66C90.3218 319.033 90.8543 319.487 91.3035 320.021C91.7465 320.565 92.0213 321.16 92.128 321.804C92.2183 322.452 92.0607 323.122 91.6549 323.815L90.3829 323.044C90.4074 323.004 90.4625 322.879 90.5484 322.668C90.6181 322.462 90.6445 322.202 90.6276 321.888C90.5945 321.579 90.4553 321.239 90.2098 320.87C89.9644 320.5 89.5338 320.129 88.918 319.756C88.4233 319.456 87.9918 319.291 87.6235 319.262C87.2451 319.226 86.9423 319.27 86.7151 319.394C86.4778 319.513 86.3082 319.645 86.2064 319.79C86.0168 320.103 85.9649 320.417 86.0506 320.731C86.1262 321.039 86.297 321.349 86.5629 321.662C86.8226 321.985 87.1269 322.314 87.4757 322.65C87.8083 322.989 88.1378 323.333 88.4643 323.683C88.7846 324.043 89.0533 324.419 89.2702 324.813C89.4771 325.2 89.5847 325.604 89.5931 326.023C89.5852 326.446 89.4194 326.89 89.0956 327.357C88.6433 328.035 87.985 328.381 87.1206 328.396C86.2461 328.404 85.3091 328.106 84.3096 327.5C83.7241 327.146 83.2431 326.71 82.8668 326.192C82.4904 325.674 82.2792 325.111 82.2332 324.504C82.1872 323.896 82.3568 323.275 82.742 322.639L83.9686 323.382C83.7546 323.735 83.6591 324.064 83.6821 324.367C83.699 324.681 83.7869 324.969 83.9457 325.231C84.1045 325.493 84.2979 325.72 84.5258 325.913C84.7476 326.117 84.9595 326.28 85.1614 326.402C85.7368 326.75 86.2756 326.932 86.7775 326.946C87.2694 326.954 87.6254 326.777 87.8455 326.413C88.0513 326.096 88.1113 325.781 88.0256 325.467C87.9399 325.152 87.7641 324.839 87.4982 324.526C87.2323 324.213 86.93 323.892 86.5913 323.563C86.2425 323.227 85.9049 322.885 85.5784 322.535C85.2419 322.18 84.9702 321.808 84.7633 321.421C84.5402 321.037 84.4357 320.629 84.4496 320.196C84.4474 319.766 84.6031 319.316 84.9168 318.843C85.2346 318.387 85.6488 318.079 86.1596 317.919C86.6541 317.764 87.2089 317.748 87.8237 317.872C88.4324 318.006 89.0599 318.269 89.706 318.66Z" fill="black"/>
<path d="M84.4533 315.439L85.6694 316.264L80.0742 324.513L76.8507 322.327C75.9423 321.711 75.3913 321.009 75.1979 320.222C75.0045 319.435 75.2126 318.592 75.8221 317.693C76.372 316.882 77.0582 316.428 77.8807 316.33C78.6934 316.225 79.5393 316.47 80.4185 317.067L82.4259 318.428L84.4533 315.439ZM77.683 321.415L79.5438 322.677L81.7998 319.351L79.9389 318.089C79.3528 317.692 78.8009 317.517 78.2833 317.565C77.7559 317.607 77.3034 317.906 76.9257 318.463C76.5348 319.039 76.416 319.572 76.5692 320.061C76.7159 320.56 77.0871 321.011 77.683 321.415Z" fill="black"/>
<path d="M76.6223 310.866L72.143 307.455L72.8723 306.497L78.5067 310.788L72.4681 318.718L66.9745 314.535L67.7468 313.521L72.0853 316.824L73.9194 314.416L70.5387 311.842L71.2788 310.87L74.6595 313.444L76.6223 310.866Z" fill="black"/>
<path d="M71.7531 306.737L62.7625 312.189L60.9101 310.623L64.7357 300.805L65.939 301.822L64.7489 304.711L67.9128 307.385L70.5632 305.731L71.7531 306.737ZM62.2161 310.915L66.861 308.026L64.292 305.854L62.2161 310.915Z" fill="black"/>
<path d="M63.6453 299.551L56.7523 306.752L55.6908 305.736L59.1067 302.167L52.1994 302.393L50.8182 301.071L50.9528 300.93L56.6129 300.932L57.423 293.864L57.5577 293.724L58.7854 294.899L58.0909 300.95L60.2821 300.94L62.5838 298.535L63.6453 299.551Z" fill="black"/>
<path d="M54.8711 292.314L51.0223 288.205L51.901 287.382L56.7423 292.551L49.4673 299.365L44.747 294.326L45.6774 293.454L49.4052 297.434L51.6148 295.364L48.7101 292.263L49.6017 291.428L52.5064 294.529L54.8711 292.314Z" fill="black"/>
<path d="M51.3368 286.124L43.7011 292.531L41.4591 289.86C40.6397 288.883 40.169 287.991 40.0468 287.185C39.908 286.377 40.2546 285.624 41.0864 284.926C41.6651 284.44 42.274 284.184 42.9131 284.156C43.5447 284.119 44.1071 284.394 44.6003 284.982C44.3044 284.629 44.1612 284.303 44.1707 284.002C44.1803 283.701 44.2761 283.42 44.458 283.16C44.631 282.907 44.8319 282.669 45.0608 282.446C45.2898 282.223 45.4886 282.01 45.6571 281.807C45.8257 281.604 45.9097 281.41 45.909 281.226C45.8994 281.049 45.7348 280.871 45.4153 280.692L46.0934 280.123C46.3081 280.159 46.5208 280.265 46.7315 280.443C46.9436 280.604 47.097 280.814 47.1916 281.074C47.2952 281.326 47.3037 281.612 47.2172 281.931C47.114 282.248 46.8589 282.578 46.4521 282.919C45.9729 283.322 45.6204 283.664 45.3947 283.945C45.1689 284.227 45.0762 284.521 45.1166 284.826C45.1569 285.131 45.3463 285.504 45.6848 285.944C46.0143 286.392 46.5037 286.975 47.153 287.693L50.3808 284.985L51.3368 286.124ZM46.3121 288.399L44.9919 286.826C44.605 286.365 44.2592 286.008 43.9546 285.755C43.6409 285.509 43.333 285.39 43.0307 285.397C42.7209 285.396 42.3807 285.55 42.01 285.861C41.585 286.218 41.3535 286.566 41.3153 286.906C41.2772 287.246 41.3835 287.612 41.6342 288.002C41.8682 288.391 42.1939 288.835 42.6112 289.332L43.681 290.607L46.3121 288.399Z" fill="black"/>
<path d="M38.7853 276.196C39.0547 276.569 39.1434 276.884 39.0514 277.14C38.9594 277.395 38.7842 277.616 38.5258 277.803C38.2865 277.976 38.031 278.065 37.7594 278.072C37.4878 278.079 37.2172 277.896 36.9478 277.523C36.6784 277.149 36.5931 276.84 36.6921 276.594C36.7841 276.338 36.9497 276.124 37.189 275.951C37.4474 275.765 37.7124 275.668 37.9841 275.661C38.2488 275.645 38.5159 275.823 38.7853 276.196Z" fill="black"/>
<path d="M35.0678 263.628C35.4476 264.24 35.7165 264.885 35.8747 265.565C36.0228 266.251 35.9983 266.906 35.8013 267.528C35.5881 268.147 35.1436 268.673 34.4679 269.106L33.6835 267.843C33.7236 267.818 33.8295 267.731 34.0014 267.583C34.157 267.431 34.2984 267.211 34.4256 266.923C34.5366 266.632 34.5664 266.266 34.5152 265.826C34.4639 265.385 34.2484 264.859 33.8686 264.247C33.5635 263.756 33.2536 263.414 32.9389 263.22C32.618 263.016 32.328 262.919 32.069 262.927C31.8037 262.925 31.5928 262.965 31.4362 263.049C31.1253 263.242 30.9369 263.497 30.8709 263.816C30.7987 264.125 30.8101 264.479 30.9053 264.879C30.9904 265.284 31.1124 265.716 31.2712 266.173C31.4137 266.626 31.5512 267.083 31.6838 267.542C31.8063 268.008 31.875 268.465 31.8899 268.915C31.8986 269.354 31.8117 269.762 31.6292 270.139C31.4304 270.513 31.081 270.834 30.581 271.103C29.8704 271.502 29.1266 271.513 28.3495 271.134C27.5662 270.745 26.8663 270.054 26.2499 269.061C25.8888 268.48 25.6579 267.873 25.5572 267.241C25.4565 266.609 25.5233 266.011 25.7576 265.449C25.992 264.887 26.4251 264.409 27.0568 264.017L27.8133 265.236C27.4623 265.453 27.2282 265.703 27.1111 265.984C26.9838 266.271 26.9317 266.568 26.9545 266.873C26.9774 267.179 27.0466 267.469 27.1622 267.745C27.2677 268.026 27.3827 268.268 27.5072 268.468C27.8621 269.04 28.26 269.446 28.701 269.686C29.1357 269.916 29.5335 269.919 29.8945 269.695C30.2216 269.506 30.4182 269.252 30.4842 268.933C30.5502 268.614 30.5356 268.255 30.4405 267.856C30.3453 267.456 30.2214 267.033 30.0689 266.586C29.9101 266.129 29.7644 265.67 29.6319 265.211C29.4931 264.741 29.4194 264.287 29.4107 263.848C29.3857 263.405 29.4777 262.993 29.6865 262.614C29.879 262.23 30.2222 261.899 30.716 261.62C31.2059 261.358 31.7148 261.271 32.2425 261.36C32.754 261.445 33.2556 261.683 33.7474 262.072C34.2292 262.468 34.6693 262.986 35.0678 263.628Z" fill="black"/>
<path d="M30.7507 257.512L31.4557 258.801L22.7101 263.584L20.8413 260.166C20.3147 259.203 20.1451 258.327 20.3327 257.539C20.5202 256.75 21.0904 256.095 22.0432 255.574C22.9027 255.104 23.7207 255.013 24.4973 255.302C25.2681 255.58 25.9084 256.185 26.418 257.117L27.5818 259.245L30.7507 257.512ZM21.9981 259.736L23.0769 261.708L26.6031 259.78L25.5243 257.807C25.1845 257.186 24.7734 256.779 24.2909 256.585C23.8027 256.381 23.2635 256.441 22.6732 256.763C22.0622 257.097 21.7132 257.517 21.6261 258.022C21.5287 258.533 21.6527 259.104 21.9981 259.736Z" fill="black"/>
<path d="M26.2221 250.82L23.7805 245.747L24.8653 245.225L27.9365 251.606L18.9548 255.929L15.9604 249.707L17.109 249.154L19.4738 254.068L22.2019 252.755L20.3592 248.926L21.4599 248.396L23.3027 252.225L26.2221 250.82Z" fill="black"/>
<path d="M24.6498 244.093L14.1602 244.816L13.2321 242.575L21.1337 235.604L21.7366 237.06L19.3544 239.081L20.9398 242.909L24.0536 242.654L24.6498 244.093ZM14.2585 243.434L19.7111 242.996L18.4239 239.888L14.2585 243.434Z" fill="black"/>
<path d="M20.6263 234.851L11.2049 238.106L10.725 236.717L15.3939 235.104L9.14663 232.149L8.52222 230.342L8.70629 230.278L13.7401 232.866L17.6901 226.949L17.8742 226.886L18.4292 228.492L15.0466 233.557L17.0003 234.549L20.1464 233.462L20.6263 234.851Z" fill="black"/>
<path d="M15.6036 224.207L14.0693 218.79L15.2276 218.462L17.1576 225.276L7.56705 227.993L5.68533 221.349L6.91183 221.002L8.3979 226.248L11.3108 225.423L10.1529 221.335L11.3283 221.002L12.4862 225.09L15.6036 224.207Z" fill="black"/>
<path d="M15.4162 217.036L5.69482 219.239L4.92408 215.837C4.64239 214.594 4.6318 213.586 4.89232 212.813C5.13873 212.031 5.79145 211.52 6.8505 211.28C7.58723 211.113 8.24613 211.163 8.8272 211.431C9.40565 211.687 9.77965 212.189 9.94919 212.938C9.84746 212.489 9.86967 212.133 10.0158 211.87C10.162 211.606 10.3755 211.401 10.6566 211.252C10.9261 211.107 11.2137 210.987 11.5193 210.893C11.8249 210.8 12.0991 210.702 12.3419 210.598C12.5847 210.495 12.748 210.361 12.8318 210.197C12.9041 210.035 12.8391 209.802 12.6369 209.497L13.5002 209.301C13.6749 209.431 13.8152 209.623 13.9213 209.877C14.0362 210.117 14.0763 210.375 14.0416 210.649C14.0184 210.92 13.8953 211.178 13.6723 211.422C13.4351 211.658 13.0575 211.834 12.5395 211.951C11.9294 212.089 11.4595 212.232 11.1298 212.38C10.8001 212.527 10.5834 212.745 10.4796 213.035C10.3758 213.325 10.3737 213.743 10.4733 214.289C10.5614 214.838 10.7296 215.581 10.978 216.517L15.0876 215.586L15.4162 217.036ZM9.90744 216.759L9.4536 214.756C9.32057 214.169 9.17649 213.694 9.02135 213.329C8.8547 212.968 8.63539 212.721 8.36343 212.589C8.08886 212.445 7.71559 212.427 7.24362 212.534C6.70259 212.657 6.33728 212.86 6.14771 213.145C5.95813 213.43 5.88543 213.804 5.9296 214.266C5.95964 214.719 6.04639 215.262 6.18985 215.895L6.55761 217.518L9.90744 216.759Z" fill="black"/>
<path d="M8.19806 197.707C8.26693 198.162 8.20198 198.482 8.0032 198.668C7.80442 198.853 7.54748 198.969 7.23238 199.017C6.94063 199.061 6.6724 199.024 6.4277 198.906C6.18301 198.788 6.02622 198.501 5.95735 198.046C5.88847 197.591 5.95431 197.277 6.15485 197.103C6.35363 196.918 6.5989 196.803 6.89066 196.759C7.20576 196.711 7.48566 196.747 7.73035 196.865C7.97328 196.971 8.12918 197.252 8.19806 197.707Z" fill="black"/>
<path d="M10.8819 180.636C10.9374 181.354 10.8788 182.051 10.7062 182.727C10.5218 183.404 10.1988 183.974 9.73727 184.436C9.26308 184.887 8.62632 185.149 7.82699 185.222L7.71238 183.74C7.75945 183.736 7.89342 183.708 8.11428 183.655C8.32247 183.592 8.5492 183.462 8.79445 183.265C9.02703 183.058 9.222 182.747 9.37936 182.332C9.53672 181.918 9.58765 181.351 9.53216 180.633C9.48759 180.057 9.37019 179.61 9.17997 179.293C8.98883 178.965 8.77647 178.744 8.54286 178.632C8.30835 178.508 8.10237 178.447 7.92494 178.449C7.56013 178.477 7.27503 178.618 7.06963 178.871C6.86332 179.111 6.71044 179.431 6.61101 179.829C6.49982 180.229 6.40945 180.668 6.33993 181.147C6.25772 181.615 6.16964 182.083 6.07566 182.552C5.96992 183.022 5.82027 183.46 5.62669 183.865C5.43221 184.259 5.16709 184.582 4.83133 184.833C4.48289 185.073 4.02487 185.197 3.45727 185.205C2.64254 185.233 1.9775 184.899 1.46215 184.205C0.945887 183.499 0.642726 182.564 0.552668 181.399C0.499907 180.716 0.57435 180.071 0.775996 179.464C0.977643 178.856 1.31195 178.357 1.77892 177.965C2.24589 177.574 2.85007 177.35 3.59146 177.293L3.70198 178.722C3.2901 178.754 2.96742 178.868 2.73393 179.064C2.48868 179.26 2.3059 179.499 2.18561 179.781C2.06531 180.062 1.993 180.352 1.96867 180.65C1.93257 180.949 1.92362 181.216 1.94181 181.451C1.99366 182.122 2.15998 182.665 2.44077 183.082C2.72065 183.486 3.07241 183.672 3.49607 183.639C3.87355 183.622 4.165 183.487 4.3704 183.234C4.5758 182.982 4.72822 182.656 4.82765 182.258C4.92708 181.86 5.01201 181.427 5.08245 180.96C5.15197 180.481 5.23372 180.007 5.32769 179.538C5.42075 179.057 5.56453 178.62 5.75901 178.226C5.94082 177.821 6.21183 177.498 6.57203 177.258C6.91956 177.006 7.37667 176.87 7.94335 176.85C8.49919 176.842 8.9908 177 9.41821 177.322C9.83294 177.633 10.169 178.075 10.4263 178.647C10.6718 179.219 10.8237 179.883 10.8819 180.636Z" fill="black"/>
<path d="M170.939 9.75432L176.569 9.66739L176.587 10.8712L169.506 10.9805L169.353 1.0139L176.257 0.907288L176.276 2.18188L170.824 2.26608L170.871 5.29324L175.119 5.22763L175.138 6.44912L170.889 6.51473L170.939 9.75432Z" fill="black"/>
</g>
<defs>
<clipPath id="clip0_1_8">
<rect width="353" height="353" fill="white"/>
</clipPath>
</defs>
</svg>
