<svg width="396" height="396" viewBox="0 0 396 396" fill="none" xmlns="http://www.w3.org/2000/svg">
<path d="M310.53 77.3276C327.015 92.7005 340.176 111.288 349.199 131.943C358.223 152.599 362.921 174.885 362.998 197.426C363.078 219.967 358.537 242.283 349.658 263.002C340.778 283.719 327.748 302.399 311.37 317.886M265.518 125.597C275.41 134.821 283.305 145.973 288.72 158.367C294.134 170.76 296.952 184.132 297 197.655C297.046 211.18 294.322 224.57 288.994 237.001C283.666 249.432 275.849 260.639 266.021 269.932M123.425 254.214L151.066 288.42C165.475 306.252 172.681 315.168 178.992 316.138C184.457 316.978 189.978 315.026 193.7 310.939C198 306.217 198 294.753 198 271.828V124.174C198 101.249 198 89.7856 193.7 85.0635C189.978 80.9756 184.457 79.0233 178.992 79.8635C172.681 80.8342 165.475 89.75 151.066 107.582L123.425 141.788C120.514 145.39 119.059 147.191 117.258 148.487C115.662 149.635 113.874 150.489 111.978 151.009C109.838 151.595 107.523 151.595 102.891 151.595H79.4062C66.9289 151.595 60.6903 151.595 55.6486 153.26C45.7266 156.538 37.9434 164.321 34.6655 174.243C33 179.286 33 185.524 33 198.002C33 210.479 33 216.718 34.6655 221.758C37.9434 231.682 45.7266 239.465 55.6486 242.741C60.6903 244.408 66.9289 244.408 79.4062 244.408H102.891C107.523 244.408 109.838 244.408 111.978 244.994C113.874 245.513 115.662 246.367 117.258 247.515C119.059 248.81 120.514 250.612 123.425 254.214Z" stroke="black" stroke-width="30" stroke-linecap="round" stroke-linejoin="round"/>
<path d="M123.425 254.214L151.066 288.42C165.475 306.252 172.681 315.168 178.992 316.138C184.457 316.978 189.978 315.026 193.7 310.939C198 306.217 198 294.753 198 271.828V124.174C198 101.249 198 89.7856 193.7 85.0635C189.978 80.9756 184.457 79.0233 178.992 79.8635C172.681 80.8342 165.475 89.75 151.066 107.582L123.425 141.788C120.514 145.39 119.059 147.191 117.258 148.487C115.662 149.635 113.874 150.489 111.978 151.009C109.838 151.595 107.523 151.595 102.891 151.595H79.4062C66.9289 151.595 60.6903 151.595 55.6486 153.26C45.7266 156.538 37.9434 164.321 34.6655 174.243C33 179.286 33 185.524 33 198.002C33 210.479 33 216.718 34.6655 221.758C37.9434 231.682 45.7266 239.465 55.6486 242.741C60.6903 244.408 66.9289 244.408 79.4062 244.408H102.891C107.523 244.408 109.838 244.408 111.978 244.994C113.874 245.513 115.662 246.367 117.258 247.515C119.059 248.81 120.514 250.612 123.425 254.214Z" fill="black" stroke="black" stroke-width="30" stroke-linecap="round" stroke-linejoin="round"/>
</svg>
