<svg width="64" height="64" viewBox="0 0 64 64" fill="none" xmlns="http://www.w3.org/2000/svg">
<rect width="64" height="64" fill="#4353FF"/>
<path d="M41.3999 28.2005L38.4999 37.3405C38.4999 36.6405 36.4999 21.4805 36.4999 21.4805C31.8999 21.4805 29.4599 24.7405 28.1799 28.2005L24.6399 37.3605C24.6399 36.7005 24.1399 28.2805 24.1399 28.2805C23.9691 26.4577 23.1358 24.7609 21.7978 23.5113C20.4598 22.2618 18.71 21.5463 16.8799 21.5005L20.6399 44.4605C25.4399 44.4605 28.0399 41.2005 29.3799 37.7405L32.3799 29.9405C32.3799 30.2605 34.3799 44.4605 34.3799 44.4605C36.3427 44.4579 38.2536 43.8305 39.8359 42.669C41.4181 41.5075 42.5894 39.8723 43.1799 38.0005L49.9799 21.4805C45.1799 21.4805 42.6599 24.7405 41.3799 28.2005H41.3999Z" fill="white"/>
</svg>
