<svg width="751" height="800" viewBox="0 0 751 800" fill="none" xmlns="http://www.w3.org/2000/svg">
<path d="M534.5 609.75C635.3 597.75 723 536 734 479.6C751.4 390.7 750 262.65 750 262.65C750 89.15 635.7 38.25 635.7 38.25C578.1 11.9 479.15 0.85 376.35 0H373.85C271 0.85 172.1 11.9 114.5 38.25C114.5 38.25 0.249985 89.1 0.249985 262.65L0.149986 295.75C-0.0500138 327.75 -0.200015 363.25 0.699985 400.3C4.84998 570 32 737.3 189.7 778.8C262.4 797.95 324.85 801.95 375.15 799.2C466.3 794.2 517.5 766.85 517.5 766.85L514.5 701C514.5 701 449.35 721.5 376.15 719C303.65 716.5 227.15 711.2 215.4 622.6C214.281 614.381 213.73 606.095 213.75 597.8C213.75 597.8 284.95 615.1 375.15 619.2C430.3 621.7 482 616 534.55 609.75H534.5ZM615.15 486.25H531.5V282.25C531.5 239.3 513.3 217.5 476.95 217.5C436.75 217.5 416.6 243.35 416.6 294.55V406.2H333.4V294.5C333.4 243.3 313.25 217.45 273.05 217.45C236.7 217.45 218.5 239.25 218.5 282.25V486.2H134.85V276.1C134.85 233.15 145.85 199.05 167.85 173.8C190.65 148.55 220.45 135.6 257.5 135.6C300.3 135.6 332.7 152 354.15 184.75L375 219.5L395.85 184.75C417.3 152 449.7 135.6 492.55 135.6C529.55 135.6 559.35 148.55 582.1 173.8C604.2 199.05 615.15 233.15 615.15 276.1V486.25Z" fill="white"/>
</svg>
