<svg width="48" height="48" viewBox="0 0 48 48" fill="none" xmlns="http://www.w3.org/2000/svg">
<g clip-path="url(#clip0_6_11)">
<path d="M48 16.3998C48 16.2998 48 16.1998 47.9 16.0998V15.9998C47.9 15.8998 47.9 15.8998 47.8 15.7998V15.6998C47.8 15.6998 47.8 15.5998 47.7 15.5998C47.7 15.5998 47.7 15.4998 47.6 15.4998L47.5 15.3998C47.5 15.3998 47.5 15.2998 47.4 15.2998L47.3 15.1998L47.2 15.0998L47.1 14.9998C47.1 14.9998 47 14.9998 47 14.8998L25.1 0.299805C24.4 -0.200195 23.5 -0.200195 22.8 0.299805L0.9 14.9998C0.9 14.9998 0.8 14.9998 0.8 15.0998L0.7 15.1998L0.6 15.2998L0.5 15.3998C0.5 15.3998 0.5 15.4998 0.4 15.4998L0.3 15.5998C0.3 15.5998 0.3 15.6998 0.2 15.6998C0.2 15.6998 0.2 15.7998 0.1 15.7998V15.8998C0.1 15.8998 0.1 15.9998 0 16.0998V16.1998C0 16.2998 0 16.2998 0 16.3998V16.4998C0 16.5998 0 16.6998 0 16.7998V31.3998C0 31.4998 0 31.5998 0 31.6998V31.7998C0 31.8998 0 31.8998 0 31.9998V32.0998C0 32.1998 0 32.1998 0.1 32.2998V32.3998C0.1 32.3998 0.1 32.4998 0.2 32.4998C0.2 32.4998 0.2 32.5998 0.3 32.5998L0.4 32.6998C0.4 32.6998 0.4 32.7998 0.5 32.7998L0.6 32.8998L0.7 32.9998L0.8 33.0998C0.8 33.0998 0.9 33.0998 0.9 33.1998L22.8 47.7998C23.1 47.9998 23.5 48.0998 23.9 48.0998C24.3 48.0998 24.7 47.9998 25 47.7998L47.1 32.9998C47.1 32.9998 47.2 32.9998 47.2 32.8998L47.3 32.7998L47.4 32.6998L47.5 32.5998C47.5 32.5998 47.5 32.4998 47.6 32.4998L47.7 32.3998C47.7 32.3998 47.7 32.2998 47.8 32.2998C47.8 32.2998 47.8 32.1998 47.9 32.1998V32.0998C47.9 31.9998 47.9 31.9998 48 31.8998V31.7998C48 31.6998 48 31.6998 48 31.5998V31.4998C48 31.3998 48 31.2998 48 31.1998V16.6998C48 16.5998 48 16.4998 48 16.3998ZM26.1 5.8998L42.3 16.6998L35 21.4998L26.1 15.4998V5.8998ZM21.9 5.8998V15.4998L13 21.4998L5.8 16.6998L21.9 5.8998ZM4.1 20.4998L9.3 23.9998L4.1 27.4998V20.4998ZM21.9 42.0998L5.8 31.2998L13 26.4998L21.9 32.4998V42.0998ZM24 28.8998L16.7 23.9998L24 19.0998L31.3 23.9998L24 28.8998ZM26.1 42.0998V32.4998L35 26.4998L42.2 31.2998L26.1 42.0998ZM43.9 27.4998L38.7 23.9998L43.9 20.4998V27.4998Z" fill="white"/>
</g>
<defs>
<clipPath id="clip0_6_11">
<rect width="48" height="48" fill="white"/>
</clipPath>
</defs>
</svg>
