<svg width="24" height="24" viewBox="0 0 24 24" fill="none" xmlns="http://www.w3.org/2000/svg">
<path d="M7 8V22" stroke="white" stroke-width="2" stroke-miterlimit="10"/>
<path d="M1 8H23" stroke="white" stroke-width="2" stroke-miterlimit="10"/>
<path d="M21 2H3C1.89543 2 1 2.89543 1 4V20C1 21.1046 1.89543 22 3 22H21C22.1046 22 23 21.1046 23 20V4C23 2.89543 22.1046 2 21 2Z" stroke="white" stroke-width="2" stroke-miterlimit="10" stroke-linecap="square"/>
<path d="M4 6C4.55228 6 5 5.55228 5 5C5 4.44772 4.55228 4 4 4C3.44772 4 3 4.44772 3 5C3 5.55228 3.44772 6 4 6Z" fill="white"/>
<path d="M7 6C7.55228 6 8 5.55228 8 5C8 4.44772 7.55228 4 7 4C6.44772 4 6 4.44772 6 5C6 5.55228 6.44772 6 7 6Z" fill="white"/>
</svg>
