<svg viewBox="0 0 110 256" xmlns="http://www.w3.org/2000/svg" xml:space="preserve" style="fill-rule:evenodd;clip-rule:evenodd;stroke-miterlimit:10"><path d="M0-255.544S-13.218-150.25 83.593-128.672L69.737.323h17.101l12.201-167.899-64.803-88.291L0-255.544Z" style="fill-rule:nonzero" transform="translate(.894 254.265)" opacity=".15"/><path d="M0-256.173s3.014 105.23 67.561 125.326L56.891 0H89.87v-255.85L0-256.173Z" style="fill:#e31f26;fill-rule:nonzero" transform="translate(19.547 254.571)"/><g transform="translate(-500.06)" opacity=".1"><clipPath id="a"><path clip-rule="nonzero" d="M534.853-1.924h56.74V124.61h-56.74z"/></clipPath><g clip-path="url(#a)"><path d="M0-125.941S4.022-33.605 56.202 0c0 0-45.244-36.001-46.148-125.941H0Z" style="fill:#1d1c1a;fill-rule:nonzero;stroke:#636463;stroke-width:.65px" transform="translate(535.19 124.339)"/></g></g><g transform="translate(-500.06)" opacity=".1"><clipPath id="b"><path clip-rule="nonzero" d="M562.982-1.75h30.493v126.264h-30.493z"/></clipPath><g clip-path="url(#b)"><path d="M0-125.784S-1.334-44.239 29.911 0c0 0-24.182-50.475-16.704-125.619L0-125.784Z" style="fill:#1d1c1a;fill-rule:nonzero;stroke:#636463;stroke-width:.6px" transform="translate(563.292 124.34)"/></g></g><g transform="translate(-500.06)" opacity=".1"><clipPath id="c"><path clip-rule="nonzero" d="M587.549-1.571h12.678v126.618h-12.678z"/></clipPath><g clip-path="url(#c)"><path d="M0-125.865S-5.903-45.549 11.218.21c0 0-12.487-51.726-3.014-126.285l-8.204.21Z" style="fill:#1d1c1a;fill-rule:nonzero;stroke:#636463;stroke-width:.48px" transform="translate(588.774 124.752)"/></g></g><path d="M0-23.766S-8.749-8.877-24.931-9.919c0 0 16.674 9.919 24.931-13.847" style="fill:#f2bd38;fill-rule:nonzero" transform="translate(109.418 132.763)"/><g transform="translate(89.154 252.727)" opacity=".1"><clipPath id="d"><path clip-rule="nonzero" d="M-5.143-127.896H.349V2.238h-5.492z"/></clipPath><g clip-path="url(#d)"><path d="M0-126.03-4.779 1.866l4.684-.279v-129.483" style="fill:#1d1c1a;fill-rule:nonzero;stroke:#636463;stroke-width:.7px"/></g></g><g transform="translate(95.06 252.727)" opacity=".1"><clipPath id="e"><path clip-rule="nonzero" d="M-.474-127.869h9.433V2.242H-.474z"/></clipPath><g clip-path="url(#e)"><path d="M0-125.984 3.908 1.861l4.679-.414-8.712-129.292" style="fill:#1d1c1a;fill-rule:nonzero;stroke:#636463;stroke-width:.7px"/></g></g></svg>