<svg viewBox="0 0 610 84" xmlns="http://www.w3.org/2000/svg" xml:space="preserve" style="fill-rule:evenodd;clip-rule:evenodd;stroke-miterlimit:10"><path style="fill:#ebebeb" d="M54.447 169.596h48.12v38.842h-48.12z" transform="matrix(12.6571 0 0 2.15324 -689.138 -365.181)"/><path style="fill:#bc9f77" d="M0 .213h609.355v83.81H0z" transform="translate(.005 -.362)"/><path style="fill:#9c8156" d="M0 .213h609.355v22.008H0z" transform="translate(.005 61.44)"/><path style="fill:#7f6846" d="M0 0h609.355v3.452H0z" transform="translate(.005 80.422)"/><path d="M0 0h609.355" style="fill:none;fill-rule:nonzero;stroke:#9c8156;stroke-width:1px" transform="translate(.005 6.406)"/><path d="M-609.355 0H0" style="fill:none;fill-rule:nonzero;stroke:#9c8156;stroke-width:1px" transform="matrix(-1 0 0 1 .005 56.034)"/><path d="M-31.617-25.074c-.132.519 51.223 0 51.223 0" style="fill:none;fill-rule:nonzero;stroke:#9c8156;stroke-width:1px" transform="scale(-1 1) rotate(75.67 -180 -174.292)"/><path d="M-40.473-25.052c-.247.475 55.933 0 55.933 0" style="fill:none;fill-rule:nonzero;stroke:#9c8156;stroke-width:1px" transform="scale(-1 1) rotate(62.537 -179.872 -196.227)"/><path d="M-54.703-25.015c-.355.401 66.314 0 66.314 0" style="fill:none;fill-rule:nonzero;stroke:#9c8156;stroke-width:1px" transform="scale(-1 1) rotate(48.452 -183.26 -217.415)"/><path d="M-81.582-25.683c-.45.304 89.911.351 88.5 0" style="fill:none;fill-rule:nonzero;stroke:#9c8156;stroke-width:1px" transform="scale(-1 1) rotate(34.11 -198.91 -221.604)"/><path d="M-106.97-25.746c-.487.24 113.466.541 112.117 0" style="fill:none;fill-rule:nonzero;stroke:#9c8156;stroke-width:1px" transform="scale(-1 1) rotate(26.273 -209.863 -155.398)"/><path d="M-132.493-25.782c-.506.198 137.85.655 136.552 0" style="fill:none;fill-rule:nonzero;stroke:#9c8156;stroke-width:1px" transform="scale(-1 1) rotate(21.312 -218.89 -14.276)"/><path d="M-84.975-13.379c28.333.858 57.436-.132 87.081.001" style="fill:none;fill-rule:nonzero;stroke:#9c8156;stroke-width:1px" transform="scale(-1 1) rotate(17.894 -146.172 6.901)"/><path d="M-19.474-24.555c-.132-.519 51.223 0 51.223 0" style="fill:none;fill-rule:nonzero;stroke:#9c8156;stroke-width:1px" transform="scale(1 -1) rotate(-75.67 156.168 -226.586)"/><path d="M-15.213-24.577c-.247-.475 55.933 0 55.933 0" style="fill:none;fill-rule:nonzero;stroke:#9c8156;stroke-width:1px" transform="scale(1 -1) rotate(-62.537 171.765 -298.762)"/><path d="M-11.256-24.614c-.355-.401 66.314 0 66.314 0" style="fill:none;fill-rule:nonzero;stroke:#9c8156;stroke-width:1px" transform="scale(1 -1) rotate(-48.452 191.757 -421.717)"/><path d="M-7.879-25.028c-.45-.304 89.911-.351 88.5 0" style="fill:none;fill-rule:nonzero;stroke:#9c8156;stroke-width:1px" transform="scale(1 -1) rotate(-34.11 218.739 -655.486)"/><path d="M-6.009-24.965c-.487-.24 113.466-.541 112.117 0" style="fill:none;fill-rule:nonzero;stroke:#9c8156;stroke-width:1px" transform="scale(1 -1) rotate(-26.273 247.406 -931.15)"/><path d="M-4.851-24.929c-.506-.198 137.85-.655 136.552 0" style="fill:none;fill-rule:nonzero;stroke:#9c8156;stroke-width:1px" transform="scale(1 -1) rotate(-21.312 277.832 -1256.453)"/><path d="M-2.425-15.422c33.44-1.323 66.351.884 100.5-.001" style="fill:none;fill-rule:nonzero;stroke:#9c8156;stroke-width:1.02px" transform="matrix(.9321 .30058 .30058 -.9321 521.481 -7.238)"/></svg>