<?xml version="1.0" encoding="utf-8"?>
<!-- Generator: Adobe Illustrator 18.1.0, SVG Export Plug-In . SVG Version: 6.00 Build 0)  -->
<!DOCTYPE svg PUBLIC "-//W3C//DTD SVG 1.1//EN" "http://www.w3.org/Graphics/SVG/1.1/DTD/svg11.dtd">
<svg version="1.1" id="Layer_1" xmlns="http://www.w3.org/2000/svg" xmlns:xlink="http://www.w3.org/1999/xlink" x="0px" y="0px"
	 viewBox="-255 348.2 100 87" style="enable-background:new -255 348.2 100 87;" xml:space="preserve">
<g>
	<polygon style="fill:#FFFFFF;" points="-215.4,403 -216.5,406.5 -213.2,406.5 -214.3,403 	"/>
	<path style="fill:#FFFFFF;" d="M-212.2,387.7c0.2-0.2,0.2-0.5,0.2-1.3c0-0.8,0-1.1-0.2-1.3c-0.1-0.1-0.4-0.2-1-0.2h-3.4v3h3.4
		C-212.6,387.9-212.3,387.8-212.2,387.7z"/>
	<path style="fill:#FFFFFF;" d="M-194.9,371.8c0-0.1-0.1-0.2-0.2-0.2c-0.1,0-0.3,0.1-0.3,0.1c-1.1,0.8-2.2,1.8-3,2.7
		c0.1,0.2,0.3,0.2,0.4,0.2C-197,374.7-194.9,372.3-194.9,371.8z"/>
	<path style="fill:#FFFFFF;" d="M-197.4,385h-2.2c-0.6,0-0.9,0-1,0.2c-0.2,0.2-0.3,0.6-0.3,3.9c0,3.3,0.1,3.8,0.3,3.9
		c0.1,0.1,0.3,0.2,1,0.2h2.2c0.6,0,0.9,0,1-0.2c0.2-0.2,0.3-0.6,0.3-3.9c0-3.3-0.1-3.8-0.3-3.9C-196.6,385.1-196.8,385-197.4,385z"
		/>
	<path style="fill:#FFFFFF;" d="M-197.3,402.4h-3.4v3h3.4c0.6,0,0.9,0,1-0.2c0.2-0.2,0.2-0.5,0.2-1.3c0-0.8,0-1.1-0.2-1.3
		C-196.4,402.5-196.6,402.4-197.3,402.4z"/>
	<path style="fill:#FFFFFF;" d="M-180.6,402.5h-3.6l0,8.4h3.5c1,0,1.3-0.1,1.6-0.3c0.2-0.2,0.3-0.9,0.3-3.9c0-3-0.1-3.7-0.3-3.9
		C-179.2,402.5-179.6,402.5-180.6,402.5z"/>
	<path style="fill:#FFFFFF;" d="M-158.3,374.4l-44.6-25.2c-1.2-0.7-3.2-0.7-4.4,0l-44.6,25.2c-1.2,0.7-2.2,2.5-2.2,3.9v36.8
		c0,1.4,1.1,2.9,2.5,3.3l44.1,16.1c1.4,0.4,3.6,0.4,5,0l44.1-16.1c1.4-0.4,2.5-1.9,2.5-3.3v-36.8C-156,376.8-157,375.1-158.3,374.4z
		 M-217.7,365c1.7-0.7,4.3-0.4,7.5-0.4c7.7,0,15.1-0.5,15.5-0.5c0.2,0,0.3-0.2,1.7,1c0.2,0.2,0.8,0.5,0.8,0.8c0,0.2-0.7,0.3-1.1,0.4
		c-1.2,0.1-2.7,0.3-4.2,0.4c-1.1,0.3-2,1-2.7,1.7c-2.2,2.1-3.8,3.2-4.2,3.8c1.1-0.5,1.7-0.9,2.5-0.9c0.5,0,1.5,0.5,1.5,1.2
		c0,0.2-0.1,0.3-0.3,0.5c-0.8,0.7-3.3,2.6-3.3,3.5c0,0.2,0.1,0.2,0.2,0.2c0.3,0,1.3-0.7,2.3-1.4c0.6-0.4,1.1-1.2,1.3-1.5
		c0.5-0.7,1.1-1.4,1.8-2c1.3-1.2,2.3-1.7,2.9-1.7c0.3,0,0.8,0.3,1.2,0.8c0.6,0.5,0.6,0.8,0.6,1c0,1.6-2.7,3.8-3.9,3.8
		c-0.3,0-0.8-0.2-1.2-0.6c-0.3,0.5-0.5,0.9-0.5,1.2c0,0.3,0.1,0.6,0.6,0.6c0.3,0,0.7-0.1,0.9-0.2c3-1.1,4.6-2.6,4.7-2.6
		c0.1,0,0.1,0.1,0.1,0.2c0,0.2-0.7,0.9-1.3,1.5c-1.2,1.1-2.8,2.3-4.4,2.3c-0.7,0-2.2-1.6-2.3-2.3c-1,0.9-2.7,2.1-3.4,2.1
		c-0.9,0-1.4-1.2-1.4-2c0-1,1.3-2.3,2.4-3.4c-1.3,0.5-2.7,1.8-5,4.6c-0.1,0.1-0.4,0.8-0.6,0.8c-0.3,0-1.4-0.9-1.4-1.5
		c0-0.1,0-0.2,0.1-0.4c2-3,6.3-6.9,9-9.3c-0.7,0-1.3,0-1.7,0c-0.5,0-2,1.2-3.1,2.3c-1.3,1.3-4.6,4.5-6.8,7.3
		c-1.3,1.7-1.1,2.2-1.4,2.2c-0.7,0-1.8-2-1.8-2.3c0-1,3-3.9,4.5-5.3c2.5-2.4,4-3.7,4.3-3.9c0.1-0.1,0.4-0.3,0.4-0.3
		c-3.5-0.6-7.2-1.7-9.4-1.1c-2.8,0.8-4.2,6.8-0.2,5.3c1.7-0.6,3.3-1.9,4.2-3.1c0.4-0.4,0.6-0.2,0.2,0.4c-1.3,2-3.2,3.8-6.9,4
		C-222.7,372.4-222,366.8-217.7,365z M-191.5,389.1c0,4.2-0.5,5.9-1.4,6.7c-0.6,0.6-1.2,0.8-2.8,0.8h-5.6c-1.6,0-2.2-0.2-2.8-0.8
		c-0.9-0.9-1.4-2.6-1.4-6.7c0-4.2,0.5-5.9,1.4-6.7c0.6-0.6,1.2-0.8,2.8-0.8h5.6c1.6,0,2.2,0.2,2.8,0.8
		C-192,383.3-191.5,385-191.5,389.1z M-222.6,393.3h1.6v-8.4h-1.6v-3.4h11.7c1.3,0,2.1,0.2,2.7,0.8c0.7,0.7,0.9,1.5,0.9,3.4
		c0,2.7-0.7,3.3-2.5,3.7l2.3,3.9h1.4v3.4h-4.7l-3.3-5.7h-2.5v2.3h1.6v3.4h-7.6V393.3z M-236.8,393.3h4.1v-8.4h-4.1v-3.4h13.1v3.4
		h-4.1v8.4h4.1v3.4h-13.1V393.3z M-224.9,414.2h-7.8v-3.4h1.7v-2.3l-4.4-6h-1.5v-3.4h7.8v3.3h-1.3l1.7,2.6h0.1l1.8-2.6h-1.3v-3.3
		h7.5v3.4h-1.5l-4.5,5.9v2.4h1.7C-224.9,410.8-224.9,414.2-224.9,414.2z M-175.6,413c-0.9,0.9-2.1,1.2-4.2,1.2h-8.5h-1.8h-4.7
		l-3.3-5.7h-2.5v2.3h1.6v3.4h-7h-0.6h-6.8v-3.3h1.4l-0.4-1.3h-4.9l-0.3,1.3h1.4v3.3h-7.5v-3.4h1.7l4-11.8h6.8l4,11.8h0.6h0.6h1v-8.4
		h-1.6v-3.4h11.7c1.3,0,2.1,0.2,2.7,0.8c0.7,0.7,0.9,1.5,0.9,3.4c0,2.7-0.7,3.3-2.5,3.7l2.3,3.9h1.5h1.6v-8.4h-1.6v-3.4h10.3
		c2.2,0,3.3,0.3,4.2,1.2c1,1,1.6,2.6,1.6,6.4C-174,410.4-174.6,412-175.6,413z M-173.3,384.9h-1.6v11.7h-5l-5.3-8.6v5.2h1.6l0,3.4
		h-7.2v-3.4h1.6v-8.4h-1.6v-3.4h6.9l5,7.7v-4.4h-1.5v-3.4h7L-173.3,384.9L-173.3,384.9z"/>
</g>
</svg>
