<svg xmlns="http://www.w3.org/2000/svg" xmlns:xlink="http://www.w3.org/1999/xlink" version="1.1" id="logo" x="0px" y="0px" viewBox="0 0 456.3 75" xml:space="preserve">
<style>
	.style1{
		fill: #000000;
	}
	.style1:hover{
		fill: #0c9be5;
	}
</style>
<g class="style1" id="title">
	<path d="M22.1 56.3c2.5 0.2 5.9 0.6 8 1.1c0.6 1.8 0.7 5.7 0.4 7.4H2.7c0.2-2 0.9-5.6 1.6-7.2 c1.2-0.5 4.1-1 5.5-1.3V10.4c-1.7-0.2-4-0.6-5.3-1C4.2 7.1 4.1 4.6 4.5 2h41.8v15.2c-2.7 0-6.8-0.6-9.2-1.4c-0.4-1.4-1-4.6-1.1-6.3 H22.1v21h11c0.1-1 0.4-2.7 0.7-3.8c2.2-0.7 5.8-1.3 8.7-1.3v17.3C40 43 36.1 42.8 33.8 42c-0.3-1-0.6-3-0.7-4.1h-11V56.3z"/>
	<path d="M58.1 16.7c-1.6 0-4.1-0.2-5.4-0.6c-0.3-1.8-0.4-5.6-0.2-7.8c6.3-0.7 16.2-1.1 23.5-1.1 c13.4 0 23.1 5 23.1 16.9c0 7.6-5.1 12.9-11.5 15.3c4.6 8.2 10.2 15.6 12.5 17l4.4-0.5c0 2.5-0.7 6.4-1.7 8.3 c-2.3 0.7-8 1.6-10.6 1.8c-3-2.1-11-14.5-15.8-24.7c-2.4 0-4.6-0.2-6.1-0.6v15.5c1.8 0.2 4.4 0.6 5.9 1.1c0.5 1.8 0.6 5.7 0.3 7.4 H51c0.2-2 0.9-5.6 1.6-7.2c1.2-0.5 4.1-1 5.5-1.3V16.7z M70.5 33.5c1.7 0.3 4.5 0.5 6.6 0.5c5.4 0 9.8-2.9 9.8-9.4 c0-6-5-9.6-12-9.6c-1.5 0-3.2 0.1-4.4 0.2V33.5z"/>
	<path d="M159.4 35.6c0 19.4-10.6 30.7-26.9 30.7c-17.4 0-27.1-10.6-27.1-30.7c0-18 11.7-29.2 27.1-29.2 C148.7 6.4 159.4 16.8 159.4 35.6z M132.5 58.4c9.3 0 13.8-8.6 13.8-22.8c0-12.5-5.5-21.4-13.8-21.4c-9.1 0-14 8.2-14 21.4 C118.5 49.6 123.7 58.4 132.5 58.4z"/>
	<path d="M202.2 39.4c1.9 3.5 3.4 7.8 4.1 11.9h1v-35c-1.9-0.2-4.6-0.6-6-1c-0.3-1.8-0.5-5.7-0.1-7.4h20.4 c0.2 0.6 0.2 1.8 0.2 3c0 1.7-0.2 3.4-0.4 4.4c-1.2 0.4-3.9 0.8-5.4 0.9v49.1h-12.4L184 30.6c-1.8-3.2-3.5-8.1-4.1-11.5h-1v37.2 c1.9 0.2 4.4 0.6 6 1.1c0.5 1.8 0.6 5.7 0.3 7.4h-22.4c0.2-2 0.8-5.6 1.4-7.2c1.2-0.5 3.7-1 5-1.3V16.4c-1.7-0.2-4-0.6-5.3-1 c-0.3-1.8-0.5-5.7-0.1-7.4h20.6L202.2 39.4z"/>
	<path d="M257.4 56.3c2.5 0.2 5.8 0.6 7.9 1.1c0.6 1.8 0.7 5.7 0.4 7.4h-29.2c0.2-2 1.2-5.5 1.9-7.1 c1.5-0.5 4.8-1.1 6.6-1.4V15.6h-8.9c-0.2 1.7-0.6 4.9-1 6.5c-2.9 1-6.6 1.1-9.3 1.1V8h50.8v15.4c-3 0-6.6-0.3-9.4-1.1 c-0.5-1.8-1-4.8-1.1-6.7h-8.8V56.3z"/>
	<path d="M282.7 64.8c0.2-2 0.9-5.6 1.6-7.2c1.2-0.5 4.1-1 5.5-1.3V10.4c-1.7-0.2-4-0.6-5.3-1 c-0.3-2.3-0.5-4.8-0.1-7.4h43.4v14.5c-2.7 0-6.6-0.4-9-1.2c-0.4-1.4-0.8-4.1-1-5.8h-15.8v19.6h12.4c0.1-0.9 0.4-2.5 0.7-3.5 c2.2-0.7 5.8-1.2 8.7-1.2v16.4c-2.6 0.2-6.5 0.1-8.8-0.6c-0.3-1-0.6-2.7-0.7-3.7h-12.3v20.6h16c0.2-2.1 0.6-4.6 1-6.5 c2.2-0.7 6.8-1.2 9.5-1.2v15.4H282.7z"/>
	<path d="M374.4 39.4c1.9 3.5 3.4 7.8 4.1 11.9h1v-35c-1.9-0.2-4.6-0.6-6-1c-0.3-1.8-0.5-5.7-0.1-7.4h20.4 c0.2 0.6 0.2 1.8 0.2 3c0 1.7-0.2 3.4-0.4 4.4c-1.2 0.4-3.9 0.8-5.4 0.9v49.1h-12.4l-19.6-34.8c-1.8-3.2-3.5-8.1-4.1-11.5h-1v37.2 c1.9 0.2 4.4 0.6 6 1.1c0.5 1.8 0.6 5.7 0.3 7.4h-22.4c0.2-2 0.8-5.6 1.4-7.2c1.2-0.5 3.7-1 5-1.3V16.4c-1.7-0.2-4-0.6-5.3-1 c-0.3-1.8-0.5-5.7-0.1-7.4h20.6L374.4 39.4z"/>
	<path d="M405 17.2c-1.6-0.2-3.9-0.5-5.3-0.7c-0.3-2.4-0.6-4.9-0.1-7.5c5.9-0.7 17.6-1.4 23.1-1.4 c18.6 0 31.2 8.6 31.2 27.8c0 20.9-14.2 30-28.1 30c-7.5 0-20.2-0.2-27.8-0.7c0.2-2 0.9-5.6 1.6-7.2c1.2-0.5 3.9-1 5.4-1.2V17.2z M417.3 57.2c1.8 0.2 4.5 0.2 6.2 0.2c10.6 0 17.8-5.9 17.8-20.8c0-14.7-7.6-21.3-19-21.3c-1.4 0-3.6 0.2-5 0.3V57.2z"/>
</g>
</svg>
